M48
;Layer_Color=9474304
;FILE_FORMAT=2:5
INCH,LZ
;TYPE=PLATED
T1F00S00C0.00787
T3F00S00C0.01181
T5F00S00C0.01378
%
T01
X0032Y00684
X0096358Y0067224
X01171Y00534
T03
X0020401Y0082477
X0043371Y0081215
X0032087Y0100197
T05
X00157Y00131
X00233Y00224
X0029Y00298
X00333Y00297
X00367Y00298
X00452Y003
X0045Y00328
X00448Y00354
X0022244Y0042815
X0023425Y0056988
X0030512
X0033268Y0056791
X0036122
X0061713Y0057874
X0063484Y0056299
X0074884Y0045899
X0099311Y0068209
X011939Y0095669
Y0098032
X0133071Y0101673
X0136614Y0100886
X01273Y00117
M30
