%FSLAX25Y25*%
%MOIN*%
G70*
G01*
G75*
G04 Layer_Physical_Order=5*
G04 Layer_Color=16440176*
%ADD10C,0.01244*%
%ADD11C,0.01772*%
%ADD12C,0.00787*%
%ADD13C,0.01000*%
%ADD14C,0.01575*%
%ADD15R,0.01969X0.01969*%
%ADD16R,0.01969X0.01969*%
%ADD17R,0.19291X0.19291*%
%ADD18O,0.00984X0.02756*%
%ADD19O,0.02756X0.00984*%
%ADD20R,0.04134X0.04134*%
%ADD21R,0.04134X0.08858*%
%ADD22R,0.01083X0.00984*%
%ADD23R,0.01083X0.01969*%
%ADD24R,0.03150X0.06693*%
%ADD25R,0.07992X0.05000*%
%ADD26R,0.05512X0.04724*%
%ADD27R,0.12992X0.12992*%
%ADD28O,0.00984X0.03150*%
%ADD29O,0.03150X0.00984*%
%ADD30R,0.03937X0.01575*%
%ADD31R,0.03150X0.03543*%
%ADD32R,0.03543X0.03150*%
%ADD33C,0.00787*%
%ADD34R,0.02362X0.01969*%
%ADD35C,0.05906*%
%ADD36O,0.02559X0.00984*%
%ADD37O,0.00984X0.02559*%
%ADD38R,0.11024X0.11024*%
%ADD39R,0.03543X0.06299*%
%ADD40R,0.04921X0.07874*%
%ADD41R,0.05118X0.06693*%
%ADD42O,0.02559X0.00787*%
%ADD43O,0.00787X0.02559*%
%ADD44R,0.03307X0.04803*%
%ADD45R,0.01740X0.01378*%
%ADD46R,0.01772X0.00984*%
%ADD47R,0.02756X0.06299*%
%ADD48C,0.01264*%
%ADD49C,0.01969*%
%ADD50C,0.00866*%
%ADD51C,0.00709*%
%ADD52C,0.00800*%
%ADD53C,0.00591*%
%ADD54C,0.00669*%
%ADD55C,0.00984*%
%ADD56C,0.01181*%
%ADD57C,0.01378*%
%ADD58C,0.01410*%
%ADD59R,0.01953X0.01969*%
%ADD60R,0.02953X0.01969*%
%ADD61R,0.05906X0.04134*%
%ADD62R,0.04423X0.05873*%
%ADD63R,0.09700X0.03900*%
%ADD64R,0.06400X0.04800*%
%ADD65R,0.02400X0.02800*%
%ADD66R,0.02800X0.02400*%
%ADD67R,0.02500X0.02800*%
%ADD68R,0.15900X0.01100*%
%ADD69R,0.02589X0.09647*%
%ADD70R,0.01975X0.09510*%
%ADD71R,0.05649X0.04800*%
%ADD72R,0.18046X0.01322*%
%ADD73R,0.18000X0.02233*%
%ADD74R,0.01364X0.08514*%
%ADD75R,0.01331X0.08465*%
%ADD76R,0.22123X0.02927*%
%ADD77R,0.09823X0.14573*%
%ADD78R,0.08600X0.05500*%
%ADD79R,0.08100X0.05600*%
%ADD80R,0.03700X0.03400*%
%ADD81R,0.06197X0.04400*%
%ADD82R,0.22700X0.03200*%
%ADD83R,0.08421X0.04909*%
%ADD84R,0.01422X0.05191*%
%ADD85R,0.01545X0.00445*%
%ADD86R,0.01558X0.02675*%
%ADD87R,0.04000X0.02020*%
%ADD88C,0.02165*%
%ADD89C,0.01969*%
%ADD90C,0.01575*%
%ADD91C,0.01772*%
%ADD92C,0.11811*%
%ADD93C,0.03543*%
%ADD94C,0.02598*%
%ADD95C,0.02756*%
%ADD96C,0.02559*%
%ADD97C,0.02362*%
%ADD98C,0.02756*%
%ADD99C,0.03937*%
G36*
X134517Y104485D02*
X134865Y103965D01*
X135386Y103617D01*
X136000Y103494D01*
X136534Y103601D01*
X136617Y103185D01*
X136965Y102665D01*
X137486Y102317D01*
X138100Y102194D01*
X138715Y102317D01*
X138961Y102481D01*
X139452Y102384D01*
X139465Y102365D01*
X139986Y102017D01*
X140600Y101894D01*
X141215Y102017D01*
X141735Y102365D01*
X142083Y102885D01*
X142091Y102923D01*
X142588Y102874D01*
X142537Y75968D01*
X142500D01*
X141998Y75868D01*
X141572Y75583D01*
X141287Y75157D01*
X141187Y74655D01*
Y70100D01*
X141287Y69598D01*
X141572Y69172D01*
X141998Y68887D01*
X142500Y68787D01*
X142523Y68765D01*
X142516Y65065D01*
X142530Y64993D01*
X142370Y64962D01*
X141752Y64548D01*
X141338Y63930D01*
X141193Y63200D01*
X141338Y62470D01*
X141666Y61981D01*
X141388Y61565D01*
X140960Y61650D01*
X140230Y61505D01*
X139612Y61092D01*
X139198Y60473D01*
X139053Y59743D01*
X139198Y59014D01*
X139612Y58395D01*
X140230Y57982D01*
X140960Y57837D01*
X141690Y57982D01*
X142061Y58230D01*
X142502Y57994D01*
X142417Y13934D01*
X142015Y13637D01*
X141863Y13683D01*
X140551Y13812D01*
X139239Y13683D01*
X137978Y13300D01*
X136815Y12678D01*
X135796Y11842D01*
X134959Y10823D01*
X134338Y9660D01*
X133955Y8399D01*
X133826Y7087D01*
X133955Y5775D01*
X134128Y5204D01*
X133830Y4803D01*
X13914D01*
X13657Y5232D01*
X13694Y5300D01*
X14076Y6562D01*
X14206Y7874D01*
X14076Y9186D01*
X13694Y10448D01*
X13072Y11610D01*
X12236Y12630D01*
X11217Y13466D01*
X10054Y14087D01*
X8792Y14470D01*
X7480Y14599D01*
X6168Y14470D01*
X5804Y14360D01*
X5403Y14658D01*
Y77138D01*
X5512Y77227D01*
X6242Y77372D01*
X6860Y77786D01*
X7273Y78404D01*
X7418Y79134D01*
X7273Y79864D01*
X6860Y80482D01*
X6242Y80895D01*
X5512Y81041D01*
X5403Y81130D01*
Y102076D01*
X5844Y102311D01*
X5985Y102217D01*
X6600Y102094D01*
X7215Y102217D01*
X7735Y102565D01*
X7748Y102584D01*
X8239Y102682D01*
X8485Y102517D01*
X9100Y102394D01*
X9714Y102517D01*
X10235Y102865D01*
X10583Y103385D01*
X10597Y103454D01*
X11013Y103732D01*
X11200Y103694D01*
X11814Y103817D01*
X12335Y104165D01*
X12558Y104497D01*
X134514D01*
X134517Y104485D01*
D02*
G37*
G36*
X108100Y151600D02*
X147700D01*
D01*
X147700D01*
X147800Y151500D01*
Y107300D01*
X4600D01*
Y107200D01*
X143736D01*
X143809Y107251D01*
X143950Y107200D01*
X147800D01*
Y106788D01*
Y73002D01*
X147300Y72642D01*
X146981Y72706D01*
X146714Y72653D01*
X146166Y73005D01*
X146165Y73014D01*
X145817Y73535D01*
X145296Y73883D01*
X144681Y74006D01*
X144067Y73883D01*
X144013Y73847D01*
X143513Y74115D01*
Y74300D01*
X143413Y74802D01*
X143337Y74915D01*
X143396Y105300D01*
X4600D01*
Y4000D01*
X143201D01*
X143311Y61335D01*
X143830Y61438D01*
X144448Y61852D01*
X144862Y62470D01*
X145007Y63200D01*
X144862Y63930D01*
X144448Y64548D01*
X143830Y64962D01*
X143318Y65063D01*
X143327Y69695D01*
X143413Y69823D01*
X143513Y70325D01*
Y70685D01*
X144013Y70953D01*
X144067Y70917D01*
X144681Y70794D01*
X144948Y70847D01*
X145496Y70495D01*
X145498Y70486D01*
X145846Y69965D01*
X146367Y69617D01*
X146981Y69494D01*
X147300Y69558D01*
X147800Y69198D01*
Y3600D01*
Y-100D01*
X0D01*
Y37277D01*
X500Y37544D01*
X845Y37313D01*
X1575Y37168D01*
X2304Y37313D01*
X2923Y37727D01*
X3336Y38345D01*
X3481Y39075D01*
X3336Y39804D01*
X2923Y40423D01*
X3037Y40948D01*
X3336Y41396D01*
X3481Y42126D01*
X3336Y42856D01*
X2923Y43474D01*
X2304Y43888D01*
X1575Y44033D01*
X845Y43888D01*
X500Y43657D01*
X0Y43924D01*
Y73483D01*
X500Y73634D01*
X817Y73160D01*
X1436Y72746D01*
X2165Y72601D01*
X2895Y72746D01*
X3514Y73160D01*
X3927Y73778D01*
X4072Y74508D01*
X3927Y75238D01*
X3514Y75856D01*
X2895Y76269D01*
X2165Y76415D01*
X1436Y76269D01*
X817Y75856D01*
X500Y75381D01*
X0Y75533D01*
Y107300D01*
Y168800D01*
X25700D01*
Y194600D01*
X108100D01*
Y151600D01*
D02*
G37*
%LPC*%
G36*
X136581Y44606D02*
X135967Y44483D01*
X135446Y44135D01*
X135098Y43615D01*
X134976Y43000D01*
X135098Y42386D01*
X135446Y41865D01*
X135967Y41517D01*
X136581Y41394D01*
X137196Y41517D01*
X137716Y41865D01*
X138065Y42386D01*
X138187Y43000D01*
X138065Y43615D01*
X137716Y44135D01*
X137196Y44483D01*
X136581Y44606D01*
D02*
G37*
G36*
X44800Y37307D02*
X44070Y37162D01*
X43452Y36748D01*
X43295Y36514D01*
X34510D01*
X34510Y36514D01*
X34049Y36423D01*
X33659Y36162D01*
X33659Y36162D01*
X29170Y31673D01*
X29000Y31707D01*
X28270Y31562D01*
X27652Y31148D01*
X27238Y30530D01*
X27093Y29800D01*
X27238Y29070D01*
X27652Y28452D01*
X28270Y28038D01*
X29000Y27893D01*
X29730Y28038D01*
X30348Y28452D01*
X30762Y29070D01*
X30906Y29797D01*
X31393Y29700D01*
X31538Y28970D01*
X31952Y28352D01*
X32570Y27938D01*
X33300Y27793D01*
X34030Y27938D01*
X34648Y28352D01*
X34783Y28554D01*
X35283D01*
X35352Y28452D01*
X35970Y28038D01*
X36700Y27893D01*
X37430Y28038D01*
X38048Y28452D01*
X38462Y29070D01*
X38495Y29236D01*
X43461D01*
X43852Y28652D01*
X44470Y28238D01*
X45200Y28093D01*
X45930Y28238D01*
X46548Y28652D01*
X46962Y29270D01*
X47107Y30000D01*
X46962Y30730D01*
X46548Y31348D01*
X46362Y31473D01*
X46762Y32070D01*
X46907Y32800D01*
X46762Y33530D01*
X46348Y34148D01*
X46255Y34211D01*
X46562Y34670D01*
X46707Y35400D01*
X46562Y36130D01*
X46148Y36748D01*
X45530Y37162D01*
X44800Y37307D01*
D02*
G37*
G36*
X106595Y35554D02*
X105926Y35466D01*
X105304Y35208D01*
X104769Y34798D01*
X104359Y34263D01*
X104101Y33641D01*
X104013Y32972D01*
X104101Y32304D01*
X104359Y31682D01*
X104769Y31147D01*
X105304Y30737D01*
X105926Y30479D01*
X106595Y30391D01*
X107263Y30479D01*
X107885Y30737D01*
X108420Y31147D01*
X108830Y31682D01*
X109088Y32304D01*
X109176Y32972D01*
X109088Y33641D01*
X108830Y34263D01*
X108420Y34798D01*
X107885Y35208D01*
X107263Y35466D01*
X106595Y35554D01*
D02*
G37*
G36*
X83000Y42507D02*
X82270Y42362D01*
X81652Y41948D01*
X81238Y41330D01*
X81093Y40600D01*
X81238Y39870D01*
X81652Y39252D01*
X81840Y39126D01*
X81742Y38636D01*
X81370Y38562D01*
X80752Y38148D01*
X80338Y37530D01*
X80193Y36800D01*
X80338Y36070D01*
X80752Y35452D01*
X80752D01*
X80852Y35148D01*
X80438Y34530D01*
X80293Y33800D01*
X80438Y33070D01*
X80852Y32452D01*
X81470Y32038D01*
X82200Y31893D01*
X82858Y32024D01*
X82938Y31970D01*
Y31970D01*
X82938Y31970D01*
X83352Y31352D01*
X83970Y30938D01*
X84700Y30793D01*
X85430Y30938D01*
X86048Y31352D01*
X86462Y31970D01*
X86607Y32700D01*
X86462Y33430D01*
X86048Y34048D01*
X85430Y34462D01*
X84700Y34607D01*
X83975Y34462D01*
X83962Y34530D01*
X83548Y35148D01*
X83448Y35215D01*
Y35452D01*
X83862Y36070D01*
X84007Y36800D01*
X83862Y37530D01*
X83448Y38148D01*
X83260Y38274D01*
X83358Y38764D01*
X83730Y38838D01*
X84348Y39252D01*
X84762Y39870D01*
X84907Y40600D01*
X84762Y41330D01*
X84348Y41948D01*
X83730Y42362D01*
X83000Y42507D01*
D02*
G37*
G36*
X131081Y42506D02*
X130467Y42383D01*
X129946Y42035D01*
X129598Y41515D01*
X129475Y40900D01*
X129598Y40286D01*
X129946Y39765D01*
X130467Y39417D01*
X131081Y39294D01*
X131447Y39367D01*
X131725Y38951D01*
X131703Y38919D01*
X131558Y38189D01*
X131703Y37459D01*
X132116Y36841D01*
X132735Y36427D01*
X133465Y36282D01*
X134194Y36427D01*
X134813Y36841D01*
X135226Y37459D01*
X135371Y38189D01*
X135226Y38919D01*
X134813Y39537D01*
X134194Y39950D01*
X133465Y40096D01*
X132990Y40001D01*
X132771Y40147D01*
X132576Y40343D01*
X132687Y40900D01*
X132564Y41515D01*
X132217Y42035D01*
X131696Y42383D01*
X131081Y42506D01*
D02*
G37*
G36*
X86828Y56073D02*
X86137Y55936D01*
X85551Y55544D01*
X85159Y54958D01*
X85022Y54267D01*
X85159Y53576D01*
X85551Y52990D01*
X86137Y52598D01*
X86828Y52461D01*
X87520Y52598D01*
X88106Y52990D01*
X88497Y53576D01*
X88635Y54267D01*
X88497Y54958D01*
X88106Y55544D01*
X87520Y55936D01*
X86828Y56073D01*
D02*
G37*
G36*
X126736Y58290D02*
X126068Y58202D01*
X125446Y57944D01*
X124911Y57534D01*
X124501Y56999D01*
X124243Y56377D01*
X124155Y55709D01*
X124243Y55041D01*
X124501Y54418D01*
X124911Y53883D01*
X125446Y53473D01*
X126068Y53215D01*
X126736Y53127D01*
X127404Y53215D01*
X128027Y53473D01*
X128561Y53883D01*
X128972Y54418D01*
X129229Y55041D01*
X129317Y55709D01*
X129229Y56377D01*
X128972Y56999D01*
X128561Y57534D01*
X128027Y57944D01*
X127404Y58202D01*
X126736Y58290D01*
D02*
G37*
G36*
X118898Y61848D02*
X118168Y61703D01*
X117549Y61289D01*
X117136Y60671D01*
X116991Y59941D01*
X117136Y59211D01*
X117549Y58593D01*
X118168Y58179D01*
X118898Y58034D01*
X119627Y58179D01*
X120246Y58593D01*
X120373Y58783D01*
X120863Y58685D01*
X120876Y58621D01*
X121290Y58002D01*
X121908Y57589D01*
X122638Y57444D01*
X123368Y57589D01*
X123986Y58002D01*
X124399Y58621D01*
X124545Y59350D01*
X124399Y60080D01*
X123986Y60699D01*
X123368Y61112D01*
X122638Y61257D01*
X121908Y61112D01*
X121290Y60699D01*
X121162Y60509D01*
X120672Y60606D01*
X120659Y60671D01*
X120246Y61289D01*
X119627Y61703D01*
X118898Y61848D01*
D02*
G37*
G36*
X107972Y48152D02*
X107304Y48064D01*
X106682Y47806D01*
X106147Y47396D01*
X105737Y46861D01*
X105479Y46239D01*
X105391Y45571D01*
X105479Y44903D01*
X105737Y44280D01*
X106147Y43746D01*
X106682Y43336D01*
X107304Y43078D01*
X107972Y42990D01*
X108641Y43078D01*
X109263Y43336D01*
X109798Y43746D01*
X110208Y44280D01*
X110466Y44903D01*
X110554Y45571D01*
X110466Y46239D01*
X110208Y46861D01*
X109798Y47396D01*
X109263Y47806D01*
X108641Y48064D01*
X107972Y48152D01*
D02*
G37*
G36*
X81800Y47406D02*
X81109Y47269D01*
X80523Y46877D01*
X80131Y46291D01*
X79994Y45600D01*
X80131Y44909D01*
X80523Y44323D01*
X81109Y43931D01*
X81800Y43794D01*
X82491Y43931D01*
X83077Y44323D01*
X83469Y44909D01*
X83606Y45600D01*
X83469Y46291D01*
X83077Y46877D01*
X82491Y47269D01*
X81800Y47406D01*
D02*
G37*
G36*
X140206Y52706D02*
X139591Y52583D01*
X139070Y52235D01*
X138722Y51714D01*
X138600Y51100D01*
X138722Y50485D01*
X139070Y49965D01*
Y49965D01*
Y49965D01*
X139070Y49965D01*
X139070D01*
X138955Y49513D01*
X138872Y49496D01*
X138351Y49148D01*
X138003Y48627D01*
X137881Y48013D01*
X138003Y47398D01*
X138351Y46877D01*
X138872Y46529D01*
X139487Y46407D01*
X140101Y46529D01*
X140622Y46877D01*
X140970Y47398D01*
X141092Y48013D01*
X140970Y48627D01*
X140622Y49148D01*
X140622Y49148D01*
X140622Y49148D01*
D01*
X140206Y49494D01*
D01*
X140820Y49617D01*
X141341Y49965D01*
X141689Y50485D01*
X141811Y51100D01*
X141689Y51714D01*
X141341Y52235D01*
X140820Y52583D01*
X140206Y52706D01*
D02*
G37*
G36*
X11220Y29367D02*
X10491Y29222D01*
X9872Y28809D01*
X9459Y28190D01*
X9314Y27461D01*
X9459Y26731D01*
X9872Y26112D01*
X10491Y25699D01*
X11220Y25554D01*
X11950Y25699D01*
X12338Y25958D01*
X12829Y25861D01*
X12923Y25719D01*
X13542Y25305D01*
X14272Y25160D01*
X15001Y25305D01*
X15620Y25719D01*
X16033Y26337D01*
X16178Y27067D01*
X16033Y27797D01*
X15620Y28415D01*
X15001Y28828D01*
X14272Y28974D01*
X13542Y28828D01*
X13154Y28569D01*
X12664Y28667D01*
X12569Y28809D01*
X11950Y29222D01*
X11220Y29367D01*
D02*
G37*
G36*
X83241Y14447D02*
X82550Y14310D01*
X81964Y13918D01*
X81572Y13332D01*
X81435Y12641D01*
X81572Y11950D01*
X81964Y11364D01*
X82550Y10972D01*
X82556Y10971D01*
Y10471D01*
X82250Y10410D01*
X81664Y10018D01*
X81272Y9432D01*
X81135Y8741D01*
X81272Y8050D01*
X81664Y7464D01*
X82250Y7072D01*
X82941Y6935D01*
X83632Y7072D01*
X84218Y7464D01*
X84610Y8050D01*
X84747Y8741D01*
X84610Y9432D01*
X84218Y10018D01*
X83632Y10410D01*
X83626Y10411D01*
Y10911D01*
X83932Y10972D01*
X84518Y11364D01*
X84910Y11950D01*
X85047Y12641D01*
X84910Y13332D01*
X84518Y13918D01*
X83932Y14310D01*
X83241Y14447D01*
D02*
G37*
G36*
X93010Y10804D02*
X92281Y10658D01*
X91662Y10245D01*
X91249Y9627D01*
X91104Y8897D01*
X91249Y8167D01*
X91662Y7549D01*
X92281Y7135D01*
X93010Y6990D01*
X93740Y7135D01*
X94358Y7549D01*
X94772Y8167D01*
X94917Y8897D01*
X94772Y9627D01*
X94358Y10245D01*
X93740Y10658D01*
X93010Y10804D01*
D02*
G37*
G36*
X67241Y10747D02*
X66550Y10610D01*
X65964Y10218D01*
X65572Y9632D01*
X65435Y8941D01*
X65572Y8250D01*
X65964Y7664D01*
X66550Y7272D01*
X67241Y7135D01*
X67932Y7272D01*
X68518Y7664D01*
X68910Y8250D01*
X69047Y8941D01*
X68910Y9632D01*
X68518Y10218D01*
X67932Y10610D01*
X67241Y10747D01*
D02*
G37*
G36*
X53741Y10347D02*
X53050Y10210D01*
X52464Y9818D01*
X52072Y9232D01*
X51935Y8541D01*
X52072Y7850D01*
X52464Y7264D01*
X53050Y6872D01*
X53741Y6735D01*
X54432Y6872D01*
X55018Y7264D01*
X55410Y7850D01*
X55547Y8541D01*
X55410Y9232D01*
X55018Y9818D01*
X54432Y10210D01*
X53741Y10347D01*
D02*
G37*
G36*
X59641D02*
X58950Y10210D01*
X58364Y9818D01*
X57972Y9232D01*
X57835Y8541D01*
X57972Y7850D01*
X58364Y7264D01*
X58950Y6872D01*
X59641Y6735D01*
X60332Y6872D01*
X60918Y7264D01*
X61310Y7850D01*
X61447Y8541D01*
X61310Y9232D01*
X60918Y9818D01*
X60332Y10210D01*
X59641Y10347D01*
D02*
G37*
G36*
X75641Y10447D02*
X74950Y10310D01*
X74364Y9918D01*
X73972Y9332D01*
X73835Y8641D01*
X73972Y7950D01*
X74364Y7364D01*
X74950Y6972D01*
X75641Y6835D01*
X76332Y6972D01*
X76918Y7364D01*
X77310Y7950D01*
X77447Y8641D01*
X77310Y9332D01*
X76918Y9918D01*
X76332Y10310D01*
X75641Y10447D01*
D02*
G37*
G36*
X67241Y15247D02*
X66550Y15110D01*
X65964Y14718D01*
X65572Y14132D01*
X65435Y13441D01*
X65572Y12750D01*
X65964Y12164D01*
X66550Y11772D01*
X67241Y11635D01*
X67932Y11772D01*
X68518Y12164D01*
X68910Y12750D01*
X69047Y13441D01*
X68910Y14132D01*
X68518Y14718D01*
X67932Y15110D01*
X67241Y15247D01*
D02*
G37*
G36*
X56800Y23706D02*
X56109Y23569D01*
X55523Y23177D01*
X55131Y22591D01*
X54994Y21900D01*
X55131Y21209D01*
X55523Y20623D01*
Y20158D01*
X55464Y20118D01*
X55072Y19532D01*
X54935Y18841D01*
X55072Y18150D01*
X55464Y17564D01*
X56050Y17172D01*
X56741Y17035D01*
X57432Y17172D01*
X58018Y17564D01*
X58295D01*
X58323Y17523D01*
X58909Y17131D01*
X59600Y16994D01*
X60291Y17131D01*
X60877Y17523D01*
X61269Y18109D01*
X61406Y18800D01*
X61269Y19491D01*
X60877Y20077D01*
X60818Y20117D01*
Y20264D01*
X61259Y20500D01*
X61750Y20172D01*
X62441Y20035D01*
X63132Y20172D01*
X63718Y20564D01*
X64110Y21150D01*
X64247Y21841D01*
X64110Y22532D01*
X63718Y23118D01*
X63132Y23510D01*
X62441Y23647D01*
X61750Y23510D01*
X61164Y23118D01*
X60818D01*
X60232Y23510D01*
X59541Y23647D01*
X58850Y23510D01*
X58264Y23118D01*
D01*
X58077Y23177D01*
X58077Y23177D01*
Y23177D01*
X57491Y23569D01*
X56800Y23706D01*
D02*
G37*
G36*
X49902Y30942D02*
X49172Y30797D01*
X48553Y30384D01*
X48140Y29765D01*
X47995Y29035D01*
X48140Y28306D01*
X48553Y27687D01*
X48203Y27163D01*
X47872Y27097D01*
X47253Y26684D01*
X46840Y26065D01*
X46695Y25335D01*
X46840Y24606D01*
X47253Y23987D01*
X47872Y23574D01*
X48602Y23429D01*
X49331Y23574D01*
X49950Y23987D01*
X50363Y24606D01*
X50508Y25335D01*
X50363Y26065D01*
X49950Y26684D01*
X50300Y27208D01*
X50631Y27274D01*
X51250Y27687D01*
X51663Y28306D01*
X51808Y29035D01*
X51663Y29765D01*
X51250Y30384D01*
X50631Y30797D01*
X49902Y30942D01*
D02*
G37*
G36*
X60041Y14847D02*
X59350Y14710D01*
X58764Y14318D01*
X58372Y13732D01*
X58235Y13041D01*
X58372Y12350D01*
X58764Y11764D01*
X59350Y11372D01*
X60041Y11235D01*
X60732Y11372D01*
X61318Y11764D01*
X61710Y12350D01*
X61847Y13041D01*
X61710Y13732D01*
X61318Y14318D01*
X60732Y14710D01*
X60041Y14847D01*
D02*
G37*
G36*
X53841Y14947D02*
X53150Y14810D01*
X52564Y14418D01*
X52172Y13832D01*
X52035Y13141D01*
X52172Y12450D01*
X52564Y11864D01*
X53150Y11472D01*
X53841Y11335D01*
X54532Y11472D01*
X55118Y11864D01*
X55510Y12450D01*
X55647Y13141D01*
X55510Y13832D01*
X55118Y14418D01*
X54532Y14810D01*
X53841Y14947D01*
D02*
G37*
G36*
X75841Y15147D02*
X75150Y15010D01*
X74564Y14618D01*
X74172Y14032D01*
X74035Y13341D01*
X74172Y12650D01*
X74564Y12064D01*
X75150Y11672D01*
X75841Y11535D01*
X76532Y11672D01*
X77118Y12064D01*
X77510Y12650D01*
X77647Y13341D01*
X77510Y14032D01*
X77118Y14618D01*
X76532Y15010D01*
X75841Y15147D01*
D02*
G37*
G36*
X8366Y65785D02*
X7637Y65640D01*
X7018Y65226D01*
X6605Y64608D01*
X6459Y63878D01*
X6605Y63148D01*
X7018Y62530D01*
X7637Y62116D01*
X8117Y62021D01*
X8215Y61530D01*
X7707Y61191D01*
X7294Y60572D01*
X7148Y59842D01*
X7294Y59113D01*
X7705Y58498D01*
X7607Y58008D01*
X7510Y57943D01*
X7097Y57324D01*
X6952Y56595D01*
X7097Y55865D01*
X7510Y55246D01*
X7843Y55023D01*
Y54523D01*
X7805Y54498D01*
X7392Y53879D01*
X7247Y53150D01*
X7392Y52420D01*
X7805Y51801D01*
X8424Y51388D01*
X8450Y51383D01*
X8548Y50892D01*
X8199Y50659D01*
X7786Y50041D01*
X7641Y49311D01*
X7786Y48581D01*
X8199Y47963D01*
X8238Y47937D01*
Y47437D01*
X8199Y47411D01*
X7786Y46793D01*
X7641Y46063D01*
X7786Y45333D01*
X8199Y44715D01*
X8818Y44301D01*
X9547Y44156D01*
X10277Y44301D01*
X10896Y44715D01*
X11309Y45333D01*
X11454Y46063D01*
X11309Y46793D01*
X10896Y47411D01*
X10857Y47437D01*
Y47937D01*
X10896Y47963D01*
X11309Y48581D01*
X11454Y49311D01*
X11309Y50041D01*
X10896Y50659D01*
X10277Y51073D01*
X10250Y51078D01*
X10153Y51568D01*
X10502Y51801D01*
X10915Y52420D01*
X11060Y53150D01*
X10915Y53879D01*
X10502Y54498D01*
X9883Y54911D01*
X9862Y55016D01*
X10206Y55246D01*
X10620Y55865D01*
X10765Y56595D01*
X10620Y57324D01*
X10206Y57943D01*
Y58252D01*
X10648Y58488D01*
X11170Y58138D01*
X11900Y57993D01*
X12630Y58138D01*
X12858Y58291D01*
X13152Y57852D01*
X13770Y57438D01*
X14049Y57383D01*
X14194Y56905D01*
X13979Y56690D01*
X13538Y56114D01*
X13260Y55444D01*
X13165Y54724D01*
Y46457D01*
Y44355D01*
X13165Y44355D01*
X13165D01*
X13260Y43636D01*
X13538Y42965D01*
X13979Y42390D01*
X14635Y41734D01*
Y41734D01*
X14509Y41614D01*
X14498Y41604D01*
X14498Y41604D01*
X14498D01*
X14498Y41604D01*
X14498Y41604D01*
D01*
X14085Y40986D01*
X13940Y40256D01*
X14085Y39526D01*
X14498Y38908D01*
X15004Y38570D01*
Y38070D01*
X14990Y38061D01*
X14577Y37442D01*
X14432Y36713D01*
X14577Y35983D01*
X14990Y35364D01*
X15609Y34951D01*
X16339Y34806D01*
X17068Y34951D01*
X17687Y35364D01*
X18100Y35983D01*
X18245Y36713D01*
X18100Y37442D01*
X17687Y38061D01*
X17068Y38474D01*
X17007Y38782D01*
X17195Y38908D01*
X17608Y39526D01*
X17753Y40256D01*
X17608Y40986D01*
X17620Y41009D01*
X21740D01*
X22244Y40908D01*
X22919Y41042D01*
X23196Y40627D01*
X23042Y40395D01*
X22896Y39665D01*
X23042Y38936D01*
X23455Y38317D01*
X24073Y37904D01*
X24803Y37759D01*
X25533Y37904D01*
X26151Y38317D01*
X26565Y38936D01*
X26710Y39665D01*
X26673Y39849D01*
X27089Y40126D01*
X27617Y39774D01*
X28346Y39629D01*
X29076Y39774D01*
X29695Y40187D01*
X30108Y40806D01*
X30253Y41535D01*
X30108Y42265D01*
X29695Y42884D01*
X29076Y43297D01*
X28346Y43442D01*
X28264Y43426D01*
X27989Y43701D01*
X27844Y44430D01*
X27897Y44558D01*
X28092Y44597D01*
X28710Y45010D01*
X28792Y45132D01*
X29283Y45035D01*
X29341Y44743D01*
X29754Y44124D01*
X30373Y43711D01*
X31102Y43566D01*
X31832Y43711D01*
X32451Y44124D01*
X32864Y44743D01*
X33009Y45472D01*
X32864Y46202D01*
X32451Y46821D01*
X31832Y47234D01*
X31102Y47379D01*
X30373Y47234D01*
X29754Y46821D01*
X29672Y46698D01*
X29182Y46796D01*
X29124Y47088D01*
X28710Y47706D01*
X28092Y48120D01*
X27362Y48265D01*
X26632Y48120D01*
X26014Y47706D01*
X25601Y47088D01*
X25455Y46358D01*
X25601Y45629D01*
X25601Y45629D01*
X25353Y45462D01*
X25353D01*
X25353Y45462D01*
X24734Y45049D01*
X24321Y44431D01*
X24240Y44025D01*
X23750Y43927D01*
X23592Y44163D01*
X22974Y44576D01*
X22914Y44588D01*
X22777Y44793D01*
X23395Y45207D01*
X23395Y45207D01*
X23395Y45207D01*
X23809Y45825D01*
X23954Y46555D01*
X23809Y47285D01*
X23395Y47903D01*
X22777Y48317D01*
X22047Y48462D01*
X21543Y48362D01*
X18725D01*
Y53573D01*
X19262Y54110D01*
X24406D01*
X24724Y53724D01*
X24668Y53445D01*
X24813Y52715D01*
X25227Y52097D01*
X25845Y51683D01*
X26575Y51538D01*
X27305Y51683D01*
X27923Y52097D01*
X27923D01*
Y52097D01*
X28124Y52136D01*
X28270Y52038D01*
X29000Y51893D01*
X29730Y52038D01*
X30348Y52452D01*
X30762Y53070D01*
X30907Y53800D01*
X31161Y54110D01*
X34872D01*
X35448Y53535D01*
X36024Y53093D01*
X36694Y52815D01*
X37413Y52720D01*
X55054D01*
Y34574D01*
X53429D01*
X52895Y34931D01*
X52165Y35076D01*
X51436Y34931D01*
X50817Y34517D01*
X50404Y33899D01*
X50259Y33169D01*
X50404Y32440D01*
X50817Y31821D01*
X51436Y31408D01*
X52165Y31263D01*
X52895Y31408D01*
X53429Y31764D01*
X55225D01*
X55427Y31276D01*
X55869Y30700D01*
X57534Y29035D01*
X58110Y28593D01*
X58781Y28315D01*
X59500Y28220D01*
X61068D01*
X61304Y27779D01*
X61072Y27432D01*
X60935Y26741D01*
X61072Y26050D01*
X61464Y25464D01*
X62050Y25072D01*
X62741Y24935D01*
X63432Y25072D01*
X64018Y25464D01*
X64410Y26050D01*
X64547Y26741D01*
X64410Y27432D01*
X64018Y28018D01*
X64079Y28220D01*
X72001D01*
X72237Y27779D01*
X72072Y27532D01*
X71935Y26841D01*
X72072Y26150D01*
X72464Y25564D01*
X73050Y25172D01*
X73741Y25035D01*
X74311Y25148D01*
X74616Y24898D01*
X74697Y24776D01*
Y18050D01*
X74697Y18050D01*
X74758Y17743D01*
X74932Y17482D01*
X74932Y17482D01*
X75332Y17082D01*
X75593Y16908D01*
X75900Y16847D01*
X85900D01*
X86207Y16908D01*
X86468Y17082D01*
X86468Y17082D01*
X86668Y17282D01*
X86842Y17543D01*
X86903Y17850D01*
Y27950D01*
X86842Y28257D01*
X86668Y28518D01*
X86568Y28618D01*
X86307Y28792D01*
X86000Y28853D01*
X81878D01*
X77766Y32965D01*
X77190Y33407D01*
X76519Y33685D01*
X75800Y33780D01*
X73555D01*
X73410Y34258D01*
X73729Y34471D01*
X74190Y35161D01*
X74352Y35976D01*
X74190Y36790D01*
X73729Y37480D01*
X73039Y37941D01*
X72301Y38088D01*
Y38588D01*
X72444Y38616D01*
X73039Y38734D01*
X73729Y39196D01*
X74190Y39886D01*
X74352Y40700D01*
X74190Y41514D01*
X73729Y42204D01*
X73039Y42665D01*
X72301Y42812D01*
Y43312D01*
X72444Y43341D01*
X73039Y43459D01*
X73729Y43920D01*
X74190Y44610D01*
X74352Y45424D01*
X74190Y46239D01*
X73729Y46929D01*
X73039Y47390D01*
X72224Y47552D01*
X71410Y47390D01*
X70720Y46929D01*
X70259Y46239D01*
X70112Y45501D01*
X70112D01*
X69779D01*
X69580Y45665D01*
X69466Y46239D01*
X69004Y46929D01*
X68314Y47390D01*
X67500Y47552D01*
X66686Y47390D01*
X65996Y46929D01*
X65535Y46239D01*
X65388Y45501D01*
X65388D01*
X65055D01*
X64855Y45665D01*
X64741Y46239D01*
X64280Y46929D01*
X63590Y47390D01*
X62776Y47552D01*
X61961Y47390D01*
X61271Y46929D01*
X61092Y46661D01*
X60614Y46806D01*
Y54666D01*
X60519Y55385D01*
X60241Y56056D01*
X59800Y56631D01*
X58965Y57465D01*
X58390Y57907D01*
X57719Y58185D01*
X57000Y58280D01*
X38565D01*
X38088Y58757D01*
X38032Y58800D01*
X37989Y58855D01*
X37413Y59297D01*
X36743Y59575D01*
X36024Y59669D01*
X28359D01*
X28336Y59785D01*
X27923Y60403D01*
X27305Y60817D01*
X26575Y60962D01*
X25845Y60817D01*
X25845Y60817D01*
X25845Y60817D01*
X25679Y60769D01*
D01*
X25266Y61388D01*
X24647Y61801D01*
X23917Y61946D01*
X23188Y61801D01*
X22569Y61388D01*
X22156Y60769D01*
X22011Y60039D01*
X21707Y59669D01*
X18110D01*
X17391Y59575D01*
X16777Y59320D01*
X16651Y59388D01*
X16271Y59883D01*
X16262Y59930D01*
X15848Y60548D01*
X15230Y60962D01*
X14500Y61107D01*
X13770Y60962D01*
X13770Y60962D01*
X13770Y60962D01*
X13389Y61037D01*
X13248Y61248D01*
X12799Y61548D01*
X12812Y61578D01*
X12812D01*
X12991Y62010D01*
X13681Y61873D01*
X14411Y62018D01*
X15029Y62431D01*
X15443Y63050D01*
X15588Y63779D01*
X15443Y64509D01*
X15029Y65128D01*
X14411Y65541D01*
X13681Y65686D01*
X12951Y65541D01*
X12333Y65128D01*
X11919Y64509D01*
X11774Y63779D01*
X11919Y63050D01*
X12333Y62431D01*
X12782Y62131D01*
X12769Y62102D01*
X12769D01*
X12590Y61669D01*
X11900Y61807D01*
X11170Y61662D01*
X10552Y61248D01*
X10552Y61248D01*
Y61248D01*
X10403Y61191D01*
D01*
X9785Y61604D01*
X9304Y61700D01*
X9206Y62190D01*
X9714Y62530D01*
X10128Y63148D01*
X10273Y63878D01*
X10128Y64608D01*
X9714Y65226D01*
X9096Y65640D01*
X8366Y65785D01*
D02*
G37*
G36*
X18012Y93535D02*
X17397Y93413D01*
X16876Y93064D01*
X16528Y92544D01*
X16406Y91929D01*
X16409Y91915D01*
X16019Y91838D01*
X15498Y91490D01*
X15150Y90969D01*
X15028Y90354D01*
X15150Y89740D01*
X15498Y89219D01*
X16019Y88871D01*
X16634Y88749D01*
X17248Y88871D01*
X17769Y89219D01*
X18117Y89740D01*
X18239Y90354D01*
X18237Y90368D01*
X18626Y90446D01*
X19147Y90794D01*
X19495Y91315D01*
X19617Y91929D01*
X19495Y92544D01*
X19147Y93064D01*
X18626Y93413D01*
X18012Y93535D01*
D02*
G37*
G36*
X11811Y93436D02*
X11197Y93314D01*
X10676Y92966D01*
X10328Y92445D01*
X10205Y91831D01*
X10328Y91216D01*
X10676Y90695D01*
X11197Y90347D01*
X11811Y90225D01*
X12426Y90347D01*
X12946Y90695D01*
X13295Y91216D01*
X13417Y91831D01*
X13295Y92445D01*
X12946Y92966D01*
X12426Y93314D01*
X11811Y93436D01*
D02*
G37*
G36*
X57480Y94129D02*
X56789Y93992D01*
X56203Y93600D01*
X55812Y93014D01*
X55789Y92900D01*
X55373Y92622D01*
X55216Y92653D01*
X54525Y92515D01*
X53939Y92124D01*
X53548Y91538D01*
X53410Y90847D01*
X53548Y90155D01*
X53939Y89569D01*
X54525Y89178D01*
X55216Y89040D01*
X55908Y89178D01*
X56494Y89569D01*
X56885Y90155D01*
X56908Y90270D01*
X57324Y90548D01*
X57480Y90517D01*
X58172Y90654D01*
X58758Y91045D01*
X59149Y91632D01*
X59287Y92323D01*
X59149Y93014D01*
X58758Y93600D01*
X58172Y93992D01*
X57480Y94129D01*
D02*
G37*
G36*
X136100Y84106D02*
X135485Y83983D01*
X135116Y83736D01*
X134746Y83983D01*
X134132Y84106D01*
X133517Y83983D01*
X133147Y83736D01*
X132777Y83983D01*
X132163Y84106D01*
X131549Y83983D01*
X131179Y83736D01*
X130809Y83983D01*
X130194Y84106D01*
X129580Y83983D01*
X129059Y83635D01*
X128711Y83114D01*
X128589Y82500D01*
X128589Y82500D01*
X128589Y82500D01*
X128414Y82183D01*
X127800Y82306D01*
X127185Y82183D01*
X126665Y81835D01*
X126317Y81314D01*
X126194Y80700D01*
X126317Y80085D01*
X126665Y79565D01*
X127185Y79217D01*
X127800Y79094D01*
X128414Y79217D01*
X128867Y79519D01*
X129307Y79225D01*
X129921Y79103D01*
X130536Y79225D01*
X130966Y79513D01*
X131065Y79365D01*
X131586Y79017D01*
X132200Y78894D01*
X132815Y79017D01*
X133189Y79267D01*
X133517Y79048D01*
X134132Y78926D01*
X134746Y79048D01*
X135116Y79295D01*
X135485Y79048D01*
X136100Y78926D01*
X136714Y79048D01*
X137235Y79396D01*
X137583Y79917D01*
X137706Y80532D01*
X137583Y81146D01*
X137336Y81516D01*
X137583Y81885D01*
X137706Y82500D01*
X137583Y83114D01*
X137235Y83635D01*
X136714Y83983D01*
X136100Y84106D01*
D02*
G37*
G36*
X83071Y89798D02*
X82380Y89661D01*
X81794Y89269D01*
X81402Y88683D01*
X81265Y87992D01*
X81402Y87301D01*
X81794Y86715D01*
X82380Y86323D01*
X83071Y86186D01*
X83762Y86323D01*
X84348Y86715D01*
X84740Y87301D01*
X84877Y87992D01*
X84740Y88683D01*
X84348Y89269D01*
X83762Y89661D01*
X83071Y89798D01*
D02*
G37*
G36*
X94291Y93639D02*
X93562Y93494D01*
X92943Y93081D01*
X92530Y92462D01*
X92385Y91732D01*
X92530Y91003D01*
X92943Y90384D01*
X93562Y89971D01*
X93582Y89967D01*
X93774Y89505D01*
X93711Y89411D01*
X93566Y88681D01*
X93711Y87951D01*
X94031Y87473D01*
X93933Y86982D01*
X93927Y86978D01*
X93514Y86360D01*
X93369Y85630D01*
X93514Y84900D01*
X93805Y84464D01*
X93528Y84048D01*
X92815Y84190D01*
X92085Y84045D01*
X91467Y83632D01*
X91053Y83013D01*
X90908Y82284D01*
X91053Y81554D01*
X91467Y80935D01*
X92085Y80522D01*
X92815Y80377D01*
X93545Y80522D01*
X94163Y80935D01*
X94577Y81554D01*
X94722Y82284D01*
X94577Y83013D01*
X94285Y83449D01*
X94563Y83865D01*
X95276Y83723D01*
X96005Y83868D01*
X96624Y84282D01*
X97037Y84900D01*
X97182Y85630D01*
X97037Y86360D01*
X96624Y86978D01*
Y87201D01*
X96821Y87333D01*
X97234Y87951D01*
X97379Y88681D01*
X97290Y89132D01*
X97751Y89323D01*
X97766Y89301D01*
X98384Y88888D01*
X99114Y88743D01*
X99844Y88888D01*
X100462Y89301D01*
X100876Y89920D01*
X101021Y90650D01*
X100876Y91379D01*
X100462Y91998D01*
X99844Y92411D01*
X99114Y92556D01*
X98384Y92411D01*
X97766Y91998D01*
X97353Y91379D01*
X97207Y90650D01*
X97297Y90199D01*
X96835Y90008D01*
X96821Y90029D01*
X96202Y90443D01*
X96181Y90447D01*
X95990Y90909D01*
X96053Y91003D01*
X96198Y91732D01*
X96053Y92462D01*
X95640Y93081D01*
X95021Y93494D01*
X94291Y93639D01*
D02*
G37*
G36*
X105200Y116206D02*
X104586Y116083D01*
X104065Y115735D01*
X103717Y115215D01*
X103594Y114600D01*
X103717Y113986D01*
X104065Y113465D01*
X104586Y113117D01*
X105200Y112994D01*
X105815Y113117D01*
X106335Y113465D01*
X106683Y113986D01*
X106806Y114600D01*
X106683Y115215D01*
X106335Y115735D01*
X105815Y116083D01*
X105200Y116206D01*
D02*
G37*
G36*
X67913Y117551D02*
X67299Y117429D01*
X66778Y117080D01*
X66430Y116560D01*
X66308Y115945D01*
X66430Y115331D01*
X66778Y114810D01*
X67299Y114462D01*
X67913Y114339D01*
X68528Y114462D01*
X69049Y114810D01*
X69397Y115331D01*
X69519Y115945D01*
X69397Y116560D01*
X69049Y117080D01*
X68528Y117429D01*
X67913Y117551D01*
D02*
G37*
G36*
X106800Y129906D02*
X106185Y129783D01*
X105665Y129435D01*
X105317Y128914D01*
X105194Y128300D01*
X105317Y127685D01*
X105665Y127165D01*
X106185Y126817D01*
X106800Y126694D01*
X107414Y126817D01*
X107935Y127165D01*
X108283Y127685D01*
X108406Y128300D01*
X108283Y128914D01*
X107935Y129435D01*
X107414Y129783D01*
X106800Y129906D01*
D02*
G37*
G36*
X83900Y102106D02*
X83209Y101969D01*
X82623Y101577D01*
X82231Y100991D01*
X82094Y100300D01*
X82231Y99609D01*
X82623Y99023D01*
X83209Y98631D01*
X83900Y98494D01*
X84591Y98631D01*
X85177Y99023D01*
X85569Y99609D01*
X85706Y100300D01*
X85569Y100991D01*
X85177Y101577D01*
X84591Y101969D01*
X83900Y102106D01*
D02*
G37*
G36*
X14173Y101803D02*
X13559Y101680D01*
X13038Y101332D01*
X12690Y100811D01*
X12568Y100197D01*
X12690Y99582D01*
X13038Y99062D01*
X13559Y98713D01*
X14173Y98591D01*
X14788Y98713D01*
X15309Y99062D01*
X15657Y99582D01*
X15779Y100197D01*
X15657Y100811D01*
X15309Y101332D01*
X14788Y101680D01*
X14173Y101803D01*
D02*
G37*
G36*
X55000Y112306D02*
X54386Y112183D01*
X53865Y111835D01*
X53517Y111314D01*
X53394Y110700D01*
X53517Y110085D01*
X53865Y109565D01*
X54386Y109217D01*
X55000Y109094D01*
X55615Y109217D01*
X56135Y109565D01*
X56483Y110085D01*
X56606Y110700D01*
X56483Y111314D01*
X56135Y111835D01*
X55615Y112183D01*
X55000Y112306D01*
D02*
G37*
G36*
X138100Y67606D02*
X137447Y67476D01*
X136894Y67106D01*
X136524Y66553D01*
X136394Y65900D01*
X136524Y65247D01*
X136894Y64694D01*
X137447Y64324D01*
X138100Y64194D01*
X138753Y64324D01*
X139306Y64694D01*
X139676Y65247D01*
X139806Y65900D01*
X139676Y66553D01*
X139306Y67106D01*
X138753Y67476D01*
X138100Y67606D01*
D02*
G37*
G36*
X138800Y73506D02*
X138147Y73376D01*
X137594Y73006D01*
X137224Y72453D01*
X137095Y71805D01*
X136447Y71676D01*
X135894Y71306D01*
X135524Y70753D01*
X135394Y70100D01*
X135524Y69447D01*
X135894Y68894D01*
X136447Y68524D01*
X137100Y68394D01*
X137753Y68524D01*
X138306Y68894D01*
X138676Y69447D01*
X138805Y70095D01*
X139453Y70224D01*
X140006Y70594D01*
X140376Y71147D01*
X140506Y71800D01*
X140376Y72453D01*
X140006Y73006D01*
X139453Y73376D01*
X138800Y73506D01*
D02*
G37*
G36*
X81398Y74249D02*
X80668Y74104D01*
X80049Y73691D01*
X79636Y73072D01*
X79491Y72342D01*
X79636Y71613D01*
X80049Y70994D01*
X80668Y70581D01*
X81398Y70436D01*
X82127Y70581D01*
X82746Y70994D01*
X83159Y71613D01*
X83304Y72342D01*
X83159Y73072D01*
X82746Y73691D01*
X82127Y74104D01*
X81398Y74249D01*
D02*
G37*
G36*
X110988Y67363D02*
X110182Y67203D01*
X109498Y66746D01*
X109041Y66062D01*
X108881Y65256D01*
X109041Y64449D01*
X109498Y63766D01*
X110182Y63309D01*
X110988Y63148D01*
X111795Y63309D01*
X112478Y63766D01*
X112935Y64449D01*
X113096Y65256D01*
X112935Y66062D01*
X112478Y66746D01*
X111795Y67203D01*
X110988Y67363D01*
D02*
G37*
G36*
X49400Y67407D02*
X48670Y67262D01*
X48052Y66848D01*
X47638Y66230D01*
X47493Y65500D01*
X47638Y64770D01*
X48052Y64152D01*
X48670Y63738D01*
X49400Y63593D01*
X50130Y63738D01*
X50748Y64152D01*
X51162Y64770D01*
X51307Y65500D01*
X51162Y66230D01*
X50748Y66848D01*
X50130Y67262D01*
X49400Y67407D01*
D02*
G37*
G36*
X29528Y70017D02*
X28798Y69872D01*
X28179Y69459D01*
X27766Y68840D01*
X27621Y68110D01*
X27692Y67750D01*
X27415Y67334D01*
X27323Y67316D01*
X26704Y66903D01*
X26291Y66284D01*
X26146Y65554D01*
X26291Y64825D01*
X26704Y64206D01*
X27323Y63793D01*
X28053Y63648D01*
X28782Y63793D01*
X29401Y64206D01*
X29814Y64825D01*
X29959Y65554D01*
X29888Y65915D01*
X30165Y66330D01*
X30257Y66349D01*
X30876Y66762D01*
X31289Y67381D01*
X31434Y68110D01*
X31289Y68840D01*
X30876Y69459D01*
X30257Y69872D01*
X29528Y70017D01*
D02*
G37*
G36*
X14075Y72970D02*
X13345Y72825D01*
X12727Y72411D01*
X12313Y71793D01*
X12219Y71320D01*
X11804Y71042D01*
X11516Y71100D01*
X10786Y70955D01*
X10581Y70817D01*
X10305Y71230D01*
X9686Y71644D01*
X8957Y71789D01*
X8227Y71644D01*
X7609Y71230D01*
X7195Y70612D01*
X7050Y69882D01*
X7195Y69152D01*
X7609Y68534D01*
X8227Y68120D01*
X8957Y67975D01*
X9686Y68120D01*
X9892Y68257D01*
X10167Y67845D01*
X10786Y67431D01*
X11516Y67286D01*
X12245Y67431D01*
X12864Y67845D01*
X13277Y68463D01*
X13371Y68936D01*
X13787Y69213D01*
X14075Y69156D01*
X14805Y69301D01*
X15423Y69715D01*
X15836Y70333D01*
X15981Y71063D01*
X15836Y71793D01*
X15423Y72411D01*
X14805Y72825D01*
X14075Y72970D01*
D02*
G37*
G36*
X28150Y81434D02*
X27420Y81289D01*
X26801Y80876D01*
X26388Y80257D01*
X26243Y79528D01*
X26388Y78798D01*
X26801Y78179D01*
X27420Y77766D01*
X28150Y77621D01*
X28879Y77766D01*
X29498Y78179D01*
X29911Y78798D01*
X30056Y79528D01*
X29911Y80257D01*
X29498Y80876D01*
X28879Y81289D01*
X28150Y81434D01*
D02*
G37*
G36*
X18504Y81631D02*
X17774Y81486D01*
X17156Y81073D01*
X16742Y80454D01*
X16597Y79724D01*
X16742Y78995D01*
X17156Y78376D01*
X17774Y77963D01*
X18504Y77818D01*
X19234Y77963D01*
X19852Y78376D01*
X20266Y78995D01*
X20411Y79724D01*
X20266Y80454D01*
X19852Y81073D01*
X19234Y81486D01*
X18504Y81631D01*
D02*
G37*
G36*
X83169Y81139D02*
X82440Y80994D01*
X81821Y80581D01*
X81408Y79962D01*
X81263Y79232D01*
X81408Y78503D01*
X81821Y77884D01*
X82440Y77471D01*
X83169Y77326D01*
X83899Y77471D01*
X84518Y77884D01*
X84931Y78503D01*
X85076Y79232D01*
X84931Y79962D01*
X84518Y80581D01*
X83899Y80994D01*
X83169Y81139D01*
D02*
G37*
G36*
X35500Y76506D02*
X34847Y76376D01*
X34294Y76006D01*
X33924Y75453D01*
X33794Y74800D01*
X33924Y74147D01*
X34294Y73594D01*
X34847Y73224D01*
X35500Y73094D01*
X36153Y73224D01*
X36706Y73594D01*
X37076Y74147D01*
X37206Y74800D01*
X37076Y75453D01*
X36706Y76006D01*
X36153Y76376D01*
X35500Y76506D01*
D02*
G37*
G36*
X124705Y77687D02*
X123975Y77542D01*
X123356Y77128D01*
X123331Y77090D01*
X122831D01*
X122805Y77128D01*
X122186Y77542D01*
X121457Y77687D01*
X120727Y77542D01*
X120108Y77128D01*
X120033Y77016D01*
X119533D01*
X119458Y77128D01*
X118840Y77542D01*
X118110Y77687D01*
X117380Y77542D01*
X116762Y77128D01*
X116349Y76510D01*
X116203Y75780D01*
X116349Y75051D01*
X116762Y74432D01*
Y73979D01*
X116349Y73360D01*
X116203Y72631D01*
X116349Y71901D01*
X116762Y71282D01*
X117380Y70869D01*
X118110Y70724D01*
X118840Y70869D01*
X119458Y71282D01*
X119533Y71395D01*
X120033D01*
X120108Y71282D01*
X120727Y70869D01*
X121457Y70724D01*
X122186Y70869D01*
X122805Y71282D01*
X122831Y71321D01*
X123331D01*
X123356Y71282D01*
X123975Y70869D01*
X124705Y70724D01*
X125434Y70869D01*
X126053Y71282D01*
X126466Y71901D01*
X126611Y72631D01*
X126466Y73360D01*
X126053Y73979D01*
Y74432D01*
X126466Y75051D01*
X126611Y75780D01*
X126466Y76510D01*
X126053Y77128D01*
X125434Y77542D01*
X124705Y77687D01*
D02*
G37*
%LPD*%
G36*
X86100Y27950D02*
Y17850D01*
X85900Y17650D01*
X75900D01*
X75500Y18050D01*
Y25150D01*
X77100D01*
X80000Y28050D01*
X86000D01*
X86100Y27950D01*
D02*
G37*
D12*
X29000Y29800D02*
X34510Y35310D01*
X33300Y29700D02*
X36400Y32800D01*
X44800D01*
X34510Y35310D02*
X44800D01*
X0Y0D02*
Y194587D01*
Y0D02*
X147638D01*
X0Y194587D02*
X147638D01*
Y0D02*
Y194587D01*
D13*
X25591Y56890D02*
X26575Y57874D01*
X142500Y70100D02*
Y74655D01*
Y70100D02*
X143441D01*
X142500Y74655D02*
X144000D01*
X143441Y69965D02*
Y70100D01*
X26575Y53445D02*
Y56693D01*
Y57874D02*
Y59055D01*
X44700Y81500D02*
X51700D01*
Y66500D02*
Y81500D01*
X44700Y66500D02*
X51700D01*
X44700D02*
Y81500D01*
X95811Y67260D02*
Y82260D01*
X102811D01*
Y67260D02*
Y82260D01*
X95811Y67260D02*
X102811D01*
X34189Y104583D02*
X49189D01*
Y97583D02*
Y104583D01*
X34189Y97583D02*
X49189D01*
X34189D02*
Y104583D01*
D49*
X16339Y42815D02*
X16600Y43076D01*
Y43700D01*
X15945Y46457D02*
X16043Y46555D01*
X16339Y42815D02*
X22244D01*
D51*
X36700Y29800D02*
X37300Y30400D01*
X44800D01*
D56*
X52165Y33169D02*
X57331D01*
X57834Y32666D01*
D88*
X15700Y13100D02*
D03*
X20401Y82477D02*
D03*
X63484Y56299D02*
D03*
X61713Y57874D02*
D03*
X127300Y11700D02*
D03*
X119390Y95669D02*
D03*
X136614Y100886D02*
D03*
X133071Y101673D02*
D03*
X119390Y98032D02*
D03*
X22244Y42815D02*
D03*
X32087Y100197D02*
D03*
X99311Y68209D02*
D03*
X11319Y31398D02*
D03*
X26575Y56693D02*
D03*
Y53445D02*
D03*
X52165Y33169D02*
D03*
X5512Y79134D02*
D03*
X23300Y22400D02*
D03*
X36700Y29800D02*
D03*
X33300Y29700D02*
D03*
X29000Y29800D02*
D03*
X44800Y35400D02*
D03*
X45000Y32800D02*
D03*
X45200Y30000D02*
D03*
X43371Y81215D02*
D03*
X9252Y34547D02*
D03*
X26575Y59055D02*
D03*
X74884Y45899D02*
D03*
D89*
X58150Y108421D02*
D03*
X51550Y109121D02*
D03*
X84000Y106600D02*
D03*
X83900Y110172D02*
D03*
Y114700D02*
D03*
X48100Y108900D02*
D03*
X88760Y127081D02*
D03*
X93287D02*
D03*
X75177D02*
D03*
X79705D02*
D03*
X84232D02*
D03*
X97815D02*
D03*
X102343D02*
D03*
X103080Y118200D02*
D03*
X98880Y118300D02*
D03*
X96080Y116700D02*
D03*
X92728Y118700D02*
D03*
X88200D02*
D03*
X86400Y116700D02*
D03*
X20178Y129524D02*
D03*
Y125424D02*
D03*
X11700Y127900D02*
D03*
X11805Y123440D02*
D03*
X12495Y118965D02*
D03*
X14542Y114927D02*
D03*
X17743Y111725D02*
D03*
X21780Y109675D02*
D03*
X26253Y108975D02*
D03*
X30780Y108977D02*
D03*
X35308D02*
D03*
X39836D02*
D03*
X44363D02*
D03*
X42035Y117342D02*
D03*
X37507D02*
D03*
X32980D02*
D03*
X28452D02*
D03*
X23946Y117778D02*
D03*
X20691Y120925D02*
D03*
X127200Y129800D02*
D03*
X135878Y129824D02*
D03*
X127300Y126000D02*
D03*
X125945Y123142D02*
D03*
X121417D02*
D03*
X111954Y115078D02*
D03*
X116472Y114777D02*
D03*
X121000D02*
D03*
X125527D02*
D03*
X130045Y115078D02*
D03*
X133976Y117324D02*
D03*
X135733Y121496D02*
D03*
X135778Y126024D02*
D03*
X117100Y53400D02*
D03*
X96358Y67224D02*
D03*
X29429Y86417D02*
D03*
X100845Y190629D02*
D03*
X98674Y183022D02*
D03*
X89657Y182493D02*
D03*
X87982Y178287D02*
D03*
Y173759D02*
D03*
Y169231D02*
D03*
Y164704D02*
D03*
Y160176D02*
D03*
Y155649D02*
D03*
X88714Y151181D02*
D03*
X92196Y148287D02*
D03*
X96714Y147983D02*
D03*
X101241D02*
D03*
X105768Y147940D02*
D03*
X110179Y146917D02*
D03*
X114000Y144489D02*
D03*
X116801Y140931D02*
D03*
X118235Y136637D02*
D03*
X118404Y132112D02*
D03*
X118378Y127585D02*
D03*
X110040Y131237D02*
D03*
X109879Y135761D02*
D03*
X106954Y139217D02*
D03*
X102444Y139618D02*
D03*
X97917D02*
D03*
X93389Y139644D02*
D03*
X88953Y140548D02*
D03*
X85018Y142788D02*
D03*
X81975Y146140D02*
D03*
X80127Y150274D02*
D03*
X79618Y154772D02*
D03*
Y159300D02*
D03*
Y163827D02*
D03*
Y168355D02*
D03*
Y172882D02*
D03*
Y177410D02*
D03*
X79881Y181930D02*
D03*
X81648Y186099D02*
D03*
X84814Y189335D02*
D03*
X88954Y191169D02*
D03*
X42445Y189073D02*
D03*
X46829Y187942D02*
D03*
X50253Y184979D02*
D03*
X51941Y180778D02*
D03*
X52060Y176252D02*
D03*
Y171724D02*
D03*
Y167197D02*
D03*
Y162669D02*
D03*
Y158142D02*
D03*
Y153614D02*
D03*
Y149087D02*
D03*
Y144559D02*
D03*
Y140032D02*
D03*
Y135504D02*
D03*
Y130976D02*
D03*
Y126449D02*
D03*
X43622Y119521D02*
D03*
X43696Y124048D02*
D03*
Y128576D02*
D03*
Y133103D02*
D03*
Y137631D02*
D03*
Y142158D02*
D03*
Y146686D02*
D03*
Y151213D02*
D03*
Y155741D02*
D03*
Y160268D02*
D03*
Y164796D02*
D03*
Y169324D02*
D03*
Y173851D02*
D03*
Y178379D02*
D03*
X39819Y180718D02*
D03*
X35354Y181471D02*
D03*
X37500Y189078D02*
D03*
X84900Y26700D02*
D03*
Y23944D02*
D03*
Y21188D02*
D03*
Y18826D02*
D03*
X82677Y26772D02*
D03*
Y23917D02*
D03*
Y21260D02*
D03*
Y18898D02*
D03*
X80577Y25372D02*
D03*
Y22372D02*
D03*
Y19972D02*
D03*
X32000Y68400D02*
D03*
D90*
X4000Y103700D02*
D03*
X133400Y113500D02*
D03*
X133000Y111200D02*
D03*
X133400Y108800D02*
D03*
X134300Y106800D02*
D03*
X136000Y105100D02*
D03*
X11200Y105300D02*
D03*
X12900Y107000D02*
D03*
X13800Y109000D02*
D03*
X14200Y111400D02*
D03*
X131606Y2900D02*
D03*
X127079D02*
D03*
X122551D02*
D03*
X131334Y1100D02*
D03*
X126806D02*
D03*
X122279D02*
D03*
X95113D02*
D03*
X99641D02*
D03*
X104168D02*
D03*
X108696D02*
D03*
X113224D02*
D03*
X117751D02*
D03*
X95386Y2900D02*
D03*
X99913D02*
D03*
X104441D02*
D03*
X108968D02*
D03*
X113496D02*
D03*
X118024D02*
D03*
X67948Y1100D02*
D03*
X72476D02*
D03*
X77003D02*
D03*
X81531D02*
D03*
X86058D02*
D03*
X90586D02*
D03*
X68221Y2900D02*
D03*
X72748D02*
D03*
X77276D02*
D03*
X90858D02*
D03*
X40783Y1100D02*
D03*
X45310D02*
D03*
X49838D02*
D03*
X54365D02*
D03*
X58893D02*
D03*
X63420D02*
D03*
X41055Y2900D02*
D03*
X54638D02*
D03*
X59165D02*
D03*
X63693D02*
D03*
X106500Y166583D02*
D03*
X36528Y2900D02*
D03*
X32000D02*
D03*
X27472D02*
D03*
X22945D02*
D03*
X18417D02*
D03*
X13890D02*
D03*
X36255Y1100D02*
D03*
X31728D02*
D03*
X27200D02*
D03*
X22672D02*
D03*
X18145D02*
D03*
X13617D02*
D03*
X106500Y175638D02*
D03*
Y171110D02*
D03*
Y162055D02*
D03*
Y157528D02*
D03*
Y153000D02*
D03*
X107000Y150700D02*
D03*
X109400Y150200D02*
D03*
X112300Y150100D02*
D03*
X116235Y150200D02*
D03*
X120762D02*
D03*
X125290D02*
D03*
X129817D02*
D03*
X134345D02*
D03*
X138872D02*
D03*
X143800Y131062D02*
D03*
Y126535D02*
D03*
Y122007D02*
D03*
Y117480D02*
D03*
X146100Y130790D02*
D03*
Y126262D02*
D03*
Y121735D02*
D03*
Y117207D02*
D03*
Y135317D02*
D03*
Y139845D02*
D03*
Y144372D02*
D03*
Y148900D02*
D03*
X143800Y135590D02*
D03*
Y140117D02*
D03*
Y144645D02*
D03*
X143400Y150200D02*
D03*
X106600Y193000D02*
D03*
X103600D02*
D03*
X99941D02*
D03*
X95413D02*
D03*
X90886D02*
D03*
X86358D02*
D03*
X81831D02*
D03*
X77303D02*
D03*
X72776D02*
D03*
X68248D02*
D03*
X63721D02*
D03*
X59193D02*
D03*
X50138D02*
D03*
X54665D02*
D03*
X45610D02*
D03*
X36555D02*
D03*
X41083D02*
D03*
X32028D02*
D03*
X27500D02*
D03*
X27300Y170700D02*
D03*
X26628Y168260D02*
D03*
X24238Y167210D02*
D03*
X19710D02*
D03*
X15183D02*
D03*
X10655D02*
D03*
X6128D02*
D03*
X1600D02*
D03*
Y162683D02*
D03*
Y158155D02*
D03*
Y153628D02*
D03*
Y149100D02*
D03*
Y144572D02*
D03*
Y140045D02*
D03*
Y135517D02*
D03*
Y130990D02*
D03*
Y126462D02*
D03*
Y121935D02*
D03*
Y117407D02*
D03*
X3900Y162410D02*
D03*
Y157883D02*
D03*
Y153355D02*
D03*
Y148828D02*
D03*
Y144300D02*
D03*
Y139772D02*
D03*
Y135245D02*
D03*
Y130717D02*
D03*
Y126190D02*
D03*
Y121662D02*
D03*
Y117135D02*
D03*
X18307Y101083D02*
D03*
X12303Y100886D02*
D03*
D91*
X14075Y152166D02*
D03*
X11811Y156693D02*
D03*
X18603Y152166D02*
D03*
X16339Y156693D02*
D03*
X23130Y152166D02*
D03*
X20866Y156693D02*
D03*
X27658Y125000D02*
D03*
Y152166D02*
D03*
X25394Y156693D02*
D03*
X27658Y161221D02*
D03*
X32185Y125000D02*
D03*
X29921Y129528D02*
D03*
X32185Y134055D02*
D03*
X29921Y138583D02*
D03*
X32185Y143111D02*
D03*
X29921Y147638D02*
D03*
X32185Y152166D02*
D03*
X29921Y156693D02*
D03*
X32185Y161221D02*
D03*
X36713Y125000D02*
D03*
X34449Y129528D02*
D03*
X36713Y134055D02*
D03*
X34449Y138583D02*
D03*
X36713Y143111D02*
D03*
X34449Y147638D02*
D03*
X36713Y152166D02*
D03*
X34449Y156693D02*
D03*
X36713Y161221D02*
D03*
X34449Y165748D02*
D03*
X36713Y170276D02*
D03*
X34449Y174803D02*
D03*
X59351Y125000D02*
D03*
Y134055D02*
D03*
Y143111D02*
D03*
Y152166D02*
D03*
Y161221D02*
D03*
Y170276D02*
D03*
Y179331D02*
D03*
X63878Y134055D02*
D03*
X61614Y138583D02*
D03*
X63878Y143111D02*
D03*
X61614Y147638D02*
D03*
X63878Y152166D02*
D03*
X61614Y156693D02*
D03*
X63878Y161221D02*
D03*
X61614Y165748D02*
D03*
X63878Y170276D02*
D03*
X61614Y174803D02*
D03*
X63878Y179331D02*
D03*
X61614Y183859D02*
D03*
X66142Y138583D02*
D03*
X68406Y143111D02*
D03*
X66142Y147638D02*
D03*
X68406Y152166D02*
D03*
X66142Y156693D02*
D03*
X68406Y161221D02*
D03*
X66142Y165748D02*
D03*
X68406Y170276D02*
D03*
X66142Y174803D02*
D03*
X68406Y179331D02*
D03*
X66142Y183859D02*
D03*
X70670Y138583D02*
D03*
X72933Y143111D02*
D03*
X70670Y147638D02*
D03*
X72933Y152166D02*
D03*
X70670Y156693D02*
D03*
X72933Y161221D02*
D03*
X70670Y165748D02*
D03*
X72933Y170276D02*
D03*
X70670Y174803D02*
D03*
X72933Y179331D02*
D03*
X70670Y183859D02*
D03*
X77461Y134055D02*
D03*
X75197Y138583D02*
D03*
X81988Y134055D02*
D03*
X79725Y138583D02*
D03*
X86516Y134055D02*
D03*
X95571Y161221D02*
D03*
Y170276D02*
D03*
X97835Y156693D02*
D03*
X100099Y161221D02*
D03*
X97835Y165748D02*
D03*
X100099Y170276D02*
D03*
X97835Y174803D02*
D03*
X2756Y93307D02*
D03*
X14075Y143111D02*
D03*
X11811Y147638D02*
D03*
X18603Y152166D02*
D03*
X20866Y138583D02*
D03*
Y147638D02*
D03*
X23130Y152166D02*
D03*
X27658Y125000D02*
D03*
X25394Y138583D02*
D03*
X27658Y143111D02*
D03*
Y161221D02*
D03*
X32185Y125000D02*
D03*
X29921Y138583D02*
D03*
X32185Y143111D02*
D03*
Y152166D02*
D03*
Y161221D02*
D03*
X36713Y125000D02*
D03*
X34449Y129528D02*
D03*
X36713Y143111D02*
D03*
X34449Y156693D02*
D03*
X36713Y161221D02*
D03*
X34449Y165748D02*
D03*
Y174803D02*
D03*
X50296Y115945D02*
D03*
X54823D02*
D03*
X57087Y120473D02*
D03*
X59351Y143111D02*
D03*
Y170276D02*
D03*
Y179331D02*
D03*
X63878Y115945D02*
D03*
Y125000D02*
D03*
X61614Y138583D02*
D03*
Y156693D02*
D03*
Y165748D02*
D03*
Y174803D02*
D03*
X66142Y111418D02*
D03*
X68406Y125000D02*
D03*
Y134055D02*
D03*
X66142Y147638D02*
D03*
X68406Y152166D02*
D03*
X66142Y156693D02*
D03*
Y165748D02*
D03*
X68406Y170276D02*
D03*
X66142Y183859D02*
D03*
X70670Y120473D02*
D03*
Y138583D02*
D03*
X72933Y143111D02*
D03*
Y152166D02*
D03*
X70670Y165748D02*
D03*
X72933Y170276D02*
D03*
X70670Y174803D02*
D03*
X75197Y120473D02*
D03*
Y138583D02*
D03*
X79725D02*
D03*
X95571Y161221D02*
D03*
Y170276D02*
D03*
X97835Y156693D02*
D03*
X100099Y161221D02*
D03*
X97835Y165748D02*
D03*
X100099Y170276D02*
D03*
X106890Y183859D02*
D03*
X127264Y143111D02*
D03*
X129528Y138583D02*
D03*
X134055D02*
D03*
X136319Y143111D02*
D03*
X145374Y79725D02*
D03*
Y88780D02*
D03*
X14075Y134055D02*
D03*
X11811Y138583D02*
D03*
X14075Y152166D02*
D03*
X11811Y156693D02*
D03*
X16339Y138583D02*
D03*
X18603Y143111D02*
D03*
X16339Y147638D02*
D03*
Y156693D02*
D03*
X23130Y143111D02*
D03*
X20866Y156693D02*
D03*
X27658Y134055D02*
D03*
X25394Y147638D02*
D03*
X27658Y152166D02*
D03*
X25394Y156693D02*
D03*
X27658Y179331D02*
D03*
X29921Y129528D02*
D03*
X32185Y134055D02*
D03*
X29921Y147638D02*
D03*
Y156693D02*
D03*
X36713Y134055D02*
D03*
X34449Y138583D02*
D03*
Y147638D02*
D03*
X36713Y152166D02*
D03*
Y170276D02*
D03*
X59351Y115945D02*
D03*
Y125000D02*
D03*
Y134055D02*
D03*
Y152166D02*
D03*
Y161221D02*
D03*
X61614Y120473D02*
D03*
Y129528D02*
D03*
X63878Y134055D02*
D03*
Y143111D02*
D03*
X61614Y147638D02*
D03*
X63878Y152166D02*
D03*
Y161221D02*
D03*
Y170276D02*
D03*
Y179331D02*
D03*
X61614Y183859D02*
D03*
X66142Y120473D02*
D03*
Y129528D02*
D03*
Y138583D02*
D03*
X68406Y143111D02*
D03*
Y161221D02*
D03*
X66142Y174803D02*
D03*
X68406Y179331D02*
D03*
X70670Y111418D02*
D03*
X72933Y115945D02*
D03*
Y134055D02*
D03*
X70670Y147638D02*
D03*
Y156693D02*
D03*
X72933Y161221D02*
D03*
Y179331D02*
D03*
X70670Y183859D02*
D03*
X75197Y111418D02*
D03*
X77461Y115945D02*
D03*
Y134055D02*
D03*
X79725Y120473D02*
D03*
X81988Y134055D02*
D03*
X86516D02*
D03*
X97835Y174803D02*
D03*
X125000Y138583D02*
D03*
X131792Y143111D02*
D03*
X145374Y97835D02*
D03*
D92*
X140748Y111024D02*
D03*
X6791D02*
D03*
X140551Y7087D02*
D03*
X7480Y7874D02*
D03*
D93*
X106600Y100600D02*
D03*
X97701Y100591D02*
D03*
X102622D02*
D03*
X111400Y100600D02*
D03*
D96*
X43200Y77700D02*
D03*
D97*
X33268Y56791D02*
D03*
X36122D02*
D03*
X23425Y56988D02*
D03*
X30512D02*
D03*
D98*
X36024Y56890D02*
X36122Y56791D01*
D99*
X25591Y56890D02*
X36024D01*
X75800Y31000D02*
X81700Y25100D01*
X18110Y56890D02*
X25591D01*
X36122Y56791D02*
X37413Y55500D01*
X15945Y54724D02*
X18110Y56890D01*
X37413Y55500D02*
X57000D01*
X57834Y54666D01*
X15945Y44355D02*
X16600Y43700D01*
X15945Y44355D02*
Y46457D01*
Y54724D01*
X57834Y32666D02*
X59500Y31000D01*
X75800D01*
X57834Y32666D02*
Y54666D01*
M02*
