M48
;Layer_Color=9474304
;FILE_FORMAT=2:5
INCH,LZ
;TYPE=PLATED
T1F00S00C0.00787
T3F00S00C0.01181
T5F00S00C0.01378
T8F00S00C0.07874
%
T01
X0013617Y00011
X001389Y00029
X0018417
X0018145Y00011
X0022672
X0022945Y00029
X0027472
X00272Y00011
X0031728
X0032Y00029
X0036528
X0036255Y00011
X0040783
X0041055Y00029
X004531Y00011
X0049838
X0054365
X0054638Y00029
X0059165
X0058893Y00011
X006342
X0063693Y00029
X0068221
X0067948Y00011
X0072476
X0072748Y00029
X0077276
X0077003Y00011
X0081531
X0086058
X0090586
X0090858Y00029
X0095386
X0095113Y00011
X0099641
X0099913Y00029
X0104441
X0104168Y00011
X0108696
X0108968Y00029
X00596Y00188
X0056741Y0018841
X00568Y00219
X0059541Y0021841
X0062441
X0086828Y0054267
X00839Y01003
X0084Y01066
X005815Y0108421
X005155Y0109121
X00481Y01089
X0044363Y0108977
X0039836
X0035308
X003078
X0026253Y0108975
X00138Y0109
X00129Y0107
X00112Y01053
X00091Y0104
X00066Y01037
X0004
X0055216Y0090847
X005748Y0092323
X01343Y01068
X01334Y01088
X0136Y01051
X01381Y01038
X01406Y01035
X01388Y00718
X01371Y00701
X01381Y00659
X0131606Y00029
X0131334Y00011
X0126806
X0127079Y00029
X0122551
X0122279Y00011
X0117751
X0118024Y00029
X0113496
X0113224Y00011
X0111954Y0115078
X0116472Y0114777
X0121
X0125527
X0130045Y0115078
X01334Y01135
X0133Y01112
X0133976Y0117324
X0135733Y0121496
X0135778Y0126024
X0135878Y0129824
X01272Y01298
X01273Y0126
X0125945Y0123142
X0121417
X0118378Y0127585
X0118404Y0132112
X0118235Y0136637
X0116801Y0140931
X0114Y0144489
X0110179Y0146917
X01123Y01501
X0116235Y01502
X0120762
X012529
X0129817
X0134345
X0138872
X01434
X01461Y01489
Y0144372
X01438Y0144645
Y0140117
X01461Y0139845
Y0135317
X01438Y013559
Y0131062
X01461Y013079
Y0126262
X01438Y0126535
Y0122007
X01461Y0121735
Y0117207
X01438Y011748
X011004Y0131237
X0109879Y0135761
X0106954Y0139217
X0102444Y0139618
X0097917
X0093389Y0139644
X0088953Y0140548
X0085018Y0142788
X0081975Y014614
X0080127Y0150274
X0079618Y0154772
Y01593
Y0163827
Y0168355
Y0172882
Y017741
X0079881Y018193
X0081648Y0186099
X0084814Y0189335
X0086358Y0193
X0088954Y0191169
X0090886Y0193
X0095413
X0099941
X0100845Y0190629
X01036Y0193
X01066
X01065Y0175638
Y017111
Y0166583
Y0162055
Y0157528
Y0153
X0107Y01507
X01094Y01502
X0105768Y014794
X0101241Y0147983
X0096714
X0092196Y0148287
X0088714Y0151181
X0087982Y0155649
Y0160176
Y0164704
Y0169231
Y0173759
Y0178287
X0089657Y0182493
X0098674Y0183022
X0097835Y0174803
X0095571Y0170276
X0100099
X0097835Y0165748
X0095571Y0161221
X0100099
X0097835Y0156693
X007067
X0066142
X0061614
X0059351Y0152166
X0063878
X0068406
X0072933
X007067Y0147638
X0066142
X0061614
X0059351Y0143111
X0063878
X0068406
X0072933
X007067Y0138583
X0066142
X0061614
X0059351Y0134055
X0063878
X005206Y0135504
Y0140032
Y0144559
Y0149087
Y0153614
Y0158142
Y0162669
Y0167197
Y0171724
Y0176252
X0051941Y0180778
X0050253Y0184979
X0046829Y0187942
X0042445Y0189073
X00375Y0189078
X0036555Y0193
X0041083
X004561
X0050138
X0054665
X0059193
X0063721
X0068248
X0072776
X0077303
X0081831
X007067Y0183859
X0066142
X0061614
X0059351Y0179331
X0063878
X0068406
X0072933
X007067Y0174803
X0066142
X0061614
X0059351Y0170276
X0063878
X0068406
X0072933
X007067Y0165748
X0066142
X0061614
X0059351Y0161221
X0063878
X0068406
X0072933
X0075197Y0138583
X0079725
X0077461Y0134055
X0081988
X0086516
X008876Y0127081
X0093287
X0097815
X0102343
X01068Y01283
X010308Y01182
X009888Y01183
X009608Y01167
X0092728Y01187
X00882
X00864Y01167
X00839Y01147
Y0110172
X0084232Y0127081
X0079705
X0075177
X0059351Y0125
X005206Y0126449
Y0130976
X0043696Y0133103
Y0128576
Y0124048
X0043622Y0119521
X0042035Y0117342
X0037507
X003298
X0028452
X0023946Y0117778
X0020691Y0120925
X0020178Y0125424
Y0129524
X0029921Y0129528
X0034449
X0032185Y0125
X0027658
X0036713
Y0134055
X0032185
X0029921Y0138583
X0034449
X0032185Y0143111
X0036713
X0034449Y0147638
X0029921
X0027658Y0152166
X002313
X0018603
X0014075
X0011811Y0156693
X0016339
X0020866
X0025394
X0029921
X0034449
X0032185Y0152166
X0036713
X0043696Y0151213
Y0146686
Y0142158
Y0137631
Y0155741
Y0160268
Y0164796
Y0169324
Y0173851
Y0178379
X0039819Y0180718
X0035354Y0181471
X0034449Y0174803
X0036713Y0170276
X0034449Y0165748
X0032185Y0161221
X0027658
X0026628Y016826
X00273Y01707
X0024238Y016721
X001971
X0015183
X0010655
X0006128
X00016
Y0162683
X00039Y016241
Y0157883
X00016Y0158155
Y0153628
X00039Y0153355
Y0148828
X00016Y01491
Y0144572
X00039Y01443
Y0139772
X00016Y0140045
Y0135517
X00039Y0135245
Y0130717
X00016Y013099
Y0126462
X00039Y012619
Y0121662
X00016Y0121935
Y0117407
X00039Y0117135
X0012495Y0118965
X0011805Y012344
X00117Y01279
X0014542Y0114927
X00142Y01114
X0017743Y0111725
X002178Y0109675
X0055Y01107
X0067913Y0115945
X01052Y01146
X0036713Y0161221
X0032028Y0193
X00275
T03
X0008366Y0063878
X0083Y00406
X0083071Y0087992
T05
X009301Y0008897
X00847Y00327
X00822Y00338
X00821Y00368
X00494Y00655
X0118898Y0059941
X0122638Y005935
X0133465Y0038189
T08
X000748Y0007874
X0140551Y0007087
X0140748Y0111024
X0006791
M30
