%FSLAX25Y25*%
%MOIN*%
G70*
G01*
G75*
G04 Layer_Physical_Order=4*
G04 Layer_Color=16737945*
%ADD10C,0.01244*%
%ADD11C,0.01772*%
%ADD12C,0.00787*%
%ADD13C,0.01000*%
%ADD14C,0.01575*%
%ADD15R,0.01969X0.01969*%
%ADD16R,0.01969X0.01969*%
%ADD17R,0.19291X0.19291*%
%ADD18O,0.00984X0.02756*%
%ADD19O,0.02756X0.00984*%
%ADD20R,0.04134X0.04134*%
%ADD21R,0.04134X0.08858*%
%ADD22R,0.01083X0.00984*%
%ADD23R,0.01083X0.01969*%
%ADD24R,0.03150X0.06693*%
%ADD25R,0.07992X0.05000*%
%ADD26R,0.05512X0.04724*%
%ADD27R,0.12992X0.12992*%
%ADD28O,0.00984X0.03150*%
%ADD29O,0.03150X0.00984*%
%ADD30R,0.03937X0.01575*%
%ADD31R,0.03150X0.03543*%
%ADD32R,0.03543X0.03150*%
%ADD33C,0.00787*%
%ADD34R,0.02362X0.01969*%
%ADD35C,0.05906*%
%ADD36O,0.02559X0.00984*%
%ADD37O,0.00984X0.02559*%
%ADD38R,0.11024X0.11024*%
%ADD39R,0.03543X0.06299*%
%ADD40R,0.04921X0.07874*%
%ADD41R,0.05118X0.06693*%
%ADD42O,0.02559X0.00787*%
%ADD43O,0.00787X0.02559*%
%ADD44R,0.03307X0.04803*%
%ADD45R,0.01740X0.01378*%
%ADD46R,0.01772X0.00984*%
%ADD47R,0.02756X0.06299*%
%ADD48C,0.01264*%
%ADD49C,0.01969*%
%ADD50C,0.00866*%
%ADD51C,0.00709*%
%ADD52C,0.00800*%
%ADD53C,0.00591*%
%ADD54C,0.00669*%
%ADD55C,0.00984*%
%ADD56C,0.01181*%
%ADD57C,0.01378*%
%ADD58C,0.01410*%
%ADD59R,0.01953X0.01969*%
%ADD60R,0.02953X0.01969*%
%ADD61R,0.05906X0.04134*%
%ADD62R,0.04423X0.05873*%
%ADD63R,0.09700X0.03900*%
%ADD64R,0.06400X0.04800*%
%ADD65R,0.02400X0.02800*%
%ADD66R,0.02800X0.02400*%
%ADD67R,0.02500X0.02800*%
%ADD68R,0.15900X0.01100*%
%ADD69R,0.02589X0.09647*%
%ADD70R,0.01975X0.09510*%
%ADD71R,0.05649X0.04800*%
%ADD72R,0.18046X0.01322*%
%ADD73R,0.18000X0.02233*%
%ADD74R,0.01364X0.08514*%
%ADD75R,0.01331X0.08465*%
%ADD76R,0.22123X0.02927*%
%ADD77R,0.09823X0.14573*%
%ADD78R,0.08600X0.05500*%
%ADD79R,0.08100X0.05600*%
%ADD80R,0.03700X0.03400*%
%ADD81R,0.06197X0.04400*%
%ADD82R,0.22700X0.03200*%
%ADD83R,0.08421X0.04909*%
%ADD84R,0.01422X0.05191*%
%ADD85R,0.01545X0.00445*%
%ADD86R,0.01558X0.02675*%
%ADD87R,0.04000X0.02020*%
%ADD88C,0.02165*%
%ADD89C,0.01969*%
%ADD90C,0.01575*%
%ADD91C,0.01772*%
%ADD92C,0.11811*%
%ADD93C,0.03543*%
%ADD94C,0.02598*%
%ADD95C,0.02756*%
%ADD96C,0.02559*%
%ADD97C,0.02362*%
%ADD98C,0.02756*%
%ADD99C,0.03937*%
G36*
X139350Y84050D02*
Y79350D01*
X138950Y78950D01*
X138850Y78850D01*
X126450D01*
X126150Y79150D01*
Y82350D01*
X128650D01*
X130850Y84550D01*
X138850D01*
X139350Y84050D01*
D02*
G37*
G36*
X108100Y194399D02*
Y151600D01*
X147700D01*
Y151600D01*
X147746D01*
X148100Y151246D01*
Y72777D01*
X147659Y72541D01*
X147596Y72583D01*
X146981Y72706D01*
X146601Y72630D01*
X146186Y72908D01*
X146165Y73014D01*
X145817Y73535D01*
X145296Y73883D01*
X144681Y74006D01*
X144304Y74315D01*
Y91700D01*
X144213Y92161D01*
X143951Y92551D01*
X137644Y98860D01*
X137692Y99357D01*
X137962Y99538D01*
X138376Y100156D01*
X138521Y100886D01*
X138376Y101616D01*
X137962Y102234D01*
X137344Y102647D01*
X136614Y102793D01*
X135884Y102647D01*
X135266Y102234D01*
X134850Y102317D01*
X134832Y102403D01*
X134419Y103022D01*
X133800Y103435D01*
X133071Y103580D01*
X132341Y103435D01*
X131723Y103022D01*
X131309Y102403D01*
X131164Y101673D01*
X131309Y100944D01*
X131723Y100325D01*
X132085Y100083D01*
X131940Y99604D01*
X122502D01*
X120833Y101274D01*
X120867Y101443D01*
X120721Y102173D01*
X120308Y102792D01*
X119690Y103205D01*
X118960Y103350D01*
X118230Y103205D01*
X117612Y102792D01*
X117198Y102173D01*
X117053Y101443D01*
X117198Y100714D01*
X117612Y100095D01*
X118230Y99682D01*
X118230Y99682D01*
X118042Y99380D01*
X118042Y99380D01*
X118042D01*
X117628Y98761D01*
X117483Y98032D01*
X117568Y97607D01*
X117152Y97329D01*
X116589Y97705D01*
X115860Y97850D01*
X115130Y97705D01*
X114512Y97292D01*
X114098Y96673D01*
X113953Y95943D01*
X114098Y95214D01*
X114512Y94595D01*
X114615Y94526D01*
Y93540D01*
X114710Y93064D01*
X114980Y92660D01*
X116520Y91120D01*
X116520D01*
X116520Y91120D01*
X116520Y91120D01*
Y91120D01*
X116924Y90850D01*
X117400Y90756D01*
X137685D01*
X139716Y88725D01*
Y85449D01*
X139275Y85213D01*
X139157Y85292D01*
X138850Y85353D01*
X133190D01*
Y86516D01*
X129051D01*
X127600Y85065D01*
Y83153D01*
X126150D01*
X125843Y83092D01*
X125582Y82918D01*
X125408Y82657D01*
X125347Y82350D01*
Y79150D01*
X125408Y78843D01*
X125582Y78582D01*
X125582Y78582D01*
X125882Y78282D01*
X126143Y78108D01*
X126450Y78047D01*
X128420D01*
Y57648D01*
X128484Y57163D01*
Y54462D01*
X126309Y52288D01*
X118994D01*
X118769Y52709D01*
X118903Y53384D01*
X118973Y53413D01*
X119463Y53511D01*
X119546Y53455D01*
X120276Y53310D01*
X121005Y53455D01*
X121624Y53868D01*
X122037Y54487D01*
X122182Y55216D01*
X122037Y55946D01*
X121624Y56565D01*
X121005Y56978D01*
X120276Y57123D01*
X119546Y56978D01*
X118927Y56565D01*
X118831Y56421D01*
X116148D01*
X96616Y75954D01*
X96225Y76215D01*
X95764Y76306D01*
X95764Y76306D01*
X89441D01*
X89345Y76450D01*
X88726Y76864D01*
X87996Y77009D01*
X87267Y76864D01*
X86999Y76685D01*
X86558Y76920D01*
Y82606D01*
X86469Y83052D01*
X86217Y83429D01*
X83660Y85986D01*
X83762Y86323D01*
X84348Y86715D01*
X84740Y87301D01*
X84877Y87992D01*
X84740Y88683D01*
X84348Y89269D01*
X83762Y89661D01*
X83071Y89798D01*
X82380Y89661D01*
X81794Y89269D01*
X81445Y88748D01*
X80948Y88699D01*
X80723Y88923D01*
X80345Y89175D01*
X79900Y89264D01*
X56820D01*
X56585Y89705D01*
X56885Y90155D01*
X56908Y90270D01*
X57324Y90548D01*
X57480Y90517D01*
X58172Y90654D01*
X58758Y91045D01*
X59149Y91632D01*
X59287Y92323D01*
X59149Y93014D01*
X58758Y93600D01*
X58172Y93992D01*
X57480Y94129D01*
X56789Y93992D01*
X56203Y93600D01*
X55812Y93014D01*
X55789Y92900D01*
X55373Y92622D01*
X55216Y92653D01*
X54525Y92515D01*
X53939Y92124D01*
X53548Y91538D01*
X53410Y90847D01*
X53548Y90155D01*
X53848Y89705D01*
X53613Y89264D01*
X51555D01*
X49485Y91335D01*
X49545Y91634D01*
X49399Y92364D01*
X48986Y92982D01*
X48368Y93395D01*
X47638Y93541D01*
X46908Y93395D01*
X46290Y92982D01*
X45876Y92364D01*
X45731Y91634D01*
X45876Y90904D01*
X46290Y90286D01*
X46908Y89872D01*
X47638Y89727D01*
X47773Y89754D01*
X50250Y87277D01*
D01*
X50454Y87036D01*
X50192Y86644D01*
X26100D01*
X25624Y86550D01*
X25220Y86280D01*
X22434Y83494D01*
X21937Y83543D01*
X21749Y83825D01*
X21130Y84238D01*
X20401Y84383D01*
X19671Y84238D01*
X19052Y83825D01*
X18639Y83206D01*
X18494Y82477D01*
X18639Y81747D01*
X19052Y81128D01*
X19671Y80715D01*
X20401Y80570D01*
X20849Y80659D01*
X21236Y80342D01*
Y64640D01*
X16646Y60050D01*
X16149Y60099D01*
X15848Y60548D01*
X15230Y60962D01*
X14500Y61107D01*
X13770Y60962D01*
X13542Y60809D01*
X13248Y61248D01*
X12799Y61548D01*
X12991Y62010D01*
X13681Y61873D01*
X14411Y62018D01*
X15029Y62431D01*
X15443Y63050D01*
X15588Y63779D01*
X15514Y64152D01*
X15929Y64429D01*
X16298Y64183D01*
X17028Y64038D01*
X17757Y64183D01*
X18376Y64597D01*
X18789Y65215D01*
X18934Y65945D01*
X18789Y66675D01*
X18376Y67293D01*
X17757Y67707D01*
X17028Y67852D01*
X16298Y67707D01*
X15679Y67293D01*
X15556Y67109D01*
X12624D01*
X12479Y67588D01*
X12864Y67845D01*
X13277Y68463D01*
X13371Y68936D01*
X13787Y69213D01*
X14075Y69156D01*
X14805Y69301D01*
X15423Y69715D01*
X15836Y70333D01*
X15981Y71063D01*
X15836Y71793D01*
X15423Y72411D01*
X14805Y72825D01*
X14075Y72970D01*
X13345Y72825D01*
X12727Y72411D01*
X12313Y71793D01*
X12219Y71320D01*
X11804Y71042D01*
X11516Y71100D01*
X10786Y70955D01*
X10581Y70817D01*
X10305Y71230D01*
X9686Y71644D01*
X8957Y71789D01*
X8227Y71644D01*
X7609Y71230D01*
X7195Y70612D01*
X7050Y69882D01*
X7195Y69152D01*
X7609Y68534D01*
X8227Y68120D01*
X8957Y67975D01*
X9686Y68120D01*
X9892Y68257D01*
X10167Y67845D01*
X10553Y67588D01*
X10407Y67109D01*
X7283D01*
X6912Y67035D01*
X6838Y67020D01*
X6460Y66768D01*
X4492Y64799D01*
X4239Y64422D01*
X4151Y63976D01*
Y57480D01*
X4151Y57480D01*
X4151D01*
X4239Y57035D01*
X4492Y56657D01*
X5476Y55673D01*
X5854Y55421D01*
X6299Y55332D01*
X7453D01*
X7510Y55246D01*
X7843Y55023D01*
Y54523D01*
X7805Y54498D01*
X7392Y53879D01*
X7247Y53150D01*
X7392Y52420D01*
X7805Y51801D01*
X8424Y51388D01*
X9154Y51243D01*
X9883Y51388D01*
X10502Y51801D01*
X10915Y52420D01*
X11060Y53150D01*
X10915Y53879D01*
X10502Y54498D01*
X9883Y54911D01*
X9862Y55016D01*
X10206Y55246D01*
X10620Y55865D01*
X10765Y56595D01*
X10620Y57324D01*
X10206Y57943D01*
Y58252D01*
X10648Y58488D01*
X11170Y58138D01*
X11900Y57993D01*
X12630Y58138D01*
X12630Y58138D01*
X12630Y58138D01*
X13011Y58063D01*
X13152Y57852D01*
X13601Y57551D01*
X13650Y57054D01*
X13549Y56953D01*
X13280Y56549D01*
X13185Y56073D01*
Y41476D01*
X13185Y41476D01*
X13185D01*
X13280Y41000D01*
X13549Y40597D01*
X13952Y40194D01*
X14085Y39526D01*
X14498Y38908D01*
X15117Y38494D01*
X15846Y38349D01*
X16576Y38494D01*
X17195Y38908D01*
X17608Y39526D01*
X17753Y40256D01*
X17608Y40986D01*
X17195Y41604D01*
X16576Y42017D01*
X15846Y42163D01*
X15674Y42305D01*
Y45174D01*
X16060Y45491D01*
X16339Y45436D01*
X17068Y45581D01*
X17687Y45994D01*
X18100Y46613D01*
X18245Y47343D01*
X18100Y48072D01*
X17687Y48691D01*
X17583Y48760D01*
Y55685D01*
X24780Y62882D01*
X25050Y63286D01*
X25144Y63762D01*
Y79985D01*
X27662Y82502D01*
X41451D01*
X41687Y82061D01*
X41609Y81945D01*
X41464Y81215D01*
X41609Y80485D01*
X42023Y79867D01*
X42641Y79453D01*
X43371Y79308D01*
X44100Y79453D01*
X44719Y79867D01*
X45132Y80485D01*
X45278Y81215D01*
X45132Y81945D01*
X45055Y82061D01*
X45290Y82502D01*
X76238D01*
X79622Y79118D01*
Y73000D01*
X79491Y72342D01*
X79636Y71613D01*
X80049Y70994D01*
X80668Y70581D01*
X81398Y70436D01*
X82127Y70581D01*
X82746Y70994D01*
X83159Y71613D01*
X83304Y72342D01*
X83290Y72413D01*
X83752Y72605D01*
X84057Y72148D01*
X84643Y71756D01*
X85335Y71619D01*
X86026Y71756D01*
X86612Y72148D01*
X87003Y72734D01*
X87111Y73276D01*
X87267Y73340D01*
X87996Y73195D01*
X88726Y73340D01*
X89345Y73754D01*
X89441Y73898D01*
X95265D01*
X98724Y70439D01*
X98581Y69970D01*
X97963Y69557D01*
X97571Y68970D01*
X97080Y68873D01*
X97049Y68893D01*
X96358Y69031D01*
X95667Y68893D01*
X95081Y68502D01*
X94689Y67916D01*
X94552Y67224D01*
X94689Y66533D01*
X95081Y65947D01*
X95667Y65556D01*
X96358Y65418D01*
X97049Y65556D01*
X97636Y65947D01*
X98027Y66533D01*
X98290Y66642D01*
X98581Y66447D01*
X99311Y66302D01*
X100041Y66447D01*
X100659Y66860D01*
X101073Y67479D01*
X101542Y67621D01*
X114798Y54365D01*
X114798Y54365D01*
X115032Y54208D01*
X115189Y54104D01*
X115424Y54057D01*
X115294Y53400D01*
X115431Y52709D01*
X115206Y52288D01*
X87916D01*
X87771Y52766D01*
X88106Y52990D01*
X88497Y53576D01*
X88635Y54267D01*
X88497Y54958D01*
X88106Y55544D01*
X87520Y55936D01*
X86828Y56073D01*
X86137Y55936D01*
X85551Y55544D01*
X85159Y54958D01*
X85022Y54267D01*
X85159Y53576D01*
X85551Y52990D01*
X85886Y52766D01*
X85741Y52288D01*
X36331D01*
X35753Y52865D01*
X35177Y53307D01*
X34507Y53585D01*
X33788Y53680D01*
X33068Y53585D01*
X32814Y53480D01*
X24500D01*
X23781Y53385D01*
X23383Y53220D01*
X22942Y53456D01*
X22913Y53602D01*
X22628Y54028D01*
X22202Y54313D01*
X21700Y54413D01*
X21500D01*
X20998Y54313D01*
X20572Y54028D01*
X20287Y53602D01*
X20187Y53100D01*
Y51425D01*
X20031Y51191D01*
X19894Y50500D01*
X20031Y49809D01*
X20423Y49223D01*
X21009Y48831D01*
X21700Y48694D01*
X22391Y48831D01*
X22437Y48862D01*
X22535Y48735D01*
X23110Y48293D01*
X23781Y48015D01*
X24500Y47920D01*
X25627D01*
X25862Y47479D01*
X25601Y47088D01*
X25455Y46358D01*
X25601Y45629D01*
X25601Y45629D01*
X25353Y45462D01*
X25353D01*
X25353Y45462D01*
X24734Y45049D01*
X24321Y44431D01*
X24240Y44025D01*
X23750Y43927D01*
X23592Y44163D01*
X22974Y44576D01*
X22244Y44722D01*
X21514Y44576D01*
X20896Y44163D01*
X20482Y43545D01*
X20337Y42815D01*
X20482Y42085D01*
X20896Y41467D01*
X21514Y41053D01*
X22244Y40908D01*
X22919Y41042D01*
X23196Y40627D01*
X23042Y40395D01*
X22896Y39665D01*
X23042Y38936D01*
X23455Y38317D01*
X24073Y37904D01*
X24803Y37759D01*
X25533Y37904D01*
X26151Y38317D01*
X26565Y38936D01*
X26710Y39665D01*
X26565Y40395D01*
X26151Y41014D01*
X25583Y41394D01*
X25774Y41855D01*
X26083Y41794D01*
X26812Y41939D01*
X27431Y42353D01*
X27844Y42971D01*
X27989Y43701D01*
X27844Y44430D01*
X27897Y44558D01*
X28092Y44597D01*
X28710Y45010D01*
X28792Y45132D01*
X29283Y45035D01*
X29341Y44743D01*
X29754Y44124D01*
X29790Y44100D01*
Y31944D01*
X29403Y31626D01*
X29000Y31707D01*
X28270Y31562D01*
X27652Y31148D01*
X27238Y30530D01*
X27093Y29800D01*
X27238Y29070D01*
X27652Y28452D01*
X28270Y28038D01*
X29000Y27893D01*
X29403Y27973D01*
X29790Y27656D01*
Y16507D01*
X29552Y16348D01*
X29138Y15730D01*
X28993Y15000D01*
X29138Y14270D01*
X29552Y13652D01*
X30170Y13238D01*
X30900Y13093D01*
X31630Y13238D01*
X32248Y13652D01*
X32662Y14270D01*
X32807Y15000D01*
X32662Y15730D01*
X32415Y16099D01*
Y27575D01*
X32801Y27893D01*
X33300Y27793D01*
X34030Y27938D01*
X34648Y28352D01*
X34783Y28554D01*
X35283D01*
X35352Y28452D01*
X35970Y28038D01*
X36700Y27893D01*
X37430Y28038D01*
X38048Y28452D01*
X38462Y29070D01*
X38607Y29800D01*
X38462Y30530D01*
X38048Y31148D01*
X37430Y31562D01*
X36700Y31707D01*
X35970Y31562D01*
X35352Y31148D01*
X35217Y30946D01*
X34717D01*
X34648Y31048D01*
X34030Y31462D01*
X33300Y31607D01*
X32801Y31508D01*
X32415Y31825D01*
Y44100D01*
X32451Y44124D01*
X32864Y44743D01*
X33009Y45472D01*
X32864Y46202D01*
X32451Y46821D01*
X31832Y47234D01*
X31102Y47379D01*
X30373Y47234D01*
X29754Y46821D01*
X29672Y46698D01*
X29182Y46796D01*
X29124Y47088D01*
X28710Y47706D01*
X28775Y47920D01*
X32836D01*
X33214Y47542D01*
X33790Y47101D01*
X34460Y46823D01*
X35180Y46728D01*
X72748D01*
X73066Y46342D01*
X72978Y45899D01*
X73123Y45169D01*
X73536Y44551D01*
X74155Y44138D01*
X74884Y43992D01*
X75614Y44138D01*
X76232Y44551D01*
X76646Y45169D01*
X76791Y45899D01*
X76646Y46629D01*
X76699Y46728D01*
X79898D01*
X80131Y46291D01*
X79994Y45600D01*
X80131Y44909D01*
X80523Y44323D01*
X81109Y43931D01*
X81800Y43794D01*
X82491Y43931D01*
X83077Y44323D01*
X83469Y44909D01*
X83606Y45600D01*
X83469Y46291D01*
X83702Y46728D01*
X126449D01*
X126641Y46266D01*
X124085Y43711D01*
X85300D01*
X85300Y43711D01*
X84914Y43634D01*
X84837Y43619D01*
X84444Y43356D01*
X84444Y43356D01*
X83499Y42411D01*
X83483D01*
X83000Y42507D01*
X82270Y42362D01*
X81652Y41948D01*
X81238Y41330D01*
X81093Y40600D01*
X81238Y39870D01*
X81652Y39252D01*
X81840Y39126D01*
X81742Y38636D01*
X81370Y38562D01*
X80752Y38148D01*
X80338Y37530D01*
X80193Y36800D01*
X80338Y36070D01*
X80752Y35452D01*
X80752D01*
X80852Y35148D01*
X80438Y34530D01*
X80293Y33800D01*
X80438Y33070D01*
X80852Y32452D01*
X81470Y32038D01*
X82200Y31893D01*
X82858Y32024D01*
X82938Y31970D01*
Y31970D01*
X82938Y31970D01*
X83352Y31352D01*
X83970Y30938D01*
X84700Y30793D01*
X84813Y30816D01*
X85200Y30499D01*
Y153D01*
X300D01*
Y37147D01*
X741Y37383D01*
X845Y37313D01*
X1575Y37168D01*
X2304Y37313D01*
X2923Y37727D01*
X3336Y38345D01*
X3481Y39075D01*
X3336Y39804D01*
X2923Y40423D01*
X2923D01*
Y40778D01*
X3336Y41396D01*
X3481Y42126D01*
X3336Y42856D01*
X2923Y43474D01*
X2304Y43888D01*
X1575Y44033D01*
X845Y43888D01*
X741Y43818D01*
X300Y44054D01*
Y73072D01*
X778Y73217D01*
X817Y73160D01*
X1436Y72746D01*
X2165Y72601D01*
X2895Y72746D01*
X3514Y73160D01*
X3927Y73778D01*
X4072Y74508D01*
X3927Y75238D01*
X3514Y75856D01*
X2895Y76269D01*
X2165Y76415D01*
X1436Y76269D01*
X817Y75856D01*
X778Y75798D01*
X300Y75943D01*
Y168800D01*
X25700D01*
Y194600D01*
D01*
Y194600D01*
X25853Y194753D01*
X107746D01*
X108100Y194399D01*
D02*
G37*
%LPC*%
G36*
X23425Y58995D02*
X22657Y58842D01*
X22006Y58407D01*
X21571Y57756D01*
X21418Y56988D01*
X21571Y56220D01*
X22006Y55569D01*
X22657Y55134D01*
X23425Y54981D01*
X24193Y55134D01*
X24844Y55569D01*
X25280Y56220D01*
X25432Y56988D01*
X25280Y57756D01*
X24844Y58407D01*
X24193Y58842D01*
X23425Y58995D01*
D02*
G37*
G36*
X30512D02*
X29744Y58842D01*
X29093Y58407D01*
X28657Y57756D01*
X28505Y56988D01*
X28657Y56220D01*
X29093Y55569D01*
X29744Y55134D01*
X30512Y54981D01*
X31280Y55134D01*
X31783Y55470D01*
X31848Y55372D01*
X32500Y54937D01*
X33268Y54784D01*
X34036Y54937D01*
X34687Y55372D01*
X34703D01*
X35354Y54937D01*
X36122Y54784D01*
X36890Y54937D01*
X37541Y55372D01*
X37976Y56023D01*
X38129Y56791D01*
X37976Y57559D01*
X37541Y58210D01*
X36890Y58646D01*
X36122Y58798D01*
X35354Y58646D01*
X34703Y58210D01*
X34687D01*
X34036Y58646D01*
X33268Y58798D01*
X32500Y58646D01*
X31997Y58309D01*
X31931Y58407D01*
X31280Y58842D01*
X30512Y58995D01*
D02*
G37*
G36*
X32000Y70206D02*
X31309Y70069D01*
X30723Y69677D01*
X30723D01*
Y69677D01*
X30588Y69651D01*
X30257Y69872D01*
X29528Y70017D01*
X28798Y69872D01*
X28179Y69459D01*
X27766Y68840D01*
X27621Y68110D01*
X27692Y67750D01*
X27415Y67334D01*
X27323Y67316D01*
X26704Y66903D01*
X26291Y66284D01*
X26146Y65554D01*
X26291Y64825D01*
X26704Y64206D01*
X27323Y63793D01*
X28053Y63648D01*
X28547Y63746D01*
X31245Y61049D01*
X31245Y61049D01*
X31635Y60787D01*
X31635Y60787D01*
X31635Y60787D01*
D01*
X31635Y60787D01*
X31635Y60787D01*
X32096Y60696D01*
X32096Y60696D01*
X82677D01*
X85417Y57956D01*
X85417Y57956D01*
X85651Y57800D01*
X85807Y57695D01*
X86268Y57603D01*
X86927D01*
X87399Y57288D01*
X88090Y57150D01*
X88782Y57288D01*
X89368Y57679D01*
X89759Y58265D01*
X89897Y58957D01*
X89759Y59648D01*
X89368Y60234D01*
X88782Y60625D01*
X88131Y60755D01*
X88224Y61221D01*
X88086Y61912D01*
X87695Y62498D01*
X87109Y62889D01*
X86417Y63027D01*
X86331Y63010D01*
X85189Y64152D01*
X84799Y64413D01*
X84338Y64504D01*
X84338Y64504D01*
X51503D01*
X51186Y64891D01*
X51307Y65500D01*
X51162Y66230D01*
X50748Y66848D01*
X50130Y67262D01*
X49400Y67407D01*
X48670Y67262D01*
X48052Y66848D01*
X47638Y66230D01*
X47493Y65500D01*
X47614Y64891D01*
X47297Y64504D01*
X34837D01*
X32672Y66669D01*
X32691Y66731D01*
X33277Y67123D01*
X33669Y67709D01*
X33806Y68400D01*
X33669Y69091D01*
X33277Y69677D01*
X32691Y70069D01*
X32000Y70206D01*
D02*
G37*
G36*
X118898Y61848D02*
X118168Y61703D01*
X117549Y61289D01*
X117136Y60671D01*
X116991Y59941D01*
X117136Y59211D01*
X117549Y58593D01*
X118168Y58179D01*
X118898Y58034D01*
X119627Y58179D01*
X120246Y58593D01*
X120373Y58783D01*
X120863Y58685D01*
X120876Y58621D01*
X121290Y58002D01*
X121908Y57589D01*
X122638Y57444D01*
X123368Y57589D01*
X123986Y58002D01*
X124399Y58621D01*
X124545Y59350D01*
X124399Y60080D01*
X123986Y60699D01*
X123368Y61112D01*
X122638Y61257D01*
X121908Y61112D01*
X121290Y60699D01*
X121162Y60509D01*
X120672Y60606D01*
X120659Y60671D01*
X120246Y61289D01*
X119627Y61703D01*
X118898Y61848D01*
D02*
G37*
G36*
X61713Y59781D02*
X60983Y59636D01*
X60364Y59222D01*
X59951Y58604D01*
X59806Y57874D01*
X59951Y57144D01*
X60364Y56526D01*
X60983Y56112D01*
X61641Y55982D01*
X61723Y55569D01*
X62136Y54951D01*
X62755Y54538D01*
X63484Y54392D01*
X64214Y54538D01*
X64833Y54951D01*
X65246Y55569D01*
X65391Y56299D01*
X65246Y57029D01*
X64833Y57648D01*
X64214Y58061D01*
X63556Y58192D01*
X63474Y58604D01*
X63061Y59222D01*
X62442Y59636D01*
X61713Y59781D01*
D02*
G37*
G36*
X23300Y24307D02*
X22570Y24162D01*
X21952Y23748D01*
X21538Y23130D01*
X21393Y22400D01*
X21538Y21670D01*
X21952Y21052D01*
X22570Y20638D01*
X23300Y20493D01*
X24030Y20638D01*
X24648Y21052D01*
X25062Y21670D01*
X25207Y22400D01*
X25062Y23130D01*
X24648Y23748D01*
X24030Y24162D01*
X23300Y24307D01*
D02*
G37*
G36*
X15700Y15007D02*
X14970Y14862D01*
X14352Y14448D01*
X13938Y13830D01*
X13793Y13100D01*
X13938Y12370D01*
X14352Y11752D01*
X14970Y11338D01*
X15700Y11193D01*
X16430Y11338D01*
X17048Y11752D01*
X17462Y12370D01*
X17607Y13100D01*
X17462Y13830D01*
X17048Y14448D01*
X16430Y14862D01*
X15700Y15007D01*
D02*
G37*
G36*
X49902Y30942D02*
X49172Y30797D01*
X48553Y30384D01*
X48140Y29765D01*
X47995Y29035D01*
X48140Y28306D01*
X48553Y27687D01*
X49172Y27274D01*
X49902Y27129D01*
X50631Y27274D01*
X51250Y27687D01*
X51663Y28306D01*
X51808Y29035D01*
X51663Y29765D01*
X51250Y30384D01*
X50631Y30797D01*
X49902Y30942D01*
D02*
G37*
G36*
X73741Y28647D02*
X73050Y28510D01*
X72517Y28154D01*
X63816D01*
X63432Y28410D01*
X62741Y28547D01*
X62050Y28410D01*
X61464Y28018D01*
X61072Y27432D01*
X60935Y26741D01*
X61072Y26050D01*
X61464Y25464D01*
X62050Y25072D01*
X62741Y24935D01*
X63432Y25072D01*
X64018Y25464D01*
X64061Y25528D01*
X72517D01*
X73050Y25172D01*
X73741Y25035D01*
X74432Y25172D01*
X75018Y25564D01*
X75410Y26150D01*
X75547Y26841D01*
X75410Y27532D01*
X75018Y28118D01*
X74432Y28510D01*
X73741Y28647D01*
D02*
G37*
G36*
X44800Y37307D02*
X44070Y37162D01*
X43452Y36748D01*
X43038Y36130D01*
X42893Y35400D01*
X43038Y34670D01*
X43452Y34052D01*
X43545Y33989D01*
X43238Y33530D01*
X43093Y32800D01*
X43238Y32070D01*
X43652Y31452D01*
Y31452D01*
X43652D01*
X43714Y31141D01*
X43438Y30730D01*
X43293Y30000D01*
X43438Y29270D01*
X43852Y28652D01*
X44470Y28238D01*
X45200Y28093D01*
X45930Y28238D01*
X46548Y28652D01*
X46962Y29270D01*
X47107Y30000D01*
X46962Y30730D01*
X46548Y31348D01*
X46362Y31473D01*
X46762Y32070D01*
X46907Y32800D01*
X46762Y33530D01*
X46348Y34148D01*
X46255Y34211D01*
X46562Y34670D01*
X46707Y35400D01*
X46562Y36130D01*
X46148Y36748D01*
X45530Y37162D01*
X44800Y37307D01*
D02*
G37*
G36*
X55000Y112306D02*
X54386Y112183D01*
X53865Y111835D01*
X53517Y111314D01*
X53394Y110700D01*
X53517Y110085D01*
X53865Y109565D01*
X54386Y109217D01*
X55000Y109094D01*
X55615Y109217D01*
X56135Y109565D01*
X56483Y110085D01*
X56606Y110700D01*
X56483Y111314D01*
X56135Y111835D01*
X55615Y112183D01*
X55000Y112306D01*
D02*
G37*
G36*
X14173Y101803D02*
X13559Y101680D01*
X13038Y101332D01*
X12690Y100811D01*
X12568Y100197D01*
X12690Y99582D01*
X13038Y99062D01*
X13559Y98713D01*
X14173Y98591D01*
X14788Y98713D01*
X15309Y99062D01*
X15657Y99582D01*
X15779Y100197D01*
X15657Y100811D01*
X15309Y101332D01*
X14788Y101680D01*
X14173Y101803D01*
D02*
G37*
G36*
X105200Y116206D02*
X104586Y116083D01*
X104065Y115735D01*
X103717Y115215D01*
X103594Y114600D01*
X103717Y113986D01*
X104065Y113465D01*
X104586Y113117D01*
X105200Y112994D01*
X105815Y113117D01*
X106335Y113465D01*
X106683Y113986D01*
X106806Y114600D01*
X106683Y115215D01*
X106335Y115735D01*
X105815Y116083D01*
X105200Y116206D01*
D02*
G37*
G36*
X106800Y129906D02*
X106185Y129783D01*
X105665Y129435D01*
X105317Y128914D01*
X105194Y128300D01*
X105317Y127685D01*
X105665Y127165D01*
X106185Y126817D01*
X106800Y126694D01*
X107414Y126817D01*
X107935Y127165D01*
X108283Y127685D01*
X108406Y128300D01*
X108283Y128914D01*
X107935Y129435D01*
X107414Y129783D01*
X106800Y129906D01*
D02*
G37*
G36*
X67913Y117551D02*
X67299Y117429D01*
X66778Y117080D01*
X66430Y116560D01*
X66308Y115945D01*
X66430Y115331D01*
X66778Y114810D01*
X67299Y114462D01*
X67913Y114339D01*
X68528Y114462D01*
X69049Y114810D01*
X69397Y115331D01*
X69519Y115945D01*
X69397Y116560D01*
X69049Y117080D01*
X68528Y117429D01*
X67913Y117551D01*
D02*
G37*
G36*
X122047Y88029D02*
X121318Y87884D01*
X120699Y87470D01*
X120630Y87366D01*
X117022D01*
X116546Y87272D01*
X116142Y87002D01*
X113785Y84645D01*
X113516Y84242D01*
X113421Y83765D01*
Y65296D01*
X113317Y65226D01*
X112904Y64608D01*
X112759Y63878D01*
X112904Y63148D01*
X113317Y62530D01*
X113936Y62116D01*
X114665Y61971D01*
X115395Y62116D01*
X116014Y62530D01*
X116427Y63148D01*
X116572Y63878D01*
X116427Y64608D01*
X116014Y65226D01*
X115910Y65296D01*
Y83250D01*
X117537Y84878D01*
X120630D01*
X120699Y84774D01*
X121318Y84360D01*
X122047Y84215D01*
X122777Y84360D01*
X123396Y84774D01*
X123809Y85392D01*
X123954Y86122D01*
X123809Y86852D01*
X123396Y87470D01*
X122777Y87884D01*
X122047Y88029D01*
D02*
G37*
G36*
X28150Y81434D02*
X27420Y81289D01*
X26801Y80876D01*
X26388Y80257D01*
X26243Y79528D01*
X26388Y78798D01*
X26801Y78179D01*
X27420Y77766D01*
X28150Y77621D01*
X28879Y77766D01*
X29498Y78179D01*
X29911Y78798D01*
X30056Y79528D01*
X29911Y80257D01*
X29498Y80876D01*
X28879Y81289D01*
X28150Y81434D01*
D02*
G37*
G36*
X94291Y93639D02*
X93562Y93494D01*
X92943Y93081D01*
X92530Y92462D01*
X92385Y91732D01*
X92530Y91003D01*
X92943Y90384D01*
X93562Y89971D01*
X93582Y89967D01*
X93774Y89505D01*
X93711Y89411D01*
X93566Y88681D01*
X93711Y87951D01*
X94031Y87473D01*
X93933Y86982D01*
X93927Y86978D01*
X93514Y86360D01*
X93369Y85630D01*
X93514Y84900D01*
X93805Y84464D01*
X93528Y84048D01*
X92815Y84190D01*
X92085Y84045D01*
X91467Y83632D01*
X91053Y83013D01*
X90908Y82284D01*
X91053Y81554D01*
X91467Y80935D01*
X92085Y80522D01*
X92815Y80377D01*
X93545Y80522D01*
X94163Y80935D01*
X94577Y81554D01*
X94722Y82284D01*
X94577Y83013D01*
X94285Y83449D01*
X94563Y83865D01*
X95276Y83723D01*
X96005Y83868D01*
X96624Y84282D01*
X97037Y84900D01*
X97182Y85630D01*
X97037Y86360D01*
X96624Y86978D01*
Y87201D01*
X96821Y87333D01*
X97234Y87951D01*
X97379Y88681D01*
X97290Y89132D01*
X97751Y89323D01*
X97766Y89301D01*
X98384Y88888D01*
X99114Y88743D01*
X99844Y88888D01*
X100462Y89301D01*
X100876Y89920D01*
X101021Y90650D01*
X100876Y91379D01*
X100462Y91998D01*
X99844Y92411D01*
X99114Y92556D01*
X98384Y92411D01*
X97766Y91998D01*
X97353Y91379D01*
X97207Y90650D01*
X97297Y90199D01*
X96835Y90008D01*
X96821Y90029D01*
X96202Y90443D01*
X96181Y90447D01*
X95990Y90909D01*
X96053Y91003D01*
X96198Y91732D01*
X96053Y92462D01*
X95640Y93081D01*
X95021Y93494D01*
X94291Y93639D01*
D02*
G37*
G36*
X32087Y102104D02*
X31357Y101958D01*
X30738Y101545D01*
X30325Y100926D01*
X30180Y100197D01*
X30325Y99467D01*
X30738Y98849D01*
X31357Y98435D01*
X32087Y98290D01*
X32816Y98435D01*
X33435Y98849D01*
X33848Y99467D01*
X33993Y100197D01*
X33848Y100926D01*
X33435Y101545D01*
X32816Y101958D01*
X32087Y102104D01*
D02*
G37*
G36*
X16634Y91960D02*
X16019Y91838D01*
X15498Y91490D01*
X15150Y90969D01*
X15028Y90354D01*
X15150Y89740D01*
X15498Y89219D01*
X16019Y88871D01*
X16634Y88749D01*
X17248Y88871D01*
X17769Y89219D01*
X18117Y89740D01*
X18239Y90354D01*
X18117Y90969D01*
X17769Y91490D01*
X17248Y91838D01*
X16634Y91960D01*
D02*
G37*
%LPD*%
D12*
X29528Y68110D02*
X34338Y63300D01*
X32096Y61900D02*
X83176D01*
X34338Y63300D02*
X84338D01*
X83176Y61900D02*
X86268Y58808D01*
X84338Y63300D02*
X86417Y61221D01*
X87996Y75102D02*
X95764D01*
X115650Y55216D02*
X120374D01*
X143100Y63200D02*
Y91700D01*
X136400Y98400D02*
X143100Y91700D01*
X118960Y101443D02*
X122003Y98400D01*
X136400D01*
X28248Y65748D02*
X32096Y61900D01*
X95764Y75102D02*
X115650Y55216D01*
X86268Y58808D02*
X87941D01*
X0Y0D02*
Y194587D01*
Y0D02*
X147638D01*
X0Y194587D02*
X147638D01*
Y0D02*
Y194587D01*
D13*
X21700Y50700D02*
X24500D01*
X21500D02*
X21700D01*
Y53100D01*
Y50500D02*
Y50700D01*
X21500D02*
Y53100D01*
X21700D01*
X31102Y14961D02*
Y45472D01*
X63041Y26841D02*
X73741D01*
X44700Y81500D02*
X51700D01*
Y66500D02*
Y81500D01*
X44700Y66500D02*
X51700D01*
X44700D02*
Y81500D01*
X95811Y67260D02*
Y82260D01*
X102811D01*
Y67260D02*
Y82260D01*
X95811Y67260D02*
X102811D01*
X34189Y104583D02*
X49189D01*
Y97583D02*
Y104583D01*
X34189Y97583D02*
X49189D01*
X34189D02*
Y104583D01*
D50*
X16339Y56201D02*
X23900Y63762D01*
X22480Y64124D02*
Y81780D01*
X14429Y56073D02*
X22480Y64124D01*
X23900Y80500D02*
X27147Y83746D01*
X23900Y63762D02*
Y80500D01*
X14429Y41476D02*
Y56073D01*
X114665Y63878D02*
Y83765D01*
X80866Y72874D02*
X81398Y72342D01*
X80866Y72874D02*
Y79634D01*
X83169Y79232D02*
Y82231D01*
X140960Y59743D02*
Y89240D01*
X115860Y93540D02*
Y95943D01*
X138200Y92000D02*
X140960Y89240D01*
X117400Y92000D02*
X138200D01*
X115860Y93540D02*
X117400Y92000D01*
X114665Y83765D02*
X117022Y86122D01*
X122047D01*
X94500Y22100D02*
X124800D01*
X127200Y24500D01*
Y28800D01*
X126900Y29100D02*
X127200Y28800D01*
X91000Y18600D02*
X94500Y22100D01*
X91000Y18400D02*
Y18600D01*
X16339Y47343D02*
Y56201D01*
X26100Y85400D02*
X80000D01*
X22480Y81780D02*
X26100Y85400D01*
X80000D02*
X83169Y82231D01*
X14429Y41476D02*
X15748Y40157D01*
X27147Y83746D02*
X76753D01*
X80866Y79634D01*
D51*
X7283Y65945D02*
X17028D01*
X85335Y73425D02*
X85394Y73484D01*
X79900Y88100D02*
X85394Y82606D01*
X51073Y88100D02*
X79900D01*
X47736Y91437D02*
X51073Y88100D01*
X128667Y44400D02*
X144580D01*
X124867Y40600D02*
X128667Y44400D01*
X139400Y48013D02*
X139487D01*
X144580Y44400D02*
X146942Y46761D01*
X135200Y70100D02*
X137100D01*
X139258Y68072D02*
X139385Y68200D01*
X136872Y68072D02*
X139258D01*
X135896Y67096D02*
X136872Y68072D01*
X134400Y50600D02*
Y69300D01*
X146942Y46761D02*
Y71100D01*
X85394Y73484D02*
Y82606D01*
X5315Y57480D02*
X6299Y56496D01*
X5315Y57480D02*
Y63976D01*
X7283Y65945D01*
X85224Y39679D02*
Y39924D01*
X85900Y40600D01*
X82100Y36800D02*
X82346D01*
X85224Y39679D01*
X82200Y33800D02*
X82246D01*
X87550Y39104D01*
X84700Y32700D02*
X89608Y37608D01*
X125487Y39104D02*
X129283Y42900D01*
X126106Y37608D02*
X129398Y40900D01*
X131000D01*
X129283Y42900D02*
X136800D01*
X134400Y69300D02*
X135200Y70100D01*
X134400Y50600D02*
X137000Y48000D01*
X139200D01*
X136896Y51100D02*
X140206D01*
X135896Y52100D02*
X136896Y51100D01*
X135896Y52100D02*
Y67096D01*
X85900Y40600D02*
X124867D01*
X87550Y39104D02*
X125487D01*
X89608Y37608D02*
X126106D01*
X6299Y56496D02*
X8957D01*
D52*
X128028Y45942D02*
X143942D01*
X124587Y42500D02*
X128028Y45942D01*
X144681Y72400D02*
X145400Y71681D01*
Y47400D02*
Y71681D01*
X143942Y45942D02*
X145400Y47400D01*
X83200Y41200D02*
X84000D01*
X85300Y42500D01*
X124587D01*
D88*
X29000Y53800D02*
D03*
X23917Y60039D02*
D03*
X28053Y65554D02*
D03*
X9547Y49311D02*
D03*
Y46063D02*
D03*
X17028Y65945D02*
D03*
X16339Y47343D02*
D03*
X87996Y75102D02*
D03*
X120276Y55216D02*
D03*
X114665Y63878D02*
D03*
X47638Y91634D02*
D03*
X143100Y63200D02*
D03*
X115860Y95943D02*
D03*
X140960Y59743D02*
D03*
X48602Y25335D02*
D03*
X118960Y101443D02*
D03*
X83000Y40600D02*
D03*
X118110Y75780D02*
D03*
Y72631D02*
D03*
X121457D02*
D03*
Y75780D02*
D03*
X124705D02*
D03*
Y72631D02*
D03*
X122047Y86122D02*
D03*
X81398Y72342D02*
D03*
X83169Y79232D02*
D03*
X15846Y40256D02*
D03*
X31102Y45472D02*
D03*
X30900Y15000D02*
D03*
X16339Y36713D02*
D03*
X28346Y41535D02*
D03*
X11220Y27461D02*
D03*
X14272Y27067D02*
D03*
X5512Y79134D02*
D03*
X18504Y79724D02*
D03*
X82100Y36800D02*
D03*
X82200Y33800D02*
D03*
X84700Y32700D02*
D03*
X29528Y68110D02*
D03*
X8858Y56595D02*
D03*
D89*
X83900Y100300D02*
D03*
X58150Y108421D02*
D03*
X51550Y109121D02*
D03*
X84000Y106600D02*
D03*
X83900Y110172D02*
D03*
Y114700D02*
D03*
X48100Y108900D02*
D03*
X88760Y127081D02*
D03*
X93287D02*
D03*
X75177D02*
D03*
X79705D02*
D03*
X84232D02*
D03*
X97815D02*
D03*
X102343D02*
D03*
X103080Y118200D02*
D03*
X98880Y118300D02*
D03*
X96080Y116700D02*
D03*
X92728Y118700D02*
D03*
X88200D02*
D03*
X86400Y116700D02*
D03*
X86417Y61221D02*
D03*
X85335Y73425D02*
D03*
X20178Y129524D02*
D03*
Y125424D02*
D03*
X11700Y127900D02*
D03*
X11805Y123440D02*
D03*
X12495Y118965D02*
D03*
X14542Y114927D02*
D03*
X17743Y111725D02*
D03*
X21780Y109675D02*
D03*
X26253Y108975D02*
D03*
X30780Y108977D02*
D03*
X35308D02*
D03*
X39836D02*
D03*
X44363D02*
D03*
X42035Y117342D02*
D03*
X37507D02*
D03*
X32980D02*
D03*
X28452D02*
D03*
X23946Y117778D02*
D03*
X20691Y120925D02*
D03*
X127200Y129800D02*
D03*
X135878Y129824D02*
D03*
X127300Y126000D02*
D03*
X125945Y123142D02*
D03*
X121417D02*
D03*
X111954Y115078D02*
D03*
X116472Y114777D02*
D03*
X121000D02*
D03*
X125527D02*
D03*
X130045Y115078D02*
D03*
X133976Y117324D02*
D03*
X135733Y121496D02*
D03*
X135778Y126024D02*
D03*
X88090Y58957D02*
D03*
X127600Y48700D02*
D03*
X21700Y50500D02*
D03*
X24500Y50700D02*
D03*
X100845Y190629D02*
D03*
X98674Y183022D02*
D03*
X89657Y182493D02*
D03*
X87982Y178287D02*
D03*
Y173759D02*
D03*
Y169231D02*
D03*
Y164704D02*
D03*
Y160176D02*
D03*
Y155649D02*
D03*
X88714Y151181D02*
D03*
X92196Y148287D02*
D03*
X96714Y147983D02*
D03*
X101241D02*
D03*
X105768Y147940D02*
D03*
X110179Y146917D02*
D03*
X114000Y144489D02*
D03*
X116801Y140931D02*
D03*
X118235Y136637D02*
D03*
X118404Y132112D02*
D03*
X118378Y127585D02*
D03*
X110040Y131237D02*
D03*
X109879Y135761D02*
D03*
X106954Y139217D02*
D03*
X102444Y139618D02*
D03*
X97917D02*
D03*
X93389Y139644D02*
D03*
X88953Y140548D02*
D03*
X85018Y142788D02*
D03*
X81975Y146140D02*
D03*
X80127Y150274D02*
D03*
X79618Y154772D02*
D03*
Y159300D02*
D03*
Y163827D02*
D03*
Y168355D02*
D03*
Y172882D02*
D03*
Y177410D02*
D03*
X79881Y181930D02*
D03*
X81648Y186099D02*
D03*
X84814Y189335D02*
D03*
X88954Y191169D02*
D03*
X42445Y189073D02*
D03*
X46829Y187942D02*
D03*
X50253Y184979D02*
D03*
X51941Y180778D02*
D03*
X52060Y176252D02*
D03*
Y171724D02*
D03*
Y167197D02*
D03*
Y162669D02*
D03*
Y158142D02*
D03*
Y153614D02*
D03*
Y149087D02*
D03*
Y144559D02*
D03*
Y140032D02*
D03*
Y135504D02*
D03*
Y130976D02*
D03*
Y126449D02*
D03*
X43622Y119521D02*
D03*
X43696Y124048D02*
D03*
Y128576D02*
D03*
Y133103D02*
D03*
Y137631D02*
D03*
Y142158D02*
D03*
Y146686D02*
D03*
Y151213D02*
D03*
Y155741D02*
D03*
Y160268D02*
D03*
Y164796D02*
D03*
Y169324D02*
D03*
Y173851D02*
D03*
Y178379D02*
D03*
X39819Y180718D02*
D03*
X35354Y181471D02*
D03*
X37500Y189078D02*
D03*
X73741Y26841D02*
D03*
X62741Y26741D02*
D03*
X83241Y12641D02*
D03*
X82941Y8741D02*
D03*
X75841Y13341D02*
D03*
X75641Y8641D02*
D03*
X67241Y13441D02*
D03*
Y8941D02*
D03*
X53841Y13141D02*
D03*
X53741Y8541D02*
D03*
X60041Y13041D02*
D03*
X59641Y8541D02*
D03*
X56800Y21900D02*
D03*
X56741Y18841D02*
D03*
X59541Y21841D02*
D03*
X59600Y18800D02*
D03*
X62441Y21841D02*
D03*
D90*
X4000Y103700D02*
D03*
X133400Y113500D02*
D03*
X133000Y111200D02*
D03*
X133400Y108800D02*
D03*
X134300Y106800D02*
D03*
X136000Y105100D02*
D03*
X138100Y103800D02*
D03*
X140600Y103500D02*
D03*
X6600Y103700D02*
D03*
X9100Y104000D02*
D03*
X11200Y105300D02*
D03*
X12900Y107000D02*
D03*
X13800Y109000D02*
D03*
X14200Y111400D02*
D03*
X18012Y91929D02*
D03*
X136581Y43000D02*
D03*
X146981Y71100D02*
D03*
X139487Y48013D02*
D03*
X144681Y72400D02*
D03*
X136100Y80532D02*
D03*
Y82500D02*
D03*
X134132D02*
D03*
Y80532D02*
D03*
X127800Y80700D02*
D03*
X130194Y82500D02*
D03*
X129921Y80709D02*
D03*
X132200Y80500D02*
D03*
X132163Y82500D02*
D03*
X67948Y1100D02*
D03*
X72476D02*
D03*
X77003D02*
D03*
X81531D02*
D03*
X68221Y2900D02*
D03*
X72748D02*
D03*
X77276D02*
D03*
X40783Y1100D02*
D03*
X45310D02*
D03*
X49838D02*
D03*
X54365D02*
D03*
X58893D02*
D03*
X63420D02*
D03*
X41055Y2900D02*
D03*
X54638D02*
D03*
X59165D02*
D03*
X63693D02*
D03*
X106500Y166583D02*
D03*
X36528Y2900D02*
D03*
X32000D02*
D03*
X27472D02*
D03*
X22945D02*
D03*
X18417D02*
D03*
X13890D02*
D03*
X36255Y1100D02*
D03*
X31728D02*
D03*
X27200D02*
D03*
X22672D02*
D03*
X18145D02*
D03*
X13617D02*
D03*
X106500Y175638D02*
D03*
Y171110D02*
D03*
Y162055D02*
D03*
Y157528D02*
D03*
Y153000D02*
D03*
X107000Y150700D02*
D03*
X109400Y150200D02*
D03*
X112300Y150100D02*
D03*
X116235Y150200D02*
D03*
X120762D02*
D03*
X125290D02*
D03*
X129817D02*
D03*
X134345D02*
D03*
X138872D02*
D03*
X143800Y131062D02*
D03*
Y126535D02*
D03*
Y122007D02*
D03*
Y117480D02*
D03*
X146100Y130790D02*
D03*
Y126262D02*
D03*
Y121735D02*
D03*
Y117207D02*
D03*
Y135317D02*
D03*
Y139845D02*
D03*
Y144372D02*
D03*
Y148900D02*
D03*
X143800Y135590D02*
D03*
Y140117D02*
D03*
Y144645D02*
D03*
X143400Y150200D02*
D03*
X106600Y193000D02*
D03*
X103600D02*
D03*
X99941D02*
D03*
X95413D02*
D03*
X90886D02*
D03*
X86358D02*
D03*
X81831D02*
D03*
X77303D02*
D03*
X72776D02*
D03*
X68248D02*
D03*
X63721D02*
D03*
X59193D02*
D03*
X50138D02*
D03*
X54665D02*
D03*
X45610D02*
D03*
X36555D02*
D03*
X41083D02*
D03*
X32028D02*
D03*
X27500D02*
D03*
X27300Y170700D02*
D03*
X26628Y168260D02*
D03*
X24238Y167210D02*
D03*
X19710D02*
D03*
X15183D02*
D03*
X10655D02*
D03*
X6128D02*
D03*
X1600D02*
D03*
Y162683D02*
D03*
Y158155D02*
D03*
Y153628D02*
D03*
Y149100D02*
D03*
Y144572D02*
D03*
Y140045D02*
D03*
Y135517D02*
D03*
Y130990D02*
D03*
Y126462D02*
D03*
Y121935D02*
D03*
Y117407D02*
D03*
X3900Y162410D02*
D03*
Y157883D02*
D03*
Y153355D02*
D03*
Y148828D02*
D03*
Y144300D02*
D03*
Y139772D02*
D03*
Y135245D02*
D03*
Y130717D02*
D03*
Y126190D02*
D03*
Y121662D02*
D03*
Y117135D02*
D03*
X11811Y91831D02*
D03*
X131081Y40900D02*
D03*
X140206Y51100D02*
D03*
D91*
X139400Y68200D02*
D03*
X137100Y70100D02*
D03*
X14075Y152166D02*
D03*
X11811Y156693D02*
D03*
X18603Y152166D02*
D03*
X16339Y156693D02*
D03*
X23130Y152166D02*
D03*
X20866Y156693D02*
D03*
X27658Y125000D02*
D03*
Y152166D02*
D03*
X25394Y156693D02*
D03*
X27658Y161221D02*
D03*
X32185Y125000D02*
D03*
X29921Y129528D02*
D03*
X32185Y134055D02*
D03*
X29921Y138583D02*
D03*
X32185Y143111D02*
D03*
X29921Y147638D02*
D03*
X32185Y152166D02*
D03*
X29921Y156693D02*
D03*
X32185Y161221D02*
D03*
X36713Y125000D02*
D03*
X34449Y129528D02*
D03*
X36713Y134055D02*
D03*
X34449Y138583D02*
D03*
X36713Y143111D02*
D03*
X34449Y147638D02*
D03*
X36713Y152166D02*
D03*
X34449Y156693D02*
D03*
X36713Y161221D02*
D03*
X34449Y165748D02*
D03*
X36713Y170276D02*
D03*
X34449Y174803D02*
D03*
X59351Y125000D02*
D03*
Y134055D02*
D03*
Y143111D02*
D03*
Y152166D02*
D03*
Y161221D02*
D03*
Y170276D02*
D03*
Y179331D02*
D03*
X63878Y134055D02*
D03*
X61614Y138583D02*
D03*
X63878Y143111D02*
D03*
X61614Y147638D02*
D03*
X63878Y152166D02*
D03*
X61614Y156693D02*
D03*
X63878Y161221D02*
D03*
X61614Y165748D02*
D03*
X63878Y170276D02*
D03*
X61614Y174803D02*
D03*
X63878Y179331D02*
D03*
X61614Y183859D02*
D03*
X66142Y138583D02*
D03*
X68406Y143111D02*
D03*
X66142Y147638D02*
D03*
X68406Y152166D02*
D03*
X66142Y156693D02*
D03*
X68406Y161221D02*
D03*
X66142Y165748D02*
D03*
X68406Y170276D02*
D03*
X66142Y174803D02*
D03*
X68406Y179331D02*
D03*
X66142Y183859D02*
D03*
X70670Y138583D02*
D03*
X72933Y143111D02*
D03*
X70670Y147638D02*
D03*
X72933Y152166D02*
D03*
X70670Y156693D02*
D03*
X72933Y161221D02*
D03*
X70670Y165748D02*
D03*
X72933Y170276D02*
D03*
X70670Y174803D02*
D03*
X72933Y179331D02*
D03*
X70670Y183859D02*
D03*
X77461Y134055D02*
D03*
X75197Y138583D02*
D03*
X81988Y134055D02*
D03*
X79725Y138583D02*
D03*
X86516Y134055D02*
D03*
X95571Y161221D02*
D03*
Y170276D02*
D03*
X97835Y156693D02*
D03*
X100099Y161221D02*
D03*
X97835Y165748D02*
D03*
X100099Y170276D02*
D03*
X97835Y174803D02*
D03*
X2756Y93307D02*
D03*
X14075Y143111D02*
D03*
X11811Y147638D02*
D03*
X18603Y152166D02*
D03*
X20866Y138583D02*
D03*
Y147638D02*
D03*
X23130Y152166D02*
D03*
X27658Y125000D02*
D03*
X25394Y138583D02*
D03*
X27658Y143111D02*
D03*
Y161221D02*
D03*
X32185Y125000D02*
D03*
X29921Y138583D02*
D03*
X32185Y143111D02*
D03*
Y152166D02*
D03*
Y161221D02*
D03*
X36713Y125000D02*
D03*
X34449Y129528D02*
D03*
X36713Y143111D02*
D03*
X34449Y156693D02*
D03*
X36713Y161221D02*
D03*
X34449Y165748D02*
D03*
Y174803D02*
D03*
X50296Y115945D02*
D03*
X54823D02*
D03*
X57087Y120473D02*
D03*
X59351Y143111D02*
D03*
Y170276D02*
D03*
Y179331D02*
D03*
X63878Y115945D02*
D03*
Y125000D02*
D03*
X61614Y138583D02*
D03*
Y156693D02*
D03*
Y165748D02*
D03*
Y174803D02*
D03*
X66142Y111418D02*
D03*
X68406Y125000D02*
D03*
Y134055D02*
D03*
X66142Y147638D02*
D03*
X68406Y152166D02*
D03*
X66142Y156693D02*
D03*
Y165748D02*
D03*
X68406Y170276D02*
D03*
X66142Y183859D02*
D03*
X70670Y120473D02*
D03*
Y138583D02*
D03*
X72933Y143111D02*
D03*
Y152166D02*
D03*
X70670Y165748D02*
D03*
X72933Y170276D02*
D03*
X70670Y174803D02*
D03*
X75197Y120473D02*
D03*
Y138583D02*
D03*
X79725D02*
D03*
X95571Y161221D02*
D03*
Y170276D02*
D03*
X97835Y156693D02*
D03*
X100099Y161221D02*
D03*
X97835Y165748D02*
D03*
X100099Y170276D02*
D03*
X106890Y183859D02*
D03*
X127264Y143111D02*
D03*
X129528Y138583D02*
D03*
X134055D02*
D03*
X136319Y143111D02*
D03*
X145374Y79725D02*
D03*
Y88780D02*
D03*
X14075Y134055D02*
D03*
X11811Y138583D02*
D03*
X14075Y152166D02*
D03*
X11811Y156693D02*
D03*
X16339Y138583D02*
D03*
X18603Y143111D02*
D03*
X16339Y147638D02*
D03*
Y156693D02*
D03*
X23130Y143111D02*
D03*
X20866Y156693D02*
D03*
X27658Y134055D02*
D03*
X25394Y147638D02*
D03*
X27658Y152166D02*
D03*
X25394Y156693D02*
D03*
X27658Y179331D02*
D03*
X29921Y129528D02*
D03*
X32185Y134055D02*
D03*
X29921Y147638D02*
D03*
Y156693D02*
D03*
X36713Y134055D02*
D03*
X34449Y138583D02*
D03*
Y147638D02*
D03*
X36713Y152166D02*
D03*
Y170276D02*
D03*
X59351Y115945D02*
D03*
Y125000D02*
D03*
Y134055D02*
D03*
Y152166D02*
D03*
Y161221D02*
D03*
X61614Y120473D02*
D03*
Y129528D02*
D03*
X63878Y134055D02*
D03*
Y143111D02*
D03*
X61614Y147638D02*
D03*
X63878Y152166D02*
D03*
Y161221D02*
D03*
Y170276D02*
D03*
Y179331D02*
D03*
X61614Y183859D02*
D03*
X66142Y120473D02*
D03*
Y129528D02*
D03*
Y138583D02*
D03*
X68406Y143111D02*
D03*
Y161221D02*
D03*
X66142Y174803D02*
D03*
X68406Y179331D02*
D03*
X70670Y111418D02*
D03*
X72933Y115945D02*
D03*
Y134055D02*
D03*
X70670Y147638D02*
D03*
Y156693D02*
D03*
X72933Y161221D02*
D03*
Y179331D02*
D03*
X70670Y183859D02*
D03*
X75197Y111418D02*
D03*
X77461Y115945D02*
D03*
Y134055D02*
D03*
X79725Y120473D02*
D03*
X81988Y134055D02*
D03*
X86516D02*
D03*
X97835Y174803D02*
D03*
X125000Y138583D02*
D03*
X131792Y143111D02*
D03*
X145374Y97835D02*
D03*
D92*
X140748Y111024D02*
D03*
X6791D02*
D03*
X7480Y7874D02*
D03*
D93*
X126736Y55709D02*
D03*
X107972Y45571D02*
D03*
D94*
X72224Y45424D02*
D03*
X67500D02*
D03*
X62776D02*
D03*
X72224Y40700D02*
D03*
X67500D02*
D03*
X62776D02*
D03*
X72224Y35976D02*
D03*
X67500D02*
D03*
X62776D02*
D03*
D96*
X126900Y29100D02*
D03*
X91000Y18400D02*
D03*
X110988Y65256D02*
D03*
D99*
X24500Y50700D02*
X33588D01*
X131200Y57648D02*
Y80900D01*
X33788Y50900D02*
X35180Y49508D01*
X131200Y80900D02*
X133921D01*
X127461Y49508D02*
X131264Y53311D01*
Y57584D01*
X131200Y57648D02*
X131264Y57584D01*
X35180Y49508D02*
X127461D01*
M02*
