%FSLAX25Y25*%
%MOIN*%
G70*
G01*
G75*
G04 Layer_Physical_Order=6*
G04 Layer_Color=16711680*
%ADD10C,0.01244*%
%ADD11C,0.01772*%
%ADD12C,0.00787*%
%ADD13C,0.01000*%
%ADD14C,0.01575*%
%ADD15R,0.01969X0.01969*%
%ADD16R,0.01969X0.01969*%
%ADD17R,0.19291X0.19291*%
%ADD18O,0.00984X0.02756*%
%ADD19O,0.02756X0.00984*%
%ADD20R,0.04134X0.04134*%
%ADD21R,0.04134X0.08858*%
%ADD22R,0.01083X0.00984*%
%ADD23R,0.01083X0.01969*%
%ADD24R,0.03150X0.06693*%
%ADD25R,0.07992X0.05000*%
%ADD26R,0.05512X0.04724*%
%ADD27R,0.12992X0.12992*%
%ADD28O,0.00984X0.03150*%
%ADD29O,0.03150X0.00984*%
%ADD30R,0.03937X0.01575*%
%ADD31R,0.03150X0.03543*%
%ADD32R,0.03543X0.03150*%
%ADD33C,0.00787*%
%ADD34R,0.02362X0.01969*%
%ADD35C,0.05906*%
%ADD36O,0.02559X0.00984*%
%ADD37O,0.00984X0.02559*%
%ADD38R,0.11024X0.11024*%
%ADD39R,0.03543X0.06299*%
%ADD40R,0.04921X0.07874*%
%ADD41R,0.05118X0.06693*%
%ADD42O,0.02559X0.00787*%
%ADD43O,0.00787X0.02559*%
%ADD44R,0.03307X0.04803*%
%ADD45R,0.01740X0.01378*%
%ADD46R,0.01772X0.00984*%
%ADD47R,0.02756X0.06299*%
%ADD48C,0.01264*%
%ADD49C,0.01969*%
%ADD50C,0.00866*%
%ADD51C,0.00709*%
%ADD52C,0.00800*%
%ADD53C,0.00591*%
%ADD54C,0.00669*%
%ADD55C,0.00984*%
%ADD56C,0.01181*%
%ADD57C,0.01378*%
%ADD58C,0.01410*%
%ADD59R,0.01953X0.01969*%
%ADD60R,0.02953X0.01969*%
%ADD61R,0.05906X0.04134*%
%ADD62R,0.04423X0.05873*%
%ADD63R,0.09700X0.03900*%
%ADD64R,0.06400X0.04800*%
%ADD65R,0.02400X0.02800*%
%ADD66R,0.02800X0.02400*%
%ADD67R,0.02500X0.02800*%
%ADD68R,0.15900X0.01100*%
%ADD69R,0.02589X0.09647*%
%ADD70R,0.01975X0.09510*%
%ADD71R,0.05649X0.04800*%
%ADD72R,0.18046X0.01322*%
%ADD73R,0.18000X0.02233*%
%ADD74R,0.01364X0.08514*%
%ADD75R,0.01331X0.08465*%
%ADD76R,0.22123X0.02927*%
%ADD77R,0.09823X0.14573*%
%ADD78R,0.08600X0.05500*%
%ADD79R,0.08100X0.05600*%
%ADD80R,0.03700X0.03400*%
%ADD81R,0.06197X0.04400*%
%ADD82R,0.22700X0.03200*%
%ADD83R,0.08421X0.04909*%
%ADD84R,0.01422X0.05191*%
%ADD85R,0.01545X0.00445*%
%ADD86R,0.01558X0.02675*%
%ADD87R,0.04000X0.02020*%
%ADD88C,0.02165*%
%ADD89C,0.01969*%
%ADD90C,0.01575*%
%ADD91C,0.01772*%
%ADD92C,0.11811*%
%ADD93C,0.03543*%
%ADD94C,0.02598*%
%ADD95C,0.02756*%
%ADD96C,0.02559*%
%ADD97C,0.02362*%
%ADD98C,0.02756*%
%ADD99C,0.03937*%
%ADD100R,0.04724X0.05315*%
%ADD101R,0.03937X0.01378*%
%ADD102R,0.03937X0.05709*%
%ADD103R,0.05000X0.07992*%
%ADD104R,0.09843X0.06890*%
%ADD105R,0.00906X0.03150*%
%ADD106R,0.06299X0.09843*%
%ADD107R,0.04724X0.19685*%
%ADD108R,0.06299X0.11811*%
%ADD109O,0.00591X0.01969*%
%ADD110O,0.02953X0.00984*%
%ADD111O,0.00984X0.02953*%
%ADD112R,0.07087X0.07480*%
%ADD113R,0.09055X0.07480*%
%ADD114R,0.01575X0.05512*%
G36*
X108221Y84373D02*
X108255Y84260D01*
X108278Y84145D01*
X108300Y84112D01*
X108312Y84074D01*
X108386Y83982D01*
X108452Y83884D01*
X108485Y83862D01*
X108510Y83831D01*
X108579Y83775D01*
X108614Y83757D01*
X108642Y83728D01*
X108715Y83698D01*
X108781Y83654D01*
X108820Y83647D01*
X108855Y83628D01*
X108895Y83624D01*
X108931Y83609D01*
X109033Y83588D01*
X109033Y83588D01*
X109082Y83579D01*
X109144Y83537D01*
X110852Y81830D01*
X111087Y81595D01*
X117878D01*
Y78445D01*
X113449D01*
X110958Y75954D01*
X109666Y74662D01*
X109604Y74621D01*
X109531Y74606D01*
X108705D01*
X108626D01*
X108548Y74622D01*
X107384D01*
X107307Y74606D01*
X105504D01*
X105378Y74631D01*
X102032D01*
Y74902D01*
X101933D01*
Y77721D01*
X105083D01*
X105774Y77859D01*
X106360Y78250D01*
X106752Y78836D01*
X106889Y79527D01*
X106752Y80219D01*
X106360Y80805D01*
X105774Y81196D01*
X105083Y81334D01*
X101948D01*
Y84433D01*
X107610D01*
X108221Y84373D01*
D02*
G37*
G36*
X137700Y83600D02*
Y78900D01*
X137300Y78500D01*
X137200Y78400D01*
X124800D01*
X124500Y78700D01*
Y81900D01*
X127000D01*
X129200Y84100D01*
X137200D01*
X137700Y83600D01*
D02*
G37*
G36*
X108100Y151600D02*
X147700D01*
D01*
X147700D01*
X147800Y151500D01*
Y72937D01*
X147414Y72620D01*
X146981Y72706D01*
X146601Y72630D01*
X146186Y72908D01*
X146165Y73014D01*
X145817Y73535D01*
X145296Y73883D01*
X144994Y73943D01*
X144009Y74928D01*
X143583Y75213D01*
X143081Y75313D01*
X136382D01*
Y76772D01*
X132839D01*
D01*
X132839Y76772D01*
X132839D01*
D01*
X132379Y76772D01*
Y77597D01*
X137200D01*
X137507Y77658D01*
X137768Y77832D01*
X137868Y77932D01*
X137868Y77932D01*
X138268Y78332D01*
X138442Y78593D01*
X138503Y78900D01*
Y83600D01*
X138503Y83600D01*
X138442Y83907D01*
X138268Y84168D01*
X138268Y84168D01*
X137768Y84668D01*
X137507Y84842D01*
X137204Y84902D01*
Y86516D01*
X140181D01*
Y93090D01*
X130614D01*
Y86516D01*
X133591D01*
Y84903D01*
X129200D01*
X129200Y84903D01*
X129051Y85025D01*
Y95268D01*
X128990Y95576D01*
X128816Y95836D01*
X128555Y96010D01*
X128248Y96071D01*
X121850D01*
X121637Y96029D01*
X121424Y96071D01*
X115551D01*
X115244Y96010D01*
X114983Y95836D01*
X114809Y95576D01*
X114748Y95268D01*
Y84442D01*
X114748Y84442D01*
X114809Y84135D01*
X114983Y83874D01*
X114983Y83874D01*
X115998Y82859D01*
X115807Y82397D01*
X111419D01*
X111419Y82397D01*
X109712Y84105D01*
X109646Y84149D01*
X109590Y84205D01*
X109528Y84246D01*
X109455Y84276D01*
X109451Y84279D01*
X109447Y84280D01*
X109403Y84298D01*
X109392Y84306D01*
X109392Y84306D01*
X109363Y84314D01*
X109239Y84366D01*
X109239Y84366D01*
D01*
D01*
X109190Y84376D01*
X109190D01*
X109190Y84376D01*
X109088Y84396D01*
D01*
X109061Y84418D01*
X109054Y84428D01*
X109027Y84455D01*
X109023Y84494D01*
X109020Y84505D01*
Y85236D01*
X101146D01*
Y84433D01*
Y81334D01*
X99276D01*
X98584Y81196D01*
X97998Y80805D01*
X95046Y77852D01*
X94654Y77266D01*
X94516Y76575D01*
Y69744D01*
X93862D01*
Y60177D01*
X95343D01*
Y56850D01*
X93862D01*
Y47284D01*
X100437D01*
Y56850D01*
X98956D01*
Y60177D01*
X100437D01*
Y69744D01*
X98129D01*
Y71358D01*
X98488D01*
Y72100D01*
X98944Y72404D01*
X99367Y72122D01*
X99866Y72022D01*
X104838D01*
X105845Y71015D01*
Y66492D01*
X105481Y65947D01*
X105343Y65256D01*
X105481Y64565D01*
X105872Y63979D01*
X106458Y63587D01*
X107150Y63450D01*
X110988D01*
X111679Y63587D01*
X112266Y63979D01*
X112657Y64565D01*
X112795Y65256D01*
X112657Y65947D01*
X112266Y66533D01*
X111679Y66925D01*
X110988Y67062D01*
X108454D01*
Y71555D01*
X108371Y71971D01*
X108355Y72054D01*
X108072Y72478D01*
X107142Y73407D01*
X107307Y73804D01*
X107384Y73819D01*
X107463D01*
X108469D01*
X108548D01*
X108626Y73804D01*
X109531D01*
X109609Y73819D01*
X109688D01*
X109761Y73833D01*
X109761Y73833D01*
X109761D01*
X109834Y73864D01*
X109838Y73865D01*
X109842Y73867D01*
X109887Y73886D01*
X109969Y73920D01*
X109973Y73921D01*
X109977Y73923D01*
X110050Y73953D01*
X110050Y73953D01*
X110050Y73953D01*
X110112Y73995D01*
X110168Y74051D01*
X110234Y74094D01*
X111525Y75386D01*
X111525Y75386D01*
Y75386D01*
X111987Y75195D01*
Y70100D01*
X112087Y69598D01*
X112372Y69172D01*
X114073Y67470D01*
X114073D01*
X114073Y67470D01*
X114073Y67470D01*
Y67470D01*
X114499Y67186D01*
X115002Y67086D01*
X116181D01*
Y66036D01*
X118661D01*
Y66837D01*
X119048Y67154D01*
X119390Y67086D01*
X119732Y67154D01*
X120118Y66837D01*
Y66036D01*
X126535D01*
Y67086D01*
X133520D01*
X134023Y67186D01*
X134449Y67470D01*
X134449Y67470D01*
X134449Y67470D01*
X135538Y68560D01*
X135606Y68661D01*
X136096Y68758D01*
X136447Y68524D01*
X137100Y68394D01*
X137753Y68524D01*
X138306Y68894D01*
X138676Y69447D01*
X138805Y70095D01*
X139453Y70224D01*
X140006Y70594D01*
X140302Y71036D01*
X141718D01*
X141834Y70920D01*
X141929Y70778D01*
X143059Y69648D01*
X143437Y69395D01*
X143437Y69395D01*
X143437Y69395D01*
D01*
X143437Y69395D01*
X143437Y69395D01*
X143882Y69307D01*
X146352D01*
X146798Y69395D01*
X146936Y69488D01*
X146954Y69500D01*
X146981Y69494D01*
X147414Y69580D01*
X147800Y69263D01*
Y0D01*
X0D01*
Y37348D01*
X441Y37583D01*
X845Y37313D01*
X1575Y37168D01*
X1877Y37228D01*
X2264Y36911D01*
Y36811D01*
Y35827D01*
Y32874D01*
Y30906D01*
X7776D01*
Y30977D01*
X9496D01*
X9557Y30668D01*
X9971Y30049D01*
X10589Y29636D01*
X11319Y29491D01*
X12049Y29636D01*
X12667Y30049D01*
X13081Y30668D01*
X13226Y31398D01*
X13081Y32127D01*
X12667Y32746D01*
X12049Y33159D01*
X11419Y33284D01*
X11328Y33375D01*
X11067Y33550D01*
X11013Y33818D01*
X11013D01*
X11013Y33818D01*
X11159Y34547D01*
X11013Y35277D01*
X10652Y35819D01*
X12269Y37436D01*
X12440Y37692D01*
X13882Y39134D01*
X14380Y39085D01*
X14498Y38908D01*
X15117Y38494D01*
X15353Y38447D01*
X15498Y37969D01*
X15192Y37663D01*
X14931Y37272D01*
X14839Y36811D01*
X14931Y36350D01*
X15192Y35960D01*
X15583Y35699D01*
X16043Y35607D01*
X16504Y35699D01*
X16895Y35960D01*
X17353Y36418D01*
X17815Y36226D01*
Y34843D01*
Y32874D01*
Y30906D01*
X23327D01*
Y31137D01*
X31890D01*
X32366Y31232D01*
X32770Y31502D01*
X37691Y36423D01*
X37961Y36827D01*
X38055Y37303D01*
X38055Y37303D01*
X38055Y37303D01*
Y37303D01*
Y90396D01*
X40943Y93283D01*
X55471D01*
X55551Y93186D01*
X55477Y92691D01*
X55373Y92622D01*
X55216Y92653D01*
X54525Y92515D01*
X53939Y92124D01*
X53548Y91538D01*
X53410Y90847D01*
X53548Y90155D01*
X53939Y89569D01*
X54525Y89178D01*
X55216Y89040D01*
X55631Y89123D01*
X57810Y86944D01*
X58201Y86683D01*
X58661Y86591D01*
X58662Y86591D01*
X72516D01*
Y56419D01*
X69626Y53529D01*
X69365Y53138D01*
X69273Y52678D01*
X69273Y52677D01*
X68984Y52634D01*
X68984Y52634D01*
X68984Y52634D01*
X68484Y52733D01*
X67985Y52634D01*
X67562Y52351D01*
X67438D01*
X67015Y52634D01*
X66516Y52733D01*
X66017Y52634D01*
X65593Y52351D01*
X65470D01*
X65047Y52634D01*
X64547Y52733D01*
X64048Y52634D01*
X63625Y52351D01*
X63342Y51928D01*
X63243Y51428D01*
Y49460D01*
X63342Y48961D01*
X63625Y48537D01*
X64048Y48255D01*
X64547Y48155D01*
X65047Y48255D01*
X65470Y48537D01*
X65593D01*
X66017Y48255D01*
X66516Y48155D01*
X67015Y48255D01*
X67438Y48537D01*
X67562D01*
X67985Y48255D01*
X68484Y48155D01*
X68984Y48255D01*
X69407Y48537D01*
X69530D01*
X69954Y48255D01*
X70453Y48155D01*
X70952Y48255D01*
X71375Y48537D01*
X71499D01*
X71922Y48255D01*
X72421Y48155D01*
X72921Y48255D01*
X73344Y48537D01*
X73467D01*
X73891Y48255D01*
X74390Y48155D01*
X74654Y48208D01*
X75008Y47854D01*
X74955Y47590D01*
X75055Y47091D01*
X75337Y46667D01*
Y46544D01*
X75055Y46121D01*
X74955Y45621D01*
X75055Y45122D01*
X75337Y44699D01*
Y44575D01*
X75055Y44152D01*
X74955Y43653D01*
X75055Y43154D01*
X75337Y42730D01*
X75761Y42448D01*
X76260Y42348D01*
X78228D01*
X78728Y42448D01*
X79151Y42730D01*
X79234Y42854D01*
X79731Y42903D01*
X80051Y42583D01*
X80052Y42583D01*
X80286Y42427D01*
X80442Y42322D01*
X80903Y42230D01*
X81310D01*
X81546Y41789D01*
X81238Y41330D01*
X81093Y40600D01*
X81238Y39870D01*
X81652Y39252D01*
X81840Y39126D01*
X81742Y38636D01*
X81370Y38562D01*
X80752Y38148D01*
X80338Y37530D01*
X80193Y36800D01*
X80338Y36070D01*
X80752Y35452D01*
X80752D01*
X80852Y35148D01*
X80438Y34530D01*
X80293Y33800D01*
X80438Y33070D01*
X80852Y32452D01*
X81470Y32038D01*
X82200Y31893D01*
X82925Y32037D01*
X82938Y31970D01*
X83352Y31352D01*
X83970Y30938D01*
X84700Y30793D01*
X85430Y30938D01*
X86048Y31352D01*
X86462Y31970D01*
X86607Y32700D01*
X86462Y33430D01*
X86048Y34048D01*
X85430Y34462D01*
X84700Y34607D01*
X84042Y34476D01*
X83962Y34530D01*
Y34530D01*
X83962Y34530D01*
X83548Y35148D01*
X83448Y35215D01*
Y35452D01*
X83862Y36070D01*
X84007Y36800D01*
X83862Y37530D01*
X83448Y38148D01*
X83260Y38274D01*
X83358Y38764D01*
X83730Y38838D01*
X84348Y39252D01*
X84762Y39870D01*
X84907Y40600D01*
X84762Y41330D01*
X84348Y41948D01*
X83730Y42362D01*
X83626Y42382D01*
X83586Y42583D01*
X85251Y44249D01*
X85513Y44639D01*
X85604Y45100D01*
Y52424D01*
X86045Y52659D01*
X86137Y52598D01*
X86828Y52461D01*
X87520Y52598D01*
X88106Y52990D01*
X88497Y53576D01*
X88635Y54267D01*
X88497Y54958D01*
X88106Y55544D01*
X88033Y55593D01*
Y58672D01*
X88033Y58672D01*
X87941Y59132D01*
X87680Y59523D01*
X87680Y59523D01*
X80299Y66904D01*
Y70260D01*
X80685Y70578D01*
X81398Y70436D01*
X82127Y70581D01*
X82746Y70994D01*
X83159Y71613D01*
X83304Y72342D01*
X83159Y73072D01*
X82746Y73691D01*
X82127Y74104D01*
X81953Y74139D01*
Y77266D01*
X82394Y77501D01*
X82440Y77471D01*
X83169Y77326D01*
X83899Y77471D01*
X84518Y77884D01*
X84931Y78503D01*
X85076Y79232D01*
X85052Y79355D01*
X86736Y81039D01*
X91397D01*
X91467Y80935D01*
X92085Y80522D01*
X92815Y80377D01*
X93545Y80522D01*
X94163Y80935D01*
X94577Y81554D01*
X94722Y82284D01*
X94577Y83013D01*
X94285Y83449D01*
X94563Y83865D01*
X95276Y83723D01*
X96005Y83868D01*
X96624Y84282D01*
X97037Y84900D01*
X97182Y85630D01*
X97037Y86360D01*
X96624Y86978D01*
Y87201D01*
X96821Y87333D01*
X97234Y87951D01*
X97379Y88681D01*
X97290Y89132D01*
X97751Y89323D01*
X97766Y89301D01*
X98384Y88888D01*
X99114Y88743D01*
X99844Y88888D01*
X100462Y89301D01*
X100933Y88987D01*
Y86811D01*
X100995Y86504D01*
X101146Y86278D01*
Y86024D01*
X101659D01*
X101736Y86008D01*
X108331D01*
X108408Y86024D01*
X109020D01*
Y86425D01*
X109072Y86504D01*
X109134Y86811D01*
Y93418D01*
X114986Y97437D01*
X115038Y97490D01*
X115099Y97531D01*
X115146Y97601D01*
X115205Y97662D01*
X115232Y97730D01*
X115273Y97792D01*
X115290Y97874D01*
X115321Y97953D01*
X115320Y98027D01*
X115334Y98099D01*
Y103642D01*
X115273Y103949D01*
X115099Y104209D01*
X114839Y104383D01*
X114532Y104445D01*
X95535D01*
X95228Y104383D01*
X94968Y104209D01*
X94794Y103949D01*
X94733Y103642D01*
Y98167D01*
X94747Y98094D01*
X94746Y98020D01*
X94777Y97942D01*
X94794Y97859D01*
X94835Y97798D01*
X94862Y97729D01*
X94921Y97669D01*
X94968Y97599D01*
X95029Y97558D01*
X95081Y97505D01*
X100933Y93486D01*
Y92313D01*
X100462Y91998D01*
X99844Y92411D01*
X99114Y92556D01*
X98944Y92523D01*
X96718Y94749D01*
X96327Y95010D01*
X95866Y95102D01*
X95866Y95102D01*
X90106D01*
X86856Y98352D01*
X86465Y98613D01*
X86004Y98704D01*
X86004Y98704D01*
X38388D01*
X37927Y98613D01*
X37537Y98352D01*
X37537Y98352D01*
X33637Y94451D01*
X33376Y94061D01*
X33284Y93600D01*
X33284Y93600D01*
Y61726D01*
X32822Y61534D01*
X31412Y62944D01*
X30987Y63228D01*
X30484Y63328D01*
X30393Y63548D01*
X32249Y65403D01*
X32249Y65403D01*
X32406Y65637D01*
X32510Y65794D01*
X32602Y66255D01*
Y77559D01*
X32602Y77559D01*
X32510Y78020D01*
X32249Y78411D01*
X32249Y78411D01*
X30281Y80379D01*
X29890Y80640D01*
X29619Y80694D01*
X29498Y80876D01*
X29354Y80972D01*
Y81004D01*
X29354Y81004D01*
X29262Y81465D01*
X29001Y81855D01*
X29001Y81855D01*
X28607Y82249D01*
X28217Y82510D01*
X27756Y82602D01*
X27756Y82602D01*
X27224D01*
X26870Y82955D01*
Y83169D01*
Y83169D01*
D01*
X26870Y83523D01*
X26870Y83523D01*
X26870D01*
Y83737D01*
X27953D01*
X27953Y83737D01*
X28414Y83828D01*
X28804Y84089D01*
X29343Y84628D01*
X29429Y84611D01*
X30120Y84749D01*
X30706Y85140D01*
X31098Y85726D01*
X31236Y86417D01*
X31098Y87109D01*
X30706Y87695D01*
X30120Y88086D01*
X29429Y88224D01*
X28738Y88086D01*
X28152Y87695D01*
X27760Y87109D01*
X27623Y86417D01*
X27623Y86417D01*
X27623Y86417D01*
X27454Y86145D01*
X26870D01*
Y86713D01*
X23327D01*
Y83523D01*
X23327Y83523D01*
X23327D01*
X23327Y83169D01*
Y83169D01*
X23327D01*
X23327D01*
X23327Y83169D01*
X23327D01*
D01*
Y79626D01*
X26162D01*
X26243Y79527D01*
X26388Y78798D01*
X26801Y78179D01*
X27420Y77766D01*
X28150Y77621D01*
X28879Y77766D01*
X29244Y78010D01*
X30193Y77060D01*
Y70279D01*
X29807Y69961D01*
X29528Y70017D01*
X28798Y69872D01*
X28179Y69459D01*
X27886Y69019D01*
X23327D01*
Y71260D01*
X17815D01*
Y70988D01*
X17330D01*
X16403Y71914D01*
X16012Y72176D01*
X15551Y72267D01*
X15551Y72267D01*
X15519D01*
X15423Y72411D01*
X14805Y72825D01*
X14075Y72970D01*
X13345Y72825D01*
X12727Y72411D01*
X12313Y71793D01*
X12219Y71320D01*
X11804Y71042D01*
X11516Y71100D01*
X10786Y70955D01*
X10581Y70817D01*
X10305Y71230D01*
X9686Y71644D01*
X8957Y71789D01*
X8227Y71644D01*
X7653Y71260D01*
X3034D01*
Y72839D01*
X3514Y73160D01*
X3927Y73778D01*
X4072Y74508D01*
X3927Y75238D01*
X3514Y75856D01*
X2895Y76269D01*
X2165Y76415D01*
X1436Y76269D01*
X817Y75856D01*
X478Y75349D01*
X0Y75494D01*
Y168800D01*
X25700D01*
Y194600D01*
X108100D01*
Y151600D01*
D02*
G37*
G36*
X706Y73316D02*
Y52953D01*
X795Y52507D01*
X1047Y52130D01*
X1834Y51342D01*
X2212Y51090D01*
X2264Y51080D01*
Y50591D01*
X3519D01*
X3836Y50204D01*
X3815Y50098D01*
X3836Y49993D01*
X3519Y49606D01*
X2264D01*
Y46654D01*
Y44685D01*
X3519D01*
X3836Y44298D01*
X3815Y44193D01*
X3836Y44087D01*
X3519Y43701D01*
X2584D01*
X2304Y43888D01*
X1575Y44033D01*
X845Y43888D01*
X441Y43617D01*
X0Y43853D01*
Y73521D01*
X304Y73614D01*
X706Y73316D01*
D02*
G37*
G36*
X17159Y58737D02*
X17159Y58737D01*
X17815D01*
Y56496D01*
Y54527D01*
Y52559D01*
X19070D01*
X19388Y52172D01*
X19367Y52067D01*
Y50098D01*
X19388Y49993D01*
X19070Y49606D01*
X17815D01*
Y46654D01*
Y44685D01*
X19070D01*
X19388Y44298D01*
X19367Y44193D01*
X19388Y44087D01*
X19070Y43701D01*
X17815D01*
Y41500D01*
X17264D01*
X17195Y41604D01*
X16576Y42017D01*
X15846Y42163D01*
X15117Y42017D01*
X14675Y41723D01*
X14235Y41958D01*
Y57076D01*
X14500Y57293D01*
X15230Y57438D01*
X15848Y57852D01*
X16262Y58470D01*
X16300Y58663D01*
X16698Y58828D01*
X17159Y58737D01*
D02*
G37*
G36*
X128248Y84442D02*
X126989Y83261D01*
X126780Y83064D01*
X124053D01*
X123948Y82965D01*
Y80406D01*
X122689D01*
Y83064D01*
X121850Y83851D01*
Y95268D01*
X128248D01*
Y84442D01*
D02*
G37*
G36*
X114532Y98099D02*
X108331Y93841D01*
Y86811D01*
X101736D01*
Y93908D01*
X95535Y98167D01*
Y103642D01*
X114532D01*
Y98099D01*
D02*
G37*
G36*
X121424Y83917D02*
X120079Y82572D01*
Y80308D01*
X118701D01*
Y82572D01*
X118209Y83064D01*
X116929D01*
X115551Y84442D01*
Y95268D01*
X121424D01*
Y83917D01*
D02*
G37*
%LPC*%
G36*
X108035Y53972D02*
X107344Y53834D01*
X106758Y53443D01*
X106367Y52857D01*
X106229Y52165D01*
Y45768D01*
X106367Y45076D01*
X106758Y44490D01*
X107344Y44099D01*
X108035Y43961D01*
X108727Y44099D01*
X109313Y44490D01*
X109704Y45076D01*
X109842Y45768D01*
Y52165D01*
X109704Y52857D01*
X109313Y53443D01*
X108727Y53834D01*
X108035Y53972D01*
D02*
G37*
G36*
X10728Y29059D02*
X10728Y29059D01*
X6890D01*
X6429Y28967D01*
X6038Y28706D01*
X5777Y28315D01*
X5686Y27854D01*
X5777Y27393D01*
X6038Y27003D01*
X6429Y26742D01*
X6890Y26650D01*
X10229D01*
X10369Y26511D01*
X10760Y26250D01*
X11220Y26158D01*
X11681Y26250D01*
X12072Y26511D01*
X12333Y26901D01*
X12425Y27362D01*
X12333Y27823D01*
X12072Y28214D01*
X11580Y28706D01*
X11189Y28967D01*
X10728Y29059D01*
D02*
G37*
G36*
X18701Y29059D02*
X15157D01*
X14697Y28967D01*
X14306Y28706D01*
X14306Y28706D01*
X13420Y27820D01*
X13159Y27429D01*
X13067Y26969D01*
X13159Y26508D01*
X13420Y26117D01*
X13811Y25856D01*
X14272Y25764D01*
X14732Y25856D01*
X15123Y26117D01*
X15656Y26650D01*
X18701D01*
X19162Y26742D01*
X19552Y27003D01*
X19813Y27393D01*
X19905Y27854D01*
X19813Y28315D01*
X19552Y28706D01*
X19162Y28967D01*
X18701Y29059D01*
D02*
G37*
G36*
X78228Y41020D02*
X76260D01*
X75761Y40921D01*
X75337Y40638D01*
X75055Y40215D01*
X74955Y39716D01*
X75055Y39217D01*
X75337Y38793D01*
Y38670D01*
X75055Y38247D01*
X74955Y37747D01*
X75055Y37248D01*
X75337Y36825D01*
Y36701D01*
X75055Y36278D01*
X74955Y35779D01*
X75055Y35280D01*
X75337Y34856D01*
Y34733D01*
X75055Y34310D01*
X74955Y33810D01*
X75008Y33546D01*
X74654Y33192D01*
X74390Y33245D01*
X73891Y33145D01*
X73467Y32863D01*
X73344D01*
X72921Y33145D01*
X72421Y33245D01*
X71922Y33145D01*
X71499Y32863D01*
X71375D01*
X70952Y33145D01*
X70453Y33245D01*
X69954Y33145D01*
X69530Y32863D01*
X69407D01*
X68984Y33145D01*
X68484Y33245D01*
X67985Y33145D01*
X67562Y32863D01*
X67438D01*
X67015Y33145D01*
X66516Y33245D01*
X66017Y33145D01*
X65593Y32863D01*
X65470D01*
X65047Y33145D01*
X64547Y33245D01*
X64048Y33145D01*
X63625Y32863D01*
X63501D01*
X63078Y33145D01*
X62579Y33245D01*
X62080Y33145D01*
X61656Y32863D01*
X61533D01*
X61110Y33145D01*
X60610Y33245D01*
X60111Y33145D01*
X59688Y32863D01*
X59405Y32439D01*
X59371Y32269D01*
X59156D01*
X58654Y32169D01*
X58228Y31884D01*
X56656Y30313D01*
X51297D01*
X51250Y30384D01*
X50631Y30797D01*
X49902Y30942D01*
X49172Y30797D01*
X48553Y30384D01*
X48140Y29765D01*
X47995Y29035D01*
X48140Y28306D01*
X48553Y27687D01*
X48724Y27573D01*
X48773Y27076D01*
X47749Y26052D01*
X47487Y25661D01*
X47396Y25200D01*
X47487Y24739D01*
X47749Y24349D01*
X48139Y24087D01*
X48600Y23996D01*
X49061Y24087D01*
X49452Y24349D01*
X50199Y25096D01*
X52021D01*
X52481Y25187D01*
X52872Y25449D01*
X53133Y25839D01*
X53225Y26300D01*
X53133Y26761D01*
X52872Y27152D01*
X52481Y27413D01*
X52021Y27504D01*
X52204Y27687D01*
X53792D01*
Y24528D01*
X57335D01*
Y27714D01*
X57702Y27787D01*
X58128Y28072D01*
X59176Y29120D01*
X59674Y29070D01*
X59688Y29049D01*
X60111Y28766D01*
X60610Y28667D01*
X60880Y28721D01*
X61266Y28403D01*
Y27723D01*
X61072Y27432D01*
X60935Y26741D01*
X61072Y26050D01*
X61464Y25464D01*
X62050Y25072D01*
X62741Y24935D01*
X63432Y25072D01*
X64018Y25464D01*
X64212Y25754D01*
X64702Y25851D01*
X65098Y25587D01*
X65600Y25487D01*
X67048D01*
Y18757D01*
X74697D01*
Y18000D01*
X74697Y18000D01*
X74758Y17693D01*
X74932Y17432D01*
X74932Y17432D01*
X75332Y17032D01*
X75593Y16858D01*
X75900Y16797D01*
X85900D01*
X86207Y16858D01*
X86468Y17032D01*
X86468Y17032D01*
X86668Y17232D01*
X86842Y17493D01*
X86903Y17800D01*
Y27900D01*
X86842Y28207D01*
X86668Y28468D01*
X86568Y28568D01*
X86307Y28742D01*
X86000Y28803D01*
X80000D01*
X80000Y28803D01*
X79693Y28742D01*
X79432Y28568D01*
X76767Y25903D01*
X75779D01*
X75725Y25939D01*
X75438Y26289D01*
X75547Y26841D01*
X75410Y27532D01*
X75018Y28118D01*
X74432Y28510D01*
X74361Y28524D01*
X74390Y28667D01*
X74889Y28766D01*
X75312Y29049D01*
X75595Y29472D01*
X75694Y29972D01*
Y31940D01*
X75642Y32205D01*
X75995Y32558D01*
X76260Y32506D01*
X78228D01*
X78728Y32605D01*
X79151Y32888D01*
X79434Y33311D01*
X79533Y33810D01*
X79434Y34310D01*
X79151Y34733D01*
Y34856D01*
X79434Y35280D01*
X79533Y35779D01*
X79434Y36278D01*
X79151Y36701D01*
Y36825D01*
X79434Y37248D01*
X79533Y37747D01*
X79434Y38247D01*
X79151Y38670D01*
Y38793D01*
X79434Y39217D01*
X79533Y39716D01*
X79434Y40215D01*
X79151Y40638D01*
X78728Y40921D01*
X78228Y41020D01*
D02*
G37*
G36*
X138100Y67606D02*
X137447Y67476D01*
X136894Y67106D01*
X136524Y66553D01*
X136394Y65900D01*
X136524Y65247D01*
X136659Y65045D01*
X136423Y64604D01*
X120200D01*
X119739Y64513D01*
X119349Y64252D01*
X118046Y62949D01*
X117785Y62559D01*
X117693Y62098D01*
X117693Y62098D01*
Y61385D01*
X117549Y61289D01*
X117136Y60671D01*
X116991Y59941D01*
X117136Y59211D01*
X117549Y58593D01*
X118168Y58179D01*
X118898Y58034D01*
X119627Y58179D01*
X120246Y58593D01*
X120373Y58783D01*
X120863Y58685D01*
X120876Y58621D01*
X121290Y58002D01*
X121603Y57793D01*
X121458Y57314D01*
X119013D01*
X118398Y57192D01*
X117877Y56844D01*
X117529Y56323D01*
X117407Y55709D01*
X117529Y55094D01*
X117877Y54573D01*
X118398Y54225D01*
X119013Y54103D01*
X126736D01*
X127351Y54225D01*
X127872Y54573D01*
X128220Y55094D01*
X128342Y55709D01*
X128220Y56323D01*
X127872Y56844D01*
X127351Y57192D01*
X126736Y57314D01*
X123818D01*
X123673Y57793D01*
X123986Y58002D01*
X124082Y58146D01*
X139984D01*
X140230Y57982D01*
X140960Y57837D01*
X141690Y57982D01*
X142308Y58395D01*
X142721Y59014D01*
X142867Y59743D01*
X142721Y60473D01*
X142394Y60963D01*
X142672Y61378D01*
X143100Y61293D01*
X143774Y61427D01*
X144160Y61110D01*
Y24207D01*
X126918Y6964D01*
X112250D01*
Y27530D01*
X111508D01*
Y30267D01*
X111340Y31112D01*
X110861Y31828D01*
X109094Y33596D01*
X109088Y33641D01*
X108830Y34263D01*
X108420Y34798D01*
X107907Y35191D01*
Y36751D01*
X108244Y37087D01*
X116200D01*
X116702Y37187D01*
X117128Y37472D01*
X117128Y37472D01*
X117128Y37472D01*
X118904Y39248D01*
X119189Y39674D01*
X119289Y40176D01*
Y42185D01*
X122760D01*
Y48760D01*
X113193D01*
Y42185D01*
X116664D01*
Y40720D01*
X115656Y39713D01*
X107700D01*
X107198Y39613D01*
X106772Y39328D01*
X105666Y38223D01*
X105382Y37797D01*
X105282Y37295D01*
Y35191D01*
X104769Y34798D01*
X104359Y34263D01*
X104101Y33641D01*
X104013Y32972D01*
X104101Y32304D01*
X104359Y31682D01*
X104769Y31147D01*
X105304Y30737D01*
X105926Y30479D01*
X105971Y30473D01*
X107092Y29352D01*
Y27530D01*
X105950D01*
Y6964D01*
X96589D01*
X94874Y8680D01*
X94917Y8897D01*
X94772Y9627D01*
X94358Y10245D01*
X93740Y10658D01*
X93010Y10804D01*
X92281Y10658D01*
X91662Y10245D01*
X91249Y9627D01*
X91104Y8897D01*
X91249Y8167D01*
X91662Y7549D01*
X92281Y7135D01*
X93010Y6990D01*
X93227Y7033D01*
X95284Y4977D01*
X95662Y4724D01*
X95736Y4710D01*
X96107Y4636D01*
X127400D01*
X127846Y4724D01*
X128223Y4977D01*
X146148Y22901D01*
X146400Y23279D01*
X146415Y23353D01*
X146488Y23724D01*
Y64121D01*
X146400Y64567D01*
X146148Y64944D01*
X144196Y66896D01*
X144009Y67021D01*
X143823Y67146D01*
X143821Y67147D01*
X143818Y67149D01*
X143599Y67192D01*
X143378Y67237D01*
X139078Y67259D01*
X138753Y67476D01*
X138100Y67606D01*
D02*
G37*
G36*
X58740Y46926D02*
X56772D01*
X56272Y46826D01*
X55849Y46544D01*
X55566Y46121D01*
X55467Y45621D01*
X55566Y45122D01*
X55849Y44699D01*
Y44575D01*
X55566Y44152D01*
X55467Y43653D01*
X55566Y43154D01*
X55849Y42730D01*
Y42607D01*
X55566Y42184D01*
X55467Y41684D01*
X55525Y41391D01*
X55208Y41005D01*
X52495D01*
X51996Y40905D01*
X51573Y40622D01*
X51550Y40600D01*
X51400Y40600D01*
X51400Y40600D01*
X51400Y40600D01*
X50100D01*
X50200Y40500D01*
Y37900D01*
X50492D01*
Y37697D01*
X50492D01*
Y34154D01*
X50492Y34154D01*
X50492D01*
X50529Y34086D01*
X50404Y33899D01*
X50259Y33169D01*
X50404Y32440D01*
X50817Y31821D01*
X51436Y31408D01*
X52165Y31263D01*
X52895Y31408D01*
X53514Y31821D01*
X53927Y32440D01*
X54072Y33169D01*
X53927Y33899D01*
X53912Y33922D01*
X54035Y34154D01*
X54036D01*
X54035Y34154D01*
Y34615D01*
X54527Y34712D01*
X54953Y34997D01*
X55155Y35199D01*
X55653Y35150D01*
X55849Y34856D01*
X56272Y34574D01*
X56772Y34474D01*
X58740D01*
X59239Y34574D01*
X59663Y34856D01*
X59945Y35280D01*
X60045Y35779D01*
X59945Y36278D01*
X59663Y36701D01*
Y36825D01*
X59945Y37248D01*
X60045Y37747D01*
X59945Y38247D01*
X59663Y38670D01*
X59239Y38952D01*
X59048Y38991D01*
X58961Y39201D01*
X59061Y39700D01*
X58961Y40199D01*
X59062Y40444D01*
X59239Y40479D01*
X59663Y40762D01*
X59945Y41185D01*
X60045Y41684D01*
X59945Y42184D01*
X59663Y42607D01*
Y42730D01*
X59945Y43154D01*
X60045Y43653D01*
X59945Y44152D01*
X59663Y44575D01*
Y44699D01*
X59945Y45122D01*
X60045Y45621D01*
X59945Y46121D01*
X59663Y46544D01*
X59239Y46826D01*
X58740Y46926D01*
D02*
G37*
G36*
X50562Y80059D02*
X45838D01*
Y78813D01*
X44942D01*
X44690Y79190D01*
X44006Y79647D01*
X43200Y79807D01*
X42393Y79647D01*
X41710Y79190D01*
X41253Y78506D01*
X41093Y77700D01*
X41253Y76894D01*
X41710Y76210D01*
X42393Y75753D01*
X43200Y75593D01*
X44006Y75753D01*
X44657Y76187D01*
X45838D01*
Y74941D01*
X50562D01*
Y80059D01*
D02*
G37*
G36*
X18602Y80535D02*
X18142Y80443D01*
X17751Y80182D01*
X17490Y79791D01*
X17398Y79331D01*
X17490Y78870D01*
X17496Y78860D01*
Y74409D01*
X17588Y73949D01*
X17849Y73558D01*
X18240Y73297D01*
X18701Y73205D01*
X19162Y73297D01*
X19552Y73558D01*
X19813Y73949D01*
X19905Y74409D01*
Y79232D01*
X19813Y79693D01*
X19552Y80084D01*
X19454Y80182D01*
X19063Y80443D01*
X18602Y80535D01*
D02*
G37*
G36*
X106800Y129906D02*
X106185Y129783D01*
X105665Y129435D01*
X105317Y128914D01*
X105194Y128300D01*
X105317Y127685D01*
X105665Y127165D01*
X106139Y126847D01*
Y116413D01*
X105753Y116096D01*
X105200Y116206D01*
X104586Y116083D01*
X104247Y115857D01*
X99753D01*
X99316Y115770D01*
X98944Y115522D01*
X88766Y105344D01*
X53015D01*
X52824Y105806D01*
X55809Y108791D01*
X56057Y109162D01*
X56057Y109162D01*
X56057Y109162D01*
X56138Y109568D01*
X56483Y110085D01*
X56606Y110700D01*
X56483Y111314D01*
X56135Y111835D01*
X55615Y112183D01*
X55000Y112306D01*
X54386Y112183D01*
X53865Y111835D01*
X53517Y111314D01*
X53394Y110700D01*
X53517Y110085D01*
X53657Y109875D01*
X50726Y106944D01*
X15700D01*
X15262Y106857D01*
X14891Y106609D01*
X14073Y105791D01*
X13825Y105420D01*
X13738Y104982D01*
Y103956D01*
X13526Y103744D01*
X11500D01*
X11062Y103657D01*
X10691Y103409D01*
X9979Y102696D01*
X9730Y102325D01*
X9643Y101887D01*
Y99744D01*
X9730Y99306D01*
X9730Y99306D01*
X9730Y99306D01*
X9978Y98936D01*
Y98327D01*
X10018Y98125D01*
Y97638D01*
X10102Y97215D01*
X10341Y96857D01*
X10346Y96807D01*
X10313Y96773D01*
X10065Y96402D01*
X9978Y95965D01*
Y93996D01*
X10018Y93794D01*
Y93307D01*
X10102Y92885D01*
X10341Y92527D01*
X10700Y92287D01*
X10831Y92261D01*
X10765Y91929D01*
X10853Y91491D01*
X11101Y91120D01*
X11472Y90872D01*
X11909Y90785D01*
X12335Y90870D01*
X12409Y90499D01*
X12661Y90122D01*
X13252Y89531D01*
X13629Y89279D01*
X13703Y89264D01*
X14075Y89190D01*
X15541D01*
X16019Y88871D01*
X16634Y88749D01*
X17248Y88871D01*
X17726Y89190D01*
X18996D01*
X19442Y89279D01*
X19819Y89531D01*
X20410Y90122D01*
X20662Y90499D01*
X20751Y90945D01*
Y94095D01*
X20662Y94540D01*
X20592Y94645D01*
Y94882D01*
X20508Y95304D01*
X20269Y95662D01*
X19911Y95902D01*
X19899Y95939D01*
X20297Y96337D01*
X20545Y96708D01*
X20632Y97146D01*
Y98524D01*
Y99526D01*
X21183Y100077D01*
X21431Y100448D01*
X21518Y100886D01*
Y101599D01*
X89843D01*
X90281Y101686D01*
X90652Y101934D01*
X100274Y111556D01*
X104362D01*
X104409Y111547D01*
X105991D01*
X106429Y111634D01*
X106800Y111882D01*
X108109Y113191D01*
X108357Y113562D01*
X108357Y113562D01*
X108357Y113562D01*
X108444Y114000D01*
Y115900D01*
X108428Y115983D01*
Y127816D01*
X108369Y128113D01*
X108406Y128300D01*
X108283Y128914D01*
X107935Y129435D01*
X107414Y129783D01*
X106800Y129906D01*
D02*
G37*
G36*
X67913Y117551D02*
X67299Y117429D01*
X66778Y117080D01*
X66430Y116560D01*
X66308Y115945D01*
X66430Y115331D01*
X66778Y114810D01*
X67299Y114462D01*
X67913Y114339D01*
X68528Y114462D01*
X69049Y114810D01*
X69397Y115331D01*
X69519Y115945D01*
X69397Y116560D01*
X69049Y117080D01*
X68528Y117429D01*
X67913Y117551D01*
D02*
G37*
G36*
X140206Y52706D02*
X139591Y52583D01*
X139070Y52235D01*
X138722Y51714D01*
X138600Y51100D01*
X138722Y50485D01*
X139070Y49965D01*
Y49965D01*
Y49965D01*
X139070Y49965D01*
X139070D01*
X138955Y49513D01*
X138872Y49496D01*
X138375Y49164D01*
X137700D01*
X137328Y49090D01*
X137255Y49075D01*
X136877Y48823D01*
X135758Y47704D01*
X135506Y47327D01*
X135417Y46881D01*
Y44092D01*
X135098Y43615D01*
X134976Y43000D01*
X135085Y42451D01*
X134767Y42064D01*
X132174D01*
X131696Y42383D01*
X131081Y42506D01*
X130467Y42383D01*
X129946Y42035D01*
X129598Y41515D01*
X129475Y40900D01*
X129598Y40286D01*
X129946Y39765D01*
X130467Y39417D01*
X131081Y39294D01*
X131447Y39367D01*
X131725Y38951D01*
X131703Y38919D01*
X131558Y38189D01*
X131703Y37459D01*
X132116Y36841D01*
X132735Y36427D01*
X133465Y36282D01*
X134194Y36427D01*
X134813Y36841D01*
X135226Y37459D01*
X135371Y38189D01*
X135226Y38919D01*
X134813Y39537D01*
X134873Y39736D01*
X138000D01*
X138445Y39825D01*
X138823Y40077D01*
X142239Y43493D01*
X142491Y43870D01*
X142506Y43944D01*
X142580Y44316D01*
Y49884D01*
X142491Y50330D01*
X142239Y50707D01*
X141802Y51144D01*
X141689Y51714D01*
X141341Y52235D01*
X140820Y52583D01*
X140206Y52706D01*
D02*
G37*
G36*
X60610Y52733D02*
X60111Y52634D01*
X59688Y52351D01*
X59405Y51928D01*
X59306Y51428D01*
Y49460D01*
X59405Y48961D01*
X59688Y48537D01*
X60111Y48255D01*
X60610Y48155D01*
X61110Y48255D01*
X61533Y48537D01*
X61816Y48961D01*
X61915Y49460D01*
Y51428D01*
X61816Y51928D01*
X61533Y52351D01*
X61110Y52634D01*
X60610Y52733D01*
D02*
G37*
G36*
X5413Y80436D02*
X4953Y80345D01*
X4562Y80084D01*
X4301Y79693D01*
X4209Y79232D01*
X4301Y78771D01*
X4562Y78381D01*
X5686Y77257D01*
Y74409D01*
X5777Y73949D01*
X6038Y73558D01*
X6429Y73297D01*
X6890Y73205D01*
X7351Y73297D01*
X7741Y73558D01*
X8002Y73949D01*
X8094Y74409D01*
Y77756D01*
X8094Y77756D01*
X8002Y78217D01*
X7741Y78607D01*
X7741Y78607D01*
X6265Y80084D01*
X5874Y80345D01*
X5413Y80436D01*
D02*
G37*
G36*
X50562Y72972D02*
X45838D01*
Y67854D01*
X46795D01*
Y66700D01*
X46795Y66700D01*
X46795D01*
X46902Y66162D01*
X47207Y65707D01*
X47513Y65400D01*
X47638Y64770D01*
X48052Y64152D01*
X48670Y63738D01*
X49400Y63593D01*
X50130Y63738D01*
X50748Y64152D01*
X51162Y64770D01*
X51307Y65500D01*
X51162Y66230D01*
X50748Y66848D01*
X50130Y67262D01*
X49605Y67366D01*
Y67854D01*
X50562D01*
Y72972D01*
D02*
G37*
%LPD*%
G36*
X86100Y27900D02*
Y17800D01*
X85900Y17600D01*
X75900D01*
X75500Y18000D01*
Y25100D01*
X77100D01*
X80000Y28000D01*
X86000D01*
X86100Y27900D01*
D02*
G37*
D12*
X120200Y63400D02*
X143400D01*
X23425Y46161D02*
X25984Y43602D01*
X140750Y59350D02*
X141200Y59800D01*
X27264Y50098D02*
X28937Y51772D01*
X20571Y50098D02*
X27264D01*
X15191Y61910D02*
X17159Y59941D01*
X5020Y61910D02*
X15191D01*
X1969Y40256D02*
X5020D01*
X1575Y39862D02*
X1969Y40256D01*
X1575Y39075D02*
Y39862D01*
X13681Y63779D02*
Y65158D01*
X20764Y63684D02*
X28827D01*
X11012Y39469D02*
X11969Y40425D01*
Y60492D01*
X38388Y97500D02*
X86004D01*
X89607Y93898D01*
X23819Y59941D02*
X23917Y60039D01*
X29232Y67815D02*
X29528Y68110D01*
X31398Y66255D02*
Y77559D01*
X8858Y69784D02*
X8957Y69882D01*
X122638Y59350D02*
X140750D01*
X118898Y59941D02*
Y62098D01*
X79094Y86395D02*
X80692Y87992D01*
X79094Y66405D02*
X86828Y58672D01*
X79094Y66405D02*
Y86395D01*
X14075Y71063D02*
X15551D01*
X55216Y90847D02*
X55610D01*
X57480Y92323D02*
X60433Y89370D01*
X95866Y93898D02*
X99114Y90650D01*
X89607Y93898D02*
X95866D01*
X80692Y87992D02*
X83071D01*
X86828Y54267D02*
Y58672D01*
X84400Y45100D02*
Y58200D01*
X75700Y66900D02*
X84400Y58200D01*
X75700Y66900D02*
Y88100D01*
X74430Y89370D02*
X75700Y88100D01*
X60433Y89370D02*
X74430D01*
X49700Y26300D02*
X52021D01*
X118898Y62098D02*
X120200Y63400D01*
X5020Y69784D02*
X8858D01*
X1673Y42224D02*
X5020D01*
X1575Y42126D02*
X1673Y42224D01*
X12992Y65847D02*
X13681Y65158D01*
X58661Y87795D02*
X73425D01*
X25098Y84941D02*
X27953D01*
X29429Y86417D01*
X25098Y81398D02*
X27756D01*
X28150Y81004D01*
Y79528D02*
Y81004D01*
Y79528D02*
X29429D01*
X73425Y87795D02*
X73721Y87500D01*
X5020Y36319D02*
X5315Y36614D01*
X5020Y54035D02*
X8661D01*
X15551Y71063D02*
X16831Y69784D01*
X20571D01*
X55610Y90847D02*
X58661Y87795D01*
X29429Y79528D02*
X31398Y77559D01*
X26181Y46260D02*
X27264D01*
X5315Y36614D02*
X9744D01*
X11417Y38287D01*
X20571Y48130D02*
X24311D01*
X26181Y46260D01*
X20571Y46161D02*
X23425D01*
X5020Y50098D02*
X8661D01*
X9449Y49311D01*
X5020Y44193D02*
X7677D01*
X9547Y46063D01*
X20571Y59941D02*
X23819D01*
X20571Y50098D02*
Y52067D01*
X17520Y38287D02*
X20571D01*
Y44193D02*
X22946D01*
X25308Y41831D01*
X27953D01*
X6890Y27854D02*
X10728D01*
X15157D02*
X18701D01*
X6890Y74409D02*
Y77756D01*
X18701Y74409D02*
Y79232D01*
X18602Y79331D02*
X18701Y79232D01*
X82735Y43435D02*
X84400Y45100D01*
X80903Y43435D02*
X82735D01*
X78716Y45621D02*
X80903Y43435D01*
X77244Y45621D02*
X78716D01*
X70477Y52677D02*
X73721Y55920D01*
Y87500D01*
X70477Y50469D02*
Y52677D01*
X70453Y50444D02*
X70477Y50469D01*
X5020Y38287D02*
X9747D01*
X17159Y59941D02*
X20571D01*
Y63878D02*
X20764Y63684D01*
X28827D02*
X31398Y66255D01*
X20571Y65846D02*
X21063Y66339D01*
X21457D01*
X22241Y65554D01*
X20571Y67815D02*
X29232D01*
X22241Y65554D02*
X28053D01*
X20571Y36319D02*
X31988D01*
X10138Y67815D02*
X11516Y69193D01*
X5020Y65847D02*
X12992D01*
X9747Y38287D02*
X10928Y39469D01*
X11012D01*
X11900Y60424D02*
X11969Y60492D01*
X11900Y59900D02*
Y60424D01*
X5020Y67815D02*
X10138D01*
X34488Y93600D02*
X38388Y97500D01*
X31988Y36319D02*
X34488Y38819D01*
Y93600D01*
X5413Y79232D02*
X6890Y77756D01*
X10728Y27854D02*
X11220Y27362D01*
X14272Y26969D02*
X15157Y27854D01*
X16043Y36811D02*
X17520Y38287D01*
X27953Y41831D02*
X28740Y41043D01*
X28937Y51772D02*
Y53800D01*
X48600Y25200D02*
X49700Y26300D01*
X0Y0D02*
Y194587D01*
Y0D02*
X147638D01*
X0Y194587D02*
X147638D01*
Y0D02*
Y194587D01*
D13*
X32800Y46800D02*
Y59700D01*
X30484Y62016D02*
X32800Y59700D01*
X20677Y62016D02*
X30484D01*
X31866Y45866D02*
X32800Y46800D01*
X31004Y45866D02*
X31866D01*
X55900Y37800D02*
X57756D01*
X43200Y77700D02*
X43400Y77500D01*
X48200D01*
X143081Y74000D02*
X144681Y72400D01*
X131067Y79367D02*
X132200Y80500D01*
X131067Y75000D02*
Y79367D01*
X115002Y68398D02*
X117421D01*
X113300Y70100D02*
X115002Y68398D01*
X106595Y32972D02*
Y37295D01*
X107700Y38400D01*
X116200D01*
X117976Y40176D01*
Y45472D01*
X134610Y69488D02*
Y71063D01*
Y73228D01*
X133520Y68398D02*
X134610Y69488D01*
X125295Y68398D02*
X133520D01*
X20571Y56004D02*
X25886D01*
X26575Y56693D01*
X20571Y54035D02*
X25886D01*
X26476Y53445D01*
X52264Y33268D02*
Y35925D01*
X52165Y33169D02*
X52264Y33268D01*
X20571Y61909D02*
X20677Y62016D01*
X77244Y47590D02*
X79910D01*
X81381Y46119D01*
X52264Y35925D02*
X54025D01*
X55564Y26300D02*
Y28936D01*
X49937Y29000D02*
X55500D01*
X49902Y29035D02*
X49937Y29000D01*
X55500D02*
X55564Y28936D01*
X55500Y29000D02*
X57200D01*
X59156Y30956D01*
X60610D01*
X71182Y22300D02*
Y26018D01*
X70400Y26800D02*
X71182Y26018D01*
X65600Y26800D02*
X70400D01*
X64547Y27853D02*
X65600Y26800D01*
X64547Y27853D02*
Y30956D01*
X73741Y22300D02*
Y26841D01*
X62579Y26903D02*
Y30956D01*
Y26903D02*
X62741Y26741D01*
X54025Y35925D02*
X55900Y37800D01*
X134610Y74000D02*
Y75000D01*
Y74000D02*
X143081D01*
X20571Y57972D02*
X24645D01*
X25728Y59055D01*
X26575D01*
X113300Y70100D02*
Y78296D01*
X119390Y68398D02*
Y74213D01*
X121358Y75780D02*
X121457D01*
X121358D02*
Y80013D01*
X44700Y81500D02*
X51700D01*
Y66500D02*
Y81500D01*
X44700Y66500D02*
X51700D01*
X44700D02*
Y81500D01*
X95811Y67260D02*
Y82260D01*
X102811D01*
Y67260D02*
Y82260D01*
X95811Y67260D02*
X102811D01*
X34189Y104583D02*
X49189D01*
Y97583D02*
Y104583D01*
X34189Y97583D02*
X49189D01*
X34189D02*
Y104583D01*
D14*
X119013Y55709D02*
X126736D01*
D15*
X55564Y26300D02*
D03*
X52021D02*
D03*
X134610Y75000D02*
D03*
X131067D02*
D03*
X96716Y73130D02*
D03*
X100260D02*
D03*
X134610Y71063D02*
D03*
X131067D02*
D03*
D16*
X52264Y35925D02*
D03*
Y39469D02*
D03*
X25098Y81398D02*
D03*
Y84941D02*
D03*
D25*
X135398Y89803D02*
D03*
Y99803D02*
D03*
X117976Y55472D02*
D03*
Y45472D02*
D03*
D27*
X67500Y40700D02*
D03*
D31*
X48200Y70413D02*
D03*
Y77500D02*
D03*
D49*
X125551Y80013D02*
X126239Y80700D01*
X127800D01*
X135398Y83502D02*
Y89803D01*
X119390Y74213D02*
X121421D01*
X96323Y68150D02*
X96756Y67716D01*
X97150Y52067D02*
Y64961D01*
X96323Y76575D02*
X99276Y79527D01*
X105083D01*
X96323Y68150D02*
Y76575D01*
X108035Y45768D02*
Y52165D01*
X107150Y65256D02*
X110988D01*
D50*
X40428Y94528D02*
X78298D01*
X81505Y94095D02*
X85925D01*
X78298Y94528D02*
X79164Y93661D01*
X81072D02*
X81505Y94095D01*
X79164Y93661D02*
X81072D01*
X85925Y94095D02*
X91339Y88681D01*
X95472D01*
X95276Y85630D02*
X95768D01*
X86221Y82284D02*
X92815D01*
X83169Y79232D02*
X86221Y82284D01*
X80709Y73032D02*
X81398Y72342D01*
X80709Y73032D02*
Y83661D01*
X82677Y85630D01*
X95276D01*
X15846Y40256D02*
X20571D01*
X15846Y40256D02*
X15846Y40256D01*
X20571Y32382D02*
X31890D01*
X24803Y39665D02*
X24902Y39764D01*
Y39961D01*
X20571Y42224D02*
X23031D01*
X24803Y40453D01*
Y39665D02*
Y40453D01*
X31890Y32382D02*
X36811Y37303D01*
Y90911D01*
X40428Y94528D01*
D51*
X1870Y52953D02*
Y74213D01*
X7480Y57972D02*
X8858Y56595D01*
X5020Y57972D02*
X7480D01*
X39622Y96122D02*
X78931D01*
X35630Y92130D02*
X39622Y96122D01*
X79088Y95965D02*
X85925D01*
X78931Y96122D02*
X79088Y95965D01*
X85925D02*
X90158Y91732D01*
X19587Y90945D02*
Y94095D01*
X18996Y90354D02*
X19587Y90945D01*
X14075Y90354D02*
X18996D01*
X136581Y43000D02*
Y46881D01*
X131081Y40900D02*
X138000D01*
X141416Y44316D01*
X146352Y70471D02*
X146981Y71100D01*
X143882Y70471D02*
X146352D01*
X90158Y91732D02*
X94291D01*
X142752Y71601D02*
X143882Y70471D01*
X142752Y71601D02*
Y71648D01*
X138800Y71800D02*
X139200Y72200D01*
X143373Y66073D02*
X145324Y64121D01*
Y23724D02*
Y64121D01*
X13484Y90945D02*
X14075Y90354D01*
X13484Y90945D02*
Y93996D01*
X19488Y94193D02*
X19587Y94095D01*
X2657Y52165D02*
X4921D01*
X5020Y52067D01*
X1870Y52953D02*
X2657Y52165D01*
X1870Y74213D02*
X2165Y74508D01*
X127400Y5800D02*
X145324Y23724D01*
X93010Y8897D02*
X96107Y5800D01*
X139200Y72200D02*
X142200D01*
X142752Y71648D01*
X136581Y46881D02*
X137700Y48000D01*
X139400D01*
X141416Y44316D02*
Y49884D01*
X140100Y51200D02*
X141416Y49884D01*
X138000Y66100D02*
X143373Y66073D01*
X20571Y34350D02*
X31988D01*
X35630Y37992D01*
Y92130D01*
X96107Y5800D02*
X127400D01*
D52*
X5020Y63878D02*
X8366D01*
X121358Y68398D02*
X123327D01*
X125295D01*
D54*
X13091Y39961D02*
Y58465D01*
X14500Y59874D01*
X15700Y105800D02*
X51200D01*
X14882Y104982D02*
X15700Y105800D01*
X14882Y103482D02*
Y104982D01*
X11500Y102600D02*
X14000D01*
X10787Y101887D02*
X11500Y102600D01*
X10787Y99744D02*
Y101887D01*
X14000Y102600D02*
X14882Y103482D01*
X14500Y59200D02*
Y59874D01*
X9055Y59153D02*
Y59842D01*
X107300Y114000D02*
Y115900D01*
X105991Y112691D02*
X107300Y114000D01*
X104400Y112700D02*
X104409Y112691D01*
X99800Y112700D02*
X104400D01*
X89843Y102743D02*
X99800Y112700D01*
X99753Y114713D02*
X105413D01*
X89240Y104200D02*
X99753Y114713D01*
X17000Y104200D02*
X89240D01*
X21043Y102743D02*
X89843D01*
X104409Y112691D02*
X105991D01*
X107283Y115683D02*
Y127816D01*
X20374Y102074D02*
X21043Y102743D01*
X106800Y128300D02*
X107283Y127816D01*
X16339Y103539D02*
X17000Y104200D01*
X16339Y100394D02*
Y103539D01*
X51200Y105800D02*
X55000Y109600D01*
X20374Y100886D02*
Y102074D01*
X19488Y100000D02*
X20374Y100886D01*
X19488Y98524D02*
Y100000D01*
X17126Y96063D02*
X17618Y96555D01*
X17126Y94193D02*
Y96063D01*
X13091Y96358D02*
X13484Y96752D01*
X11516Y96358D02*
X13091D01*
X18012Y92126D02*
X18307Y92421D01*
Y94193D01*
X11909Y91929D02*
X12303Y92323D01*
Y93996D01*
Y98327D02*
Y100886D01*
X18307Y98524D02*
Y100492D01*
X13484Y98327D02*
Y99508D01*
X14173Y100197D01*
X17126Y98524D02*
Y99705D01*
X16339Y100492D02*
X17126Y99705D01*
X19488Y97146D02*
Y98524D01*
X13484Y96752D02*
Y98327D01*
X18898Y96555D02*
X19488Y97146D01*
X17618Y96555D02*
X18898D01*
X11122Y95965D02*
X11516Y96358D01*
X11122Y93996D02*
Y95965D01*
Y98327D02*
Y99410D01*
X5020Y59941D02*
X8760D01*
X9301Y59400D01*
X9055Y59153D02*
X9301Y59400D01*
X10787Y99744D02*
X11122Y99410D01*
X55000Y109600D02*
Y110700D01*
Y111100D01*
X11417Y38287D02*
X13091Y39961D01*
D55*
X129000Y71063D02*
X131067D01*
X127720Y72342D02*
X129000Y71063D01*
X105378Y73327D02*
X107150Y71555D01*
Y65256D02*
Y71555D01*
X52264Y39469D02*
X52495Y39700D01*
X57756D01*
X99866Y73327D02*
X105378D01*
X121421Y74213D02*
X123291Y72342D01*
X127720D01*
D56*
X5020Y34350D02*
X9252D01*
X48200Y66700D02*
X49400Y65500D01*
X48200Y66700D02*
Y70413D01*
X10335Y32382D02*
X11220Y31496D01*
X5020Y32382D02*
X10335D01*
D88*
X29000Y53800D02*
D03*
X23917Y60039D02*
D03*
X14500Y59200D02*
D03*
X13681Y63779D02*
D03*
X8366Y63878D02*
D03*
X14075Y71063D02*
D03*
X11516Y69193D02*
D03*
X1575Y42126D02*
D03*
X1575Y39075D02*
D03*
X9055Y59842D02*
D03*
X49400Y65500D02*
D03*
X27362Y46358D02*
D03*
X28053Y65554D02*
D03*
X11900Y59900D02*
D03*
X9547Y49311D02*
D03*
Y46063D02*
D03*
X122638Y59350D02*
D03*
X118898Y59941D02*
D03*
X99114Y90650D02*
D03*
X143100Y63200D02*
D03*
X94291Y91732D02*
D03*
X95472Y88681D02*
D03*
X140960Y59743D02*
D03*
X48602Y25335D02*
D03*
X83000Y40600D02*
D03*
X133465Y38189D02*
D03*
X118110Y75780D02*
D03*
Y72631D02*
D03*
X121457D02*
D03*
Y75780D02*
D03*
X124705D02*
D03*
Y72631D02*
D03*
X93010Y8897D02*
D03*
X28150Y79528D02*
D03*
X11319Y31398D02*
D03*
X2165Y74508D02*
D03*
X81398Y72342D02*
D03*
X95276Y85630D02*
D03*
X92815Y82284D02*
D03*
X83169Y79232D02*
D03*
X15846Y40256D02*
D03*
X26083Y43701D02*
D03*
X26575Y56693D02*
D03*
Y53445D02*
D03*
X31102Y45472D02*
D03*
X52165Y33169D02*
D03*
X16339Y36713D02*
D03*
X24803Y39665D02*
D03*
X28346Y41535D02*
D03*
X11220Y27461D02*
D03*
X14272Y27067D02*
D03*
X5512Y79134D02*
D03*
X18504Y79724D02*
D03*
X49902Y29035D02*
D03*
X82100Y36800D02*
D03*
X82200Y33800D02*
D03*
X84700Y32700D02*
D03*
X9154Y53150D02*
D03*
X9252Y34547D02*
D03*
X26575Y59055D02*
D03*
X29528Y68110D02*
D03*
X8858Y56595D02*
D03*
X8957Y69882D02*
D03*
D89*
X86828Y54267D02*
D03*
X83900Y100300D02*
D03*
X58150Y108421D02*
D03*
X51550Y109121D02*
D03*
X84000Y106600D02*
D03*
X83900Y110172D02*
D03*
Y114700D02*
D03*
X48100Y108900D02*
D03*
X88760Y127081D02*
D03*
X93287D02*
D03*
X75177D02*
D03*
X79705D02*
D03*
X84232D02*
D03*
X97815D02*
D03*
X102343D02*
D03*
X103080Y118200D02*
D03*
X98880Y118300D02*
D03*
X96080Y116700D02*
D03*
X92728Y118700D02*
D03*
X88200D02*
D03*
X86400Y116700D02*
D03*
X55216Y90847D02*
D03*
X57480Y92323D02*
D03*
X20178Y129524D02*
D03*
Y125424D02*
D03*
X11700Y127900D02*
D03*
X11805Y123440D02*
D03*
X12495Y118965D02*
D03*
X14542Y114927D02*
D03*
X17743Y111725D02*
D03*
X21780Y109675D02*
D03*
X26253Y108975D02*
D03*
X30780Y108977D02*
D03*
X35308D02*
D03*
X39836D02*
D03*
X44363D02*
D03*
X42035Y117342D02*
D03*
X37507D02*
D03*
X32980D02*
D03*
X28452D02*
D03*
X23946Y117778D02*
D03*
X20691Y120925D02*
D03*
X127200Y129800D02*
D03*
X135878Y129824D02*
D03*
X127300Y126000D02*
D03*
X125945Y123142D02*
D03*
X121417D02*
D03*
X111954Y115078D02*
D03*
X116472Y114777D02*
D03*
X121000D02*
D03*
X125527D02*
D03*
X130045Y115078D02*
D03*
X133976Y117324D02*
D03*
X135733Y121496D02*
D03*
X135778Y126024D02*
D03*
X83071Y87992D02*
D03*
X29429Y86417D02*
D03*
X100845Y190629D02*
D03*
X98674Y183022D02*
D03*
X89657Y182493D02*
D03*
X87982Y178287D02*
D03*
Y173759D02*
D03*
Y169231D02*
D03*
Y164704D02*
D03*
Y160176D02*
D03*
Y155649D02*
D03*
X88714Y151181D02*
D03*
X92196Y148287D02*
D03*
X96714Y147983D02*
D03*
X101241D02*
D03*
X105768Y147940D02*
D03*
X110179Y146917D02*
D03*
X114000Y144489D02*
D03*
X116801Y140931D02*
D03*
X118235Y136637D02*
D03*
X118404Y132112D02*
D03*
X118378Y127585D02*
D03*
X110040Y131237D02*
D03*
X109879Y135761D02*
D03*
X106954Y139217D02*
D03*
X102444Y139618D02*
D03*
X97917D02*
D03*
X93389Y139644D02*
D03*
X88953Y140548D02*
D03*
X85018Y142788D02*
D03*
X81975Y146140D02*
D03*
X80127Y150274D02*
D03*
X79618Y154772D02*
D03*
Y159300D02*
D03*
Y163827D02*
D03*
Y168355D02*
D03*
Y172882D02*
D03*
Y177410D02*
D03*
X79881Y181930D02*
D03*
X81648Y186099D02*
D03*
X84814Y189335D02*
D03*
X88954Y191169D02*
D03*
X42445Y189073D02*
D03*
X46829Y187942D02*
D03*
X50253Y184979D02*
D03*
X51941Y180778D02*
D03*
X52060Y176252D02*
D03*
Y171724D02*
D03*
Y167197D02*
D03*
Y162669D02*
D03*
Y158142D02*
D03*
Y153614D02*
D03*
Y149087D02*
D03*
Y144559D02*
D03*
Y140032D02*
D03*
Y135504D02*
D03*
Y130976D02*
D03*
Y126449D02*
D03*
X43622Y119521D02*
D03*
X43696Y124048D02*
D03*
Y128576D02*
D03*
Y133103D02*
D03*
Y137631D02*
D03*
Y142158D02*
D03*
Y146686D02*
D03*
Y151213D02*
D03*
Y155741D02*
D03*
Y160268D02*
D03*
Y164796D02*
D03*
Y169324D02*
D03*
Y173851D02*
D03*
Y178379D02*
D03*
X39819Y180718D02*
D03*
X35354Y181471D02*
D03*
X37500Y189078D02*
D03*
X81800Y45600D02*
D03*
X73741Y26841D02*
D03*
X62741Y26741D02*
D03*
X83241Y12641D02*
D03*
X82941Y8741D02*
D03*
X75841Y13341D02*
D03*
X75641Y8641D02*
D03*
X67241Y13441D02*
D03*
Y8941D02*
D03*
X53841Y13141D02*
D03*
X53741Y8541D02*
D03*
X60041Y13041D02*
D03*
X59641Y8541D02*
D03*
X56800Y21900D02*
D03*
X56741Y18841D02*
D03*
X59541Y21841D02*
D03*
X59600Y18800D02*
D03*
X62441Y21841D02*
D03*
X84900Y26700D02*
D03*
Y23944D02*
D03*
Y21188D02*
D03*
Y18826D02*
D03*
X82677Y26772D02*
D03*
Y23917D02*
D03*
Y21260D02*
D03*
Y18898D02*
D03*
X80577Y25372D02*
D03*
Y22372D02*
D03*
Y19972D02*
D03*
D90*
X4000Y103700D02*
D03*
X133400Y113500D02*
D03*
X133000Y111200D02*
D03*
X133400Y108800D02*
D03*
X134300Y106800D02*
D03*
X136000Y105100D02*
D03*
X138100Y103800D02*
D03*
X140600Y103500D02*
D03*
X6600Y103700D02*
D03*
X9100Y104000D02*
D03*
X11200Y105300D02*
D03*
X12900Y107000D02*
D03*
X13800Y109000D02*
D03*
X14200Y111400D02*
D03*
X16634Y90354D02*
D03*
X18012Y91929D02*
D03*
X136581Y43000D02*
D03*
X146981Y71100D02*
D03*
X139487Y48013D02*
D03*
X144681Y72400D02*
D03*
X136100Y80532D02*
D03*
Y82500D02*
D03*
X134132D02*
D03*
Y80532D02*
D03*
X127800Y80700D02*
D03*
X130194Y82500D02*
D03*
X129921Y80709D02*
D03*
X132200Y80500D02*
D03*
X132163Y82500D02*
D03*
X131606Y2900D02*
D03*
X127079D02*
D03*
X122551D02*
D03*
X131334Y1100D02*
D03*
X126806D02*
D03*
X122279D02*
D03*
X95113D02*
D03*
X99641D02*
D03*
X104168D02*
D03*
X108696D02*
D03*
X113224D02*
D03*
X117751D02*
D03*
X95386Y2900D02*
D03*
X99913D02*
D03*
X104441D02*
D03*
X108968D02*
D03*
X113496D02*
D03*
X118024D02*
D03*
X67948Y1100D02*
D03*
X72476D02*
D03*
X77003D02*
D03*
X81531D02*
D03*
X86058D02*
D03*
X90586D02*
D03*
X68221Y2900D02*
D03*
X72748D02*
D03*
X77276D02*
D03*
X90858D02*
D03*
X40783Y1100D02*
D03*
X45310D02*
D03*
X49838D02*
D03*
X54365D02*
D03*
X58893D02*
D03*
X63420D02*
D03*
X41055Y2900D02*
D03*
X54638D02*
D03*
X59165D02*
D03*
X63693D02*
D03*
X106500Y166583D02*
D03*
X36528Y2900D02*
D03*
X32000D02*
D03*
X27472D02*
D03*
X22945D02*
D03*
X18417D02*
D03*
X13890D02*
D03*
X36255Y1100D02*
D03*
X31728D02*
D03*
X27200D02*
D03*
X22672D02*
D03*
X18145D02*
D03*
X13617D02*
D03*
X106500Y175638D02*
D03*
Y171110D02*
D03*
Y162055D02*
D03*
Y157528D02*
D03*
Y153000D02*
D03*
X107000Y150700D02*
D03*
X109400Y150200D02*
D03*
X112300Y150100D02*
D03*
X116235Y150200D02*
D03*
X120762D02*
D03*
X125290D02*
D03*
X129817D02*
D03*
X134345D02*
D03*
X138872D02*
D03*
X143800Y131062D02*
D03*
Y126535D02*
D03*
Y122007D02*
D03*
Y117480D02*
D03*
X146100Y130790D02*
D03*
Y126262D02*
D03*
Y121735D02*
D03*
Y117207D02*
D03*
Y135317D02*
D03*
Y139845D02*
D03*
Y144372D02*
D03*
Y148900D02*
D03*
X143800Y135590D02*
D03*
Y140117D02*
D03*
Y144645D02*
D03*
X143400Y150200D02*
D03*
X106600Y193000D02*
D03*
X103600D02*
D03*
X99941D02*
D03*
X95413D02*
D03*
X90886D02*
D03*
X86358D02*
D03*
X81831D02*
D03*
X77303D02*
D03*
X72776D02*
D03*
X68248D02*
D03*
X63721D02*
D03*
X59193D02*
D03*
X50138D02*
D03*
X54665D02*
D03*
X45610D02*
D03*
X36555D02*
D03*
X41083D02*
D03*
X32028D02*
D03*
X27500D02*
D03*
X27300Y170700D02*
D03*
X26628Y168260D02*
D03*
X24238Y167210D02*
D03*
X19710D02*
D03*
X15183D02*
D03*
X10655D02*
D03*
X6128D02*
D03*
X1600D02*
D03*
Y162683D02*
D03*
Y158155D02*
D03*
Y153628D02*
D03*
Y149100D02*
D03*
Y144572D02*
D03*
Y140045D02*
D03*
Y135517D02*
D03*
Y130990D02*
D03*
Y126462D02*
D03*
Y121935D02*
D03*
Y117407D02*
D03*
X3900Y162410D02*
D03*
Y157883D02*
D03*
Y153355D02*
D03*
Y148828D02*
D03*
Y144300D02*
D03*
Y139772D02*
D03*
Y135245D02*
D03*
Y130717D02*
D03*
Y126190D02*
D03*
Y121662D02*
D03*
Y117135D02*
D03*
X67913Y115945D02*
D03*
X14173Y100197D02*
D03*
X18307Y101083D02*
D03*
X11811Y91831D02*
D03*
X12303Y100886D02*
D03*
X105200Y114600D02*
D03*
X106800Y128300D02*
D03*
X55000Y110700D02*
D03*
X131081Y40900D02*
D03*
X140206Y51100D02*
D03*
D91*
X138100Y65900D02*
D03*
X137100Y70100D02*
D03*
X138800Y71800D02*
D03*
X14075Y152166D02*
D03*
X11811Y156693D02*
D03*
X18603Y152166D02*
D03*
X16339Y156693D02*
D03*
X23130Y152166D02*
D03*
X20866Y156693D02*
D03*
X27658Y125000D02*
D03*
Y152166D02*
D03*
X25394Y156693D02*
D03*
X27658Y161221D02*
D03*
X32185Y125000D02*
D03*
X29921Y129528D02*
D03*
X32185Y134055D02*
D03*
X29921Y138583D02*
D03*
X32185Y143111D02*
D03*
X29921Y147638D02*
D03*
X32185Y152166D02*
D03*
X29921Y156693D02*
D03*
X32185Y161221D02*
D03*
X36713Y125000D02*
D03*
X34449Y129528D02*
D03*
X36713Y134055D02*
D03*
X34449Y138583D02*
D03*
X36713Y143111D02*
D03*
X34449Y147638D02*
D03*
X36713Y152166D02*
D03*
X34449Y156693D02*
D03*
X36713Y161221D02*
D03*
X34449Y165748D02*
D03*
X36713Y170276D02*
D03*
X34449Y174803D02*
D03*
X59351Y125000D02*
D03*
Y134055D02*
D03*
Y143111D02*
D03*
Y152166D02*
D03*
Y161221D02*
D03*
Y170276D02*
D03*
Y179331D02*
D03*
X63878Y134055D02*
D03*
X61614Y138583D02*
D03*
X63878Y143111D02*
D03*
X61614Y147638D02*
D03*
X63878Y152166D02*
D03*
X61614Y156693D02*
D03*
X63878Y161221D02*
D03*
X61614Y165748D02*
D03*
X63878Y170276D02*
D03*
X61614Y174803D02*
D03*
X63878Y179331D02*
D03*
X61614Y183859D02*
D03*
X66142Y138583D02*
D03*
X68406Y143111D02*
D03*
X66142Y147638D02*
D03*
X68406Y152166D02*
D03*
X66142Y156693D02*
D03*
X68406Y161221D02*
D03*
X66142Y165748D02*
D03*
X68406Y170276D02*
D03*
X66142Y174803D02*
D03*
X68406Y179331D02*
D03*
X66142Y183859D02*
D03*
X70670Y138583D02*
D03*
X72933Y143111D02*
D03*
X70670Y147638D02*
D03*
X72933Y152166D02*
D03*
X70670Y156693D02*
D03*
X72933Y161221D02*
D03*
X70670Y165748D02*
D03*
X72933Y170276D02*
D03*
X70670Y174803D02*
D03*
X72933Y179331D02*
D03*
X70670Y183859D02*
D03*
X77461Y134055D02*
D03*
X75197Y138583D02*
D03*
X81988Y134055D02*
D03*
X79725Y138583D02*
D03*
X86516Y134055D02*
D03*
X95571Y161221D02*
D03*
Y170276D02*
D03*
X97835Y156693D02*
D03*
X100099Y161221D02*
D03*
X97835Y165748D02*
D03*
X100099Y170276D02*
D03*
X97835Y174803D02*
D03*
X2756Y93307D02*
D03*
X14075Y143111D02*
D03*
X11811Y147638D02*
D03*
X18603Y152166D02*
D03*
X20866Y138583D02*
D03*
Y147638D02*
D03*
X23130Y152166D02*
D03*
X27658Y125000D02*
D03*
X25394Y138583D02*
D03*
X27658Y143111D02*
D03*
Y161221D02*
D03*
X32185Y125000D02*
D03*
X29921Y138583D02*
D03*
X32185Y143111D02*
D03*
Y152166D02*
D03*
Y161221D02*
D03*
X36713Y125000D02*
D03*
X34449Y129528D02*
D03*
X36713Y143111D02*
D03*
X34449Y156693D02*
D03*
X36713Y161221D02*
D03*
X34449Y165748D02*
D03*
Y174803D02*
D03*
X50296Y115945D02*
D03*
X54823D02*
D03*
X57087Y120473D02*
D03*
X59351Y143111D02*
D03*
Y170276D02*
D03*
Y179331D02*
D03*
X63878Y115945D02*
D03*
Y125000D02*
D03*
X61614Y138583D02*
D03*
Y156693D02*
D03*
Y165748D02*
D03*
Y174803D02*
D03*
X66142Y111418D02*
D03*
X68406Y125000D02*
D03*
Y134055D02*
D03*
X66142Y147638D02*
D03*
X68406Y152166D02*
D03*
X66142Y156693D02*
D03*
Y165748D02*
D03*
X68406Y170276D02*
D03*
X66142Y183859D02*
D03*
X70670Y120473D02*
D03*
Y138583D02*
D03*
X72933Y143111D02*
D03*
Y152166D02*
D03*
X70670Y165748D02*
D03*
X72933Y170276D02*
D03*
X70670Y174803D02*
D03*
X75197Y120473D02*
D03*
Y138583D02*
D03*
X79725D02*
D03*
X95571Y161221D02*
D03*
Y170276D02*
D03*
X97835Y156693D02*
D03*
X100099Y161221D02*
D03*
X97835Y165748D02*
D03*
X100099Y170276D02*
D03*
X106890Y183859D02*
D03*
X127264Y143111D02*
D03*
X129528Y138583D02*
D03*
X134055D02*
D03*
X136319Y143111D02*
D03*
X145374Y79725D02*
D03*
Y88780D02*
D03*
X14075Y134055D02*
D03*
X11811Y138583D02*
D03*
X14075Y152166D02*
D03*
X11811Y156693D02*
D03*
X16339Y138583D02*
D03*
X18603Y143111D02*
D03*
X16339Y147638D02*
D03*
Y156693D02*
D03*
X23130Y143111D02*
D03*
X20866Y156693D02*
D03*
X27658Y134055D02*
D03*
X25394Y147638D02*
D03*
X27658Y152166D02*
D03*
X25394Y156693D02*
D03*
X27658Y179331D02*
D03*
X29921Y129528D02*
D03*
X32185Y134055D02*
D03*
X29921Y147638D02*
D03*
Y156693D02*
D03*
X36713Y134055D02*
D03*
X34449Y138583D02*
D03*
Y147638D02*
D03*
X36713Y152166D02*
D03*
Y170276D02*
D03*
X59351Y115945D02*
D03*
Y125000D02*
D03*
Y134055D02*
D03*
Y152166D02*
D03*
Y161221D02*
D03*
X61614Y120473D02*
D03*
Y129528D02*
D03*
X63878Y134055D02*
D03*
Y143111D02*
D03*
X61614Y147638D02*
D03*
X63878Y152166D02*
D03*
Y161221D02*
D03*
Y170276D02*
D03*
Y179331D02*
D03*
X61614Y183859D02*
D03*
X66142Y120473D02*
D03*
Y129528D02*
D03*
Y138583D02*
D03*
X68406Y143111D02*
D03*
Y161221D02*
D03*
X66142Y174803D02*
D03*
X68406Y179331D02*
D03*
X70670Y111418D02*
D03*
X72933Y115945D02*
D03*
Y134055D02*
D03*
X70670Y147638D02*
D03*
Y156693D02*
D03*
X72933Y161221D02*
D03*
Y179331D02*
D03*
X70670Y183859D02*
D03*
X75197Y111418D02*
D03*
X77461Y115945D02*
D03*
Y134055D02*
D03*
X79725Y120473D02*
D03*
X81988Y134055D02*
D03*
X86516D02*
D03*
X97835Y174803D02*
D03*
X125000Y138583D02*
D03*
X131792Y143111D02*
D03*
X145374Y97835D02*
D03*
D92*
X140748Y111024D02*
D03*
X6791D02*
D03*
X140551Y7087D02*
D03*
X7480Y7874D02*
D03*
D93*
X106600Y100600D02*
D03*
X97701Y100591D02*
D03*
X102622D02*
D03*
X126736Y55709D02*
D03*
X111400Y100600D02*
D03*
X107972Y45571D02*
D03*
X106595Y32972D02*
D03*
D94*
X72224Y45424D02*
D03*
X67500D02*
D03*
X62776D02*
D03*
X72224Y40700D02*
D03*
X67500D02*
D03*
X62776D02*
D03*
X72224Y35976D02*
D03*
X67500D02*
D03*
X62776D02*
D03*
D96*
X43200Y77700D02*
D03*
X110988Y65256D02*
D03*
D98*
X106595Y32972D02*
X109300Y30267D01*
Y17100D02*
Y30267D01*
X109100Y16900D02*
X109300Y17100D01*
D100*
X18701Y74409D02*
D03*
X6890D02*
D03*
Y27854D02*
D03*
X18701D02*
D03*
D101*
X20571Y32382D02*
D03*
Y34350D02*
D03*
Y36319D02*
D03*
Y38287D02*
D03*
Y40256D02*
D03*
Y42224D02*
D03*
Y44193D02*
D03*
Y46161D02*
D03*
Y48130D02*
D03*
Y50098D02*
D03*
Y52067D02*
D03*
Y54035D02*
D03*
Y56004D02*
D03*
Y57972D02*
D03*
Y59941D02*
D03*
Y61909D02*
D03*
Y63878D02*
D03*
Y65846D02*
D03*
Y67815D02*
D03*
Y69784D02*
D03*
X5020Y69784D02*
D03*
Y67815D02*
D03*
Y65847D02*
D03*
Y63878D02*
D03*
Y61910D02*
D03*
Y59941D02*
D03*
Y57972D02*
D03*
Y56004D02*
D03*
Y54035D02*
D03*
Y52067D02*
D03*
Y50098D02*
D03*
Y48130D02*
D03*
Y46161D02*
D03*
Y44193D02*
D03*
Y42224D02*
D03*
Y40256D02*
D03*
Y38287D02*
D03*
Y36319D02*
D03*
Y34350D02*
D03*
Y32382D02*
D03*
Y34350D02*
D03*
D102*
X125000Y91430D02*
D03*
X118307D02*
D03*
D103*
X97150Y64961D02*
D03*
X107150D02*
D03*
X97150Y52067D02*
D03*
X107150D02*
D03*
D104*
X121421Y74213D02*
D03*
D105*
X117421Y80013D02*
D03*
X119390D02*
D03*
X121358D02*
D03*
X123327D02*
D03*
X125295D02*
D03*
Y68398D02*
D03*
X123327D02*
D03*
X121358D02*
D03*
X119390D02*
D03*
X117421D02*
D03*
D106*
X105083Y91732D02*
D03*
Y79527D02*
D03*
D107*
X109100Y16900D02*
D03*
X116974D02*
D03*
D108*
X128000Y29300D02*
D03*
X98400Y29100D02*
D03*
D109*
X19488Y98524D02*
D03*
X18307D02*
D03*
X17126D02*
D03*
Y94193D02*
D03*
X18307D02*
D03*
X19488D02*
D03*
X13484Y98327D02*
D03*
X12303D02*
D03*
X11122D02*
D03*
Y93996D02*
D03*
X12303D02*
D03*
X13484D02*
D03*
D110*
X77244Y47590D02*
D03*
Y45621D02*
D03*
Y43653D02*
D03*
Y41684D02*
D03*
Y39716D02*
D03*
Y37747D02*
D03*
Y35779D02*
D03*
Y33810D02*
D03*
X57756D02*
D03*
Y35779D02*
D03*
Y37747D02*
D03*
Y39716D02*
D03*
Y41684D02*
D03*
Y43653D02*
D03*
Y45621D02*
D03*
Y47590D02*
D03*
D111*
X74390Y30956D02*
D03*
X72421D02*
D03*
X70453D02*
D03*
X68484D02*
D03*
X66516D02*
D03*
X64547D02*
D03*
X62579D02*
D03*
X60610D02*
D03*
Y50444D02*
D03*
X62579D02*
D03*
X64547D02*
D03*
X66516D02*
D03*
X68484D02*
D03*
X70453D02*
D03*
X72421D02*
D03*
X74390D02*
D03*
D112*
X67000Y11079D02*
D03*
X76000D02*
D03*
D113*
X86300D02*
D03*
X56800D02*
D03*
D114*
X66064Y22300D02*
D03*
X68623D02*
D03*
X71182D02*
D03*
X73741D02*
D03*
X76300D02*
D03*
M02*
