%FSLAX25Y25*%
%MOIN*%
G70*
G01*
G75*
G04 Layer_Color=65535*
%ADD10C,0.01244*%
%ADD11C,0.01772*%
%ADD12C,0.00787*%
%ADD13C,0.01000*%
%ADD14C,0.01575*%
%ADD15R,0.01969X0.01969*%
%ADD16R,0.01969X0.01969*%
%ADD17R,0.19291X0.19291*%
%ADD18O,0.00984X0.02756*%
%ADD19O,0.02756X0.00984*%
%ADD20R,0.04134X0.04134*%
%ADD21R,0.04134X0.08858*%
%ADD22R,0.01083X0.00984*%
%ADD23R,0.01083X0.01969*%
%ADD24R,0.03150X0.06693*%
%ADD25R,0.07992X0.05000*%
%ADD26R,0.05512X0.04724*%
%ADD27R,0.12992X0.12992*%
%ADD28O,0.00984X0.03150*%
%ADD29O,0.03150X0.00984*%
%ADD30R,0.03937X0.01575*%
%ADD31R,0.03150X0.03543*%
%ADD32R,0.03543X0.03150*%
%ADD33C,0.00787*%
%ADD34R,0.02362X0.01969*%
%ADD35C,0.05906*%
%ADD36O,0.02559X0.00984*%
%ADD37O,0.00984X0.02559*%
%ADD38R,0.11024X0.11024*%
%ADD39R,0.03543X0.06299*%
%ADD40R,0.04921X0.07874*%
%ADD41R,0.05118X0.06693*%
%ADD42O,0.02559X0.00787*%
%ADD43O,0.00787X0.02559*%
%ADD44R,0.03307X0.04803*%
%ADD45R,0.01740X0.01378*%
%ADD46R,0.01772X0.00984*%
%ADD47R,0.02756X0.06299*%
%ADD48C,0.01264*%
%ADD49C,0.01969*%
%ADD50C,0.00866*%
%ADD51C,0.00709*%
%ADD52C,0.00800*%
%ADD53C,0.00591*%
%ADD54C,0.00669*%
%ADD55C,0.00984*%
%ADD56C,0.01181*%
%ADD57C,0.01378*%
%ADD58C,0.01410*%
%ADD59R,0.01953X0.01969*%
%ADD60R,0.02953X0.01969*%
%ADD61R,0.05906X0.04134*%
%ADD62R,0.04423X0.05873*%
%ADD63R,0.09700X0.03900*%
%ADD64R,0.06400X0.04800*%
%ADD65R,0.02400X0.02800*%
%ADD66R,0.02800X0.02400*%
%ADD67R,0.02500X0.02800*%
%ADD68R,0.15900X0.01100*%
%ADD69R,0.02589X0.09647*%
%ADD70R,0.01975X0.09510*%
%ADD71R,0.05649X0.04800*%
%ADD72R,0.18046X0.01322*%
%ADD73R,0.18000X0.02233*%
%ADD74R,0.01364X0.08514*%
%ADD75R,0.01331X0.08465*%
%ADD76R,0.22123X0.02927*%
%ADD77R,0.09823X0.14573*%
%ADD78R,0.08600X0.05500*%
%ADD79R,0.08100X0.05600*%
%ADD80R,0.03700X0.03400*%
%ADD81R,0.06197X0.04400*%
%ADD82R,0.22700X0.03200*%
%ADD83R,0.08421X0.04909*%
%ADD84R,0.01422X0.05191*%
%ADD85R,0.01545X0.00445*%
%ADD86R,0.01558X0.02675*%
%ADD87R,0.04000X0.02020*%
%ADD88C,0.02165*%
%ADD89C,0.01969*%
%ADD90C,0.01575*%
%ADD91C,0.01772*%
%ADD92C,0.11811*%
%ADD93C,0.03543*%
%ADD94C,0.02598*%
%ADD95C,0.02756*%
%ADD96C,0.02559*%
%ADD97C,0.02362*%
%ADD98C,0.02756*%
%ADD99C,0.03937*%
%ADD100R,0.04724X0.05315*%
%ADD101R,0.03937X0.01378*%
%ADD102R,0.03937X0.05709*%
%ADD103R,0.05000X0.07992*%
%ADD104R,0.09843X0.06890*%
%ADD105R,0.00906X0.03150*%
%ADD106R,0.06299X0.09843*%
%ADD107R,0.04724X0.19685*%
%ADD108R,0.06299X0.11811*%
%ADD109O,0.00591X0.01969*%
%ADD110O,0.02953X0.00984*%
%ADD111O,0.00984X0.02953*%
%ADD112R,0.07087X0.07480*%
%ADD113R,0.09055X0.07480*%
%ADD114R,0.01575X0.05512*%
%ADD115C,0.00394*%
%ADD116C,0.00276*%
%ADD117C,0.00291*%
G36*
X62492Y141200D02*
X61644D01*
Y141498D01*
X61632Y141492D01*
X61608Y141469D01*
X61562Y141434D01*
X61509Y141393D01*
X61445Y141346D01*
X61374Y141299D01*
X61304Y141259D01*
X61234Y141218D01*
X61228Y141212D01*
X61205Y141206D01*
X61164Y141188D01*
X61111Y141171D01*
X61047Y141153D01*
X60971Y141141D01*
X60889Y141130D01*
X60795Y141124D01*
X60754D01*
X60731Y141130D01*
X60696D01*
X60655Y141136D01*
X60567Y141153D01*
X60462Y141188D01*
X60357Y141229D01*
X60257Y141294D01*
X60210Y141329D01*
X60163Y141376D01*
Y141381D01*
X60152Y141387D01*
X60146Y141405D01*
X60128Y141422D01*
X60111Y141452D01*
X60093Y141487D01*
X60076Y141522D01*
X60052Y141569D01*
X60029Y141621D01*
X60011Y141680D01*
X59994Y141738D01*
X59976Y141808D01*
X59965Y141884D01*
X59953Y141966D01*
X59941Y142054D01*
Y142148D01*
Y143920D01*
X60789D01*
Y142569D01*
Y142557D01*
Y142534D01*
Y142493D01*
Y142446D01*
Y142393D01*
Y142335D01*
X60795Y142276D01*
Y142224D01*
Y142218D01*
Y142200D01*
X60801Y142177D01*
X60807Y142148D01*
X60825Y142078D01*
X60848Y142001D01*
Y141996D01*
X60854Y141990D01*
X60877Y141955D01*
X60918Y141908D01*
X60971Y141873D01*
X60977D01*
X60988Y141867D01*
X61006Y141861D01*
X61029Y141855D01*
X61064Y141843D01*
X61099Y141838D01*
X61146Y141832D01*
X61234D01*
X61257Y141838D01*
X61328Y141849D01*
X61410Y141873D01*
X61415D01*
X61433Y141879D01*
X61456Y141890D01*
X61486Y141902D01*
X61562Y141937D01*
X61644Y141990D01*
Y143920D01*
X62492D01*
Y141200D01*
D02*
G37*
G36*
X64820Y142581D02*
X65826Y141200D01*
X64832D01*
X64311Y141978D01*
X63773Y141200D01*
X62802D01*
X63808Y142557D01*
X62819Y143920D01*
X63808D01*
X64323Y143154D01*
X64838Y143920D01*
X65815D01*
X64820Y142581D01*
D02*
G37*
G36*
X80972Y143926D02*
X81036D01*
X81071Y143920D01*
Y143119D01*
X80995D01*
X80989Y143125D01*
X80960Y143131D01*
X80919Y143136D01*
X80855Y143142D01*
X80837D01*
X80820Y143148D01*
X80796D01*
X80732Y143154D01*
X80603D01*
X80568Y143148D01*
X80527Y143142D01*
X80481Y143136D01*
X80369Y143113D01*
X80364D01*
X80346Y143107D01*
X80317Y143095D01*
X80282Y143084D01*
X80235Y143072D01*
X80188Y143054D01*
X80089Y143019D01*
Y141200D01*
X79240D01*
Y143920D01*
X80089D01*
Y143528D01*
X80100Y143540D01*
X80129Y143563D01*
X80176Y143610D01*
X80247Y143663D01*
X80252Y143669D01*
X80264Y143675D01*
X80282Y143692D01*
X80311Y143710D01*
X80369Y143751D01*
X80434Y143792D01*
X80440D01*
X80451Y143803D01*
X80469Y143815D01*
X80498Y143827D01*
X80563Y143856D01*
X80650Y143891D01*
X80656D01*
X80674Y143897D01*
X80697Y143903D01*
X80726Y143914D01*
X80802Y143926D01*
X80884Y143932D01*
X80937D01*
X80972Y143926D01*
D02*
G37*
G36*
X67991Y144178D02*
X67470D01*
Y141832D01*
X67991D01*
Y141200D01*
X66043D01*
Y141832D01*
X66563D01*
Y144178D01*
X66043D01*
Y144809D01*
X67991D01*
Y144178D01*
D02*
G37*
G36*
X74309Y144131D02*
X73244D01*
Y141200D01*
X72337D01*
Y144131D01*
X71273D01*
Y144809D01*
X74309D01*
Y144131D01*
D02*
G37*
G36*
X75514Y141200D02*
X74654D01*
Y142154D01*
X75514D01*
Y141200D01*
D02*
G37*
G36*
X58543Y143996D02*
X58578D01*
X58619Y143991D01*
X58707Y143967D01*
X58812Y143938D01*
X58917Y143891D01*
X59017Y143821D01*
X59070Y143780D01*
X59110Y143733D01*
X59122Y143721D01*
X59134Y143704D01*
X59146Y143686D01*
X59163Y143657D01*
X59181Y143622D01*
X59198Y143587D01*
X59222Y143540D01*
X59263Y143435D01*
X59298Y143300D01*
X59321Y143148D01*
X59333Y142973D01*
Y141200D01*
X58485D01*
Y142551D01*
Y142557D01*
Y142581D01*
Y142610D01*
Y142657D01*
X58479Y142703D01*
Y142756D01*
X58467Y142879D01*
Y142885D01*
Y142908D01*
X58461Y142937D01*
X58455Y142973D01*
X58444Y143049D01*
X58432Y143090D01*
X58420Y143119D01*
Y143125D01*
X58414Y143136D01*
X58385Y143172D01*
X58344Y143212D01*
X58292Y143253D01*
X58286D01*
X58274Y143259D01*
X58256Y143265D01*
X58233Y143277D01*
X58204Y143283D01*
X58163Y143288D01*
X58122Y143294D01*
X58028D01*
X58005Y143288D01*
X57935Y143277D01*
X57853Y143253D01*
X57847D01*
X57835Y143247D01*
X57812Y143236D01*
X57788Y143224D01*
X57712Y143183D01*
X57630Y143131D01*
Y141200D01*
X56782D01*
Y143920D01*
X57630D01*
Y143622D01*
X57642Y143628D01*
X57665Y143651D01*
X57706Y143680D01*
X57759Y143721D01*
X57818Y143768D01*
X57888Y143815D01*
X57958Y143856D01*
X58034Y143897D01*
X58046Y143903D01*
X58069Y143914D01*
X58110Y143932D01*
X58163Y143949D01*
X58227Y143967D01*
X58303Y143985D01*
X58385Y143996D01*
X58473Y144002D01*
X58514D01*
X58543Y143996D01*
D02*
G37*
G36*
X54048Y139278D02*
X53527D01*
Y136932D01*
X54048D01*
Y136300D01*
X52100D01*
Y136932D01*
X52621D01*
Y139278D01*
X52100D01*
Y139909D01*
X54048D01*
Y139278D01*
D02*
G37*
G36*
X60366Y139231D02*
X59301D01*
Y136300D01*
X58395D01*
Y139231D01*
X57330D01*
Y139909D01*
X60366D01*
Y139231D01*
D02*
G37*
G36*
X64631D02*
X63098D01*
Y138587D01*
X64508D01*
Y137909D01*
X63098D01*
Y136979D01*
X64631D01*
Y136300D01*
X62191D01*
Y139909D01*
X64631D01*
Y139231D01*
D02*
G37*
G36*
X56162Y144306D02*
X55267D01*
Y144967D01*
X56162D01*
Y144306D01*
D02*
G37*
G36*
X55908Y139096D02*
X55961Y139091D01*
X56025Y139085D01*
X56101Y139073D01*
X56177Y139055D01*
X56341Y139008D01*
X56429Y138979D01*
X56517Y138938D01*
X56599Y138897D01*
X56681Y138845D01*
X56762Y138786D01*
X56833Y138716D01*
X56839Y138710D01*
X56850Y138698D01*
X56868Y138675D01*
X56891Y138646D01*
X56920Y138605D01*
X56950Y138558D01*
X56985Y138505D01*
X57020Y138441D01*
X57049Y138365D01*
X57084Y138289D01*
X57113Y138201D01*
X57143Y138108D01*
X57166Y138002D01*
X57184Y137897D01*
X57195Y137780D01*
X57201Y137657D01*
Y137651D01*
Y137628D01*
Y137593D01*
X57195Y137546D01*
X57190Y137488D01*
X57184Y137423D01*
X57172Y137353D01*
X57154Y137271D01*
X57113Y137101D01*
X57084Y137014D01*
X57043Y136926D01*
X57002Y136838D01*
X56955Y136756D01*
X56897Y136674D01*
X56833Y136598D01*
X56827Y136592D01*
X56815Y136581D01*
X56792Y136563D01*
X56762Y136540D01*
X56727Y136511D01*
X56681Y136476D01*
X56628Y136446D01*
X56564Y136411D01*
X56493Y136370D01*
X56417Y136341D01*
X56335Y136306D01*
X56242Y136277D01*
X56142Y136253D01*
X56031Y136236D01*
X55920Y136224D01*
X55797Y136218D01*
X55733D01*
X55686Y136224D01*
X55633Y136230D01*
X55569Y136236D01*
X55493Y136247D01*
X55417Y136265D01*
X55253Y136312D01*
X55165Y136341D01*
X55078Y136376D01*
X54996Y136423D01*
X54914Y136476D01*
X54832Y136534D01*
X54762Y136598D01*
X54756Y136604D01*
X54744Y136616D01*
X54727Y136639D01*
X54703Y136669D01*
X54680Y136709D01*
X54645Y136756D01*
X54615Y136815D01*
X54580Y136873D01*
X54545Y136949D01*
X54516Y137025D01*
X54481Y137113D01*
X54458Y137207D01*
X54434Y137312D01*
X54417Y137417D01*
X54405Y137534D01*
X54399Y137657D01*
Y137663D01*
Y137686D01*
Y137722D01*
X54405Y137768D01*
X54411Y137827D01*
X54417Y137891D01*
X54428Y137967D01*
X54446Y138043D01*
X54487Y138213D01*
X54516Y138301D01*
X54551Y138388D01*
X54592Y138476D01*
X54645Y138564D01*
X54697Y138640D01*
X54762Y138716D01*
X54768Y138722D01*
X54779Y138734D01*
X54803Y138751D01*
X54832Y138775D01*
X54867Y138804D01*
X54914Y138839D01*
X54966Y138874D01*
X55031Y138909D01*
X55101Y138944D01*
X55177Y138979D01*
X55259Y139014D01*
X55353Y139044D01*
X55452Y139067D01*
X55563Y139085D01*
X55674Y139096D01*
X55797Y139102D01*
X55862D01*
X55908Y139096D01*
D02*
G37*
G36*
X74622D02*
X74675Y139091D01*
X74739Y139085D01*
X74815Y139073D01*
X74892Y139055D01*
X75055Y139008D01*
X75143Y138979D01*
X75231Y138938D01*
X75313Y138897D01*
X75395Y138845D01*
X75477Y138786D01*
X75547Y138716D01*
X75553Y138710D01*
X75564Y138698D01*
X75582Y138675D01*
X75605Y138646D01*
X75635Y138605D01*
X75664Y138558D01*
X75699Y138505D01*
X75734Y138441D01*
X75763Y138365D01*
X75798Y138289D01*
X75828Y138201D01*
X75857Y138108D01*
X75880Y138002D01*
X75898Y137897D01*
X75910Y137780D01*
X75915Y137657D01*
Y137651D01*
Y137628D01*
Y137593D01*
X75910Y137546D01*
X75904Y137488D01*
X75898Y137423D01*
X75886Y137353D01*
X75869Y137271D01*
X75828Y137101D01*
X75798Y137014D01*
X75757Y136926D01*
X75716Y136838D01*
X75670Y136756D01*
X75611Y136674D01*
X75547Y136598D01*
X75541Y136592D01*
X75529Y136581D01*
X75506Y136563D01*
X75477Y136540D01*
X75441Y136511D01*
X75395Y136476D01*
X75342Y136446D01*
X75278Y136411D01*
X75208Y136370D01*
X75131Y136341D01*
X75050Y136306D01*
X74956Y136277D01*
X74857Y136253D01*
X74745Y136236D01*
X74634Y136224D01*
X74511Y136218D01*
X74447D01*
X74400Y136224D01*
X74348Y136230D01*
X74283Y136236D01*
X74207Y136247D01*
X74131Y136265D01*
X73967Y136312D01*
X73879Y136341D01*
X73792Y136376D01*
X73710Y136423D01*
X73628Y136476D01*
X73546Y136534D01*
X73476Y136598D01*
X73470Y136604D01*
X73458Y136616D01*
X73441Y136639D01*
X73417Y136669D01*
X73394Y136709D01*
X73359Y136756D01*
X73330Y136815D01*
X73295Y136873D01*
X73260Y136949D01*
X73230Y137025D01*
X73195Y137113D01*
X73172Y137207D01*
X73148Y137312D01*
X73131Y137417D01*
X73119Y137534D01*
X73113Y137657D01*
Y137663D01*
Y137686D01*
Y137722D01*
X73119Y137768D01*
X73125Y137827D01*
X73131Y137891D01*
X73142Y137967D01*
X73160Y138043D01*
X73201Y138213D01*
X73230Y138301D01*
X73265Y138388D01*
X73306Y138476D01*
X73359Y138564D01*
X73412Y138640D01*
X73476Y138716D01*
X73482Y138722D01*
X73493Y138734D01*
X73517Y138751D01*
X73546Y138775D01*
X73581Y138804D01*
X73628Y138839D01*
X73681Y138874D01*
X73745Y138909D01*
X73815Y138944D01*
X73891Y138979D01*
X73973Y139014D01*
X74067Y139044D01*
X74166Y139067D01*
X74277Y139085D01*
X74388Y139096D01*
X74511Y139102D01*
X74576D01*
X74622Y139096D01*
D02*
G37*
G36*
X93983Y6665D02*
X94056Y6662D01*
X94133Y6654D01*
X94214Y6646D01*
X94298Y6635D01*
X94310D01*
X94321Y6631D01*
X94336Y6627D01*
X94379Y6619D01*
X94432Y6604D01*
X94494Y6585D01*
X94563Y6558D01*
X94632Y6523D01*
X94705Y6481D01*
X94709D01*
X94717Y6473D01*
X94728Y6466D01*
X94744Y6454D01*
X94786Y6420D01*
X94840Y6374D01*
X94897Y6316D01*
X94959Y6247D01*
X95020Y6166D01*
X95074Y6078D01*
Y6074D01*
X95081Y6066D01*
X95085Y6051D01*
X95097Y6032D01*
X95104Y6009D01*
X95116Y5978D01*
X95131Y5947D01*
X95143Y5909D01*
X95154Y5867D01*
X95170Y5821D01*
X95189Y5717D01*
X95204Y5606D01*
X95212Y5479D01*
Y5475D01*
Y5463D01*
Y5448D01*
X95208Y5425D01*
Y5394D01*
X95204Y5360D01*
X95201Y5321D01*
X95193Y5283D01*
X95177Y5191D01*
X95151Y5091D01*
X95116Y4987D01*
X95066Y4888D01*
Y4884D01*
X95058Y4876D01*
X95051Y4865D01*
X95039Y4845D01*
X95024Y4822D01*
X95008Y4799D01*
X94966Y4738D01*
X94912Y4676D01*
X94851Y4607D01*
X94778Y4542D01*
X94701Y4484D01*
X94697D01*
X94694Y4481D01*
X94682Y4473D01*
X94671Y4465D01*
X94632Y4446D01*
X94582Y4419D01*
X94521Y4396D01*
X94452Y4369D01*
X94379Y4346D01*
X94298Y4331D01*
X94290D01*
X94275Y4327D01*
X94260D01*
X94240Y4323D01*
X94217D01*
X94160Y4315D01*
X94091Y4312D01*
X94014Y4304D01*
X93929Y4300D01*
X93100D01*
Y6669D01*
X93922D01*
X93983Y6665D01*
D02*
G37*
G36*
X105242Y4745D02*
X106225D01*
Y4300D01*
X104647D01*
Y6669D01*
X105242D01*
Y4745D01*
D02*
G37*
G36*
X108111Y6224D02*
X107105D01*
Y5801D01*
X108030D01*
Y5356D01*
X107105D01*
Y4745D01*
X108111D01*
Y4300D01*
X106509D01*
Y6669D01*
X108111D01*
Y6224D01*
D02*
G37*
G36*
X102316Y6135D02*
X102351Y6132D01*
X102393Y6124D01*
X102477Y6101D01*
X102481D01*
X102497Y6093D01*
X102516Y6086D01*
X102543Y6074D01*
X102573Y6063D01*
X102608Y6043D01*
X102677Y6005D01*
X102696Y6086D01*
X103238D01*
Y4500D01*
Y4496D01*
Y4488D01*
Y4477D01*
Y4457D01*
X103234Y4438D01*
Y4415D01*
X103230Y4358D01*
X103218Y4292D01*
X103207Y4223D01*
X103188Y4154D01*
X103165Y4085D01*
X103161Y4077D01*
X103153Y4054D01*
X103134Y4024D01*
X103115Y3985D01*
X103084Y3939D01*
X103053Y3897D01*
X103011Y3851D01*
X102969Y3812D01*
X102965Y3808D01*
X102946Y3797D01*
X102919Y3778D01*
X102884Y3759D01*
X102838Y3735D01*
X102788Y3709D01*
X102731Y3689D01*
X102669Y3670D01*
X102662D01*
X102639Y3663D01*
X102604Y3655D01*
X102558Y3647D01*
X102500Y3639D01*
X102431Y3632D01*
X102358Y3628D01*
X102281Y3624D01*
X102216D01*
X102174Y3628D01*
X102120D01*
X102066Y3636D01*
X101944Y3647D01*
X101936D01*
X101917Y3651D01*
X101886Y3655D01*
X101848Y3663D01*
X101805Y3670D01*
X101759Y3678D01*
X101713Y3689D01*
X101667Y3701D01*
Y4146D01*
X101732D01*
X101740Y4143D01*
X101759Y4139D01*
X101790Y4127D01*
X101828Y4116D01*
X101832D01*
X101840Y4112D01*
X101851Y4108D01*
X101863Y4104D01*
X101901Y4093D01*
X101944Y4081D01*
X101947D01*
X101955Y4077D01*
X101970Y4073D01*
X101986Y4070D01*
X102028Y4062D01*
X102078Y4050D01*
X102089D01*
X102101Y4047D01*
X102120D01*
X102162Y4043D01*
X102212Y4039D01*
X102262D01*
X102297Y4043D01*
X102331Y4047D01*
X102374Y4050D01*
X102412Y4058D01*
X102450Y4070D01*
X102454D01*
X102466Y4077D01*
X102485Y4081D01*
X102504Y4093D01*
X102550Y4120D01*
X102573Y4135D01*
X102593Y4154D01*
X102596Y4158D01*
X102600Y4166D01*
X102608Y4177D01*
X102619Y4192D01*
X102642Y4235D01*
X102662Y4289D01*
Y4292D01*
X102665Y4300D01*
X102669Y4319D01*
X102673Y4338D01*
Y4365D01*
X102677Y4396D01*
X102681Y4434D01*
Y4473D01*
Y4507D01*
X102677Y4504D01*
X102665Y4496D01*
X102642Y4481D01*
X102619Y4461D01*
X102585Y4442D01*
X102546Y4419D01*
X102508Y4396D01*
X102462Y4377D01*
X102458Y4373D01*
X102443Y4369D01*
X102416Y4361D01*
X102385Y4354D01*
X102347Y4342D01*
X102304Y4335D01*
X102258Y4331D01*
X102208Y4327D01*
X102174D01*
X102151Y4331D01*
X102120Y4335D01*
X102089Y4338D01*
X102009Y4354D01*
X101924Y4381D01*
X101878Y4400D01*
X101836Y4423D01*
X101790Y4446D01*
X101748Y4477D01*
X101709Y4511D01*
X101671Y4550D01*
X101667Y4553D01*
X101663Y4561D01*
X101655Y4573D01*
X101640Y4592D01*
X101629Y4615D01*
X101613Y4646D01*
X101594Y4680D01*
X101579Y4722D01*
X101559Y4769D01*
X101544Y4818D01*
X101525Y4876D01*
X101513Y4937D01*
X101502Y5003D01*
X101490Y5080D01*
X101487Y5156D01*
X101483Y5241D01*
Y5245D01*
Y5249D01*
Y5260D01*
Y5275D01*
X101487Y5314D01*
X101490Y5364D01*
X101498Y5421D01*
X101506Y5487D01*
X101521Y5552D01*
X101540Y5613D01*
Y5617D01*
X101544Y5621D01*
X101552Y5640D01*
X101563Y5675D01*
X101583Y5713D01*
X101606Y5759D01*
X101632Y5805D01*
X101663Y5855D01*
X101702Y5901D01*
X101705Y5905D01*
X101721Y5920D01*
X101740Y5940D01*
X101771Y5967D01*
X101805Y5993D01*
X101844Y6024D01*
X101890Y6051D01*
X101940Y6078D01*
X101947Y6082D01*
X101963Y6089D01*
X101993Y6097D01*
X102028Y6109D01*
X102074Y6120D01*
X102124Y6132D01*
X102178Y6135D01*
X102232Y6139D01*
X102281D01*
X102316Y6135D01*
D02*
G37*
G36*
X96425D02*
X96456Y6132D01*
X96498Y6128D01*
X96541Y6120D01*
X96587Y6112D01*
X96687Y6086D01*
X96740Y6066D01*
X96790Y6047D01*
X96840Y6020D01*
X96890Y5990D01*
X96932Y5955D01*
X96975Y5917D01*
X96978Y5913D01*
X96982Y5905D01*
X96994Y5894D01*
X97005Y5874D01*
X97025Y5855D01*
X97040Y5824D01*
X97059Y5794D01*
X97078Y5755D01*
X97097Y5713D01*
X97117Y5667D01*
X97136Y5613D01*
X97151Y5559D01*
X97163Y5498D01*
X97174Y5433D01*
X97178Y5364D01*
X97182Y5287D01*
Y5087D01*
X95961D01*
Y5083D01*
X95965Y5068D01*
Y5041D01*
X95969Y5014D01*
X95976Y4980D01*
X95984Y4945D01*
X95995Y4911D01*
X96011Y4876D01*
X96015Y4872D01*
X96018Y4861D01*
X96030Y4845D01*
X96041Y4830D01*
X96080Y4784D01*
X96130Y4745D01*
X96134Y4742D01*
X96141Y4738D01*
X96157Y4730D01*
X96180Y4719D01*
X96203Y4707D01*
X96230Y4696D01*
X96295Y4673D01*
X96299D01*
X96310Y4669D01*
X96333Y4665D01*
X96356D01*
X96387Y4661D01*
X96425Y4657D01*
X96506Y4653D01*
X96541D01*
X96567Y4657D01*
X96594D01*
X96625Y4661D01*
X96694Y4673D01*
X96698D01*
X96710Y4676D01*
X96729Y4680D01*
X96752Y4688D01*
X96809Y4707D01*
X96867Y4730D01*
X96871D01*
X96879Y4734D01*
X96894Y4742D01*
X96909Y4749D01*
X96952Y4772D01*
X96994Y4795D01*
X96998D01*
X97005Y4803D01*
X97028Y4818D01*
X97059Y4838D01*
X97090Y4861D01*
X97151D01*
Y4400D01*
X97147D01*
X97140Y4396D01*
X97128Y4392D01*
X97109Y4385D01*
X97071Y4369D01*
X97025Y4350D01*
X97021D01*
X97013Y4346D01*
X97001Y4342D01*
X96982Y4335D01*
X96963Y4327D01*
X96936Y4319D01*
X96905Y4312D01*
X96871Y4304D01*
X96867D01*
X96855Y4300D01*
X96836Y4296D01*
X96813Y4292D01*
X96786Y4289D01*
X96752Y4281D01*
X96683Y4269D01*
X96679D01*
X96667Y4265D01*
X96644D01*
X96617Y4262D01*
X96583Y4258D01*
X96544D01*
X96498Y4254D01*
X96399D01*
X96364Y4258D01*
X96322Y4262D01*
X96276Y4265D01*
X96218Y4273D01*
X96161Y4285D01*
X96038Y4312D01*
X95972Y4331D01*
X95907Y4354D01*
X95846Y4381D01*
X95784Y4415D01*
X95727Y4450D01*
X95673Y4492D01*
X95669Y4496D01*
X95661Y4504D01*
X95650Y4519D01*
X95631Y4538D01*
X95611Y4561D01*
X95588Y4592D01*
X95565Y4626D01*
X95538Y4669D01*
X95515Y4715D01*
X95489Y4765D01*
X95465Y4822D01*
X95446Y4884D01*
X95427Y4949D01*
X95416Y5022D01*
X95408Y5099D01*
X95404Y5179D01*
Y5183D01*
Y5199D01*
Y5222D01*
X95408Y5252D01*
X95412Y5291D01*
X95416Y5333D01*
X95423Y5379D01*
X95435Y5433D01*
X95465Y5544D01*
X95485Y5602D01*
X95508Y5659D01*
X95538Y5717D01*
X95573Y5775D01*
X95611Y5828D01*
X95654Y5878D01*
X95657Y5882D01*
X95665Y5890D01*
X95680Y5901D01*
X95700Y5920D01*
X95727Y5940D01*
X95757Y5963D01*
X95792Y5986D01*
X95834Y6009D01*
X95884Y6032D01*
X95934Y6059D01*
X95991Y6078D01*
X96057Y6097D01*
X96122Y6116D01*
X96195Y6128D01*
X96276Y6135D01*
X96356Y6139D01*
X96395D01*
X96425Y6135D01*
D02*
G37*
G36*
X98023Y5901D02*
X98027Y5905D01*
X98042Y5920D01*
X98069Y5940D01*
X98100Y5963D01*
X98134Y5990D01*
X98176Y6020D01*
X98223Y6047D01*
X98269Y6074D01*
X98276Y6078D01*
X98292Y6086D01*
X98319Y6093D01*
X98357Y6109D01*
X98399Y6120D01*
X98449Y6128D01*
X98507Y6135D01*
X98568Y6139D01*
X98599D01*
X98618Y6135D01*
X98645Y6132D01*
X98676Y6128D01*
X98745Y6109D01*
X98822Y6078D01*
X98864Y6059D01*
X98902Y6036D01*
X98941Y6009D01*
X98979Y5974D01*
X99014Y5936D01*
X99048Y5894D01*
X99052Y5890D01*
X99056Y5882D01*
X99063Y5867D01*
X99075Y5847D01*
X99087Y5824D01*
X99102Y5794D01*
X99117Y5759D01*
X99137Y5717D01*
X99152Y5675D01*
X99167Y5621D01*
X99183Y5567D01*
X99194Y5506D01*
X99206Y5441D01*
X99213Y5371D01*
X99221Y5298D01*
Y5218D01*
Y5214D01*
Y5199D01*
Y5175D01*
X99217Y5149D01*
X99213Y5110D01*
X99209Y5068D01*
X99202Y5022D01*
X99194Y4972D01*
X99167Y4861D01*
X99152Y4803D01*
X99129Y4745D01*
X99102Y4688D01*
X99075Y4634D01*
X99041Y4577D01*
X99002Y4527D01*
X98998Y4523D01*
X98991Y4515D01*
X98979Y4504D01*
X98964Y4484D01*
X98941Y4465D01*
X98918Y4446D01*
X98887Y4419D01*
X98856Y4396D01*
X98776Y4350D01*
X98683Y4308D01*
X98633Y4289D01*
X98580Y4277D01*
X98522Y4269D01*
X98465Y4265D01*
X98418D01*
X98384Y4269D01*
X98349Y4273D01*
X98311Y4277D01*
X98230Y4296D01*
X98226D01*
X98215Y4300D01*
X98196Y4308D01*
X98169Y4319D01*
X98138Y4331D01*
X98103Y4346D01*
X98023Y4388D01*
X97996Y4300D01*
X97466D01*
Y6773D01*
X98023D01*
Y5901D01*
D02*
G37*
G36*
X109397Y6665D02*
X109470Y6662D01*
X109547Y6654D01*
X109627Y6646D01*
X109712Y6635D01*
X109723D01*
X109735Y6631D01*
X109750Y6627D01*
X109792Y6619D01*
X109846Y6604D01*
X109908Y6585D01*
X109977Y6558D01*
X110046Y6523D01*
X110119Y6481D01*
X110123D01*
X110130Y6473D01*
X110142Y6466D01*
X110157Y6454D01*
X110199Y6420D01*
X110253Y6374D01*
X110311Y6316D01*
X110372Y6247D01*
X110434Y6166D01*
X110487Y6078D01*
Y6074D01*
X110495Y6066D01*
X110499Y6051D01*
X110511Y6032D01*
X110518Y6009D01*
X110530Y5978D01*
X110545Y5947D01*
X110557Y5909D01*
X110568Y5867D01*
X110583Y5821D01*
X110603Y5717D01*
X110618Y5606D01*
X110626Y5479D01*
Y5475D01*
Y5463D01*
Y5448D01*
X110622Y5425D01*
Y5394D01*
X110618Y5360D01*
X110614Y5321D01*
X110607Y5283D01*
X110591Y5191D01*
X110564Y5091D01*
X110530Y4987D01*
X110480Y4888D01*
Y4884D01*
X110472Y4876D01*
X110465Y4865D01*
X110453Y4845D01*
X110438Y4822D01*
X110422Y4799D01*
X110380Y4738D01*
X110326Y4676D01*
X110265Y4607D01*
X110192Y4542D01*
X110115Y4484D01*
X110111D01*
X110107Y4481D01*
X110096Y4473D01*
X110084Y4465D01*
X110046Y4446D01*
X109996Y4419D01*
X109935Y4396D01*
X109865Y4369D01*
X109792Y4346D01*
X109712Y4331D01*
X109704D01*
X109689Y4327D01*
X109673D01*
X109654Y4323D01*
X109631D01*
X109574Y4315D01*
X109504Y4312D01*
X109428Y4304D01*
X109343Y4300D01*
X108514D01*
Y6669D01*
X109335D01*
X109397Y6665D01*
D02*
G37*
G36*
X77497Y143996D02*
X77550Y143991D01*
X77614Y143985D01*
X77690Y143973D01*
X77766Y143955D01*
X77930Y143909D01*
X78018Y143879D01*
X78105Y143838D01*
X78187Y143797D01*
X78269Y143745D01*
X78351Y143686D01*
X78421Y143616D01*
X78427Y143610D01*
X78439Y143598D01*
X78456Y143575D01*
X78480Y143546D01*
X78509Y143505D01*
X78538Y143458D01*
X78574Y143405D01*
X78609Y143341D01*
X78638Y143265D01*
X78673Y143189D01*
X78702Y143101D01*
X78731Y143008D01*
X78755Y142902D01*
X78772Y142797D01*
X78784Y142680D01*
X78790Y142557D01*
Y142551D01*
Y142528D01*
Y142493D01*
X78784Y142446D01*
X78778Y142388D01*
X78772Y142323D01*
X78761Y142253D01*
X78743Y142171D01*
X78702Y142001D01*
X78673Y141914D01*
X78632Y141826D01*
X78591Y141738D01*
X78544Y141656D01*
X78486Y141574D01*
X78421Y141498D01*
X78416Y141492D01*
X78404Y141481D01*
X78380Y141463D01*
X78351Y141440D01*
X78316Y141411D01*
X78269Y141376D01*
X78217Y141346D01*
X78152Y141311D01*
X78082Y141270D01*
X78006Y141241D01*
X77924Y141206D01*
X77830Y141177D01*
X77731Y141153D01*
X77620Y141136D01*
X77509Y141124D01*
X77386Y141118D01*
X77322D01*
X77275Y141124D01*
X77222Y141130D01*
X77158Y141136D01*
X77082Y141147D01*
X77006Y141165D01*
X76842Y141212D01*
X76754Y141241D01*
X76666Y141276D01*
X76585Y141323D01*
X76503Y141376D01*
X76421Y141434D01*
X76350Y141498D01*
X76345Y141504D01*
X76333Y141516D01*
X76315Y141539D01*
X76292Y141569D01*
X76269Y141610D01*
X76234Y141656D01*
X76204Y141715D01*
X76169Y141773D01*
X76134Y141849D01*
X76105Y141925D01*
X76070Y142013D01*
X76046Y142107D01*
X76023Y142212D01*
X76005Y142317D01*
X75994Y142434D01*
X75988Y142557D01*
Y142563D01*
Y142586D01*
Y142622D01*
X75994Y142668D01*
X75999Y142727D01*
X76005Y142791D01*
X76017Y142867D01*
X76035Y142943D01*
X76076Y143113D01*
X76105Y143201D01*
X76140Y143288D01*
X76181Y143376D01*
X76234Y143464D01*
X76286Y143540D01*
X76350Y143616D01*
X76356Y143622D01*
X76368Y143634D01*
X76391Y143651D01*
X76421Y143675D01*
X76456Y143704D01*
X76503Y143739D01*
X76555Y143774D01*
X76620Y143809D01*
X76690Y143844D01*
X76766Y143879D01*
X76848Y143914D01*
X76941Y143944D01*
X77041Y143967D01*
X77152Y143985D01*
X77263Y143996D01*
X77386Y144002D01*
X77450D01*
X77497Y143996D01*
D02*
G37*
G36*
X53407Y141879D02*
X54904D01*
Y141200D01*
X52500D01*
Y144809D01*
X53407D01*
Y141879D01*
D02*
G37*
G36*
X56139Y141200D02*
X55290D01*
Y143920D01*
X56139D01*
Y141200D01*
D02*
G37*
G36*
X101187Y4300D02*
X100630D01*
Y4496D01*
X100623Y4492D01*
X100607Y4477D01*
X100576Y4454D01*
X100542Y4427D01*
X100500Y4396D01*
X100454Y4365D01*
X100408Y4338D01*
X100361Y4312D01*
X100358Y4308D01*
X100342Y4304D01*
X100315Y4292D01*
X100281Y4281D01*
X100239Y4269D01*
X100189Y4262D01*
X100135Y4254D01*
X100073Y4250D01*
X100047D01*
X100031Y4254D01*
X100008D01*
X99981Y4258D01*
X99924Y4269D01*
X99855Y4292D01*
X99785Y4319D01*
X99720Y4361D01*
X99689Y4385D01*
X99659Y4415D01*
Y4419D01*
X99651Y4423D01*
X99647Y4434D01*
X99636Y4446D01*
X99624Y4465D01*
X99613Y4488D01*
X99601Y4511D01*
X99586Y4542D01*
X99570Y4577D01*
X99559Y4615D01*
X99547Y4653D01*
X99536Y4699D01*
X99528Y4749D01*
X99520Y4803D01*
X99513Y4861D01*
Y4922D01*
Y6086D01*
X100070D01*
Y5199D01*
Y5191D01*
Y5175D01*
Y5149D01*
Y5118D01*
Y5083D01*
Y5045D01*
X100073Y5007D01*
Y4972D01*
Y4968D01*
Y4957D01*
X100077Y4941D01*
X100081Y4922D01*
X100093Y4876D01*
X100108Y4826D01*
Y4822D01*
X100112Y4818D01*
X100127Y4795D01*
X100154Y4765D01*
X100189Y4742D01*
X100192D01*
X100200Y4738D01*
X100212Y4734D01*
X100227Y4730D01*
X100250Y4722D01*
X100273Y4719D01*
X100304Y4715D01*
X100361D01*
X100377Y4719D01*
X100423Y4726D01*
X100477Y4742D01*
X100480D01*
X100492Y4745D01*
X100507Y4753D01*
X100527Y4761D01*
X100576Y4784D01*
X100630Y4818D01*
Y6086D01*
X101187D01*
Y4300D01*
D02*
G37*
G36*
X82470Y143996D02*
X82522Y143991D01*
X82586Y143979D01*
X82715Y143944D01*
X82721D01*
X82744Y143932D01*
X82774Y143920D01*
X82815Y143903D01*
X82862Y143885D01*
X82914Y143856D01*
X83019Y143797D01*
X83049Y143920D01*
X83874D01*
Y141504D01*
Y141498D01*
Y141487D01*
Y141469D01*
Y141440D01*
X83868Y141411D01*
Y141376D01*
X83862Y141288D01*
X83844Y141188D01*
X83827Y141083D01*
X83798Y140978D01*
X83762Y140872D01*
X83757Y140861D01*
X83745Y140826D01*
X83716Y140779D01*
X83686Y140720D01*
X83640Y140650D01*
X83593Y140586D01*
X83528Y140516D01*
X83464Y140457D01*
X83458Y140451D01*
X83429Y140434D01*
X83388Y140404D01*
X83335Y140375D01*
X83265Y140340D01*
X83189Y140299D01*
X83101Y140270D01*
X83008Y140241D01*
X82996D01*
X82961Y140229D01*
X82908Y140217D01*
X82838Y140206D01*
X82750Y140194D01*
X82645Y140182D01*
X82534Y140176D01*
X82417Y140170D01*
X82317D01*
X82253Y140176D01*
X82171D01*
X82089Y140188D01*
X81902Y140206D01*
X81890D01*
X81861Y140211D01*
X81814Y140217D01*
X81756Y140229D01*
X81691Y140241D01*
X81621Y140252D01*
X81551Y140270D01*
X81481Y140287D01*
Y140966D01*
X81580D01*
X81592Y140960D01*
X81621Y140954D01*
X81668Y140937D01*
X81727Y140919D01*
X81732D01*
X81744Y140913D01*
X81762Y140908D01*
X81779Y140902D01*
X81838Y140884D01*
X81902Y140867D01*
X81908D01*
X81920Y140861D01*
X81943Y140855D01*
X81966Y140849D01*
X82031Y140837D01*
X82107Y140820D01*
X82124D01*
X82142Y140814D01*
X82171D01*
X82236Y140808D01*
X82312Y140802D01*
X82388D01*
X82440Y140808D01*
X82493Y140814D01*
X82557Y140820D01*
X82616Y140831D01*
X82674Y140849D01*
X82680D01*
X82698Y140861D01*
X82727Y140867D01*
X82756Y140884D01*
X82826Y140925D01*
X82862Y140948D01*
X82891Y140978D01*
X82897Y140983D01*
X82902Y140995D01*
X82914Y141013D01*
X82932Y141036D01*
X82967Y141101D01*
X82996Y141182D01*
Y141188D01*
X83002Y141200D01*
X83008Y141229D01*
X83014Y141259D01*
Y141299D01*
X83019Y141346D01*
X83025Y141405D01*
Y141463D01*
Y141516D01*
X83019Y141510D01*
X83002Y141498D01*
X82967Y141475D01*
X82932Y141446D01*
X82879Y141417D01*
X82821Y141381D01*
X82762Y141346D01*
X82692Y141317D01*
X82686Y141311D01*
X82663Y141305D01*
X82622Y141294D01*
X82575Y141282D01*
X82516Y141264D01*
X82452Y141253D01*
X82382Y141247D01*
X82306Y141241D01*
X82253D01*
X82218Y141247D01*
X82171Y141253D01*
X82124Y141259D01*
X82002Y141282D01*
X81873Y141323D01*
X81803Y141352D01*
X81738Y141387D01*
X81668Y141422D01*
X81604Y141469D01*
X81545Y141522D01*
X81487Y141580D01*
X81481Y141586D01*
X81475Y141598D01*
X81463Y141615D01*
X81440Y141645D01*
X81422Y141680D01*
X81399Y141727D01*
X81370Y141779D01*
X81346Y141843D01*
X81317Y141914D01*
X81294Y141990D01*
X81264Y142078D01*
X81247Y142171D01*
X81229Y142271D01*
X81212Y142388D01*
X81206Y142505D01*
X81200Y142633D01*
Y142639D01*
Y142645D01*
Y142663D01*
Y142686D01*
X81206Y142744D01*
X81212Y142821D01*
X81223Y142908D01*
X81235Y143008D01*
X81259Y143107D01*
X81288Y143201D01*
Y143207D01*
X81294Y143212D01*
X81305Y143242D01*
X81323Y143294D01*
X81352Y143353D01*
X81387Y143423D01*
X81428Y143493D01*
X81475Y143569D01*
X81534Y143640D01*
X81539Y143645D01*
X81563Y143669D01*
X81592Y143698D01*
X81639Y143739D01*
X81691Y143780D01*
X81750Y143827D01*
X81820Y143868D01*
X81896Y143909D01*
X81908Y143914D01*
X81931Y143926D01*
X81978Y143938D01*
X82031Y143955D01*
X82101Y143973D01*
X82177Y143991D01*
X82259Y143996D01*
X82341Y144002D01*
X82417D01*
X82470Y143996D01*
D02*
G37*
G36*
X69851D02*
X69904Y143991D01*
X69968Y143985D01*
X70044Y143973D01*
X70120Y143955D01*
X70284Y143909D01*
X70372Y143879D01*
X70460Y143838D01*
X70541Y143797D01*
X70623Y143745D01*
X70705Y143686D01*
X70775Y143616D01*
X70781Y143610D01*
X70793Y143598D01*
X70811Y143575D01*
X70834Y143546D01*
X70863Y143505D01*
X70892Y143458D01*
X70928Y143405D01*
X70963Y143341D01*
X70992Y143265D01*
X71027Y143189D01*
X71056Y143101D01*
X71086Y143008D01*
X71109Y142902D01*
X71126Y142797D01*
X71138Y142680D01*
X71144Y142557D01*
Y142551D01*
Y142528D01*
Y142493D01*
X71138Y142446D01*
X71132Y142388D01*
X71126Y142323D01*
X71115Y142253D01*
X71097Y142171D01*
X71056Y142001D01*
X71027Y141914D01*
X70986Y141826D01*
X70945Y141738D01*
X70898Y141656D01*
X70840Y141574D01*
X70775Y141498D01*
X70770Y141492D01*
X70758Y141481D01*
X70735Y141463D01*
X70705Y141440D01*
X70670Y141411D01*
X70623Y141376D01*
X70571Y141346D01*
X70506Y141311D01*
X70436Y141270D01*
X70360Y141241D01*
X70278Y141206D01*
X70185Y141177D01*
X70085Y141153D01*
X69974Y141136D01*
X69863Y141124D01*
X69740Y141118D01*
X69676D01*
X69629Y141124D01*
X69576Y141130D01*
X69512Y141136D01*
X69436Y141147D01*
X69360Y141165D01*
X69196Y141212D01*
X69108Y141241D01*
X69020Y141276D01*
X68938Y141323D01*
X68857Y141376D01*
X68775Y141434D01*
X68704Y141498D01*
X68699Y141504D01*
X68687Y141516D01*
X68669Y141539D01*
X68646Y141569D01*
X68623Y141610D01*
X68587Y141656D01*
X68558Y141715D01*
X68523Y141773D01*
X68488Y141849D01*
X68459Y141925D01*
X68424Y142013D01*
X68400Y142107D01*
X68377Y142212D01*
X68359Y142317D01*
X68348Y142434D01*
X68342Y142557D01*
Y142563D01*
Y142586D01*
Y142622D01*
X68348Y142668D01*
X68353Y142727D01*
X68359Y142791D01*
X68371Y142867D01*
X68389Y142943D01*
X68429Y143113D01*
X68459Y143201D01*
X68494Y143288D01*
X68535Y143376D01*
X68587Y143464D01*
X68640Y143540D01*
X68704Y143616D01*
X68710Y143622D01*
X68722Y143634D01*
X68745Y143651D01*
X68775Y143675D01*
X68810Y143704D01*
X68857Y143739D01*
X68909Y143774D01*
X68974Y143809D01*
X69044Y143844D01*
X69120Y143879D01*
X69202Y143914D01*
X69295Y143944D01*
X69395Y143967D01*
X69506Y143985D01*
X69617Y143996D01*
X69740Y144002D01*
X69804D01*
X69851Y143996D01*
D02*
G37*
G36*
X62972Y149596D02*
X63019Y149591D01*
X63083Y149585D01*
X63147Y149573D01*
X63218Y149561D01*
X63370Y149520D01*
X63452Y149491D01*
X63528Y149462D01*
X63604Y149421D01*
X63680Y149374D01*
X63744Y149321D01*
X63809Y149263D01*
X63814Y149257D01*
X63820Y149245D01*
X63838Y149228D01*
X63855Y149198D01*
X63885Y149169D01*
X63908Y149123D01*
X63937Y149076D01*
X63966Y149017D01*
X63996Y148953D01*
X64025Y148883D01*
X64054Y148801D01*
X64078Y148719D01*
X64095Y148625D01*
X64113Y148526D01*
X64119Y148421D01*
X64124Y148303D01*
Y147999D01*
X62264D01*
Y147993D01*
X62270Y147970D01*
Y147929D01*
X62276Y147888D01*
X62287Y147835D01*
X62299Y147783D01*
X62317Y147730D01*
X62340Y147678D01*
X62346Y147672D01*
X62352Y147654D01*
X62369Y147631D01*
X62387Y147607D01*
X62445Y147537D01*
X62521Y147479D01*
X62527Y147473D01*
X62539Y147467D01*
X62563Y147455D01*
X62598Y147438D01*
X62633Y147420D01*
X62674Y147403D01*
X62773Y147368D01*
X62779D01*
X62796Y147362D01*
X62832Y147356D01*
X62867D01*
X62914Y147350D01*
X62972Y147344D01*
X63095Y147338D01*
X63147D01*
X63188Y147344D01*
X63229D01*
X63276Y147350D01*
X63381Y147368D01*
X63387D01*
X63405Y147373D01*
X63434Y147379D01*
X63469Y147391D01*
X63557Y147420D01*
X63645Y147455D01*
X63651D01*
X63662Y147461D01*
X63686Y147473D01*
X63709Y147484D01*
X63773Y147520D01*
X63838Y147555D01*
X63844D01*
X63855Y147566D01*
X63890Y147590D01*
X63937Y147619D01*
X63984Y147654D01*
X64078D01*
Y146952D01*
X64072D01*
X64060Y146946D01*
X64043Y146940D01*
X64013Y146929D01*
X63955Y146905D01*
X63885Y146876D01*
X63879D01*
X63867Y146870D01*
X63850Y146864D01*
X63820Y146853D01*
X63791Y146841D01*
X63750Y146829D01*
X63703Y146818D01*
X63651Y146806D01*
X63645D01*
X63627Y146800D01*
X63598Y146794D01*
X63563Y146788D01*
X63522Y146782D01*
X63469Y146771D01*
X63364Y146753D01*
X63358D01*
X63341Y146747D01*
X63305D01*
X63264Y146741D01*
X63212Y146736D01*
X63153D01*
X63083Y146730D01*
X62931D01*
X62878Y146736D01*
X62814Y146741D01*
X62744Y146747D01*
X62656Y146759D01*
X62568Y146777D01*
X62381Y146818D01*
X62282Y146847D01*
X62182Y146882D01*
X62089Y146923D01*
X61995Y146976D01*
X61907Y147028D01*
X61825Y147092D01*
X61819Y147098D01*
X61808Y147110D01*
X61790Y147133D01*
X61761Y147163D01*
X61732Y147198D01*
X61697Y147245D01*
X61661Y147297D01*
X61621Y147362D01*
X61585Y147432D01*
X61545Y147508D01*
X61510Y147596D01*
X61480Y147689D01*
X61451Y147789D01*
X61433Y147900D01*
X61422Y148017D01*
X61416Y148140D01*
Y148145D01*
Y148169D01*
Y148204D01*
X61422Y148251D01*
X61427Y148309D01*
X61433Y148374D01*
X61445Y148444D01*
X61463Y148526D01*
X61510Y148695D01*
X61539Y148783D01*
X61574Y148871D01*
X61621Y148959D01*
X61673Y149046D01*
X61732Y149128D01*
X61796Y149204D01*
X61802Y149210D01*
X61814Y149222D01*
X61837Y149240D01*
X61866Y149269D01*
X61907Y149298D01*
X61954Y149333D01*
X62007Y149368D01*
X62071Y149403D01*
X62147Y149438D01*
X62223Y149479D01*
X62311Y149509D01*
X62410Y149538D01*
X62510Y149567D01*
X62621Y149585D01*
X62744Y149596D01*
X62867Y149602D01*
X62925D01*
X62972Y149596D01*
D02*
G37*
G36*
X69951Y147432D02*
X70694D01*
Y146800D01*
X68313D01*
Y147432D01*
X69073D01*
Y149327D01*
X68313D01*
Y149918D01*
X68418D01*
X68465Y149924D01*
X68518D01*
X68641Y149936D01*
X68647D01*
X68670Y149942D01*
X68699Y149947D01*
X68734Y149953D01*
X68822Y149977D01*
X68863Y149988D01*
X68904Y150006D01*
X68910D01*
X68921Y150017D01*
X68945Y150029D01*
X68968Y150047D01*
X69033Y150099D01*
X69085Y150164D01*
X69091Y150170D01*
X69097Y150181D01*
X69109Y150205D01*
X69120Y150234D01*
X69132Y150269D01*
X69144Y150310D01*
X69161Y150409D01*
X69951D01*
Y147432D01*
D02*
G37*
G36*
X72203Y146800D02*
X71343D01*
Y147754D01*
X72203D01*
Y146800D01*
D02*
G37*
G36*
X81069Y139026D02*
X81134D01*
X81169Y139020D01*
Y138219D01*
X81093D01*
X81087Y138225D01*
X81058Y138231D01*
X81016Y138236D01*
X80952Y138242D01*
X80935D01*
X80917Y138248D01*
X80894D01*
X80829Y138254D01*
X80701D01*
X80665Y138248D01*
X80625Y138242D01*
X80578Y138236D01*
X80467Y138213D01*
X80461D01*
X80443Y138207D01*
X80414Y138195D01*
X80379Y138184D01*
X80332Y138172D01*
X80285Y138154D01*
X80186Y138119D01*
Y136300D01*
X79338D01*
Y139020D01*
X80186D01*
Y138628D01*
X80198Y138640D01*
X80227Y138663D01*
X80274Y138710D01*
X80344Y138763D01*
X80350Y138769D01*
X80361Y138775D01*
X80379Y138792D01*
X80408Y138810D01*
X80467Y138851D01*
X80531Y138892D01*
X80537D01*
X80549Y138903D01*
X80566Y138915D01*
X80595Y138927D01*
X80660Y138956D01*
X80747Y138991D01*
X80753D01*
X80771Y138997D01*
X80794Y139003D01*
X80823Y139014D01*
X80900Y139026D01*
X80981Y139032D01*
X81034D01*
X81069Y139026D01*
D02*
G37*
G36*
X83971Y136300D02*
X83123D01*
Y136581D01*
X83117Y136575D01*
X83105Y136569D01*
X83087Y136557D01*
X83064Y136534D01*
X83006Y136487D01*
X82929Y136434D01*
X82924Y136429D01*
X82912Y136423D01*
X82894Y136411D01*
X82865Y136394D01*
X82807Y136353D01*
X82748Y136318D01*
X82742D01*
X82731Y136312D01*
X82707Y136306D01*
X82684Y136294D01*
X82619Y136271D01*
X82543Y136253D01*
X82538D01*
X82526Y136247D01*
X82502Y136241D01*
X82479D01*
X82444Y136236D01*
X82403Y136230D01*
X82304Y136224D01*
X82257D01*
X82227Y136230D01*
X82187Y136236D01*
X82146Y136247D01*
X82040Y136271D01*
X81923Y136318D01*
X81859Y136347D01*
X81801Y136388D01*
X81736Y136429D01*
X81678Y136481D01*
X81619Y136540D01*
X81566Y136610D01*
Y136616D01*
X81555Y136628D01*
X81543Y136651D01*
X81525Y136680D01*
X81502Y136721D01*
X81479Y136768D01*
X81455Y136821D01*
X81432Y136885D01*
X81409Y136955D01*
X81385Y137031D01*
X81362Y137113D01*
X81338Y137207D01*
X81321Y137306D01*
X81309Y137411D01*
X81303Y137523D01*
X81297Y137640D01*
Y137645D01*
Y137657D01*
Y137675D01*
Y137698D01*
X81303Y137768D01*
X81309Y137850D01*
X81321Y137950D01*
X81332Y138049D01*
X81356Y138160D01*
X81385Y138260D01*
Y138266D01*
X81391Y138271D01*
X81403Y138306D01*
X81426Y138353D01*
X81455Y138418D01*
X81490Y138488D01*
X81531Y138564D01*
X81584Y138640D01*
X81643Y138716D01*
X81648Y138722D01*
X81672Y138745D01*
X81701Y138775D01*
X81742Y138815D01*
X81795Y138862D01*
X81853Y138909D01*
X81923Y138956D01*
X81999Y138997D01*
X82011Y139003D01*
X82034Y139014D01*
X82081Y139032D01*
X82140Y139049D01*
X82204Y139067D01*
X82280Y139085D01*
X82362Y139096D01*
X82450Y139102D01*
X82526D01*
X82573Y139096D01*
X82625Y139091D01*
X82684Y139085D01*
X82742Y139073D01*
X82795Y139055D01*
X82801D01*
X82818Y139049D01*
X82848Y139038D01*
X82889Y139020D01*
X82935Y139003D01*
X82994Y138979D01*
X83052Y138950D01*
X83123Y138915D01*
Y140067D01*
X83971D01*
Y136300D01*
D02*
G37*
G36*
X74227Y150480D02*
X74262D01*
X74356Y150468D01*
X74455Y150456D01*
X74561Y150433D01*
X74672Y150404D01*
X74771Y150363D01*
X74777D01*
X74783Y150357D01*
X74818Y150339D01*
X74865Y150310D01*
X74923Y150269D01*
X74994Y150216D01*
X75064Y150158D01*
X75140Y150082D01*
X75204Y149994D01*
X75210Y149982D01*
X75234Y149953D01*
X75263Y149900D01*
X75298Y149830D01*
X75333Y149743D01*
X75374Y149643D01*
X75415Y149532D01*
X75444Y149403D01*
Y149397D01*
X75450Y149386D01*
Y149368D01*
X75456Y149345D01*
X75462Y149310D01*
X75468Y149269D01*
X75473Y149228D01*
X75485Y149175D01*
X75497Y149058D01*
X75508Y148918D01*
X75514Y148766D01*
X75520Y148602D01*
Y148596D01*
Y148578D01*
Y148555D01*
Y148526D01*
Y148485D01*
X75514Y148438D01*
X75508Y148327D01*
X75503Y148198D01*
X75491Y148058D01*
X75468Y147917D01*
X75444Y147783D01*
Y147777D01*
X75438Y147765D01*
Y147748D01*
X75432Y147724D01*
X75409Y147660D01*
X75386Y147578D01*
X75350Y147484D01*
X75310Y147391D01*
X75263Y147291D01*
X75204Y147198D01*
X75199Y147186D01*
X75175Y147157D01*
X75134Y147116D01*
X75087Y147063D01*
X75023Y147011D01*
X74953Y146946D01*
X74865Y146894D01*
X74771Y146841D01*
X74760Y146835D01*
X74725Y146823D01*
X74666Y146806D01*
X74590Y146782D01*
X74497Y146759D01*
X74391Y146741D01*
X74262Y146730D01*
X74128Y146724D01*
X74063D01*
X74028Y146730D01*
X73993D01*
X73900Y146741D01*
X73800Y146753D01*
X73689Y146771D01*
X73584Y146800D01*
X73479Y146841D01*
X73467Y146847D01*
X73438Y146864D01*
X73385Y146894D01*
X73326Y146934D01*
X73256Y146981D01*
X73186Y147046D01*
X73116Y147122D01*
X73046Y147204D01*
X73040Y147215D01*
X73016Y147245D01*
X72987Y147297D01*
X72952Y147362D01*
X72917Y147449D01*
X72876Y147549D01*
X72841Y147660D01*
X72806Y147783D01*
Y147789D01*
Y147800D01*
X72800Y147818D01*
X72794Y147847D01*
X72788Y147876D01*
X72782Y147917D01*
X72777Y147964D01*
X72771Y148017D01*
X72759Y148140D01*
X72747Y148274D01*
X72741Y148432D01*
X72736Y148602D01*
Y148608D01*
Y148625D01*
Y148649D01*
Y148684D01*
Y148725D01*
X72741Y148772D01*
X72747Y148883D01*
X72753Y149011D01*
X72765Y149152D01*
X72782Y149286D01*
X72806Y149421D01*
Y149427D01*
X72812Y149438D01*
Y149456D01*
X72823Y149479D01*
X72841Y149544D01*
X72864Y149620D01*
X72899Y149713D01*
X72940Y149813D01*
X72993Y149912D01*
X73052Y150006D01*
X73057Y150017D01*
X73081Y150047D01*
X73122Y150088D01*
X73168Y150140D01*
X73233Y150199D01*
X73303Y150257D01*
X73391Y150316D01*
X73484Y150363D01*
X73490D01*
X73496Y150368D01*
X73531Y150380D01*
X73590Y150404D01*
X73666Y150427D01*
X73759Y150445D01*
X73870Y150468D01*
X73993Y150480D01*
X74128Y150486D01*
X74192D01*
X74227Y150480D01*
D02*
G37*
G36*
X60082Y146800D02*
X59140D01*
X57900Y150409D01*
X58836D01*
X59626Y147958D01*
X60410Y150409D01*
X61328D01*
X60082Y146800D01*
D02*
G37*
G36*
X56650Y11286D02*
X55141D01*
Y10652D01*
X56529D01*
Y9984D01*
X55141D01*
Y9068D01*
X56650D01*
Y8400D01*
X54248D01*
Y11954D01*
X56650D01*
Y11286D01*
D02*
G37*
G36*
X59876D02*
X58827D01*
Y8400D01*
X57934D01*
Y11286D01*
X56886D01*
Y11954D01*
X59876D01*
Y11286D01*
D02*
G37*
G36*
X52572Y12011D02*
X52653D01*
X52750Y12000D01*
X52854Y11988D01*
X52969Y11971D01*
X53084Y11948D01*
X53096D01*
X53113Y11942D01*
X53136Y11937D01*
X53200Y11925D01*
X53275Y11902D01*
X53361Y11879D01*
X53459Y11850D01*
X53557Y11816D01*
X53655Y11775D01*
Y10969D01*
X53574D01*
X53563Y10975D01*
X53540Y10998D01*
X53493Y11027D01*
X53436Y11067D01*
X53367Y11107D01*
X53280Y11153D01*
X53188Y11199D01*
X53084Y11245D01*
X53079D01*
X53073Y11251D01*
X53056Y11257D01*
X53038Y11263D01*
X52981Y11286D01*
X52906Y11309D01*
X52820Y11326D01*
X52722Y11349D01*
X52612Y11361D01*
X52503Y11366D01*
X52434D01*
X52364Y11361D01*
X52290Y11349D01*
X52284D01*
X52272Y11343D01*
X52255D01*
X52232Y11338D01*
X52169Y11315D01*
X52094Y11286D01*
X52088D01*
X52082Y11280D01*
X52048Y11257D01*
X52002Y11222D01*
X51950Y11171D01*
Y11165D01*
X51938Y11159D01*
X51921Y11124D01*
X51904Y11067D01*
X51892Y11004D01*
Y10998D01*
Y10981D01*
X51898Y10957D01*
X51904Y10929D01*
X51915Y10894D01*
X51933Y10859D01*
X51955Y10825D01*
X51984Y10790D01*
X51990Y10785D01*
X52002Y10779D01*
X52030Y10762D01*
X52071Y10744D01*
X52117Y10721D01*
X52186Y10698D01*
X52261Y10669D01*
X52359Y10646D01*
X52364D01*
X52387Y10641D01*
X52422Y10629D01*
X52468Y10623D01*
X52520Y10612D01*
X52578Y10595D01*
X52704Y10566D01*
X52710D01*
X52733Y10560D01*
X52768Y10554D01*
X52814Y10543D01*
X52866Y10525D01*
X52923Y10508D01*
X53061Y10462D01*
X53067D01*
X53079Y10456D01*
X53096Y10451D01*
X53125Y10439D01*
X53188Y10410D01*
X53269Y10370D01*
X53355Y10318D01*
X53447Y10255D01*
X53534Y10180D01*
X53609Y10099D01*
X53614Y10088D01*
X53637Y10059D01*
X53666Y10007D01*
X53701Y9944D01*
X53735Y9857D01*
X53764Y9754D01*
X53787Y9638D01*
X53793Y9506D01*
Y9500D01*
Y9483D01*
Y9454D01*
X53787Y9420D01*
X53781Y9373D01*
X53770Y9322D01*
X53758Y9264D01*
X53741Y9201D01*
X53718Y9132D01*
X53689Y9062D01*
X53655Y8993D01*
X53614Y8924D01*
X53568Y8849D01*
X53511Y8780D01*
X53447Y8717D01*
X53373Y8653D01*
X53367Y8648D01*
X53355Y8642D01*
X53332Y8625D01*
X53298Y8602D01*
X53257Y8579D01*
X53205Y8556D01*
X53142Y8527D01*
X53079Y8498D01*
X52998Y8463D01*
X52917Y8435D01*
X52825Y8411D01*
X52722Y8388D01*
X52618Y8365D01*
X52503Y8348D01*
X52376Y8342D01*
X52249Y8337D01*
X52146D01*
X52105Y8342D01*
X52007Y8348D01*
X51892Y8354D01*
X51771Y8371D01*
X51650Y8388D01*
X51529Y8411D01*
X51524D01*
X51518Y8417D01*
X51500D01*
X51477Y8429D01*
X51420Y8446D01*
X51345Y8469D01*
X51259Y8492D01*
X51161Y8527D01*
X50959Y8607D01*
Y9454D01*
X51045D01*
X51051Y9443D01*
X51086Y9414D01*
X51143Y9373D01*
X51213Y9322D01*
X51299Y9270D01*
X51397Y9206D01*
X51512Y9155D01*
X51627Y9103D01*
X51633D01*
X51644Y9097D01*
X51662Y9091D01*
X51685Y9085D01*
X51748Y9068D01*
X51829Y9045D01*
X51921Y9022D01*
X52030Y9005D01*
X52140Y8993D01*
X52255Y8987D01*
X52307D01*
X52336Y8993D01*
X52370D01*
X52457Y8999D01*
X52462D01*
X52480Y9005D01*
X52503D01*
X52531Y9011D01*
X52595Y9028D01*
X52658Y9051D01*
X52664D01*
X52675Y9057D01*
X52693Y9068D01*
X52710Y9080D01*
X52762Y9114D01*
X52814Y9166D01*
X52820Y9172D01*
X52825Y9178D01*
X52837Y9195D01*
X52848Y9218D01*
X52871Y9275D01*
X52883Y9316D01*
Y9356D01*
Y9362D01*
Y9379D01*
X52877Y9402D01*
X52871Y9431D01*
X52854Y9466D01*
X52837Y9500D01*
X52808Y9535D01*
X52773Y9569D01*
X52768Y9575D01*
X52756Y9581D01*
X52733Y9598D01*
X52704Y9615D01*
X52670Y9638D01*
X52624Y9661D01*
X52526Y9696D01*
X52520D01*
X52491Y9702D01*
X52457Y9713D01*
X52411Y9725D01*
X52347Y9736D01*
X52284Y9754D01*
X52209Y9765D01*
X52134Y9782D01*
X52123D01*
X52100Y9788D01*
X52059Y9800D01*
X52013Y9811D01*
X51950Y9828D01*
X51886Y9846D01*
X51748Y9892D01*
X51742D01*
X51731Y9898D01*
X51708Y9909D01*
X51679Y9921D01*
X51650Y9932D01*
X51610Y9949D01*
X51524Y9995D01*
X51426Y10053D01*
X51328Y10116D01*
X51236Y10197D01*
X51161Y10283D01*
Y10289D01*
X51155Y10295D01*
X51132Y10330D01*
X51103Y10381D01*
X51074Y10456D01*
X51040Y10543D01*
X51011Y10646D01*
X50988Y10767D01*
X50982Y10900D01*
Y10906D01*
Y10923D01*
X50988Y10946D01*
Y10981D01*
X50994Y11027D01*
X51005Y11073D01*
X51034Y11188D01*
X51057Y11251D01*
X51086Y11315D01*
X51120Y11384D01*
X51161Y11447D01*
X51207Y11516D01*
X51264Y11585D01*
X51328Y11649D01*
X51403Y11706D01*
X51408Y11712D01*
X51420Y11718D01*
X51443Y11735D01*
X51477Y11752D01*
X51518Y11781D01*
X51570Y11804D01*
X51627Y11833D01*
X51691Y11862D01*
X51765Y11891D01*
X51846Y11919D01*
X51933Y11948D01*
X52025Y11971D01*
X52123Y11988D01*
X52232Y12006D01*
X52341Y12011D01*
X52457Y12017D01*
X52508D01*
X52572Y12011D01*
D02*
G37*
G36*
X66289Y149526D02*
X66353D01*
X66388Y149520D01*
Y148719D01*
X66312D01*
X66306Y148725D01*
X66277Y148731D01*
X66236Y148736D01*
X66172Y148742D01*
X66154D01*
X66137Y148748D01*
X66113D01*
X66049Y148754D01*
X65920D01*
X65885Y148748D01*
X65844Y148742D01*
X65798Y148736D01*
X65686Y148713D01*
X65680D01*
X65663Y148707D01*
X65634Y148695D01*
X65599Y148684D01*
X65552Y148672D01*
X65505Y148654D01*
X65406Y148619D01*
Y146800D01*
X64557D01*
Y149520D01*
X65406D01*
Y149128D01*
X65417Y149140D01*
X65447Y149163D01*
X65493Y149210D01*
X65563Y149263D01*
X65569Y149269D01*
X65581Y149275D01*
X65599Y149292D01*
X65628Y149310D01*
X65686Y149351D01*
X65751Y149392D01*
X65757D01*
X65768Y149403D01*
X65786Y149415D01*
X65815Y149427D01*
X65879Y149456D01*
X65967Y149491D01*
X65973D01*
X65991Y149497D01*
X66014Y149503D01*
X66043Y149514D01*
X66119Y149526D01*
X66201Y149532D01*
X66254D01*
X66289Y149526D01*
D02*
G37*
G36*
X46201Y11948D02*
X46282Y11942D01*
X46368Y11937D01*
X46455Y11925D01*
X46541Y11914D01*
X46553D01*
X46576Y11908D01*
X46622Y11896D01*
X46674Y11879D01*
X46737Y11862D01*
X46806Y11833D01*
X46875Y11798D01*
X46944Y11758D01*
X46956Y11752D01*
X46979Y11735D01*
X47013Y11712D01*
X47054Y11672D01*
X47106Y11631D01*
X47157Y11574D01*
X47203Y11516D01*
X47250Y11447D01*
X47255Y11441D01*
X47267Y11412D01*
X47284Y11372D01*
X47307Y11320D01*
X47330Y11251D01*
X47348Y11171D01*
X47359Y11078D01*
X47365Y10975D01*
Y10969D01*
Y10957D01*
Y10934D01*
Y10906D01*
X47359Y10871D01*
X47353Y10831D01*
X47342Y10739D01*
X47319Y10635D01*
X47290Y10525D01*
X47244Y10416D01*
X47181Y10312D01*
X47175Y10301D01*
X47146Y10272D01*
X47106Y10226D01*
X47048Y10168D01*
X46979Y10105D01*
X46892Y10036D01*
X46795Y9973D01*
X46685Y9909D01*
X47883Y8400D01*
X46795D01*
X45804Y9702D01*
X45493D01*
Y8400D01*
X44600D01*
Y11954D01*
X46132D01*
X46201Y11948D01*
D02*
G37*
G36*
X50550Y11286D02*
X49041D01*
Y10652D01*
X50429D01*
Y9984D01*
X49041D01*
Y9068D01*
X50550D01*
Y8400D01*
X48148D01*
Y11954D01*
X50550D01*
Y11286D01*
D02*
G37*
G36*
X71446Y139904D02*
X71545D01*
X71645Y139898D01*
X71744Y139886D01*
X71826Y139874D01*
X71838D01*
X71861Y139868D01*
X71902Y139863D01*
X71949Y139851D01*
X72013Y139833D01*
X72078Y139810D01*
X72142Y139787D01*
X72212Y139752D01*
X72218Y139746D01*
X72241Y139734D01*
X72277Y139710D01*
X72324Y139675D01*
X72364Y139635D01*
X72417Y139588D01*
X72458Y139535D01*
X72499Y139471D01*
X72505Y139465D01*
X72517Y139442D01*
X72528Y139400D01*
X72552Y139354D01*
X72569Y139295D01*
X72581Y139225D01*
X72593Y139149D01*
X72598Y139067D01*
Y139055D01*
Y139020D01*
X72593Y138973D01*
X72581Y138909D01*
X72563Y138833D01*
X72540Y138757D01*
X72511Y138675D01*
X72464Y138593D01*
X72458Y138582D01*
X72440Y138558D01*
X72411Y138523D01*
X72370Y138476D01*
X72318Y138429D01*
X72259Y138377D01*
X72183Y138330D01*
X72101Y138289D01*
Y138271D01*
X72107D01*
X72119Y138266D01*
X72136D01*
X72154Y138260D01*
X72218Y138236D01*
X72294Y138207D01*
X72376Y138172D01*
X72464Y138119D01*
X72552Y138061D01*
X72633Y137985D01*
X72645Y137973D01*
X72669Y137944D01*
X72698Y137897D01*
X72739Y137833D01*
X72774Y137745D01*
X72809Y137645D01*
X72832Y137529D01*
X72838Y137400D01*
Y137388D01*
Y137353D01*
X72832Y137306D01*
X72826Y137242D01*
X72815Y137166D01*
X72791Y137084D01*
X72768Y137008D01*
X72733Y136926D01*
X72727Y136920D01*
X72715Y136891D01*
X72692Y136856D01*
X72663Y136809D01*
X72622Y136756D01*
X72575Y136704D01*
X72522Y136645D01*
X72458Y136592D01*
X72446Y136587D01*
X72423Y136569D01*
X72382Y136540D01*
X72329Y136505D01*
X72265Y136470D01*
X72189Y136429D01*
X72101Y136394D01*
X72013Y136364D01*
X72002D01*
X71967Y136353D01*
X71914Y136347D01*
X71844Y136335D01*
X71756Y136323D01*
X71651Y136312D01*
X71528Y136306D01*
X71393Y136300D01*
X69954D01*
Y139909D01*
X71358D01*
X71446Y139904D01*
D02*
G37*
G36*
X77483Y139096D02*
X77542D01*
X77606Y139091D01*
X77676Y139085D01*
X77758Y139073D01*
X77922Y139044D01*
X78092Y139003D01*
X78255Y138944D01*
X78325Y138903D01*
X78390Y138862D01*
X78396D01*
X78402Y138851D01*
X78443Y138821D01*
X78489Y138763D01*
X78554Y138687D01*
X78612Y138587D01*
X78659Y138464D01*
X78700Y138318D01*
X78706Y138236D01*
X78712Y138149D01*
Y136300D01*
X77863D01*
Y136587D01*
X77858Y136581D01*
X77852Y136575D01*
X77811Y136540D01*
X77758Y136499D01*
X77705Y136452D01*
X77700D01*
X77694Y136440D01*
X77676Y136429D01*
X77659Y136417D01*
X77600Y136382D01*
X77524Y136341D01*
X77518D01*
X77507Y136335D01*
X77483Y136323D01*
X77454Y136312D01*
X77384Y136282D01*
X77302Y136259D01*
X77296D01*
X77284Y136253D01*
X77261Y136247D01*
X77226D01*
X77185Y136241D01*
X77132Y136236D01*
X77074Y136230D01*
X76968D01*
X76945Y136236D01*
X76875Y136241D01*
X76793Y136259D01*
X76699Y136288D01*
X76600Y136329D01*
X76500Y136388D01*
X76407Y136470D01*
X76395Y136481D01*
X76372Y136511D01*
X76331Y136563D01*
X76290Y136633D01*
X76249Y136721D01*
X76208Y136827D01*
X76184Y136943D01*
X76173Y137078D01*
Y137084D01*
Y137090D01*
Y137107D01*
Y137131D01*
X76179Y137183D01*
X76190Y137253D01*
X76202Y137330D01*
X76220Y137411D01*
X76249Y137493D01*
X76290Y137569D01*
X76296Y137575D01*
X76313Y137599D01*
X76342Y137634D01*
X76377Y137675D01*
X76430Y137722D01*
X76489Y137774D01*
X76559Y137821D01*
X76635Y137862D01*
X76647Y137868D01*
X76676Y137880D01*
X76723Y137897D01*
X76787Y137920D01*
X76869Y137950D01*
X76963Y137973D01*
X77068Y137996D01*
X77179Y138014D01*
X77197D01*
X77214Y138020D01*
X77237D01*
X77267Y138026D01*
X77302Y138032D01*
X77384Y138043D01*
X77489Y138055D01*
X77606Y138067D01*
X77729Y138078D01*
X77863Y138090D01*
Y138102D01*
Y138113D01*
Y138137D01*
X77858Y138178D01*
X77846Y138225D01*
X77823Y138277D01*
X77793Y138330D01*
X77752Y138377D01*
X77700Y138418D01*
X77694Y138424D01*
X77670Y138435D01*
X77629Y138447D01*
X77577Y138464D01*
X77507Y138482D01*
X77425Y138500D01*
X77325Y138505D01*
X77208Y138511D01*
X77150D01*
X77109Y138505D01*
X77056Y138500D01*
X76998Y138488D01*
X76927Y138470D01*
X76857Y138453D01*
X76851D01*
X76822Y138441D01*
X76787Y138429D01*
X76734Y138412D01*
X76676Y138394D01*
X76612Y138371D01*
X76471Y138312D01*
X76401D01*
Y138962D01*
X76407D01*
X76424Y138968D01*
X76454Y138979D01*
X76500Y138991D01*
X76553Y139003D01*
X76623Y139014D01*
X76705Y139032D01*
X76805Y139049D01*
X76816D01*
X76851Y139055D01*
X76910Y139067D01*
X76980Y139079D01*
X77068Y139085D01*
X77161Y139096D01*
X77261Y139102D01*
X77430D01*
X77483Y139096D01*
D02*
G37*
G36*
X66825Y139904D02*
X66912Y139898D01*
X67000Y139886D01*
X67088Y139868D01*
X67176Y139851D01*
X67187D01*
X67216Y139839D01*
X67257Y139828D01*
X67316Y139804D01*
X67380Y139781D01*
X67445Y139752D01*
X67521Y139710D01*
X67591Y139670D01*
X67602Y139664D01*
X67626Y139646D01*
X67661Y139617D01*
X67702Y139576D01*
X67755Y139523D01*
X67807Y139459D01*
X67854Y139389D01*
X67901Y139307D01*
X67907Y139295D01*
X67918Y139266D01*
X67936Y139219D01*
X67959Y139155D01*
X67983Y139073D01*
X68000Y138985D01*
X68012Y138880D01*
X68018Y138769D01*
Y138757D01*
Y138728D01*
X68012Y138675D01*
X68006Y138617D01*
X68000Y138541D01*
X67983Y138459D01*
X67965Y138377D01*
X67936Y138289D01*
X67930Y138277D01*
X67918Y138254D01*
X67901Y138207D01*
X67877Y138154D01*
X67842Y138096D01*
X67807Y138032D01*
X67760Y137967D01*
X67708Y137909D01*
X67702Y137903D01*
X67690Y137891D01*
X67673Y137874D01*
X67649Y137850D01*
X67585Y137798D01*
X67503Y137733D01*
X67497Y137727D01*
X67485Y137722D01*
X67462Y137704D01*
X67433Y137686D01*
X67398Y137663D01*
X67357Y137640D01*
X67263Y137599D01*
X67257D01*
X67240Y137587D01*
X67211Y137581D01*
X67176Y137564D01*
X67134Y137552D01*
X67082Y137534D01*
X66971Y137511D01*
X66965D01*
X66941Y137505D01*
X66912Y137499D01*
X66871D01*
X66819Y137493D01*
X66760Y137488D01*
X66690Y137482D01*
X66152D01*
Y136300D01*
X65245D01*
Y139909D01*
X66754D01*
X66825Y139904D01*
D02*
G37*
%LPC*%
G36*
X98315Y5705D02*
X98288D01*
X98269Y5702D01*
X98223Y5694D01*
X98165Y5679D01*
X98161D01*
X98153Y5675D01*
X98138Y5671D01*
X98119Y5663D01*
X98073Y5640D01*
X98023Y5609D01*
Y4707D01*
X98027D01*
X98031Y4703D01*
X98057Y4696D01*
X98092Y4688D01*
X98130Y4680D01*
X98142D01*
X98153Y4676D01*
X98165D01*
X98203Y4673D01*
X98265D01*
X98280Y4676D01*
X98315Y4680D01*
X98361Y4688D01*
X98411Y4703D01*
X98461Y4726D01*
X98507Y4761D01*
X98549Y4803D01*
X98553Y4811D01*
X98564Y4830D01*
X98580Y4861D01*
X98599Y4903D01*
X98618Y4961D01*
X98633Y5030D01*
X98645Y5110D01*
X98649Y5206D01*
Y5210D01*
Y5218D01*
Y5233D01*
Y5249D01*
X98645Y5298D01*
X98637Y5356D01*
X98630Y5417D01*
X98614Y5483D01*
X98591Y5540D01*
X98564Y5590D01*
X98561Y5594D01*
X98549Y5609D01*
X98530Y5629D01*
X98503Y5648D01*
X98468Y5671D01*
X98426Y5686D01*
X98372Y5702D01*
X98315Y5705D01*
D02*
G37*
G36*
X62802Y149064D02*
X62761D01*
X62714Y149058D01*
X62662Y149046D01*
X62598Y149029D01*
X62533Y149000D01*
X62469Y148965D01*
X62410Y148912D01*
X62405Y148906D01*
X62387Y148883D01*
X62369Y148853D01*
X62340Y148807D01*
X62317Y148748D01*
X62287Y148678D01*
X62270Y148596D01*
X62258Y148508D01*
X63288D01*
Y148514D01*
Y148520D01*
X63282Y148555D01*
X63276Y148602D01*
X63270Y148660D01*
X63253Y148725D01*
X63229Y148795D01*
X63200Y148859D01*
X63159Y148918D01*
X63153Y148924D01*
X63136Y148941D01*
X63112Y148965D01*
X63071Y148994D01*
X63019Y149017D01*
X62960Y149041D01*
X62884Y149058D01*
X62802Y149064D01*
D02*
G37*
G36*
X93830Y6224D02*
X93695D01*
Y4745D01*
X93929D01*
X93983Y4749D01*
X94045D01*
X94060Y4753D01*
X94087Y4757D01*
X94121Y4765D01*
X94160Y4772D01*
X94206Y4788D01*
X94252Y4807D01*
X94298Y4834D01*
X94306Y4838D01*
X94321Y4849D01*
X94348Y4872D01*
X94383Y4899D01*
X94417Y4937D01*
X94455Y4980D01*
X94490Y5030D01*
X94521Y5087D01*
Y5091D01*
X94525Y5095D01*
X94532Y5118D01*
X94544Y5153D01*
X94559Y5199D01*
X94575Y5256D01*
X94586Y5325D01*
X94594Y5398D01*
X94598Y5483D01*
Y5487D01*
Y5494D01*
Y5506D01*
Y5521D01*
X94594Y5567D01*
X94586Y5621D01*
X94578Y5682D01*
X94563Y5751D01*
X94544Y5817D01*
X94517Y5882D01*
Y5886D01*
X94513Y5890D01*
X94502Y5909D01*
X94482Y5940D01*
X94455Y5978D01*
X94421Y6020D01*
X94379Y6063D01*
X94329Y6105D01*
X94271Y6143D01*
X94267Y6147D01*
X94252Y6155D01*
X94225Y6166D01*
X94194Y6178D01*
X94156Y6189D01*
X94114Y6201D01*
X94068Y6212D01*
X94018Y6216D01*
X93995D01*
X93968Y6220D01*
X93883D01*
X93830Y6224D01*
D02*
G37*
G36*
X74511Y138494D02*
X74470D01*
X74447Y138488D01*
X74377Y138482D01*
X74307Y138459D01*
X74301D01*
X74289Y138453D01*
X74277Y138441D01*
X74254Y138429D01*
X74201Y138388D01*
X74172Y138359D01*
X74143Y138324D01*
X74137Y138318D01*
X74131Y138306D01*
X74119Y138283D01*
X74102Y138254D01*
X74078Y138219D01*
X74061Y138172D01*
X74043Y138119D01*
X74026Y138061D01*
Y138055D01*
X74020Y138032D01*
X74014Y137996D01*
X74008Y137950D01*
X73997Y137891D01*
X73991Y137821D01*
X73985Y137739D01*
Y137651D01*
Y137640D01*
Y137610D01*
Y137564D01*
X73991Y137505D01*
Y137441D01*
X74002Y137376D01*
X74008Y137306D01*
X74020Y137248D01*
Y137242D01*
X74026Y137224D01*
X74037Y137195D01*
X74049Y137160D01*
X74084Y137078D01*
X74125Y137002D01*
X74131Y136996D01*
X74137Y136984D01*
X74172Y136949D01*
X74225Y136908D01*
X74295Y136867D01*
X74301D01*
X74313Y136862D01*
X74336Y136856D01*
X74359Y136850D01*
X74429Y136832D01*
X74517Y136827D01*
X74552D01*
X74582Y136832D01*
X74646Y136844D01*
X74722Y136867D01*
X74728D01*
X74739Y136873D01*
X74757Y136885D01*
X74780Y136897D01*
X74839Y136938D01*
X74892Y136996D01*
X74897Y137002D01*
X74903Y137014D01*
X74915Y137037D01*
X74933Y137066D01*
X74950Y137101D01*
X74968Y137148D01*
X75003Y137248D01*
Y137253D01*
X75009Y137277D01*
X75014Y137306D01*
X75026Y137353D01*
X75032Y137411D01*
X75038Y137482D01*
X75044Y137558D01*
Y137651D01*
Y137663D01*
Y137692D01*
Y137733D01*
X75038Y137792D01*
X75032Y137856D01*
X75026Y137920D01*
X75014Y137985D01*
X75003Y138049D01*
Y138055D01*
X74997Y138078D01*
X74985Y138108D01*
X74973Y138143D01*
X74938Y138231D01*
X74915Y138271D01*
X74892Y138312D01*
X74886Y138318D01*
X74880Y138330D01*
X74845Y138365D01*
X74786Y138412D01*
X74722Y138453D01*
X74716D01*
X74704Y138459D01*
X74687Y138464D01*
X74664Y138476D01*
X74593Y138488D01*
X74511Y138494D01*
D02*
G37*
G36*
X45890Y11303D02*
X45493D01*
Y10341D01*
X45850D01*
X45896Y10347D01*
X45948D01*
X46051Y10358D01*
X46057D01*
X46075Y10364D01*
X46098Y10370D01*
X46126Y10381D01*
X46201Y10410D01*
X46270Y10456D01*
X46276Y10462D01*
X46282Y10468D01*
X46316Y10502D01*
X46363Y10554D01*
X46397Y10618D01*
Y10623D01*
X46403Y10635D01*
X46414Y10658D01*
X46420Y10681D01*
X46432Y10721D01*
X46437Y10762D01*
X46443Y10808D01*
Y10865D01*
Y10871D01*
Y10888D01*
Y10911D01*
X46437Y10946D01*
X46420Y11021D01*
X46391Y11096D01*
Y11101D01*
X46380Y11113D01*
X46368Y11130D01*
X46351Y11153D01*
X46328Y11176D01*
X46299Y11199D01*
X46259Y11222D01*
X46219Y11245D01*
X46213D01*
X46207Y11251D01*
X46190Y11257D01*
X46167Y11263D01*
X46109Y11280D01*
X46034Y11292D01*
X46017D01*
X45994Y11297D01*
X45931D01*
X45890Y11303D01*
D02*
G37*
G36*
X77863Y137581D02*
X77852D01*
X77828Y137575D01*
X77787D01*
X77741Y137569D01*
X77682Y137564D01*
X77629Y137552D01*
X77571Y137546D01*
X77518Y137540D01*
X77512D01*
X77495Y137534D01*
X77472D01*
X77436Y137529D01*
X77401Y137517D01*
X77354Y137511D01*
X77261Y137482D01*
X77255D01*
X77243Y137476D01*
X77220Y137464D01*
X77197Y137452D01*
X77144Y137411D01*
X77091Y137359D01*
Y137353D01*
X77079Y137347D01*
X77074Y137330D01*
X77062Y137306D01*
X77050Y137277D01*
X77044Y137242D01*
X77033Y137154D01*
Y137148D01*
Y137125D01*
X77039Y137090D01*
X77044Y137049D01*
X77056Y137008D01*
X77074Y136961D01*
X77097Y136920D01*
X77132Y136891D01*
X77138D01*
X77150Y136879D01*
X77173Y136867D01*
X77208Y136856D01*
X77249Y136844D01*
X77302Y136832D01*
X77360Y136827D01*
X77430Y136821D01*
X77472D01*
X77501Y136827D01*
X77571Y136838D01*
X77653Y136867D01*
X77659D01*
X77670Y136879D01*
X77694Y136891D01*
X77723Y136908D01*
X77793Y136949D01*
X77863Y137014D01*
Y137581D01*
D02*
G37*
G36*
X55797Y138494D02*
X55756D01*
X55733Y138488D01*
X55663Y138482D01*
X55592Y138459D01*
X55587D01*
X55575Y138453D01*
X55563Y138441D01*
X55540Y138429D01*
X55487Y138388D01*
X55458Y138359D01*
X55429Y138324D01*
X55423Y138318D01*
X55417Y138306D01*
X55405Y138283D01*
X55388Y138254D01*
X55364Y138219D01*
X55347Y138172D01*
X55329Y138119D01*
X55312Y138061D01*
Y138055D01*
X55306Y138032D01*
X55300Y137996D01*
X55294Y137950D01*
X55282Y137891D01*
X55277Y137821D01*
X55271Y137739D01*
Y137651D01*
Y137640D01*
Y137610D01*
Y137564D01*
X55277Y137505D01*
Y137441D01*
X55288Y137376D01*
X55294Y137306D01*
X55306Y137248D01*
Y137242D01*
X55312Y137224D01*
X55323Y137195D01*
X55335Y137160D01*
X55370Y137078D01*
X55411Y137002D01*
X55417Y136996D01*
X55423Y136984D01*
X55458Y136949D01*
X55511Y136908D01*
X55581Y136867D01*
X55587D01*
X55598Y136862D01*
X55622Y136856D01*
X55645Y136850D01*
X55715Y136832D01*
X55803Y136827D01*
X55838D01*
X55867Y136832D01*
X55932Y136844D01*
X56008Y136867D01*
X56014D01*
X56025Y136873D01*
X56043Y136885D01*
X56066Y136897D01*
X56125Y136938D01*
X56177Y136996D01*
X56183Y137002D01*
X56189Y137014D01*
X56201Y137037D01*
X56218Y137066D01*
X56236Y137101D01*
X56253Y137148D01*
X56289Y137248D01*
Y137253D01*
X56294Y137277D01*
X56300Y137306D01*
X56312Y137353D01*
X56318Y137411D01*
X56324Y137482D01*
X56330Y137558D01*
Y137651D01*
Y137663D01*
Y137692D01*
Y137733D01*
X56324Y137792D01*
X56318Y137856D01*
X56312Y137920D01*
X56300Y137985D01*
X56289Y138049D01*
Y138055D01*
X56283Y138078D01*
X56271Y138108D01*
X56259Y138143D01*
X56224Y138231D01*
X56201Y138271D01*
X56177Y138312D01*
X56172Y138318D01*
X56166Y138330D01*
X56131Y138365D01*
X56072Y138412D01*
X56008Y138453D01*
X56002D01*
X55990Y138459D01*
X55973Y138464D01*
X55949Y138476D01*
X55879Y138488D01*
X55797Y138494D01*
D02*
G37*
G36*
X109243Y6224D02*
X109109D01*
Y4745D01*
X109343D01*
X109397Y4749D01*
X109458D01*
X109474Y4753D01*
X109501Y4757D01*
X109535Y4765D01*
X109574Y4772D01*
X109620Y4788D01*
X109666Y4807D01*
X109712Y4834D01*
X109720Y4838D01*
X109735Y4849D01*
X109762Y4872D01*
X109796Y4899D01*
X109831Y4937D01*
X109869Y4980D01*
X109904Y5030D01*
X109935Y5087D01*
Y5091D01*
X109938Y5095D01*
X109946Y5118D01*
X109958Y5153D01*
X109973Y5199D01*
X109988Y5256D01*
X110000Y5325D01*
X110008Y5398D01*
X110011Y5483D01*
Y5487D01*
Y5494D01*
Y5506D01*
Y5521D01*
X110008Y5567D01*
X110000Y5621D01*
X109992Y5682D01*
X109977Y5751D01*
X109958Y5817D01*
X109931Y5882D01*
Y5886D01*
X109927Y5890D01*
X109915Y5909D01*
X109896Y5940D01*
X109869Y5978D01*
X109835Y6020D01*
X109792Y6063D01*
X109743Y6105D01*
X109685Y6143D01*
X109681Y6147D01*
X109666Y6155D01*
X109639Y6166D01*
X109608Y6178D01*
X109570Y6189D01*
X109528Y6201D01*
X109481Y6212D01*
X109432Y6216D01*
X109408D01*
X109382Y6220D01*
X109297D01*
X109243Y6224D01*
D02*
G37*
G36*
X82680Y143370D02*
X82668D01*
X82633Y143365D01*
X82575Y143359D01*
X82511Y143347D01*
X82434Y143318D01*
X82358Y143283D01*
X82288Y143236D01*
X82224Y143166D01*
X82218Y143154D01*
X82200Y143131D01*
X82177Y143084D01*
X82148Y143019D01*
X82119Y142943D01*
X82095Y142850D01*
X82078Y142739D01*
X82072Y142610D01*
Y142604D01*
Y142581D01*
Y142545D01*
Y142505D01*
X82078Y142405D01*
X82089Y142306D01*
Y142300D01*
X82095Y142288D01*
X82101Y142265D01*
X82107Y142235D01*
X82136Y142165D01*
X82177Y142089D01*
X82183Y142083D01*
X82189Y142072D01*
X82224Y142037D01*
X82271Y141990D01*
X82335Y141949D01*
X82341D01*
X82353Y141943D01*
X82376Y141937D01*
X82405Y141925D01*
X82440Y141920D01*
X82481Y141908D01*
X82534Y141902D01*
X82627D01*
X82657Y141908D01*
X82733Y141920D01*
X82815Y141937D01*
X82821D01*
X82832Y141943D01*
X82856Y141955D01*
X82885Y141966D01*
X82949Y142001D01*
X83025Y142048D01*
Y143300D01*
X83014Y143306D01*
X82984Y143318D01*
X82932Y143335D01*
X82867Y143347D01*
X82862D01*
X82850Y143353D01*
X82832D01*
X82809Y143359D01*
X82750Y143365D01*
X82680Y143370D01*
D02*
G37*
G36*
X66409Y139231D02*
X66152D01*
Y138160D01*
X66514D01*
X66579Y138166D01*
X66649Y138178D01*
X66661D01*
X66696Y138190D01*
X66743Y138201D01*
X66795Y138225D01*
X66801D01*
X66807Y138231D01*
X66842Y138248D01*
X66883Y138271D01*
X66924Y138301D01*
X66930Y138306D01*
X66936Y138318D01*
X66953Y138336D01*
X66971Y138359D01*
X67012Y138412D01*
X67047Y138482D01*
Y138488D01*
X67053Y138500D01*
X67058Y138523D01*
X67064Y138552D01*
X67070Y138587D01*
X67076Y138634D01*
X67082Y138687D01*
Y138745D01*
Y138751D01*
Y138769D01*
X67076Y138798D01*
X67070Y138833D01*
X67053Y138921D01*
X67029Y138962D01*
X67006Y139003D01*
X67000Y139008D01*
X66994Y139020D01*
X66976Y139038D01*
X66959Y139061D01*
X66906Y139114D01*
X66871Y139137D01*
X66836Y139155D01*
X66830D01*
X66813Y139166D01*
X66789Y139172D01*
X66760Y139184D01*
X66678Y139207D01*
X66590Y139219D01*
X66567D01*
X66544Y139225D01*
X66462D01*
X66409Y139231D01*
D02*
G37*
G36*
X71188Y139248D02*
X70861D01*
Y138482D01*
X71311D01*
X71329Y138488D01*
X71352Y138494D01*
X71417Y138505D01*
X71487Y138535D01*
X71493D01*
X71504Y138546D01*
X71522Y138558D01*
X71545Y138570D01*
X71598Y138617D01*
X71622Y138646D01*
X71639Y138675D01*
Y138681D01*
X71645Y138693D01*
X71651Y138710D01*
X71662Y138740D01*
X71674Y138804D01*
X71680Y138886D01*
Y138892D01*
Y138903D01*
Y138921D01*
X71674Y138944D01*
X71662Y138997D01*
X71633Y139067D01*
Y139073D01*
X71627Y139085D01*
X71598Y139120D01*
X71557Y139161D01*
X71493Y139202D01*
X71487D01*
X71475Y139207D01*
X71458Y139213D01*
X71434Y139219D01*
X71370Y139237D01*
X71282Y139243D01*
X71229D01*
X71188Y139248D01*
D02*
G37*
G36*
X69740Y143394D02*
X69699D01*
X69676Y143388D01*
X69605Y143382D01*
X69535Y143359D01*
X69529D01*
X69518Y143353D01*
X69506Y143341D01*
X69483Y143329D01*
X69430Y143288D01*
X69401Y143259D01*
X69371Y143224D01*
X69366Y143218D01*
X69360Y143207D01*
X69348Y143183D01*
X69330Y143154D01*
X69307Y143119D01*
X69289Y143072D01*
X69272Y143019D01*
X69254Y142961D01*
Y142955D01*
X69249Y142932D01*
X69243Y142896D01*
X69237Y142850D01*
X69225Y142791D01*
X69219Y142721D01*
X69213Y142639D01*
Y142551D01*
Y142540D01*
Y142510D01*
Y142464D01*
X69219Y142405D01*
Y142341D01*
X69231Y142276D01*
X69237Y142206D01*
X69249Y142148D01*
Y142142D01*
X69254Y142124D01*
X69266Y142095D01*
X69278Y142060D01*
X69313Y141978D01*
X69354Y141902D01*
X69360Y141896D01*
X69366Y141884D01*
X69401Y141849D01*
X69453Y141808D01*
X69524Y141768D01*
X69529D01*
X69541Y141762D01*
X69564Y141756D01*
X69588Y141750D01*
X69658Y141732D01*
X69746Y141727D01*
X69781D01*
X69810Y141732D01*
X69875Y141744D01*
X69950Y141768D01*
X69956D01*
X69968Y141773D01*
X69986Y141785D01*
X70009Y141797D01*
X70068Y141838D01*
X70120Y141896D01*
X70126Y141902D01*
X70132Y141914D01*
X70144Y141937D01*
X70161Y141966D01*
X70179Y142001D01*
X70196Y142048D01*
X70231Y142148D01*
Y142154D01*
X70237Y142177D01*
X70243Y142206D01*
X70255Y142253D01*
X70261Y142312D01*
X70266Y142382D01*
X70272Y142458D01*
Y142551D01*
Y142563D01*
Y142592D01*
Y142633D01*
X70266Y142692D01*
X70261Y142756D01*
X70255Y142821D01*
X70243Y142885D01*
X70231Y142949D01*
Y142955D01*
X70226Y142978D01*
X70214Y143008D01*
X70202Y143043D01*
X70167Y143131D01*
X70144Y143172D01*
X70120Y143212D01*
X70114Y143218D01*
X70108Y143230D01*
X70073Y143265D01*
X70015Y143312D01*
X69950Y143353D01*
X69945D01*
X69933Y143359D01*
X69915Y143365D01*
X69892Y143376D01*
X69822Y143388D01*
X69740Y143394D01*
D02*
G37*
G36*
X77386D02*
X77345D01*
X77322Y143388D01*
X77251Y143382D01*
X77181Y143359D01*
X77175D01*
X77164Y143353D01*
X77152Y143341D01*
X77128Y143329D01*
X77076Y143288D01*
X77047Y143259D01*
X77017Y143224D01*
X77012Y143218D01*
X77006Y143207D01*
X76994Y143183D01*
X76976Y143154D01*
X76953Y143119D01*
X76935Y143072D01*
X76918Y143019D01*
X76900Y142961D01*
Y142955D01*
X76894Y142932D01*
X76889Y142896D01*
X76883Y142850D01*
X76871Y142791D01*
X76865Y142721D01*
X76859Y142639D01*
Y142551D01*
Y142540D01*
Y142510D01*
Y142464D01*
X76865Y142405D01*
Y142341D01*
X76877Y142276D01*
X76883Y142206D01*
X76894Y142148D01*
Y142142D01*
X76900Y142124D01*
X76912Y142095D01*
X76924Y142060D01*
X76959Y141978D01*
X77000Y141902D01*
X77006Y141896D01*
X77012Y141884D01*
X77047Y141849D01*
X77099Y141808D01*
X77169Y141768D01*
X77175D01*
X77187Y141762D01*
X77210Y141756D01*
X77234Y141750D01*
X77304Y141732D01*
X77392Y141727D01*
X77427D01*
X77456Y141732D01*
X77521Y141744D01*
X77596Y141768D01*
X77602D01*
X77614Y141773D01*
X77632Y141785D01*
X77655Y141797D01*
X77714Y141838D01*
X77766Y141896D01*
X77772Y141902D01*
X77778Y141914D01*
X77789Y141937D01*
X77807Y141966D01*
X77825Y142001D01*
X77842Y142048D01*
X77877Y142148D01*
Y142154D01*
X77883Y142177D01*
X77889Y142206D01*
X77901Y142253D01*
X77907Y142312D01*
X77912Y142382D01*
X77918Y142458D01*
Y142551D01*
Y142563D01*
Y142592D01*
Y142633D01*
X77912Y142692D01*
X77907Y142756D01*
X77901Y142821D01*
X77889Y142885D01*
X77877Y142949D01*
Y142955D01*
X77872Y142978D01*
X77860Y143008D01*
X77848Y143043D01*
X77813Y143131D01*
X77789Y143172D01*
X77766Y143212D01*
X77760Y143218D01*
X77754Y143230D01*
X77719Y143265D01*
X77661Y143312D01*
X77596Y143353D01*
X77591D01*
X77579Y143359D01*
X77561Y143365D01*
X77538Y143376D01*
X77468Y143388D01*
X77386Y143394D01*
D02*
G37*
G36*
X96314Y5786D02*
X96287D01*
X96257Y5782D01*
X96222Y5775D01*
X96180Y5763D01*
X96137Y5744D01*
X96095Y5721D01*
X96057Y5686D01*
X96053Y5682D01*
X96041Y5667D01*
X96030Y5648D01*
X96011Y5617D01*
X95995Y5579D01*
X95976Y5533D01*
X95965Y5479D01*
X95957Y5421D01*
X96633D01*
Y5425D01*
Y5429D01*
X96629Y5452D01*
X96625Y5483D01*
X96621Y5521D01*
X96610Y5563D01*
X96594Y5609D01*
X96575Y5652D01*
X96548Y5690D01*
X96544Y5694D01*
X96533Y5705D01*
X96518Y5721D01*
X96491Y5740D01*
X96456Y5755D01*
X96418Y5771D01*
X96368Y5782D01*
X96314Y5786D01*
D02*
G37*
G36*
X102454Y5725D02*
X102447D01*
X102424Y5721D01*
X102385Y5717D01*
X102343Y5709D01*
X102293Y5690D01*
X102243Y5667D01*
X102197Y5636D01*
X102155Y5590D01*
X102151Y5583D01*
X102139Y5567D01*
X102124Y5536D01*
X102105Y5494D01*
X102086Y5444D01*
X102070Y5383D01*
X102059Y5310D01*
X102055Y5225D01*
Y5222D01*
Y5206D01*
Y5183D01*
Y5156D01*
X102059Y5091D01*
X102066Y5026D01*
Y5022D01*
X102070Y5014D01*
X102074Y4999D01*
X102078Y4980D01*
X102097Y4934D01*
X102124Y4884D01*
X102128Y4880D01*
X102132Y4872D01*
X102155Y4849D01*
X102185Y4818D01*
X102228Y4792D01*
X102232D01*
X102239Y4788D01*
X102255Y4784D01*
X102274Y4776D01*
X102297Y4772D01*
X102324Y4765D01*
X102358Y4761D01*
X102420D01*
X102439Y4765D01*
X102489Y4772D01*
X102543Y4784D01*
X102546D01*
X102554Y4788D01*
X102569Y4795D01*
X102589Y4803D01*
X102631Y4826D01*
X102681Y4857D01*
Y5679D01*
X102673Y5682D01*
X102654Y5690D01*
X102619Y5702D01*
X102577Y5709D01*
X102573D01*
X102566Y5713D01*
X102554D01*
X102539Y5717D01*
X102500Y5721D01*
X102454Y5725D01*
D02*
G37*
G36*
X82777Y138470D02*
X82766D01*
X82731Y138464D01*
X82672Y138459D01*
X82608Y138441D01*
X82532Y138418D01*
X82456Y138377D01*
X82385Y138324D01*
X82321Y138254D01*
X82315Y138242D01*
X82298Y138213D01*
X82274Y138166D01*
X82245Y138096D01*
X82216Y138014D01*
X82192Y137909D01*
X82175Y137786D01*
X82169Y137651D01*
Y137645D01*
Y137634D01*
Y137610D01*
Y137587D01*
X82175Y137552D01*
Y137511D01*
X82187Y137423D01*
X82198Y137330D01*
X82216Y137230D01*
X82245Y137137D01*
X82286Y137060D01*
X82292Y137055D01*
X82309Y137031D01*
X82339Y137008D01*
X82380Y136973D01*
X82438Y136943D01*
X82508Y136914D01*
X82590Y136891D01*
X82684Y136885D01*
X82725D01*
X82754Y136891D01*
X82824Y136902D01*
X82906Y136926D01*
X82912D01*
X82924Y136932D01*
X82947Y136943D01*
X82976Y136961D01*
X83047Y136996D01*
X83123Y137049D01*
Y138394D01*
X83111Y138400D01*
X83076Y138412D01*
X83023Y138429D01*
X82953Y138447D01*
X82947D01*
X82935Y138453D01*
X82918D01*
X82894Y138459D01*
X82836Y138464D01*
X82777Y138470D01*
D02*
G37*
G36*
X71306Y137862D02*
X70861D01*
Y136961D01*
X71417D01*
X71446Y136967D01*
X71475Y136973D01*
X71516Y136979D01*
X71563Y136990D01*
X71662Y137025D01*
X71668D01*
X71680Y137037D01*
X71703Y137049D01*
X71733Y137066D01*
X71791Y137119D01*
X71820Y137148D01*
X71844Y137183D01*
Y137189D01*
X71855Y137201D01*
X71861Y137224D01*
X71873Y137253D01*
X71885Y137289D01*
X71890Y137330D01*
X71902Y137417D01*
Y137423D01*
Y137447D01*
X71896Y137476D01*
Y137511D01*
X71873Y137593D01*
X71855Y137640D01*
X71832Y137675D01*
Y137681D01*
X71820Y137692D01*
X71803Y137710D01*
X71785Y137733D01*
X71756Y137757D01*
X71721Y137780D01*
X71680Y137803D01*
X71633Y137821D01*
X71627D01*
X71616Y137827D01*
X71598Y137833D01*
X71575Y137839D01*
X71539Y137844D01*
X71504Y137850D01*
X71458D01*
X71405Y137856D01*
X71346D01*
X71306Y137862D01*
D02*
G37*
G36*
X74175Y149819D02*
X74116D01*
X74087Y149813D01*
X74040Y149807D01*
X73982Y149784D01*
X73923Y149754D01*
X73859Y149702D01*
X73800Y149637D01*
X73777Y149591D01*
X73753Y149544D01*
Y149538D01*
X73748Y149532D01*
X73742Y149514D01*
X73736Y149491D01*
X73730Y149462D01*
X73718Y149421D01*
X73707Y149380D01*
X73701Y149327D01*
X73689Y149263D01*
X73677Y149198D01*
X73666Y149117D01*
X73660Y149035D01*
X73654Y148941D01*
X73648Y148836D01*
X73642Y148725D01*
Y148602D01*
Y148596D01*
Y148573D01*
Y148537D01*
Y148496D01*
X73648Y148438D01*
Y148380D01*
X73654Y148309D01*
Y148239D01*
X73672Y148081D01*
X73689Y147929D01*
X73701Y147853D01*
X73718Y147783D01*
X73736Y147724D01*
X73753Y147666D01*
X73759Y147654D01*
X73777Y147625D01*
X73800Y147578D01*
X73841Y147531D01*
X73894Y147479D01*
X73958Y147432D01*
X74034Y147403D01*
X74081Y147397D01*
X74128Y147391D01*
X74140D01*
X74169Y147397D01*
X74216Y147408D01*
X74268Y147426D01*
X74333Y147461D01*
X74391Y147508D01*
X74450Y147578D01*
X74473Y147619D01*
X74497Y147666D01*
Y147672D01*
X74502Y147678D01*
X74508Y147695D01*
X74514Y147719D01*
X74526Y147748D01*
X74532Y147789D01*
X74543Y147835D01*
X74555Y147888D01*
X74567Y147947D01*
X74578Y148017D01*
X74584Y148093D01*
X74596Y148175D01*
X74602Y148268D01*
X74608Y148374D01*
X74613Y148485D01*
Y148602D01*
Y148608D01*
Y148631D01*
Y148666D01*
Y148713D01*
X74608Y148766D01*
Y148830D01*
X74602Y148900D01*
Y148970D01*
X74584Y149128D01*
X74567Y149280D01*
X74555Y149356D01*
X74537Y149427D01*
X74520Y149491D01*
X74502Y149544D01*
Y149549D01*
X74497Y149555D01*
X74479Y149585D01*
X74455Y149631D01*
X74414Y149684D01*
X74362Y149731D01*
X74298Y149778D01*
X74221Y149807D01*
X74175Y149819D01*
D02*
G37*
%LPD*%
D12*
X61046Y5979D02*
X63408D01*
Y4896D02*
Y5979D01*
X77384Y4896D02*
Y5979D01*
X79747D01*
X63408Y4896D02*
X77384D01*
X63408Y16904D02*
X77384D01*
Y15821D02*
X79747D01*
X77384D02*
Y16904D01*
X63408Y15821D02*
Y16904D01*
X61046Y15821D02*
X63408D01*
X61046Y5979D02*
Y15821D01*
X79747Y5979D02*
Y15821D01*
X25492Y51181D02*
Y53051D01*
X27362D01*
X39370D02*
X41240D01*
Y51181D02*
Y53051D01*
Y37303D02*
Y39173D01*
X39370Y37303D02*
X41240D01*
X25492D02*
X27362D01*
X25492D02*
Y39173D01*
X130905Y21862D02*
Y22768D01*
Y21862D02*
X133071D01*
X137008D02*
X139173D01*
Y22768D01*
Y31957D02*
Y32862D01*
X137008D02*
X139173D01*
X130905D02*
X133071D01*
X130905Y31957D02*
Y32862D01*
X53941Y110404D02*
X56028D01*
X46972D02*
X49059D01*
X53941Y123396D02*
X56028D01*
X46972D02*
X49059D01*
X56028Y110404D02*
Y110896D01*
Y122904D02*
Y123396D01*
X46972Y110404D02*
Y110896D01*
Y122904D02*
Y123396D01*
X106072Y129196D02*
X108159D01*
X113041D02*
X115128D01*
X106072Y116204D02*
X108159D01*
X113041D02*
X115128D01*
X106072Y128704D02*
Y129196D01*
Y116204D02*
Y116696D01*
X115128Y128704D02*
Y129196D01*
Y116204D02*
Y116696D01*
X0Y0D02*
Y194587D01*
Y0D02*
X147638D01*
X0Y194587D02*
X147638D01*
Y0D02*
Y194587D01*
D13*
X140573Y118500D02*
G03*
X133300Y111227I0J-7273D01*
G01*
Y110700D02*
G03*
X140500Y103500I7200J0D01*
G01*
X7100Y103700D02*
G03*
X14300Y110900I0J7200D01*
G01*
D02*
G03*
X6500Y118700I-7800J0D01*
G01*
X8576Y56618D02*
G03*
X8476Y56518I0J-100D01*
G01*
X28100Y78700D02*
G03*
X28100Y78700I-141J0D01*
G01*
X133300Y110700D02*
Y111227D01*
X145200Y15800D02*
Y103400D01*
X145100Y103500D02*
X145200Y103400D01*
X140500Y103500D02*
X145100D01*
X140573Y118500D02*
X144900D01*
X2900Y16100D02*
Y103700D01*
X7100D01*
X2700Y118700D02*
X6500D01*
X2700D02*
Y130200D01*
X11800D01*
X20900D02*
X44400D01*
X52500Y130100D02*
X110200D01*
X136900Y129800D02*
X138500D01*
X118300Y130000D02*
X127100D01*
X138500Y129800D02*
X144800D01*
Y118700D02*
Y129800D01*
X86000Y15800D02*
X145200D01*
X86000D02*
Y23944D01*
X54700D02*
X86000D01*
X54700Y16100D02*
Y23944D01*
X2900Y16100D02*
X54700D01*
X6482Y148509D02*
X25970D01*
Y135713D02*
Y148509D01*
X19769Y135713D02*
X25970D01*
X19769Y131776D02*
Y135713D01*
X12584Y131776D02*
X19769D01*
X12584D02*
Y135910D01*
X6482D02*
X12584D01*
X6482D02*
Y148509D01*
X121717Y148543D02*
X141206D01*
Y135748D02*
Y148543D01*
X135005Y135748D02*
X141206D01*
X135005Y131811D02*
Y135748D01*
X127820Y131811D02*
X135005D01*
X127820D02*
Y135945D01*
X121717D02*
X127820D01*
X121717D02*
Y148543D01*
X19376Y48618D02*
Y56618D01*
X8576D02*
X19376D01*
X8476Y48618D02*
Y56518D01*
X8376Y38718D02*
Y46118D01*
Y38718D02*
X19476D01*
Y46118D01*
X85630Y97047D02*
X102362D01*
Y83268D02*
Y97047D01*
Y82382D02*
Y83268D01*
X86516Y82382D02*
X102362D01*
X85630Y83268D02*
X86516Y82382D01*
X85630Y83268D02*
Y97047D01*
X89764Y61811D02*
X106496D01*
Y48031D02*
Y61811D01*
Y47146D02*
Y48031D01*
X90650Y47146D02*
X106496D01*
X89764Y48031D02*
X90650Y47146D01*
X89764Y48031D02*
Y61811D01*
X112084Y181813D02*
Y192837D01*
Y181813D02*
X146729D01*
Y192837D01*
X112084D02*
X146729D01*
X44700Y81500D02*
X51700D01*
Y66500D02*
Y81500D01*
X44700Y66500D02*
X51700D01*
X44700D02*
Y81500D01*
X95811Y67260D02*
Y82260D01*
X102811D01*
Y67260D02*
Y82260D01*
X95811Y67260D02*
X102811D01*
X34189Y104583D02*
X49189D01*
Y97583D02*
Y104583D01*
X34189Y97583D02*
X49189D01*
X34189D02*
Y104583D01*
D51*
X102409Y11995D02*
Y13495D01*
X101509Y12745D02*
X103209D01*
D53*
X464200Y147754D02*
G03*
X460853Y151100I-3347J0D01*
G01*
X161346D02*
G03*
X158000Y147754I0J-3347D01*
G01*
Y5646D02*
G03*
X161346Y2300I3347J0D01*
G01*
X460853D02*
G03*
X464200Y5646I0J3347D01*
G01*
X119685Y99803D02*
G03*
X119685Y99803I-315J0D01*
G01*
X164000Y121635D02*
X458200D01*
X164000Y131911D02*
X458200D01*
X464200Y5646D02*
Y147754D01*
X158000Y5646D02*
Y147754D01*
X260723Y26800D02*
X361477D01*
X161346Y151100D02*
X460853D01*
X236223Y2300D02*
X260723Y26800D01*
X161346Y2300D02*
X236223D01*
X361477Y26800D02*
X385977Y2300D01*
X460853D01*
X82874Y86417D02*
Y88091D01*
X81201D02*
X82874D01*
X54921Y86417D02*
Y88091D01*
X56595D01*
X54921Y60138D02*
X56595D01*
X54921D02*
Y61811D01*
X82874Y60138D02*
Y61811D01*
X81201Y60138D02*
X82874D01*
X134409Y63032D02*
Y64531D01*
X132909Y63032D02*
X134409D01*
X114409D02*
X115909D01*
X114409D02*
Y64531D01*
Y81532D02*
Y83031D01*
X115909D01*
X134409Y81532D02*
Y83031D01*
X132909D02*
X134409D01*
X71260Y109941D02*
X78445D01*
Y110729D01*
X71260Y109941D02*
Y110729D01*
X78445Y118799D02*
Y119587D01*
X71260D02*
X78445D01*
X71260Y118799D02*
Y119587D01*
X96811Y68260D02*
Y73260D01*
Y68260D02*
X101811D01*
Y73260D01*
X96811Y76260D02*
Y81260D01*
X101811D01*
Y76260D02*
Y81260D01*
X35189Y103583D02*
X40189D01*
X35189Y98583D02*
Y103583D01*
Y98583D02*
X40189D01*
X43189Y103583D02*
X48189D01*
Y98583D02*
Y103583D01*
X43189Y98583D02*
X48189D01*
X20441Y180610D02*
Y189272D01*
X1150D02*
X20441D01*
X1150Y180610D02*
Y189272D01*
Y180610D02*
X20441D01*
X101752Y32224D02*
Y34724D01*
X115252D01*
Y32224D02*
Y34724D01*
X115465Y20953D02*
Y23453D01*
X101965Y20953D02*
X115465D01*
X101965D02*
Y23453D01*
X258158Y50698D02*
X258715Y51255D01*
X259830D01*
X260388Y50698D01*
Y48468D01*
X259830Y47910D01*
X258715D01*
X258158Y48468D01*
Y50698D01*
X261503Y47910D02*
Y48468D01*
X262061D01*
Y47910D01*
X261503D01*
X264291Y50698D02*
X264848Y51255D01*
X265964D01*
X266521Y50698D01*
Y48468D01*
X265964Y47910D01*
X264848D01*
X264291Y48468D01*
Y50698D01*
X267636D02*
X268194Y51255D01*
X269309D01*
X269867Y50698D01*
Y50140D01*
X269309Y49583D01*
X268751D01*
X269309D01*
X269867Y49025D01*
Y48468D01*
X269309Y47910D01*
X268194D01*
X267636Y48468D01*
X273212Y51255D02*
X270982D01*
Y49583D01*
X272097Y50140D01*
X272654D01*
X273212Y49583D01*
Y48468D01*
X272654Y47910D01*
X271539D01*
X270982Y48468D01*
X276557Y51255D02*
X275442Y50698D01*
X274327Y49583D01*
Y48468D01*
X274885Y47910D01*
X276000D01*
X276557Y48468D01*
Y49025D01*
X276000Y49583D01*
X274327D01*
X277672Y47910D02*
Y50140D01*
X278230D01*
X278788Y49583D01*
Y47910D01*
Y49583D01*
X279345Y50140D01*
X279903Y49583D01*
Y47910D01*
X281018D02*
Y50140D01*
X281575D01*
X282133Y49583D01*
Y47910D01*
Y49583D01*
X282691Y50140D01*
X283248Y49583D01*
Y47910D01*
X228397D02*
X227282Y49025D01*
Y50140D01*
X228397Y51255D01*
X230070Y47910D02*
Y48468D01*
X230627D01*
Y47910D01*
X230070D01*
X235088Y50698D02*
X234530Y51255D01*
X233415D01*
X232857Y50698D01*
Y48468D01*
X233415Y47910D01*
X234530D01*
X235088Y48468D01*
Y49583D01*
X233973D01*
X236203Y51255D02*
Y47910D01*
X237876D01*
X238433Y48468D01*
Y49025D01*
X237876Y49583D01*
X236203D01*
X237876D01*
X238433Y50140D01*
Y50698D01*
X237876Y51255D01*
X236203D01*
X239548D02*
Y47910D01*
X241778D01*
X242894D02*
X244009Y49025D01*
Y50140D01*
X242894Y51255D01*
X163700D02*
Y47910D01*
X165373D01*
X165930Y48468D01*
Y49025D01*
X165373Y49583D01*
X163700D01*
X165373D01*
X165930Y50140D01*
Y50698D01*
X165373Y51255D01*
X163700D01*
X167603Y47910D02*
X168718D01*
X169276Y48468D01*
Y49583D01*
X168718Y50140D01*
X167603D01*
X167045Y49583D01*
Y48468D01*
X167603Y47910D01*
X170948Y50698D02*
Y50140D01*
X170391D01*
X171506D01*
X170948D01*
Y48468D01*
X171506Y47910D01*
X173736Y50698D02*
Y50140D01*
X173179D01*
X174294D01*
X173736D01*
Y48468D01*
X174294Y47910D01*
X176524D02*
X177639D01*
X178197Y48468D01*
Y49583D01*
X177639Y50140D01*
X176524D01*
X175966Y49583D01*
Y48468D01*
X176524Y47910D01*
X179312D02*
Y50140D01*
X179869D01*
X180427Y49583D01*
Y47910D01*
Y49583D01*
X180984Y50140D01*
X181542Y49583D01*
Y47910D01*
X186003Y51255D02*
Y47910D01*
X188233D01*
X189906Y50140D02*
X191021D01*
X191578Y49583D01*
Y47910D01*
X189906D01*
X189348Y48468D01*
X189906Y49025D01*
X191578D01*
X192693Y50140D02*
Y48468D01*
X193251Y47910D01*
X194924D01*
Y47352D01*
X194366Y46795D01*
X193808D01*
X194924Y47910D02*
Y50140D01*
X197711Y47910D02*
X196596D01*
X196039Y48468D01*
Y49583D01*
X196596Y50140D01*
X197711D01*
X198269Y49583D01*
Y49025D01*
X196039D01*
X199384Y50140D02*
Y47910D01*
Y49025D01*
X199942Y49583D01*
X200499Y50140D01*
X201057D01*
X412517Y54420D02*
Y57765D01*
X414190D01*
X414747Y57208D01*
Y56093D01*
X414190Y55535D01*
X412517D01*
X415863Y56650D02*
Y54420D01*
Y55535D01*
X416420Y56093D01*
X416978Y56650D01*
X417535D01*
X420881Y54420D02*
X419766D01*
X419208Y54978D01*
Y56093D01*
X419766Y56650D01*
X420881D01*
X421438Y56093D01*
Y55535D01*
X419208D01*
X422553Y54420D02*
Y57765D01*
X424226D01*
X424784Y57208D01*
Y56093D01*
X424226Y55535D01*
X422553D01*
X425899Y56650D02*
Y54420D01*
Y55535D01*
X426456Y56093D01*
X427014Y56650D01*
X427571D01*
X430917Y54420D02*
X429802D01*
X429244Y54978D01*
Y56093D01*
X429802Y56650D01*
X430917D01*
X431474Y56093D01*
Y55535D01*
X429244D01*
X433705Y53305D02*
X434262D01*
X434820Y53862D01*
Y56650D01*
X433147D01*
X432589Y56093D01*
Y54978D01*
X433147Y54420D01*
X434820D01*
X377804D02*
Y57765D01*
X376131Y56093D01*
X378362D01*
X379477Y54420D02*
Y54978D01*
X380034D01*
Y54420D01*
X379477D01*
X384495Y57765D02*
X383380Y57208D01*
X382265Y56093D01*
Y54978D01*
X382822Y54420D01*
X383937D01*
X384495Y54978D01*
Y55535D01*
X383937Y56093D01*
X382265D01*
X331507Y57765D02*
X329276D01*
Y56093D01*
X330392D01*
X329276D01*
Y54420D01*
X332622D02*
Y57765D01*
X334294D01*
X334852Y57208D01*
Y56093D01*
X334294Y55535D01*
X332622D01*
X333737D02*
X334852Y54420D01*
X335967Y56093D02*
X338197D01*
X340985Y54420D02*
Y57765D01*
X339313Y56093D01*
X341543D01*
X292891Y57208D02*
X293448Y57765D01*
X294563D01*
X295121Y57208D01*
Y54978D01*
X294563Y54420D01*
X293448D01*
X292891Y54978D01*
Y57208D01*
X296236Y54420D02*
Y54978D01*
X296794D01*
Y54420D01*
X296236D01*
X299024Y57765D02*
X301254D01*
Y57208D01*
X299024Y54978D01*
Y54420D01*
X302369D02*
Y56650D01*
X302927D01*
X303484Y56093D01*
Y54420D01*
Y56093D01*
X304042Y56650D01*
X304599Y56093D01*
Y54420D01*
X305715D02*
Y56650D01*
X306272D01*
X306830Y56093D01*
Y54420D01*
Y56093D01*
X307387Y56650D01*
X307945Y56093D01*
Y54420D01*
X258158Y63718D02*
X258715Y64275D01*
X259830D01*
X260388Y63718D01*
Y61488D01*
X259830Y60930D01*
X258715D01*
X258158Y61488D01*
Y63718D01*
X261503Y60930D02*
Y61488D01*
X262061D01*
Y60930D01*
X261503D01*
X264291Y63718D02*
X264848Y64275D01*
X265964D01*
X266521Y63718D01*
Y61488D01*
X265964Y60930D01*
X264848D01*
X264291Y61488D01*
Y63718D01*
X267636D02*
X268194Y64275D01*
X269309D01*
X269867Y63718D01*
Y63160D01*
X269309Y62603D01*
X268751D01*
X269309D01*
X269867Y62045D01*
Y61488D01*
X269309Y60930D01*
X268194D01*
X267636Y61488D01*
X273212Y64275D02*
X270982D01*
Y62603D01*
X272097Y63160D01*
X272654D01*
X273212Y62603D01*
Y61488D01*
X272654Y60930D01*
X271539D01*
X270982Y61488D01*
X276557Y64275D02*
X275442Y63718D01*
X274327Y62603D01*
Y61488D01*
X274885Y60930D01*
X276000D01*
X276557Y61488D01*
Y62045D01*
X276000Y62603D01*
X274327D01*
X277672Y60930D02*
Y63160D01*
X278230D01*
X278788Y62603D01*
Y60930D01*
Y62603D01*
X279345Y63160D01*
X279903Y62603D01*
Y60930D01*
X281018D02*
Y63160D01*
X281575D01*
X282133Y62603D01*
Y60930D01*
Y62603D01*
X282691Y63160D01*
X283248Y62603D01*
Y60930D01*
X228397D02*
X227282Y62045D01*
Y63160D01*
X228397Y64275D01*
X230070Y60930D02*
Y61488D01*
X230627D01*
Y60930D01*
X230070D01*
X235088Y63718D02*
X234530Y64275D01*
X233415D01*
X232857Y63718D01*
Y61488D01*
X233415Y60930D01*
X234530D01*
X235088Y61488D01*
Y62603D01*
X233973D01*
X237876Y60930D02*
Y64275D01*
X236203Y62603D01*
X238433D01*
X239548Y60930D02*
X240663Y62045D01*
Y63160D01*
X239548Y64275D01*
X163700Y60930D02*
Y64275D01*
X165373D01*
X165930Y63718D01*
Y62603D01*
X165373Y62045D01*
X163700D01*
X167603Y60930D02*
X168718D01*
X169276Y61488D01*
Y62603D01*
X168718Y63160D01*
X167603D01*
X167045Y62603D01*
Y61488D01*
X167603Y60930D01*
X170391Y63160D02*
Y61488D01*
X170948Y60930D01*
X171506Y61488D01*
X172063Y60930D01*
X172621Y61488D01*
Y63160D01*
X175409Y60930D02*
X174294D01*
X173736Y61488D01*
Y62603D01*
X174294Y63160D01*
X175409D01*
X175966Y62603D01*
Y62045D01*
X173736D01*
X177082Y63160D02*
Y60930D01*
Y62045D01*
X177639Y62603D01*
X178197Y63160D01*
X178754D01*
X183772Y60930D02*
Y64275D01*
X185445D01*
X186003Y63718D01*
Y62603D01*
X185445Y62045D01*
X183772D01*
X187118Y60930D02*
X188233D01*
X187675D01*
Y64275D01*
X187118D01*
X190463Y63160D02*
X191578D01*
X192136Y62603D01*
Y60930D01*
X190463D01*
X189906Y61488D01*
X190463Y62045D01*
X192136D01*
X193251Y60930D02*
Y63160D01*
X194924D01*
X195481Y62603D01*
Y60930D01*
X198269D02*
X197154D01*
X196596Y61488D01*
Y62603D01*
X197154Y63160D01*
X198269D01*
X198827Y62603D01*
Y62045D01*
X196596D01*
X414747Y70228D02*
X414190Y70785D01*
X413075D01*
X412517Y70228D01*
Y67998D01*
X413075Y67440D01*
X414190D01*
X414747Y67998D01*
X416420Y67440D02*
X417535D01*
X418093Y67998D01*
Y69113D01*
X417535Y69670D01*
X416420D01*
X415863Y69113D01*
Y67998D01*
X416420Y67440D01*
X419208Y69670D02*
Y67440D01*
Y68555D01*
X419766Y69113D01*
X420323Y69670D01*
X420881D01*
X424226Y67440D02*
X423111D01*
X422553Y67998D01*
Y69113D01*
X423111Y69670D01*
X424226D01*
X424784Y69113D01*
Y68555D01*
X422553D01*
X377804Y67440D02*
Y70785D01*
X376131Y69113D01*
X378362D01*
X379477Y67440D02*
Y67998D01*
X380034D01*
Y67440D01*
X379477D01*
X384495Y70785D02*
X383380Y70228D01*
X382265Y69113D01*
Y67998D01*
X382822Y67440D01*
X383937D01*
X384495Y67998D01*
Y68555D01*
X383937Y69113D01*
X382265D01*
X331507Y70785D02*
X329276D01*
Y69113D01*
X330392D01*
X329276D01*
Y67440D01*
X332622D02*
Y70785D01*
X334294D01*
X334852Y70228D01*
Y69113D01*
X334294Y68555D01*
X332622D01*
X333737D02*
X334852Y67440D01*
X335967Y69113D02*
X338197D01*
X340985Y67440D02*
Y70785D01*
X339313Y69113D01*
X341543D01*
X292891Y70228D02*
X293448Y70785D01*
X294563D01*
X295121Y70228D01*
Y67998D01*
X294563Y67440D01*
X293448D01*
X292891Y67998D01*
Y70228D01*
X296236Y67440D02*
Y67998D01*
X296794D01*
Y67440D01*
X296236D01*
X299024D02*
X300139D01*
X299581D01*
Y70785D01*
X299024Y70228D01*
X301812D02*
X302369Y70785D01*
X303484D01*
X304042Y70228D01*
Y69670D01*
X303484Y69113D01*
X304042Y68555D01*
Y67998D01*
X303484Y67440D01*
X302369D01*
X301812Y67998D01*
Y68555D01*
X302369Y69113D01*
X301812Y69670D01*
Y70228D01*
X302369Y69113D02*
X303484D01*
X305157Y67440D02*
Y69670D01*
X305715D01*
X306272Y69113D01*
Y67440D01*
Y69113D01*
X306830Y69670D01*
X307387Y69113D01*
Y67440D01*
X308502D02*
Y69670D01*
X309060D01*
X309617Y69113D01*
Y67440D01*
Y69113D01*
X310175Y69670D01*
X310733Y69113D01*
Y67440D01*
X258158Y76738D02*
X258715Y77295D01*
X259830D01*
X260388Y76738D01*
Y74508D01*
X259830Y73950D01*
X258715D01*
X258158Y74508D01*
Y76738D01*
X261503Y73950D02*
Y74508D01*
X262061D01*
Y73950D01*
X261503D01*
X264291Y76738D02*
X264848Y77295D01*
X265964D01*
X266521Y76738D01*
Y74508D01*
X265964Y73950D01*
X264848D01*
X264291Y74508D01*
Y76738D01*
X267636D02*
X268194Y77295D01*
X269309D01*
X269867Y76738D01*
Y76180D01*
X269309Y75623D01*
X268751D01*
X269309D01*
X269867Y75065D01*
Y74508D01*
X269309Y73950D01*
X268194D01*
X267636Y74508D01*
X273212Y77295D02*
X270982D01*
Y75623D01*
X272097Y76180D01*
X272654D01*
X273212Y75623D01*
Y74508D01*
X272654Y73950D01*
X271539D01*
X270982Y74508D01*
X276557Y77295D02*
X275442Y76738D01*
X274327Y75623D01*
Y74508D01*
X274885Y73950D01*
X276000D01*
X276557Y74508D01*
Y75065D01*
X276000Y75623D01*
X274327D01*
X277672Y73950D02*
Y76180D01*
X278230D01*
X278788Y75623D01*
Y73950D01*
Y75623D01*
X279345Y76180D01*
X279903Y75623D01*
Y73950D01*
X281018D02*
Y76180D01*
X281575D01*
X282133Y75623D01*
Y73950D01*
Y75623D01*
X282691Y76180D01*
X283248Y75623D01*
Y73950D01*
X228397D02*
X227282Y75065D01*
Y76180D01*
X228397Y77295D01*
X230070Y73950D02*
Y74508D01*
X230627D01*
Y73950D01*
X230070D01*
X235088Y76738D02*
X234530Y77295D01*
X233415D01*
X232857Y76738D01*
Y74508D01*
X233415Y73950D01*
X234530D01*
X235088Y74508D01*
Y75623D01*
X233973D01*
X236203Y76738D02*
X236760Y77295D01*
X237876D01*
X238433Y76738D01*
Y76180D01*
X237876Y75623D01*
X237318D01*
X237876D01*
X238433Y75065D01*
Y74508D01*
X237876Y73950D01*
X236760D01*
X236203Y74508D01*
X239548Y73950D02*
X240663Y75065D01*
Y76180D01*
X239548Y77295D01*
X165930Y76738D02*
X165373Y77295D01*
X164258D01*
X163700Y76738D01*
Y74508D01*
X164258Y73950D01*
X165373D01*
X165930Y74508D01*
Y75623D01*
X164815D01*
X167045Y73950D02*
Y77295D01*
X169276Y73950D01*
Y77295D01*
X170391D02*
Y73950D01*
X172063D01*
X172621Y74508D01*
Y76738D01*
X172063Y77295D01*
X170391D01*
X177082D02*
Y73950D01*
X179312D01*
X180984Y76180D02*
X182100D01*
X182657Y75623D01*
Y73950D01*
X180984D01*
X180427Y74508D01*
X180984Y75065D01*
X182657D01*
X183772Y76180D02*
Y74508D01*
X184330Y73950D01*
X186003D01*
Y73392D01*
X185445Y72835D01*
X184887D01*
X186003Y73950D02*
Y76180D01*
X188790Y73950D02*
X187675D01*
X187118Y74508D01*
Y75623D01*
X187675Y76180D01*
X188790D01*
X189348Y75623D01*
Y75065D01*
X187118D01*
X190463Y76180D02*
Y73950D01*
Y75065D01*
X191021Y75623D01*
X191578Y76180D01*
X192136D01*
X199384Y73950D02*
X197154D01*
X199384Y76180D01*
Y76738D01*
X198827Y77295D01*
X197711D01*
X197154Y76738D01*
X412517Y80460D02*
Y83805D01*
X414190D01*
X414747Y83248D01*
Y82133D01*
X414190Y81575D01*
X412517D01*
X415863Y82690D02*
Y80460D01*
Y81575D01*
X416420Y82133D01*
X416978Y82690D01*
X417535D01*
X420881Y80460D02*
X419766D01*
X419208Y81018D01*
Y82133D01*
X419766Y82690D01*
X420881D01*
X421438Y82133D01*
Y81575D01*
X419208D01*
X422553Y80460D02*
Y83805D01*
X424226D01*
X424784Y83248D01*
Y82133D01*
X424226Y81575D01*
X422553D01*
X425899Y82690D02*
Y80460D01*
Y81575D01*
X426456Y82133D01*
X427014Y82690D01*
X427571D01*
X430917Y80460D02*
X429802D01*
X429244Y81018D01*
Y82133D01*
X429802Y82690D01*
X430917D01*
X431474Y82133D01*
Y81575D01*
X429244D01*
X433705Y79345D02*
X434262D01*
X434820Y79902D01*
Y82690D01*
X433147D01*
X432589Y82133D01*
Y81018D01*
X433147Y80460D01*
X434820D01*
X377804D02*
Y83805D01*
X376131Y82133D01*
X378362D01*
X379477Y80460D02*
Y81018D01*
X380034D01*
Y80460D01*
X379477D01*
X384495Y83805D02*
X383380Y83248D01*
X382265Y82133D01*
Y81018D01*
X382822Y80460D01*
X383937D01*
X384495Y81018D01*
Y81575D01*
X383937Y82133D01*
X382265D01*
X331507Y83805D02*
X329276D01*
Y82133D01*
X330392D01*
X329276D01*
Y80460D01*
X332622D02*
Y83805D01*
X334294D01*
X334852Y83248D01*
Y82133D01*
X334294Y81575D01*
X332622D01*
X333737D02*
X334852Y80460D01*
X335967Y82133D02*
X338197D01*
X340985Y80460D02*
Y83805D01*
X339313Y82133D01*
X341543D01*
X292891Y83248D02*
X293448Y83805D01*
X294563D01*
X295121Y83248D01*
Y81018D01*
X294563Y80460D01*
X293448D01*
X292891Y81018D01*
Y83248D01*
X296236Y80460D02*
Y81018D01*
X296794D01*
Y80460D01*
X296236D01*
X299024D02*
X300139D01*
X299581D01*
Y83805D01*
X299024Y83248D01*
X301812D02*
X302369Y83805D01*
X303484D01*
X304042Y83248D01*
Y82690D01*
X303484Y82133D01*
X304042Y81575D01*
Y81018D01*
X303484Y80460D01*
X302369D01*
X301812Y81018D01*
Y81575D01*
X302369Y82133D01*
X301812Y82690D01*
Y83248D01*
X302369Y82133D02*
X303484D01*
X305157Y80460D02*
Y82690D01*
X305715D01*
X306272Y82133D01*
Y80460D01*
Y82133D01*
X306830Y82690D01*
X307387Y82133D01*
Y80460D01*
X308502D02*
Y82690D01*
X309060D01*
X309617Y82133D01*
Y80460D01*
Y82133D01*
X310175Y82690D01*
X310733Y82133D01*
Y80460D01*
X258158Y89758D02*
X258715Y90315D01*
X259830D01*
X260388Y89758D01*
Y87528D01*
X259830Y86970D01*
X258715D01*
X258158Y87528D01*
Y89758D01*
X261503Y86970D02*
Y87528D01*
X262061D01*
Y86970D01*
X261503D01*
X264291Y89758D02*
X264848Y90315D01*
X265964D01*
X266521Y89758D01*
Y87528D01*
X265964Y86970D01*
X264848D01*
X264291Y87528D01*
Y89758D01*
X267636D02*
X268194Y90315D01*
X269309D01*
X269867Y89758D01*
Y89200D01*
X269309Y88643D01*
X268751D01*
X269309D01*
X269867Y88085D01*
Y87528D01*
X269309Y86970D01*
X268194D01*
X267636Y87528D01*
X273212Y90315D02*
X270982D01*
Y88643D01*
X272097Y89200D01*
X272654D01*
X273212Y88643D01*
Y87528D01*
X272654Y86970D01*
X271539D01*
X270982Y87528D01*
X276557Y90315D02*
X275442Y89758D01*
X274327Y88643D01*
Y87528D01*
X274885Y86970D01*
X276000D01*
X276557Y87528D01*
Y88085D01*
X276000Y88643D01*
X274327D01*
X277672Y86970D02*
Y89200D01*
X278230D01*
X278788Y88643D01*
Y86970D01*
Y88643D01*
X279345Y89200D01*
X279903Y88643D01*
Y86970D01*
X281018D02*
Y89200D01*
X281575D01*
X282133Y88643D01*
Y86970D01*
Y88643D01*
X282691Y89200D01*
X283248Y88643D01*
Y86970D01*
X228397D02*
X227282Y88085D01*
Y89200D01*
X228397Y90315D01*
X230070Y86970D02*
Y87528D01*
X230627D01*
Y86970D01*
X230070D01*
X235088Y89758D02*
X234530Y90315D01*
X233415D01*
X232857Y89758D01*
Y87528D01*
X233415Y86970D01*
X234530D01*
X235088Y87528D01*
Y88643D01*
X233973D01*
X238433Y86970D02*
X236203D01*
X238433Y89200D01*
Y89758D01*
X237876Y90315D01*
X236760D01*
X236203Y89758D01*
X239548Y86970D02*
X240663Y88085D01*
Y89200D01*
X239548Y90315D01*
X163700D02*
X164815D01*
X164258D01*
Y86970D01*
X163700D01*
X164815D01*
X166488D02*
Y89200D01*
X168160D01*
X168718Y88643D01*
Y86970D01*
X170391Y89758D02*
Y89200D01*
X169833D01*
X170948D01*
X170391D01*
Y87528D01*
X170948Y86970D01*
X174294D02*
X173179D01*
X172621Y87528D01*
Y88643D01*
X173179Y89200D01*
X174294D01*
X174851Y88643D01*
Y88085D01*
X172621D01*
X175966Y89200D02*
Y86970D01*
Y88085D01*
X176524Y88643D01*
X177082Y89200D01*
X177639D01*
X179312Y86970D02*
Y89200D01*
X180984D01*
X181542Y88643D01*
Y86970D01*
X183215Y89200D02*
X184330D01*
X184887Y88643D01*
Y86970D01*
X183215D01*
X182657Y87528D01*
X183215Y88085D01*
X184887D01*
X186003Y86970D02*
X187118D01*
X186560D01*
Y90315D01*
X186003D01*
X192136Y86970D02*
Y90315D01*
X193808D01*
X194366Y89758D01*
Y88643D01*
X193808Y88085D01*
X192136D01*
X193251D02*
X194366Y86970D01*
X196039D02*
X197154D01*
X197711Y87528D01*
Y88643D01*
X197154Y89200D01*
X196039D01*
X195481Y88643D01*
Y87528D01*
X196039Y86970D01*
X198827Y89200D02*
Y87528D01*
X199384Y86970D01*
X201057D01*
Y89200D01*
X202729Y89758D02*
Y89200D01*
X202172D01*
X203287D01*
X202729D01*
Y87528D01*
X203287Y86970D01*
X204960D02*
X206075D01*
X205517D01*
Y89200D01*
X204960D01*
X207748Y86970D02*
Y89200D01*
X209420D01*
X209978Y88643D01*
Y86970D01*
X212208Y85855D02*
X212766D01*
X213323Y86412D01*
Y89200D01*
X211650D01*
X211093Y88643D01*
Y87528D01*
X211650Y86970D01*
X213323D01*
X414747Y96268D02*
X414190Y96825D01*
X413075D01*
X412517Y96268D01*
Y94038D01*
X413075Y93480D01*
X414190D01*
X414747Y94038D01*
X416420Y93480D02*
X417535D01*
X418093Y94038D01*
Y95153D01*
X417535Y95710D01*
X416420D01*
X415863Y95153D01*
Y94038D01*
X416420Y93480D01*
X419208Y95710D02*
Y93480D01*
Y94595D01*
X419766Y95153D01*
X420323Y95710D01*
X420881D01*
X424226Y93480D02*
X423111D01*
X422553Y94038D01*
Y95153D01*
X423111Y95710D01*
X424226D01*
X424784Y95153D01*
Y94595D01*
X422553D01*
X377804Y93480D02*
Y96825D01*
X376131Y95153D01*
X378362D01*
X379477Y93480D02*
Y94038D01*
X380034D01*
Y93480D01*
X379477D01*
X384495Y96825D02*
X383380Y96268D01*
X382265Y95153D01*
Y94038D01*
X382822Y93480D01*
X383937D01*
X384495Y94038D01*
Y94595D01*
X383937Y95153D01*
X382265D01*
X331507Y96825D02*
X329276D01*
Y95153D01*
X330392D01*
X329276D01*
Y93480D01*
X332622D02*
Y96825D01*
X334294D01*
X334852Y96268D01*
Y95153D01*
X334294Y94595D01*
X332622D01*
X333737D02*
X334852Y93480D01*
X335967Y95153D02*
X338197D01*
X340985Y93480D02*
Y96825D01*
X339313Y95153D01*
X341543D01*
X292891Y96268D02*
X293448Y96825D01*
X294563D01*
X295121Y96268D01*
Y94038D01*
X294563Y93480D01*
X293448D01*
X292891Y94038D01*
Y96268D01*
X296236Y93480D02*
Y94038D01*
X296794D01*
Y93480D01*
X296236D01*
X299024D02*
X300139D01*
X299581D01*
Y96825D01*
X299024Y96268D01*
X301812D02*
X302369Y96825D01*
X303484D01*
X304042Y96268D01*
Y95710D01*
X303484Y95153D01*
X304042Y94595D01*
Y94038D01*
X303484Y93480D01*
X302369D01*
X301812Y94038D01*
Y94595D01*
X302369Y95153D01*
X301812Y95710D01*
Y96268D01*
X302369Y95153D02*
X303484D01*
X305157Y93480D02*
Y95710D01*
X305715D01*
X306272Y95153D01*
Y93480D01*
Y95153D01*
X306830Y95710D01*
X307387Y95153D01*
Y93480D01*
X308502D02*
Y95710D01*
X309060D01*
X309617Y95153D01*
Y93480D01*
Y95153D01*
X310175Y95710D01*
X310733Y95153D01*
Y93480D01*
X258158Y102778D02*
X258715Y103335D01*
X259830D01*
X260388Y102778D01*
Y100548D01*
X259830Y99990D01*
X258715D01*
X258158Y100548D01*
Y102778D01*
X261503Y99990D02*
Y100548D01*
X262061D01*
Y99990D01*
X261503D01*
X264291Y102778D02*
X264848Y103335D01*
X265964D01*
X266521Y102778D01*
Y100548D01*
X265964Y99990D01*
X264848D01*
X264291Y100548D01*
Y102778D01*
X267636D02*
X268194Y103335D01*
X269309D01*
X269867Y102778D01*
Y102220D01*
X269309Y101663D01*
X268751D01*
X269309D01*
X269867Y101105D01*
Y100548D01*
X269309Y99990D01*
X268194D01*
X267636Y100548D01*
X273212Y103335D02*
X270982D01*
Y101663D01*
X272097Y102220D01*
X272654D01*
X273212Y101663D01*
Y100548D01*
X272654Y99990D01*
X271539D01*
X270982Y100548D01*
X276557Y103335D02*
X275442Y102778D01*
X274327Y101663D01*
Y100548D01*
X274885Y99990D01*
X276000D01*
X276557Y100548D01*
Y101105D01*
X276000Y101663D01*
X274327D01*
X277672Y99990D02*
Y102220D01*
X278230D01*
X278788Y101663D01*
Y99990D01*
Y101663D01*
X279345Y102220D01*
X279903Y101663D01*
Y99990D01*
X281018D02*
Y102220D01*
X281575D01*
X282133Y101663D01*
Y99990D01*
Y101663D01*
X282691Y102220D01*
X283248Y101663D01*
Y99990D01*
X228397D02*
X227282Y101105D01*
Y102220D01*
X228397Y103335D01*
X230070Y99990D02*
Y100548D01*
X230627D01*
Y99990D01*
X230070D01*
X235088Y102778D02*
X234530Y103335D01*
X233415D01*
X232857Y102778D01*
Y100548D01*
X233415Y99990D01*
X234530D01*
X235088Y100548D01*
Y101663D01*
X233973D01*
X236203Y99990D02*
X237318D01*
X236760D01*
Y103335D01*
X236203Y102778D01*
X238991Y99990D02*
X240106Y101105D01*
Y102220D01*
X238991Y103335D01*
X165930Y102778D02*
X165373Y103335D01*
X164258D01*
X163700Y102778D01*
Y100548D01*
X164258Y99990D01*
X165373D01*
X165930Y100548D01*
Y101663D01*
X164815D01*
X167045Y99990D02*
Y103335D01*
X169276Y99990D01*
Y103335D01*
X170391D02*
Y99990D01*
X172063D01*
X172621Y100548D01*
Y102778D01*
X172063Y103335D01*
X170391D01*
X177082D02*
Y99990D01*
X179312D01*
X180984Y102220D02*
X182100D01*
X182657Y101663D01*
Y99990D01*
X180984D01*
X180427Y100548D01*
X180984Y101105D01*
X182657D01*
X183772Y102220D02*
Y100548D01*
X184330Y99990D01*
X186003D01*
Y99432D01*
X185445Y98875D01*
X184887D01*
X186003Y99990D02*
Y102220D01*
X188790Y99990D02*
X187675D01*
X187118Y100548D01*
Y101663D01*
X187675Y102220D01*
X188790D01*
X189348Y101663D01*
Y101105D01*
X187118D01*
X190463Y102220D02*
Y99990D01*
Y101105D01*
X191021Y101663D01*
X191578Y102220D01*
X192136D01*
X412517Y106500D02*
Y109845D01*
X414190D01*
X414747Y109288D01*
Y108173D01*
X414190Y107615D01*
X412517D01*
X415863Y108730D02*
Y106500D01*
Y107615D01*
X416420Y108173D01*
X416978Y108730D01*
X417535D01*
X420881Y106500D02*
X419766D01*
X419208Y107058D01*
Y108173D01*
X419766Y108730D01*
X420881D01*
X421438Y108173D01*
Y107615D01*
X419208D01*
X422553Y106500D02*
Y109845D01*
X424226D01*
X424784Y109288D01*
Y108173D01*
X424226Y107615D01*
X422553D01*
X425899Y108730D02*
Y106500D01*
Y107615D01*
X426456Y108173D01*
X427014Y108730D01*
X427571D01*
X430917Y106500D02*
X429802D01*
X429244Y107058D01*
Y108173D01*
X429802Y108730D01*
X430917D01*
X431474Y108173D01*
Y107615D01*
X429244D01*
X433705Y105385D02*
X434262D01*
X434820Y105942D01*
Y108730D01*
X433147D01*
X432589Y108173D01*
Y107058D01*
X433147Y106500D01*
X434820D01*
X377804D02*
Y109845D01*
X376131Y108173D01*
X378362D01*
X379477Y106500D02*
Y107058D01*
X380034D01*
Y106500D01*
X379477D01*
X384495Y109845D02*
X383380Y109288D01*
X382265Y108173D01*
Y107058D01*
X382822Y106500D01*
X383937D01*
X384495Y107058D01*
Y107615D01*
X383937Y108173D01*
X382265D01*
X331507Y109845D02*
X329276D01*
Y108173D01*
X330392D01*
X329276D01*
Y106500D01*
X332622D02*
Y109845D01*
X334294D01*
X334852Y109288D01*
Y108173D01*
X334294Y107615D01*
X332622D01*
X333737D02*
X334852Y106500D01*
X335967Y108173D02*
X338197D01*
X340985Y106500D02*
Y109845D01*
X339313Y108173D01*
X341543D01*
X292891Y109288D02*
X293448Y109845D01*
X294563D01*
X295121Y109288D01*
Y107058D01*
X294563Y106500D01*
X293448D01*
X292891Y107058D01*
Y109288D01*
X296236Y106500D02*
Y107058D01*
X296794D01*
Y106500D01*
X296236D01*
X299024Y109288D02*
X299581Y109845D01*
X300696D01*
X301254Y109288D01*
Y108730D01*
X300696Y108173D01*
X300139D01*
X300696D01*
X301254Y107615D01*
Y107058D01*
X300696Y106500D01*
X299581D01*
X299024Y107058D01*
X304599Y106500D02*
X302369D01*
X304599Y108730D01*
Y109288D01*
X304042Y109845D01*
X302927D01*
X302369Y109288D01*
X307945Y109845D02*
X305715D01*
Y108173D01*
X306830Y108730D01*
X307387D01*
X307945Y108173D01*
Y107058D01*
X307387Y106500D01*
X306272D01*
X305715Y107058D01*
X309060Y106500D02*
Y108730D01*
X309617D01*
X310175Y108173D01*
Y106500D01*
Y108173D01*
X310733Y108730D01*
X311290Y108173D01*
Y106500D01*
X312405D02*
Y108730D01*
X312963D01*
X313520Y108173D01*
Y106500D01*
Y108173D01*
X314078Y108730D01*
X314635Y108173D01*
Y106500D01*
X258158Y115798D02*
X258715Y116355D01*
X259830D01*
X260388Y115798D01*
Y113568D01*
X259830Y113010D01*
X258715D01*
X258158Y113568D01*
Y115798D01*
X261503Y113010D02*
Y113568D01*
X262061D01*
Y113010D01*
X261503D01*
X264291Y115798D02*
X264848Y116355D01*
X265964D01*
X266521Y115798D01*
Y113568D01*
X265964Y113010D01*
X264848D01*
X264291Y113568D01*
Y115798D01*
X267636D02*
X268194Y116355D01*
X269309D01*
X269867Y115798D01*
Y115240D01*
X269309Y114683D01*
X268751D01*
X269309D01*
X269867Y114125D01*
Y113568D01*
X269309Y113010D01*
X268194D01*
X267636Y113568D01*
X273212Y116355D02*
X270982D01*
Y114683D01*
X272097Y115240D01*
X272654D01*
X273212Y114683D01*
Y113568D01*
X272654Y113010D01*
X271539D01*
X270982Y113568D01*
X276557Y116355D02*
X275442Y115798D01*
X274327Y114683D01*
Y113568D01*
X274885Y113010D01*
X276000D01*
X276557Y113568D01*
Y114125D01*
X276000Y114683D01*
X274327D01*
X277672Y113010D02*
Y115240D01*
X278230D01*
X278788Y114683D01*
Y113010D01*
Y114683D01*
X279345Y115240D01*
X279903Y114683D01*
Y113010D01*
X281018D02*
Y115240D01*
X281575D01*
X282133Y114683D01*
Y113010D01*
Y114683D01*
X282691Y115240D01*
X283248Y114683D01*
Y113010D01*
X228397D02*
X227282Y114125D01*
Y115240D01*
X228397Y116355D01*
X230070Y113010D02*
Y113568D01*
X230627D01*
Y113010D01*
X230070D01*
X235088Y115798D02*
X234530Y116355D01*
X233415D01*
X232857Y115798D01*
Y113568D01*
X233415Y113010D01*
X234530D01*
X235088Y113568D01*
Y114683D01*
X233973D01*
X236203Y116355D02*
X238433D01*
X237318D01*
Y113010D01*
X239548Y116355D02*
Y113010D01*
X241778D01*
X242894D02*
X244009Y114125D01*
Y115240D01*
X242894Y116355D01*
X163700D02*
X165930D01*
X164815D01*
Y113010D01*
X167603D02*
X168718D01*
X169276Y113568D01*
Y114683D01*
X168718Y115240D01*
X167603D01*
X167045Y114683D01*
Y113568D01*
X167603Y113010D01*
X170391Y111895D02*
Y115240D01*
X172063D01*
X172621Y114683D01*
Y113568D01*
X172063Y113010D01*
X170391D01*
X177082Y116355D02*
Y113010D01*
X179312D01*
X180984Y115240D02*
X182100D01*
X182657Y114683D01*
Y113010D01*
X180984D01*
X180427Y113568D01*
X180984Y114125D01*
X182657D01*
X183772Y115240D02*
Y113568D01*
X184330Y113010D01*
X186003D01*
Y112452D01*
X185445Y111895D01*
X184887D01*
X186003Y113010D02*
Y115240D01*
X188790Y113010D02*
X187675D01*
X187118Y113568D01*
Y114683D01*
X187675Y115240D01*
X188790D01*
X189348Y114683D01*
Y114125D01*
X187118D01*
X190463Y115240D02*
Y113010D01*
Y114125D01*
X191021Y114683D01*
X191578Y115240D01*
X192136D01*
D55*
X86713Y63287D02*
G03*
X86713Y63287I-492J0D01*
G01*
X111516Y79921D02*
G03*
X111516Y79921I-492J0D01*
G01*
X22441Y49114D02*
G03*
X22441Y49114I-492J0D01*
G01*
X100394Y32087D02*
G03*
X100394Y32087I-394J0D01*
G01*
X128539Y30862D02*
G03*
X128539Y30862I-197J0D01*
G01*
X164000Y143059D02*
Y136761D01*
X168198D01*
X171347Y140959D02*
X173446D01*
X174495Y139910D01*
Y136761D01*
X171347D01*
X170297Y137811D01*
X171347Y138860D01*
X174495D01*
X176594Y140959D02*
Y137811D01*
X177644Y136761D01*
X180792D01*
Y135712D01*
X179743Y134662D01*
X178693D01*
X180792Y136761D02*
Y140959D01*
X186040Y136761D02*
X183941D01*
X182891Y137811D01*
Y139910D01*
X183941Y140959D01*
X186040D01*
X187090Y139910D01*
Y138860D01*
X182891D01*
X189189Y140959D02*
Y136761D01*
Y138860D01*
X190238Y139910D01*
X191288Y140959D01*
X192337D01*
X205981Y142009D02*
X204932Y143059D01*
X202833D01*
X201783Y142009D01*
Y140959D01*
X202833Y139910D01*
X204932D01*
X205981Y138860D01*
Y137811D01*
X204932Y136761D01*
X202833D01*
X201783Y137811D01*
X209130Y142009D02*
Y140959D01*
X208080D01*
X210179D01*
X209130D01*
Y137811D01*
X210179Y136761D01*
X214377Y140959D02*
X216476D01*
X217526Y139910D01*
Y136761D01*
X214377D01*
X213328Y137811D01*
X214377Y138860D01*
X217526D01*
X223823Y140959D02*
X220674D01*
X219625Y139910D01*
Y137811D01*
X220674Y136761D01*
X223823D01*
X225922D02*
Y143059D01*
Y138860D02*
X229071Y140959D01*
X225922Y138860D02*
X229071Y136761D01*
X238516Y143059D02*
Y137811D01*
X239566Y136761D01*
X241665D01*
X242715Y137811D01*
Y143059D01*
X244814Y134662D02*
Y140959D01*
X247962D01*
X249012Y139910D01*
Y137811D01*
X247962Y136761D01*
X244814D01*
X257408Y143059D02*
Y136761D01*
X260557D01*
X261606Y137811D01*
Y142009D01*
X260557Y143059D01*
X257408D01*
X266854Y136761D02*
X264755D01*
X263705Y137811D01*
Y139910D01*
X264755Y140959D01*
X266854D01*
X267903Y139910D01*
Y138860D01*
X263705D01*
X271052Y142009D02*
Y140959D01*
X270002D01*
X272101D01*
X271052D01*
Y137811D01*
X272101Y136761D01*
X276300Y140959D02*
X278399D01*
X279448Y139910D01*
Y136761D01*
X276300D01*
X275250Y137811D01*
X276300Y138860D01*
X279448D01*
X281547Y136761D02*
X283646D01*
X282597D01*
Y140959D01*
X281547D01*
X286795Y136761D02*
X288894D01*
X287844D01*
Y143059D01*
X286795D01*
X299389Y136761D02*
Y142009D01*
Y139910D01*
X298340D01*
X300439D01*
X299389D01*
Y142009D01*
X300439Y143059D01*
X304637Y136761D02*
X306736D01*
X307785Y137811D01*
Y139910D01*
X306736Y140959D01*
X304637D01*
X303587Y139910D01*
Y137811D01*
X304637Y136761D01*
X309884Y140959D02*
Y136761D01*
Y138860D01*
X310934Y139910D01*
X311983Y140959D01*
X313033D01*
X316182D02*
X317231D01*
Y139910D01*
X316182D01*
Y140959D01*
Y137811D02*
X317231D01*
Y136761D01*
X316182D01*
Y137811D01*
X327726Y143059D02*
X329825D01*
X328776D01*
Y136761D01*
X327726D01*
X329825D01*
X334024D02*
X336123D01*
X337172Y137811D01*
Y139910D01*
X336123Y140959D01*
X334024D01*
X332974Y139910D01*
Y137811D01*
X334024Y136761D01*
X339271Y143059D02*
X343469D01*
X341370D01*
Y136761D01*
X356064Y143059D02*
X351866D01*
Y136761D01*
X356064D01*
X351866Y139910D02*
X353965D01*
X358163Y136761D02*
Y143059D01*
X361311D01*
X362361Y142009D01*
Y139910D01*
X361311Y138860D01*
X358163D01*
X370757Y143059D02*
Y136761D01*
X373906D01*
X374955Y137811D01*
Y138860D01*
X373906Y139910D01*
X370757D01*
X373906D01*
X374955Y140959D01*
Y142009D01*
X373906Y143059D01*
X370757D01*
X378104Y136761D02*
X380203D01*
X381252Y137811D01*
Y139910D01*
X380203Y140959D01*
X378104D01*
X377054Y139910D01*
Y137811D01*
X378104Y136761D01*
X384401Y140959D02*
X386500D01*
X387549Y139910D01*
Y136761D01*
X384401D01*
X383351Y137811D01*
X384401Y138860D01*
X387549D01*
X389649Y140959D02*
Y136761D01*
Y138860D01*
X390698Y139910D01*
X391748Y140959D01*
X392797D01*
X400144Y143059D02*
Y136761D01*
X396995D01*
X395946Y137811D01*
Y139910D01*
X396995Y140959D01*
X400144D01*
D115*
X127264Y53839D02*
G03*
X127264Y53839I-197J0D01*
G01*
X121670Y23854D02*
G03*
X121670Y23854I-197J0D01*
G01*
X45594Y123396D02*
G03*
X45594Y123396I-197J0D01*
G01*
X116899Y116204D02*
G03*
X116899Y116204I-197J0D01*
G01*
X17400Y9900D02*
X23600D01*
Y6700D02*
Y9900D01*
X17400Y6700D02*
X23600D01*
X17400D02*
Y9900D01*
Y13600D02*
X23600D01*
Y10400D02*
Y13600D01*
X17400Y10400D02*
X23600D01*
X17400D02*
Y13600D01*
X103200Y81100D02*
X109400D01*
Y77900D02*
Y81100D01*
X103200Y77900D02*
X109400D01*
X103200D02*
Y81100D01*
X6700Y29021D02*
Y35221D01*
X9900D01*
Y29021D02*
Y35221D01*
X6700Y29021D02*
X9900D01*
X13600D02*
Y35221D01*
X10400Y29021D02*
X13600D01*
X10400D02*
Y35221D01*
X13600D01*
X95000Y182400D02*
Y188600D01*
X91800Y182400D02*
X95000D01*
X91800D02*
Y188600D01*
X95000D01*
X61700Y54700D02*
X64900D01*
X61700Y48500D02*
Y54700D01*
Y48500D02*
X64900D01*
Y54700D01*
X77813Y106077D02*
Y109277D01*
X71613D02*
X77813D01*
X71613Y106077D02*
Y109277D01*
Y106077D02*
X77813D01*
X29492Y186275D02*
X32692D01*
X29492Y180075D02*
Y186275D01*
Y180075D02*
X32692D01*
Y186275D01*
X22600Y183300D02*
Y186500D01*
Y183300D02*
X28800D01*
Y186500D01*
X22600D02*
X28800D01*
X39600Y183300D02*
Y186500D01*
X33400D02*
X39600D01*
X33400Y183300D02*
Y186500D01*
Y183300D02*
X39600D01*
X14500Y124000D02*
X17700D01*
Y130200D01*
X14500Y130200D02*
X17700Y130200D01*
X14500Y124000D02*
X14500Y130200D01*
X63542Y115329D02*
Y118529D01*
X57342D02*
X63542D01*
X57342Y115329D02*
Y118529D01*
Y115329D02*
X63542D01*
X65231Y124958D02*
X68431D01*
X65231Y118758D02*
Y124958D01*
Y118758D02*
X68431D01*
Y124958D01*
X60884Y111392D02*
Y114592D01*
Y111392D02*
X67084D01*
Y114592D01*
X60884D02*
X67084D01*
X60605Y109210D02*
X63805D01*
X60605Y103010D02*
Y109210D01*
Y103010D02*
X63805D01*
Y109210D01*
X63539Y98105D02*
Y101305D01*
X57339D02*
X63539D01*
X57339Y98105D02*
Y101305D01*
Y98105D02*
X63539D01*
X62967Y97005D02*
X66167D01*
X62967Y90806D02*
Y97005D01*
Y90806D02*
X66167D01*
Y97005D01*
X103200Y182400D02*
X106400D01*
Y188600D01*
X103200D02*
X106400D01*
X103200Y182400D02*
Y188600D01*
X96440Y185624D02*
Y188824D01*
Y185624D02*
X102640D01*
Y188824D01*
X96440D02*
X102640D01*
X129960Y124668D02*
X133160D01*
Y130868D01*
X129960D02*
X133160D01*
X129960Y124668D02*
Y130868D01*
X98762Y121038D02*
Y124238D01*
Y121038D02*
X104962D01*
Y124238D01*
X98762D02*
X104962D01*
X94463Y123973D02*
X97663D01*
X94463Y117773D02*
Y123973D01*
Y117773D02*
X97663D01*
Y123973D01*
X83046Y123974D02*
X86246D01*
X83046Y117774D02*
Y123974D01*
Y117774D02*
X86246D01*
Y123974D01*
X93462Y121038D02*
Y124238D01*
X87262D02*
X93462D01*
X87262Y121038D02*
Y124238D01*
Y121038D02*
X93462D01*
X80372Y121029D02*
Y124229D01*
X74172D02*
X80372D01*
X74172Y121029D02*
Y124229D01*
Y121029D02*
X80372D01*
X69668Y121294D02*
X72868D01*
Y127494D01*
X69668D02*
X72868D01*
X69668Y121294D02*
Y127494D01*
X79110Y106651D02*
X82310D01*
X79110Y100451D02*
Y106651D01*
Y100451D02*
X82310D01*
Y106651D01*
X67199Y106750D02*
X70399D01*
X67199Y100550D02*
Y106750D01*
Y100550D02*
X70399D01*
Y106750D01*
X75270Y96695D02*
X78470D01*
Y102895D01*
X75270D02*
X78470D01*
X75270Y96695D02*
Y102895D01*
X71038Y96695D02*
X74238D01*
Y102895D01*
X71038D02*
X74238D01*
X71038Y96695D02*
Y102895D01*
X77911Y92790D02*
Y95990D01*
X71711D02*
X77911D01*
X71711Y92790D02*
Y95990D01*
Y92790D02*
X77911D01*
X124466Y88853D02*
Y92053D01*
X118266D02*
X124466D01*
X118266Y88853D02*
Y92053D01*
Y88853D02*
X124466D01*
X133636Y92660D02*
Y98860D01*
X136836D01*
Y92660D02*
Y98860D01*
X133636Y92660D02*
X136836D01*
X129896Y98876D02*
X133096D01*
X129896Y92676D02*
Y98876D01*
Y92676D02*
X133096D01*
Y98876D01*
X120472Y100886D02*
X121358D01*
X120472Y100098D02*
Y100886D01*
X128937Y100098D02*
Y100886D01*
X128051D02*
X128937D01*
X127953Y92716D02*
X128839D01*
Y93504D01*
X120374Y92716D02*
Y93504D01*
Y92716D02*
X121260D01*
X33600Y66900D02*
Y70100D01*
Y66900D02*
X39800D01*
Y70100D01*
X33600D02*
X39800D01*
X21800Y79800D02*
Y83000D01*
Y79800D02*
X28000D01*
Y83000D01*
X21800D02*
X28000D01*
X44136Y44168D02*
Y47368D01*
Y44168D02*
X50336D01*
Y47368D01*
X44136D02*
X50336D01*
X27400Y27479D02*
X30600D01*
X27400Y21280D02*
Y27479D01*
Y21280D02*
X30600D01*
Y27479D01*
X35000D02*
X38200D01*
X35000Y21280D02*
Y27479D01*
Y21280D02*
X38200D01*
Y27479D01*
X31200D02*
X34400D01*
X31200Y21280D02*
Y27479D01*
Y21280D02*
X34400D01*
Y27479D01*
X44235Y40329D02*
Y43529D01*
Y40329D02*
X50435D01*
Y43529D01*
X44235D02*
X50435D01*
X23088Y31372D02*
Y34572D01*
X16888D02*
X23088D01*
X16888Y31372D02*
Y34572D01*
Y31372D02*
X23088D01*
X92691Y80372D02*
X95891D01*
X92691Y74172D02*
Y80372D01*
Y74172D02*
X95891D01*
Y80372D01*
X88951Y74156D02*
Y80356D01*
X92151D01*
Y74156D02*
Y80356D01*
X88951Y74156D02*
X92151D01*
X53305Y94463D02*
Y97663D01*
X47105D02*
X53305D01*
X47105Y94463D02*
Y97663D01*
Y94463D02*
X53305D01*
X48991Y98270D02*
X52191D01*
Y104470D01*
X48991D02*
X52191D01*
X48991Y98270D02*
Y104470D01*
X61179Y53912D02*
Y57112D01*
X54979D02*
X61179D01*
X54979Y53912D02*
Y57112D01*
Y53912D02*
X61179D01*
Y50172D02*
Y53372D01*
X54979D02*
X61179D01*
X54979Y50172D02*
Y53372D01*
Y50172D02*
X61179D01*
X46786Y54876D02*
X49986D01*
Y61076D01*
X46786D02*
X49986D01*
X46786Y54876D02*
Y61076D01*
X50526Y61092D02*
X53726D01*
X50526Y54892D02*
Y61092D01*
Y54892D02*
X53726D01*
Y61092D01*
X78994Y51156D02*
Y54356D01*
X72794D02*
X78994D01*
X72794Y51156D02*
Y54356D01*
Y51156D02*
X78994D01*
X72778Y47416D02*
Y50616D01*
Y47416D02*
X78978D01*
Y50616D01*
X72778D02*
X78978D01*
X69168Y54092D02*
X72368D01*
X69168Y47892D02*
Y54092D01*
Y47892D02*
X72368D01*
Y54092D01*
X121850Y53248D02*
X126378D01*
X121850D02*
Y57776D01*
X126378D01*
Y53248D02*
Y57776D01*
X105372Y43085D02*
Y46285D01*
X99172D02*
X105372D01*
X99172Y43085D02*
Y46285D01*
Y43085D02*
X105372D01*
X103206Y62672D02*
Y65872D01*
X97006D02*
X103206D01*
X97006Y62672D02*
Y65872D01*
Y62672D02*
X103206D01*
X121794Y49581D02*
Y52781D01*
Y49581D02*
X127994D01*
Y52781D01*
X121794D02*
X127994D01*
X138200Y57900D02*
Y61100D01*
X132000D02*
X138200D01*
X132000Y57900D02*
Y61100D01*
Y57900D02*
X138200D01*
X137655Y49679D02*
Y52880D01*
X131455D02*
X137655D01*
X131455Y49679D02*
Y52880D01*
Y49679D02*
X137655D01*
X124156Y85014D02*
Y88214D01*
Y85014D02*
X130356D01*
Y88214D01*
X124156D02*
X130356D01*
X129092Y101746D02*
Y104946D01*
X122892D02*
X129092D01*
X122892Y101746D02*
Y104946D01*
Y101746D02*
X129092D01*
X101609Y10995D02*
X108709D01*
Y6995D02*
Y10995D01*
X101609Y6995D02*
X108709D01*
X101609D02*
Y10995D01*
X94627Y7395D02*
Y10595D01*
Y7395D02*
X100827D01*
Y10595D01*
X94627D02*
X100827D01*
X111065Y44561D02*
Y47761D01*
Y44561D02*
X117265D01*
Y47761D01*
X111065D02*
X117265D01*
X117281Y40428D02*
Y43628D01*
X111081D02*
X117281D01*
X111081Y40428D02*
Y43628D01*
Y40428D02*
X117281D01*
X119528Y7898D02*
Y11098D01*
Y7898D02*
X125728D01*
Y11098D01*
X119528D02*
X125728D01*
X134195Y33538D02*
Y36738D01*
Y33538D02*
X140395D01*
Y36738D01*
X134195D02*
X140395D01*
X123959Y18676D02*
Y21876D01*
Y18676D02*
X130159D01*
Y21876D01*
X123959D02*
X130159D01*
X123565Y35900D02*
Y39100D01*
Y35900D02*
X129765D01*
Y39100D01*
X123565D02*
X129765D01*
X120250Y24648D02*
X123450D01*
Y30848D01*
X120250D02*
X123450D01*
X120250Y24648D02*
Y30848D01*
X116609Y24746D02*
X119809D01*
Y30946D01*
X116609D02*
X119809D01*
X116609Y24746D02*
Y30946D01*
X115411Y35506D02*
Y38706D01*
X109211D02*
X115411D01*
X109211Y35506D02*
Y38706D01*
Y35506D02*
X115411D01*
X95349Y26041D02*
X98549D01*
X95349Y19841D02*
Y26041D01*
Y19841D02*
X98549D01*
Y26041D01*
X91510Y26715D02*
X94710D01*
Y32915D01*
X91510D02*
X94710D01*
X91510Y26715D02*
Y32915D01*
X95349Y26715D02*
X98549D01*
Y32915D01*
X95349D02*
X98549D01*
X95349Y26715D02*
Y32915D01*
X122064Y18638D02*
Y23165D01*
X117536Y18638D02*
X122064D01*
X117536D02*
Y23165D01*
X122064D01*
X123565Y31963D02*
Y35163D01*
Y31963D02*
X129765D01*
Y35163D01*
X123565D02*
X129765D01*
X35700Y79900D02*
X41900D01*
X35700D02*
Y83100D01*
X41900D01*
Y79900D02*
Y83100D01*
X125744Y4257D02*
Y7457D01*
X119544D02*
X125744D01*
X119544Y4257D02*
Y7457D01*
Y4257D02*
X125744D01*
X94742Y65624D02*
Y68824D01*
X88542D02*
X94742D01*
X88542Y65624D02*
Y68824D01*
Y65624D02*
X94742D01*
Y69365D02*
Y72565D01*
X88542D02*
X94742D01*
X88542Y69365D02*
Y72565D01*
Y69365D02*
X94742D01*
X65400Y48000D02*
X68600D01*
Y54200D01*
X65400D02*
X68600D01*
X65400Y48000D02*
Y54200D01*
X29100Y79100D02*
X42000D01*
Y70600D02*
Y79100D01*
X29100Y70600D02*
X42000D01*
X29100D02*
Y79100D01*
X116464Y142800D02*
X120400Y145424D01*
X116464D02*
X120400Y142800D01*
Y149360D02*
Y146736D01*
X117776Y149360D01*
X117120D01*
X116464Y148704D01*
Y147392D01*
X117120Y146736D01*
X412817Y125709D02*
X414392D01*
X413604D01*
Y123348D01*
X415179Y124922D02*
Y123741D01*
X415572Y123348D01*
X416753D01*
Y122954D01*
X416359Y122561D01*
X415966D01*
X416753Y123348D02*
Y124922D01*
X417540Y122561D02*
Y124922D01*
X418721D01*
X419114Y124529D01*
Y123741D01*
X418721Y123348D01*
X417540D01*
X421082D02*
X420295D01*
X419902Y123741D01*
Y124529D01*
X420295Y124922D01*
X421082D01*
X421476Y124529D01*
Y124135D01*
X419902D01*
X378006Y125316D02*
X377612Y125709D01*
X376825D01*
X376431Y125316D01*
Y123741D01*
X376825Y123348D01*
X377612D01*
X378006Y123741D01*
X379186Y123348D02*
X379974D01*
X380367Y123741D01*
Y124529D01*
X379974Y124922D01*
X379186D01*
X378793Y124529D01*
Y123741D01*
X379186Y123348D01*
X381154D02*
Y124922D01*
X382335D01*
X382729Y124529D01*
Y123348D01*
X383516D02*
X384696D01*
X385090Y123741D01*
X384696Y124135D01*
X383909D01*
X383516Y124529D01*
X383909Y124922D01*
X385090D01*
X386271Y125316D02*
Y124922D01*
X385877D01*
X386664D01*
X386271D01*
Y123741D01*
X386664Y123348D01*
X388239Y124922D02*
X389026D01*
X389419Y124529D01*
Y123348D01*
X388239D01*
X387845Y123741D01*
X388239Y124135D01*
X389419D01*
X390206Y123348D02*
Y124922D01*
X391387D01*
X391781Y124529D01*
Y123348D01*
X392961Y125316D02*
Y124922D01*
X392568D01*
X393355D01*
X392961D01*
Y123741D01*
X393355Y123348D01*
X329576D02*
Y125709D01*
X330363Y124922D01*
X331151Y125709D01*
Y123348D01*
X332331Y124922D02*
X333119D01*
X333512Y124529D01*
Y123348D01*
X332331D01*
X331938Y123741D01*
X332331Y124135D01*
X333512D01*
X334693Y125316D02*
Y124922D01*
X334299D01*
X335086D01*
X334693D01*
Y123741D01*
X335086Y123348D01*
X337448D02*
X336661D01*
X336267Y123741D01*
Y124529D01*
X336661Y124922D01*
X337448D01*
X337841Y124529D01*
Y124135D01*
X336267D01*
X338629Y124922D02*
Y123348D01*
Y124135D01*
X339022Y124529D01*
X339416Y124922D01*
X339809D01*
X340990Y123348D02*
X341777D01*
X341384D01*
Y124922D01*
X340990D01*
X343351D02*
X344139D01*
X344532Y124529D01*
Y123348D01*
X343351D01*
X342958Y123741D01*
X343351Y124135D01*
X344532D01*
X345319Y123348D02*
X346106D01*
X345713D01*
Y125709D01*
X345319D01*
X293191D02*
Y123348D01*
Y124529D01*
X294765D01*
Y125709D01*
Y123348D01*
X296733D02*
X295946D01*
X295552Y123741D01*
Y124529D01*
X295946Y124922D01*
X296733D01*
X297126Y124529D01*
Y124135D01*
X295552D01*
X297913Y123348D02*
X298701D01*
X298307D01*
Y124922D01*
X297913D01*
X300668Y122561D02*
X301062D01*
X301456Y122954D01*
Y124922D01*
X300275D01*
X299881Y124529D01*
Y123741D01*
X300275Y123348D01*
X301456D01*
X302243Y125709D02*
Y123348D01*
Y124529D01*
X302636Y124922D01*
X303424D01*
X303817Y124529D01*
Y123348D01*
X304998Y125316D02*
Y124922D01*
X304604D01*
X305391D01*
X304998D01*
Y123741D01*
X305391Y123348D01*
X258458Y125709D02*
X260032D01*
X259245D01*
Y123348D01*
X260819Y125709D02*
Y123348D01*
Y124529D01*
X261213Y124922D01*
X262000D01*
X262393Y124529D01*
Y123348D01*
X263181D02*
X263968D01*
X263574D01*
Y124922D01*
X263181D01*
X266723D02*
X265542D01*
X265148Y124529D01*
Y123741D01*
X265542Y123348D01*
X266723D01*
X267510D02*
Y125709D01*
Y124135D02*
X268691Y124922D01*
X267510Y124135D02*
X268691Y123348D01*
X269871D02*
Y124922D01*
X271052D01*
X271446Y124529D01*
Y123348D01*
X273413D02*
X272626D01*
X272233Y123741D01*
Y124529D01*
X272626Y124922D01*
X273413D01*
X273807Y124529D01*
Y124135D01*
X272233D01*
X274594Y123348D02*
X275775D01*
X276168Y123741D01*
X275775Y124135D01*
X274988D01*
X274594Y124529D01*
X274988Y124922D01*
X276168D01*
X276956Y123348D02*
X278136D01*
X278530Y123741D01*
X278136Y124135D01*
X277349D01*
X276956Y124529D01*
X277349Y124922D01*
X278530D01*
X227582Y125709D02*
Y123348D01*
X228763D01*
X229156Y123741D01*
Y125316D01*
X228763Y125709D01*
X227582D01*
X230337Y123348D02*
X231124D01*
X231518Y123741D01*
Y124529D01*
X231124Y124922D01*
X230337D01*
X229943Y124529D01*
Y123741D01*
X230337Y123348D01*
X233879Y124922D02*
X232698D01*
X232305Y124529D01*
Y123741D01*
X232698Y123348D01*
X233879D01*
X234666Y124922D02*
Y123741D01*
X235060Y123348D01*
X236241D01*
Y124922D01*
X237028Y123348D02*
Y124922D01*
X237421D01*
X237815Y124529D01*
Y123348D01*
Y124529D01*
X238208Y124922D01*
X238602Y124529D01*
Y123348D01*
X240570D02*
X239783D01*
X239389Y123741D01*
Y124529D01*
X239783Y124922D01*
X240570D01*
X240963Y124529D01*
Y124135D01*
X239389D01*
X241751Y123348D02*
Y124922D01*
X242931D01*
X243325Y124529D01*
Y123348D01*
X244506Y125316D02*
Y124922D01*
X244112D01*
X244899D01*
X244506D01*
Y123741D01*
X244899Y123348D01*
X164000D02*
Y125709D01*
X165574Y123348D01*
Y125709D01*
X166755Y124922D02*
X167542D01*
X167936Y124529D01*
Y123348D01*
X166755D01*
X166361Y123741D01*
X166755Y124135D01*
X167936D01*
X168723Y123348D02*
Y124922D01*
X169116D01*
X169510Y124529D01*
Y123348D01*
Y124529D01*
X169904Y124922D01*
X170297Y124529D01*
Y123348D01*
X172265D02*
X171478D01*
X171084Y123741D01*
Y124529D01*
X171478Y124922D01*
X172265D01*
X172659Y124529D01*
Y124135D01*
X171084D01*
X412817Y130434D02*
Y128072D01*
X413998D01*
X414392Y128466D01*
Y130040D01*
X413998Y130434D01*
X412817D01*
X415179Y128072D02*
X415966D01*
X415572D01*
Y129647D01*
X415179D01*
X418327Y128072D02*
X417540D01*
X417146Y128466D01*
Y129253D01*
X417540Y129647D01*
X418327D01*
X418721Y129253D01*
Y128859D01*
X417146D01*
X419508Y128072D02*
X420295D01*
X419902D01*
Y130434D01*
X419508D01*
X422656Y128072D02*
X421869D01*
X421476Y128466D01*
Y129253D01*
X421869Y129647D01*
X422656D01*
X423050Y129253D01*
Y128859D01*
X421476D01*
X425412Y129647D02*
X424231D01*
X423837Y129253D01*
Y128466D01*
X424231Y128072D01*
X425412D01*
X426592Y130040D02*
Y129647D01*
X426199D01*
X426986D01*
X426592D01*
Y128466D01*
X426986Y128072D01*
X428166Y129647D02*
Y128072D01*
Y128859D01*
X428560Y129253D01*
X428954Y129647D01*
X429347D01*
X430528Y128072D02*
X431315D01*
X430922D01*
Y129647D01*
X430528D01*
X434070D02*
X432889D01*
X432496Y129253D01*
Y128466D01*
X432889Y128072D01*
X434070D01*
X376431Y130434D02*
Y128072D01*
X377612D01*
X378006Y128466D01*
Y130040D01*
X377612Y130434D01*
X376431D01*
X378793Y128072D02*
X379580D01*
X379186D01*
Y129647D01*
X378793D01*
X381941Y128072D02*
X381154D01*
X380761Y128466D01*
Y129253D01*
X381154Y129647D01*
X381941D01*
X382335Y129253D01*
Y128859D01*
X380761D01*
X383122Y128072D02*
X383909D01*
X383516D01*
Y130434D01*
X383122D01*
X386271Y128072D02*
X385484D01*
X385090Y128466D01*
Y129253D01*
X385484Y129647D01*
X386271D01*
X386664Y129253D01*
Y128859D01*
X385090D01*
X389026Y129647D02*
X387845D01*
X387451Y129253D01*
Y128466D01*
X387845Y128072D01*
X389026D01*
X390206Y130040D02*
Y129647D01*
X389813D01*
X390600D01*
X390206D01*
Y128466D01*
X390600Y128072D01*
X391781Y129647D02*
Y128072D01*
Y128859D01*
X392174Y129253D01*
X392568Y129647D01*
X392961D01*
X394142Y128072D02*
X394929D01*
X394536D01*
Y129647D01*
X394142D01*
X397684D02*
X396504D01*
X396110Y129253D01*
Y128466D01*
X396504Y128072D01*
X397684D01*
X329576Y130434D02*
Y128072D01*
X330757D01*
X331151Y128466D01*
Y130040D01*
X330757Y130434D01*
X329576D01*
X331938Y128072D02*
X332725D01*
X332331D01*
Y129647D01*
X331938D01*
X335086Y128072D02*
X334299D01*
X333906Y128466D01*
Y129253D01*
X334299Y129647D01*
X335086D01*
X335480Y129253D01*
Y128859D01*
X333906D01*
X336267Y128072D02*
X337054D01*
X336661D01*
Y130434D01*
X336267D01*
X339416Y128072D02*
X338629D01*
X338235Y128466D01*
Y129253D01*
X338629Y129647D01*
X339416D01*
X339809Y129253D01*
Y128859D01*
X338235D01*
X342171Y129647D02*
X340990D01*
X340596Y129253D01*
Y128466D01*
X340990Y128072D01*
X342171D01*
X343351Y130040D02*
Y129647D01*
X342958D01*
X343745D01*
X343351D01*
Y128466D01*
X343745Y128072D01*
X344926Y129647D02*
Y128072D01*
Y128859D01*
X345319Y129253D01*
X345713Y129647D01*
X346106D01*
X347287Y128072D02*
X348074D01*
X347681D01*
Y129647D01*
X347287D01*
X350829D02*
X349649D01*
X349255Y129253D01*
Y128466D01*
X349649Y128072D01*
X350829D01*
X293191Y130434D02*
Y128072D01*
X294371D01*
X294765Y128466D01*
Y130040D01*
X294371Y130434D01*
X293191D01*
X295552Y128072D02*
X296339D01*
X295946D01*
Y129647D01*
X295552D01*
X298701Y128072D02*
X297913D01*
X297520Y128466D01*
Y129253D01*
X297913Y129647D01*
X298701D01*
X299094Y129253D01*
Y128859D01*
X297520D01*
X299881Y128072D02*
X300668D01*
X300275D01*
Y130434D01*
X299881D01*
X303030Y128072D02*
X302243D01*
X301849Y128466D01*
Y129253D01*
X302243Y129647D01*
X303030D01*
X303424Y129253D01*
Y128859D01*
X301849D01*
X305785Y129647D02*
X304604D01*
X304211Y129253D01*
Y128466D01*
X304604Y128072D01*
X305785D01*
X306966Y130040D02*
Y129647D01*
X306572D01*
X307359D01*
X306966D01*
Y128466D01*
X307359Y128072D01*
X308540Y129647D02*
Y128072D01*
Y128859D01*
X308933Y129253D01*
X309327Y129647D01*
X309721D01*
X310901Y128072D02*
X311688D01*
X311295D01*
Y129647D01*
X310901D01*
X314443D02*
X313263D01*
X312869Y129253D01*
Y128466D01*
X313263Y128072D01*
X314443D01*
X260032Y130040D02*
X259639Y130434D01*
X258851D01*
X258458Y130040D01*
Y128466D01*
X258851Y128072D01*
X259639D01*
X260032Y128466D01*
X261213Y128072D02*
X262000D01*
X262393Y128466D01*
Y129253D01*
X262000Y129647D01*
X261213D01*
X260819Y129253D01*
Y128466D01*
X261213Y128072D01*
X263181Y127285D02*
Y129647D01*
X264361D01*
X264755Y129253D01*
Y128466D01*
X264361Y128072D01*
X263181D01*
X265542Y127285D02*
Y129647D01*
X266723D01*
X267116Y129253D01*
Y128466D01*
X266723Y128072D01*
X265542D01*
X269084D02*
X268297D01*
X267903Y128466D01*
Y129253D01*
X268297Y129647D01*
X269084D01*
X269478Y129253D01*
Y128859D01*
X267903D01*
X270265Y129647D02*
Y128072D01*
Y128859D01*
X270658Y129253D01*
X271052Y129647D01*
X271446D01*
X229156Y130040D02*
X228763Y130434D01*
X227976D01*
X227582Y130040D01*
Y128466D01*
X227976Y128072D01*
X228763D01*
X229156Y128466D01*
Y129253D01*
X228369D01*
X231124Y128072D02*
X230337D01*
X229943Y128466D01*
Y129253D01*
X230337Y129647D01*
X231124D01*
X231518Y129253D01*
Y128859D01*
X229943D01*
X232305Y129647D02*
Y128072D01*
Y128859D01*
X232698Y129253D01*
X233092Y129647D01*
X233486D01*
X234666Y130434D02*
Y128072D01*
X235847D01*
X236241Y128466D01*
Y128859D01*
Y129253D01*
X235847Y129647D01*
X234666D01*
X238208Y128072D02*
X237421D01*
X237028Y128466D01*
Y129253D01*
X237421Y129647D01*
X238208D01*
X238602Y129253D01*
Y128859D01*
X237028D01*
X239389Y129647D02*
Y128072D01*
Y128859D01*
X239783Y129253D01*
X240176Y129647D01*
X240570D01*
X164000Y130434D02*
Y128072D01*
X165574D01*
X166755Y129647D02*
X167542D01*
X167936Y129253D01*
Y128072D01*
X166755D01*
X166361Y128466D01*
X166755Y128859D01*
X167936D01*
X168723Y129647D02*
Y128466D01*
X169116Y128072D01*
X170297D01*
Y127679D01*
X169904Y127285D01*
X169510D01*
X170297Y128072D02*
Y129647D01*
X172265Y128072D02*
X171478D01*
X171084Y128466D01*
Y129253D01*
X171478Y129647D01*
X172265D01*
X172659Y129253D01*
Y128859D01*
X171084D01*
X173446Y129647D02*
Y128072D01*
Y128859D01*
X173839Y129253D01*
X174233Y129647D01*
X174627D01*
D116*
X24400Y11300D02*
Y13268D01*
X25384D01*
X25712Y12940D01*
Y12284D01*
X25384Y11956D01*
X24400D01*
X25056D02*
X25712Y11300D01*
X27680Y13268D02*
X26368D01*
Y12284D01*
X27024Y12612D01*
X27352D01*
X27680Y12284D01*
Y11628D01*
X27352Y11300D01*
X26696D01*
X26368Y11628D01*
X29648Y13268D02*
X28992Y12940D01*
X28336Y12284D01*
Y11628D01*
X28664Y11300D01*
X29320D01*
X29648Y11628D01*
Y11956D01*
X29320Y12284D01*
X28336D01*
X24600Y7200D02*
Y9168D01*
X25584D01*
X25912Y8840D01*
Y8184D01*
X25584Y7856D01*
X24600D01*
X25256D02*
X25912Y7200D01*
X27880Y9168D02*
X26568D01*
Y8184D01*
X27224Y8512D01*
X27552D01*
X27880Y8184D01*
Y7528D01*
X27552Y7200D01*
X26896D01*
X26568Y7528D01*
X29848Y9168D02*
X28536D01*
Y8184D01*
X29192Y8512D01*
X29520D01*
X29848Y8184D01*
Y7528D01*
X29520Y7200D01*
X28864D01*
X28536Y7528D01*
X103900Y81700D02*
Y83668D01*
X104884D01*
X105212Y83340D01*
Y82684D01*
X104884Y82356D01*
X103900D01*
X104556D02*
X105212Y81700D01*
X107180Y83668D02*
X105868D01*
Y82684D01*
X106524Y83012D01*
X106852D01*
X107180Y82684D01*
Y82028D01*
X106852Y81700D01*
X106196D01*
X105868Y82028D01*
X108820Y81700D02*
Y83668D01*
X107836Y82684D01*
X109148D01*
X9400Y23000D02*
X7432D01*
Y23984D01*
X7760Y24312D01*
X8416D01*
X8744Y23984D01*
Y23000D01*
Y23656D02*
X9400Y24312D01*
X7432Y26280D02*
Y24968D01*
X8416D01*
X8088Y25624D01*
Y25952D01*
X8416Y26280D01*
X9072D01*
X9400Y25952D01*
Y25296D01*
X9072Y24968D01*
X7760Y26936D02*
X7432Y27264D01*
Y27920D01*
X7760Y28248D01*
X8088D01*
X8416Y27920D01*
Y27592D01*
Y27920D01*
X8744Y28248D01*
X9072D01*
X9400Y27920D01*
Y27264D01*
X9072Y26936D01*
X16300Y29520D02*
X14332D01*
Y30504D01*
X14660Y30832D01*
X15316D01*
X15644Y30504D01*
Y29520D01*
Y30176D02*
X16300Y30832D01*
X14332Y32800D02*
Y31488D01*
X15316D01*
X14988Y32144D01*
Y32472D01*
X15316Y32800D01*
X15972D01*
X16300Y32472D01*
Y31816D01*
X15972Y31488D01*
X16300Y34768D02*
Y33456D01*
X14988Y34768D01*
X14660D01*
X14332Y34440D01*
Y33784D01*
X14660Y33456D01*
X90600Y181368D02*
Y179400D01*
X91912D01*
X92568Y181040D02*
X92896Y181368D01*
X93552D01*
X93880Y181040D01*
Y180712D01*
X93552Y180384D01*
X93224D01*
X93552D01*
X93880Y180056D01*
Y179728D01*
X93552Y179400D01*
X92896D01*
X92568Y179728D01*
X94536Y181040D02*
X94864Y181368D01*
X95520D01*
X95848Y181040D01*
Y180712D01*
X95520Y180384D01*
X95848Y180056D01*
Y179728D01*
X95520Y179400D01*
X94864D01*
X94536Y179728D01*
Y180056D01*
X94864Y180384D01*
X94536Y180712D01*
Y181040D01*
X94864Y180384D02*
X95520D01*
X134960Y88612D02*
X134632Y88284D01*
Y87628D01*
X134960Y87300D01*
X136272D01*
X136600Y87628D01*
Y88284D01*
X136272Y88612D01*
X134632Y90580D02*
X134960Y89924D01*
X135616Y89268D01*
X136272D01*
X136600Y89596D01*
Y90252D01*
X136272Y90580D01*
X135944D01*
X135616Y90252D01*
Y89268D01*
X136600Y91236D02*
Y91892D01*
Y91564D01*
X134632D01*
X134960Y91236D01*
X92356Y34776D02*
X92028Y34449D01*
Y33792D01*
X92356Y33465D01*
X93668D01*
X93996Y33792D01*
Y34449D01*
X93668Y34776D01*
X93996Y35432D02*
Y36088D01*
Y35760D01*
X92028D01*
X92356Y35432D01*
X121195Y32906D02*
X120867Y32578D01*
Y31923D01*
X121195Y31594D01*
X122507D01*
X122835Y31923D01*
Y32578D01*
X122507Y32906D01*
X122835Y34874D02*
Y33562D01*
X121523Y34874D01*
X121195D01*
X120867Y34546D01*
Y33890D01*
X121195Y33562D01*
X116861Y9662D02*
X116534Y9990D01*
X115878D01*
X115550Y9662D01*
Y8350D01*
X115878Y8022D01*
X116534D01*
X116861Y8350D01*
X117517Y9662D02*
X117845Y9990D01*
X118501D01*
X118829Y9662D01*
Y9334D01*
X118501Y9006D01*
X118173D01*
X118501D01*
X118829Y8678D01*
Y8350D01*
X118501Y8022D01*
X117845D01*
X117517Y8350D01*
X126706Y41502D02*
X126378Y41830D01*
X125722D01*
X125394Y41502D01*
Y40190D01*
X125722Y39862D01*
X126378D01*
X126706Y40190D01*
X128674Y41830D02*
X127362D01*
Y40846D01*
X128017Y41174D01*
X128346D01*
X128674Y40846D01*
Y40190D01*
X128346Y39862D01*
X127690D01*
X127362Y40190D01*
X112139Y40813D02*
X111811Y41141D01*
X111155D01*
X110827Y40813D01*
Y39501D01*
X111155Y39173D01*
X111811D01*
X112139Y39501D01*
X114107Y41141D02*
X113451Y40813D01*
X112795Y40157D01*
Y39501D01*
X113123Y39173D01*
X113779D01*
X114107Y39501D01*
Y39829D01*
X113779Y40157D01*
X112795D01*
X137336Y39042D02*
X137007Y39369D01*
X136352D01*
X136024Y39042D01*
Y37730D01*
X136352Y37402D01*
X137007D01*
X137336Y37730D01*
X137991Y39369D02*
X139303D01*
Y39042D01*
X137991Y37730D01*
Y37402D01*
X105052Y65124D02*
X104724Y65452D01*
X104068D01*
X103740Y65124D01*
Y63812D01*
X104068Y63484D01*
X104724D01*
X105052Y63812D01*
X105708D02*
X106036Y63484D01*
X106692D01*
X107020Y63812D01*
Y65124D01*
X106692Y65452D01*
X106036D01*
X105708Y65124D01*
Y64796D01*
X106036Y64468D01*
X107020D01*
X94717Y45341D02*
X94389Y45669D01*
X93734D01*
X93405Y45341D01*
Y44029D01*
X93734Y43701D01*
X94389D01*
X94717Y44029D01*
X95373Y43701D02*
X96029D01*
X95701D01*
Y45669D01*
X95373Y45341D01*
X97013D02*
X97341Y45669D01*
X97997D01*
X98325Y45341D01*
Y44029D01*
X97997Y43701D01*
X97341D01*
X97013Y44029D01*
Y45341D01*
X118044Y52034D02*
X117716Y52362D01*
X117060D01*
X116732Y52034D01*
Y50722D01*
X117060Y50394D01*
X117716D01*
X118044Y50722D01*
X118700Y50394D02*
X119356D01*
X119028D01*
Y52362D01*
X118700Y52034D01*
X120340Y50394D02*
X120996D01*
X120668D01*
Y52362D01*
X120340Y52034D01*
X120013Y87368D02*
X119685Y87696D01*
X119029D01*
X118701Y87368D01*
Y86056D01*
X119029Y85728D01*
X119685D01*
X120013Y86056D01*
X120669Y85728D02*
X121325D01*
X120997D01*
Y87696D01*
X120669Y87368D01*
X122309D02*
X122636Y87696D01*
X123293D01*
X123620Y87368D01*
Y87040D01*
X123293Y86712D01*
X122965D01*
X123293D01*
X123620Y86384D01*
Y86056D01*
X123293Y85728D01*
X122636D01*
X122309Y86056D01*
X11760Y126312D02*
X11432Y125984D01*
Y125328D01*
X11760Y125000D01*
X13072D01*
X13400Y125328D01*
Y125984D01*
X13072Y126312D01*
X13400Y126968D02*
Y127624D01*
Y127296D01*
X11432D01*
X11760Y126968D01*
X13400Y129592D02*
X11432D01*
X12416Y128608D01*
Y129920D01*
X59680Y121620D02*
X59352Y121948D01*
X58696D01*
X58368Y121620D01*
Y120308D01*
X58696Y119980D01*
X59352D01*
X59680Y120308D01*
X60336Y119980D02*
X60992D01*
X60664D01*
Y121948D01*
X60336Y121620D01*
X63287Y121948D02*
X61976D01*
Y120964D01*
X62631Y121292D01*
X62959D01*
X63287Y120964D01*
Y120308D01*
X62959Y119980D01*
X62303D01*
X61976Y120308D01*
X35912Y188740D02*
X35584Y189068D01*
X34928D01*
X34600Y188740D01*
Y187428D01*
X34928Y187100D01*
X35584D01*
X35912Y187428D01*
X36568Y187100D02*
X37224D01*
X36896D01*
Y189068D01*
X36568Y188740D01*
X38208Y189068D02*
X39520D01*
Y188740D01*
X38208Y187428D01*
Y187100D01*
X54855Y98261D02*
X54527Y97933D01*
Y97277D01*
X54855Y96949D01*
X56166D01*
X56494Y97277D01*
Y97933D01*
X56166Y98261D01*
X56494Y98917D02*
Y99573D01*
Y99245D01*
X54527D01*
X54855Y98917D01*
Y100557D02*
X54527Y100884D01*
Y101541D01*
X54855Y101868D01*
X55183D01*
X55511Y101541D01*
X55839Y101868D01*
X56166D01*
X56494Y101541D01*
Y100884D01*
X56166Y100557D01*
X55839D01*
X55511Y100884D01*
X55183Y100557D01*
X54855D01*
X55511Y100884D02*
Y101541D01*
X58660Y110312D02*
X58332Y109984D01*
Y109328D01*
X58660Y109000D01*
X59972D01*
X60300Y109328D01*
Y109984D01*
X59972Y110312D01*
X60300Y110968D02*
Y111624D01*
Y111296D01*
X58332D01*
X58660Y110968D01*
X59972Y112608D02*
X60300Y112936D01*
Y113592D01*
X59972Y113920D01*
X58660D01*
X58332Y113592D01*
Y112936D01*
X58660Y112608D01*
X58988D01*
X59316Y112936D01*
Y113920D01*
X80347Y98687D02*
X80019Y99015D01*
X79363D01*
X79035Y98687D01*
Y97375D01*
X79363Y97047D01*
X80019D01*
X80347Y97375D01*
X82315Y97047D02*
X81003D01*
X82315Y98359D01*
Y98687D01*
X81987Y99015D01*
X81331D01*
X81003Y98687D01*
X82971D02*
X83299Y99015D01*
X83955D01*
X84283Y98687D01*
Y97375D01*
X83955Y97047D01*
X83299D01*
X82971Y97375D01*
Y98687D01*
X62312Y127240D02*
X61984Y127568D01*
X61328D01*
X61000Y127240D01*
Y125928D01*
X61328Y125600D01*
X61984D01*
X62312Y125928D01*
X64280Y125600D02*
X62968D01*
X64280Y126912D01*
Y127240D01*
X63952Y127568D01*
X63296D01*
X62968Y127240D01*
X64936Y125600D02*
X65592D01*
X65264D01*
Y127568D01*
X64936Y127240D01*
X134054Y126233D02*
X133726Y125905D01*
Y125249D01*
X134054Y124921D01*
X135366D01*
X135694Y125249D01*
Y125905D01*
X135366Y126233D01*
X135694Y128201D02*
Y126889D01*
X134382Y128201D01*
X134054D01*
X133726Y127873D01*
Y127217D01*
X134054Y126889D01*
X135694Y130169D02*
Y128857D01*
X134382Y130169D01*
X134054D01*
X133726Y129841D01*
Y129185D01*
X134054Y128857D01*
X100623Y119750D02*
X100295Y120078D01*
X99639D01*
X99311Y119750D01*
Y118438D01*
X99639Y118110D01*
X100295D01*
X100623Y118438D01*
X102591Y118110D02*
X101279D01*
X102591Y119422D01*
Y119750D01*
X102263Y120078D01*
X101607D01*
X101279Y119750D01*
X103247D02*
X103575Y120078D01*
X104231D01*
X104559Y119750D01*
Y119422D01*
X104231Y119094D01*
X103903D01*
X104231D01*
X104559Y118766D01*
Y118438D01*
X104231Y118110D01*
X103575D01*
X103247Y118438D01*
X80741Y109612D02*
X80413Y109940D01*
X79757D01*
X79429Y109612D01*
Y108300D01*
X79757Y107972D01*
X80413D01*
X80741Y108300D01*
X82709Y107972D02*
X81397D01*
X82709Y109284D01*
Y109612D01*
X82381Y109940D01*
X81725D01*
X81397Y109612D01*
X84349Y107972D02*
Y109940D01*
X83365Y108956D01*
X84677D01*
X74712Y128540D02*
X74384Y128868D01*
X73728D01*
X73400Y128540D01*
Y127228D01*
X73728Y126900D01*
X74384D01*
X74712Y127228D01*
X76680Y126900D02*
X75368D01*
X76680Y128212D01*
Y128540D01*
X76352Y128868D01*
X75696D01*
X75368Y128540D01*
X78648Y128868D02*
X77992Y128540D01*
X77336Y127884D01*
Y127228D01*
X77664Y126900D01*
X78320D01*
X78648Y127228D01*
Y127556D01*
X78320Y127884D01*
X77336D01*
X85301Y115322D02*
X85629Y115650D01*
Y116306D01*
X85301Y116634D01*
X83989D01*
X83661Y116306D01*
Y115650D01*
X83989Y115322D01*
X83661Y113354D02*
Y114666D01*
X84973Y113354D01*
X85301D01*
X85629Y113682D01*
Y114338D01*
X85301Y114666D01*
X85629Y112698D02*
Y111386D01*
X85301D01*
X83989Y112698D01*
X83661D01*
X96817Y115517D02*
X97145Y115845D01*
Y116501D01*
X96817Y116829D01*
X95505D01*
X95177Y116501D01*
Y115845D01*
X95505Y115517D01*
X95177Y113549D02*
Y114862D01*
X96489Y113549D01*
X96817D01*
X97145Y113877D01*
Y114533D01*
X96817Y114862D01*
Y112894D02*
X97145Y112566D01*
Y111910D01*
X96817Y111582D01*
X96489D01*
X96161Y111910D01*
X95833Y111582D01*
X95505D01*
X95177Y111910D01*
Y112566D01*
X95505Y112894D01*
X95833D01*
X96161Y112566D01*
X96489Y112894D01*
X96817D01*
X96161Y112566D02*
Y111910D01*
X72473Y105183D02*
X72145Y105511D01*
X71489D01*
X71161Y105183D01*
Y103871D01*
X71489Y103543D01*
X72145D01*
X72473Y103871D01*
X74441Y103543D02*
X73129D01*
X74441Y104855D01*
Y105183D01*
X74113Y105511D01*
X73457D01*
X73129Y105183D01*
X75097Y103871D02*
X75425Y103543D01*
X76081D01*
X76409Y103871D01*
Y105183D01*
X76081Y105511D01*
X75425D01*
X75097Y105183D01*
Y104855D01*
X75425Y104527D01*
X76409D01*
X103061Y181242D02*
X102733Y181570D01*
X102077D01*
X101749Y181242D01*
Y179930D01*
X102077Y179602D01*
X102733D01*
X103061Y179930D01*
X103717Y181242D02*
X104045Y181570D01*
X104701D01*
X105029Y181242D01*
Y180914D01*
X104701Y180586D01*
X104373D01*
X104701D01*
X105029Y180258D01*
Y179930D01*
X104701Y179602D01*
X104045D01*
X103717Y179930D01*
X105684Y181242D02*
X106012Y181570D01*
X106668D01*
X106997Y181242D01*
Y179930D01*
X106668Y179602D01*
X106012D01*
X105684Y179930D01*
Y181242D01*
X91305Y78609D02*
X91633Y78937D01*
Y79593D01*
X91305Y79921D01*
X89993D01*
X89665Y79593D01*
Y78937D01*
X89993Y78609D01*
X91305Y77953D02*
X91633Y77625D01*
Y76969D01*
X91305Y76641D01*
X90977D01*
X90649Y76969D01*
Y77298D01*
Y76969D01*
X90321Y76641D01*
X89993D01*
X89665Y76969D01*
Y77625D01*
X89993Y77953D01*
X89665Y74674D02*
Y75985D01*
X90977Y74674D01*
X91305D01*
X91633Y75002D01*
Y75658D01*
X91305Y75985D01*
X94947Y78609D02*
X95275Y78937D01*
Y79593D01*
X94947Y79921D01*
X93635D01*
X93307Y79593D01*
Y78937D01*
X93635Y78609D01*
X94947Y77953D02*
X95275Y77625D01*
Y76969D01*
X94947Y76641D01*
X94619D01*
X94291Y76969D01*
Y77298D01*
Y76969D01*
X93963Y76641D01*
X93635D01*
X93307Y76969D01*
Y77625D01*
X93635Y77953D01*
X94947Y75985D02*
X95275Y75658D01*
Y75002D01*
X94947Y74674D01*
X94619D01*
X94291Y75002D01*
Y75330D01*
Y75002D01*
X93963Y74674D01*
X93635D01*
X93307Y75002D01*
Y75658D01*
X93635Y75985D01*
X49836Y106758D02*
X49508Y107086D01*
X48852D01*
X48524Y106758D01*
Y105446D01*
X48852Y105118D01*
X49508D01*
X49836Y105446D01*
X50491Y106758D02*
X50819Y107086D01*
X51475D01*
X51803Y106758D01*
Y106430D01*
X51475Y106102D01*
X51147D01*
X51475D01*
X51803Y105774D01*
Y105446D01*
X51475Y105118D01*
X50819D01*
X50491Y105446D01*
X53443Y105118D02*
Y107086D01*
X52459Y106102D01*
X53771D01*
X42454Y96719D02*
X42126Y97047D01*
X41470D01*
X41142Y96719D01*
Y95407D01*
X41470Y95079D01*
X42126D01*
X42454Y95407D01*
X43110Y96719D02*
X43438Y97047D01*
X44093D01*
X44421Y96719D01*
Y96391D01*
X44093Y96063D01*
X43766D01*
X44093D01*
X44421Y95735D01*
Y95407D01*
X44093Y95079D01*
X43438D01*
X43110Y95407D01*
X46389Y97047D02*
X45077D01*
Y96063D01*
X45733Y96391D01*
X46061D01*
X46389Y96063D01*
Y95407D01*
X46061Y95079D01*
X45405D01*
X45077Y95407D01*
X50412Y50940D02*
X50084Y51268D01*
X49428D01*
X49100Y50940D01*
Y49628D01*
X49428Y49300D01*
X50084D01*
X50412Y49628D01*
X51068Y50940D02*
X51396Y51268D01*
X52052D01*
X52380Y50940D01*
Y50612D01*
X52052Y50284D01*
X51724D01*
X52052D01*
X52380Y49956D01*
Y49628D01*
X52052Y49300D01*
X51396D01*
X51068Y49628D01*
X53036Y51268D02*
X54348D01*
Y50940D01*
X53036Y49628D01*
Y49300D01*
X51060Y63212D02*
X50732Y62884D01*
Y62228D01*
X51060Y61900D01*
X52372D01*
X52700Y62228D01*
Y62884D01*
X52372Y63212D01*
X51060Y63868D02*
X50732Y64196D01*
Y64852D01*
X51060Y65180D01*
X51388D01*
X51716Y64852D01*
Y64524D01*
Y64852D01*
X52044Y65180D01*
X52372D01*
X52700Y64852D01*
Y64196D01*
X52372Y63868D01*
Y65836D02*
X52700Y66164D01*
Y66820D01*
X52372Y67148D01*
X51060D01*
X50732Y66820D01*
Y66164D01*
X51060Y65836D01*
X51388D01*
X51716Y66164D01*
Y67148D01*
X80938Y49868D02*
X80610Y50196D01*
X79954D01*
X79626Y49868D01*
Y48556D01*
X79954Y48228D01*
X80610D01*
X80938Y48556D01*
X82578Y48228D02*
Y50196D01*
X81594Y49212D01*
X82906D01*
X83562Y48228D02*
X84218D01*
X83890D01*
Y50196D01*
X83562Y49868D01*
X61412Y47240D02*
X61084Y47568D01*
X60428D01*
X60100Y47240D01*
Y45928D01*
X60428Y45600D01*
X61084D01*
X61412Y45928D01*
X63052Y45600D02*
Y47568D01*
X62068Y46584D01*
X63380D01*
X65348Y45600D02*
X64036D01*
X65348Y46912D01*
Y47240D01*
X65020Y47568D01*
X64364D01*
X64036Y47240D01*
X8812Y59340D02*
X8484Y59668D01*
X7828D01*
X7500Y59340D01*
Y58028D01*
X7828Y57700D01*
X8484D01*
X8812Y58028D01*
X10452Y57700D02*
Y59668D01*
X9468Y58684D01*
X10780D01*
X12420Y57700D02*
Y59668D01*
X11436Y58684D01*
X12748D01*
X37447Y85305D02*
X37119Y85633D01*
X36463D01*
X36135Y85305D01*
Y83993D01*
X36463Y83665D01*
X37119D01*
X37447Y83993D01*
X39086Y83665D02*
Y85633D01*
X38102Y84649D01*
X39414D01*
X40070Y83993D02*
X40398Y83665D01*
X41054D01*
X41382Y83993D01*
Y85305D01*
X41054Y85633D01*
X40398D01*
X40070Y85305D01*
Y84977D01*
X40398Y84649D01*
X41382D01*
X69717Y56364D02*
X69389Y56692D01*
X68734D01*
X68405Y56364D01*
Y55052D01*
X68734Y54724D01*
X69389D01*
X69717Y55052D01*
X71685Y56692D02*
X70373D01*
Y55708D01*
X71029Y56036D01*
X71357D01*
X71685Y55708D01*
Y55052D01*
X71357Y54724D01*
X70701D01*
X70373Y55052D01*
X72341Y56364D02*
X72669Y56692D01*
X73325D01*
X73653Y56364D01*
Y56036D01*
X73325Y55708D01*
X73653Y55380D01*
Y55052D01*
X73325Y54724D01*
X72669D01*
X72341Y55052D01*
Y55380D01*
X72669Y55708D01*
X72341Y56036D01*
Y56364D01*
X72669Y55708D02*
X73325D01*
X130760Y94512D02*
X130432Y94184D01*
Y93528D01*
X130760Y93200D01*
X132072D01*
X132400Y93528D01*
Y94184D01*
X132072Y94512D01*
X130432Y96480D02*
X130760Y95824D01*
X131416Y95168D01*
X132072D01*
X132400Y95496D01*
Y96152D01*
X132072Y96480D01*
X131744D01*
X131416Y96152D01*
Y95168D01*
X132400Y98448D02*
Y97136D01*
X131088Y98448D01*
X130760D01*
X130432Y98120D01*
Y97464D01*
X130760Y97136D01*
X124048Y107447D02*
X123720Y107775D01*
X123064D01*
X122736Y107447D01*
Y106135D01*
X123064Y105807D01*
X123720D01*
X124048Y106135D01*
X126016Y107775D02*
X125360Y107447D01*
X124704Y106791D01*
Y106135D01*
X125032Y105807D01*
X125688D01*
X126016Y106135D01*
Y106463D01*
X125688Y106791D01*
X124704D01*
X126672Y107447D02*
X127000Y107775D01*
X127656D01*
X127984Y107447D01*
Y107119D01*
X127656Y106791D01*
X127328D01*
X127656D01*
X127984Y106463D01*
Y106135D01*
X127656Y105807D01*
X127000D01*
X126672Y106135D01*
X126607Y91010D02*
X126279Y91338D01*
X125623D01*
X125295Y91010D01*
Y89698D01*
X125623Y89370D01*
X126279D01*
X126607Y89698D01*
X128575Y91338D02*
X127919Y91010D01*
X127263Y90354D01*
Y89698D01*
X127591Y89370D01*
X128247D01*
X128575Y89698D01*
Y90026D01*
X128247Y90354D01*
X127263D01*
X130215Y89370D02*
Y91338D01*
X129231Y90354D01*
X130543D01*
X104034Y13522D02*
Y11554D01*
X105018D01*
X105346Y11882D01*
Y13194D01*
X105018Y13522D01*
X104034D01*
X107314D02*
X106002D01*
Y12538D01*
X106658Y12866D01*
X106986D01*
X107314Y12538D01*
Y11882D01*
X106986Y11554D01*
X106330D01*
X106002Y11882D01*
X60434Y91142D02*
X62402D01*
Y92454D01*
Y93110D02*
Y93765D01*
Y93438D01*
X60434D01*
X60762Y93110D01*
X57875Y104232D02*
X59842D01*
Y105544D01*
Y107512D02*
Y106200D01*
X58531Y107512D01*
X58203D01*
X57875Y107184D01*
Y106528D01*
X58203Y106200D01*
X22632Y187300D02*
X24600D01*
Y188612D01*
X22960Y189268D02*
X22632Y189596D01*
Y190252D01*
X22960Y190580D01*
X23288D01*
X23616Y190252D01*
Y189924D01*
Y190252D01*
X23944Y190580D01*
X24272D01*
X24600Y190252D01*
Y189596D01*
X24272Y189268D01*
X29600Y188868D02*
Y186900D01*
X30912D01*
X32552D02*
Y188868D01*
X31568Y187884D01*
X32880D01*
X84942Y104921D02*
X82974D01*
Y103610D01*
X84942Y101642D02*
Y102954D01*
X83958D01*
X84286Y102298D01*
Y101970D01*
X83958Y101642D01*
X83302D01*
X82974Y101970D01*
Y102626D01*
X83302Y102954D01*
X79300Y126668D02*
Y124700D01*
X80612D01*
X82580Y126668D02*
X81924Y126340D01*
X81268Y125684D01*
Y125028D01*
X81596Y124700D01*
X82252D01*
X82580Y125028D01*
Y125356D01*
X82252Y125684D01*
X81268D01*
X89173Y120374D02*
Y118406D01*
X90485D01*
X91141Y120374D02*
X92453D01*
Y120046D01*
X91141Y118734D01*
Y118406D01*
X79232Y95373D02*
Y93406D01*
X80544D01*
X81200Y95046D02*
X81528Y95373D01*
X82184D01*
X82512Y95046D01*
Y94718D01*
X82184Y94389D01*
X82512Y94062D01*
Y93734D01*
X82184Y93406D01*
X81528D01*
X81200Y93734D01*
Y94062D01*
X81528Y94389D01*
X81200Y94718D01*
Y95046D01*
X81528Y94389D02*
X82184D01*
X67323Y96358D02*
X69291D01*
Y97670D01*
X68963Y98326D02*
X69291Y98654D01*
Y99310D01*
X68963Y99638D01*
X67651D01*
X67323Y99310D01*
Y98654D01*
X67651Y98326D01*
X67979D01*
X68307Y98654D01*
Y99638D01*
X97185Y192046D02*
Y190078D01*
X98497D01*
X99153D02*
X99809D01*
X99481D01*
Y192046D01*
X99153Y191718D01*
X100793D02*
X101121Y192046D01*
X101777D01*
X102105Y191718D01*
Y190406D01*
X101777Y190078D01*
X101121D01*
X100793Y190406D01*
Y191718D01*
X39075Y106299D02*
Y104331D01*
X40387D01*
X41043D02*
X41699D01*
X41371D01*
Y106299D01*
X41043Y105971D01*
X43995Y104331D02*
X42683D01*
X43995Y105643D01*
Y105971D01*
X43666Y106299D01*
X43011D01*
X42683Y105971D01*
X87992Y66043D02*
X86024D01*
Y67027D01*
X86352Y67355D01*
X87008D01*
X87336Y67027D01*
Y66043D01*
Y66699D02*
X87992Y67355D01*
Y68011D02*
Y68667D01*
Y68339D01*
X86024D01*
X86352Y68011D01*
X87992Y69488D02*
X86024D01*
Y70472D01*
X86352Y70800D01*
X87008D01*
X87336Y70472D01*
Y69488D01*
Y70144D02*
X87992Y70800D01*
Y72768D02*
Y71456D01*
X86680Y72768D01*
X86352D01*
X86024Y72440D01*
Y71784D01*
X86352Y71456D01*
X97933Y33563D02*
X95965D01*
Y34547D01*
X96293Y34875D01*
X96949D01*
X97277Y34547D01*
Y33563D01*
Y34219D02*
X97933Y34875D01*
X96293Y35531D02*
X95965Y35859D01*
Y36515D01*
X96293Y36843D01*
X96621D01*
X96949Y36515D01*
Y36187D01*
Y36515D01*
X97277Y36843D01*
X97605D01*
X97933Y36515D01*
Y35859D01*
X97605Y35531D01*
X125591Y29528D02*
Y31495D01*
X126575D01*
X126902Y31167D01*
Y30512D01*
X126575Y30184D01*
X125591D01*
X126247D02*
X126902Y29528D01*
X128542D02*
Y31495D01*
X127558Y30512D01*
X128870D01*
X94882Y21358D02*
X92914D01*
Y22342D01*
X93242Y22670D01*
X93898D01*
X94226Y22342D01*
Y21358D01*
Y22014D02*
X94882Y22670D01*
X92914Y24638D02*
Y23326D01*
X93898D01*
X93570Y23982D01*
Y24310D01*
X93898Y24638D01*
X94554D01*
X94882Y24310D01*
Y23654D01*
X94554Y23326D01*
X124803Y22539D02*
Y24507D01*
X125787D01*
X126115Y24179D01*
Y23523D01*
X125787Y23195D01*
X124803D01*
X125459D02*
X126115Y22539D01*
X128083Y24507D02*
X127427Y24179D01*
X126771Y23523D01*
Y22867D01*
X127099Y22539D01*
X127755D01*
X128083Y22867D01*
Y23195D01*
X127755Y23523D01*
X126771D01*
X119193Y31594D02*
X117225D01*
Y32578D01*
X117553Y32906D01*
X118209D01*
X118537Y32578D01*
Y31594D01*
Y32250D02*
X119193Y32906D01*
X117225Y33562D02*
Y34874D01*
X117553D01*
X118865Y33562D01*
X119193D01*
X138931Y60976D02*
X140899D01*
Y59992D01*
X140571Y59664D01*
X139915D01*
X139587Y59992D01*
Y60976D01*
Y60320D02*
X138931Y59664D01*
X140571Y59009D02*
X140899Y58680D01*
Y58025D01*
X140571Y57697D01*
X140243D01*
X139915Y58025D01*
X139587Y57697D01*
X139259D01*
X138931Y58025D01*
Y58680D01*
X139259Y59009D01*
X139587D01*
X139915Y58680D01*
X140243Y59009D01*
X140571D01*
X139915Y58680D02*
Y58025D01*
X18012Y35433D02*
Y37401D01*
X18996D01*
X19324Y37073D01*
Y36417D01*
X18996Y36089D01*
X18012D01*
X18668D02*
X19324Y35433D01*
X19980D02*
X20636D01*
X20308D01*
Y37401D01*
X19980Y37073D01*
X21620D02*
X21948Y37401D01*
X22603D01*
X22931Y37073D01*
Y35761D01*
X22603Y35433D01*
X21948D01*
X21620Y35761D01*
Y37073D01*
X26700Y22080D02*
X24732D01*
Y23064D01*
X25060Y23391D01*
X25716D01*
X26044Y23064D01*
Y22080D01*
Y22736D02*
X26700Y23391D01*
Y24047D02*
Y24703D01*
Y24375D01*
X24732D01*
X25060Y24047D01*
X26700Y25687D02*
Y26343D01*
Y26015D01*
X24732D01*
X25060Y25687D01*
X33500Y28400D02*
X31532D01*
Y29384D01*
X31860Y29712D01*
X32516D01*
X32844Y29384D01*
Y28400D01*
Y29056D02*
X33500Y29712D01*
Y30368D02*
Y31024D01*
Y30696D01*
X31532D01*
X31860Y30368D01*
X33500Y33320D02*
Y32008D01*
X32188Y33320D01*
X31860D01*
X31532Y32992D01*
Y32336D01*
X31860Y32008D01*
X39300Y26379D02*
X41268D01*
Y25396D01*
X40940Y25068D01*
X40284D01*
X39956Y25396D01*
Y26379D01*
Y25724D02*
X39300Y25068D01*
Y24412D02*
Y23756D01*
Y24084D01*
X41268D01*
X40940Y24412D01*
Y22772D02*
X41268Y22444D01*
Y21788D01*
X40940Y21460D01*
X40612D01*
X40284Y21788D01*
Y22116D01*
Y21788D01*
X39956Y21460D01*
X39628D01*
X39300Y21788D01*
Y22444D01*
X39628Y22772D01*
X51476Y41142D02*
Y43110D01*
X52460D01*
X52788Y42782D01*
Y42126D01*
X52460Y41798D01*
X51476D01*
X52132D02*
X52788Y41142D01*
X53444D02*
X54100D01*
X53772D01*
Y43110D01*
X53444Y42782D01*
X56068Y41142D02*
Y43110D01*
X55084Y42126D01*
X56396D01*
X50787Y44980D02*
Y46948D01*
X51771D01*
X52099Y46620D01*
Y45964D01*
X51771Y45636D01*
X50787D01*
X51443D02*
X52099Y44980D01*
X52755D02*
X53411D01*
X53083D01*
Y46948D01*
X52755Y46620D01*
X55707Y46948D02*
X54395D01*
Y45964D01*
X55051Y46292D01*
X55379D01*
X55707Y45964D01*
Y45308D01*
X55379Y44980D01*
X54723D01*
X54395Y45308D01*
X118307Y45374D02*
Y47342D01*
X119291D01*
X119619Y47014D01*
Y46358D01*
X119291Y46030D01*
X118307D01*
X118963D02*
X119619Y45374D01*
X120275D02*
X120931D01*
X120603D01*
Y47342D01*
X120275Y47014D01*
X123227Y47342D02*
X122571Y47014D01*
X121915Y46358D01*
Y45702D01*
X122243Y45374D01*
X122899D01*
X123227Y45702D01*
Y46030D01*
X122899Y46358D01*
X121915D01*
X95372Y11062D02*
Y13030D01*
X96356D01*
X96684Y12702D01*
Y12046D01*
X96356Y11718D01*
X95372D01*
X96028D02*
X96684Y11062D01*
X97340D02*
X97996D01*
X97668D01*
Y13030D01*
X97340Y12702D01*
X98980Y13030D02*
X100292D01*
Y12702D01*
X98980Y11390D01*
Y11062D01*
X118209Y41142D02*
Y43110D01*
X119193D01*
X119521Y42782D01*
Y42126D01*
X119193Y41798D01*
X118209D01*
X118865D02*
X119521Y41142D01*
X120176D02*
X120833D01*
X120504D01*
Y43110D01*
X120176Y42782D01*
X121816D02*
X122144Y43110D01*
X122800D01*
X123128Y42782D01*
Y42454D01*
X122800Y42126D01*
X123128Y41798D01*
Y41470D01*
X122800Y41142D01*
X122144D01*
X121816Y41470D01*
Y41798D01*
X122144Y42126D01*
X121816Y42454D01*
Y42782D01*
X122144Y42126D02*
X122800D01*
X15754Y80317D02*
Y82285D01*
X16738D01*
X17066Y81957D01*
Y81301D01*
X16738Y80973D01*
X15754D01*
X16410D02*
X17066Y80317D01*
X17722Y81957D02*
X18050Y82285D01*
X18706D01*
X19034Y81957D01*
Y81629D01*
X18706Y81301D01*
X18378D01*
X18706D01*
X19034Y80973D01*
Y80645D01*
X18706Y80317D01*
X18050D01*
X17722Y80645D01*
X21002Y82285D02*
X19690D01*
Y81301D01*
X20346Y81629D01*
X20674D01*
X21002Y81301D01*
Y80645D01*
X20674Y80317D01*
X20018D01*
X19690Y80645D01*
X27653Y67516D02*
Y69484D01*
X28637D01*
X28965Y69156D01*
Y68500D01*
X28637Y68172D01*
X27653D01*
X28309D02*
X28965Y67516D01*
X29621Y69156D02*
X29949Y69484D01*
X30605D01*
X30933Y69156D01*
Y68828D01*
X30605Y68500D01*
X30277D01*
X30605D01*
X30933Y68172D01*
Y67844D01*
X30605Y67516D01*
X29949D01*
X29621Y67844D01*
X32900Y69484D02*
X32244Y69156D01*
X31589Y68500D01*
Y67844D01*
X31916Y67516D01*
X32572D01*
X32900Y67844D01*
Y68172D01*
X32572Y68500D01*
X31589D01*
X82312Y12440D02*
X81984Y12768D01*
X81328D01*
X81000Y12440D01*
Y12112D01*
X81328Y11784D01*
X81984D01*
X82312Y11456D01*
Y11128D01*
X81984Y10800D01*
X81328D01*
X81000Y11128D01*
X82968Y10800D02*
X83624D01*
X83296D01*
Y12768D01*
X82968Y12440D01*
X136537Y44584D02*
X137849D01*
X137193D01*
Y42616D01*
X138505D02*
Y44584D01*
X139489D01*
X139817Y44256D01*
Y43600D01*
X139489Y43272D01*
X138505D01*
X140473Y42616D02*
X141129D01*
X140801D01*
Y44584D01*
X140473Y44256D01*
X131004Y35531D02*
Y33891D01*
X131332Y33563D01*
X131988D01*
X132316Y33891D01*
Y35531D01*
X132972Y33563D02*
X133628D01*
X133300D01*
Y35531D01*
X132972Y35203D01*
X101378Y37696D02*
Y36056D01*
X101706Y35728D01*
X102362D01*
X102690Y36056D01*
Y37696D01*
X104658Y35728D02*
X103346D01*
X104658Y37040D01*
Y37368D01*
X104330Y37696D01*
X103674D01*
X103346Y37368D01*
X113599Y22377D02*
Y20737D01*
X113927Y20410D01*
X114583D01*
X114911Y20737D01*
Y22377D01*
X115567Y22049D02*
X115895Y22377D01*
X116551D01*
X116879Y22049D01*
Y21721D01*
X116551Y21393D01*
X116223D01*
X116551D01*
X116879Y21065D01*
Y20737D01*
X116551Y20410D01*
X115895D01*
X115567Y20737D01*
X112598Y85629D02*
Y83989D01*
X112926Y83661D01*
X113582D01*
X113910Y83989D01*
Y85629D01*
X115550Y83661D02*
Y85629D01*
X114566Y84645D01*
X115878D01*
X85335Y61909D02*
Y60269D01*
X85663Y59941D01*
X86319D01*
X86647Y60269D01*
Y61909D01*
X88614D02*
X87303D01*
Y60925D01*
X87959Y61253D01*
X88287D01*
X88614Y60925D01*
Y60269D01*
X88287Y59941D01*
X87630D01*
X87303Y60269D01*
X66339Y112796D02*
X67979D01*
X68307Y113124D01*
Y113779D01*
X67979Y114108D01*
X66339D01*
X66667Y114763D02*
X66339Y115091D01*
Y115747D01*
X66667Y116075D01*
X66995D01*
X67323Y115747D01*
X67651Y116075D01*
X67979D01*
X68307Y115747D01*
Y115091D01*
X67979Y114763D01*
X67651D01*
X67323Y115091D01*
X66995Y114763D01*
X66667D01*
X67323Y115091D02*
Y115747D01*
X117126Y103838D02*
Y102198D01*
X117454Y101870D01*
X118110D01*
X118438Y102198D01*
Y103838D01*
X119094Y101870D02*
X119750D01*
X119422D01*
Y103838D01*
X119094Y103510D01*
X120734Y103838D02*
X122046D01*
Y103510D01*
X120734Y102198D01*
Y101870D01*
X87303Y100491D02*
X88615Y98524D01*
Y100491D02*
X87303Y98524D01*
X90255D02*
Y100491D01*
X89271Y99508D01*
X90583D01*
X104724Y72638D02*
X102756D01*
Y71326D01*
Y70670D02*
Y70014D01*
Y70342D01*
X104724D01*
X104396Y70670D01*
X102756Y69030D02*
Y68374D01*
Y68702D01*
X104724D01*
X104396Y69030D01*
X50612Y53640D02*
X50284Y53968D01*
X49628D01*
X49300Y53640D01*
Y52328D01*
X49628Y52000D01*
X50284D01*
X50612Y52328D01*
X51268Y53640D02*
X51596Y53968D01*
X52252D01*
X52580Y53640D01*
Y53312D01*
X52252Y52984D01*
X51924D01*
X52252D01*
X52580Y52656D01*
Y52328D01*
X52252Y52000D01*
X51596D01*
X51268Y52328D01*
X54548Y53968D02*
X53892Y53640D01*
X53236Y52984D01*
Y52328D01*
X53564Y52000D01*
X54220D01*
X54548Y52328D01*
Y52656D01*
X54220Y52984D01*
X53236D01*
X42212Y56340D02*
X41884Y56668D01*
X41228D01*
X40900Y56340D01*
Y55028D01*
X41228Y54700D01*
X41884D01*
X42212Y55028D01*
X42868Y56340D02*
X43196Y56668D01*
X43852D01*
X44180Y56340D01*
Y56012D01*
X43852Y55684D01*
X43524D01*
X43852D01*
X44180Y55356D01*
Y55028D01*
X43852Y54700D01*
X43196D01*
X42868Y55028D01*
X44836Y56340D02*
X45164Y56668D01*
X45820D01*
X46148Y56340D01*
Y56012D01*
X45820Y55684D01*
X46148Y55356D01*
Y55028D01*
X45820Y54700D01*
X45164D01*
X44836Y55028D01*
Y55356D01*
X45164Y55684D01*
X44836Y56012D01*
Y56340D01*
X45164Y55684D02*
X45820D01*
X80840Y53707D02*
X80511Y54035D01*
X79856D01*
X79528Y53707D01*
Y52395D01*
X79856Y52067D01*
X80511D01*
X80840Y52395D01*
X82479Y52067D02*
Y54035D01*
X81495Y53051D01*
X82807D01*
X83463Y53707D02*
X83791Y54035D01*
X84447D01*
X84775Y53707D01*
Y52395D01*
X84447Y52067D01*
X83791D01*
X83463Y52395D01*
Y53707D01*
X135761Y48392D02*
X135433Y48720D01*
X134777D01*
X134449Y48392D01*
Y47080D01*
X134777Y46752D01*
X135433D01*
X135761Y47080D01*
X136417Y46752D02*
X137073D01*
X136745D01*
Y48720D01*
X136417Y48392D01*
X139368Y46752D02*
X138057D01*
X139368Y48064D01*
Y48392D01*
X139041Y48720D01*
X138384D01*
X138057Y48392D01*
X21199Y59809D02*
Y58169D01*
X21527Y57841D01*
X22183D01*
X22511Y58169D01*
Y59809D01*
X23167Y57841D02*
X23823D01*
X23495D01*
Y59809D01*
X23167Y59481D01*
X24807Y57841D02*
X25463D01*
X25135D01*
Y59809D01*
X24807Y59481D01*
X7646Y177461D02*
Y178772D01*
X8302Y179429D01*
X8958Y178772D01*
Y177461D01*
Y178445D01*
X7646D01*
X9613Y177461D02*
Y179429D01*
X10925Y177461D01*
Y179429D01*
X11581D02*
X12893D01*
X12237D01*
Y177461D01*
X13549D02*
X14205D01*
X13877D01*
Y179429D01*
X13549Y179101D01*
X123800Y178300D02*
Y179612D01*
X124456Y180268D01*
X125112Y179612D01*
Y178300D01*
Y179284D01*
X123800D01*
X125768Y178300D02*
Y180268D01*
X127080Y178300D01*
Y180268D01*
X127736D02*
X129048D01*
X128392D01*
Y178300D01*
X131016D02*
X129704D01*
X131016Y179612D01*
Y179940D01*
X130687Y180268D01*
X130032D01*
X129704Y179940D01*
X24198Y134532D02*
X22230Y133220D01*
X24198D02*
X22230Y134532D01*
Y132564D02*
Y131909D01*
Y132236D01*
X24198D01*
X23870Y132564D01*
X116960Y6316D02*
X116632Y6643D01*
X115976D01*
X115648Y6316D01*
Y5004D01*
X115976Y4676D01*
X116632D01*
X116960Y5004D01*
X118600Y4676D02*
Y6643D01*
X117616Y5660D01*
X118928D01*
X45300Y128068D02*
Y126428D01*
X45628Y126100D01*
X46284D01*
X46612Y126428D01*
Y128068D01*
X47268D02*
X48580D01*
Y127740D01*
X47268Y126428D01*
Y126100D01*
X101800Y128868D02*
Y127228D01*
X102128Y126900D01*
X102784D01*
X103112Y127228D01*
Y128868D01*
X103768Y127228D02*
X104096Y126900D01*
X104752D01*
X105080Y127228D01*
Y128540D01*
X104752Y128868D01*
X104096D01*
X103768Y128540D01*
Y128212D01*
X104096Y127884D01*
X105080D01*
X67940Y45788D02*
X68268Y46116D01*
Y46772D01*
X67940Y47100D01*
X66628D01*
X66300Y46772D01*
Y46116D01*
X66628Y45788D01*
X67940Y45132D02*
X68268Y44804D01*
Y44148D01*
X67940Y43820D01*
X67612D01*
X67284Y44148D01*
X66956Y43820D01*
X66628D01*
X66300Y44148D01*
Y44804D01*
X66628Y45132D01*
X66956D01*
X67284Y44804D01*
X67612Y45132D01*
X67940D01*
X67284Y44804D02*
Y44148D01*
X68268Y41852D02*
X67940Y42508D01*
X67284Y43164D01*
X66628D01*
X66300Y42836D01*
Y42180D01*
X66628Y41852D01*
X66956D01*
X67284Y42180D01*
Y43164D01*
X28700Y82168D02*
Y80528D01*
X29028Y80200D01*
X29684D01*
X30012Y80528D01*
Y82168D01*
X30668Y80200D02*
X31324D01*
X30996D01*
Y82168D01*
X30668Y81840D01*
X33620Y82168D02*
X32964Y81840D01*
X32308Y81184D01*
Y80528D01*
X32636Y80200D01*
X33292D01*
X33620Y80528D01*
Y80856D01*
X33292Y81184D01*
X32308D01*
D117*
X117913Y58464D02*
Y56824D01*
X118241Y56496D01*
X118897D01*
X119225Y56824D01*
Y58464D01*
X121193D02*
X120537Y58136D01*
X119881Y57480D01*
Y56824D01*
X120209Y56496D01*
X120865D01*
X121193Y56824D01*
Y57152D01*
X120865Y57480D01*
X119881D01*
M02*
