M48
;Layer_Color=9474304
;FILE_FORMAT=2:5
INCH,LZ
;TYPE=PLATED
T1F00S00C0.00787
T3F00S00C0.01181
T5F00S00C0.01378
T7F00S00C0.01772
%
T01
X0080577Y0019972
Y0022372
Y0025372
X0082677Y0026772
X00849Y00267
Y0023944
X0082677Y0023917
Y002126
X00849Y0021188
Y0018826
X0082677Y0018898
X0029429Y0086417
X0018307Y0101083
X0012303Y0100886
T03
X0026575Y0053445
Y0056693
Y0059055
X00432Y00777
X0052165Y0033169
T05
X0011319Y0031398
X0009252Y0034547
T07
X0097701Y0100591
X0102622
X01066Y01006
X01114
M30
