M48
;Layer_Color=9474304
;FILE_FORMAT=2:5
INCH,LZ
;TYPE=PLATED
T1F00S00C0.00787
T3F00S00C0.01181
T4F00S00C0.01299
T5F00S00C0.01378
T7F00S00C0.01772
%
T01
X0053741Y0008541
X0053841Y0013141
X0060041Y0013041
X0059641Y0008541
X0067241Y0008941
Y0013441
X0075841Y0013341
X0075641Y0008641
X0082941Y0008741
X0083241Y0012641
X0073741Y0026841
X0062741Y0026741
X0002756Y0093307
X01278Y00807
X0129921Y0080709
X0130194Y00825
X0132163
X0134132
X01361
Y0080532
X0134132
X01322Y00805
X0145374Y0079725
X0144681Y00724
X0146981Y00711
X0145374Y008878
Y0097835
X0140206Y00511
X0139487Y0048013
X0136581Y0043
X0131081Y00409
X0129528Y0138583
X0134055
X0136319Y0143111
X0131792
X0127264
X0125Y0138583
X0086516Y0134055
X0081988
X0077461
X0072933
X0068406
X0063878
X0059351
X0061614Y0138583
X0066142
X007067
X0075197
X0079725
X0072933Y0143111
X0068406
X0063878
X0059351
X0061614Y0147638
X0066142
X007067
X0068406Y0152166
X0072933
X007067Y0156693
X0066142
X0061614
X0059351Y0152166
X0063878
Y0161221
X0059351
X0061614Y0165748
X0066142
X007067
X0068406Y0170276
X0072933
X007067Y0174803
X0066142
X0061614
X0059351Y0170276
X0063878
Y0179331
X0059351
X0061614Y0183859
X0066142
X007067
X0068406Y0179331
X0072933
Y0161221
X0068406
X0095571
X0100099
X0097835Y0156693
Y0165748
X0095571Y0170276
X0100099
X0097835Y0174803
X010689Y0183859
X0034449Y0174803
X0036713Y0170276
X0034449Y0165748
X0032185Y0161221
X0027658
X0025394Y0156693
X0020866
X0016339
X0011811
X0014075Y0152166
X0018603
X002313
X0027658
X0032185
X0036713
X0034449Y0156693
X0029921
Y0147638
X0025394
X0020866
X0016339
X0011811
X0014075Y0143111
X0018603
X002313
X0027658
X0032185
X0036713
X0034449Y0138583
X0029921
X0025394
X0020866
X0016339
X0011811
X0014075Y0134055
X0027658
X0032185
X0036713
X0034449Y0129528
X0029921
X0027658Y0125
X0032185
X0036713
X0050296Y0115945
X0054823
X0059351
X0063878
X0066142Y0111418
X007067
X0075197
X0072933Y0115945
X0077461
X0075197Y0120473
X007067
X0066142
X0061614
X0057087
X0059351Y0125
X0063878
X0068406
X0066142Y0129528
X0061614
X0079725Y0120473
X0034449Y0147638
X0036713Y0161221
X0027658Y0179331
T03
X001122Y0027461
X0014272Y0027067
X0016339Y0036713
X0015846Y0040256
X0009547Y0046063
Y0049311
X0008858Y0056595
X0023917Y0060039
X0028053Y0065554
X0029528Y006811
X0029Y00538
X0031102Y0045472
X0028346Y0041535
X0048602Y0025335
X0081398Y0072342
X0083169Y0079232
X0018504Y0079724
X0005512Y0079134
T04
X0062776Y0035976
Y00407
Y0045424
X00675
X0072224
Y00407
X00675
Y0035976
X0072224
T05
X0110988Y0065256
X011811Y0072631
Y007578
X0121457
Y0072631
X0124705
Y007578
X01431Y00632
X014096Y0059743
T07
X0107972Y0045571
X0126736Y0055709
M30
