%FSLAX25Y25*%
%MOIN*%
G70*
G01*
G75*
G04 Layer_Physical_Order=1*
G04 Layer_Color=255*
%ADD10C,0.01244*%
%ADD11C,0.01772*%
%ADD12C,0.00787*%
%ADD13C,0.01000*%
%ADD14C,0.01575*%
%ADD15R,0.01969X0.01969*%
%ADD16R,0.01969X0.01969*%
%ADD17R,0.19291X0.19291*%
%ADD18O,0.00984X0.02756*%
%ADD19O,0.02756X0.00984*%
%ADD20R,0.04134X0.04134*%
%ADD21R,0.04134X0.08858*%
%ADD22R,0.01083X0.00984*%
%ADD23R,0.01083X0.01969*%
%ADD24R,0.03150X0.06693*%
%ADD25R,0.07992X0.05000*%
%ADD26R,0.05512X0.04724*%
%ADD27R,0.12992X0.12992*%
%ADD28O,0.00984X0.03150*%
%ADD29O,0.03150X0.00984*%
%ADD30R,0.03937X0.01575*%
%ADD31R,0.03150X0.03543*%
%ADD32R,0.03543X0.03150*%
%ADD33C,0.00787*%
%ADD34R,0.02362X0.01969*%
%ADD35C,0.05906*%
%ADD36O,0.02559X0.00984*%
%ADD37O,0.00984X0.02559*%
%ADD38R,0.11024X0.11024*%
%ADD39R,0.03543X0.06299*%
%ADD40R,0.04921X0.07874*%
%ADD41R,0.05118X0.06693*%
%ADD42O,0.02559X0.00787*%
%ADD43O,0.00787X0.02559*%
%ADD44R,0.03307X0.04803*%
%ADD45R,0.01740X0.01378*%
%ADD46R,0.01772X0.00984*%
%ADD47R,0.02756X0.06299*%
%ADD48C,0.01264*%
%ADD49C,0.01969*%
%ADD50C,0.00866*%
%ADD51C,0.00709*%
%ADD52C,0.00800*%
%ADD53C,0.00591*%
%ADD54C,0.00669*%
%ADD55C,0.00984*%
%ADD56C,0.01181*%
%ADD57C,0.01378*%
%ADD58C,0.01410*%
%ADD59R,0.01953X0.01969*%
%ADD60R,0.02953X0.01969*%
%ADD61R,0.05906X0.04134*%
%ADD62R,0.04423X0.05873*%
%ADD63R,0.09700X0.03900*%
%ADD64R,0.06400X0.04800*%
%ADD65R,0.02400X0.02800*%
%ADD66R,0.02800X0.02400*%
%ADD67R,0.02500X0.02800*%
%ADD68R,0.15900X0.01100*%
%ADD69R,0.02589X0.09647*%
%ADD70R,0.01975X0.09510*%
%ADD71R,0.05649X0.04800*%
%ADD72R,0.18046X0.01322*%
%ADD73R,0.18000X0.02233*%
%ADD74R,0.01364X0.08514*%
%ADD75R,0.01331X0.08465*%
%ADD76R,0.22123X0.02927*%
%ADD77R,0.09823X0.14573*%
%ADD78R,0.08600X0.05500*%
%ADD79R,0.08100X0.05600*%
%ADD80R,0.03700X0.03400*%
%ADD81R,0.06197X0.04400*%
%ADD82R,0.22700X0.03200*%
%ADD83R,0.08421X0.04909*%
%ADD84R,0.01422X0.05191*%
%ADD85R,0.01545X0.00445*%
%ADD86R,0.01558X0.02675*%
%ADD87R,0.04000X0.02020*%
%ADD88C,0.02165*%
%ADD89C,0.01969*%
%ADD90C,0.01575*%
%ADD91C,0.01772*%
%ADD92C,0.11811*%
%ADD93C,0.03543*%
%ADD94C,0.02598*%
%ADD95C,0.02756*%
%ADD96C,0.02559*%
%ADD97C,0.02362*%
G36*
X98581Y66447D02*
X99311Y66302D01*
X99684Y66376D01*
X100092Y66087D01*
X100098Y66043D01*
X100098Y66043D01*
X100098Y66043D01*
Y62622D01*
X98721D01*
X98260Y62530D01*
X97869Y62269D01*
X97082Y61481D01*
X96820Y61091D01*
X96768Y60827D01*
X90158D01*
Y59913D01*
X89992Y59863D01*
X89590Y60161D01*
Y62697D01*
X89498Y63158D01*
X89237Y63548D01*
X86770Y66015D01*
X86771Y66020D01*
X88090D01*
Y65453D01*
X91634D01*
Y65453D01*
X91634D01*
X91634Y65453D01*
X91987Y65453D01*
X91987Y65453D01*
Y65453D01*
X94311D01*
X94547Y65012D01*
X94360Y64732D01*
X94268Y64272D01*
X94360Y63811D01*
X94621Y63420D01*
X95012Y63159D01*
X95472Y63067D01*
X98327D01*
X98788Y63159D01*
X99178Y63420D01*
X99439Y63811D01*
X99531Y64272D01*
X99439Y64732D01*
X99178Y65123D01*
X98788Y65384D01*
X98327Y65476D01*
X97950D01*
X97636Y65947D01*
X98027Y66533D01*
X98290Y66642D01*
X98581Y66447D01*
D02*
G37*
G36*
X131743Y72425D02*
X131668Y72047D01*
X131767Y71548D01*
X132050Y71125D01*
Y71001D01*
X131767Y70578D01*
X131668Y70079D01*
X131767Y69579D01*
X132050Y69156D01*
Y69033D01*
X131767Y68609D01*
X131668Y68110D01*
X131767Y67611D01*
X132050Y67188D01*
Y67064D01*
X131767Y66641D01*
X131668Y66142D01*
X131672Y66123D01*
X131318Y65769D01*
X131299Y65773D01*
X130800Y65674D01*
X130377Y65391D01*
X130253D01*
X129830Y65674D01*
X129331Y65773D01*
X128832Y65674D01*
X128408Y65391D01*
X128285D01*
X127861Y65674D01*
X127362Y65773D01*
X126863Y65674D01*
X126440Y65391D01*
X126316D01*
X125893Y65674D01*
X125394Y65773D01*
X125016Y65698D01*
X124629Y66015D01*
Y71548D01*
X125261Y72180D01*
X125892Y72812D01*
X131426D01*
X131743Y72425D01*
D02*
G37*
G36*
X120957Y80389D02*
X121457Y80290D01*
X121834Y80365D01*
X122221Y80048D01*
Y74016D01*
X122221Y74016D01*
X122313Y73555D01*
X122574Y73164D01*
X122706Y73032D01*
X122574Y72899D01*
X122313Y72508D01*
X122221Y72047D01*
X122221Y72047D01*
Y66015D01*
X121834Y65698D01*
X121457Y65773D01*
X120957Y65674D01*
X120534Y65391D01*
X120411D01*
X119987Y65674D01*
X119488Y65773D01*
X118989Y65674D01*
X118566Y65391D01*
X118442D01*
X118019Y65674D01*
X117520Y65773D01*
X117501Y65769D01*
X117147Y66123D01*
X117151Y66142D01*
X117052Y66641D01*
X116769Y67064D01*
Y67188D01*
X117052Y67611D01*
X117151Y68110D01*
X117052Y68609D01*
X116769Y69033D01*
Y69156D01*
X117052Y69579D01*
X117151Y70079D01*
X117052Y70578D01*
X116769Y71001D01*
Y71125D01*
X117052Y71548D01*
X117151Y72047D01*
X117052Y72546D01*
X116769Y72970D01*
Y73093D01*
X117052Y73516D01*
X117151Y74016D01*
X117052Y74515D01*
X116769Y74938D01*
Y75062D01*
X117052Y75485D01*
X117151Y75984D01*
X117052Y76484D01*
X116769Y76907D01*
Y77030D01*
X117052Y77454D01*
X117151Y77953D01*
X117052Y78452D01*
X116769Y78875D01*
Y78999D01*
X117052Y79422D01*
X117151Y79921D01*
X117147Y79940D01*
X117501Y80294D01*
X117520Y80290D01*
X118019Y80389D01*
X118442Y80672D01*
X118566D01*
X118989Y80389D01*
X119488Y80290D01*
X119987Y80389D01*
X120411Y80672D01*
X120534D01*
X120957Y80389D01*
D02*
G37*
G36*
X53744Y45644D02*
X53744Y45644D01*
X54137Y45382D01*
X54600Y45289D01*
X58314D01*
X60759Y42844D01*
X60759Y42844D01*
X61152Y42581D01*
X61229Y42566D01*
X61615Y42489D01*
X61615Y42489D01*
X80998D01*
X81607Y41881D01*
X81238Y41330D01*
X81093Y40600D01*
X81238Y39870D01*
X81652Y39252D01*
X81840Y39126D01*
X81742Y38636D01*
X81370Y38562D01*
X80752Y38148D01*
X80338Y37530D01*
X80193Y36800D01*
X79008Y36564D01*
X48637D01*
X48594Y36629D01*
X48430Y37026D01*
X50042Y38639D01*
X50327Y39065D01*
X50427Y39567D01*
Y41929D01*
X50328Y42424D01*
Y45768D01*
X50228Y46270D01*
X49944Y46696D01*
X49518Y46980D01*
X49016Y47080D01*
X48513Y46980D01*
X48088Y46696D01*
X47803Y46270D01*
X47742Y45961D01*
X47244Y46011D01*
Y47539D01*
X45649D01*
X45513Y47868D01*
X45817Y48265D01*
X46260Y48206D01*
X46928Y48294D01*
X47550Y48552D01*
X48085Y48962D01*
X48495Y49497D01*
X48732Y50068D01*
X49222Y50166D01*
X53744Y45644D01*
D02*
G37*
G36*
X19300Y48400D02*
X19300D01*
Y48400D01*
X19330Y48052D01*
D01*
X18349Y47070D01*
X18087Y46680D01*
X17996Y46219D01*
X17996Y46219D01*
Y38099D01*
X17001Y37104D01*
X16222D01*
X16095Y37129D01*
X16095Y37129D01*
X13025D01*
X13025Y37129D01*
X12564Y37038D01*
X12174Y36777D01*
X12174Y36777D01*
X11148Y35752D01*
X11133Y35728D01*
X11085Y35656D01*
X10228D01*
Y35656D01*
X10087D01*
X10072Y35672D01*
Y35672D01*
X7339D01*
Y35739D01*
X7304Y35913D01*
Y49501D01*
X8731Y50928D01*
X9193Y50737D01*
Y49331D01*
X18760D01*
Y55182D01*
X19300D01*
Y48400D01*
D02*
G37*
G36*
X76585Y53276D02*
X76545Y53217D01*
X76453Y52756D01*
X76545Y52295D01*
X76806Y51904D01*
X77197Y51643D01*
X77658Y51552D01*
X81791D01*
X82252Y51643D01*
X82643Y51904D01*
X82904Y52295D01*
X82996Y52756D01*
X82981Y52828D01*
X83422Y53064D01*
X84696Y51790D01*
Y42760D01*
X84217Y42615D01*
X84056Y42856D01*
X84056Y42856D01*
X82356Y44556D01*
X81963Y44818D01*
X81500Y44911D01*
X81500Y44911D01*
X76988D01*
X76671Y45297D01*
X76791Y45899D01*
X76646Y46629D01*
X76232Y47247D01*
X75886Y47479D01*
Y50787D01*
D01*
Y50787D01*
X75886Y50787D01*
Y50984D01*
X75886D01*
Y53554D01*
X76371Y53676D01*
X76585Y53276D01*
D02*
G37*
G36*
X108100Y190626D02*
X104665D01*
Y190778D01*
X104299Y190626D01*
X103818D01*
X102900Y190808D01*
X100100D01*
X99178Y190625D01*
X99096Y190570D01*
X96746D01*
Y190610D01*
X90053D01*
Y190178D01*
X89994Y190174D01*
X88329Y189774D01*
X86748Y189119D01*
X85288Y188225D01*
X83987Y187113D01*
X82875Y185812D01*
X81981Y184352D01*
X81326Y182771D01*
X80926Y181106D01*
X80792Y179400D01*
X80800D01*
Y154000D01*
X80785D01*
X80948Y151933D01*
X81432Y149916D01*
X82225Y148001D01*
X83309Y146232D01*
X84655Y144656D01*
X86232Y143309D01*
X88001Y142225D01*
X89916Y141432D01*
X91933Y140948D01*
X94000Y140785D01*
Y140800D01*
X105000D01*
X105025Y140803D01*
X106215Y140686D01*
X107383Y140331D01*
X108460Y139756D01*
X109404Y138982D01*
X110178Y138038D01*
X110754Y136961D01*
X111108Y135793D01*
X111225Y134602D01*
X111222Y134578D01*
Y129491D01*
X110990D01*
Y123389D01*
X117454D01*
Y129491D01*
X117222D01*
Y134578D01*
X117234D01*
X117084Y136492D01*
X116635Y138358D01*
X115901Y140132D01*
X114898Y141769D01*
X113651Y143229D01*
X112191Y144476D01*
X110554Y145479D01*
X108781Y146213D01*
X106914Y146661D01*
X105000Y146812D01*
Y146800D01*
X94000D01*
X93955Y146794D01*
X92593Y146928D01*
X91241Y147338D01*
X89994Y148005D01*
X88902Y148901D01*
X88005Y149994D01*
X87339Y151241D01*
X86928Y152593D01*
X86794Y153955D01*
X86800Y154000D01*
Y179400D01*
X86791Y179467D01*
X86950Y180673D01*
X87441Y181859D01*
X88223Y182877D01*
X89241Y183659D01*
X89982Y183966D01*
X90053Y183917D01*
Y183917D01*
X94429D01*
Y183877D01*
X99025D01*
X99178Y183775D01*
X100100Y183591D01*
X102900D01*
X103822Y183775D01*
X103975Y183877D01*
X104666D01*
Y183877D01*
X104801D01*
X104910Y183768D01*
Y183768D01*
X105308Y183933D01*
X108100D01*
Y151600D01*
X147700D01*
D01*
X147700D01*
X147800Y151500D01*
Y104100D01*
Y0D01*
X0D01*
Y104100D01*
Y168800D01*
X25700D01*
Y181411D01*
X26022Y181475D01*
X26140Y181553D01*
X30826D01*
Y181592D01*
X31374D01*
Y181553D01*
X41610D01*
Y181900D01*
X42300D01*
Y181898D01*
X42967Y181810D01*
X43588Y181553D01*
X44121Y181143D01*
X44530Y180610D01*
X44788Y179989D01*
X44876Y179322D01*
X44878D01*
Y123874D01*
X44756Y123691D01*
X44646D01*
Y123527D01*
X44375Y123122D01*
X44192Y122200D01*
Y119400D01*
X44375Y118478D01*
X44646Y118073D01*
Y117589D01*
X44810D01*
X45140Y117213D01*
X45098Y116900D01*
X45154Y116475D01*
X44758Y116211D01*
X44646D01*
Y116160D01*
X26182D01*
X26137Y116154D01*
X24776Y116288D01*
X23423Y116698D01*
X22177Y117365D01*
X21084Y118261D01*
X20187Y119354D01*
X19521Y120601D01*
X19111Y121953D01*
X19144Y121990D01*
X19446D01*
Y122885D01*
X19609Y123700D01*
Y126500D01*
X19529Y126899D01*
X19708Y127800D01*
Y130600D01*
X19688Y130701D01*
X20006Y131087D01*
X20655D01*
Y139946D01*
X11797D01*
Y131087D01*
X12194D01*
X12512Y130701D01*
X12491Y130600D01*
Y127800D01*
X12571Y127401D01*
X12392Y126500D01*
Y123700D01*
X12575Y122778D01*
X12754Y122511D01*
Y121990D01*
X13075D01*
X13130Y121293D01*
X13614Y119276D01*
X14408Y117360D01*
X15491Y115592D01*
X16838Y114015D01*
X18415Y112669D01*
X20183Y111585D01*
X22099Y110792D01*
X24115Y110307D01*
X26182Y110145D01*
Y110160D01*
X44646D01*
Y110109D01*
X44879D01*
X45378Y109775D01*
X46300Y109591D01*
X48289D01*
X48619Y109216D01*
X48613Y109171D01*
X48711Y108424D01*
X49000Y107727D01*
X49459Y107130D01*
X49508Y107080D01*
X50106Y106621D01*
X50802Y106333D01*
X51550Y106234D01*
X52297Y106333D01*
X52993Y106621D01*
X53591Y107080D01*
X54050Y107678D01*
X54052Y107684D01*
X54178Y107632D01*
X55000Y107523D01*
X55822Y107632D01*
X56588Y107949D01*
X57246Y108454D01*
X57751Y109112D01*
X58069Y109878D01*
X58099Y110109D01*
X58354D01*
Y110109D01*
X58492D01*
X58845Y109755D01*
Y107994D01*
X58829Y107874D01*
X58858Y107655D01*
Y104626D01*
X58876D01*
X59225Y104269D01*
X59157Y101161D01*
X58767Y100848D01*
X58660Y100869D01*
X56805D01*
X56359Y100780D01*
X55982Y100528D01*
X55977Y100523D01*
X55725Y100145D01*
X55636Y99700D01*
X55725Y99255D01*
X55977Y98877D01*
X56354Y98624D01*
X56800Y98536D01*
X56824Y98541D01*
X58631D01*
X58655Y98536D01*
X59101Y98624D01*
X60431D01*
Y97933D01*
X60910D01*
X60990Y97531D01*
X61275Y97105D01*
X62795Y95585D01*
Y93898D01*
D01*
X62795Y93898D01*
X62795Y93898D01*
D01*
D01*
Y93898D01*
X62795D01*
D01*
Y92569D01*
X62333Y92377D01*
X59582Y95129D01*
X59156Y95414D01*
X58653Y95513D01*
X56825D01*
X56508Y95900D01*
X56581Y96269D01*
X56436Y96999D01*
X56023Y97618D01*
X55405Y98031D01*
X54675Y98176D01*
X53945Y98031D01*
X53722Y97882D01*
X53281Y98118D01*
Y98228D01*
X53181Y98731D01*
X52897Y99156D01*
X52362Y99691D01*
Y101378D01*
X49593D01*
X48960Y102011D01*
X48534Y102295D01*
X48031Y102395D01*
X47835D01*
Y103445D01*
X42717D01*
Y98721D01*
X47835D01*
Y98770D01*
X48297Y98961D01*
X48580Y98678D01*
X48819Y98518D01*
Y97984D01*
X48432Y97667D01*
X48425Y97669D01*
X45866D01*
X45252Y97546D01*
X44731Y97198D01*
X44383Y96678D01*
X44260Y96063D01*
X44383Y95448D01*
X44731Y94928D01*
X45252Y94580D01*
X45866Y94457D01*
X48425D01*
X49040Y94580D01*
X49561Y94928D01*
X49718Y95164D01*
X50197Y95019D01*
Y94291D01*
X51785D01*
X52509Y93568D01*
X52509Y93568D01*
X52804Y93273D01*
X52804Y93273D01*
X52804D01*
X52804Y93273D01*
X52804D01*
X52804Y93273D01*
Y93273D01*
Y93273D01*
D01*
D01*
X52804D01*
Y93273D01*
X53230Y92988D01*
X53732Y92888D01*
X54222D01*
X54367Y92410D01*
X53939Y92124D01*
X53916Y92089D01*
X53426Y91992D01*
X53387Y92018D01*
X52658Y92163D01*
X51928Y92018D01*
X51309Y91604D01*
X50896Y90986D01*
X50751Y90256D01*
X50896Y89526D01*
X51309Y88908D01*
X51772Y88599D01*
Y85237D01*
X51575Y85076D01*
X50845Y84931D01*
X50227Y84518D01*
X49813Y83899D01*
X49668Y83169D01*
X49802Y82496D01*
X49485Y82110D01*
X48793D01*
X46292Y84611D01*
X45901Y84872D01*
X45440Y84964D01*
X45440Y84964D01*
X31900D01*
X31439Y84872D01*
X31049Y84611D01*
X28913Y82476D01*
X28451Y82667D01*
Y83172D01*
X25261D01*
X25261Y83172D01*
Y83172D01*
X24908Y83172D01*
X24908D01*
D01*
X24554Y83172D01*
X24554Y83172D01*
Y83172D01*
X22169D01*
X22162Y83206D01*
X21749Y83825D01*
X21130Y84238D01*
X20401Y84383D01*
X19671Y84238D01*
X19052Y83825D01*
X18639Y83206D01*
X18494Y82477D01*
X18639Y81747D01*
X19052Y81128D01*
X19671Y80715D01*
X20401Y80570D01*
X20443Y80578D01*
X20549Y80472D01*
X20975Y80187D01*
X21365Y80110D01*
Y79628D01*
X24908D01*
Y79628D01*
X24908D01*
X24908Y79628D01*
X25122D01*
X25475Y79275D01*
Y78620D01*
X25475Y78620D01*
X25567Y78160D01*
X25828Y77769D01*
X26103Y77494D01*
X26054Y76996D01*
X25709Y76765D01*
X24961Y76017D01*
X20368D01*
X20344Y76053D01*
X19726Y76466D01*
X18996Y76611D01*
X18266Y76466D01*
X17648Y76053D01*
X17234Y75434D01*
X17089Y74705D01*
X17234Y73975D01*
X17648Y73356D01*
X18266Y72943D01*
X18996Y72798D01*
X19726Y72943D01*
X20344Y73356D01*
X20368Y73392D01*
X25505D01*
X26007Y73492D01*
X26433Y73777D01*
X27181Y74524D01*
X28727D01*
Y73064D01*
X28300D01*
X27854Y72975D01*
X27477Y72723D01*
X26677Y71923D01*
X26425Y71545D01*
X26336Y71100D01*
X26425Y70654D01*
X26677Y70277D01*
X27055Y70025D01*
X27500Y69936D01*
X27946Y70025D01*
X28323Y70277D01*
X28782Y70736D01*
X30400D01*
X30845Y70824D01*
X30903Y70863D01*
X31300Y70700D01*
X31300Y70700D01*
X31931D01*
X31980Y70202D01*
X31309Y70069D01*
X30723Y69677D01*
X30331Y69091D01*
X30194Y68400D01*
X30331Y67709D01*
X30723Y67123D01*
X31309Y66731D01*
X32000Y66594D01*
X32691Y66731D01*
X32899Y66870D01*
X33165Y66728D01*
Y66728D01*
X33165Y66728D01*
X36708D01*
Y66728D01*
X36708D01*
X36708Y66728D01*
X37061Y66728D01*
X37062Y66728D01*
Y66728D01*
X40251D01*
Y70272D01*
D01*
Y70272D01*
X40600Y70621D01*
X42273D01*
Y70696D01*
X45400D01*
X45400Y70696D01*
X45861Y70787D01*
X46251Y71048D01*
X49892Y74689D01*
X50307Y74563D01*
X50380Y74069D01*
X50297Y74014D01*
X49906Y73427D01*
X49768Y72736D01*
X49906Y72045D01*
X50184Y71629D01*
X49808Y71065D01*
X49670Y70374D01*
X49693Y70257D01*
X49415Y69841D01*
X49104Y69779D01*
X48518Y69388D01*
X48126Y68801D01*
X47989Y68110D01*
X48126Y67419D01*
X48367Y67059D01*
X48052Y66848D01*
X47638Y66230D01*
X47493Y65500D01*
X47610Y64913D01*
X47534Y64837D01*
X47273Y64447D01*
X47182Y63986D01*
X47182Y63986D01*
Y61528D01*
X46614D01*
Y57984D01*
X50157D01*
Y57984D01*
X50157D01*
X50157Y57984D01*
X50354D01*
Y57984D01*
X53898D01*
Y58366D01*
X54877D01*
X55096Y58100D01*
Y55516D01*
X55095Y55512D01*
X55187Y55051D01*
X55448Y54660D01*
X55838Y54399D01*
X56299Y54308D01*
X56760Y54399D01*
X57151Y54660D01*
X57152Y54661D01*
X57413Y55052D01*
X57504Y55513D01*
X57504Y55513D01*
Y58100D01*
X57723Y58366D01*
X59357D01*
X59540Y58244D01*
X59866Y58179D01*
X59806Y57874D01*
X59847Y57670D01*
X59529Y57284D01*
X58071D01*
Y53740D01*
X58071Y53740D01*
X58071Y53543D01*
X58071D01*
Y50000D01*
X61614D01*
X61614Y50000D01*
Y50000D01*
X61915Y49940D01*
X61995Y49821D01*
X62095Y49321D01*
X62182Y49191D01*
Y46161D01*
X62273Y45701D01*
X62506Y45352D01*
X62415Y45180D01*
X62006Y45120D01*
X61709Y45318D01*
X59671Y47356D01*
X59278Y47618D01*
X58815Y47711D01*
X58815Y47711D01*
X57267D01*
X57076Y48173D01*
X57151Y48248D01*
X57151Y48248D01*
X57412Y48638D01*
X57503Y49099D01*
X57503Y49099D01*
Y51772D01*
X57412Y52232D01*
X57151Y52623D01*
X56760Y52884D01*
X56299Y52976D01*
X55838Y52884D01*
X55448Y52623D01*
X55187Y52232D01*
X55095Y51772D01*
Y49598D01*
X55049Y49551D01*
X54787Y49161D01*
X54702Y48733D01*
X54396Y48640D01*
X54209Y48603D01*
X50926Y51886D01*
X50951Y52148D01*
X51213Y52539D01*
X51283Y52891D01*
X51761Y53036D01*
X52349Y52448D01*
X52739Y52187D01*
X53200Y52096D01*
X53661Y52187D01*
X54052Y52448D01*
X54313Y52839D01*
X54404Y53300D01*
X54313Y53761D01*
X54052Y54151D01*
X53330Y54873D01*
Y56213D01*
X53239Y56673D01*
X52978Y57064D01*
X52587Y57325D01*
X52126Y57417D01*
X51665Y57325D01*
X51275Y57064D01*
X51013Y56673D01*
X50922Y56213D01*
Y54768D01*
X50535Y54451D01*
X50306Y54497D01*
X49590Y55213D01*
Y56213D01*
X49498Y56673D01*
X49237Y57064D01*
X48847Y57325D01*
X48386Y57417D01*
X47925Y57325D01*
X47534Y57064D01*
X47273Y56673D01*
X47188Y56247D01*
X46710Y56102D01*
X46356Y56456D01*
X45963Y56718D01*
X45500Y56811D01*
X45500Y56811D01*
X40608D01*
X37599Y59819D01*
X37207Y60081D01*
X36743Y60174D01*
X36743Y60174D01*
X23238D01*
X19511Y63902D01*
Y67500D01*
X19511Y67500D01*
X19434Y67886D01*
X19419Y67963D01*
X19156Y68356D01*
X19156Y68356D01*
X17956Y69556D01*
X17563Y69819D01*
X17100Y69911D01*
X17100Y69911D01*
X9400D01*
X9400Y69911D01*
X8937Y69819D01*
X8544Y69556D01*
X7510Y68522D01*
X7248Y68129D01*
X7156Y67666D01*
X7156Y67666D01*
Y65318D01*
X7018Y65226D01*
X6605Y64608D01*
X6459Y63878D01*
X6605Y63148D01*
X7018Y62530D01*
X7637Y62116D01*
X8366Y61971D01*
X9096Y62116D01*
X9714Y62530D01*
X10128Y63148D01*
X10273Y63878D01*
X10128Y64608D01*
X9714Y65226D01*
X9577Y65318D01*
Y67165D01*
X9901Y67489D01*
X16599D01*
X17089Y66998D01*
Y63400D01*
X17089Y63400D01*
X17181Y62937D01*
X17444Y62544D01*
X20731Y59257D01*
X20540Y58794D01*
X14272D01*
X13580Y58657D01*
X12994Y58266D01*
X12109Y57380D01*
X11717Y56794D01*
X11580Y56102D01*
X11580Y56102D01*
X11580D01*
X11579D01*
X11580Y55905D01*
X9193D01*
Y53704D01*
X8600D01*
X8139Y53613D01*
X7983Y53508D01*
X7749Y53351D01*
X7748Y53351D01*
X5249Y50852D01*
X4987Y50461D01*
X4896Y50000D01*
X4896Y50000D01*
Y35774D01*
X4896Y35774D01*
X4930Y35599D01*
Y31065D01*
X4930Y31065D01*
X5022Y30604D01*
X5283Y30214D01*
X5992Y29505D01*
X5992Y29505D01*
X6382Y29244D01*
X6528Y29215D01*
Y28585D01*
X10072D01*
Y32113D01*
X10228D01*
Y32113D01*
X13772D01*
Y33261D01*
X14269Y33310D01*
X14338Y32962D01*
X14623Y32536D01*
X15115Y32044D01*
X15541Y31760D01*
X16043Y31660D01*
X18209D01*
X18711Y31760D01*
X19137Y32044D01*
X19421Y32470D01*
X19483Y32779D01*
X19980Y32730D01*
Y31201D01*
X23524D01*
Y31670D01*
X23975Y31760D01*
X24401Y32044D01*
X26322Y33966D01*
X26606Y34391D01*
X26706Y34894D01*
Y40052D01*
X27104Y40318D01*
X27321Y40644D01*
X27800Y40499D01*
Y39800D01*
X33572D01*
X33740Y39329D01*
X33636Y39243D01*
X33366Y39297D01*
X32867Y39197D01*
X32444Y38915D01*
X32320D01*
X31897Y39197D01*
X31398Y39297D01*
X30898Y39197D01*
X30475Y38915D01*
X30352D01*
X29928Y39197D01*
X29429Y39297D01*
X28930Y39197D01*
X28507Y38915D01*
X28224Y38491D01*
X28124Y37992D01*
Y36417D01*
X28224Y35918D01*
X28225Y35917D01*
Y31531D01*
X27652Y31148D01*
X27238Y30530D01*
X27093Y29800D01*
X27238Y29070D01*
X27652Y28452D01*
X27739Y28393D01*
X27594Y27915D01*
X27228D01*
Y24725D01*
X27228Y24725D01*
X27228D01*
X27228Y24372D01*
Y24372D01*
X27228D01*
X27228Y23913D01*
X24402D01*
X24030Y24162D01*
X23300Y24307D01*
X22570Y24162D01*
X21952Y23748D01*
X21538Y23130D01*
X21393Y22400D01*
X21538Y21670D01*
X21952Y21052D01*
X22570Y20638D01*
X23300Y20493D01*
X24030Y20638D01*
X24648Y21052D01*
X24806Y21287D01*
X27228D01*
Y20828D01*
X30772D01*
Y20828D01*
X30772D01*
X30772Y20828D01*
X31028D01*
Y20828D01*
X34572D01*
Y20828D01*
X34572D01*
X34572Y20828D01*
X34828D01*
Y20828D01*
X38372D01*
Y24018D01*
X38372Y24018D01*
X38372D01*
X38372Y24372D01*
Y24372D01*
D01*
X38372D01*
X38372Y24372D01*
X38372Y24725D01*
X38372Y24725D01*
X38372D01*
Y27915D01*
X38106D01*
X37961Y28393D01*
X38048Y28452D01*
X38462Y29070D01*
X38607Y29800D01*
X38462Y30530D01*
X38048Y31148D01*
X37904Y31245D01*
Y33200D01*
X37904Y33200D01*
X37813Y33661D01*
X37552Y34051D01*
X37552Y34051D01*
X37090Y34513D01*
X36699Y34774D01*
X36239Y34866D01*
X36239Y34866D01*
X34849D01*
X34570Y35144D01*
Y35600D01*
X34644Y35711D01*
X34957Y35967D01*
X35335Y35892D01*
X35837Y35992D01*
X36263Y36277D01*
X36375D01*
X36801Y35992D01*
X37303Y35892D01*
X37806Y35992D01*
X38231Y36277D01*
X38536Y36581D01*
X42810D01*
X43045Y36140D01*
X43038Y36130D01*
X42893Y35400D01*
X43038Y34670D01*
X43452Y34052D01*
X43545Y33989D01*
X43238Y33530D01*
X43093Y32800D01*
X43238Y32070D01*
X43652Y31452D01*
X43838Y31327D01*
X43438Y30730D01*
X43293Y30000D01*
X43438Y29270D01*
X43852Y28652D01*
X44470Y28238D01*
X45200Y28093D01*
X45930Y28238D01*
X46548Y28652D01*
X46671Y28836D01*
X82000D01*
X82446Y28925D01*
X82823Y29177D01*
X84483Y30836D01*
X84700Y30793D01*
X85430Y30938D01*
X86048Y31352D01*
X86383Y31852D01*
X86861Y31707D01*
Y22178D01*
X79697Y15014D01*
X79648Y15034D01*
Y15034D01*
X79648Y15034D01*
X74924D01*
Y6766D01*
X79648D01*
Y11559D01*
X88917Y20828D01*
X88917Y20828D01*
X89073Y21062D01*
X89178Y21219D01*
X89258Y21621D01*
X89756Y21572D01*
Y20054D01*
X89510Y19890D01*
X89053Y19207D01*
X88893Y18400D01*
X89053Y17594D01*
X89510Y16910D01*
X90193Y16453D01*
X91000Y16293D01*
X91807Y16453D01*
X92490Y16910D01*
X92947Y17594D01*
X93107Y18400D01*
X92947Y19207D01*
X92490Y19890D01*
X92244Y20054D01*
Y22604D01*
X92631Y22921D01*
X93252Y22798D01*
X93981Y22943D01*
X94600Y23357D01*
X94669Y23460D01*
X95177D01*
Y22933D01*
X98721D01*
Y23499D01*
X99000Y23555D01*
X99404Y23825D01*
X101184Y25606D01*
X101625Y25370D01*
X101552Y25000D01*
X101643Y24539D01*
X101904Y24148D01*
X102295Y23887D01*
X102756Y23796D01*
X102756Y23796D01*
X104724D01*
X104724Y23796D01*
X105185Y23887D01*
X105576Y24148D01*
X108176Y26748D01*
X108465D01*
X108925Y26840D01*
X109316Y27101D01*
X109577Y27492D01*
X109669Y27953D01*
X109577Y28414D01*
X109316Y28804D01*
X108925Y29065D01*
X108465Y29157D01*
X107677D01*
X107216Y29065D01*
X106826Y28804D01*
X106826Y28804D01*
X105501Y27479D01*
X105003Y27529D01*
X104761Y27891D01*
Y28014D01*
X105044Y28438D01*
X105143Y28937D01*
X105044Y29436D01*
X104761Y29860D01*
Y29983D01*
X105044Y30406D01*
X105143Y30906D01*
X105044Y31405D01*
X104761Y31828D01*
X104338Y32111D01*
X104310Y32178D01*
X104616Y32636D01*
X104761Y33366D01*
X104616Y34096D01*
X104203Y34714D01*
X103584Y35128D01*
X102854Y35273D01*
X102125Y35128D01*
X101506Y34714D01*
X101093Y34096D01*
X100948Y33366D01*
X101093Y32636D01*
X101123Y32591D01*
X100990Y32342D01*
X100496Y32268D01*
X100289Y32474D01*
X99886Y32744D01*
X99409Y32839D01*
X98721D01*
Y33366D01*
X95177D01*
D01*
D01*
X95177Y33366D01*
X94882D01*
Y33366D01*
X91339D01*
Y29823D01*
D01*
X91339Y29823D01*
X91339Y29823D01*
D01*
D01*
Y29823D01*
X91339D01*
D01*
Y29293D01*
X90875Y29201D01*
X90471Y28931D01*
X90020Y28480D01*
X89750Y28076D01*
X89270Y28172D01*
Y52835D01*
X89270Y52835D01*
X89178Y53295D01*
X88917Y53686D01*
X88917Y53686D01*
X88585Y54018D01*
X88635Y54267D01*
X88497Y54958D01*
X88106Y55544D01*
X87520Y55936D01*
X86828Y56073D01*
X86137Y55936D01*
X85551Y55544D01*
X85288Y55151D01*
X84790Y55102D01*
X84119Y55773D01*
X83729Y56034D01*
X83268Y56125D01*
X83268Y56125D01*
X83239D01*
X83003Y56567D01*
X83061Y56652D01*
X83206Y57382D01*
X83061Y58112D01*
X83197Y58366D01*
X86402D01*
X86422Y58265D01*
X86813Y57679D01*
X87399Y57288D01*
X88090Y57150D01*
X88782Y57288D01*
X89368Y57679D01*
X89679Y58145D01*
X90158Y58000D01*
Y54528D01*
X97244D01*
Y56532D01*
X97410Y56565D01*
X97800Y56826D01*
X98785Y57810D01*
X98785Y57810D01*
X98941Y58044D01*
X99046Y58201D01*
X99137Y58661D01*
Y60131D01*
X99219Y60213D01*
X101279D01*
X101279Y60213D01*
X101740Y60305D01*
X102131Y60566D01*
X102722Y61156D01*
X102722Y61156D01*
X102878Y61391D01*
X102983Y61547D01*
X103074Y62008D01*
Y62500D01*
X103642D01*
Y63067D01*
X106496D01*
X106496Y63067D01*
X106957Y63159D01*
X107271Y63369D01*
X107712Y63134D01*
Y52779D01*
X107162Y52229D01*
X105905D01*
Y54134D01*
X98819D01*
Y47835D01*
X102791D01*
Y46457D01*
X102264D01*
Y42913D01*
X103736D01*
X104053Y42527D01*
X104012Y42323D01*
X104012Y42323D01*
Y41140D01*
X103937Y41078D01*
X103246Y40940D01*
X102660Y40549D01*
X102268Y39963D01*
X102131Y39272D01*
X102268Y38580D01*
X102660Y37994D01*
X103246Y37603D01*
X103937Y37465D01*
X104628Y37603D01*
X105214Y37994D01*
X105606Y38580D01*
X105743Y39272D01*
X105726Y39358D01*
X106068Y39700D01*
X106329Y40090D01*
X106421Y40551D01*
X106421Y40551D01*
Y41824D01*
X109554Y44957D01*
X110630D01*
Y44390D01*
X114173D01*
Y44390D01*
X114173D01*
X114173Y44390D01*
X114279D01*
X114632Y44036D01*
Y43799D01*
X114173D01*
Y40256D01*
X117717D01*
Y43176D01*
X119291D01*
X119794Y43275D01*
X120220Y43560D01*
X120220Y43560D01*
X120220Y43560D01*
X120430Y43771D01*
X120472Y43763D01*
X121202Y43908D01*
X121821Y44321D01*
X122234Y44940D01*
X122379Y45669D01*
X122234Y46399D01*
X121821Y47017D01*
X121202Y47431D01*
X120472Y47576D01*
X119743Y47431D01*
X119124Y47017D01*
X118711Y46399D01*
X118592Y45801D01*
X117717D01*
Y47933D01*
X114527D01*
X114527Y47933D01*
Y47933D01*
X114173Y47933D01*
D01*
X114173Y47933D01*
X114173Y47933D01*
D01*
X113820Y47933D01*
X113820Y47933D01*
Y47933D01*
X110630D01*
Y47366D01*
X109055D01*
X108594Y47274D01*
X108204Y47013D01*
X108204Y47013D01*
X106269Y45078D01*
X105807Y45270D01*
Y46457D01*
X105280D01*
Y47835D01*
X105905D01*
Y49740D01*
X107677D01*
X108153Y49835D01*
X108557Y50104D01*
X109837Y51384D01*
X110106Y51788D01*
X110201Y52264D01*
Y71729D01*
X111244Y72771D01*
X112127D01*
X112444Y72385D01*
X112376Y72047D01*
X112476Y71548D01*
X112759Y71125D01*
Y71001D01*
X112476Y70578D01*
X112376Y70079D01*
X112476Y69579D01*
X112759Y69156D01*
Y69033D01*
X112476Y68609D01*
X112376Y68110D01*
X112476Y67611D01*
X112759Y67188D01*
Y67064D01*
X112476Y66641D01*
X112376Y66142D01*
X112476Y65642D01*
X112759Y65219D01*
X113142Y64963D01*
X112904Y64608D01*
X112759Y63878D01*
X112904Y63148D01*
X113317Y62530D01*
X113936Y62116D01*
X114665Y61971D01*
X115395Y62116D01*
X115674Y62303D01*
X115944D01*
X116240Y62181D01*
X116314Y61804D01*
X116597Y61381D01*
X117020Y61098D01*
X117174Y60727D01*
X117136Y60671D01*
X116991Y59941D01*
X117136Y59211D01*
X117549Y58593D01*
X118168Y58179D01*
X118898Y58034D01*
X119627Y58179D01*
X120246Y58593D01*
X120373Y58783D01*
X120863Y58685D01*
X120876Y58621D01*
X120889Y58602D01*
X121079Y57646D01*
X120675Y57376D01*
X120398Y57099D01*
X120276Y57123D01*
X119546Y56978D01*
X118927Y56565D01*
X118514Y55946D01*
X118369Y55216D01*
X118369Y55216D01*
X118369Y55216D01*
X118368Y55201D01*
X117917Y54985D01*
X117791Y55069D01*
X117100Y55206D01*
X116409Y55069D01*
X115823Y54677D01*
X115431Y54091D01*
X115294Y53400D01*
X115431Y52709D01*
X115823Y52123D01*
X116409Y51731D01*
X117100Y51594D01*
X117791Y51731D01*
X118021Y51885D01*
X119653Y50253D01*
X120079Y49968D01*
X120581Y49869D01*
X121358D01*
Y49409D01*
X124902D01*
Y52469D01*
X124951Y52543D01*
X125288Y52820D01*
X125630Y52752D01*
X126037D01*
X126182Y52273D01*
X125822Y52033D01*
X125561Y51642D01*
X125469Y51181D01*
X125561Y50720D01*
X125822Y50330D01*
X126037Y50186D01*
X126134Y49695D01*
X125931Y49391D01*
X125794Y48700D01*
X125931Y48009D01*
X126323Y47423D01*
X126909Y47031D01*
X127600Y46894D01*
X128291Y47031D01*
X128824Y47387D01*
X130689D01*
X130777Y46942D01*
X130767Y46889D01*
X130714Y46867D01*
X129932Y46268D01*
X129333Y45486D01*
X128956Y44576D01*
X128828Y43600D01*
X128956Y42624D01*
X129333Y41714D01*
X129932Y40933D01*
X130714Y40333D01*
X131624Y39956D01*
X131864Y39924D01*
X131999Y39627D01*
X131728Y39206D01*
X130217D01*
Y39272D01*
X126673D01*
Y38899D01*
X126195Y38754D01*
X126179Y38777D01*
X125593Y39169D01*
X124902Y39306D01*
X124210Y39169D01*
X123624Y38777D01*
X123624Y38777D01*
X123575Y38704D01*
X122638D01*
X122638Y38704D01*
X122177Y38612D01*
X121786Y38352D01*
X121786Y38352D01*
X121393Y37958D01*
X121132Y37567D01*
X121040Y37106D01*
X121040Y37106D01*
Y35335D01*
X121132Y34874D01*
X120333Y34340D01*
X120333D01*
X120333Y34340D01*
X119715Y33927D01*
X119301Y33308D01*
X119156Y32579D01*
X119301Y31849D01*
X119308Y31839D01*
X119073Y31398D01*
X116463D01*
X116461Y31405D01*
X116178Y31828D01*
X115755Y32111D01*
X115319Y32197D01*
Y35335D01*
X115847D01*
Y35335D01*
X115853Y35356D01*
X116324Y35525D01*
X116593Y35345D01*
X117323Y35200D01*
X118052Y35345D01*
X118671Y35758D01*
X119084Y36377D01*
X119229Y37106D01*
X119084Y37836D01*
X118671Y38455D01*
X118052Y38868D01*
X117323Y39013D01*
X116593Y38868D01*
X116324Y38688D01*
X115853Y38856D01*
X115847Y38878D01*
Y38878D01*
X112303D01*
Y35335D01*
X112830D01*
Y32158D01*
X112591Y32111D01*
X112168Y31828D01*
X111885Y31405D01*
X111786Y30906D01*
X111885Y30406D01*
X112168Y29983D01*
Y29860D01*
X111885Y29436D01*
X111786Y28937D01*
X111885Y28438D01*
X112168Y28014D01*
Y27891D01*
X111885Y27468D01*
X111786Y26969D01*
X111885Y26469D01*
X112168Y26046D01*
Y25923D01*
X111885Y25499D01*
X111786Y25000D01*
X111885Y24501D01*
X112168Y24078D01*
X112264Y24014D01*
Y23514D01*
X111939Y23297D01*
X111526Y22679D01*
X111381Y21949D01*
X111526Y21219D01*
X111939Y20601D01*
X112558Y20187D01*
X113287Y20042D01*
X114005Y20185D01*
X114283Y19769D01*
X114231Y19691D01*
X114094Y19000D01*
X114231Y18309D01*
X114623Y17723D01*
X115209Y17331D01*
X115900Y17194D01*
X116591Y17331D01*
X117177Y17723D01*
X117226Y17796D01*
X118200D01*
X118200Y17796D01*
X118661Y17887D01*
X119031Y18135D01*
X119472Y17899D01*
Y14516D01*
X119572Y14013D01*
X119856Y13588D01*
X122636Y10808D01*
Y7727D01*
D01*
D01*
X122636Y7727D01*
X122636Y7628D01*
X122636D01*
Y4085D01*
X126180D01*
Y7628D01*
D01*
Y7628D01*
X126180Y7628D01*
X126180Y7727D01*
D01*
X126180Y8186D01*
X126698D01*
X127201Y8286D01*
X127627Y8570D01*
X127627Y8570D01*
X127627Y8570D01*
X128328Y9272D01*
X128613Y9698D01*
X128629Y9781D01*
X128713Y10200D01*
X128675Y10391D01*
X129062Y10970D01*
X129207Y11700D01*
X129062Y12430D01*
X128648Y13048D01*
X128030Y13462D01*
X127300Y13607D01*
X126570Y13462D01*
X125952Y13048D01*
X125538Y12430D01*
X125507Y12273D01*
X125029Y12128D01*
X122097Y15059D01*
Y16839D01*
X122483Y17157D01*
X122800Y17094D01*
X123491Y17231D01*
X123645Y17334D01*
X124107Y17143D01*
X124183Y16764D01*
X124444Y16373D01*
X124834Y16112D01*
X125295Y16020D01*
X125756Y16112D01*
X126147Y16373D01*
X126408Y16764D01*
X126499Y17224D01*
Y20276D01*
X126408Y20736D01*
X126147Y21127D01*
X125756Y21388D01*
X125295Y21480D01*
X124834Y21388D01*
X124461Y21139D01*
X124368Y21178D01*
X123978Y21438D01*
X123950Y21581D01*
X123680Y21985D01*
X122899Y22766D01*
X122495Y23035D01*
X122019Y23130D01*
X120784D01*
X120308Y23035D01*
X120055Y23415D01*
X120055Y23415D01*
X120055D01*
X120037Y23501D01*
X120021Y23584D01*
X119939Y23706D01*
X120048Y24194D01*
X120079Y24213D01*
D01*
X120079Y24213D01*
X123622D01*
Y24740D01*
X124681D01*
X126089Y23333D01*
X126492Y23063D01*
X126969Y22968D01*
X131004D01*
X131206Y23008D01*
X131890D01*
X132351Y23100D01*
X132567Y23244D01*
X133008Y23009D01*
Y21677D01*
X132851Y21520D01*
X130610D01*
Y22047D01*
X127067D01*
Y18504D01*
X130610D01*
Y19031D01*
X133244D01*
X133376Y18365D01*
X133790Y17746D01*
X134408Y17333D01*
X135138Y17188D01*
X135868Y17333D01*
X136486Y17746D01*
X136869Y18319D01*
X137359Y18417D01*
X137361Y18416D01*
X138091Y18271D01*
X138820Y18416D01*
X139439Y18829D01*
X139562Y19013D01*
X140354D01*
X140800Y19102D01*
X141177Y19354D01*
X141926Y20102D01*
X142178Y20480D01*
X142266Y20925D01*
Y25335D01*
X142178Y25780D01*
X141926Y26158D01*
X141759Y26325D01*
Y26825D01*
X141965Y27031D01*
X142217Y27409D01*
X142232Y27483D01*
X142306Y27854D01*
Y31791D01*
X142289Y31877D01*
X142222Y32214D01*
X142256Y32383D01*
X142126Y33036D01*
X141756Y33590D01*
X141202Y33960D01*
X140550Y34089D01*
X140320Y34044D01*
X140042Y34459D01*
X140187Y34677D01*
X140279Y35138D01*
Y38091D01*
X140279Y38091D01*
X140187Y38551D01*
X139926Y38942D01*
X139631Y39237D01*
X139240Y39498D01*
X138779Y39590D01*
X138319Y39498D01*
X137928Y39237D01*
X137667Y38847D01*
X137575Y38386D01*
X137667Y37925D01*
X137871Y37620D01*
Y35138D01*
X137962Y34677D01*
X138223Y34286D01*
X138614Y34025D01*
X139075Y33934D01*
X139189Y33359D01*
X138973Y33036D01*
X138844Y32383D01*
X138900Y32103D01*
X138582Y31716D01*
X137992D01*
X137992Y31716D01*
X137531Y31624D01*
X137424Y31553D01*
X136962Y31744D01*
X136939Y31859D01*
X136678Y32249D01*
X136288Y32510D01*
X135827Y32602D01*
X135565Y32817D01*
Y33315D01*
X135616Y33366D01*
X137303D01*
Y36909D01*
X136844D01*
Y37598D01*
X136744Y38101D01*
X136460Y38527D01*
X135869Y39117D01*
X135443Y39402D01*
X134941Y39502D01*
X134837D01*
X134813Y39537D01*
X134194Y39950D01*
X134169Y40202D01*
X134486Y40333D01*
X135267Y40933D01*
X135867Y41714D01*
X136244Y42624D01*
X136372Y43600D01*
X136244Y44576D01*
X135867Y45486D01*
X135267Y46268D01*
X134486Y46867D01*
X133913Y47105D01*
Y47500D01*
X133813Y48002D01*
X133699Y48173D01*
X133528Y48428D01*
X132910Y49046D01*
X133102Y49508D01*
X134547D01*
Y51650D01*
X134988Y51886D01*
X135206Y51740D01*
X135115Y51279D01*
Y48327D01*
X135206Y47866D01*
X135467Y47475D01*
X135858Y47214D01*
X136319Y47122D01*
X136780Y47214D01*
X137170Y47475D01*
X137432Y47866D01*
X137523Y48327D01*
Y51279D01*
X137432Y51740D01*
X137170Y52131D01*
X136780Y52392D01*
X136590Y52430D01*
X136492Y52920D01*
X136880Y53179D01*
X137293Y53798D01*
X137438Y54527D01*
X137293Y55257D01*
X137395Y55449D01*
X138657D01*
X139270Y55038D01*
X140000Y54893D01*
X140730Y55038D01*
X141348Y55452D01*
X141762Y56070D01*
X141907Y56800D01*
X141762Y57530D01*
X141348Y58148D01*
X140730Y58562D01*
X140000Y58707D01*
X139270Y58562D01*
X139076Y58432D01*
X138635Y58668D01*
Y61272D01*
X138635Y61272D01*
X138635D01*
X138567Y61399D01*
X138578Y61415D01*
X138716Y62106D01*
X138578Y62798D01*
X138724Y63069D01*
X139873D01*
X140296Y63153D01*
X140654Y63393D01*
X140654Y63393D01*
X140654Y63393D01*
X140679Y63418D01*
X140800Y63394D01*
X141453Y63524D01*
X142006Y63894D01*
X142376Y64447D01*
X142506Y65100D01*
X142376Y65753D01*
X142006Y66306D01*
X141453Y66676D01*
X140800Y66806D01*
X140727Y67174D01*
X140976Y67547D01*
X141106Y68200D01*
X140976Y68853D01*
X140606Y69406D01*
X140053Y69776D01*
X139400Y69906D01*
X139341Y70202D01*
X139453Y70224D01*
X140006Y70594D01*
X140376Y71147D01*
X140506Y71800D01*
X140376Y72453D01*
X140006Y73006D01*
X139453Y73376D01*
X139428Y73437D01*
X139458Y73483D01*
X139604Y74213D01*
X139458Y74942D01*
X139045Y75561D01*
Y75817D01*
X139340Y76014D01*
X139754Y76632D01*
X139899Y77362D01*
X139754Y78092D01*
X139340Y78711D01*
X138722Y79124D01*
X137992Y79269D01*
X137262Y79124D01*
X137210Y79088D01*
X137189Y79102D01*
X136713Y79197D01*
X136692D01*
X136375Y79584D01*
X136442Y79921D01*
X136343Y80421D01*
X136060Y80844D01*
X135637Y81126D01*
X135138Y81226D01*
X132972D01*
X132954Y81222D01*
X132600Y81576D01*
X132604Y81595D01*
Y83760D01*
X132504Y84259D01*
X132222Y84682D01*
X131849Y84931D01*
X131994Y85410D01*
X132185D01*
X132646Y85502D01*
X133037Y85763D01*
X133298Y86153D01*
X133389Y86614D01*
X133298Y87075D01*
X133037Y87466D01*
X132646Y87727D01*
X132185Y87818D01*
X129035D01*
X128575Y87727D01*
X128184Y87466D01*
X127923Y87075D01*
X127831Y86614D01*
X127923Y86153D01*
X128184Y85763D01*
X128575Y85502D01*
X128731Y85470D01*
X128832Y84965D01*
X128408Y84682D01*
X128285D01*
X127861Y84965D01*
X127362Y85064D01*
X127264Y85145D01*
Y88386D01*
X125197D01*
X124902Y88681D01*
X124902Y88739D01*
X124902Y88739D01*
X124902D01*
Y90360D01*
X125364Y90552D01*
X125822Y90093D01*
X126212Y89832D01*
X126673Y89741D01*
X127134Y89832D01*
X127525Y90093D01*
X127786Y90484D01*
X127877Y90945D01*
X127786Y91406D01*
X127525Y91796D01*
X126893Y92428D01*
Y92520D01*
X128986D01*
Y92736D01*
X129427Y92971D01*
X129559Y92883D01*
X130020Y92792D01*
X137795D01*
X137795Y92792D01*
X138256Y92883D01*
X138647Y93145D01*
X140320Y94818D01*
X140581Y95208D01*
X140673Y95669D01*
X140581Y96130D01*
X140320Y96521D01*
X139929Y96782D01*
X139469Y96873D01*
X139008Y96782D01*
X138617Y96521D01*
X137296Y95200D01*
X130609D01*
X130542Y95540D01*
X130437Y95696D01*
X130475Y95768D01*
X133268D01*
Y95768D01*
X133268D01*
X133268Y95768D01*
X133465D01*
Y95768D01*
X137008D01*
Y99057D01*
X137344Y99124D01*
X137962Y99538D01*
X138376Y100156D01*
X138521Y100886D01*
X138376Y101616D01*
X137962Y102234D01*
X137344Y102647D01*
X136614Y102793D01*
X135884Y102647D01*
X135266Y102234D01*
X134850Y102317D01*
X134832Y102403D01*
X134419Y103022D01*
X133800Y103435D01*
X133071Y103580D01*
X132819Y103530D01*
X132741Y103607D01*
X132351Y103868D01*
X131890Y103960D01*
X131890Y103960D01*
X129528D01*
Y104626D01*
X134882D01*
X134808Y104682D01*
X133970Y105029D01*
X133347Y105112D01*
X133280Y105163D01*
X132609Y105441D01*
X131890Y105536D01*
X131102D01*
Y106693D01*
X124409D01*
Y106299D01*
X124213Y106126D01*
X122226D01*
X121979Y106228D01*
X121260Y106323D01*
X120540Y106228D01*
X119870Y105951D01*
X119294Y105509D01*
X118853Y104933D01*
X118840Y104902D01*
X118061Y104799D01*
X117642Y104626D01*
X120032D01*
X120268Y104185D01*
X120147Y104004D01*
X120056Y103543D01*
X119693Y103204D01*
X119690Y103205D01*
X119690Y103205D01*
X119690Y103205D01*
X118960Y103350D01*
X118230Y103205D01*
X117612Y102792D01*
X117198Y102173D01*
X117053Y101443D01*
X117198Y100714D01*
X117612Y100095D01*
X118230Y99682D01*
X118230Y99682D01*
X118042Y99380D01*
X118042Y99380D01*
X118042D01*
X117628Y98761D01*
X117483Y98032D01*
X117568Y97607D01*
X117152Y97329D01*
X116589Y97705D01*
X115860Y97850D01*
X115130Y97705D01*
X114512Y97292D01*
X114098Y96673D01*
X113953Y95943D01*
X114098Y95214D01*
X114512Y94595D01*
X114556Y94566D01*
Y93600D01*
X114650Y93124D01*
X114920Y92720D01*
X115520Y92120D01*
X115691Y92006D01*
Y91506D01*
X115623Y91461D01*
X115389Y91304D01*
X115389Y91304D01*
X115093Y91009D01*
X114832Y90618D01*
X114741Y90158D01*
X114832Y89697D01*
X115093Y89306D01*
X115379Y89115D01*
X115281Y88625D01*
X115018Y88573D01*
X114400Y88159D01*
X113987Y87541D01*
X113841Y86811D01*
X113987Y86081D01*
X114400Y85463D01*
X115018Y85049D01*
X115748Y84904D01*
X115889Y84932D01*
X116275Y84615D01*
Y84062D01*
X116215Y83760D01*
Y81595D01*
X116219Y81576D01*
X115865Y81222D01*
X115847Y81226D01*
X113681D01*
X113378Y81166D01*
X113212D01*
X111020Y83358D01*
X111060Y83563D01*
X110915Y84293D01*
X110502Y84911D01*
X109883Y85325D01*
X109153Y85470D01*
X108424Y85325D01*
X107805Y84911D01*
X107392Y84293D01*
X107247Y83563D01*
X107392Y82833D01*
X107805Y82215D01*
X108424Y81801D01*
X108586Y81769D01*
X108537Y81272D01*
X106308D01*
D01*
X106308Y81272D01*
X106308D01*
Y81272D01*
D01*
X102765D01*
Y77728D01*
X103292D01*
Y76764D01*
X103387Y76288D01*
X103656Y75884D01*
X104520Y75020D01*
X104924Y74750D01*
X105400Y74656D01*
X106182D01*
X106252Y74552D01*
X106787Y74194D01*
X106836Y73697D01*
X106629Y73489D01*
X106368Y73099D01*
X106276Y72638D01*
X106276Y72638D01*
Y65755D01*
X105997Y65476D01*
X103642D01*
Y66043D01*
X100298D01*
X100153Y66522D01*
X100659Y66860D01*
X101073Y67479D01*
X101218Y68209D01*
X101197Y68314D01*
X101514Y68701D01*
X101673D01*
Y73819D01*
X96949D01*
Y69307D01*
X96562Y68990D01*
X96358Y69031D01*
X95667Y68893D01*
X95618Y68861D01*
X95177Y69096D01*
Y69193D01*
X95177D01*
Y72469D01*
X95220Y72497D01*
X95504Y72923D01*
X95604Y73425D01*
Y75492D01*
X95504Y75994D01*
X95220Y76420D01*
X94794Y76705D01*
X94485Y76766D01*
X94534Y77264D01*
X96063D01*
Y77723D01*
X96949D01*
Y75787D01*
X101673D01*
Y80905D01*
X96949D01*
Y80348D01*
X96063D01*
Y80807D01*
X92520D01*
D01*
D01*
X92520Y80807D01*
X92323D01*
Y80807D01*
X88780D01*
Y80348D01*
X88175D01*
X87984Y80810D01*
X88735Y81561D01*
X93307D01*
X93809Y81661D01*
X94235Y81946D01*
X94826Y82536D01*
X95110Y82962D01*
X95210Y83465D01*
Y88826D01*
X96148Y89764D01*
X101772D01*
Y96063D01*
X94685D01*
Y92014D01*
X92970Y90298D01*
X92685Y89872D01*
X92585Y89370D01*
Y89370D01*
X86614D01*
Y90945D01*
X83907D01*
X83671Y91386D01*
X83862Y91670D01*
X84007Y92400D01*
X83862Y93130D01*
X83448Y93748D01*
X82830Y94162D01*
X82677Y94192D01*
Y103331D01*
X88583D01*
X88890Y103392D01*
X89150Y103566D01*
X89324Y103827D01*
X89385Y104134D01*
Y104626D01*
X90991D01*
Y108268D01*
X90808Y109189D01*
X90286Y109971D01*
X89504Y110493D01*
X89354Y110523D01*
X89508Y111300D01*
Y117173D01*
X89325Y118094D01*
X88803Y118876D01*
X88522Y119063D01*
X88583Y119263D01*
X88802Y119291D01*
X91907D01*
X92126Y119263D01*
X96051D01*
X96063Y119261D01*
X100097D01*
X100328Y119291D01*
X103422D01*
X103642Y119263D01*
X103746D01*
Y117407D01*
X103612Y117351D01*
X102954Y116846D01*
X102449Y116188D01*
X102131Y115422D01*
X102023Y114600D01*
X102131Y113778D01*
X102449Y113012D01*
X102954Y112354D01*
X103612Y111849D01*
X104378Y111531D01*
X105200Y111423D01*
X106022Y111531D01*
X106788Y111849D01*
X107446Y112354D01*
X107951Y113012D01*
X108240Y113709D01*
X108943Y114412D01*
X109385Y114988D01*
X109663Y115658D01*
X109696Y115909D01*
X110210D01*
Y117669D01*
X110708Y117718D01*
X110875Y116878D01*
X110990Y116706D01*
Y115909D01*
X111679D01*
X112178Y115575D01*
X113100Y115392D01*
X115900D01*
X116822Y115575D01*
X117321Y115909D01*
X117454D01*
Y115960D01*
X127765D01*
Y115949D01*
X129245Y116095D01*
X130668Y116526D01*
X131979Y117227D01*
X133129Y118171D01*
X133133Y118167D01*
X133916Y119188D01*
X134408Y120376D01*
X134576Y121652D01*
X134560D01*
Y122658D01*
X134906D01*
Y123200D01*
X135025Y123378D01*
X135208Y124300D01*
Y127100D01*
X135059Y127850D01*
X135208Y128600D01*
Y131122D01*
X135891D01*
Y139980D01*
X127032D01*
Y131122D01*
X127991D01*
Y128600D01*
X128141Y127850D01*
X127991Y127100D01*
Y124300D01*
X128175Y123378D01*
X128213Y123321D01*
Y122658D01*
X128382D01*
X128440Y122466D01*
X128182Y122037D01*
X127783Y121958D01*
X127765Y121960D01*
X117518D01*
X117454Y122002D01*
Y122011D01*
X117441D01*
X116822Y122425D01*
X115900Y122608D01*
X113100D01*
X112178Y122425D01*
X111558Y122011D01*
X110990D01*
Y121294D01*
X110875Y121122D01*
X110708Y120282D01*
X110210Y120331D01*
Y121759D01*
X110238Y121826D01*
X110353Y122700D01*
X110238Y123574D01*
X110210Y123641D01*
Y125751D01*
Y129491D01*
X109716D01*
X109551Y129888D01*
X109046Y130546D01*
X108388Y131051D01*
X107622Y131369D01*
X106800Y131477D01*
X105978Y131369D01*
X105212Y131051D01*
X104554Y130546D01*
X104049Y129888D01*
X103884Y129491D01*
X103746D01*
Y129156D01*
X103732Y129122D01*
X103623Y128300D01*
X103732Y127478D01*
X103746Y127444D01*
Y126013D01*
X103642D01*
X103422Y125984D01*
X100318D01*
X100098Y126013D01*
X100086Y126012D01*
X96073D01*
X96061Y126013D01*
X92126D01*
X91907Y125984D01*
X88802D01*
X88583Y126013D01*
X84646D01*
X84574Y126004D01*
X79035D01*
X78816Y125975D01*
X75712D01*
X75492Y126004D01*
X71280D01*
X71268Y126005D01*
X71048Y125977D01*
X67921D01*
Y124803D01*
X67028D01*
X66732Y124508D01*
Y123425D01*
X64757D01*
X64390Y123707D01*
X63719Y123985D01*
X63000Y124080D01*
X62281Y123985D01*
X61610Y123707D01*
X61035Y123266D01*
X60593Y122690D01*
X60315Y122019D01*
X60220Y121300D01*
Y120276D01*
X58354D01*
Y122443D01*
X58368Y122478D01*
X58477Y123300D01*
X58368Y124122D01*
X58051Y124888D01*
X57546Y125546D01*
X56888Y126051D01*
X56122Y126368D01*
X55300Y126477D01*
X54478Y126368D01*
X53712Y126051D01*
X53054Y125546D01*
X52549Y124888D01*
X52232Y124122D01*
X52175Y123691D01*
X51890D01*
Y122834D01*
X51392Y122785D01*
X51325Y123122D01*
X51110Y123443D01*
Y123691D01*
X50945D01*
X50878Y123791D01*
Y179322D01*
X50894D01*
X50729Y180999D01*
X50240Y182611D01*
X49445Y184097D01*
X48377Y185399D01*
X47074Y186468D01*
X45589Y187262D01*
X43977Y187751D01*
X42300Y187916D01*
Y187900D01*
X41610D01*
Y188247D01*
X34439D01*
Y188285D01*
X27746D01*
Y188247D01*
X26140D01*
X26022Y188325D01*
X25700Y188389D01*
Y194600D01*
X108100D01*
Y190626D01*
D02*
G37*
G36*
X130800Y80389D02*
X131299Y80290D01*
X131318Y80294D01*
X131672Y79940D01*
X131668Y79921D01*
X131767Y79422D01*
X132050Y78999D01*
Y78875D01*
X131767Y78452D01*
X131668Y77953D01*
X131767Y77454D01*
X132050Y77030D01*
Y76907D01*
X131767Y76484D01*
X131668Y75984D01*
X131743Y75607D01*
X131426Y75220D01*
X125394D01*
X125394Y75220D01*
X125016Y75145D01*
X124629Y75462D01*
Y80048D01*
X125016Y80365D01*
X125394Y80290D01*
X125893Y80389D01*
X126316Y80672D01*
X126440D01*
X126863Y80389D01*
X127362Y80290D01*
X127861Y80389D01*
X128285Y80672D01*
X128408D01*
X128832Y80389D01*
X129331Y80290D01*
X129830Y80389D01*
X130253Y80672D01*
X130377D01*
X130800Y80389D01*
D02*
G37*
%LPC*%
G36*
X59600Y20105D02*
X59101Y20005D01*
X58678Y19723D01*
X58395Y19299D01*
X58295Y18800D01*
Y11800D01*
X58378Y11384D01*
X58395Y11301D01*
X58678Y10877D01*
X59578Y9978D01*
X60001Y9695D01*
X60084Y9678D01*
X60500Y9595D01*
X63900D01*
X64399Y9695D01*
X64823Y9978D01*
X65105Y10401D01*
X65205Y10900D01*
X65105Y11399D01*
X64823Y11823D01*
X64399Y12105D01*
X63900Y12205D01*
X61040D01*
X60905Y12340D01*
Y18800D01*
X60805Y19299D01*
X60523Y19723D01*
X60099Y20005D01*
X59600Y20105D01*
D02*
G37*
G36*
X12000Y31505D02*
X11554Y31416D01*
X11177Y31164D01*
X10925Y30786D01*
X10836Y30341D01*
Y28800D01*
X10925Y28354D01*
X11177Y27977D01*
X11977Y27177D01*
X12354Y26924D01*
X12800Y26836D01*
X13246Y26924D01*
X13623Y27177D01*
X13875Y27555D01*
X13964Y28000D01*
X13875Y28446D01*
X13623Y28823D01*
X13164Y29282D01*
Y30341D01*
X13076Y30786D01*
X12823Y31164D01*
X12445Y31416D01*
X12000Y31505D01*
D02*
G37*
G36*
X96949Y22366D02*
X96488Y22274D01*
X96097Y22013D01*
X95836Y21622D01*
X95745Y21161D01*
Y19488D01*
X95745Y19488D01*
X95836Y19027D01*
X96097Y18637D01*
X96786Y17948D01*
X97177Y17687D01*
X97638Y17595D01*
X98099Y17687D01*
X98489Y17948D01*
X98750Y18338D01*
X98842Y18799D01*
X98750Y19260D01*
X98489Y19651D01*
X98153Y19987D01*
Y21161D01*
X98061Y21622D01*
X97800Y22013D01*
X97410Y22274D01*
X96949Y22366D01*
D02*
G37*
G36*
X15700Y15007D02*
X14970Y14862D01*
X14352Y14448D01*
X13938Y13830D01*
X13793Y13100D01*
X13938Y12370D01*
X14352Y11752D01*
X14970Y11338D01*
X15014Y11330D01*
X15272Y11072D01*
X15698Y10787D01*
X16200Y10687D01*
X16965D01*
X16964Y10228D01*
X16965D01*
X16964Y10072D01*
X16965D01*
Y6528D01*
X20508D01*
Y6528D01*
X20508D01*
X20508Y6528D01*
X20861Y6528D01*
X20861Y6528D01*
Y6528D01*
X24051D01*
Y7096D01*
X25056D01*
X25152Y6952D01*
X25770Y6538D01*
X26500Y6393D01*
X27230Y6538D01*
X27848Y6952D01*
X28262Y7570D01*
X28407Y8300D01*
X28262Y9030D01*
X27848Y9648D01*
X27291Y10020D01*
X27389Y10511D01*
X28030Y10638D01*
X28648Y11052D01*
X29062Y11670D01*
X29207Y12400D01*
X29062Y13130D01*
X28648Y13748D01*
X28030Y14162D01*
X27300Y14307D01*
X26570Y14162D01*
X25952Y13748D01*
X25588Y13204D01*
X24051D01*
Y13772D01*
X20861D01*
X20861Y13772D01*
Y13772D01*
X20508Y13772D01*
X20508D01*
D01*
X20154Y13772D01*
X20154Y13772D01*
Y13772D01*
X17473D01*
X17462Y13830D01*
X17048Y14448D01*
X16430Y14862D01*
X15700Y15007D01*
D02*
G37*
G36*
X120865Y7061D02*
X117518D01*
X117057Y6969D01*
X116667Y6708D01*
X116405Y6318D01*
X116314Y5857D01*
X116405Y5396D01*
X116667Y5005D01*
X117057Y4744D01*
X117518Y4653D01*
X120865D01*
X121325Y4744D01*
X121716Y5005D01*
X121977Y5396D01*
X122069Y5857D01*
X121977Y6318D01*
X121716Y6708D01*
X121325Y6969D01*
X120865Y7061D01*
D02*
G37*
G36*
X117912Y10703D02*
X117451Y10611D01*
X117060Y10350D01*
X117060Y10350D01*
X116667Y9956D01*
X116405Y9566D01*
X116314Y9105D01*
X116405Y8644D01*
X116667Y8253D01*
X117057Y7992D01*
X117518Y7901D01*
X117979Y7992D01*
X118370Y8253D01*
X118411Y8294D01*
X120865D01*
X121325Y8386D01*
X121716Y8647D01*
X121977Y9038D01*
X122069Y9498D01*
X121977Y9959D01*
X121716Y10350D01*
X121325Y10611D01*
X120865Y10703D01*
X117912D01*
X117912Y10703D01*
D02*
G37*
G36*
X93010Y10804D02*
X92281Y10658D01*
X91662Y10245D01*
X91249Y9627D01*
X91104Y8897D01*
X91249Y8167D01*
X91662Y7549D01*
X92281Y7135D01*
X93010Y6990D01*
X93740Y7135D01*
X94014Y7318D01*
X94191Y7224D01*
Y7224D01*
X94191Y7224D01*
X97735D01*
Y7224D01*
X97735D01*
X97735Y7224D01*
X98088Y7224D01*
X98088Y7224D01*
Y7224D01*
X101278D01*
Y7224D01*
X101278D01*
X101278Y7224D01*
X101376D01*
Y7224D01*
X105313D01*
Y8365D01*
X105792Y8510D01*
X106037Y8144D01*
X106427Y7883D01*
X106888Y7791D01*
X109742D01*
X110203Y7883D01*
X110594Y8144D01*
X110855Y8534D01*
X110947Y8995D01*
X110855Y9456D01*
X110594Y9847D01*
X110203Y10108D01*
X109742Y10199D01*
X106888D01*
X106427Y10108D01*
X106037Y9847D01*
X105792Y9480D01*
X105313Y9626D01*
Y10767D01*
X101376D01*
D01*
D01*
X101376Y10767D01*
X101278D01*
Y10767D01*
X98088D01*
X98088Y10767D01*
Y10767D01*
X97735Y10767D01*
X97735D01*
D01*
X97381Y10767D01*
X97381Y10767D01*
Y10767D01*
X94191D01*
X94191Y10767D01*
Y10767D01*
X93850Y10585D01*
X93740Y10658D01*
X93010Y10804D01*
D02*
G37*
G36*
X110531Y38311D02*
X108071D01*
X107610Y38219D01*
X107454Y38114D01*
X107219Y37958D01*
X107219Y37958D01*
X106530Y37269D01*
X106269Y36878D01*
X106178Y36417D01*
X106269Y35956D01*
X106530Y35566D01*
X106921Y35305D01*
X107382Y35213D01*
X107843Y35305D01*
X108233Y35566D01*
X108570Y35902D01*
X110531D01*
X110992Y35994D01*
X111383Y36255D01*
X111644Y36645D01*
X111736Y37106D01*
X111644Y37567D01*
X111383Y37958D01*
X110992Y38219D01*
X110531Y38311D01*
D02*
G37*
G36*
X40748Y103445D02*
X35630D01*
Y102688D01*
X32972D01*
X32358Y102566D01*
X31837Y102218D01*
X31837Y102218D01*
X31632Y102013D01*
X31357Y101958D01*
X30738Y101545D01*
X30325Y100926D01*
X30180Y100197D01*
X30325Y99467D01*
X30738Y98849D01*
X31357Y98435D01*
X32087Y98290D01*
X32816Y98435D01*
X33435Y98849D01*
X33848Y99467D01*
X33850Y99477D01*
X35630D01*
Y98721D01*
X40748D01*
Y103445D01*
D02*
G37*
G36*
X92435Y98078D02*
X91932Y97978D01*
X91506Y97694D01*
X88147Y94334D01*
X87862Y93908D01*
X87762Y93405D01*
X87862Y92903D01*
X88147Y92477D01*
X88573Y92193D01*
X89075Y92093D01*
X89577Y92193D01*
X90003Y92477D01*
X93363Y95837D01*
X93647Y96263D01*
X93747Y96765D01*
X93647Y97268D01*
X93363Y97694D01*
X92937Y97978D01*
X92435Y98078D01*
D02*
G37*
G36*
X104921Y87533D02*
X98228D01*
X97726Y87433D01*
X97300Y87149D01*
X97016Y86723D01*
X96916Y86221D01*
X97016Y85718D01*
X97300Y85292D01*
X97726Y85008D01*
X98228Y84908D01*
X104921D01*
X105424Y85008D01*
X105849Y85292D01*
X106134Y85718D01*
X106234Y86221D01*
X106134Y86723D01*
X105849Y87149D01*
X105424Y87433D01*
X104921Y87533D01*
D02*
G37*
G36*
X49409Y105020D02*
X34055D01*
Y104626D01*
X49409D01*
Y105020D01*
D02*
G37*
G36*
X112402Y43232D02*
X109449D01*
X108988Y43140D01*
X108597Y42879D01*
X108336Y42488D01*
X108245Y42028D01*
X108336Y41567D01*
X108597Y41176D01*
X108988Y40915D01*
X109449Y40823D01*
X112402D01*
X112862Y40915D01*
X113253Y41176D01*
X113514Y41567D01*
X113606Y42028D01*
X113514Y42488D01*
X113253Y42879D01*
X112862Y43140D01*
X112402Y43232D01*
D02*
G37*
G36*
X100492Y45889D02*
X97342D01*
X96882Y45798D01*
X96491Y45537D01*
X96230Y45146D01*
X96138Y44685D01*
X96230Y44224D01*
X96491Y43834D01*
X96882Y43573D01*
X97342Y43481D01*
X100492D01*
X100953Y43573D01*
X101344Y43834D01*
X101605Y44224D01*
X101696Y44685D01*
X101605Y45146D01*
X101344Y45537D01*
X100953Y45798D01*
X100492Y45889D01*
D02*
G37*
G36*
X81890Y50220D02*
X77658D01*
X77197Y50128D01*
X76806Y49867D01*
X76545Y49477D01*
X76453Y49016D01*
X76545Y48555D01*
X76806Y48164D01*
X77197Y47903D01*
X77658Y47811D01*
X81890D01*
X82351Y47903D01*
X82741Y48164D01*
X83002Y48555D01*
X83094Y49016D01*
X83002Y49477D01*
X82741Y49867D01*
X82351Y50128D01*
X81890Y50220D01*
D02*
G37*
%LPD*%
D10*
X114222Y134578D02*
G03*
X105000Y143800I-9222J0D01*
G01*
X91700Y187300D02*
G03*
X83800Y179400I0J-7900D01*
G01*
Y154000D02*
G03*
X94000Y143800I10200J0D01*
G01*
X47878Y179322D02*
G03*
X42300Y184900I-5578J0D01*
G01*
X15988Y123033D02*
G03*
X26182Y113160I10195J327D01*
G01*
X131000Y120300D02*
G03*
X131560Y121652I-1352J1352D01*
G01*
X127765Y118960D02*
G03*
X131000Y120300I0J4576D01*
G01*
X27479Y184900D02*
X34721D01*
X94000Y143800D02*
X105000D01*
X114222Y126440D02*
Y134578D01*
X91700Y187300D02*
X97699D01*
X83800Y154000D02*
Y179400D01*
X131560Y129900D02*
Y135453D01*
X16100Y129200D02*
Y135517D01*
X17685Y184900D02*
X23936D01*
X47878Y120640D02*
Y179322D01*
X38264Y184900D02*
X42300D01*
X26182Y113160D02*
X47878D01*
X100887Y187325D02*
X116021D01*
X114222Y118960D02*
X127765D01*
X131560Y121652D02*
Y125800D01*
X15988Y123033D02*
Y125100D01*
D11*
X104910Y187325D02*
G03*
X104800Y187279I0J-156D01*
G01*
X104665Y187224D02*
G03*
X104800Y187279I0J191D01*
G01*
D12*
X42035Y117342D02*
G03*
X43103Y116900I1068J1068D01*
G01*
X63202Y120068D02*
G03*
X63204Y120067I734J732D01*
G01*
X62900Y120800D02*
G03*
X63202Y120068I1036J0D01*
G01*
X119390Y97736D02*
X121752D01*
X118800Y101300D02*
X120157D01*
X82677Y69193D02*
X88484D01*
X22279Y8300D02*
X26500D01*
X85532Y67224D02*
X89862D01*
X82677D02*
X85532D01*
X26900Y12000D02*
X27300Y12400D01*
X22279Y12000D02*
X26900D01*
X45400Y71900D02*
X50764Y77264D01*
X73819Y55905D02*
Y60335D01*
Y55905D02*
X74803Y54921D01*
X71161Y55905D02*
X74114Y52953D01*
X68195Y55905D02*
X71161D01*
X70768Y52756D02*
Y54331D01*
X70374Y54724D02*
X70768Y54331D01*
X67876Y54724D02*
X70374D01*
X65847Y56753D02*
X67876Y54724D01*
X67224Y56876D02*
X68195Y55905D01*
X67224Y56876D02*
Y58919D01*
X65847Y56753D02*
Y60236D01*
X74803Y54921D02*
X83268D01*
X85900Y52289D01*
X107480Y72638D02*
X110827Y75984D01*
X114764D01*
X106496Y64272D02*
X107480Y65256D01*
Y72638D01*
X6100Y50000D02*
X8600Y52500D01*
X6100Y35774D02*
Y50000D01*
Y35774D02*
X6135Y35739D01*
X13858Y52500D02*
X13976Y52618D01*
X8600Y52500D02*
X13858D01*
X6135Y31065D02*
Y35739D01*
Y31065D02*
X6843Y30357D01*
X8300D01*
X25339Y47200D02*
X25394Y47146D01*
X20181Y47200D02*
X25339D01*
X19200Y46219D02*
X20181Y47200D01*
X19200Y37600D02*
Y46219D01*
X17500Y35900D02*
X19200Y37600D01*
X16120Y35900D02*
X17500D01*
X13025Y35925D02*
X16095D01*
X12000Y34900D02*
X13025Y35925D01*
X16095D02*
X16120Y35900D01*
X12000Y33884D02*
Y34900D01*
X11984Y33900D02*
X12000Y33884D01*
X8300Y33900D02*
X11984D01*
X52067Y75098D02*
X55118D01*
X52505Y71161D02*
X55118D01*
X51718Y70374D02*
X52505Y71161D01*
X85827Y65256D02*
X88386Y62697D01*
Y59252D02*
Y62697D01*
X85532Y67224D02*
Y67323D01*
X86767Y71850D02*
X87500D01*
X82480Y75197D02*
X87795D01*
X86078Y71161D02*
X86767Y71850D01*
X82677Y71161D02*
X86078D01*
X52461Y65256D02*
X55118D01*
X51870Y73130D02*
X55118D01*
X51575Y72835D02*
X51870Y73130D01*
X135039Y26969D02*
Y27559D01*
X121457Y60532D02*
X122638Y59350D01*
X55512Y90551D02*
X58566D01*
X58661Y92126D02*
X62008Y88779D01*
X57677Y92126D02*
X58661D01*
X57480Y92323D02*
X57677Y92126D01*
X60039Y87894D02*
Y89078D01*
X58566Y90551D02*
X60039Y89078D01*
X55216Y90847D02*
X55512Y90551D01*
X62008Y87894D02*
Y88779D01*
X136909Y59744D02*
Y62106D01*
X65764Y112992D02*
Y117507D01*
X120157Y101300D02*
X121752Y99705D01*
X85900Y39837D02*
Y52289D01*
X52126Y54374D02*
X53200Y53300D01*
X52126Y54374D02*
Y56213D01*
X48386Y54714D02*
Y56213D01*
Y59756D02*
Y63986D01*
Y59756D02*
X52126D01*
X56565Y60335D02*
X58071D01*
X55856Y61044D02*
X56565Y60335D01*
X55534Y61044D02*
X55856D01*
X55900Y48700D02*
X56299Y49099D01*
Y51772D01*
Y55512D02*
X56300Y55513D01*
Y58100D01*
X51600Y63287D02*
X55118D01*
X121457Y60532D02*
Y61221D01*
X89862Y70571D02*
Y70965D01*
X88484Y69193D02*
X89862Y70571D01*
X66831Y120079D02*
X67421Y119488D01*
Y116437D02*
Y119488D01*
Y116437D02*
X67913Y115945D01*
Y115453D02*
Y115945D01*
X71260Y114764D02*
X71260Y114764D01*
X68602Y114764D02*
X71260D01*
X67913Y115453D02*
X68602Y114764D01*
X121260Y103543D02*
X121457Y103347D01*
X124213D01*
X115945Y90158D02*
X116240Y90453D01*
X119587D01*
X123130D02*
X123721Y91043D01*
Y93799D01*
X125689Y91929D02*
X126673Y90945D01*
X125689Y91929D02*
Y93799D01*
X135236Y93996D02*
X137795D01*
X135236Y99705D02*
X136417Y100886D01*
X135236Y97539D02*
Y99705D01*
X127854Y102756D02*
X131890D01*
X127657Y102559D02*
X127854Y102756D01*
X127657Y99705D02*
Y102559D01*
X131496Y93996D02*
X135236D01*
X131299Y97736D02*
X131496Y97539D01*
X135236D01*
X127657Y95768D02*
X128740D01*
X129429Y95079D01*
Y94587D02*
Y95079D01*
Y94587D02*
X130020Y93996D01*
X131496D01*
X127657Y97736D02*
X131299D01*
X119587Y95768D02*
X121752D01*
X77658Y49016D02*
X81890D01*
X63386Y46161D02*
Y49213D01*
X70768Y46063D02*
Y49213D01*
X83071Y85335D02*
Y87992D01*
X82677Y84941D02*
X83071Y85335D01*
X123425Y72047D02*
X124409Y73032D01*
X123425Y74016D02*
X124409Y73032D01*
X126673Y51181D02*
X129626D01*
X129724Y51083D01*
X129035Y86614D02*
X132185D01*
X124409Y73032D02*
X125394Y74016D01*
X136319Y48327D02*
Y51279D01*
X106888Y8995D02*
X109742D01*
X131890Y102756D02*
X132972Y101673D01*
X93701Y57677D02*
X96949D01*
X97933Y58661D01*
X137795Y24213D02*
X139075D01*
X138091Y28937D02*
X139075D01*
X137992Y30512D02*
X139075D01*
X136713Y27559D02*
X138091Y28937D01*
X135138Y29331D02*
X135827Y30020D01*
Y31398D01*
X135039Y27559D02*
X135138Y27657D01*
X139075Y35138D02*
Y38091D01*
X138779Y38386D02*
X139075Y38091D01*
X102756Y25000D02*
X104724D01*
X102756D02*
X102756Y25000D01*
X107677Y27953D02*
X108465D01*
X107382Y36417D02*
X108071Y37106D01*
X104724Y25000D02*
X107677Y27953D01*
X108071Y37106D02*
X110531D01*
X125295Y17224D02*
Y20276D01*
X122638Y37500D02*
X124902D01*
X122244Y37106D02*
X122638Y37500D01*
X122244Y35335D02*
Y37106D01*
X109449Y42028D02*
X112402D01*
X117912Y9498D02*
X120865D01*
X117518Y9105D02*
X117912Y9498D01*
X117518Y5857D02*
X120865D01*
X96949Y19488D02*
Y21161D01*
Y19488D02*
X97638Y18799D01*
X97933Y58661D02*
Y60630D01*
X98721Y61417D01*
X101279D01*
X101870Y62008D01*
Y64272D01*
X106496D01*
X95472D02*
X98327D01*
X93405Y67224D02*
X96358D01*
X109055Y46161D02*
X112402D01*
X105217Y42323D02*
X109055Y46161D01*
X105217Y40551D02*
Y42323D01*
X103937Y39272D02*
X105217Y40551D01*
X51870Y82973D02*
X55118D01*
X51476Y83366D02*
X51870Y82973D01*
X82677Y65256D02*
X85827D01*
X82677Y63287D02*
X84350D01*
X86417Y61221D01*
X88090Y58957D02*
X88386Y59252D01*
X79724Y58563D02*
Y60335D01*
Y58563D02*
X81004Y57284D01*
X67913Y59608D02*
Y60335D01*
X65847Y60236D02*
X65945Y60335D01*
X67224Y58919D02*
X67913Y59608D01*
X69882Y58760D02*
Y60335D01*
X68898Y57776D02*
X69882Y58760D01*
X82677Y77067D02*
X85236D01*
X106978Y116378D02*
Y118960D01*
X105200Y114600D02*
X106978Y116378D01*
X64961Y91732D02*
X65000Y91693D01*
X47878Y116900D02*
X50717D01*
X118816Y19616D02*
Y19917D01*
X118200Y19000D02*
X118816Y19616D01*
X115900Y19000D02*
X118200D01*
X85532Y39469D02*
X85900Y39837D01*
X92912Y8995D02*
X95963D01*
X29000Y26143D02*
X29429Y26572D01*
X134055Y72047D02*
X134153Y71949D01*
X138451D02*
X138600Y71800D01*
X134153Y71949D02*
X138451D01*
X32479Y26465D02*
X32800Y26143D01*
X31398Y34844D02*
Y37205D01*
Y34844D02*
X33100Y33141D01*
X134055Y70079D02*
X136979D01*
X137000Y70100D01*
X36239Y33661D02*
X36700Y33200D01*
X33366Y34646D02*
X34350Y33661D01*
X33366Y34646D02*
Y37205D01*
X34350Y33661D02*
X36239D01*
X36600Y26143D02*
X36700Y26243D01*
Y29800D01*
Y33200D01*
X29429Y26572D02*
Y37205D01*
X88065Y21679D02*
Y52835D01*
X77286Y10900D02*
X88065Y21679D01*
X86700Y54200D02*
X88065Y52835D01*
X32479Y26465D02*
X33100Y27086D01*
Y33141D01*
X45440Y83760D02*
X48294Y80905D01*
X26880Y81200D02*
X29340D01*
X26680Y81400D02*
X26880Y81200D01*
X29340D02*
X31900Y83760D01*
X45440D01*
X48294Y80905D02*
X52802D01*
X52900Y81004D02*
X55118D01*
X52802Y80905D02*
X52900Y81004D01*
X26680Y78620D02*
Y81400D01*
Y78620D02*
X27494Y77806D01*
X30400D01*
X50764Y77264D02*
X54921D01*
X40600Y71900D02*
X45400D01*
X54921Y77264D02*
X55118Y77067D01*
X77658Y52756D02*
X81791D01*
X48386Y63986D02*
X51624Y67224D01*
X55118D01*
X48386Y54714D02*
X50100Y53000D01*
X43103Y116900D02*
X47878D01*
X61535Y121735D02*
X63202Y120068D01*
X65764Y117507D01*
X97342Y44685D02*
X100492D01*
X135039Y27559D02*
X136713D01*
X135138Y27657D02*
Y29331D01*
Y27657D02*
X137992Y30512D01*
X123425Y63386D02*
Y72047D01*
Y74016D02*
Y82677D01*
X125098Y56496D02*
X127657D01*
X125394Y74016D02*
X134055D01*
X137795Y93996D02*
X139469Y95669D01*
X0Y0D02*
Y194587D01*
Y0D02*
X147638D01*
X0Y194587D02*
X147638D01*
Y0D02*
Y194587D01*
D13*
X51550Y116780D02*
G03*
X51500Y116900I-169J0D01*
G01*
X51600Y125300D02*
G03*
X51500Y125059I241J-241D01*
G01*
X63386Y53543D02*
Y56693D01*
X74114Y46986D02*
X75300Y45800D01*
X40564Y81200D02*
X43100D01*
X62008Y57677D02*
Y60335D01*
X59842Y55512D02*
X62008Y57677D01*
X63316Y53379D02*
X67000D01*
X15400Y12800D02*
X16200Y12000D01*
X18736D01*
Y8300D02*
Y12000D01*
X46000Y75500D02*
Y77500D01*
X44368Y73869D02*
X46000Y75500D01*
X25394Y34894D02*
Y41240D01*
X23472Y32972D02*
X25394Y34894D01*
X21752Y32972D02*
X23472D01*
X30512Y55905D02*
Y56988D01*
X35335Y56004D02*
X36122Y56791D01*
X82677Y79035D02*
X98622D01*
X86321Y81004D02*
X88191Y82874D01*
X82677Y81004D02*
X86321D01*
X87894Y84547D02*
X89567Y86221D01*
X86319Y82973D02*
X87894Y84547D01*
X82677Y82973D02*
X86319D01*
X135827Y19291D02*
Y23327D01*
X58653Y94201D02*
X63976Y88878D01*
X65000Y90315D02*
X65945Y89370D01*
X65000Y90315D02*
Y91693D01*
X53732Y94201D02*
X58653D01*
X127300Y10300D02*
Y11700D01*
Y10300D02*
X127400Y10200D01*
X126698Y9498D02*
X127400Y10200D01*
X124408Y9498D02*
X126698D01*
X131461Y135551D02*
X131560Y135453D01*
X80513Y101575D02*
X80710Y101772D01*
X76870Y101575D02*
X80513D01*
X117100Y53400D02*
X118362D01*
X120581Y51181D01*
X123130D01*
X74114Y46986D02*
Y49016D01*
X93405Y67224D02*
Y70965D01*
X51968Y96063D02*
Y98228D01*
X50591Y99606D02*
X51968Y98228D01*
X88191Y82874D02*
X93307D01*
X93898Y83465D01*
X65945Y87894D02*
Y89370D01*
X53437Y94496D02*
X53732Y94201D01*
X63976Y87894D02*
Y88878D01*
X49508Y99606D02*
X50591D01*
X69882Y87894D02*
Y91240D01*
Y85630D02*
Y87894D01*
X67913D02*
Y91142D01*
X71850Y85728D02*
Y87894D01*
X67913Y86221D02*
Y87894D01*
X53437Y94496D02*
X53486D01*
X51968Y95964D02*
X53437Y94496D01*
X51968Y95964D02*
Y96063D01*
X33366Y53150D02*
Y56693D01*
X35335Y53150D02*
Y56004D01*
X31398Y53150D02*
Y55020D01*
X30512Y55905D02*
X31398Y55020D01*
X44712Y53123D02*
X46260Y51575D01*
X37330Y53123D02*
X44712D01*
X37303Y41240D02*
X41339D01*
X35728Y42815D02*
X37303Y41240D01*
X33366Y45177D02*
X35335Y43209D01*
X37303Y37205D02*
Y41240D01*
X25394Y45177D02*
X33366D01*
X35335Y43209D02*
X35728Y42815D01*
X49016Y42028D02*
Y45768D01*
X43799D02*
X45472D01*
X43209Y45177D02*
X43799Y45768D01*
X41339Y45177D02*
X43209D01*
X41339Y43209D02*
X42717D01*
X43996Y41929D01*
X45571D01*
X16043Y32972D02*
X18209D01*
X15551Y33465D02*
X16043Y32972D01*
X97441Y92913D02*
X98228D01*
X93898Y89370D02*
X97441Y92913D01*
X93898Y83465D02*
Y89370D01*
X98228Y86221D02*
X104921D01*
X98622Y79035D02*
X99311Y78347D01*
X94291Y73425D02*
Y75492D01*
X45276Y101083D02*
X48031D01*
X49508Y99606D01*
X67028Y85335D02*
X67913Y86221D01*
X69587Y85335D02*
X69882Y85630D01*
X71850Y85728D02*
X72244Y85335D01*
X59842Y51772D02*
Y55512D01*
X63386Y56693D02*
X63976Y57284D01*
Y60335D01*
X74114Y49016D02*
Y52756D01*
X32087Y100197D02*
X32382Y99902D01*
X74114Y52756D02*
Y52953D01*
X123130Y51181D02*
Y54429D01*
X99506Y8995D02*
X103345D01*
X115945Y44488D02*
X119291D01*
X120276Y45472D01*
X115945Y44488D02*
Y46161D01*
Y42028D02*
Y44488D01*
X135531Y35138D02*
Y37598D01*
X134941Y38189D02*
X135531Y37598D01*
X134252Y33858D02*
X135531Y35138D01*
X134252Y31398D02*
Y33858D01*
X133465Y38189D02*
X134941D01*
X133465D02*
Y38681D01*
X49114Y39567D02*
Y41929D01*
X37303Y37205D02*
X37992Y37894D01*
X47441D01*
X90551Y73524D02*
Y75492D01*
X73819Y87894D02*
Y90945D01*
X73032Y91732D02*
X73819Y90945D01*
X73032Y91732D02*
Y94390D01*
X72638Y94784D02*
Y98032D01*
Y94784D02*
X73032Y94390D01*
X76870Y94685D02*
Y98032D01*
X75779Y87902D02*
X75787Y87894D01*
X76569Y91632D02*
Y94290D01*
X75781Y90845D02*
X76569Y91632D01*
X75781Y87794D02*
Y90845D01*
X73138Y101575D02*
Y104362D01*
X76870Y101575D02*
Y104170D01*
X69095Y101575D02*
X72638D01*
X68799Y101870D02*
X69095Y101575D01*
X68799Y105413D02*
X70986Y107600D01*
X72856D01*
X72933Y107677D01*
X76544Y107700D02*
X78414D01*
X80601Y105514D01*
X78140Y110940D02*
Y111705D01*
X76467Y109267D02*
X78140Y110940D01*
X76467Y107177D02*
Y109267D01*
X71260Y110940D02*
Y111705D01*
Y110940D02*
X72933Y109267D01*
Y107177D02*
Y109267D01*
X51968Y96063D02*
X54469D01*
X62203Y98033D02*
X64567Y95669D01*
X62203Y98033D02*
Y99705D01*
X37303Y53150D02*
X37330Y53123D01*
X42800Y47200D02*
X46260Y50660D01*
X41339Y49114D02*
Y50239D01*
X41800Y50700D01*
X46220D01*
X46260Y50660D01*
X132600Y43600D02*
Y47500D01*
X131400Y48700D02*
X132600Y47500D01*
X127600Y48700D02*
X131400D01*
X63300Y53364D02*
X63316Y53379D01*
X124408Y5857D02*
Y9498D01*
X124408Y5857D02*
X124408Y5857D01*
Y9498D02*
Y10892D01*
X120784Y14516D02*
X124408Y10892D01*
X120784Y14516D02*
Y19917D01*
X128347Y37894D02*
X132677D01*
X133465Y38681D01*
X23300Y22400D02*
X23500Y22600D01*
X29000D01*
X32800D01*
X36600D01*
X54469Y96063D02*
X54675Y96269D01*
X40564Y81200D02*
X40600Y81164D01*
X43100Y81100D02*
Y81200D01*
X32100Y68500D02*
X34936D01*
X32000Y68400D02*
X32100Y68500D01*
X38427Y68553D02*
X38480Y68500D01*
X38427Y68553D02*
Y72925D01*
X39181Y73680D01*
X39222D01*
X39400Y73857D01*
X40589D01*
X40600Y73869D01*
X44368D01*
X46000Y77500D02*
X47535Y79035D01*
X55118D01*
X40600Y77806D02*
Y79100D01*
Y81164D01*
X25505Y74705D02*
X26637Y75837D01*
X30400D01*
X18996Y74705D02*
X25505D01*
X21477Y81400D02*
X23136D01*
X20401Y82477D02*
X21477Y81400D01*
X41339Y47200D02*
X42800D01*
X51500Y109171D02*
X51550Y109121D01*
X35335Y37205D02*
Y43209D01*
X47441Y37894D02*
X49114Y39567D01*
X51550Y109121D02*
Y116780D01*
X51500Y116900D02*
Y125059D01*
X50717Y116900D02*
X51500D01*
X89075Y93405D02*
X92435Y96765D01*
X44700Y81500D02*
X51700D01*
Y66500D02*
Y81500D01*
X44700Y66500D02*
X51700D01*
X44700D02*
Y81500D01*
X95811Y67260D02*
Y82260D01*
X102811D01*
Y67260D02*
Y82260D01*
X95811Y67260D02*
X102811D01*
X34189Y104583D02*
X49189D01*
Y97583D02*
Y104583D01*
X34189Y97583D02*
X49189D01*
X34189D02*
Y104583D01*
D14*
X110600Y122700D02*
G03*
X110210Y121759I941J-941D01*
G01*
X110600Y130027D02*
G03*
X109700Y132200I-3073J0D01*
G01*
X32972Y101083D02*
X38189D01*
X32087Y100197D02*
X32972Y101083D01*
X45866Y96063D02*
X48425D01*
X71260Y117323D02*
Y122622D01*
X71268Y122630D01*
X110210Y115909D02*
Y121759D01*
X110600Y122700D02*
Y130027D01*
D15*
X18736Y8300D02*
D03*
X22279D02*
D03*
X18736Y12000D02*
D03*
X22279D02*
D03*
X104536Y79500D02*
D03*
X108080D02*
D03*
X72933Y107677D02*
D03*
X76476D02*
D03*
X27479Y184900D02*
D03*
X23936D02*
D03*
X34721D02*
D03*
X38264D02*
D03*
X58663Y116929D02*
D03*
X62206D02*
D03*
X65764Y112992D02*
D03*
X62221D02*
D03*
X58660Y99705D02*
D03*
X62203D02*
D03*
X101319Y187224D02*
D03*
X97776D02*
D03*
X103642Y122638D02*
D03*
X100098D02*
D03*
X88583D02*
D03*
X92126D02*
D03*
X75492Y122629D02*
D03*
X79035D02*
D03*
X73032Y94390D02*
D03*
X76575D02*
D03*
X119587Y90453D02*
D03*
X123130D02*
D03*
X38480Y68500D02*
D03*
X34936D02*
D03*
X26680Y81400D02*
D03*
X23136D02*
D03*
X49016Y45768D02*
D03*
X45472D02*
D03*
X49114Y41929D02*
D03*
X45571D02*
D03*
X18209Y32972D02*
D03*
X21752D02*
D03*
X48425Y96063D02*
D03*
X51968D02*
D03*
X56299Y55512D02*
D03*
X59842D02*
D03*
X56299Y51772D02*
D03*
X59842D02*
D03*
X74114Y52756D02*
D03*
X77658D02*
D03*
Y49016D02*
D03*
X74114D02*
D03*
X100492Y44685D02*
D03*
X104035D02*
D03*
X98327Y64272D02*
D03*
X101870D02*
D03*
X126673Y51181D02*
D03*
X123130D02*
D03*
X133320Y59500D02*
D03*
X136864D02*
D03*
X132776Y51279D02*
D03*
X136319D02*
D03*
X129035Y86614D02*
D03*
X125492D02*
D03*
X124213Y103347D02*
D03*
X127756D02*
D03*
X99506Y8995D02*
D03*
X95963D02*
D03*
X115945Y46161D02*
D03*
X112402D02*
D03*
Y42028D02*
D03*
X115945D02*
D03*
X124408Y9498D02*
D03*
X120865D02*
D03*
X139075Y35138D02*
D03*
X135531D02*
D03*
X128839Y20276D02*
D03*
X125295D02*
D03*
X128445Y37500D02*
D03*
X124902D02*
D03*
X110531Y37106D02*
D03*
X114075D02*
D03*
X128445Y33563D02*
D03*
X124902D02*
D03*
X40564Y81500D02*
D03*
X37020D02*
D03*
X120865Y5857D02*
D03*
X124408D02*
D03*
X89862Y67224D02*
D03*
X93405D02*
D03*
X89862Y70965D02*
D03*
X93405D02*
D03*
D16*
X8300Y30357D02*
D03*
Y33900D02*
D03*
X12000Y33884D02*
D03*
Y30341D02*
D03*
X93400Y187264D02*
D03*
Y183721D02*
D03*
X63300Y49821D02*
D03*
Y53364D02*
D03*
X31092Y181395D02*
D03*
Y184939D02*
D03*
X16100Y128879D02*
D03*
Y125336D02*
D03*
X66831Y120079D02*
D03*
Y123622D02*
D03*
X62205Y104331D02*
D03*
Y107874D02*
D03*
X64567Y92126D02*
D03*
Y95669D02*
D03*
X104800Y187279D02*
D03*
Y183736D02*
D03*
X131560Y129547D02*
D03*
Y126004D02*
D03*
X96063Y119093D02*
D03*
Y122636D02*
D03*
X84646Y119095D02*
D03*
Y122638D02*
D03*
X71268Y126173D02*
D03*
Y122630D02*
D03*
X80710Y101772D02*
D03*
Y105315D02*
D03*
X68799Y101870D02*
D03*
Y105413D02*
D03*
X76870Y101575D02*
D03*
Y98032D02*
D03*
X72638Y101575D02*
D03*
Y98032D02*
D03*
X135236Y93996D02*
D03*
Y97539D02*
D03*
X131496Y93996D02*
D03*
Y97539D02*
D03*
X29000Y22600D02*
D03*
Y26143D02*
D03*
X36600Y22600D02*
D03*
Y26143D02*
D03*
X32800Y22600D02*
D03*
Y26143D02*
D03*
X94291Y75492D02*
D03*
Y79035D02*
D03*
X90551Y75492D02*
D03*
Y79035D02*
D03*
X50591Y103150D02*
D03*
Y99606D02*
D03*
X48386Y59756D02*
D03*
Y56213D02*
D03*
X52126D02*
D03*
Y59756D02*
D03*
X70768Y49213D02*
D03*
Y52756D02*
D03*
X121850Y29528D02*
D03*
Y25984D02*
D03*
X118209Y29626D02*
D03*
Y26083D02*
D03*
X96949Y21161D02*
D03*
Y24705D02*
D03*
X93110Y31594D02*
D03*
Y28051D02*
D03*
X96949Y31594D02*
D03*
Y28051D02*
D03*
X67000Y52880D02*
D03*
Y49336D02*
D03*
D17*
X68898Y74114D02*
D03*
D18*
X79724Y60335D02*
D03*
X77756D02*
D03*
X75787D02*
D03*
X73819D02*
D03*
X71850D02*
D03*
X69882D02*
D03*
X67913D02*
D03*
X65945D02*
D03*
X63976D02*
D03*
X62008D02*
D03*
X60039D02*
D03*
X58071D02*
D03*
Y87894D02*
D03*
X60039D02*
D03*
X62008D02*
D03*
X63976D02*
D03*
X65945D02*
D03*
X67913D02*
D03*
X69882D02*
D03*
X71850D02*
D03*
X73819D02*
D03*
X75787D02*
D03*
X77756D02*
D03*
X79724D02*
D03*
D19*
X55118Y63287D02*
D03*
Y65256D02*
D03*
Y67224D02*
D03*
Y69193D02*
D03*
Y71161D02*
D03*
Y73130D02*
D03*
Y75098D02*
D03*
Y77067D02*
D03*
Y79035D02*
D03*
Y81004D02*
D03*
Y82973D02*
D03*
Y84941D02*
D03*
X82677D02*
D03*
Y82973D02*
D03*
Y81004D02*
D03*
Y79035D02*
D03*
Y77067D02*
D03*
Y75098D02*
D03*
Y73130D02*
D03*
Y71161D02*
D03*
Y69193D02*
D03*
Y67224D02*
D03*
Y65256D02*
D03*
Y63287D02*
D03*
D20*
X16226Y135517D02*
D03*
X131461Y135551D02*
D03*
D21*
X22131Y141717D02*
D03*
X10321D02*
D03*
X137367Y141752D02*
D03*
X125556D02*
D03*
D22*
X127657Y99705D02*
D03*
Y97736D02*
D03*
Y95768D02*
D03*
Y93799D02*
D03*
X121752D02*
D03*
Y95768D02*
D03*
Y97736D02*
D03*
Y99705D02*
D03*
D23*
X125689D02*
D03*
X123721D02*
D03*
X125689Y93799D02*
D03*
X123721D02*
D03*
D24*
X77286Y10900D02*
D03*
X63900D02*
D03*
D25*
X13976Y52618D02*
D03*
Y42618D02*
D03*
D26*
X89567Y92913D02*
D03*
X98228D02*
D03*
Y86221D02*
D03*
X89567D02*
D03*
X93701Y57677D02*
D03*
X102362D02*
D03*
Y50984D02*
D03*
X93701D02*
D03*
D27*
X124409Y73032D02*
D03*
D28*
X117520Y82677D02*
D03*
X119488D02*
D03*
X121457D02*
D03*
X123425D02*
D03*
X125394D02*
D03*
X127362D02*
D03*
X129331D02*
D03*
X131299D02*
D03*
Y63386D02*
D03*
X129331D02*
D03*
X127362D02*
D03*
X125394D02*
D03*
X123425D02*
D03*
X121457D02*
D03*
X119488D02*
D03*
X117520D02*
D03*
D29*
X134055Y79921D02*
D03*
Y77953D02*
D03*
Y75984D02*
D03*
Y74016D02*
D03*
Y72047D02*
D03*
Y70079D02*
D03*
Y68110D02*
D03*
Y66142D02*
D03*
X114764D02*
D03*
Y68110D02*
D03*
Y70079D02*
D03*
Y72047D02*
D03*
Y74016D02*
D03*
Y75984D02*
D03*
Y77953D02*
D03*
Y79921D02*
D03*
X102756Y30906D02*
D03*
Y28937D02*
D03*
Y26969D02*
D03*
Y25000D02*
D03*
X114173D02*
D03*
Y26969D02*
D03*
Y28937D02*
D03*
Y30906D02*
D03*
D30*
X78347Y117323D02*
D03*
Y114764D02*
D03*
Y112205D02*
D03*
X71260D02*
D03*
Y114764D02*
D03*
Y117323D02*
D03*
D31*
X99311Y71260D02*
D03*
Y78347D02*
D03*
D32*
X38189Y101083D02*
D03*
X45276D02*
D03*
D33*
X125098Y54528D02*
D03*
X123130D02*
D03*
X125098Y56496D02*
D03*
X123130D02*
D03*
X120784Y21886D02*
D03*
Y19917D02*
D03*
X118816Y21886D02*
D03*
Y19917D02*
D03*
D34*
X103345Y8995D02*
D03*
X106888D02*
D03*
D35*
X132600Y43600D02*
D03*
D36*
X25394Y49114D02*
D03*
Y47146D02*
D03*
Y45177D02*
D03*
Y43209D02*
D03*
Y41240D02*
D03*
X41339D02*
D03*
Y43209D02*
D03*
Y45177D02*
D03*
Y47146D02*
D03*
Y49114D02*
D03*
D37*
X29429Y37205D02*
D03*
X31398D02*
D03*
X33366D02*
D03*
X35335D02*
D03*
X37303D02*
D03*
Y53150D02*
D03*
X35335D02*
D03*
X33366D02*
D03*
X31398D02*
D03*
X29429D02*
D03*
D38*
X33366Y45177D02*
D03*
D39*
X17685Y184941D02*
D03*
X4299D02*
D03*
D40*
X116021Y187325D02*
D03*
X142595D02*
D03*
D41*
X108465Y27953D02*
D03*
D42*
X131004Y30512D02*
D03*
Y28937D02*
D03*
Y27362D02*
D03*
Y25787D02*
D03*
Y24213D02*
D03*
X139075D02*
D03*
Y25787D02*
D03*
Y27362D02*
D03*
Y28937D02*
D03*
Y30512D02*
D03*
D43*
X134252Y23327D02*
D03*
X135827D02*
D03*
Y31398D02*
D03*
X134252D02*
D03*
D44*
X51500Y116900D02*
D03*
X110600Y122700D02*
D03*
D45*
X55122Y113160D02*
D03*
Y116900D02*
D03*
Y120640D02*
D03*
X47878Y113160D02*
D03*
Y116900D02*
D03*
Y120640D02*
D03*
X106978Y126440D02*
D03*
Y122700D02*
D03*
Y118960D02*
D03*
X114222Y126440D02*
D03*
Y122700D02*
D03*
Y118960D02*
D03*
D46*
X30400Y71900D02*
D03*
Y73869D02*
D03*
Y75837D02*
D03*
Y77806D02*
D03*
X40600D02*
D03*
Y75837D02*
D03*
Y73869D02*
D03*
Y71900D02*
D03*
D47*
X35500Y74843D02*
D03*
D48*
X97699Y187300D02*
X97776Y187224D01*
D49*
X118306Y164687D02*
Y172500D01*
X143995Y164687D02*
Y167246D01*
X118306Y164687D02*
X143995D01*
Y167246D02*
X143995Y167246D01*
X16100Y135517D02*
X16226D01*
X17685Y184900D02*
Y184941D01*
X143995Y167246D02*
Y187325D01*
X13386Y53209D02*
X13976Y52618D01*
X13386Y53209D02*
Y56102D01*
X14272Y56988D01*
X71268Y122630D02*
X71269Y122629D01*
X75492D01*
X79035D02*
X84636D01*
X84646Y122638D01*
X88583D01*
X92126D02*
X96061D01*
X96063Y122636D01*
X100097D01*
X100098Y122638D01*
X103642D02*
X106916D01*
X106978Y122700D01*
X55151Y116929D02*
X57663D01*
X55122Y116900D02*
X55151Y116929D01*
X62221Y112992D02*
Y116915D01*
X62206Y116929D02*
X62221Y116915D01*
Y107890D02*
Y112992D01*
X62205Y107874D02*
X62221Y107890D01*
X62205Y99706D02*
Y104331D01*
X62203Y99705D02*
X62205Y99706D01*
X124902Y33563D02*
Y37500D01*
X124902Y37500D01*
X14272Y56988D02*
X23425D01*
D50*
X132441Y51614D02*
X132776Y51949D01*
X105400Y75900D02*
X107600D01*
X104536Y76764D02*
X105400Y75900D01*
X104536Y76764D02*
Y79500D01*
X108080D02*
X108280Y79300D01*
X109800D01*
X111147Y77953D01*
X114764D01*
X108957Y52264D02*
Y72244D01*
X110728Y74016D01*
X114764D01*
X133366Y20276D02*
X134252Y21161D01*
X128839Y20276D02*
X133366D01*
X120276Y55216D02*
X121555Y56496D01*
X134252Y21161D02*
Y23327D01*
X136122Y75984D02*
X137402Y74705D01*
X134055Y75984D02*
X136122D01*
X134843Y56693D02*
X140200D01*
X115800Y93600D02*
Y95900D01*
Y93600D02*
X116400Y93000D01*
X120953D01*
X121752Y93799D01*
X134055Y77953D02*
X136713D01*
X137598Y77067D01*
X121457Y61221D02*
Y63386D01*
X119488Y61221D02*
Y63386D01*
X118996Y60728D02*
X119488Y61221D01*
X55118Y84941D02*
Y87205D01*
X114764Y66142D02*
Y68110D01*
Y70079D01*
Y72047D01*
X104035Y44685D02*
Y49311D01*
X121555Y56496D02*
X123130D01*
X125394Y82677D02*
X125394Y82677D01*
Y86516D01*
X125492Y86614D01*
X125098Y54528D02*
X125630Y53996D01*
X117520Y82677D02*
Y85335D01*
X125394Y59744D02*
Y63386D01*
X125630Y53996D02*
X130157D01*
X132441Y51713D01*
Y51614D02*
Y51713D01*
Y51614D02*
X132776Y51279D01*
X132776Y51949D02*
Y55709D01*
X133366Y58169D02*
X134843Y56693D01*
X133366Y58169D02*
Y59449D01*
Y59744D01*
X132776Y51279D02*
Y51772D01*
X135335Y54331D01*
X114764Y63976D02*
Y66142D01*
X122539Y86614D02*
X125492D01*
X122047Y86122D02*
X122539Y86614D01*
X112697Y79921D02*
X114764D01*
X107677Y50984D02*
X108957Y52264D01*
X102362Y50984D02*
X107677D01*
X134252Y23327D02*
Y24705D01*
X126969Y24213D02*
X131004D01*
Y30512D02*
X132185D01*
X131004D02*
Y32677D01*
Y27362D02*
X132283D01*
X133110Y28189D02*
Y29587D01*
X132185Y30512D02*
X133110Y29587D01*
X132283Y27362D02*
X133110Y28189D01*
X121850Y29528D02*
Y31988D01*
X121752Y29626D02*
X121850Y29528D01*
X118209Y29626D02*
X121752D01*
X118209Y26083D02*
X121752D01*
X113484Y21949D02*
X114173Y22638D01*
Y25000D01*
Y28937D02*
X115945D01*
X114173Y26969D02*
X115945D01*
Y28937D02*
X116634Y29626D01*
X115945Y26969D02*
X116634Y26280D01*
X114075Y31004D02*
X114173Y30906D01*
X96949Y24705D02*
X98524D01*
X98917Y28051D02*
X99803Y28937D01*
X96949Y28051D02*
X98917D01*
X99409Y31594D02*
X100098Y30906D01*
X96949Y31594D02*
X96949Y31594D01*
X130118Y33563D02*
X131004Y32677D01*
Y25787D02*
X133169D01*
X128445Y33563D02*
X130118D01*
X121850Y25984D02*
X125197D01*
X121752Y26083D02*
X121850Y25984D01*
X114075Y31004D02*
Y37106D01*
X102756Y33268D02*
X102854Y33366D01*
X102756Y30906D02*
Y33268D01*
X98524Y24705D02*
X100787Y26969D01*
X116634Y29626D02*
X118209D01*
X116634Y26280D02*
X118012D01*
X118209Y26083D01*
X99803Y28937D02*
X102756D01*
X100098Y30906D02*
X102756D01*
X100787Y26969D02*
X102756D01*
X133169Y25787D02*
X134252Y24705D01*
X125197Y25984D02*
X126969Y24213D01*
X114075Y37106D02*
X117323D01*
X117323Y37106D01*
X93230Y24726D02*
X93252Y24705D01*
X96949D01*
X93110Y28051D02*
X96949D01*
X96949Y31594D02*
X99409D01*
X93110Y31594D02*
X96949D01*
X71850Y57776D02*
Y60335D01*
X121063Y32776D02*
X121850Y31988D01*
X54921Y87402D02*
X55118Y87205D01*
X91351Y28051D02*
X93110D01*
X90900Y27600D02*
X91351Y28051D01*
X127063Y28937D02*
X131004D01*
X90900Y27600D02*
X91000Y27500D01*
Y18400D02*
Y27500D01*
X120784Y21886D02*
X122019D01*
X122800Y21105D01*
Y18900D02*
Y21105D01*
X127362Y60838D02*
Y63386D01*
X125394Y59744D02*
X126838Y58300D01*
X130184D01*
X132776Y55709D01*
X127362Y60838D02*
X128200Y60000D01*
X132815D01*
X133366Y59449D01*
X109055Y83563D02*
X112697Y79921D01*
X115551Y87303D02*
X117520Y85335D01*
D51*
X12000Y28800D02*
X12800Y28000D01*
X12000Y28800D02*
Y30341D01*
X83836Y114764D02*
X83900Y114700D01*
X78347Y114764D02*
X83836D01*
X58655Y99700D02*
X58660Y99705D01*
X52801Y69193D02*
X55118D01*
X50295Y68110D02*
X50827Y68642D01*
X136700Y25400D02*
X137795Y24213D01*
X138091Y20177D02*
X140354D01*
X140550Y32383D02*
X141142Y31791D01*
Y27854D02*
Y31791D01*
X56457Y89114D02*
X57677Y87894D01*
X53504Y89114D02*
X56457D01*
X140650Y27362D02*
X141142Y27854D01*
X139076Y67876D02*
X139400Y68200D01*
X136179Y67876D02*
X139076D01*
X141102Y20925D02*
Y25335D01*
X140354Y20177D02*
X141102Y20925D01*
X140650Y25787D02*
X141102Y25335D01*
X139075Y25787D02*
X140650D01*
X139075Y27362D02*
X140650D01*
X82677Y73130D02*
X84842D01*
X85138Y73425D01*
X57677Y87894D02*
X58071D01*
X52756Y89862D02*
X53504Y89114D01*
X134055Y66142D02*
X137458D01*
X135944Y68110D02*
X136179Y67876D01*
X134055Y68110D02*
X135944D01*
X44800Y35400D02*
X80500D01*
X45000Y32800D02*
X81200D01*
X82200Y33800D01*
X45200Y30000D02*
X82000D01*
X84700Y32700D01*
X80500Y35400D02*
X82100Y37000D01*
X56805Y99705D02*
X58660D01*
X56800Y99700D02*
X56805Y99705D01*
X34900Y81100D02*
X35000Y81200D01*
X28300Y71900D02*
X30400D01*
X50827Y68642D02*
X52250D01*
X52801Y69193D01*
X30400Y73869D02*
X31969D01*
X32500Y74400D01*
Y78600D01*
X33034Y79134D01*
X40566D01*
X40600Y79100D01*
X27500Y71100D02*
X28300Y71900D01*
X35000Y81200D02*
X37020D01*
D52*
X8366Y63878D02*
Y67666D01*
X17100Y68700D02*
X18300Y67500D01*
Y63400D02*
Y67500D01*
X54600Y46500D02*
X58815D01*
X45500Y55600D02*
X54600Y46500D01*
X40106Y55600D02*
X45500D01*
X9400Y68700D02*
X17100D01*
X8366Y67666D02*
X9400Y68700D01*
X83200Y41200D02*
Y42000D01*
X81500Y43700D02*
X83200Y42000D01*
X58815Y46500D02*
X61615Y43700D01*
X36743Y58963D02*
X40106Y55600D01*
X18300Y63400D02*
X22737Y58963D01*
X36743D01*
X61615Y43700D02*
X81500D01*
D53*
X133573Y64173D02*
X139873D01*
X132786Y63386D02*
X133573Y64173D01*
X139873D02*
X140800Y65100D01*
X131299Y63386D02*
X132786D01*
D54*
X106800Y126618D02*
X106978Y126440D01*
X106800Y126618D02*
Y128300D01*
X75787Y57579D02*
Y60335D01*
X75787Y57579D02*
X75787Y57579D01*
X77756Y57776D02*
Y60335D01*
Y57776D02*
X78445Y57087D01*
X55000Y110700D02*
Y113038D01*
X55122Y113160D01*
Y120640D02*
Y123122D01*
X55300Y123300D01*
X79724Y87894D02*
Y88563D01*
X82100Y90939D01*
Y92400D01*
X77756Y87894D02*
Y89156D01*
X76870Y104170D02*
X77000Y104300D01*
X77756Y89156D02*
X79700Y91100D01*
D55*
X65256Y110039D02*
Y112303D01*
Y101969D02*
Y110039D01*
Y99311D02*
Y101969D01*
X63300Y49821D02*
X63316Y49836D01*
X116400Y23700D02*
X118200D01*
X118816Y23084D01*
Y21886D02*
Y23084D01*
X60500Y10900D02*
X63900D01*
X59600Y11800D02*
X60500Y10900D01*
X59600Y11800D02*
Y18800D01*
X63316Y49836D02*
X67000D01*
D56*
X65354Y99030D02*
X66845Y97539D01*
X68701D01*
X69193Y97047D01*
X68258Y91831D02*
X70472D01*
X65354Y99030D02*
Y99311D01*
X69193Y91929D02*
Y97047D01*
D57*
X25394Y43209D02*
X26181D01*
X22638D02*
X25394D01*
X22244Y42815D02*
X22638Y43209D01*
D58*
X99311Y71260D02*
X99311Y71260D01*
X99311Y68209D02*
Y71260D01*
D59*
X118276Y172484D02*
D03*
D60*
X143503Y164687D02*
D03*
X118799D02*
D03*
D61*
X85630Y106201D02*
D03*
D62*
X84889Y114236D02*
D03*
D63*
X25250Y53250D02*
D03*
D64*
X23500Y50900D02*
D03*
D65*
X16000Y125100D02*
D03*
X16100Y129200D02*
D03*
X131600Y125700D02*
D03*
Y130000D02*
D03*
D66*
X23700Y184900D02*
D03*
X47700Y113200D02*
D03*
X114500Y119000D02*
D03*
X101500Y187200D02*
D03*
D67*
X47850Y120800D02*
D03*
D68*
X33650Y181350D02*
D03*
Y188450D02*
D03*
D69*
X20405Y126777D02*
D03*
D70*
X12088Y126745D02*
D03*
D71*
X62175Y122600D02*
D03*
D72*
X99077Y190839D02*
D03*
D73*
X99000Y182817D02*
D03*
D74*
X127814Y126865D02*
D03*
D75*
X135225Y126890D02*
D03*
D76*
X93739Y118636D02*
D03*
D77*
X87589Y109886D02*
D03*
D78*
X89900Y96150D02*
D03*
D79*
X102350Y86500D02*
D03*
D80*
X57350Y99800D02*
D03*
D81*
X47098Y95700D02*
D03*
D82*
X44250Y105800D02*
D03*
D83*
X49089Y107654D02*
D03*
D84*
X51589Y121195D02*
D03*
D85*
X58073Y109977D02*
D03*
D86*
X58079Y108417D02*
D03*
D87*
X55300Y108090D02*
D03*
D88*
X15700Y13100D02*
D03*
X27300Y12400D02*
D03*
X26500Y8300D02*
D03*
X20401Y82477D02*
D03*
X8366Y63878D02*
D03*
X18996Y74705D02*
D03*
X49400Y65500D02*
D03*
X71850Y57874D02*
D03*
X75984Y56988D02*
D03*
X63484Y56299D02*
D03*
X61713Y57874D02*
D03*
X78740Y56890D02*
D03*
X81299Y57382D02*
D03*
X81791Y52756D02*
D03*
X69291Y57874D02*
D03*
X107600Y75900D02*
D03*
X87996Y75102D02*
D03*
X51575Y83169D02*
D03*
X135138Y19094D02*
D03*
X138091Y20177D02*
D03*
X120472Y45669D02*
D03*
X122638Y59350D02*
D03*
X120276Y55216D02*
D03*
X114665Y63878D02*
D03*
X118898Y59941D02*
D03*
X52658Y90256D02*
D03*
X54921Y87008D02*
D03*
X127300Y11700D02*
D03*
X115748Y86811D02*
D03*
X119390Y95669D02*
D03*
X115860Y95943D02*
D03*
X140000Y56800D02*
D03*
X135531Y54527D02*
D03*
X118960Y101443D02*
D03*
X127300Y56400D02*
D03*
X83000Y40600D02*
D03*
X53200Y53300D02*
D03*
X50100Y53700D02*
D03*
X55534Y61044D02*
D03*
X55900Y48700D02*
D03*
X56300Y58100D02*
D03*
X77000Y104300D02*
D03*
X73600Y104400D02*
D03*
X137992Y77362D02*
D03*
X137697Y74213D02*
D03*
X115945Y90059D02*
D03*
X139370Y95768D02*
D03*
X136614Y100886D02*
D03*
X121260Y103543D02*
D03*
X133071Y101673D02*
D03*
X119390Y98032D02*
D03*
X126673Y90945D02*
D03*
X133465Y38189D02*
D03*
X138484Y38287D02*
D03*
X22244Y42815D02*
D03*
X15157Y33661D02*
D03*
X11417Y43799D02*
D03*
Y41535D02*
D03*
X104921Y86221D02*
D03*
X92300Y96900D02*
D03*
X81890Y49016D02*
D03*
X70768Y46063D02*
D03*
X63287D02*
D03*
X45669Y95965D02*
D03*
X32087Y100197D02*
D03*
X129626Y51181D02*
D03*
X132283Y86417D02*
D03*
X109153Y83563D02*
D03*
X122047Y86122D02*
D03*
X125492Y17126D02*
D03*
X122244Y35335D02*
D03*
X107382Y36319D02*
D03*
X121063Y32579D02*
D03*
X113287Y21949D02*
D03*
X102854Y33366D02*
D03*
X117518Y9105D02*
D03*
X109449Y42028D02*
D03*
X109742Y8995D02*
D03*
X136417Y48031D02*
D03*
X97539Y44587D02*
D03*
X117518Y5857D02*
D03*
X117323Y37106D02*
D03*
X98228Y18110D02*
D03*
X93010Y8897D02*
D03*
X93252Y24705D02*
D03*
X99311Y68209D02*
D03*
X79100Y91000D02*
D03*
X82100Y92400D02*
D03*
X47700Y38300D02*
D03*
X23300Y22400D02*
D03*
X36700Y29800D02*
D03*
X33300Y29700D02*
D03*
X29000Y29800D02*
D03*
X44800Y35400D02*
D03*
X45000Y32800D02*
D03*
X45200Y30000D02*
D03*
X82100Y36800D02*
D03*
X82200Y33800D02*
D03*
X84700Y32700D02*
D03*
X54675Y96269D02*
D03*
X43371Y81215D02*
D03*
X34569Y81365D02*
D03*
X27769Y71265D02*
D03*
X74884Y45899D02*
D03*
D89*
X52067Y75098D02*
D03*
X51300Y63400D02*
D03*
X52800Y65400D02*
D03*
X86828Y54267D02*
D03*
X84400Y94400D02*
D03*
X83900Y97100D02*
D03*
X61600Y95100D02*
D03*
X58600Y96800D02*
D03*
X58100Y102900D02*
D03*
X58200Y105700D02*
D03*
X83900Y100300D02*
D03*
X58150Y108421D02*
D03*
X51550Y109121D02*
D03*
X84000Y106600D02*
D03*
X83900Y110172D02*
D03*
Y114700D02*
D03*
X48100Y108900D02*
D03*
X88760Y127081D02*
D03*
X93287D02*
D03*
X75177D02*
D03*
X79705D02*
D03*
X84232D02*
D03*
X97815D02*
D03*
X102343D02*
D03*
X103080Y118200D02*
D03*
X98880Y118300D02*
D03*
X96080Y116700D02*
D03*
X92728Y118700D02*
D03*
X88200D02*
D03*
X86400Y116700D02*
D03*
X49795Y68110D02*
D03*
X86417Y61221D02*
D03*
X85532Y67323D02*
D03*
X86815Y69393D02*
D03*
X87500Y71850D02*
D03*
X85335Y73425D02*
D03*
X85433Y77067D02*
D03*
X55216Y90847D02*
D03*
X57480Y92323D02*
D03*
X72933Y77756D02*
D03*
X68996D02*
D03*
Y73819D02*
D03*
X72933D02*
D03*
Y69882D02*
D03*
X68996D02*
D03*
X65059D02*
D03*
Y73819D02*
D03*
Y77756D02*
D03*
Y81693D02*
D03*
X68996D02*
D03*
X72933D02*
D03*
X76870D02*
D03*
Y77756D02*
D03*
Y73819D02*
D03*
Y69882D02*
D03*
Y65945D02*
D03*
X72933D02*
D03*
X68996D02*
D03*
X65059D02*
D03*
X61122Y81693D02*
D03*
Y73819D02*
D03*
Y69882D02*
D03*
Y77756D02*
D03*
X136909Y62106D02*
D03*
X66800Y126200D02*
D03*
X71022Y128421D02*
D03*
X44600Y117300D02*
D03*
X20178Y129524D02*
D03*
Y125424D02*
D03*
X11700Y127900D02*
D03*
X11805Y123440D02*
D03*
X12495Y118965D02*
D03*
X14542Y114927D02*
D03*
X17743Y111725D02*
D03*
X21780Y109675D02*
D03*
X26253Y108975D02*
D03*
X30780Y108977D02*
D03*
X35308D02*
D03*
X39836D02*
D03*
X44363D02*
D03*
X42035Y117342D02*
D03*
X37507D02*
D03*
X32980D02*
D03*
X28452D02*
D03*
X23946Y117778D02*
D03*
X20691Y120925D02*
D03*
X127200Y129800D02*
D03*
X135878Y129824D02*
D03*
X127300Y126000D02*
D03*
X125945Y123142D02*
D03*
X121417D02*
D03*
X111954Y115078D02*
D03*
X116472Y114777D02*
D03*
X121000D02*
D03*
X125527D02*
D03*
X130045Y115078D02*
D03*
X133976Y117324D02*
D03*
X135733Y121496D02*
D03*
X135778Y126024D02*
D03*
X117100Y53400D02*
D03*
X115900Y19000D02*
D03*
X67028Y85335D02*
D03*
X69587Y85335D02*
D03*
X72244Y85335D02*
D03*
X83071Y87992D02*
D03*
X90551Y73524D02*
D03*
X94291Y73425D02*
D03*
X95472Y64272D02*
D03*
X96358Y67224D02*
D03*
X103937Y39272D02*
D03*
X88090Y58957D02*
D03*
X61122Y65945D02*
D03*
X127600Y48700D02*
D03*
X21700Y50500D02*
D03*
X24500Y50700D02*
D03*
X100845Y190629D02*
D03*
X98674Y183022D02*
D03*
X89657Y182493D02*
D03*
X87982Y178287D02*
D03*
Y173759D02*
D03*
Y169231D02*
D03*
Y164704D02*
D03*
Y160176D02*
D03*
Y155649D02*
D03*
X88714Y151181D02*
D03*
X92196Y148287D02*
D03*
X96714Y147983D02*
D03*
X101241D02*
D03*
X105768Y147940D02*
D03*
X110179Y146917D02*
D03*
X114000Y144489D02*
D03*
X116801Y140931D02*
D03*
X118235Y136637D02*
D03*
X118404Y132112D02*
D03*
X118378Y127585D02*
D03*
X110040Y131237D02*
D03*
X109879Y135761D02*
D03*
X106954Y139217D02*
D03*
X102444Y139618D02*
D03*
X97917D02*
D03*
X93389Y139644D02*
D03*
X88953Y140548D02*
D03*
X85018Y142788D02*
D03*
X81975Y146140D02*
D03*
X80127Y150274D02*
D03*
X79618Y154772D02*
D03*
Y159300D02*
D03*
Y163827D02*
D03*
Y168355D02*
D03*
Y172882D02*
D03*
Y177410D02*
D03*
X79881Y181930D02*
D03*
X81648Y186099D02*
D03*
X84814Y189335D02*
D03*
X88954Y191169D02*
D03*
X42445Y189073D02*
D03*
X46829Y187942D02*
D03*
X50253Y184979D02*
D03*
X51941Y180778D02*
D03*
X52060Y176252D02*
D03*
Y171724D02*
D03*
Y167197D02*
D03*
Y162669D02*
D03*
Y158142D02*
D03*
Y153614D02*
D03*
Y149087D02*
D03*
Y144559D02*
D03*
Y140032D02*
D03*
Y135504D02*
D03*
Y130976D02*
D03*
Y126449D02*
D03*
X43622Y119521D02*
D03*
X43696Y124048D02*
D03*
Y128576D02*
D03*
Y133103D02*
D03*
Y137631D02*
D03*
Y142158D02*
D03*
Y146686D02*
D03*
Y151213D02*
D03*
Y155741D02*
D03*
Y160268D02*
D03*
Y164796D02*
D03*
Y169324D02*
D03*
Y173851D02*
D03*
Y178379D02*
D03*
X39819Y180718D02*
D03*
X35354Y181471D02*
D03*
X37500Y189078D02*
D03*
X56800Y21900D02*
D03*
X56741Y18841D02*
D03*
X59541Y21841D02*
D03*
X59600Y18800D02*
D03*
X62441Y21841D02*
D03*
X116400Y23700D02*
D03*
X122800Y18900D02*
D03*
X85900Y39600D02*
D03*
X32000Y68400D02*
D03*
X51476Y70374D02*
D03*
X51575Y72736D02*
D03*
D90*
X13000Y27945D02*
D03*
X4000Y103700D02*
D03*
X133400Y113500D02*
D03*
X133000Y111200D02*
D03*
X133400Y108800D02*
D03*
X134300Y106800D02*
D03*
X136000Y105100D02*
D03*
X138100Y103800D02*
D03*
X140600Y103500D02*
D03*
X6600Y103700D02*
D03*
X9100Y104000D02*
D03*
X11200Y105300D02*
D03*
X12900Y107000D02*
D03*
X13800Y109000D02*
D03*
X14200Y111400D02*
D03*
X136700Y25400D02*
D03*
X131606Y2900D02*
D03*
X127079D02*
D03*
X122551D02*
D03*
X131334Y1100D02*
D03*
X126806D02*
D03*
X122279D02*
D03*
X95113D02*
D03*
X99641D02*
D03*
X104168D02*
D03*
X108696D02*
D03*
X113224D02*
D03*
X117751D02*
D03*
X95386Y2900D02*
D03*
X99913D02*
D03*
X104441D02*
D03*
X108968D02*
D03*
X113496D02*
D03*
X118024D02*
D03*
X67948Y1100D02*
D03*
X72476D02*
D03*
X77003D02*
D03*
X81531D02*
D03*
X86058D02*
D03*
X90586D02*
D03*
X68221Y2900D02*
D03*
X72748D02*
D03*
X77276D02*
D03*
X90858D02*
D03*
X40783Y1100D02*
D03*
X45310D02*
D03*
X49838D02*
D03*
X54365D02*
D03*
X58893D02*
D03*
X63420D02*
D03*
X41055Y2900D02*
D03*
X54638D02*
D03*
X59165D02*
D03*
X63693D02*
D03*
X106500Y166583D02*
D03*
X36528Y2900D02*
D03*
X32000D02*
D03*
X27472D02*
D03*
X22945D02*
D03*
X18417D02*
D03*
X13890D02*
D03*
X36255Y1100D02*
D03*
X31728D02*
D03*
X27200D02*
D03*
X22672D02*
D03*
X18145D02*
D03*
X13617D02*
D03*
X106500Y180165D02*
D03*
Y175638D02*
D03*
Y171110D02*
D03*
Y162055D02*
D03*
Y157528D02*
D03*
Y153000D02*
D03*
X107000Y150700D02*
D03*
X109400Y150200D02*
D03*
X112300Y150100D02*
D03*
X116235Y150200D02*
D03*
X120762D02*
D03*
X125290D02*
D03*
X129817D02*
D03*
X134345D02*
D03*
X138872D02*
D03*
X143800Y131062D02*
D03*
Y126535D02*
D03*
Y122007D02*
D03*
Y117480D02*
D03*
X146100Y130790D02*
D03*
Y126262D02*
D03*
Y121735D02*
D03*
Y117207D02*
D03*
Y135317D02*
D03*
Y139845D02*
D03*
Y144372D02*
D03*
Y148900D02*
D03*
X143800Y135590D02*
D03*
Y140117D02*
D03*
Y144645D02*
D03*
X143400Y150200D02*
D03*
X106600Y193000D02*
D03*
X103600D02*
D03*
X99941D02*
D03*
X95413D02*
D03*
X90886D02*
D03*
X86358D02*
D03*
X81831D02*
D03*
X77303D02*
D03*
X72776D02*
D03*
X68248D02*
D03*
X63721D02*
D03*
X59193D02*
D03*
X50138D02*
D03*
X54665D02*
D03*
X45610D02*
D03*
X36555D02*
D03*
X41083D02*
D03*
X32028D02*
D03*
X27500D02*
D03*
X27300Y179755D02*
D03*
Y175228D02*
D03*
X27500Y190000D02*
D03*
X27300Y170700D02*
D03*
X26628Y168260D02*
D03*
X24238Y167210D02*
D03*
X19710D02*
D03*
X15183D02*
D03*
X10655D02*
D03*
X6128D02*
D03*
X1600D02*
D03*
Y162683D02*
D03*
Y158155D02*
D03*
Y153628D02*
D03*
Y149100D02*
D03*
Y144572D02*
D03*
Y140045D02*
D03*
Y135517D02*
D03*
Y130990D02*
D03*
Y126462D02*
D03*
Y121935D02*
D03*
Y117407D02*
D03*
X3900Y162410D02*
D03*
Y157883D02*
D03*
Y153355D02*
D03*
Y148828D02*
D03*
Y144300D02*
D03*
Y139772D02*
D03*
Y135245D02*
D03*
Y130717D02*
D03*
Y126190D02*
D03*
Y121662D02*
D03*
Y117135D02*
D03*
X144000Y13400D02*
D03*
X144100Y104600D02*
D03*
X144000Y101821D02*
D03*
Y97293D02*
D03*
Y92765D02*
D03*
Y88238D02*
D03*
Y83710D02*
D03*
Y79183D02*
D03*
Y74655D02*
D03*
Y70128D02*
D03*
Y65600D02*
D03*
Y61072D02*
D03*
Y56545D02*
D03*
Y52017D02*
D03*
Y47490D02*
D03*
Y42962D02*
D03*
Y38435D02*
D03*
Y33907D02*
D03*
Y29379D02*
D03*
Y24852D02*
D03*
Y20324D02*
D03*
Y15797D02*
D03*
X146100Y11500D02*
D03*
X146200Y105300D02*
D03*
Y100772D02*
D03*
Y96245D02*
D03*
Y91717D02*
D03*
Y87190D02*
D03*
Y82662D02*
D03*
Y78135D02*
D03*
Y73607D02*
D03*
Y69080D02*
D03*
Y64552D02*
D03*
Y60024D02*
D03*
Y55497D02*
D03*
Y50969D02*
D03*
Y46442D02*
D03*
Y41914D02*
D03*
Y37387D02*
D03*
Y32859D02*
D03*
Y28332D02*
D03*
Y23804D02*
D03*
Y19276D02*
D03*
Y14749D02*
D03*
X4100Y14400D02*
D03*
X4000Y99072D02*
D03*
Y94545D02*
D03*
Y90017D02*
D03*
Y85490D02*
D03*
Y80962D02*
D03*
Y76435D02*
D03*
Y71907D02*
D03*
Y67379D02*
D03*
Y62852D02*
D03*
Y58324D02*
D03*
Y53797D02*
D03*
Y49269D02*
D03*
Y44742D02*
D03*
Y40214D02*
D03*
Y35687D02*
D03*
Y31159D02*
D03*
Y26632D02*
D03*
Y22104D02*
D03*
Y17576D02*
D03*
X1400Y13462D02*
D03*
Y104013D02*
D03*
Y99486D02*
D03*
Y94958D02*
D03*
Y90431D02*
D03*
Y85903D02*
D03*
Y81376D02*
D03*
Y76848D02*
D03*
Y72320D02*
D03*
Y67793D02*
D03*
Y63265D02*
D03*
Y58738D02*
D03*
Y54210D02*
D03*
Y49683D02*
D03*
Y45155D02*
D03*
Y40628D02*
D03*
Y36100D02*
D03*
Y31572D02*
D03*
Y27045D02*
D03*
Y22517D02*
D03*
Y17990D02*
D03*
X51356Y116839D02*
D03*
X65256Y110039D02*
D03*
Y101969D02*
D03*
X67913Y115945D02*
D03*
X65256Y99311D02*
D03*
X69291Y94193D02*
D03*
X68258Y91831D02*
D03*
X70472D02*
D03*
X105200Y114600D02*
D03*
X106800Y128300D02*
D03*
X116500Y122300D02*
D03*
X55000Y110700D02*
D03*
X55300Y123300D02*
D03*
X56800Y99700D02*
D03*
D91*
X140550Y32383D02*
D03*
X139400Y68200D02*
D03*
X138100Y65900D02*
D03*
X137100Y70100D02*
D03*
X138800Y71800D02*
D03*
X140800Y65100D02*
D03*
X14075Y152166D02*
D03*
X11811Y156693D02*
D03*
X18603Y152166D02*
D03*
X16339Y156693D02*
D03*
X23130Y152166D02*
D03*
X20866Y156693D02*
D03*
X27658Y125000D02*
D03*
Y152166D02*
D03*
X25394Y156693D02*
D03*
X27658Y161221D02*
D03*
X32185Y125000D02*
D03*
X29921Y129528D02*
D03*
X32185Y134055D02*
D03*
X29921Y138583D02*
D03*
X32185Y143111D02*
D03*
X29921Y147638D02*
D03*
X32185Y152166D02*
D03*
X29921Y156693D02*
D03*
X32185Y161221D02*
D03*
X36713Y125000D02*
D03*
X34449Y129528D02*
D03*
X36713Y134055D02*
D03*
X34449Y138583D02*
D03*
X36713Y143111D02*
D03*
X34449Y147638D02*
D03*
X36713Y152166D02*
D03*
X34449Y156693D02*
D03*
X36713Y161221D02*
D03*
X34449Y165748D02*
D03*
X36713Y170276D02*
D03*
X34449Y174803D02*
D03*
X59351Y125000D02*
D03*
Y134055D02*
D03*
Y143111D02*
D03*
Y152166D02*
D03*
Y161221D02*
D03*
Y170276D02*
D03*
Y179331D02*
D03*
X63878Y134055D02*
D03*
X61614Y138583D02*
D03*
X63878Y143111D02*
D03*
X61614Y147638D02*
D03*
X63878Y152166D02*
D03*
X61614Y156693D02*
D03*
X63878Y161221D02*
D03*
X61614Y165748D02*
D03*
X63878Y170276D02*
D03*
X61614Y174803D02*
D03*
X63878Y179331D02*
D03*
X61614Y183859D02*
D03*
X66142Y138583D02*
D03*
X68406Y143111D02*
D03*
X66142Y147638D02*
D03*
X68406Y152166D02*
D03*
X66142Y156693D02*
D03*
X68406Y161221D02*
D03*
X66142Y165748D02*
D03*
X68406Y170276D02*
D03*
X66142Y174803D02*
D03*
X68406Y179331D02*
D03*
X66142Y183859D02*
D03*
X70670Y138583D02*
D03*
X72933Y143111D02*
D03*
X70670Y147638D02*
D03*
X72933Y152166D02*
D03*
X70670Y156693D02*
D03*
X72933Y161221D02*
D03*
X70670Y165748D02*
D03*
X72933Y170276D02*
D03*
X70670Y174803D02*
D03*
X72933Y179331D02*
D03*
X70670Y183859D02*
D03*
X77461Y134055D02*
D03*
X75197Y138583D02*
D03*
X81988Y134055D02*
D03*
X79725Y138583D02*
D03*
X86516Y134055D02*
D03*
X95571Y161221D02*
D03*
Y170276D02*
D03*
X97835Y156693D02*
D03*
X100099Y161221D02*
D03*
X97835Y165748D02*
D03*
X100099Y170276D02*
D03*
X97835Y174803D02*
D03*
X11811Y20866D02*
D03*
X14075Y61614D02*
D03*
X11811Y66142D02*
D03*
Y75197D02*
D03*
Y84252D02*
D03*
X14075Y97835D02*
D03*
Y152166D02*
D03*
X11811Y156693D02*
D03*
X18603Y16339D02*
D03*
X16339Y20866D02*
D03*
X18603Y152166D02*
D03*
X16339Y156693D02*
D03*
X23130Y16339D02*
D03*
X20866Y20866D02*
D03*
X23130Y97835D02*
D03*
X20866Y102362D02*
D03*
X23130Y152166D02*
D03*
X20866Y156693D02*
D03*
X27658Y16339D02*
D03*
X25394Y29921D02*
D03*
X27658Y88780D02*
D03*
X25394Y93307D02*
D03*
X27658Y97835D02*
D03*
X25394Y102362D02*
D03*
X27658Y125000D02*
D03*
Y152166D02*
D03*
X25394Y156693D02*
D03*
X27658Y161221D02*
D03*
X32185Y16339D02*
D03*
Y88780D02*
D03*
X29921Y93307D02*
D03*
Y102362D02*
D03*
X32185Y125000D02*
D03*
X29921Y129528D02*
D03*
X32185Y134055D02*
D03*
X29921Y138583D02*
D03*
X32185Y143111D02*
D03*
X29921Y147638D02*
D03*
X32185Y152166D02*
D03*
X29921Y156693D02*
D03*
X32185Y161221D02*
D03*
X36713Y16339D02*
D03*
X34449Y93307D02*
D03*
X36713Y125000D02*
D03*
X34449Y129528D02*
D03*
X36713Y134055D02*
D03*
X34449Y138583D02*
D03*
X36713Y143111D02*
D03*
X34449Y147638D02*
D03*
X36713Y152166D02*
D03*
X34449Y156693D02*
D03*
X36713Y161221D02*
D03*
X34449Y165748D02*
D03*
X36713Y170276D02*
D03*
X34449Y174803D02*
D03*
X38977Y11811D02*
D03*
X41240Y16339D02*
D03*
Y25394D02*
D03*
X38977Y93307D02*
D03*
X43504Y11811D02*
D03*
X45768Y16339D02*
D03*
X43504Y20866D02*
D03*
X45768Y25394D02*
D03*
X48032Y11811D02*
D03*
X50296Y16339D02*
D03*
X48032Y20866D02*
D03*
X50296Y25394D02*
D03*
Y88780D02*
D03*
X52559Y11811D02*
D03*
X57087Y38977D02*
D03*
X59351Y125000D02*
D03*
Y134055D02*
D03*
Y143111D02*
D03*
Y152166D02*
D03*
Y161221D02*
D03*
Y170276D02*
D03*
Y179331D02*
D03*
X61614Y38977D02*
D03*
X63878Y134055D02*
D03*
X61614Y138583D02*
D03*
X63878Y143111D02*
D03*
X61614Y147638D02*
D03*
X63878Y152166D02*
D03*
X61614Y156693D02*
D03*
X63878Y161221D02*
D03*
X61614Y165748D02*
D03*
X63878Y170276D02*
D03*
X61614Y174803D02*
D03*
X63878Y179331D02*
D03*
X61614Y183859D02*
D03*
X68406Y25394D02*
D03*
X66142Y38977D02*
D03*
Y138583D02*
D03*
X68406Y143111D02*
D03*
X66142Y147638D02*
D03*
X68406Y152166D02*
D03*
X66142Y156693D02*
D03*
X68406Y161221D02*
D03*
X66142Y165748D02*
D03*
X68406Y170276D02*
D03*
X66142Y174803D02*
D03*
X68406Y179331D02*
D03*
X66142Y183859D02*
D03*
X72933Y16339D02*
D03*
X70670Y20866D02*
D03*
X72933Y25394D02*
D03*
X70670Y38977D02*
D03*
Y138583D02*
D03*
X72933Y143111D02*
D03*
X70670Y147638D02*
D03*
X72933Y152166D02*
D03*
X70670Y156693D02*
D03*
X72933Y161221D02*
D03*
X70670Y165748D02*
D03*
X72933Y170276D02*
D03*
X70670Y174803D02*
D03*
X72933Y179331D02*
D03*
X70670Y183859D02*
D03*
X77461Y16339D02*
D03*
X75197Y20866D02*
D03*
X77461Y25394D02*
D03*
X75197Y38977D02*
D03*
X77461Y134055D02*
D03*
X75197Y138583D02*
D03*
X81988Y7284D02*
D03*
X79725Y20866D02*
D03*
X81988Y25394D02*
D03*
X79725Y38977D02*
D03*
X81988Y134055D02*
D03*
X79725Y138583D02*
D03*
X84252Y11811D02*
D03*
X86516Y16339D02*
D03*
X84252Y20866D02*
D03*
X86516Y134055D02*
D03*
X88780Y11811D02*
D03*
X91044Y34449D02*
D03*
Y106890D02*
D03*
X93307Y11811D02*
D03*
X95571Y34449D02*
D03*
X93307Y38977D02*
D03*
X95571Y106890D02*
D03*
Y161221D02*
D03*
Y170276D02*
D03*
X100099Y34449D02*
D03*
Y97835D02*
D03*
X97835Y102362D02*
D03*
X100099Y106890D02*
D03*
X97835Y156693D02*
D03*
X100099Y161221D02*
D03*
X97835Y165748D02*
D03*
X100099Y170276D02*
D03*
X97835Y174803D02*
D03*
X104626Y16339D02*
D03*
Y70670D02*
D03*
X102362Y75197D02*
D03*
X104626Y97835D02*
D03*
X102362Y102362D02*
D03*
X104626Y106890D02*
D03*
X102362Y111418D02*
D03*
X109154Y16339D02*
D03*
X106890Y48032D02*
D03*
Y93307D02*
D03*
X109154Y97835D02*
D03*
X106890Y102362D02*
D03*
X109154Y106890D02*
D03*
X113681Y16339D02*
D03*
Y52559D02*
D03*
X111418Y57087D02*
D03*
Y66142D02*
D03*
X113681Y97835D02*
D03*
X111418Y102362D02*
D03*
X113681Y106890D02*
D03*
X115945Y57087D02*
D03*
X35500Y74800D02*
D03*
D92*
X140748Y111024D02*
D03*
X6791D02*
D03*
X140551Y7087D02*
D03*
X7480Y7874D02*
D03*
D93*
X46260Y50787D02*
D03*
D94*
X129134Y68307D02*
D03*
X124409D02*
D03*
X119685D02*
D03*
X129134Y73032D02*
D03*
X124409D02*
D03*
X119685D02*
D03*
X129134Y77756D02*
D03*
X124409D02*
D03*
X119685D02*
D03*
X31004Y47539D02*
D03*
X35728D02*
D03*
X31004Y42815D02*
D03*
X35728D02*
D03*
X108465Y27953D02*
D03*
D95*
X135630Y27657D02*
D03*
D96*
X126900Y29100D02*
D03*
X91000Y18400D02*
D03*
D97*
X33268Y56791D02*
D03*
X36122D02*
D03*
X23425Y56988D02*
D03*
X30512D02*
D03*
M02*
