M48
;Layer_Color=9474304
;FILE_FORMAT=2:5
INCH,LZ
;TYPE=PLATED
T1F00S00C0.00787
T3F00S00C0.01181
T5F00S00C0.01378
T7F00S00C0.01772
%
T01
X00513Y00634
X00528Y00654
X0049795Y006811
X0051476Y0070374
X0051575Y0072736
X0052067Y0075098
X0085433Y0077067
X00875Y007185
X0086815Y0069393
X0085532Y0067323
X00859Y00396
X0103937Y0039272
X01159Y0019
X01228Y00189
X014055Y0032383
X01408Y00651
X0136909Y0062106
X00553Y01233
T03
X00265Y00083
X00273Y00124
X0018996Y0074705
X0051575Y0083169
X0054921Y0087008
X0052658Y0090256
X0054675Y0096269
X00736Y01044
X0077Y01043
X00791Y0091
X00821Y00924
T05
X0093252Y0024705
X0102854Y0033366
X0081299Y0057382
X007874Y005689
X0075984Y0056988
X007185Y0057874
X0069291
X01076Y00759
X0109153Y0083563
X0115748Y0086811
X0137992Y0077362
X0137697Y0074213
X014Y00568
X0135531Y0054527
X0120472Y0045669
X0117323Y0037106
X0121063Y0032579
X0113287Y0021949
X0135138Y0019094
X0138091Y0020177
T07
X004626Y0050787
M30
