M48
;Layer_Color=9474304
;FILE_FORMAT=2:5
INCH,LZ
;TYPE=PLATED
T1F00S00C0.00787
T3F00S00C0.01181
T7F00S00C0.01772
%
T01
X0016634Y0090354
X0014173Y0100197
X00818Y00456
T03
X0001575Y0039075
X0001575Y0042126
X0009154Y005315
X0009055Y0059842
X00119Y00599
X00145Y00592
X0013681Y0063779
X0011516Y0069193
X0008957Y0069882
X0014075Y0071063
X0002165Y0074508
X002815Y0079528
X0027362Y0046358
X0026083Y0043701
X0024803Y0039665
X0049902Y0029035
X0092815Y0082284
X0095276Y008563
X0095472Y0088681
X0094291Y0091732
X0099114Y009065
T07
X0106595Y0032972
M30
