%FSLAX25Y25*%
%MOIN*%
G70*
G01*
G75*
G04 Layer_Color=16711935*
%ADD10C,0.01244*%
%ADD11C,0.01772*%
%ADD12C,0.00787*%
%ADD13C,0.01000*%
%ADD14C,0.01575*%
%ADD15R,0.01969X0.01969*%
%ADD16R,0.01969X0.01969*%
%ADD17R,0.19291X0.19291*%
%ADD18O,0.00984X0.02756*%
%ADD19O,0.02756X0.00984*%
%ADD20R,0.04134X0.04134*%
%ADD21R,0.04134X0.08858*%
%ADD22R,0.01083X0.00984*%
%ADD23R,0.01083X0.01969*%
%ADD24R,0.03150X0.06693*%
%ADD25R,0.07992X0.05000*%
%ADD26R,0.05512X0.04724*%
%ADD27R,0.12992X0.12992*%
%ADD28O,0.00984X0.03150*%
%ADD29O,0.03150X0.00984*%
%ADD30R,0.03937X0.01575*%
%ADD31R,0.03150X0.03543*%
%ADD32R,0.03543X0.03150*%
%ADD33C,0.00787*%
%ADD34R,0.02362X0.01969*%
%ADD35C,0.05906*%
%ADD36O,0.02559X0.00984*%
%ADD37O,0.00984X0.02559*%
%ADD38R,0.11024X0.11024*%
%ADD39R,0.03543X0.06299*%
%ADD40R,0.04921X0.07874*%
%ADD41R,0.05118X0.06693*%
%ADD42O,0.02559X0.00787*%
%ADD43O,0.00787X0.02559*%
%ADD44R,0.03307X0.04803*%
%ADD45R,0.01740X0.01378*%
%ADD46R,0.01772X0.00984*%
%ADD47R,0.02756X0.06299*%
%ADD48C,0.01264*%
%ADD49C,0.01969*%
%ADD50C,0.00866*%
%ADD51C,0.00709*%
%ADD52C,0.00800*%
%ADD53C,0.00591*%
%ADD54C,0.00669*%
%ADD55C,0.00984*%
%ADD56C,0.01181*%
%ADD57C,0.01378*%
%ADD58C,0.01410*%
%ADD59R,0.01953X0.01969*%
%ADD60R,0.02953X0.01969*%
%ADD61R,0.05906X0.04134*%
%ADD62R,0.04423X0.05873*%
%ADD63R,0.09700X0.03900*%
%ADD64R,0.06400X0.04800*%
%ADD65R,0.02400X0.02800*%
%ADD66R,0.02800X0.02400*%
%ADD67R,0.02500X0.02800*%
%ADD68R,0.15900X0.01100*%
%ADD69R,0.02589X0.09647*%
%ADD70R,0.01975X0.09510*%
%ADD71R,0.05649X0.04800*%
%ADD72R,0.18046X0.01322*%
%ADD73R,0.18000X0.02233*%
%ADD74R,0.01364X0.08514*%
%ADD75R,0.01331X0.08465*%
%ADD76R,0.22123X0.02927*%
%ADD77R,0.09823X0.14573*%
%ADD78R,0.08600X0.05500*%
%ADD79R,0.08100X0.05600*%
%ADD80R,0.03700X0.03400*%
%ADD81R,0.06197X0.04400*%
%ADD82R,0.22700X0.03200*%
%ADD83R,0.08421X0.04909*%
%ADD84R,0.01422X0.05191*%
%ADD85R,0.01545X0.00445*%
%ADD86R,0.01558X0.02675*%
%ADD87R,0.04000X0.02020*%
%ADD88C,0.02165*%
%ADD89C,0.01969*%
%ADD90C,0.01575*%
%ADD91C,0.01772*%
%ADD92C,0.11811*%
%ADD93C,0.03543*%
%ADD94C,0.02598*%
%ADD95C,0.02756*%
%ADD96C,0.02559*%
%ADD97C,0.02362*%
%ADD98C,0.02756*%
%ADD99C,0.03937*%
%ADD100R,0.04724X0.05315*%
%ADD101R,0.03937X0.01378*%
%ADD102R,0.03937X0.05709*%
%ADD103R,0.05000X0.07992*%
%ADD104R,0.09843X0.06890*%
%ADD105R,0.00906X0.03150*%
%ADD106R,0.06299X0.09843*%
%ADD107R,0.04724X0.19685*%
%ADD108R,0.06299X0.11811*%
%ADD109O,0.00591X0.01969*%
%ADD110O,0.02953X0.00984*%
%ADD111O,0.00984X0.02953*%
%ADD112R,0.07087X0.07480*%
%ADD113R,0.09055X0.07480*%
%ADD114R,0.01575X0.05512*%
%ADD115C,0.00394*%
%ADD116C,0.00276*%
%ADD117C,0.00291*%
%ADD118R,0.06800X0.02800*%
%ADD119R,0.03123X0.17100*%
%ADD120R,0.05000X0.10600*%
%ADD121R,0.11300X0.04200*%
%ADD122R,0.50400X0.01200*%
%ADD123R,0.02911X0.17100*%
%ADD124R,0.12600X0.02800*%
%ADD125R,0.02756X0.02756*%
%ADD126R,0.02756X0.02756*%
%ADD127R,0.20079X0.20079*%
%ADD128O,0.01772X0.03543*%
%ADD129O,0.03543X0.01772*%
%ADD130R,0.04921X0.04921*%
%ADD131R,0.04921X0.09646*%
%ADD132R,0.01870X0.01772*%
%ADD133R,0.01870X0.02756*%
%ADD134R,0.03937X0.07480*%
%ADD135R,0.08780X0.05787*%
%ADD136R,0.06299X0.05512*%
%ADD137R,0.13780X0.13780*%
%ADD138O,0.01772X0.03937*%
%ADD139O,0.03937X0.01772*%
%ADD140R,0.04567X0.02205*%
%ADD141R,0.03937X0.04331*%
%ADD142R,0.04331X0.03937*%
%ADD143C,0.01339*%
%ADD144R,0.03150X0.02756*%
%ADD145C,0.06693*%
%ADD146O,0.03347X0.01772*%
%ADD147O,0.01772X0.03347*%
%ADD148R,0.11811X0.11811*%
%ADD149R,0.04331X0.07087*%
%ADD150R,0.05709X0.08661*%
%ADD151R,0.05906X0.07480*%
%ADD152O,0.03110X0.01339*%
%ADD153O,0.01339X0.03110*%
%ADD154R,0.04095X0.05591*%
%ADD155R,0.02528X0.02165*%
%ADD156R,0.02165X0.01378*%
%ADD157C,0.02953*%
%ADD158C,0.02126*%
%ADD159C,0.12598*%
%ADD160C,0.04331*%
%ADD161C,0.02559*%
%ADD162C,0.03150*%
%ADD163R,0.05039X0.05630*%
%ADD164R,0.04252X0.01693*%
%ADD165R,0.04724X0.06496*%
%ADD166R,0.05787X0.08780*%
%ADD167R,0.10642X0.07690*%
%ADD168R,0.01299X0.03543*%
%ADD169R,0.07087X0.10630*%
%ADD170R,0.05118X0.20079*%
%ADD171R,0.06693X0.12205*%
%ADD172O,0.00984X0.02362*%
%ADD173O,0.03740X0.01772*%
%ADD174O,0.01772X0.03740*%
%ADD175R,0.07874X0.08268*%
%ADD176R,0.09843X0.08268*%
%ADD177R,0.02362X0.06299*%
%ADD178C,0.02756*%
%ADD179C,0.03386*%
%ADD180C,0.00298*%
D12*
X0Y0D02*
Y194587D01*
Y0D02*
X147638D01*
X0Y194587D02*
X147638D01*
Y0D02*
Y194587D01*
X0Y0D02*
Y194587D01*
Y0D02*
X147638D01*
X0Y194587D02*
X147638D01*
Y0D02*
Y194587D01*
D13*
X44700Y81500D02*
X51700D01*
Y66500D02*
Y81500D01*
X44700Y66500D02*
X51700D01*
X44700D02*
Y81500D01*
X95811Y67260D02*
Y82260D01*
X102811D01*
Y67260D02*
Y82260D01*
X95811Y67260D02*
X102811D01*
X34189Y104583D02*
X49189D01*
Y97583D02*
Y104583D01*
X34189Y97583D02*
X49189D01*
X34189D02*
Y104583D01*
X44700Y81500D02*
X51700D01*
Y66500D02*
Y81500D01*
X44700Y66500D02*
X51700D01*
X44700D02*
Y81500D01*
X95811Y67260D02*
Y82260D01*
X102811D01*
Y67260D02*
Y82260D01*
X95811Y67260D02*
X102811D01*
X34189Y104583D02*
X49189D01*
Y97583D02*
Y104583D01*
X34189Y97583D02*
X49189D01*
X34189D02*
Y104583D01*
M02*
