M48
;Layer_Color=9474304
;FILE_FORMAT=2:5
INCH,LZ
;TYPE=PLATED
T1F00S00C0.00787
T3F00S00C0.01181
T4F00S00C0.01299
T5F00S00C0.01378
T6F00S00C0.01575
%
T01
X00014Y0013462
X00041Y00144
X0004Y0017576
X00014Y001799
Y0022517
X0004Y0022104
Y0026632
X00014Y0027045
Y0031572
X0004Y0031159
Y0035687
X00014Y00361
Y0040628
X0004Y0040214
Y0044742
X00014Y0045155
Y0049683
X0004Y0049269
Y0053797
X00014Y005421
Y0058738
X0004Y0058324
Y0062852
X00014Y0063265
Y0067793
X0004Y0067379
Y0071907
X00014Y007232
Y0076848
X0004Y0076435
Y0080962
X00014Y0081376
Y0085903
X0004Y008549
Y0090017
X00014Y0090431
Y0094958
X0004Y0094545
Y0099072
X00014Y0099486
Y0104013
X0014075Y0097835
X002313
X0027658
X0025394Y0093307
X0029921
X0034449
X0038977
X0032185Y008878
X0027658
X0025394Y0102362
X0020866
X0029921
X00581Y01029
X00582Y01057
X00568Y00997
X00586Y00968
X00616Y00951
X0065256Y0099311
Y0101969
X0069291Y0094193
X0068258Y0091831
X0070472
X00844Y00944
X00839Y00971
X0091044Y010689
X0095571
X0100099
X0104626
X0109154
X010689Y0102362
X0102362
X0097835
X0100099Y0097835
X0104626
X0109154
X010689Y0093307
X0102362Y0075197
X0104626Y007067
X0094291Y0073425
X0090551Y0073524
X0095472Y0064272
X0093307Y0038977
X0091044Y0034449
X0095571
X0100099
X010689Y0048032
X0104626Y0016339
X0109154
X0093307Y0011811
X008878
X0084252
X0081988Y0007284
X0077461Y0016339
X0072933
X007067Y0020866
X0075197
X0079725
X0084252
X0081988Y0025394
X0077461
X0072933
X0068406
X0066142Y0038977
X0061614
X0057087
X007067
X0075197
X0079725
X0086516Y0016339
X0050296
X0045768
X004124
X0036713
X0032185
X0027658
X002313
X0018603
X0016339Y0020866
X0011811
X0013Y0027945
X0025394Y0029921
X0020866Y0020866
X0043504
X0048032
X0045768Y0025394
X004124
X0050296
X0048032Y0011811
X0043504
X0038977
X0052559
X0050296Y008878
X00355Y00748
X0011811Y0075197
Y0066142
X0014075Y0061614
X0011811Y0084252
X0113681Y0097835
X0111418Y0102362
X0113681Y010689
X01441Y01046
X01462Y01053
Y0100772
X0144Y0101821
Y0097293
X01462Y0096245
Y0091717
X0144Y0092765
Y0088238
X01462Y008719
Y0082662
X0144Y008371
Y0079183
X01462Y0078135
Y0073607
X0144Y0074655
Y0070128
X01462Y006908
Y0064552
X0144Y00656
Y0061072
X01462Y0060024
Y0055497
X0144Y0056545
Y0052017
X01462Y0050969
Y0046442
X0144Y004749
Y0042962
X01462Y0041914
Y0037387
X0144Y0038435
Y0033907
X01462Y0032859
Y0028332
X0144Y0029379
Y0024852
X01462Y0023804
Y0019276
X0144Y0020324
Y0015797
Y00134
X01462Y0014749
X01461Y00115
X0113681Y0016339
X01164Y00237
X0113681Y0052559
X0111418Y0057087
X0115945
X0111418Y0066142
X01165Y01223
X0102362Y0111418
X0086516Y0134055
X0081988
X0077461
X0075197Y0138583
X007067
X0066142
X0061614
X0059351Y0134055
X0063878
Y0143111
X0059351
X0061614Y0147638
X0066142
X007067
X0068406Y0143111
X0072933
Y0152166
X0068406
X0063878
X0059351
X0061614Y0156693
X0066142
X007067
X0068406Y0161221
X0063878
X0059351
X0061614Y0165748
X0066142
X007067
X0068406Y0170276
X0063878
X0059351
X0061614Y0174803
X0066142
X007067
X0068406Y0179331
X0063878
X0059351
X0061614Y0183859
X0066142
X007067
X0072933Y0179331
Y0170276
Y0161221
X0095571
X0100099
X0097835Y0156693
Y0165748
X0095571Y0170276
X0100099
X0097835Y0174803
X01065Y0180165
X0079725Y0138583
X0071022Y0128421
X00668Y01262
X0059351Y0125
X0051356Y0116839
X00446Y01173
X0036713Y0125
X0032185
X0027658
X0029921Y0129528
X0034449
X0032185Y0134055
X0036713
X0034449Y0138583
X0029921
X0032185Y0143111
X0036713
X0034449Y0147638
X0029921
X0027658Y0152166
X002313
X0018603
X0014075
X0011811Y0156693
X0016339
X0020866
X0025394
X0029921
X0034449
X0032185Y0152166
X0036713
Y0161221
X0032185
X0027658
X0034449Y0165748
X0036713Y0170276
X0034449Y0174803
X00273Y0175228
Y0179755
X00275Y019
X0065256Y0110039
T03
X0027769Y0071265
X0034569Y0081365
X0045669Y0095965
X0061122Y0081693
Y0077756
Y0073819
Y0069882
Y0065945
X0065059
Y0069882
X0068996
Y0065945
X0072933
Y0069882
Y0073819
Y0077756
X0068996
Y0073819
X0065059
Y0077756
Y0081693
X0068996
X0072933
X007687
Y0077756
Y0073819
Y0069882
Y0065945
X0072244Y0085335
X0069587Y0085335
X0067028Y0085335
X00923Y00969
X0104921Y0086221
T04
X0031004Y0042815
Y0047539
X0035728
Y0042815
X0119685Y0068307
X0124409
X0129134
Y0073032
X0124409
X0119685
Y0077756
X0124409
X0129134
T05
X0015157Y0033661
X0011417Y0041535
Y0043799
X00477Y00383
X00501Y00537
X00532Y00533
X00559Y00487
X00563Y00581
X0055534Y0061044
X0063287Y0046063
X0070768
X008189Y0049016
X0081791Y0052756
X0097539Y0044587
X0109449Y0042028
X0107382Y0036319
X0098228Y001811
X0109742Y0008995
X0117518Y0009105
Y0005857
X0125492Y0017126
X0122244Y0035335
X0138484Y0038287
X0136417Y0048031
X0129626Y0051181
X01273Y00564
X0132283Y0086417
X0126673Y0090945
X0115945Y0090059
X012126Y0103543
X013937Y0095768
T06
X013563Y0027657
M30
