%FSLAX25Y25*%
%MOIN*%
G70*
G01*
G75*
G04 Layer_Color=16711935*
%ADD10C,0.01244*%
%ADD11C,0.01772*%
%ADD12C,0.00787*%
%ADD13C,0.01000*%
%ADD14C,0.01575*%
%ADD15R,0.01969X0.01969*%
%ADD16R,0.01969X0.01969*%
%ADD17R,0.19291X0.19291*%
%ADD18O,0.00984X0.02756*%
%ADD19O,0.02756X0.00984*%
%ADD20R,0.04134X0.04134*%
%ADD21R,0.04134X0.08858*%
%ADD22R,0.01083X0.00984*%
%ADD23R,0.01083X0.01969*%
%ADD24R,0.03150X0.06693*%
%ADD25R,0.07992X0.05000*%
%ADD26R,0.05512X0.04724*%
%ADD27R,0.12992X0.12992*%
%ADD28O,0.00984X0.03150*%
%ADD29O,0.03150X0.00984*%
%ADD30R,0.03937X0.01575*%
%ADD31R,0.03150X0.03543*%
%ADD32R,0.03543X0.03150*%
%ADD33C,0.00787*%
%ADD34R,0.02362X0.01969*%
%ADD35C,0.05906*%
%ADD36O,0.02559X0.00984*%
%ADD37O,0.00984X0.02559*%
%ADD38R,0.11024X0.11024*%
%ADD39R,0.03543X0.06299*%
%ADD40R,0.04921X0.07874*%
%ADD41R,0.05118X0.06693*%
%ADD42O,0.02559X0.00787*%
%ADD43O,0.00787X0.02559*%
%ADD44R,0.03307X0.04803*%
%ADD45R,0.01740X0.01378*%
%ADD46R,0.01772X0.00984*%
%ADD47R,0.02756X0.06299*%
%ADD48C,0.01264*%
%ADD49C,0.01969*%
%ADD50C,0.00866*%
%ADD51C,0.00709*%
%ADD52C,0.00800*%
%ADD53C,0.00591*%
%ADD54C,0.00669*%
%ADD55C,0.00984*%
%ADD56C,0.01181*%
%ADD57C,0.01378*%
%ADD58C,0.01410*%
%ADD59R,0.01953X0.01969*%
%ADD60R,0.02953X0.01969*%
%ADD61R,0.05906X0.04134*%
%ADD62R,0.04423X0.05873*%
%ADD63R,0.09700X0.03900*%
%ADD64R,0.06400X0.04800*%
%ADD65R,0.02400X0.02800*%
%ADD66R,0.02800X0.02400*%
%ADD67R,0.02500X0.02800*%
%ADD68R,0.15900X0.01100*%
%ADD69R,0.02589X0.09647*%
%ADD70R,0.01975X0.09510*%
%ADD71R,0.05649X0.04800*%
%ADD72R,0.18046X0.01322*%
%ADD73R,0.18000X0.02233*%
%ADD74R,0.01364X0.08514*%
%ADD75R,0.01331X0.08465*%
%ADD76R,0.22123X0.02927*%
%ADD77R,0.09823X0.14573*%
%ADD78R,0.08600X0.05500*%
%ADD79R,0.08100X0.05600*%
%ADD80R,0.03700X0.03400*%
%ADD81R,0.06197X0.04400*%
%ADD82R,0.22700X0.03200*%
%ADD83R,0.08421X0.04909*%
%ADD84R,0.01422X0.05191*%
%ADD85R,0.01545X0.00445*%
%ADD86R,0.01558X0.02675*%
%ADD87R,0.04000X0.02020*%
%ADD88C,0.02165*%
%ADD89C,0.01969*%
%ADD90C,0.01575*%
%ADD91C,0.01772*%
%ADD92C,0.11811*%
%ADD93C,0.03543*%
%ADD94C,0.02598*%
%ADD95C,0.02756*%
%ADD96C,0.02559*%
%ADD97C,0.02362*%
%ADD98C,0.02756*%
%ADD99C,0.03937*%
%ADD100R,0.04724X0.05315*%
%ADD101R,0.03937X0.01378*%
%ADD102R,0.03937X0.05709*%
%ADD103R,0.05000X0.07992*%
%ADD104R,0.09843X0.06890*%
%ADD105R,0.00906X0.03150*%
%ADD106R,0.06299X0.09843*%
%ADD107R,0.04724X0.19685*%
%ADD108R,0.06299X0.11811*%
%ADD109O,0.00591X0.01969*%
%ADD110O,0.02953X0.00984*%
%ADD111O,0.00984X0.02953*%
%ADD112R,0.07087X0.07480*%
%ADD113R,0.09055X0.07480*%
%ADD114R,0.01575X0.05512*%
%ADD115C,0.00394*%
%ADD116C,0.00276*%
%ADD117C,0.00291*%
%ADD118R,0.06800X0.02800*%
%ADD119R,0.03123X0.17100*%
%ADD120R,0.05000X0.10600*%
%ADD121R,0.11300X0.04200*%
%ADD122R,0.50400X0.01200*%
%ADD123R,0.02911X0.17100*%
%ADD124R,0.12600X0.02800*%
%ADD125R,0.02756X0.02756*%
%ADD126R,0.02756X0.02756*%
%ADD127R,0.20079X0.20079*%
%ADD128O,0.01772X0.03543*%
%ADD129O,0.03543X0.01772*%
%ADD130R,0.04921X0.04921*%
%ADD131R,0.04921X0.09646*%
%ADD132R,0.01870X0.01772*%
%ADD133R,0.01870X0.02756*%
%ADD134R,0.03937X0.07480*%
%ADD135R,0.08780X0.05787*%
%ADD136R,0.06299X0.05512*%
%ADD137R,0.13780X0.13780*%
%ADD138O,0.01772X0.03937*%
%ADD139O,0.03937X0.01772*%
%ADD140R,0.04567X0.02205*%
%ADD141R,0.03937X0.04331*%
%ADD142R,0.04331X0.03937*%
%ADD143C,0.01339*%
%ADD144R,0.03150X0.02756*%
%ADD145C,0.06693*%
%ADD146O,0.03347X0.01772*%
%ADD147O,0.01772X0.03347*%
%ADD148R,0.11811X0.11811*%
%ADD149R,0.04331X0.07087*%
%ADD150R,0.05709X0.08661*%
%ADD151R,0.05906X0.07480*%
%ADD152O,0.03110X0.01339*%
%ADD153O,0.01339X0.03110*%
%ADD154R,0.04095X0.05591*%
%ADD155R,0.02528X0.02165*%
%ADD156R,0.02165X0.01378*%
%ADD157C,0.02953*%
%ADD158C,0.02126*%
%ADD159C,0.12598*%
%ADD160C,0.04331*%
%ADD161C,0.02559*%
%ADD162C,0.03150*%
%ADD163R,0.05039X0.05630*%
%ADD164R,0.04252X0.01693*%
%ADD165R,0.04724X0.06496*%
%ADD166R,0.05787X0.08780*%
%ADD167R,0.10642X0.07690*%
%ADD168R,0.01299X0.03543*%
%ADD169R,0.07087X0.10630*%
%ADD170R,0.05118X0.20079*%
%ADD171R,0.06693X0.12205*%
%ADD172O,0.00984X0.02362*%
%ADD173O,0.03740X0.01772*%
%ADD174O,0.01772X0.03740*%
%ADD175R,0.07874X0.08268*%
%ADD176R,0.09843X0.08268*%
%ADD177R,0.02362X0.06299*%
%ADD178C,0.02756*%
%ADD179C,0.03386*%
D12*
X0Y0D02*
Y194587D01*
Y0D02*
X147638D01*
X0Y194587D02*
X147638D01*
Y0D02*
Y194587D01*
D13*
X44700Y81500D02*
X51700D01*
Y66500D02*
Y81500D01*
X44700Y66500D02*
X51700D01*
X44700D02*
Y81500D01*
X95811Y67260D02*
Y82260D01*
X102811D01*
Y67260D02*
Y82260D01*
X95811Y67260D02*
X102811D01*
X34189Y104583D02*
X49189D01*
Y97583D02*
Y104583D01*
X34189Y97583D02*
X49189D01*
X34189D02*
Y104583D01*
D97*
X67913Y115945D02*
D03*
D125*
X55564Y26300D02*
D03*
X52021D02*
D03*
X134610Y75000D02*
D03*
X131067D02*
D03*
X96716Y73130D02*
D03*
X100260D02*
D03*
X134610Y71063D02*
D03*
X131067D02*
D03*
D126*
X52264Y35925D02*
D03*
Y39469D02*
D03*
X25098Y81398D02*
D03*
Y84941D02*
D03*
D135*
X135398Y89803D02*
D03*
Y99803D02*
D03*
X117976Y55472D02*
D03*
Y45472D02*
D03*
D137*
X67500Y40700D02*
D03*
D141*
X48200Y70413D02*
D03*
Y77500D02*
D03*
D157*
X49400Y65500D02*
D03*
X133465Y38189D02*
D03*
X118110Y75780D02*
D03*
Y72631D02*
D03*
X121457D02*
D03*
Y75780D02*
D03*
X124705D02*
D03*
Y72631D02*
D03*
D159*
X140748Y111024D02*
D03*
X6791D02*
D03*
X140551Y7087D02*
D03*
X7480Y7874D02*
D03*
D160*
X106600Y100600D02*
D03*
X97701Y100591D02*
D03*
X102622D02*
D03*
X126736Y55709D02*
D03*
X111400Y100600D02*
D03*
X107972Y45571D02*
D03*
X106595Y32972D02*
D03*
D161*
X2756Y93307D02*
D03*
X14075Y143111D02*
D03*
X11811Y147638D02*
D03*
X18603Y152166D02*
D03*
X20866Y138583D02*
D03*
Y147638D02*
D03*
X23130Y152166D02*
D03*
X27658Y125000D02*
D03*
X25394Y138583D02*
D03*
X27658Y143111D02*
D03*
Y161221D02*
D03*
X32185Y125000D02*
D03*
X29921Y138583D02*
D03*
X32185Y143111D02*
D03*
Y152166D02*
D03*
Y161221D02*
D03*
X36713Y125000D02*
D03*
X34449Y129528D02*
D03*
X36713Y143111D02*
D03*
X34449Y156693D02*
D03*
X36713Y161221D02*
D03*
X34449Y165748D02*
D03*
Y174803D02*
D03*
X50296Y115945D02*
D03*
X54823D02*
D03*
X57087Y120473D02*
D03*
X59351Y143111D02*
D03*
Y170276D02*
D03*
Y179331D02*
D03*
X63878Y115945D02*
D03*
Y125000D02*
D03*
X61614Y138583D02*
D03*
Y156693D02*
D03*
Y165748D02*
D03*
Y174803D02*
D03*
X66142Y111418D02*
D03*
X68406Y125000D02*
D03*
Y134055D02*
D03*
X66142Y147638D02*
D03*
X68406Y152166D02*
D03*
X66142Y156693D02*
D03*
Y165748D02*
D03*
X68406Y170276D02*
D03*
X66142Y183859D02*
D03*
X70670Y120473D02*
D03*
Y138583D02*
D03*
X72933Y143111D02*
D03*
Y152166D02*
D03*
X70670Y165748D02*
D03*
X72933Y170276D02*
D03*
X70670Y174803D02*
D03*
X75197Y120473D02*
D03*
Y138583D02*
D03*
X79725D02*
D03*
X95571Y161221D02*
D03*
Y170276D02*
D03*
X97835Y156693D02*
D03*
X100099Y161221D02*
D03*
X97835Y165748D02*
D03*
X100099Y170276D02*
D03*
X106890Y183859D02*
D03*
X127264Y143111D02*
D03*
X129528Y138583D02*
D03*
X134055D02*
D03*
X136319Y143111D02*
D03*
X145374Y79725D02*
D03*
Y88780D02*
D03*
X14075Y134055D02*
D03*
X11811Y138583D02*
D03*
X14075Y152166D02*
D03*
X11811Y156693D02*
D03*
X16339Y138583D02*
D03*
X18603Y143111D02*
D03*
X16339Y147638D02*
D03*
Y156693D02*
D03*
X23130Y143111D02*
D03*
X20866Y156693D02*
D03*
X27658Y134055D02*
D03*
X25394Y147638D02*
D03*
X27658Y152166D02*
D03*
X25394Y156693D02*
D03*
X27658Y179331D02*
D03*
X29921Y129528D02*
D03*
X32185Y134055D02*
D03*
X29921Y147638D02*
D03*
Y156693D02*
D03*
X36713Y134055D02*
D03*
X34449Y138583D02*
D03*
Y147638D02*
D03*
X36713Y152166D02*
D03*
Y170276D02*
D03*
X59351Y115945D02*
D03*
Y125000D02*
D03*
Y134055D02*
D03*
Y152166D02*
D03*
Y161221D02*
D03*
X61614Y120473D02*
D03*
Y129528D02*
D03*
X63878Y134055D02*
D03*
Y143111D02*
D03*
X61614Y147638D02*
D03*
X63878Y152166D02*
D03*
Y161221D02*
D03*
Y170276D02*
D03*
Y179331D02*
D03*
X61614Y183859D02*
D03*
X66142Y120473D02*
D03*
Y129528D02*
D03*
Y138583D02*
D03*
X68406Y143111D02*
D03*
Y161221D02*
D03*
X66142Y174803D02*
D03*
X68406Y179331D02*
D03*
X70670Y111418D02*
D03*
X72933Y115945D02*
D03*
Y134055D02*
D03*
X70670Y147638D02*
D03*
Y156693D02*
D03*
X72933Y161221D02*
D03*
Y179331D02*
D03*
X70670Y183859D02*
D03*
X75197Y111418D02*
D03*
X77461Y115945D02*
D03*
Y134055D02*
D03*
X79725Y120473D02*
D03*
X81988Y134055D02*
D03*
X86516D02*
D03*
X97835Y174803D02*
D03*
X125000Y138583D02*
D03*
X131792Y143111D02*
D03*
X145374Y97835D02*
D03*
D163*
X18701Y74409D02*
D03*
X6890D02*
D03*
Y27854D02*
D03*
X18701D02*
D03*
D164*
X20571Y32382D02*
D03*
Y34350D02*
D03*
Y36319D02*
D03*
Y38287D02*
D03*
Y40256D02*
D03*
Y42224D02*
D03*
Y44193D02*
D03*
Y46161D02*
D03*
Y48130D02*
D03*
Y50098D02*
D03*
Y52067D02*
D03*
Y54035D02*
D03*
Y56004D02*
D03*
Y57972D02*
D03*
Y59941D02*
D03*
Y61909D02*
D03*
Y63878D02*
D03*
Y65846D02*
D03*
Y67815D02*
D03*
Y69784D02*
D03*
X5020Y69784D02*
D03*
Y67815D02*
D03*
Y65847D02*
D03*
Y63878D02*
D03*
Y61910D02*
D03*
Y59941D02*
D03*
Y57972D02*
D03*
Y56004D02*
D03*
Y54035D02*
D03*
Y52067D02*
D03*
Y50098D02*
D03*
Y48130D02*
D03*
Y46161D02*
D03*
Y44193D02*
D03*
Y42224D02*
D03*
Y40256D02*
D03*
Y38287D02*
D03*
Y36319D02*
D03*
Y34350D02*
D03*
Y32382D02*
D03*
Y34350D02*
D03*
D165*
X125000Y91430D02*
D03*
X118307D02*
D03*
D166*
X97150Y64961D02*
D03*
X107150D02*
D03*
X97150Y52067D02*
D03*
X107150D02*
D03*
D167*
X121421Y74213D02*
D03*
D168*
X117421Y80013D02*
D03*
X119390D02*
D03*
X121358D02*
D03*
X123327D02*
D03*
X125295D02*
D03*
Y68398D02*
D03*
X123327D02*
D03*
X121358D02*
D03*
X119390D02*
D03*
X117421D02*
D03*
D169*
X105083Y91732D02*
D03*
Y79527D02*
D03*
D170*
X109100Y16900D02*
D03*
X116974D02*
D03*
D171*
X128000Y29300D02*
D03*
X98400Y29100D02*
D03*
D172*
X19488Y98524D02*
D03*
X18307D02*
D03*
X17126D02*
D03*
Y94193D02*
D03*
X18307D02*
D03*
X19488D02*
D03*
X13484Y98327D02*
D03*
X12303D02*
D03*
X11122D02*
D03*
Y93996D02*
D03*
X12303D02*
D03*
X13484D02*
D03*
D173*
X77244Y47590D02*
D03*
Y45621D02*
D03*
Y43653D02*
D03*
Y41684D02*
D03*
Y39716D02*
D03*
Y37747D02*
D03*
Y35779D02*
D03*
Y33810D02*
D03*
X57756D02*
D03*
Y35779D02*
D03*
Y37747D02*
D03*
Y39716D02*
D03*
Y41684D02*
D03*
Y43653D02*
D03*
Y45621D02*
D03*
Y47590D02*
D03*
D174*
X74390Y30956D02*
D03*
X72421D02*
D03*
X70453D02*
D03*
X68484D02*
D03*
X66516D02*
D03*
X64547D02*
D03*
X62579D02*
D03*
X60610D02*
D03*
Y50444D02*
D03*
X62579D02*
D03*
X64547D02*
D03*
X66516D02*
D03*
X68484D02*
D03*
X70453D02*
D03*
X72421D02*
D03*
X74390D02*
D03*
D175*
X67000Y11079D02*
D03*
X76000D02*
D03*
D176*
X86300D02*
D03*
X56800D02*
D03*
D177*
X66064Y22300D02*
D03*
X68623D02*
D03*
X71182D02*
D03*
X73741D02*
D03*
X76300D02*
D03*
D178*
X86828Y54267D02*
D03*
D179*
X72224Y45424D02*
D03*
X67500D02*
D03*
X62776D02*
D03*
X72224Y40700D02*
D03*
X67500D02*
D03*
X62776D02*
D03*
X72224Y35976D02*
D03*
X67500D02*
D03*
X62776D02*
D03*
M02*
