%FSLAX25Y25*%
%MOIN*%
G70*
G01*
G75*
G04 Layer_Color=16711935*
%ADD10R,0.11811X0.08268*%
%ADD11R,0.05118X0.03150*%
%ADD12R,0.01969X0.01969*%
%ADD13R,0.01969X0.01969*%
%ADD14R,0.19291X0.19291*%
%ADD15O,0.01378X0.03740*%
%ADD16O,0.03740X0.01378*%
%ADD17R,0.07087X0.07480*%
%ADD18R,0.09055X0.07480*%
%ADD19R,0.01575X0.05512*%
%ADD20R,0.04134X0.05118*%
%ADD21R,0.03150X0.06693*%
%ADD22R,0.02559X0.05315*%
%ADD23R,0.02756X0.01181*%
%ADD24R,0.03504X0.06299*%
%ADD25R,0.03740X0.03740*%
%ADD26R,0.01969X0.02362*%
%ADD27R,0.02362X0.01969*%
%ADD28C,0.01000*%
%ADD29C,0.01575*%
%ADD30C,0.03543*%
%ADD31C,0.03150*%
%ADD32C,0.00787*%
%ADD33C,0.02165*%
%ADD34C,0.11811*%
%ADD35C,0.02598*%
%ADD36R,0.04724X0.05315*%
%ADD37R,0.03937X0.01378*%
%ADD38R,0.19600X0.21400*%
%ADD39C,0.00984*%
%ADD40C,0.00394*%
%ADD41C,0.00591*%
%ADD42C,0.00709*%
%ADD43C,0.00276*%
%ADD44C,0.00291*%
%ADD45R,0.12611X0.09068*%
%ADD46R,0.05918X0.03950*%
%ADD47R,0.02769X0.02769*%
%ADD48R,0.02769X0.02769*%
%ADD49R,0.20091X0.20091*%
%ADD50O,0.02178X0.04540*%
%ADD51O,0.04540X0.02178*%
%ADD52R,0.07887X0.08280*%
%ADD53R,0.09855X0.08280*%
%ADD54R,0.02375X0.06312*%
%ADD55R,0.04934X0.05918*%
%ADD56R,0.03950X0.07493*%
%ADD57R,0.03359X0.06115*%
%ADD58R,0.03386X0.01811*%
%ADD59R,0.04134X0.06929*%
%ADD60R,0.04540X0.04540*%
%ADD61R,0.02769X0.03162*%
%ADD62R,0.03162X0.02769*%
%ADD63C,0.12611*%
%ADD64R,0.05039X0.05630*%
%ADD65R,0.04252X0.01693*%
%ADD66C,0.03398*%
D28*
X124100Y31800D02*
Y93700D01*
X126200Y95800D01*
X147200D01*
Y29500D02*
Y95800D01*
X126400Y29500D02*
X147200D01*
X124100Y31800D02*
X126400Y29500D01*
X38705Y92264D02*
X39689D01*
X38705Y71595D02*
Y92264D01*
Y71595D02*
X39689D01*
X57406D01*
Y72579D01*
Y92264D01*
X39689D02*
X57406D01*
D32*
X0Y120100D02*
X147800D01*
X147638Y0D02*
Y120100D01*
X0Y0D02*
X147638D01*
X0D02*
Y120100D01*
D63*
X7480Y7874D02*
D03*
X140551Y7087D02*
D03*
X6791Y111024D02*
D03*
X140748D02*
D03*
D64*
X18781Y74359D02*
D03*
X6970D02*
D03*
Y27804D02*
D03*
X18781D02*
D03*
D65*
X20651Y32331D02*
D03*
Y34300D02*
D03*
Y36268D02*
D03*
Y38237D02*
D03*
Y40205D02*
D03*
Y42174D02*
D03*
Y44142D02*
D03*
Y46111D02*
D03*
Y48079D02*
D03*
Y50048D02*
D03*
Y52017D02*
D03*
Y53985D02*
D03*
Y55954D02*
D03*
Y57922D02*
D03*
Y59891D02*
D03*
Y61859D02*
D03*
Y63828D02*
D03*
Y65796D02*
D03*
Y67765D02*
D03*
Y69733D02*
D03*
X5100Y69733D02*
D03*
Y67765D02*
D03*
Y65796D02*
D03*
Y63828D02*
D03*
Y61859D02*
D03*
Y59891D02*
D03*
Y57922D02*
D03*
Y55954D02*
D03*
Y53985D02*
D03*
Y52017D02*
D03*
Y50048D02*
D03*
Y48079D02*
D03*
Y46111D02*
D03*
Y44142D02*
D03*
Y42174D02*
D03*
Y40205D02*
D03*
Y38237D02*
D03*
Y36268D02*
D03*
Y34300D02*
D03*
Y32331D02*
D03*
D66*
X83087Y73913D02*
D03*
X78362D02*
D03*
X73638D02*
D03*
X68913D02*
D03*
X83087Y78638D02*
D03*
X78362D02*
D03*
X73638D02*
D03*
X68913D02*
D03*
X83087Y83362D02*
D03*
X78362D02*
D03*
X73638D02*
D03*
X68913D02*
D03*
X83087Y88087D02*
D03*
X78362D02*
D03*
X73638D02*
D03*
X68913D02*
D03*
M02*
