%FSLAX25Y25*%
%MOIN*%
G70*
G01*
G75*
G04 Layer_Physical_Order=2*
G04 Layer_Color=16711680*
%ADD10R,0.11811X0.08268*%
%ADD11R,0.05118X0.03150*%
%ADD12R,0.01969X0.01969*%
%ADD13R,0.01969X0.01969*%
%ADD14R,0.19291X0.19291*%
%ADD15O,0.01378X0.03740*%
%ADD16O,0.03740X0.01378*%
%ADD17R,0.07087X0.07480*%
%ADD18R,0.09055X0.07480*%
%ADD19R,0.01575X0.05512*%
%ADD20R,0.04134X0.05118*%
%ADD21R,0.03150X0.06693*%
%ADD22R,0.02559X0.05315*%
%ADD23R,0.02756X0.01181*%
%ADD24R,0.03504X0.06299*%
%ADD25R,0.03740X0.03740*%
%ADD26R,0.01969X0.02362*%
%ADD27R,0.02362X0.01969*%
%ADD28C,0.01000*%
%ADD29C,0.01575*%
%ADD30C,0.03543*%
%ADD31C,0.03150*%
%ADD32C,0.00787*%
%ADD33C,0.02165*%
%ADD34C,0.11811*%
%ADD35C,0.02598*%
%ADD36R,0.04724X0.05315*%
%ADD37R,0.03937X0.01378*%
%ADD38R,0.19600X0.21400*%
G36*
X147200Y400D02*
X500D01*
Y37874D01*
X962Y38066D01*
X1577Y37451D01*
X1938Y37210D01*
X2363Y37125D01*
X2738D01*
Y35186D01*
Y33217D01*
Y31249D01*
X4953D01*
X5100Y31220D01*
X8531D01*
X8531Y31220D01*
X8957Y31304D01*
X9001Y31334D01*
X9200Y31294D01*
X9853Y31424D01*
X10406Y31794D01*
X10776Y32347D01*
X10791Y32419D01*
X11288Y32370D01*
Y18700D01*
X11288Y18700D01*
X11373Y18274D01*
X11614Y17914D01*
X14414Y15114D01*
X14414Y15114D01*
X14774Y14873D01*
X14774Y14873D01*
X14774Y14873D01*
D01*
X14774Y14873D01*
X14774Y14873D01*
X15200Y14788D01*
X15200Y14788D01*
X20531D01*
X20594Y14694D01*
X21147Y14324D01*
X21800Y14194D01*
X22453Y14324D01*
X23006Y14694D01*
X23376Y15247D01*
X23506Y15900D01*
X23376Y16553D01*
X23006Y17106D01*
X22453Y17476D01*
X21800Y17606D01*
X21147Y17476D01*
X20594Y17106D01*
X20531Y17012D01*
X15661D01*
X13512Y19161D01*
Y36953D01*
X13990Y37099D01*
X13994Y37094D01*
X14547Y36724D01*
X15200Y36594D01*
X15853Y36724D01*
X16406Y37094D01*
X16776Y37647D01*
X16906Y38300D01*
X16776Y38953D01*
X16412Y39498D01*
Y50100D01*
X16412Y50100D01*
X16327Y50525D01*
X16086Y50886D01*
X16086Y50886D01*
X14853Y52119D01*
X15000Y52394D01*
X15653Y52524D01*
X16206Y52894D01*
X16576Y53447D01*
X16706Y54100D01*
X16576Y54753D01*
X16206Y55306D01*
X16112Y55369D01*
Y56700D01*
X16112Y56700D01*
X16112Y56700D01*
Y56700D01*
X16112D01*
X16112Y56700D01*
X16027Y57126D01*
X15931Y57270D01*
X15786Y57486D01*
X15786Y57486D01*
X14512Y58761D01*
Y60052D01*
X14953Y60287D01*
X15347Y60024D01*
X16000Y59894D01*
X16653Y60024D01*
X17206Y60394D01*
X17576Y60947D01*
X17706Y61600D01*
X17576Y62253D01*
X17206Y62806D01*
X17112Y62869D01*
Y64439D01*
X17357Y64684D01*
X18289D01*
Y62745D01*
Y60776D01*
X23013D01*
Y62716D01*
X26928D01*
X26928Y62716D01*
X27353Y62800D01*
X27714Y63041D01*
X28986Y64314D01*
X28986Y64314D01*
X29227Y64675D01*
X29227Y64675D01*
X29227Y64675D01*
X29312Y65100D01*
X29312Y65100D01*
Y66131D01*
X29406Y66194D01*
X29776Y66747D01*
X29906Y67400D01*
X29776Y68053D01*
X29512Y68448D01*
Y77031D01*
X29606Y77094D01*
X29976Y77647D01*
X30106Y78300D01*
X29976Y78953D01*
X29606Y79506D01*
X29053Y79876D01*
X28400Y80006D01*
X27747Y79876D01*
X27194Y79506D01*
X26824Y78953D01*
X26694Y78300D01*
X26824Y77647D01*
X27194Y77094D01*
X27288Y77031D01*
Y68803D01*
X26994Y68606D01*
X26624Y68053D01*
X26494Y67400D01*
X26624Y66747D01*
X26994Y66194D01*
X27088Y66131D01*
Y65561D01*
X26467Y64939D01*
X23013D01*
Y66682D01*
Y68650D01*
Y70816D01*
X18289D01*
Y68876D01*
X14865D01*
X14439Y68792D01*
X14078Y68551D01*
X12674Y67146D01*
X12279Y67310D01*
X12212Y67355D01*
Y89139D01*
X26461Y103388D01*
X62131D01*
X62194Y103294D01*
X62747Y102924D01*
X63400Y102794D01*
X63511Y102816D01*
X67014Y99314D01*
X67374Y99073D01*
X67800Y98988D01*
X67800Y98988D01*
X74500D01*
X74500Y98988D01*
X74926Y99073D01*
X75286Y99314D01*
X80861Y104888D01*
X95639D01*
X100216Y100311D01*
X100194Y100200D01*
X100324Y99547D01*
X100694Y98994D01*
X101247Y98624D01*
X101900Y98494D01*
X102553Y98624D01*
X103106Y98994D01*
X103476Y99547D01*
X103606Y100200D01*
X103476Y100853D01*
X103106Y101406D01*
X102553Y101776D01*
X101900Y101906D01*
X101789Y101884D01*
X96886Y106786D01*
X96526Y107027D01*
X96100Y107112D01*
X96100Y107112D01*
X80400D01*
X80400Y107112D01*
X79975Y107027D01*
X79614Y106786D01*
X74039Y101212D01*
X68261D01*
X65084Y104389D01*
X65106Y104500D01*
X64976Y105153D01*
X64606Y105706D01*
X64631Y105788D01*
X71039D01*
X72016Y104811D01*
X71994Y104700D01*
X72124Y104047D01*
X72494Y103494D01*
X73047Y103124D01*
X73700Y102994D01*
X74353Y103124D01*
X74906Y103494D01*
X75276Y104047D01*
X75406Y104700D01*
X75276Y105353D01*
X74906Y105906D01*
X74353Y106276D01*
X73700Y106406D01*
X73589Y106384D01*
X72286Y107686D01*
X71925Y107927D01*
X71500Y108012D01*
X71500Y108012D01*
X22200D01*
X21775Y107927D01*
X21414Y107686D01*
X21414Y107686D01*
X7114Y93386D01*
X6873Y93025D01*
X6788Y92600D01*
X6788Y92600D01*
Y83403D01*
X6494Y83206D01*
X6124Y82653D01*
X5994Y82000D01*
X6124Y81347D01*
X6494Y80794D01*
X7047Y80424D01*
X7700Y80294D01*
X8353Y80424D01*
X8906Y80794D01*
X9276Y81347D01*
X9406Y82000D01*
X9276Y82653D01*
X9012Y83048D01*
Y92139D01*
X22661Y105788D01*
X25104D01*
X25249Y105310D01*
X25214Y105286D01*
X25214Y105286D01*
X10314Y90386D01*
X10073Y90026D01*
X9988Y89600D01*
X9988Y89600D01*
Y54300D01*
X9988Y54300D01*
X10073Y53874D01*
X10277Y53569D01*
X10041Y53128D01*
X7462D01*
Y54871D01*
Y56839D01*
Y58808D01*
Y60973D01*
X2738D01*
Y58808D01*
Y56839D01*
Y54871D01*
Y52902D01*
Y50934D01*
X4953D01*
X5100Y50905D01*
X10323D01*
X11288Y49939D01*
Y39482D01*
X10847Y39246D01*
X10653Y39376D01*
X10000Y39506D01*
X9347Y39376D01*
X8794Y39006D01*
X8424Y38453D01*
X8310Y37883D01*
X7924Y37497D01*
X7462Y37688D01*
Y39123D01*
Y41091D01*
Y43257D01*
X2738D01*
Y42083D01*
X2297Y41847D01*
X2253Y41876D01*
X1600Y42006D01*
X947Y41876D01*
X941Y41872D01*
X500Y42108D01*
Y119600D01*
X147200D01*
Y400D01*
D02*
G37*
%LPC*%
G36*
X23013Y49162D02*
X18289D01*
Y46997D01*
Y45028D01*
X23013D01*
Y46997D01*
Y49162D01*
D02*
G37*
G36*
X7462Y49162D02*
X2738D01*
Y46997D01*
Y45028D01*
X7462D01*
Y46997D01*
Y49162D01*
D02*
G37*
G36*
X23013Y43257D02*
X18289D01*
Y41091D01*
Y39123D01*
X23013D01*
Y41091D01*
Y43257D01*
D02*
G37*
G36*
X138100Y59606D02*
X137447Y59476D01*
X136894Y59106D01*
X136524Y58553D01*
X136394Y57900D01*
X136524Y57247D01*
X136695Y56991D01*
Y29882D01*
X124018Y17205D01*
X60982D01*
X59305Y18882D01*
Y22300D01*
X59198Y22838D01*
X59056Y23050D01*
X58976Y23453D01*
X58606Y24006D01*
X58053Y24376D01*
X57400Y24506D01*
X56747Y24376D01*
X56194Y24006D01*
X55824Y23453D01*
X55694Y22800D01*
X55824Y22147D01*
X56194Y21594D01*
X56495Y21392D01*
Y18300D01*
X56495Y18300D01*
X56495D01*
X56602Y17762D01*
X56907Y17307D01*
X59407Y14807D01*
X59862Y14502D01*
X60400Y14395D01*
X124600D01*
X125138Y14502D01*
X125593Y14807D01*
X125593Y14807D01*
X125593Y14807D01*
X139093Y28306D01*
X139398Y28762D01*
X139505Y29300D01*
X139505Y29300D01*
X139505Y29300D01*
Y29300D01*
Y56991D01*
X139676Y57247D01*
X139806Y57900D01*
X139676Y58553D01*
X139306Y59106D01*
X138753Y59476D01*
X138100Y59606D01*
D02*
G37*
G36*
X23013Y37351D02*
X18289D01*
Y35186D01*
Y33217D01*
Y31249D01*
X23013D01*
Y33217D01*
Y35186D01*
Y37351D01*
D02*
G37*
G36*
Y59005D02*
X18289D01*
Y56839D01*
Y54871D01*
Y52902D01*
X23013D01*
Y54871D01*
Y56839D01*
Y59005D01*
D02*
G37*
G36*
X93800Y83906D02*
X93147Y83776D01*
X92594Y83406D01*
X92224Y82853D01*
X92094Y82200D01*
X92224Y81547D01*
X92594Y80994D01*
X92788Y80864D01*
Y70461D01*
X89939Y67612D01*
X64469D01*
X64406Y67706D01*
X63853Y68076D01*
X63200Y68206D01*
X62547Y68076D01*
X61994Y67706D01*
X61624Y67153D01*
X61494Y66500D01*
X61624Y65847D01*
X61994Y65294D01*
X62547Y64924D01*
X63200Y64794D01*
X63853Y64924D01*
X64406Y65294D01*
X64469Y65388D01*
X90400D01*
X90400Y65388D01*
X90825Y65473D01*
X91186Y65714D01*
X94686Y69214D01*
X94686Y69214D01*
X94927Y69574D01*
X94927Y69574D01*
X94927Y69574D01*
X95012Y70000D01*
X95012Y70000D01*
Y81002D01*
X95376Y81547D01*
X95506Y82200D01*
X95376Y82853D01*
X95006Y83406D01*
X94453Y83776D01*
X93800Y83906D01*
D02*
G37*
G36*
X78600Y100306D02*
X77947Y100176D01*
X77394Y99806D01*
X77024Y99253D01*
X76894Y98600D01*
X77024Y97947D01*
X77394Y97394D01*
X77488Y97331D01*
Y96761D01*
X76239Y95512D01*
X63661D01*
X61286Y97886D01*
X60926Y98127D01*
X60500Y98212D01*
X60500Y98212D01*
X50669D01*
X50606Y98306D01*
X50053Y98676D01*
X49400Y98806D01*
X48747Y98676D01*
X48194Y98306D01*
X47824Y97753D01*
X47694Y97100D01*
X47824Y96447D01*
X48194Y95894D01*
X48747Y95524D01*
X48788Y95516D01*
Y67000D01*
X48788Y67000D01*
X48873Y66575D01*
X49114Y66214D01*
X49505Y65822D01*
Y64683D01*
X49505Y64683D01*
X49590Y64257D01*
X49831Y63896D01*
X49954Y63774D01*
X49762Y63312D01*
X34100D01*
X33674Y63227D01*
X33314Y62986D01*
X33314Y62986D01*
X32214Y61886D01*
X31973Y61525D01*
X31888Y61100D01*
X31888Y61100D01*
Y28139D01*
X30600D01*
X30148Y27952D01*
X29948Y27752D01*
X29761Y27300D01*
Y21200D01*
X29948Y20748D01*
X30148Y20548D01*
X30600Y20361D01*
X39200D01*
X39652Y20548D01*
X39839Y21000D01*
Y26152D01*
X40582Y26895D01*
X94318D01*
X95964Y25249D01*
X96024Y24947D01*
X96394Y24394D01*
X96947Y24024D01*
X97600Y23894D01*
X98253Y24024D01*
X98806Y24394D01*
X99176Y24947D01*
X99306Y25600D01*
X99176Y26253D01*
X98806Y26806D01*
X98253Y27176D01*
X97951Y27236D01*
X95893Y29294D01*
X95438Y29598D01*
X94900Y29705D01*
X40000D01*
X39462Y29598D01*
X39007Y29294D01*
X37852Y28139D01*
X35018D01*
X34567Y27952D01*
X34112Y28407D01*
Y60639D01*
X34561Y61088D01*
X51951D01*
X52047Y61024D01*
X52700Y60894D01*
X53353Y61024D01*
X53906Y61394D01*
X54276Y61947D01*
X54406Y62600D01*
X54276Y63253D01*
X53906Y63806D01*
X53353Y64176D01*
X52700Y64306D01*
X52589Y64284D01*
X51729Y65143D01*
Y66283D01*
X51645Y66708D01*
X51548Y66853D01*
X51404Y67069D01*
X51403Y67069D01*
X51012Y67461D01*
Y95988D01*
X56452D01*
X56687Y95547D01*
X56424Y95153D01*
X56294Y94500D01*
X56389Y94024D01*
X56111Y93609D01*
X55947Y93576D01*
X55394Y93206D01*
X55024Y92653D01*
X54894Y92000D01*
X55024Y91347D01*
X55394Y90794D01*
X55888Y90463D01*
Y86069D01*
X55794Y86006D01*
X55424Y85453D01*
X55294Y84800D01*
X55424Y84147D01*
X55794Y83594D01*
X56088Y83397D01*
Y57900D01*
X56088Y57900D01*
X56173Y57474D01*
X56414Y57114D01*
X59414Y54114D01*
X59775Y53873D01*
X60200Y53788D01*
X61397D01*
X61594Y53494D01*
X62147Y53124D01*
X62523Y53049D01*
X62621Y52559D01*
X62094Y52206D01*
X61724Y51653D01*
X61594Y51000D01*
X61724Y50347D01*
X62094Y49794D01*
X62647Y49424D01*
X63300Y49294D01*
X63953Y49424D01*
X64506Y49794D01*
X64876Y50347D01*
X65006Y51000D01*
X64984Y51111D01*
X66786Y52914D01*
X66786Y52914D01*
X67027Y53275D01*
X67027Y53275D01*
X67027Y53275D01*
X67112Y53700D01*
X67112Y53700D01*
Y56639D01*
X68161Y57688D01*
X93900D01*
X93900Y57688D01*
X94326Y57773D01*
X94686Y58014D01*
X96466Y59793D01*
X96944Y59648D01*
X97024Y59247D01*
X97124Y59097D01*
X92211Y54184D01*
X92100Y54206D01*
X91447Y54076D01*
X90894Y53706D01*
X90524Y53153D01*
X90394Y52500D01*
X90524Y51847D01*
X90894Y51294D01*
X91447Y50924D01*
X92100Y50794D01*
X92753Y50924D01*
X93306Y51294D01*
X93676Y51847D01*
X93806Y52500D01*
X93784Y52611D01*
X99386Y58214D01*
X99386Y58214D01*
X99627Y58574D01*
X99806Y58694D01*
X100176Y59247D01*
X100306Y59900D01*
X100176Y60553D01*
X99806Y61106D01*
X99253Y61476D01*
X98600Y61606D01*
X98488Y61816D01*
X101761Y65088D01*
X105531D01*
X105594Y64994D01*
X106147Y64624D01*
X106800Y64494D01*
X107453Y64624D01*
X108006Y64994D01*
X108376Y65547D01*
X108506Y66200D01*
X108376Y66853D01*
X108006Y67406D01*
X107453Y67776D01*
X106800Y67906D01*
X106147Y67776D01*
X105594Y67406D01*
X105531Y67312D01*
X101300D01*
X101300Y67312D01*
X100874Y67227D01*
X100514Y66986D01*
X98674Y65146D01*
X98212Y65338D01*
Y66831D01*
X98306Y66894D01*
X98676Y67447D01*
X98806Y68100D01*
X98676Y68753D01*
X98306Y69306D01*
X97753Y69676D01*
X97100Y69806D01*
X96447Y69676D01*
X95894Y69306D01*
X95524Y68753D01*
X95394Y68100D01*
X95524Y67447D01*
X95894Y66894D01*
X95988Y66831D01*
Y65361D01*
X92483Y61856D01*
X92200Y61912D01*
X92200Y61912D01*
X60869D01*
X60806Y62006D01*
X60253Y62376D01*
X59600Y62506D01*
X58947Y62376D01*
X58753Y62246D01*
X58312Y62482D01*
Y75151D01*
X58753Y75387D01*
X58847Y75324D01*
X59500Y75194D01*
X60153Y75324D01*
X60706Y75694D01*
X61076Y76247D01*
X61165Y76692D01*
X63386Y78914D01*
X63627Y79274D01*
X63712Y79700D01*
Y93288D01*
X76700D01*
X76700Y93288D01*
X77126Y93373D01*
X77486Y93614D01*
X79386Y95514D01*
X79386Y95514D01*
X79627Y95875D01*
X79627Y95875D01*
X79627Y95875D01*
X79712Y96300D01*
X79712Y96300D01*
Y97331D01*
X79806Y97394D01*
X80176Y97947D01*
X80306Y98600D01*
X80176Y99253D01*
X79806Y99806D01*
X79253Y100176D01*
X78600Y100306D01*
D02*
G37*
G36*
X83087Y95312D02*
X82500D01*
X82074Y95227D01*
X81714Y94986D01*
X81473Y94626D01*
X81388Y94200D01*
X81473Y93774D01*
X81714Y93414D01*
X81975Y93239D01*
Y92039D01*
X66400D01*
X65948Y91852D01*
X65761Y91400D01*
Y70000D01*
X65948Y69548D01*
X66400Y69361D01*
X86000D01*
X86452Y69548D01*
X86639Y70000D01*
Y90195D01*
X88204Y91832D01*
X88437Y92198D01*
X88512Y92625D01*
X88417Y93049D01*
X88168Y93404D01*
X87802Y93637D01*
X87375Y93712D01*
X86951Y93617D01*
X86596Y93368D01*
X85326Y92039D01*
X84198D01*
Y94200D01*
X84114Y94626D01*
X83873Y94986D01*
X83512Y95227D01*
X83087Y95312D01*
D02*
G37*
G36*
X121400Y66706D02*
X120747Y66576D01*
X120194Y66206D01*
X120131Y66112D01*
X111600D01*
X111174Y66027D01*
X110814Y65786D01*
X88939Y43912D01*
X72861D01*
X70712Y46061D01*
Y46431D01*
X70806Y46494D01*
X71176Y47047D01*
X71306Y47700D01*
X71176Y48353D01*
X70806Y48906D01*
X70253Y49276D01*
X69600Y49406D01*
X68947Y49276D01*
X68394Y48906D01*
X68024Y48353D01*
X67894Y47700D01*
X68024Y47047D01*
X68394Y46494D01*
X68488Y46431D01*
Y45600D01*
X68488Y45600D01*
X68573Y45175D01*
X68814Y44814D01*
X71614Y42014D01*
X71614Y42014D01*
X71974Y41773D01*
X71974Y41773D01*
X71974Y41773D01*
D01*
X71974Y41773D01*
X71974Y41773D01*
X72400Y41688D01*
X72400Y41688D01*
X89400D01*
X89400Y41688D01*
X89825Y41773D01*
X90186Y42014D01*
X112061Y63888D01*
X120131D01*
X120194Y63794D01*
X120747Y63424D01*
X121400Y63294D01*
X122053Y63424D01*
X122606Y63794D01*
X122976Y64347D01*
X123106Y65000D01*
X122976Y65653D01*
X122606Y66206D01*
X122053Y66576D01*
X121400Y66706D01*
D02*
G37*
G36*
X7462Y70816D02*
X2738D01*
Y68650D01*
Y66682D01*
Y64713D01*
X7462D01*
Y66682D01*
Y68650D01*
Y70816D01*
D02*
G37*
%LPD*%
G36*
X39200Y27200D02*
Y21000D01*
X30600D01*
X30400Y21200D01*
Y27300D01*
X30600Y27500D01*
X32351D01*
Y26400D01*
X32541Y25941D01*
X33000Y25751D01*
X33459Y25941D01*
X35018Y27500D01*
X38900D01*
X39200Y27200D01*
D02*
G37*
D28*
X93900Y70000D02*
Y82400D01*
X13400Y66300D02*
X14865Y67765D01*
X13400Y58300D02*
Y66300D01*
Y58300D02*
X15000Y56700D01*
X83087Y88087D02*
Y94200D01*
X82500D02*
X83087D01*
X28200Y67400D02*
X28400Y67600D01*
Y78300D01*
X49900Y97100D02*
X60500D01*
X57200Y57900D02*
Y85100D01*
X69600Y45600D02*
Y47600D01*
Y45600D02*
X72400Y42800D01*
X89400D01*
X111600Y65000D01*
X121400D01*
X92100Y52500D02*
X98600Y59000D01*
Y59900D01*
X49900Y67000D02*
Y97100D01*
Y67000D02*
X50617Y66283D01*
Y64683D02*
X52700Y62600D01*
X50617Y64683D02*
Y66283D01*
X52300Y62200D02*
X52700Y62600D01*
X34100Y62200D02*
X52300D01*
X33000Y61100D02*
X34100Y62200D01*
X62600Y93800D02*
X63200Y94400D01*
X62600Y79700D02*
Y93800D01*
X59600Y76700D02*
X62600Y79700D01*
X57200Y57900D02*
X60200Y54900D01*
X1600Y39000D02*
Y40300D01*
Y39000D02*
X2363Y38237D01*
X5100D01*
X7900Y92600D02*
X22200Y106900D01*
X11100Y54300D02*
X15300Y50100D01*
X22200Y106900D02*
X71500D01*
X73700Y104700D01*
X9800Y37800D02*
X10000D01*
X8300Y36300D02*
X9800Y37800D01*
X5131Y36300D02*
X8300D01*
X5100Y36268D02*
X5131Y36300D01*
X78600Y96300D02*
Y98600D01*
X76700Y94400D02*
X78600Y96300D01*
X63200Y94400D02*
X76700D01*
X60500Y97100D02*
X63200Y94400D01*
X5100Y52017D02*
X10784D01*
X12400Y50400D01*
Y18700D02*
Y50400D01*
Y18700D02*
X15200Y15900D01*
X21800D01*
X14865Y67765D02*
X20651D01*
X15000Y54100D02*
Y56700D01*
X63300Y51000D02*
X66000Y53700D01*
Y57100D01*
X67700Y58800D01*
X93900D02*
X101300Y66200D01*
X67700Y58800D02*
X93900D01*
X59600Y60800D02*
X92200D01*
X92600Y60400D01*
X59600Y60800D02*
X60000Y60400D01*
X92600D02*
X97100Y64900D01*
X101300Y66200D02*
X106800D01*
X16896Y65796D02*
X20651D01*
X16000Y64900D02*
X16896Y65796D01*
X16000Y61600D02*
Y64900D01*
X97100D02*
Y68100D01*
X90400Y66500D02*
X93900Y70000D01*
X28200Y65100D02*
Y67400D01*
X26928Y63828D02*
X28200Y65100D01*
X20651Y63828D02*
X26928D01*
X59400Y88339D02*
Y93300D01*
X63200Y66500D02*
X90400D01*
X5100Y32331D02*
X8531D01*
X9200Y33000D01*
X5100Y34300D02*
X8000D01*
X9200Y33100D01*
Y33000D02*
Y33100D01*
X57000Y84800D02*
Y91600D01*
X56600Y92000D02*
X57000Y91600D01*
X60200Y54900D02*
X62700D01*
X33000Y26400D02*
Y61100D01*
Y26400D02*
X35500D01*
X37400D01*
X58000Y94700D02*
X59400Y93300D01*
X7900Y82000D02*
Y92600D01*
X96100Y106000D02*
X101900Y100200D01*
X80400Y106000D02*
X96100D01*
X74500Y100100D02*
X80400Y106000D01*
X67800Y100100D02*
X74500D01*
X63400Y104500D02*
X67800Y100100D01*
X15300Y38100D02*
Y50100D01*
X11100Y54300D02*
Y89600D01*
X26000Y104500D01*
X63400D01*
X83087Y88087D02*
X87400Y92600D01*
X124100Y31800D02*
Y93700D01*
X126200Y95800D01*
X147200D01*
Y29500D02*
Y95800D01*
X126400Y29500D02*
X147200D01*
X124100Y31800D02*
X126400Y29500D01*
X38705Y92264D02*
X39689D01*
X38705Y71595D02*
Y92264D01*
Y71595D02*
X39689D01*
X57406D01*
Y72579D01*
Y92264D01*
X39689D02*
X57406D01*
D29*
X57400Y22800D02*
X57900Y22300D01*
Y18300D02*
Y22300D01*
Y18300D02*
X60400Y15800D01*
X124600D01*
X138100Y29300D01*
Y57900D01*
X38100Y26400D02*
X40000Y28300D01*
X94900D01*
X97600Y25600D01*
D32*
X0Y120100D02*
X147800D01*
X147638Y0D02*
Y120100D01*
X0Y0D02*
X147638D01*
X0D02*
Y120100D01*
D33*
X28400Y78300D02*
D03*
X123100Y44500D02*
D03*
X122900Y49600D02*
D03*
X131400Y34700D02*
D03*
X131300Y89700D02*
D03*
X57400Y22800D02*
D03*
X138100Y57900D02*
D03*
X97600Y25600D02*
D03*
X69600Y47700D02*
D03*
X92100Y52500D02*
D03*
X121400Y65000D02*
D03*
X59500Y76900D02*
D03*
X41700Y19200D02*
D03*
X85800Y101700D02*
D03*
X1600Y40300D02*
D03*
X7700Y82000D02*
D03*
X73700Y104700D02*
D03*
X10000Y37800D02*
D03*
X15200Y38300D02*
D03*
X63400Y104500D02*
D03*
X47280Y95179D02*
D03*
X49400Y97100D02*
D03*
X78600Y98600D02*
D03*
X21800Y15900D02*
D03*
X15000Y54100D02*
D03*
X63300Y51000D02*
D03*
X59600Y60800D02*
D03*
X106800Y66200D02*
D03*
X16000Y61600D02*
D03*
X97100Y68100D02*
D03*
X28200Y67400D02*
D03*
X60200Y101400D02*
D03*
X58000Y94500D02*
D03*
X63200Y66500D02*
D03*
X45800Y71000D02*
D03*
X62800Y54700D02*
D03*
X56600Y92000D02*
D03*
X52300Y90800D02*
D03*
X43500Y72800D02*
D03*
X57000Y84800D02*
D03*
X59400Y88339D02*
D03*
X86800Y52300D02*
D03*
X28900Y18300D02*
D03*
X51400Y13900D02*
D03*
X53100Y9500D02*
D03*
X70000Y5000D02*
D03*
X78800Y4800D02*
D03*
X96400Y9800D02*
D03*
X83000Y23500D02*
D03*
X85700D02*
D03*
X83000Y20200D02*
D03*
X85700D02*
D03*
X9200Y33000D02*
D03*
X88400Y35300D02*
D03*
X105600Y35400D02*
D03*
X38000Y24100D02*
D03*
X38100Y26400D02*
D03*
X35500D02*
D03*
X33000D02*
D03*
X98600Y59900D02*
D03*
X52700Y62600D02*
D03*
X93800Y82200D02*
D03*
X83700Y33800D02*
D03*
X101900Y100200D02*
D03*
D34*
X7480Y7874D02*
D03*
X140551Y7087D02*
D03*
X6791Y111024D02*
D03*
X140748D02*
D03*
D35*
X83087Y73913D02*
D03*
X78362D02*
D03*
X73638D02*
D03*
X68913D02*
D03*
X83087Y78638D02*
D03*
X78362D02*
D03*
X73638D02*
D03*
X68913D02*
D03*
X83087Y83362D02*
D03*
X78362D02*
D03*
X73638D02*
D03*
X68913D02*
D03*
X83087Y88087D02*
D03*
X78362D02*
D03*
X73638D02*
D03*
X68913D02*
D03*
D36*
X18781Y74359D02*
D03*
X6970D02*
D03*
Y27804D02*
D03*
X18781D02*
D03*
D37*
X20651Y32331D02*
D03*
Y34300D02*
D03*
Y36268D02*
D03*
Y38237D02*
D03*
Y40205D02*
D03*
Y42174D02*
D03*
Y44142D02*
D03*
Y46111D02*
D03*
Y48079D02*
D03*
Y50048D02*
D03*
Y52017D02*
D03*
Y53985D02*
D03*
Y55954D02*
D03*
Y57922D02*
D03*
Y59891D02*
D03*
Y61859D02*
D03*
Y63828D02*
D03*
Y65796D02*
D03*
Y67765D02*
D03*
Y69733D02*
D03*
X5100Y69733D02*
D03*
Y67765D02*
D03*
Y65796D02*
D03*
Y63828D02*
D03*
Y61859D02*
D03*
Y59891D02*
D03*
Y57922D02*
D03*
Y55954D02*
D03*
Y53985D02*
D03*
Y52017D02*
D03*
Y50048D02*
D03*
Y48079D02*
D03*
Y46111D02*
D03*
Y44142D02*
D03*
Y42174D02*
D03*
Y40205D02*
D03*
Y38237D02*
D03*
Y36268D02*
D03*
Y34300D02*
D03*
Y32331D02*
D03*
D38*
X76200Y80700D02*
D03*
M02*
