%FSLAX25Y25*%
%MOIN*%
G70*
G01*
G75*
G04 Layer_Physical_Order=1*
G04 Layer_Color=255*
%ADD10R,0.11811X0.08268*%
%ADD11R,0.05118X0.03150*%
%ADD12R,0.01969X0.01969*%
%ADD13R,0.01969X0.01969*%
%ADD14R,0.19291X0.19291*%
%ADD15O,0.01378X0.03740*%
%ADD16O,0.03740X0.01378*%
%ADD17R,0.07087X0.07480*%
%ADD18R,0.09055X0.07480*%
%ADD19R,0.01575X0.05512*%
%ADD20R,0.04134X0.05118*%
%ADD21R,0.03150X0.06693*%
%ADD22R,0.02559X0.05315*%
%ADD23R,0.02756X0.01181*%
%ADD24R,0.03504X0.06299*%
%ADD25R,0.03740X0.03740*%
%ADD26R,0.01969X0.02362*%
%ADD27R,0.02362X0.01969*%
%ADD28C,0.01000*%
%ADD29C,0.01575*%
%ADD30C,0.03543*%
%ADD31C,0.03150*%
%ADD32C,0.00787*%
%ADD33C,0.02165*%
%ADD34C,0.11811*%
%ADD35C,0.02598*%
G36*
X76493Y62634D02*
X79914Y59214D01*
X79914Y59214D01*
X80274Y58973D01*
X80274Y58973D01*
X80274Y58973D01*
D01*
X80274Y58973D01*
X80274Y58973D01*
X80700Y58888D01*
X80700Y58888D01*
X89039D01*
X94083Y53844D01*
X93962Y53359D01*
X93610Y53252D01*
X93306Y53706D01*
X92753Y54076D01*
X92100Y54206D01*
X91447Y54076D01*
X90894Y53706D01*
X90524Y53153D01*
X90394Y52500D01*
X90416Y52389D01*
X83139Y45112D01*
X43800D01*
X43800Y45112D01*
X43374Y45027D01*
X43014Y44786D01*
X43014Y44786D01*
X37314Y39086D01*
X37073Y38726D01*
X36988Y38300D01*
X36988Y38300D01*
Y28139D01*
X34112D01*
Y49400D01*
X34112Y49400D01*
X34027Y49826D01*
X33786Y50186D01*
X33786Y50186D01*
X31886Y52086D01*
X31525Y52327D01*
X31100Y52412D01*
Y52535D01*
X31454Y52888D01*
X35439D01*
X38114Y50214D01*
X38475Y49973D01*
X38900Y49888D01*
X62031D01*
X62094Y49794D01*
X62647Y49424D01*
X63300Y49294D01*
X63953Y49424D01*
X64506Y49794D01*
X64876Y50347D01*
X65006Y51000D01*
X64876Y51653D01*
X64813Y51747D01*
X65049Y52188D01*
X67249D01*
Y49363D01*
X68302D01*
Y48770D01*
X68024Y48353D01*
X67894Y47700D01*
X68024Y47047D01*
X68394Y46494D01*
X68947Y46124D01*
X69600Y45994D01*
X70253Y46124D01*
X70806Y46494D01*
X71176Y47047D01*
X71306Y47700D01*
X71176Y48353D01*
X70806Y48906D01*
X70526Y49094D01*
Y49363D01*
X71579D01*
Y57237D01*
X67249D01*
Y54412D01*
X65954D01*
X64506Y54700D01*
X64376Y55353D01*
X64006Y55906D01*
X63453Y56276D01*
X62800Y56406D01*
X62147Y56276D01*
X61594Y55906D01*
X61224Y55353D01*
X61094Y54700D01*
X61224Y54047D01*
X61594Y53494D01*
X62147Y53124D01*
X62523Y53049D01*
X62621Y52559D01*
X62094Y52206D01*
X62031Y52112D01*
X39361D01*
X36686Y54786D01*
X36325Y55027D01*
X35900Y55112D01*
X35900Y55112D01*
X16336D01*
X16206Y55306D01*
X15653Y55676D01*
X15000Y55806D01*
X15082Y55888D01*
X60300D01*
X60300Y55888D01*
X60725Y55973D01*
X61086Y56214D01*
X63961Y59088D01*
X73200D01*
X73200Y59088D01*
X73625Y59173D01*
X73986Y59414D01*
X75507Y60934D01*
X75748Y61295D01*
X75832Y61721D01*
X75832Y61721D01*
Y62762D01*
X76311Y62907D01*
X76493Y62634D01*
D02*
G37*
G36*
X29948Y20748D02*
X30148Y20548D01*
X30600Y20361D01*
X35814D01*
Y18176D01*
X35814Y18176D01*
X35814D01*
X35814Y18019D01*
Y17822D01*
D01*
D01*
D01*
X35814D01*
D01*
Y15460D01*
X36671D01*
Y13943D01*
X36439Y13712D01*
X27061D01*
X26761Y14012D01*
X26775Y14046D01*
X26775D01*
X26775Y14046D01*
Y17195D01*
D01*
Y17195D01*
X26775Y17195D01*
Y17589D01*
X26775D01*
Y20739D01*
D01*
Y20739D01*
X26829Y20792D01*
X29930D01*
X29948Y20748D01*
D02*
G37*
G36*
X70700Y25900D02*
Y19100D01*
X63500D01*
X63200Y19400D01*
X63000Y19600D01*
Y25900D01*
X63200Y26100D01*
X70500D01*
X70700Y25900D01*
D02*
G37*
G36*
X94088Y51602D02*
Y41039D01*
X93525D01*
Y40576D01*
X92875D01*
Y41039D01*
X89725D01*
Y37889D01*
X92875D01*
Y38352D01*
X93525D01*
X93525Y37889D01*
X93525D01*
X93525Y37495D01*
X93525D01*
Y34346D01*
X93888D01*
Y32561D01*
X93139Y31812D01*
X75900D01*
X75900Y31812D01*
X75475Y31727D01*
X75114Y31486D01*
X75114Y31486D01*
X71873Y28245D01*
X71632Y27885D01*
X71547Y27459D01*
X71547Y27459D01*
Y26610D01*
X71085Y26419D01*
X70952Y26552D01*
X70500Y26739D01*
X63200D01*
X62748Y26552D01*
X62548Y26352D01*
X62361Y25900D01*
Y25508D01*
X53536D01*
X53352Y25952D01*
X53252Y26052D01*
X52800Y26239D01*
X44465D01*
X44274Y26701D01*
X51761Y34188D01*
X67461D01*
Y33725D01*
X70611D01*
Y33725D01*
X70611D01*
X70611Y33725D01*
X71005D01*
Y33725D01*
X74154D01*
Y34188D01*
X74665D01*
Y33725D01*
X78208D01*
Y36875D01*
X74665D01*
Y36412D01*
X74154D01*
Y36875D01*
X71005D01*
D01*
D01*
X71005Y36875D01*
X70611D01*
Y36875D01*
X67461D01*
Y36412D01*
X51300D01*
X50875Y36327D01*
X50514Y36086D01*
X41939Y27512D01*
X39710D01*
X39652Y27652D01*
X39352Y27952D01*
X39212Y28010D01*
Y37839D01*
X44261Y42888D01*
X83600D01*
X83600Y42888D01*
X84026Y42973D01*
X84386Y43214D01*
X91989Y50816D01*
X92100Y50794D01*
X92753Y50924D01*
X93306Y51294D01*
X93610Y51748D01*
X94088Y51602D01*
D02*
G37*
G36*
X52900Y25500D02*
Y21200D01*
X52800Y21100D01*
X44200D01*
Y25500D01*
X44300Y25600D01*
X52800D01*
X52900Y25500D01*
D02*
G37*
G36*
X39200Y27200D02*
Y21200D01*
Y21000D01*
X30600D01*
X30400Y21200D01*
Y25100D01*
D01*
Y27300D01*
X30600Y27500D01*
X38900D01*
X39200Y27200D01*
D02*
G37*
G36*
X147200Y400D02*
X500D01*
Y38492D01*
X941Y38728D01*
X947Y38724D01*
X1600Y38594D01*
X2253Y38724D01*
X2806Y39094D01*
X3176Y39647D01*
X3306Y40300D01*
X3176Y40953D01*
X2806Y41506D01*
X2512Y41703D01*
Y56453D01*
X2990Y56598D01*
X3114Y56414D01*
X3577Y55950D01*
X3577Y55950D01*
X3938Y55709D01*
X4364Y55624D01*
X4725D01*
Y54965D01*
X5188D01*
Y54100D01*
X5188Y54100D01*
X5273Y53675D01*
X5514Y53314D01*
X8314Y50514D01*
X8314Y50514D01*
X8675Y50273D01*
X8675Y50273D01*
X8675Y50273D01*
D01*
X8675Y50273D01*
X8675Y50273D01*
X9100Y50188D01*
X9100Y50188D01*
X30639D01*
X31888Y48939D01*
Y28139D01*
X30600D01*
X30148Y27952D01*
X29948Y27752D01*
X29761Y27300D01*
Y25208D01*
X15914D01*
X14108Y27014D01*
Y31500D01*
X13940Y32345D01*
X13461Y33061D01*
X11961Y34561D01*
X11245Y35040D01*
X10400Y35208D01*
X9300D01*
X8455Y35040D01*
X7739Y34561D01*
X7260Y33845D01*
X7092Y33000D01*
X7260Y32155D01*
X7739Y31439D01*
X8455Y30960D01*
X9300Y30792D01*
X9486D01*
X9692Y30586D01*
Y26100D01*
X9860Y25255D01*
X10339Y24539D01*
X10339Y24539D01*
X10339Y24539D01*
X13439Y21439D01*
X13439Y21439D01*
X13439D01*
X13439Y21439D01*
X13439D01*
X13439Y21439D01*
Y21439D01*
Y21439D01*
D01*
D01*
X13439D01*
Y21439D01*
X14155Y20960D01*
X15000Y20792D01*
X23625D01*
Y20739D01*
X23625D01*
Y17589D01*
X23625Y17589D01*
X23625Y17195D01*
X23625D01*
Y17041D01*
X23147Y16896D01*
X23006Y17106D01*
X22453Y17476D01*
X21800Y17606D01*
X21147Y17476D01*
X20594Y17106D01*
X20224Y16553D01*
X20094Y15900D01*
X20224Y15247D01*
X20594Y14694D01*
X21147Y14324D01*
X21800Y14194D01*
X22453Y14324D01*
X22729Y14509D01*
X23625D01*
Y14046D01*
X23860D01*
X24088Y14000D01*
X24173Y13575D01*
X24414Y13214D01*
X25814Y11814D01*
X26175Y11573D01*
X26600Y11488D01*
X26600Y11488D01*
X36900D01*
X36900Y11488D01*
X37326Y11573D01*
X37686Y11814D01*
X38569Y12696D01*
X38569Y12696D01*
X38810Y13057D01*
X38810Y13057D01*
X38810Y13057D01*
X38895Y13483D01*
X38895Y13483D01*
Y15460D01*
X39751D01*
Y17665D01*
X39751Y17665D01*
D01*
D01*
D01*
D01*
D01*
X39751Y17822D01*
Y17849D01*
Y17921D01*
X39751Y18019D01*
D01*
X39751Y18176D01*
X39751Y18176D01*
X39751D01*
Y20381D01*
D01*
Y20381D01*
X39751Y20381D01*
Y20578D01*
X39751D01*
Y20787D01*
X39839Y21000D01*
Y25000D01*
Y25288D01*
X42400D01*
X42400Y25288D01*
X42825Y25373D01*
X43120Y25569D01*
X43358Y25442D01*
X43561Y25239D01*
Y21100D01*
X43649Y20888D01*
Y20578D01*
X43917D01*
X44200Y20461D01*
X44514D01*
X44831Y19986D01*
X44590Y19625D01*
X44505Y19200D01*
X44590Y18775D01*
X44831Y18414D01*
X45000Y18301D01*
X44855Y17822D01*
X43649D01*
Y15460D01*
X47586D01*
Y16988D01*
X48048Y17180D01*
X48414Y16814D01*
X48414Y16814D01*
X48630Y16669D01*
X48774Y16573D01*
X49200Y16488D01*
X49588D01*
Y14700D01*
X49588Y14700D01*
X49673Y14275D01*
X49914Y13914D01*
X50514Y13314D01*
X50875Y13073D01*
X51300Y12988D01*
X51726Y13073D01*
X52086Y13314D01*
X52327Y13675D01*
X52412Y14100D01*
X52327Y14525D01*
X52086Y14886D01*
X51812Y15161D01*
Y17600D01*
X51727Y18025D01*
X51486Y18386D01*
X51126Y18627D01*
X50700Y18712D01*
X49661D01*
X48386Y19986D01*
X48703Y20461D01*
X52800D01*
X53252Y20648D01*
X53295Y20692D01*
X62361D01*
Y19600D01*
X62548Y19148D01*
X62748Y18948D01*
X63048Y18648D01*
X63500Y18461D01*
X70700D01*
X70924Y18554D01*
X79155D01*
Y25246D01*
X76171D01*
Y26298D01*
X77461Y27588D01*
X96000D01*
X96000Y27588D01*
X96425Y27673D01*
X96786Y27914D01*
X99286Y30414D01*
X99286Y30414D01*
X99527Y30775D01*
X99612Y31200D01*
Y34346D01*
X100475D01*
Y37495D01*
D01*
Y37495D01*
X100475Y37495D01*
Y37889D01*
D01*
X100475Y38352D01*
X101025D01*
Y37889D01*
X104175D01*
Y38424D01*
X104725D01*
Y37961D01*
X107875D01*
Y41111D01*
D01*
Y41111D01*
X107875Y41111D01*
Y41505D01*
X107875D01*
Y44654D01*
X107412D01*
Y46620D01*
X108170D01*
Y53116D01*
X104430D01*
Y46620D01*
X105188D01*
Y44654D01*
X104725D01*
Y41505D01*
X104725Y41505D01*
X104725Y41111D01*
D01*
X104725Y40648D01*
X104175D01*
Y41039D01*
X101025D01*
Y40576D01*
X100475D01*
Y41039D01*
X100012D01*
Y54700D01*
X100012Y54700D01*
X99927Y55125D01*
X99686Y55486D01*
X93046Y62126D01*
X93238Y62588D01*
X108339D01*
X108885Y62042D01*
X108694Y61580D01*
X108170D01*
Y55084D01*
X111910D01*
Y61580D01*
X111152D01*
Y62460D01*
X111067Y62885D01*
X110826Y63246D01*
X109586Y64486D01*
X109225Y64727D01*
X108800Y64812D01*
X108800Y64812D01*
X108415D01*
X108179Y65253D01*
X108376Y65547D01*
X108506Y66200D01*
X108376Y66853D01*
X108006Y67406D01*
X107453Y67776D01*
X106800Y67906D01*
X106147Y67776D01*
X105901Y67612D01*
X105354D01*
Y68075D01*
X102205D01*
D01*
D01*
X102205Y68075D01*
X101811D01*
Y68075D01*
X98827D01*
X98806Y68100D01*
X98676Y68753D01*
X98306Y69306D01*
X97753Y69676D01*
X97100Y69806D01*
X96956Y69777D01*
X96680Y69832D01*
X96680Y69832D01*
X95475D01*
X95475Y70295D01*
D01*
Y70689D01*
X95475D01*
Y73839D01*
X92325D01*
Y73155D01*
X91467D01*
X91322Y73634D01*
X91391Y73680D01*
X91391D01*
X91391Y73680D01*
X91674Y74103D01*
X91773Y74602D01*
X91674Y75102D01*
X91391Y75525D01*
X90968Y75808D01*
X91391Y76239D01*
X91391D01*
Y76239D01*
D01*
D01*
X91391D01*
X91674Y76662D01*
X91773Y77161D01*
X91674Y77661D01*
X91391Y78084D01*
X90968Y78367D01*
X91391Y78798D01*
X91391D01*
Y78798D01*
D01*
D01*
X91391D01*
X91674Y79221D01*
X91773Y79720D01*
X91674Y80220D01*
X91391Y80643D01*
X90968Y80926D01*
D01*
D01*
Y80926D01*
X91103Y81164D01*
X91101Y81163D01*
X91103Y81164D01*
X91107Y81168D01*
X92478D01*
X92594Y80994D01*
X93147Y80624D01*
X93800Y80494D01*
X94453Y80624D01*
X95006Y80994D01*
X95376Y81547D01*
X95506Y82200D01*
X95376Y82853D01*
X95006Y83406D01*
X94453Y83776D01*
X93800Y83906D01*
X93147Y83776D01*
X92594Y83406D01*
X92584Y83391D01*
X91467D01*
X91322Y83870D01*
X91391Y83916D01*
X91391D01*
X91391Y83916D01*
X91674Y84339D01*
X91773Y84839D01*
X91674Y85338D01*
X91391Y85761D01*
X90968Y86044D01*
X91391Y86475D01*
X91391D01*
Y86475D01*
D01*
D01*
X91391D01*
X91674Y86898D01*
X91773Y87398D01*
X91674Y87897D01*
X91391Y88320D01*
X90968Y88603D01*
X91391Y89034D01*
X91391D01*
Y89034D01*
D01*
D01*
X91391D01*
X91674Y89457D01*
X91773Y89957D01*
X91674Y90456D01*
X91391Y90879D01*
X90968Y91162D01*
X90469Y91261D01*
X88828D01*
X88383Y91710D01*
X88625Y92070D01*
X88712Y92495D01*
X88629Y92921D01*
X88390Y93283D01*
X88030Y93525D01*
X87605Y93612D01*
X87179Y93529D01*
X86817Y93290D01*
X86723Y93196D01*
X86261Y93388D01*
Y95468D01*
X86162Y95968D01*
X85879Y96391D01*
X85456Y96674D01*
X84957Y96773D01*
X84457Y96674D01*
X84034Y96391D01*
X83927Y96231D01*
X83427D01*
X83320Y96391D01*
X82897Y96674D01*
X82398Y96773D01*
X81898Y96674D01*
X81475Y96391D01*
X81368Y96231D01*
X80868D01*
X80761Y96391D01*
X80338Y96674D01*
X79839Y96773D01*
X79727Y96751D01*
X79536Y97213D01*
X79806Y97394D01*
X80176Y97947D01*
X80306Y98600D01*
X80176Y99253D01*
X79832Y99767D01*
Y100125D01*
X80295D01*
Y103235D01*
X80295Y103235D01*
D01*
D01*
X80295Y103275D01*
D01*
X80609Y103588D01*
X109639D01*
X111988Y101239D01*
Y82900D01*
X111988Y82900D01*
X112073Y82474D01*
X112314Y82114D01*
X120247Y74181D01*
X120247Y74181D01*
X120607Y73940D01*
X120607Y73940D01*
X120608Y73940D01*
D01*
X120608Y73940D01*
X120608Y73940D01*
X121033Y73855D01*
X121033Y73855D01*
X125724D01*
Y72802D01*
X132023D01*
Y77132D01*
X125724D01*
Y76079D01*
X121494D01*
X114212Y83361D01*
Y101700D01*
X114127Y102126D01*
X113886Y102486D01*
X110886Y105486D01*
X110526Y105727D01*
X110100Y105812D01*
X110100Y105812D01*
X74969D01*
X74906Y105906D01*
X74353Y106276D01*
X73700Y106406D01*
X73047Y106276D01*
X72494Y105906D01*
X72124Y105353D01*
X71994Y104700D01*
X72124Y104047D01*
X72205Y103926D01*
X72205Y103275D01*
X71811D01*
Y103275D01*
X68661D01*
D01*
D01*
X68661Y103275D01*
X68639D01*
Y103275D01*
X65489D01*
D01*
D01*
X65489Y103275D01*
X65124D01*
X65077Y103363D01*
X64976Y103847D01*
X65106Y104500D01*
X64976Y105153D01*
X64606Y105706D01*
X64053Y106076D01*
X63400Y106206D01*
X62747Y106076D01*
X62194Y105706D01*
X61824Y105153D01*
X61694Y104500D01*
X61824Y103847D01*
X61946Y103665D01*
X61946Y103275D01*
X61946D01*
Y101970D01*
X61448Y101921D01*
X61427Y102025D01*
X61186Y102386D01*
X60826Y102627D01*
X60400Y102712D01*
X59974Y102627D01*
X59614Y102386D01*
X59414Y102186D01*
X59414Y102186D01*
X59003Y101776D01*
X56800D01*
X56375Y101691D01*
X56014Y101450D01*
X55773Y101089D01*
X55688Y100664D01*
X55773Y100238D01*
X56014Y99878D01*
X56375Y99637D01*
X56800Y99552D01*
X59464D01*
X59464Y99552D01*
X59889Y99637D01*
X60250Y99878D01*
X60986Y100614D01*
X60986Y100614D01*
X61186Y100814D01*
X61427Y101174D01*
X61448Y101279D01*
X61946Y101230D01*
Y100125D01*
X65095D01*
Y100125D01*
X65095D01*
X65095Y100125D01*
X65489D01*
D01*
X65952Y100125D01*
Y96138D01*
X65838Y95968D01*
X65739Y95468D01*
Y93106D01*
X65838Y92607D01*
X66121Y92184D01*
X66544Y91901D01*
X67043Y91802D01*
X67543Y91901D01*
X67966Y92184D01*
X68073Y92344D01*
X68573D01*
X68680Y92184D01*
X69103Y91901D01*
X69602Y91802D01*
X70102Y91901D01*
X70525Y92184D01*
X70632Y92344D01*
X71132D01*
X71239Y92184D01*
X71662Y91901D01*
X72161Y91802D01*
X72661Y91901D01*
X73084Y92184D01*
X73191Y92344D01*
X73691D01*
X73798Y92184D01*
X74221Y91901D01*
X74721Y91802D01*
X75220Y91901D01*
X75643Y92184D01*
X75750Y92344D01*
X76250D01*
X76357Y92184D01*
X76780Y91901D01*
X77280Y91802D01*
X77779Y91901D01*
X78202Y92184D01*
X78309Y92344D01*
X78809D01*
X78916Y92184D01*
X79339Y91901D01*
X79839Y91802D01*
X80338Y91901D01*
X80761Y92184D01*
X80868Y92344D01*
X81368D01*
X81475Y92184D01*
X81898Y91901D01*
X82398Y91802D01*
X82897Y91901D01*
X83320Y92184D01*
X83427Y92344D01*
X83927D01*
X84034Y92184D01*
X84457Y91901D01*
X84734Y91846D01*
X84878Y91367D01*
X82334Y88845D01*
X82334Y88845D01*
X79451Y85987D01*
X77589Y84142D01*
X77589Y84141D01*
X75217Y81790D01*
X75107Y81626D01*
X74991Y81467D01*
X74986Y81447D01*
X74975Y81430D01*
X74935Y81237D01*
X74889Y81045D01*
X74892Y81025D01*
X74888Y81005D01*
X74926Y80812D01*
X74956Y80617D01*
X74967Y80599D01*
X74971Y80579D01*
X75080Y80415D01*
X75182Y80247D01*
X75199Y80234D01*
X75210Y80217D01*
X75374Y80107D01*
X75533Y79991D01*
X75553Y79986D01*
X75570Y79975D01*
X75763Y79935D01*
X75955Y79889D01*
X75975Y79892D01*
X75995Y79888D01*
X76188Y79926D01*
X76383Y79956D01*
X76401Y79967D01*
X76421Y79971D01*
X76585Y80080D01*
X76753Y80182D01*
X79208Y82444D01*
X79236Y82482D01*
X79273Y82509D01*
X79281Y82518D01*
X79378Y82677D01*
X79464Y82795D01*
X79473Y82833D01*
X79507Y82888D01*
X79511Y82915D01*
X81016Y84407D01*
X81016Y84407D01*
X83900Y87266D01*
X83900Y87266D01*
X83900Y87266D01*
X86396Y89740D01*
X86874Y89594D01*
X86901Y89457D01*
X87184Y89034D01*
X87344Y88927D01*
Y88427D01*
X87184Y88320D01*
X86901Y87897D01*
X86802Y87398D01*
X86901Y86898D01*
X87184Y86475D01*
X87344Y86368D01*
Y85868D01*
X87184Y85761D01*
X86901Y85338D01*
X86802Y84839D01*
X86901Y84339D01*
X87184Y83916D01*
X87344Y83809D01*
Y83309D01*
X87184Y83202D01*
X86901Y82779D01*
X86802Y82279D01*
X86901Y81780D01*
X87184Y81357D01*
X87344Y81250D01*
Y80750D01*
X87184Y80643D01*
X86901Y80220D01*
X86802Y79720D01*
X86901Y79221D01*
X87184Y78798D01*
X87344Y78691D01*
Y78191D01*
X87184Y78084D01*
X86901Y77661D01*
X86802Y77161D01*
X86901Y76662D01*
X87184Y76239D01*
X87344Y76132D01*
Y75632D01*
X87184Y75525D01*
X86901Y75102D01*
X86802Y74602D01*
X86901Y74103D01*
X87184Y73680D01*
X87344Y73573D01*
Y73073D01*
X87184Y72966D01*
X86901Y72543D01*
X86802Y72043D01*
X86901Y71544D01*
X87184Y71121D01*
X87607Y70838D01*
X88106Y70739D01*
X90469D01*
X90968Y70838D01*
X91107Y70931D01*
X92325D01*
X92325Y70689D01*
X92325D01*
X92325Y70295D01*
X92325D01*
Y67146D01*
D01*
Y67146D01*
X91991Y66812D01*
X90261D01*
X88574Y68499D01*
X88213Y68740D01*
X87787Y68824D01*
X87787Y68824D01*
X86261D01*
Y68894D01*
X86162Y69393D01*
X85879Y69816D01*
X85456Y70099D01*
X84957Y70198D01*
X84457Y70099D01*
X84034Y69816D01*
X83927Y69656D01*
X83427D01*
X83320Y69816D01*
X82897Y70099D01*
X82398Y70198D01*
X81898Y70099D01*
X81475Y69816D01*
X81368Y69656D01*
X80868D01*
X80761Y69816D01*
X80338Y70099D01*
X79839Y70198D01*
X79339Y70099D01*
X78916Y69816D01*
X78809Y69656D01*
X78309D01*
X78202Y69816D01*
X77779Y70099D01*
X77280Y70198D01*
X76780Y70099D01*
X76357Y69816D01*
X76250Y69656D01*
X75750D01*
X75643Y69816D01*
X75220Y70099D01*
X74721Y70198D01*
X74221Y70099D01*
X73798Y69816D01*
X73691Y69656D01*
X73191D01*
X73084Y69816D01*
X72661Y70099D01*
X72161Y70198D01*
X71662Y70099D01*
X71239Y69816D01*
X71132Y69656D01*
X70632D01*
X70525Y69816D01*
X70102Y70099D01*
X69602Y70198D01*
X69103Y70099D01*
X68680Y69816D01*
X68573Y69656D01*
X68073D01*
X67966Y69816D01*
X67543Y70099D01*
X67043Y70198D01*
X66544Y70099D01*
X66121Y69816D01*
X65838Y69393D01*
X65739Y68894D01*
Y66531D01*
X65838Y66032D01*
X65888Y65957D01*
Y64975D01*
X65289D01*
D01*
D01*
X65289Y64975D01*
X64895D01*
Y64975D01*
X64724D01*
X64488Y65416D01*
X64776Y65847D01*
X64906Y66500D01*
X64776Y67153D01*
X64406Y67706D01*
X63853Y68076D01*
X63200Y68206D01*
X62547Y68076D01*
X61994Y67706D01*
X61905Y67573D01*
X61674Y67527D01*
X61314Y67286D01*
X60239Y66212D01*
X56438D01*
X56246Y66674D01*
X60504Y70931D01*
X60892D01*
X61032Y70838D01*
X61532Y70739D01*
X63894D01*
X64393Y70838D01*
X64816Y71121D01*
X65099Y71544D01*
X65198Y72043D01*
X65099Y72543D01*
X64816Y72966D01*
X64393Y73249D01*
X64816Y73680D01*
X64816D01*
Y73680D01*
D01*
D01*
X64816D01*
X65099Y74103D01*
X65198Y74602D01*
X65099Y75102D01*
X64816Y75525D01*
X64393Y75808D01*
X64816Y76239D01*
X64816D01*
Y76239D01*
D01*
D01*
X64816D01*
X65099Y76662D01*
X65198Y77161D01*
X65099Y77661D01*
X64816Y78084D01*
X64393Y78367D01*
X64816Y78798D01*
X64816D01*
Y78798D01*
D01*
D01*
D01*
X64816D01*
X65099Y79221D01*
X65198Y79720D01*
X65099Y80220D01*
X64816Y80643D01*
X64393Y80926D01*
X64816Y81357D01*
X64816D01*
Y81357D01*
D01*
D01*
X64816D01*
X65099Y81780D01*
X65198Y82279D01*
X65099Y82779D01*
X64816Y83202D01*
X64393Y83485D01*
X64816Y83916D01*
X64816D01*
Y83916D01*
D01*
D01*
X64816D01*
X65099Y84339D01*
X65198Y84839D01*
X65099Y85338D01*
X64816Y85761D01*
X64393Y86044D01*
X64816Y86475D01*
X64816D01*
Y86475D01*
D01*
D01*
X64816D01*
X65099Y86898D01*
X65198Y87398D01*
X65099Y87897D01*
X64816Y88320D01*
X64393Y88603D01*
X64816Y89034D01*
X64816D01*
Y89034D01*
D01*
D01*
X64816D01*
X65099Y89457D01*
X65198Y89957D01*
X65099Y90456D01*
X64816Y90879D01*
X64393Y91162D01*
X63894Y91261D01*
X63851D01*
X63824Y91287D01*
Y91287D01*
X63824D01*
D01*
D01*
D01*
X63740Y91713D01*
X63499Y92074D01*
X62786Y92786D01*
X62426Y93027D01*
X62000Y93112D01*
X62000Y93112D01*
X59615D01*
X59380Y93553D01*
X59576Y93847D01*
X59706Y94500D01*
X59576Y95153D01*
X59206Y95706D01*
X58653Y96076D01*
X58375Y96131D01*
Y98695D01*
X55225D01*
Y98232D01*
X54475D01*
X54475Y98695D01*
D01*
Y99089D01*
X54475D01*
Y102239D01*
X51325D01*
Y101761D01*
X50975Y101691D01*
X50614Y101450D01*
X50614Y101450D01*
X48714Y99550D01*
X48473Y99189D01*
X48388Y98764D01*
X48388Y98764D01*
Y98436D01*
X48194Y98306D01*
X47824Y97753D01*
X47694Y97100D01*
X47791Y96614D01*
X47437Y96260D01*
X47280Y96291D01*
X46854Y96207D01*
X46493Y95966D01*
X46252Y95605D01*
X46168Y95179D01*
Y92900D01*
X46252Y92475D01*
X46493Y92114D01*
X46854Y91873D01*
X47280Y91788D01*
X47705Y91873D01*
X48066Y92114D01*
X48307Y92475D01*
X48391Y92900D01*
Y95179D01*
Y95179D01*
X48339Y95443D01*
X48747Y95524D01*
D01*
D01*
D01*
X48747Y95524D01*
X49400Y95394D01*
X50053Y95524D01*
X50606Y95894D01*
X50847Y96254D01*
X51325Y96108D01*
Y95546D01*
X53688D01*
Y95100D01*
X53688Y95100D01*
X53773Y94674D01*
X54014Y94314D01*
X54614Y93714D01*
X54614Y93714D01*
X54975Y93473D01*
X54975Y93473D01*
X54975Y93473D01*
D01*
X54975Y93473D01*
X54975Y93473D01*
X55060Y93456D01*
X55252Y92994D01*
X55024Y92653D01*
X54894Y92000D01*
X55024Y91347D01*
X55394Y90794D01*
X55947Y90424D01*
X56600Y90294D01*
X57253Y90424D01*
X57806Y90794D01*
X57869Y90888D01*
X59679D01*
X60093Y90612D01*
X60191Y90121D01*
X60053Y89915D01*
X59400Y90045D01*
X58747Y89915D01*
X58194Y89545D01*
X57824Y88991D01*
X57694Y88339D01*
X57824Y87686D01*
X58194Y87132D01*
X58747Y86762D01*
X59144Y86683D01*
X59216Y86611D01*
X59216Y86611D01*
X59489Y86429D01*
X59344Y85950D01*
X58244D01*
X58206Y86006D01*
X57653Y86376D01*
X57000Y86506D01*
X56347Y86376D01*
X55794Y86006D01*
X55424Y85453D01*
X55294Y84800D01*
X55424Y84147D01*
X55634Y83832D01*
X55398Y83391D01*
X48781D01*
X46874Y85299D01*
Y89705D01*
X44848D01*
Y91325D01*
X45311D01*
Y94475D01*
X42161D01*
Y91325D01*
X42624D01*
Y89705D01*
X41559D01*
Y83406D01*
X45622D01*
X47534Y81493D01*
X47895Y81252D01*
X48320Y81168D01*
X48320Y81168D01*
X57462D01*
X57607Y80689D01*
X57334Y80507D01*
X57334Y80507D01*
X56339Y79512D01*
X54158D01*
Y80650D01*
X48842D01*
Y74350D01*
X51052D01*
Y72575D01*
X50589D01*
Y69512D01*
X49218D01*
X49072Y69990D01*
X49407Y70214D01*
X49648Y70574D01*
X49732Y71000D01*
X49648Y71425D01*
X49407Y71786D01*
X49046Y72027D01*
X48621Y72112D01*
X45800D01*
X45375Y72027D01*
X45014Y71786D01*
X44773Y71425D01*
X44688Y71000D01*
X44773Y70574D01*
X45014Y70214D01*
X45348Y69990D01*
X45203Y69512D01*
X39397D01*
X34302Y74607D01*
X33941Y74848D01*
X33516Y74932D01*
X33516Y74932D01*
X12475D01*
X12475Y75395D01*
D01*
Y75789D01*
X12475D01*
Y78939D01*
X9325D01*
Y78476D01*
X7875D01*
Y79151D01*
X4725D01*
Y75962D01*
X4725Y75961D01*
X4725D01*
X4725Y75608D01*
X4725Y75608D01*
X4725D01*
D01*
Y74948D01*
X3900D01*
X3475Y74863D01*
X3114Y74622D01*
X2990Y74438D01*
X2512Y74583D01*
Y79439D01*
X3961Y80888D01*
X6431D01*
X6494Y80794D01*
X7047Y80424D01*
X7700Y80294D01*
X8353Y80424D01*
X8906Y80794D01*
X9276Y81347D01*
X9406Y82000D01*
X9276Y82653D01*
X8906Y83206D01*
X8353Y83576D01*
X7700Y83706D01*
X7047Y83576D01*
X6494Y83206D01*
X6431Y83112D01*
X3500D01*
X3500Y83112D01*
X3074Y83027D01*
X2714Y82786D01*
X962Y81034D01*
X500Y81226D01*
Y119700D01*
X147200D01*
Y400D01*
D02*
G37*
%LPC*%
G36*
X79400Y11791D02*
X78974Y11707D01*
X78614Y11466D01*
X78373Y11105D01*
X78288Y10679D01*
Y5961D01*
X77914Y5586D01*
X77673Y5226D01*
X77588Y4800D01*
X77673Y4374D01*
X77914Y4014D01*
X78275Y3773D01*
X78700Y3688D01*
X79125Y3773D01*
X79486Y4014D01*
X80186Y4714D01*
X80427Y5074D01*
X80512Y5500D01*
X80512Y5500D01*
Y10679D01*
X80427Y11105D01*
X80186Y11466D01*
X79826Y11707D01*
X79400Y11791D01*
D02*
G37*
G36*
X132200Y36512D02*
X131774Y36427D01*
X131414Y36186D01*
X131414Y36186D01*
X130814Y35586D01*
X130573Y35225D01*
X130488Y34800D01*
X130573Y34374D01*
X130814Y34014D01*
X131175Y33773D01*
X131600Y33688D01*
X132026Y33773D01*
X132386Y34014D01*
X132661Y34288D01*
X139700D01*
X140126Y34373D01*
X140486Y34614D01*
X140727Y34975D01*
X140812Y35400D01*
X140727Y35825D01*
X140486Y36186D01*
X140126Y36427D01*
X139700Y36512D01*
X132200D01*
X132200Y36512D01*
D02*
G37*
G36*
X102600Y37032D02*
X102174Y36948D01*
X101814Y36707D01*
X101573Y36346D01*
X101488Y35921D01*
X101573Y35495D01*
X101814Y35134D01*
X102334Y34614D01*
X102334Y34614D01*
X102695Y34373D01*
X102695Y34373D01*
X102695Y34373D01*
D01*
X102695Y34373D01*
X102695Y34373D01*
X103121Y34288D01*
X103121Y34288D01*
X105600D01*
X106026Y34373D01*
X106386Y34614D01*
X106627Y34975D01*
X106712Y35400D01*
X106627Y35825D01*
X106386Y36186D01*
X106026Y36427D01*
X105600Y36512D01*
X103581D01*
X103386Y36707D01*
X103025Y36948D01*
X102600Y37032D01*
D02*
G37*
G36*
X89021D02*
X88595Y36948D01*
X88234Y36707D01*
X88234Y36707D01*
X87614Y36086D01*
X87373Y35726D01*
X87288Y35300D01*
X87373Y34874D01*
X87614Y34514D01*
X87975Y34273D01*
X88400Y34188D01*
X88826Y34273D01*
X89186Y34514D01*
X89481Y34809D01*
X91300D01*
X91725Y34893D01*
X92086Y35134D01*
X92327Y35495D01*
X92412Y35921D01*
X92327Y36346D01*
X92086Y36707D01*
X91725Y36948D01*
X91300Y37032D01*
X89021D01*
X89021Y37032D01*
D02*
G37*
G36*
X82800Y36412D02*
X82800Y36412D01*
X79979D01*
X79554Y36327D01*
X79193Y36086D01*
X78952Y35726D01*
X78868Y35300D01*
X78952Y34874D01*
X79193Y34514D01*
X79554Y34273D01*
X79979Y34188D01*
X82339D01*
X82703Y33824D01*
X82773Y33474D01*
X83014Y33114D01*
X83375Y32873D01*
X83800Y32788D01*
X84225Y32873D01*
X84586Y33114D01*
X84827Y33474D01*
X84912Y33900D01*
Y34300D01*
X84827Y34725D01*
X84731Y34870D01*
X84586Y35086D01*
X84586Y35086D01*
X83586Y36086D01*
X83226Y36327D01*
X82800Y36412D01*
D02*
G37*
G36*
X95621Y11791D02*
X95620Y11791D01*
X89600D01*
X89174Y11707D01*
X88814Y11466D01*
X88573Y11105D01*
X88488Y10679D01*
X88573Y10254D01*
X88814Y9893D01*
X89174Y9652D01*
X89600Y9568D01*
X95160D01*
X95714Y9014D01*
X96074Y8773D01*
X96500Y8688D01*
X96925Y8773D01*
X97286Y9014D01*
X97527Y9375D01*
X97612Y9800D01*
X97527Y10226D01*
X97286Y10586D01*
X96407Y11466D01*
X96046Y11707D01*
X95621Y11791D01*
D02*
G37*
G36*
X28900Y19312D02*
X28475Y19227D01*
X28114Y18986D01*
X27873Y18625D01*
X27788Y18200D01*
X27873Y17774D01*
X28114Y17414D01*
X28814Y16714D01*
X29175Y16473D01*
X29600Y16388D01*
X29600Y16388D01*
X32700D01*
X33125Y16473D01*
X33486Y16714D01*
X33727Y17075D01*
X33812Y17500D01*
X33727Y17925D01*
X33486Y18286D01*
X33125Y18527D01*
X32700Y18612D01*
X30061D01*
X29686Y18986D01*
X29326Y19227D01*
X28900Y19312D01*
D02*
G37*
G36*
X70400Y11791D02*
X69974Y11707D01*
X69614Y11466D01*
X69373Y11105D01*
X69288Y10679D01*
Y6361D01*
X69014Y6086D01*
X68773Y5725D01*
X68688Y5300D01*
X68773Y4874D01*
X69014Y4514D01*
X69375Y4273D01*
X69800Y4188D01*
X70226Y4273D01*
X70586Y4514D01*
X71186Y5114D01*
X71186Y5114D01*
X71427Y5474D01*
X71427Y5474D01*
X71427Y5474D01*
X71512Y5900D01*
X71512Y5900D01*
Y10679D01*
X71427Y11105D01*
X71186Y11466D01*
X70825Y11707D01*
X70400Y11791D01*
D02*
G37*
G36*
X54280Y11791D02*
X53854Y11707D01*
X53493Y11466D01*
X53493Y11466D01*
X52314Y10286D01*
X52073Y9926D01*
X51988Y9500D01*
X52073Y9075D01*
X52314Y8714D01*
X52675Y8473D01*
X53100Y8388D01*
X53526Y8473D01*
X53886Y8714D01*
X54740Y9568D01*
X60100D01*
X60526Y9652D01*
X60886Y9893D01*
X61127Y10254D01*
X61212Y10679D01*
X61127Y11105D01*
X60886Y11466D01*
X60526Y11707D01*
X60100Y11791D01*
X54280D01*
X54280Y11791D01*
D02*
G37*
G36*
X15200Y40006D02*
X14547Y39876D01*
X13994Y39506D01*
X13931Y39412D01*
X10473D01*
X10000Y39506D01*
X9347Y39376D01*
X8794Y39006D01*
X8424Y38453D01*
X8294Y37800D01*
X8424Y37147D01*
X8794Y36594D01*
X9347Y36224D01*
X10000Y36094D01*
X10653Y36224D01*
X11206Y36594D01*
X11576Y37147D01*
X11584Y37188D01*
X13931D01*
X13994Y37094D01*
X14547Y36724D01*
X15200Y36594D01*
X15853Y36724D01*
X16406Y37094D01*
X16776Y37647D01*
X16906Y38300D01*
X16776Y38953D01*
X16406Y39506D01*
X15853Y39876D01*
X15200Y40006D01*
D02*
G37*
G36*
X116400Y110012D02*
X116400Y110012D01*
X33600D01*
X33174Y109927D01*
X33030Y109831D01*
X32814Y109686D01*
X32814Y109686D01*
X27514Y104386D01*
X27273Y104025D01*
X27188Y103600D01*
X27188Y103600D01*
Y79498D01*
X26824Y78953D01*
X26694Y78300D01*
X26824Y77647D01*
X27194Y77094D01*
X27747Y76724D01*
X28400Y76594D01*
X29053Y76724D01*
X29606Y77094D01*
X29976Y77647D01*
X30106Y78300D01*
X29976Y78953D01*
X29606Y79506D01*
X29412Y79636D01*
Y103139D01*
X34061Y107788D01*
X115939D01*
X119188Y104539D01*
Y83100D01*
X119188Y83100D01*
X119273Y82674D01*
X119514Y82314D01*
X122725Y79102D01*
X122726Y79102D01*
X123086Y78861D01*
X123086Y78861D01*
X123086Y78861D01*
D01*
X123086Y78861D01*
X123086Y78861D01*
X123512Y78776D01*
X123512Y78776D01*
X125724D01*
Y77723D01*
X132023D01*
Y82054D01*
X125724D01*
Y81000D01*
X123972D01*
X121412Y83561D01*
Y105000D01*
X121327Y105426D01*
X121231Y105570D01*
X121086Y105786D01*
X121086Y105786D01*
X117186Y109686D01*
X116825Y109927D01*
X116400Y110012D01*
D02*
G37*
G36*
X44216Y78612D02*
X43791Y78527D01*
X43430Y78286D01*
X43189Y77925D01*
X43105Y77500D01*
Y74177D01*
X42814Y73886D01*
X42573Y73526D01*
X42488Y73100D01*
X42573Y72675D01*
X42814Y72314D01*
X43174Y72073D01*
X43600Y71988D01*
X44025Y72073D01*
X44386Y72314D01*
X45003Y72930D01*
X45003Y72930D01*
X45244Y73291D01*
X45244Y73291D01*
X45244Y73291D01*
X45329Y73716D01*
X45328Y73717D01*
Y77500D01*
X45244Y77925D01*
X45003Y78286D01*
X44642Y78527D01*
X44216Y78612D01*
D02*
G37*
G36*
X101900Y101906D02*
X101247Y101776D01*
X100694Y101406D01*
X100324Y100853D01*
X100194Y100200D01*
X100324Y99547D01*
X100694Y98994D01*
X101247Y98624D01*
X101900Y98494D01*
X101928Y98500D01*
X106288Y94139D01*
Y82500D01*
X106288Y82500D01*
X106373Y82074D01*
X106614Y81714D01*
X119068Y69260D01*
X119068Y69259D01*
X119284Y69115D01*
X119429Y69018D01*
X119854Y68934D01*
X125724D01*
Y67880D01*
X132023D01*
Y72211D01*
X125724D01*
Y71158D01*
X120315D01*
X108512Y82961D01*
Y94600D01*
X108427Y95025D01*
X108186Y95386D01*
X108186Y95386D01*
X103567Y100005D01*
X103606Y100200D01*
X103476Y100853D01*
X103106Y101406D01*
X102553Y101776D01*
X101900Y101906D01*
D02*
G37*
G36*
X85600Y102812D02*
X82264D01*
X81838Y102727D01*
X81477Y102486D01*
X81236Y102126D01*
X81152Y101700D01*
X81236Y101275D01*
X81477Y100914D01*
X81838Y100673D01*
X82264Y100588D01*
X85600D01*
X86026Y100673D01*
X86386Y100914D01*
X86627Y101275D01*
X86712Y101700D01*
X86627Y102126D01*
X86386Y102486D01*
X86026Y102727D01*
X85600Y102812D01*
D02*
G37*
G36*
X131128Y91040D02*
X130702Y90955D01*
X130341Y90714D01*
X130114Y90486D01*
X129873Y90126D01*
X129788Y89700D01*
X129873Y89275D01*
X130114Y88914D01*
X130474Y88673D01*
X130900Y88588D01*
X131325Y88673D01*
X131539Y88816D01*
X139700D01*
X140126Y88900D01*
X140486Y89141D01*
X140727Y89502D01*
X140812Y89928D01*
X140727Y90353D01*
X140486Y90714D01*
X140126Y90955D01*
X139700Y91040D01*
X131128D01*
X131128Y91040D01*
D02*
G37*
G36*
X52300Y91612D02*
X51875Y91527D01*
X51514Y91286D01*
X50714Y90486D01*
X50473Y90126D01*
X50388Y89700D01*
X50388Y89700D01*
Y86555D01*
X50473Y86130D01*
X50714Y85769D01*
X51074Y85528D01*
X51500Y85443D01*
X51925Y85528D01*
X52286Y85769D01*
X52527Y86130D01*
X52612Y86555D01*
Y89239D01*
X53086Y89714D01*
X53327Y90074D01*
X53412Y90500D01*
X53327Y90926D01*
X53086Y91286D01*
X52725Y91527D01*
X52300Y91612D01*
D02*
G37*
G36*
X132023Y67290D02*
X125724D01*
Y66236D01*
X122561D01*
X122053Y66576D01*
X121400Y66706D01*
X120747Y66576D01*
X120194Y66206D01*
X119824Y65653D01*
X119694Y65000D01*
X119824Y64347D01*
X120194Y63794D01*
X120747Y63424D01*
X121400Y63294D01*
X122053Y63424D01*
X122606Y63794D01*
X122752Y64012D01*
X125724D01*
Y62959D01*
X132023D01*
Y67290D01*
D02*
G37*
G36*
X85900Y54412D02*
X85900Y54412D01*
X82800D01*
X82375Y54327D01*
X82014Y54086D01*
X81773Y53725D01*
X81688Y53300D01*
X81773Y52874D01*
X82014Y52514D01*
X82375Y52273D01*
X82800Y52188D01*
X85439D01*
X86114Y51514D01*
X86475Y51273D01*
X86900Y51188D01*
X87326Y51273D01*
X87686Y51514D01*
X87927Y51875D01*
X88012Y52300D01*
X87927Y52725D01*
X87686Y53086D01*
X86686Y54086D01*
X86326Y54327D01*
X85900Y54412D01*
D02*
G37*
G36*
X128873Y51473D02*
X123461D01*
X123035Y51388D01*
X122674Y51147D01*
X122674Y51147D01*
X121814Y50286D01*
X121573Y49926D01*
X121488Y49500D01*
X121573Y49075D01*
X121814Y48714D01*
X122175Y48473D01*
X122600Y48388D01*
X123026Y48473D01*
X123386Y48714D01*
X123921Y49249D01*
X128873D01*
X129299Y49333D01*
X129659Y49574D01*
X129901Y49935D01*
X129985Y50361D01*
X129901Y50786D01*
X129659Y51147D01*
X129299Y51388D01*
X128873Y51473D01*
D02*
G37*
G36*
X124139Y46551D02*
X123714Y46467D01*
X123353Y46226D01*
X122615Y45488D01*
X122314Y45286D01*
X122073Y44925D01*
X121988Y44500D01*
X122073Y44074D01*
X122314Y43714D01*
X122675Y43473D01*
X123100Y43388D01*
X123200D01*
X123200Y43388D01*
X123626Y43473D01*
X123986Y43714D01*
X124600Y44327D01*
X128873D01*
X129299Y44412D01*
X129659Y44653D01*
X129901Y45014D01*
X129985Y45439D01*
X129901Y45865D01*
X129659Y46226D01*
X129299Y46467D01*
X128873Y46551D01*
X124139D01*
X124139Y46551D01*
D02*
G37*
G36*
X132023Y62369D02*
X125724D01*
Y58038D01*
X132023D01*
Y58798D01*
X135015D01*
X136513Y57300D01*
X136524Y57247D01*
X136894Y56694D01*
X137447Y56324D01*
X138100Y56194D01*
X138753Y56324D01*
X139306Y56694D01*
X139676Y57247D01*
X139806Y57900D01*
X139676Y58553D01*
X139306Y59106D01*
X138753Y59476D01*
X138201Y59586D01*
X136590Y61197D01*
X136135Y61501D01*
X135597Y61608D01*
X132023D01*
Y62369D01*
D02*
G37*
G36*
X98600Y61606D02*
X97947Y61476D01*
X97394Y61106D01*
X97024Y60553D01*
X96894Y59900D01*
X97024Y59247D01*
X97394Y58694D01*
X97947Y58324D01*
X98600Y58194D01*
X98711Y58216D01*
X99382Y57546D01*
X99742Y57305D01*
X100168Y57220D01*
X100168Y57220D01*
X100690D01*
Y55084D01*
X104430D01*
Y61580D01*
X100690D01*
Y60521D01*
X100192Y60472D01*
X100176Y60553D01*
X99806Y61106D01*
X99253Y61476D01*
X98600Y61606D01*
D02*
G37*
G36*
X132023Y57447D02*
X125724D01*
Y56687D01*
X120682D01*
X120144Y56580D01*
X119688Y56275D01*
X117207Y53793D01*
X116902Y53338D01*
X116795Y52800D01*
Y32982D01*
X110918Y27105D01*
X98359D01*
X98253Y27176D01*
X97600Y27306D01*
X96947Y27176D01*
X96394Y26806D01*
X96024Y26253D01*
X95894Y25600D01*
X96024Y24947D01*
X96394Y24394D01*
X96947Y24024D01*
X97600Y23894D01*
X98253Y24024D01*
X98659Y24295D01*
X111500D01*
X112038Y24402D01*
X112494Y24706D01*
X119193Y31407D01*
X119498Y31862D01*
X119605Y32400D01*
Y52218D01*
X121264Y53877D01*
X125724D01*
Y53117D01*
X132023D01*
Y57447D01*
D02*
G37*
%LPD*%
D10*
X139700Y35400D02*
D03*
Y89928D02*
D03*
D11*
X128873Y45439D02*
D03*
Y50361D02*
D03*
Y55282D02*
D03*
Y60203D02*
D03*
Y65124D02*
D03*
Y70046D02*
D03*
Y74967D02*
D03*
Y79888D02*
D03*
D12*
X25200Y15620D02*
D03*
Y19164D02*
D03*
X93900Y68721D02*
D03*
Y72264D02*
D03*
X52900Y97120D02*
D03*
Y100664D02*
D03*
X56800Y97120D02*
D03*
Y100664D02*
D03*
X10900Y65121D02*
D03*
Y68664D02*
D03*
Y73821D02*
D03*
Y77364D02*
D03*
X98900Y35921D02*
D03*
Y39464D02*
D03*
X91300Y35921D02*
D03*
Y39464D02*
D03*
X95100Y35921D02*
D03*
Y39464D02*
D03*
X102600Y35921D02*
D03*
Y39464D02*
D03*
X106300Y43080D02*
D03*
Y39536D02*
D03*
X10900Y56721D02*
D03*
Y60264D02*
D03*
D13*
X30920Y67600D02*
D03*
X34464D02*
D03*
X63520Y101700D02*
D03*
X67064D02*
D03*
X73779D02*
D03*
X70236D02*
D03*
X103779Y66500D02*
D03*
X100236D02*
D03*
X78720Y101700D02*
D03*
X82264D02*
D03*
X47280Y92900D02*
D03*
X43736D02*
D03*
X48621Y71000D02*
D03*
X52164D02*
D03*
X63320Y63400D02*
D03*
X66864D02*
D03*
X72579Y35300D02*
D03*
X69036D02*
D03*
D14*
X76000Y81000D02*
D03*
D15*
X79839Y94287D02*
D03*
X72161D02*
D03*
X79839Y67713D02*
D03*
X72161D02*
D03*
X67043Y94287D02*
D03*
X69602D02*
D03*
X67043Y67713D02*
D03*
X69602D02*
D03*
X77280Y94287D02*
D03*
X74721D02*
D03*
X77280Y67713D02*
D03*
X74721D02*
D03*
X84957Y94287D02*
D03*
X82398D02*
D03*
X84957Y67713D02*
D03*
X82398D02*
D03*
D16*
X62713Y84839D02*
D03*
Y77161D02*
D03*
X89287Y84839D02*
D03*
Y77161D02*
D03*
X62713Y89957D02*
D03*
Y87398D02*
D03*
Y82279D02*
D03*
Y79720D02*
D03*
Y72043D02*
D03*
Y74602D02*
D03*
X89287Y89957D02*
D03*
Y87398D02*
D03*
Y82279D02*
D03*
Y79720D02*
D03*
Y72043D02*
D03*
Y74602D02*
D03*
D17*
X79400Y10679D02*
D03*
X70400D02*
D03*
D18*
X60100D02*
D03*
X89600D02*
D03*
D19*
X80336Y21900D02*
D03*
X77777D02*
D03*
X75218D02*
D03*
X72659D02*
D03*
X70100D02*
D03*
D20*
X44216Y86555D02*
D03*
Y77500D02*
D03*
X51500Y86555D02*
D03*
Y77500D02*
D03*
D21*
X69414Y53300D02*
D03*
X82800D02*
D03*
D22*
X106300Y49868D02*
D03*
X102560Y58332D02*
D03*
X110040D02*
D03*
D23*
X37783Y21759D02*
D03*
Y19200D02*
D03*
Y16641D02*
D03*
X45617Y21759D02*
D03*
Y19200D02*
D03*
Y16641D02*
D03*
D24*
X41700Y19200D02*
D03*
D25*
X32700Y23000D02*
D03*
Y17500D02*
D03*
X50700Y23100D02*
D03*
Y17600D02*
D03*
D26*
X6300Y56736D02*
D03*
Y60280D02*
D03*
Y65136D02*
D03*
Y68679D02*
D03*
Y73836D02*
D03*
Y77380D02*
D03*
D27*
X76436Y35300D02*
D03*
X79979D02*
D03*
D28*
X51200Y65100D02*
X60700D01*
X49400Y63300D02*
X51200Y65100D01*
X18779Y65121D02*
X20600Y63300D01*
X49400D01*
X10900Y65121D02*
X18779D01*
X4364Y56736D02*
X6300D01*
X3900Y57200D02*
X4364Y56736D01*
X3900Y57200D02*
Y65136D01*
X6300D01*
X3900D02*
Y73836D01*
X6300D01*
X49500Y98764D02*
X51400Y100664D01*
X49500Y98000D02*
Y98764D01*
X99200Y65700D02*
X99500Y66000D01*
X89800Y65700D02*
X99200D01*
X87787Y67713D02*
X89800Y65700D01*
X53500Y63400D02*
X63320D01*
X52700Y62600D02*
X53500Y63400D01*
X63500Y60200D02*
X73200D01*
X60300Y57000D02*
X63500Y60200D01*
X11180Y57000D02*
X60300D01*
X10900Y56721D02*
X11180Y57000D01*
X31100Y51300D02*
X33000Y49400D01*
X9100Y51300D02*
X31100D01*
X6300Y54100D02*
X9100Y51300D01*
X96680Y68721D02*
X97200Y68200D01*
X16000Y61700D02*
X17700Y60000D01*
X28300Y78200D02*
Y103600D01*
X33600Y108900D01*
X116400D01*
X120300Y105000D01*
Y83100D02*
Y105000D01*
Y83100D02*
X123512Y79888D01*
X128873D01*
X123100Y44500D02*
X123200D01*
X124139Y45439D01*
X128873D01*
X123461Y50361D02*
X128873D01*
X131600Y34800D02*
X132200Y35400D01*
X139700D01*
X69414Y47886D02*
X69600Y47700D01*
X69414Y47886D02*
Y53300D01*
X38100Y26400D02*
Y38300D01*
X43800Y44000D01*
X83600D01*
X92100Y52500D01*
X51300Y35300D02*
X69036D01*
X42400Y26400D02*
X51300Y35300D01*
X38100Y26400D02*
X42400D01*
X121424Y65124D02*
X128873D01*
X59500Y76900D02*
X59761Y77161D01*
X62713D01*
X54700Y66700D02*
X60043Y72043D01*
X35564Y66700D02*
X54700D01*
X59902Y74602D02*
X62713D01*
X53700Y68400D02*
X59902Y74602D01*
X82264Y101700D02*
X85600D01*
X78600Y98600D02*
X78720Y98721D01*
Y101700D01*
X1400Y40800D02*
Y79900D01*
X3500Y82000D01*
X7700D01*
X73700Y104700D02*
X73779Y104621D01*
Y101700D02*
Y104621D01*
X10400Y38300D02*
X15200D01*
X63400Y104500D02*
X63520Y104379D01*
Y101700D02*
Y104379D01*
X51400Y100664D02*
X52900D01*
X76400Y98600D02*
X78600D01*
X74721Y96921D02*
X76400Y98600D01*
X74721Y94287D02*
Y96921D01*
X70236Y101700D02*
X70400Y101536D01*
Y99100D02*
Y101536D01*
X69602Y98302D02*
X70400Y99100D01*
X69602Y94287D02*
Y98302D01*
X67043Y94287D02*
X67064Y94308D01*
Y101700D01*
X21900Y15800D02*
X22080Y15620D01*
X25200D01*
Y14000D02*
X26600Y12600D01*
X25200Y14000D02*
Y15620D01*
Y22700D02*
X25500Y23000D01*
X25200Y19164D02*
Y22700D01*
X26600Y12600D02*
X36900D01*
X37783Y13483D01*
Y16641D01*
X58800Y60000D02*
X59600Y60800D01*
X17700Y60000D02*
X58800D01*
X15300Y54000D02*
X35900D01*
X38900Y51000D01*
X63300D01*
X106500Y66500D02*
X106800Y66200D01*
X103779Y66500D02*
X106500D01*
X84957Y67713D02*
X87787D01*
X108800Y63700D02*
X110040Y62460D01*
X84500Y63700D02*
X108800D01*
X82398Y65802D02*
X84500Y63700D01*
X93900Y68721D02*
X96680D01*
X93679Y72043D02*
X93900Y72264D01*
X89287Y72043D02*
X93679D01*
X28200Y67500D02*
X28300Y67600D01*
X30920D01*
X60043Y72043D02*
X62713D01*
X38936Y68400D02*
X53700D01*
X33516Y73821D02*
X38936Y68400D01*
X10900Y73821D02*
X33516D01*
X56800Y100664D02*
X59464D01*
X54800Y97120D02*
X56800D01*
X52900D02*
X54800D01*
X55400Y94500D02*
X58000D01*
X54800Y95100D02*
X55400Y94500D01*
X54800Y95100D02*
Y97120D01*
X62100Y66500D02*
X63200D01*
X60700Y65100D02*
X62100Y66500D01*
X6300Y77380D02*
X6316Y77364D01*
X10900D01*
X56800Y78400D02*
X58121Y79720D01*
X62713D01*
X48320Y82279D02*
X62713D01*
X43736Y87835D02*
Y92900D01*
Y87835D02*
X44117Y87455D01*
X47280Y92900D02*
Y95179D01*
X52164Y71000D02*
Y76836D01*
X51500Y77500D02*
X52164Y76836D01*
X45800Y71000D02*
X48621D01*
X64200Y53300D02*
X69414D01*
X62800Y54700D02*
X64200Y53300D01*
X62713Y89957D02*
Y91287D01*
X62000Y92000D02*
X62713Y91287D01*
X56600Y92000D02*
X62000D01*
X51500Y86555D02*
Y89700D01*
X52300Y90500D01*
X44216Y73716D02*
Y77500D01*
X43600Y73100D02*
X44216Y73716D01*
X57039Y84839D02*
X62713D01*
X57000Y84800D02*
X57039Y84839D01*
X60002Y87398D02*
X62713D01*
X82800Y53300D02*
X85900D01*
X29600Y17500D02*
X32700D01*
X28900Y18200D02*
X29600Y17500D01*
X45617Y19200D02*
X47600D01*
X49200Y17600D01*
X50700D01*
Y14700D02*
Y17600D01*
Y14700D02*
X51300Y14100D01*
X54280Y10679D02*
X60100D01*
X53100Y9500D02*
X54280Y10679D01*
X70400Y5900D02*
Y10679D01*
X69800Y5300D02*
X70400Y5900D01*
X79400Y5500D02*
Y10679D01*
X89600D02*
X95621D01*
X72659Y27459D02*
X75900Y30700D01*
X72659Y21900D02*
Y27459D01*
X95000Y35820D02*
X95100Y35921D01*
X75900Y30700D02*
X93600D01*
X95000Y32100D01*
Y35820D01*
X91300Y39464D02*
X95100D01*
X98900D02*
X102600D01*
Y35921D02*
X103121Y35400D01*
X105600D01*
X89021Y35921D02*
X91300D01*
X88400Y35300D02*
X89021Y35921D01*
X96000Y28700D02*
X98500Y31200D01*
X75059Y26759D02*
X77000Y28700D01*
X96000D01*
X79839Y64161D02*
Y67713D01*
Y64161D02*
X82000Y62000D01*
X91600D01*
X98900Y54700D01*
Y39464D02*
Y54700D01*
X89500Y60000D02*
X95200Y54300D01*
X77280Y63420D02*
Y67713D01*
Y63420D02*
X80700Y60000D01*
X89500D01*
X102672Y39536D02*
X106300D01*
X102600Y39464D02*
X102672Y39536D01*
X106300Y43080D02*
Y49868D01*
X110040Y58332D02*
Y62460D01*
X82398Y65802D02*
Y67713D01*
X66864Y63400D02*
X67000Y63536D01*
Y67669D01*
X67043Y67713D01*
X100168Y58332D02*
X102560D01*
X98700Y59800D02*
X100168Y58332D01*
X6316Y60264D02*
X10900D01*
X6300Y60280D02*
X6316Y60264D01*
X73200Y60200D02*
X74721Y61721D01*
Y67713D01*
X6300Y54100D02*
Y56736D01*
X33000Y26400D02*
Y49400D01*
X6316Y68664D02*
X10900D01*
X6300Y68679D02*
X6316Y68664D01*
X89287Y82279D02*
X93721D01*
X93800Y82200D01*
X59464Y100664D02*
X60200Y101400D01*
X60400Y101600D01*
X95200Y39464D02*
Y54300D01*
X51400Y78400D02*
X56800D01*
X44117Y86484D02*
Y87455D01*
Y86484D02*
X48320Y82279D01*
X34464Y67800D02*
X35564Y66700D01*
X75059Y19900D02*
Y26759D01*
X98500Y31200D02*
Y35921D01*
X59231Y88169D02*
X60002Y87398D01*
X72579Y35300D02*
X76436D01*
X79979D02*
X82800D01*
X83800Y34300D01*
Y33900D02*
Y34300D01*
X121033Y74967D02*
X128873D01*
X113100Y82900D02*
X121033Y74967D01*
X113100Y82900D02*
Y101700D01*
X110100Y104700D02*
X113100Y101700D01*
X73700Y104700D02*
X110100D01*
X1400Y40800D02*
X1900Y40300D01*
X119854Y70046D02*
X128873D01*
X107400Y82500D02*
X119854Y70046D01*
X107400Y82500D02*
Y94600D01*
X101900Y100100D02*
X107400Y94600D01*
X9800Y37700D02*
X10400Y38300D01*
X78455Y83262D02*
X78462Y83270D01*
X76000Y81000D02*
X78372Y83352D01*
X76000Y81000D02*
X78455Y83262D01*
X78700Y4800D02*
X79400Y5500D01*
X95621Y10679D02*
X96500Y9800D01*
X78372Y83352D02*
X80233Y85197D01*
X83117Y88056D01*
X85900Y53300D02*
X86900Y52300D01*
X122600Y49500D02*
X123461Y50361D01*
X83117Y88056D02*
X87600Y92500D01*
X130900Y89700D02*
X131128Y89928D01*
X139700D01*
X124100Y31800D02*
Y93700D01*
X126200Y95800D01*
X147200D01*
Y29500D02*
Y95800D01*
X126400Y29500D02*
X147200D01*
X124100Y31800D02*
X126400Y29500D01*
X38705Y92264D02*
X39689D01*
X38705Y71595D02*
Y92264D01*
Y71595D02*
X39689D01*
X57406D01*
Y72579D01*
Y92264D01*
X39689D02*
X57406D01*
D29*
X135597Y60203D02*
X138000Y57800D01*
X128873Y60203D02*
X135597D01*
X97600Y25700D02*
X111500D01*
X118200Y32400D01*
Y52800D01*
X120682Y55282D01*
X128873D01*
D30*
X51600Y23100D02*
X65800D01*
D31*
X25500Y23000D02*
X32700D01*
X15000D02*
X25500D01*
X11900Y26100D02*
X15000Y23000D01*
X11900Y26100D02*
Y31500D01*
X10400Y33000D02*
X11900Y31500D01*
X9300Y33000D02*
X10400D01*
D32*
X0Y120100D02*
X147800D01*
X147638Y0D02*
Y120100D01*
X0Y0D02*
X147638D01*
X0D02*
Y120100D01*
D33*
X28400Y78300D02*
D03*
X123100Y44500D02*
D03*
X122900Y49600D02*
D03*
X131400Y34700D02*
D03*
X131300Y89700D02*
D03*
X57400Y22800D02*
D03*
X138100Y57900D02*
D03*
X97600Y25600D02*
D03*
X69600Y47700D02*
D03*
X92100Y52500D02*
D03*
X121400Y65000D02*
D03*
X59500Y76900D02*
D03*
X41700Y19200D02*
D03*
X85800Y101700D02*
D03*
X1600Y40300D02*
D03*
X7700Y82000D02*
D03*
X73700Y104700D02*
D03*
X10000Y37800D02*
D03*
X15200Y38300D02*
D03*
X63400Y104500D02*
D03*
X47280Y95179D02*
D03*
X49400Y97100D02*
D03*
X78600Y98600D02*
D03*
X21800Y15900D02*
D03*
X15000Y54100D02*
D03*
X63300Y51000D02*
D03*
X59600Y60800D02*
D03*
X106800Y66200D02*
D03*
X16000Y61600D02*
D03*
X97100Y68100D02*
D03*
X28200Y67400D02*
D03*
X60200Y101400D02*
D03*
X58000Y94500D02*
D03*
X63200Y66500D02*
D03*
X45800Y71000D02*
D03*
X62800Y54700D02*
D03*
X56600Y92000D02*
D03*
X52300Y90800D02*
D03*
X43500Y72800D02*
D03*
X57000Y84800D02*
D03*
X59400Y88339D02*
D03*
X86800Y52300D02*
D03*
X28900Y18300D02*
D03*
X51400Y13900D02*
D03*
X53100Y9500D02*
D03*
X70000Y5000D02*
D03*
X78800Y4800D02*
D03*
X96400Y9800D02*
D03*
X83000Y23500D02*
D03*
X85700D02*
D03*
X83000Y20200D02*
D03*
X85700D02*
D03*
X9200Y33000D02*
D03*
X88400Y35300D02*
D03*
X105600Y35400D02*
D03*
X38000Y24100D02*
D03*
X38100Y26400D02*
D03*
X35500D02*
D03*
X33000D02*
D03*
X98600Y59900D02*
D03*
X52700Y62600D02*
D03*
X93800Y82200D02*
D03*
X83700Y33800D02*
D03*
X101900Y100200D02*
D03*
D34*
X7480Y7874D02*
D03*
X140551Y7087D02*
D03*
X6791Y111024D02*
D03*
X140748D02*
D03*
D35*
X83087Y73913D02*
D03*
X78362D02*
D03*
X73638D02*
D03*
X68913D02*
D03*
X83087Y78638D02*
D03*
X78362D02*
D03*
X73638D02*
D03*
X68913D02*
D03*
X83087Y83362D02*
D03*
X78362D02*
D03*
X73638D02*
D03*
X68913D02*
D03*
X83087Y88087D02*
D03*
X78362D02*
D03*
X73638D02*
D03*
X68913D02*
D03*
M02*
