M48
;Layer_Color=9474304
;FILE_FORMAT=2:5
INCH,LZ
;TYPE=PLATED
T1F00S00C0.01181
T2F00S00C0.01299
T3F00S00C0.07874
%
T01
X00417Y00192
X00514Y00139
X00531Y00095
X00574Y00228
X0083Y00235
X00857
Y00202
X0083
X00837Y00338
X00884Y00353
X01056Y00354
X00976Y00256
X00964Y00098
X00788Y00048
X007Y0005
X00696Y00477
X00633Y0051
X00628Y00547
X00596Y00608
X00527Y00626
X00632Y00665
X00595Y00769
X0057Y00848
X00594Y0088339
X00566Y0092
X0058Y00945
X00602Y01014
X00634Y01045
X00737Y01047
X00786Y00986
X00858Y01017
X01019Y01002
X00938Y00822
X00971Y00681
X00986Y00599
X00921Y00525
X00868Y00523
X01068Y00662
X01214Y0065
X01229Y00496
X01231Y00445
X01314Y00347
X01381Y00579
X01313Y00897
X00523Y00908
X00494Y00971
X004728Y0095179
X00458Y0071
X00435Y00728
X00284Y00783
X00282Y00674
X0016Y00616
X0015Y00541
X00152Y00383
X001Y00378
X00092Y0033
X00016Y00403
X00218Y00159
X00289Y00183
X0033Y00264
X00355
X00381
X0038Y00241
X00077Y0082
T02
X0068913Y0073913
X0073638
X0078362
X0083087
Y0078638
X0078362
X0073638
X0068913
Y0083362
X0073638
X0078362
X0083087
Y0088087
X0078362
X0073638
X0068913
T03
X0140551Y0007087
X0140748Y0111024
X0006791
X000748Y0007874
M30
