%FSLAX25Y25*%
%MOIN*%
G70*
G01*
G75*
G04 Layer_Color=65535*
%ADD10R,0.11811X0.08268*%
%ADD11R,0.05118X0.03150*%
%ADD12R,0.01969X0.01969*%
%ADD13R,0.01969X0.01969*%
%ADD14R,0.19291X0.19291*%
%ADD15O,0.01378X0.03740*%
%ADD16O,0.03740X0.01378*%
%ADD17R,0.07087X0.07480*%
%ADD18R,0.09055X0.07480*%
%ADD19R,0.01575X0.05512*%
%ADD20R,0.04134X0.05118*%
%ADD21R,0.03150X0.06693*%
%ADD22R,0.02559X0.05315*%
%ADD23R,0.02756X0.01181*%
%ADD24R,0.03504X0.06299*%
%ADD25R,0.03740X0.03740*%
%ADD26R,0.01969X0.02362*%
%ADD27R,0.02362X0.01969*%
%ADD28C,0.01000*%
%ADD29C,0.01575*%
%ADD30C,0.03543*%
%ADD31C,0.03150*%
%ADD32C,0.00787*%
%ADD33C,0.02165*%
%ADD34C,0.11811*%
%ADD35C,0.02598*%
%ADD36R,0.04724X0.05315*%
%ADD37R,0.03937X0.01378*%
%ADD38R,0.19600X0.21400*%
%ADD39C,0.00984*%
%ADD40C,0.00394*%
%ADD41C,0.00591*%
%ADD42C,0.00709*%
%ADD43C,0.00276*%
%ADD44C,0.00291*%
G36*
X60031Y113196D02*
X60084Y113190D01*
X60148Y113179D01*
X60277Y113144D01*
X60283D01*
X60306Y113132D01*
X60335Y113120D01*
X60376Y113103D01*
X60423Y113085D01*
X60476Y113056D01*
X60581Y112997D01*
X60610Y113120D01*
X61435D01*
Y110704D01*
Y110698D01*
Y110687D01*
Y110669D01*
Y110640D01*
X61429Y110611D01*
Y110575D01*
X61424Y110488D01*
X61406Y110388D01*
X61388Y110283D01*
X61359Y110178D01*
X61324Y110072D01*
X61318Y110061D01*
X61307Y110026D01*
X61277Y109979D01*
X61248Y109920D01*
X61201Y109850D01*
X61154Y109786D01*
X61090Y109716D01*
X61026Y109657D01*
X61020Y109651D01*
X60991Y109634D01*
X60950Y109604D01*
X60897Y109575D01*
X60827Y109540D01*
X60751Y109499D01*
X60663Y109470D01*
X60569Y109441D01*
X60558D01*
X60523Y109429D01*
X60470Y109417D01*
X60400Y109406D01*
X60312Y109394D01*
X60207Y109382D01*
X60096Y109376D01*
X59979Y109370D01*
X59879D01*
X59815Y109376D01*
X59733D01*
X59651Y109388D01*
X59464Y109406D01*
X59452D01*
X59423Y109411D01*
X59376Y109417D01*
X59318Y109429D01*
X59253Y109441D01*
X59183Y109452D01*
X59113Y109470D01*
X59043Y109487D01*
Y110166D01*
X59142D01*
X59154Y110160D01*
X59183Y110154D01*
X59230Y110137D01*
X59288Y110119D01*
X59294D01*
X59306Y110113D01*
X59323Y110108D01*
X59341Y110102D01*
X59399Y110084D01*
X59464Y110067D01*
X59470D01*
X59481Y110061D01*
X59505Y110055D01*
X59528Y110049D01*
X59592Y110037D01*
X59669Y110020D01*
X59686D01*
X59704Y110014D01*
X59733D01*
X59797Y110008D01*
X59873Y110002D01*
X59949D01*
X60002Y110008D01*
X60055Y110014D01*
X60119Y110020D01*
X60177Y110031D01*
X60236Y110049D01*
X60242D01*
X60259Y110061D01*
X60289Y110067D01*
X60318Y110084D01*
X60388Y110125D01*
X60423Y110149D01*
X60452Y110178D01*
X60458Y110184D01*
X60464Y110195D01*
X60476Y110213D01*
X60493Y110236D01*
X60528Y110301D01*
X60558Y110382D01*
Y110388D01*
X60564Y110400D01*
X60569Y110429D01*
X60575Y110459D01*
Y110500D01*
X60581Y110546D01*
X60587Y110605D01*
Y110663D01*
Y110716D01*
X60581Y110710D01*
X60564Y110698D01*
X60528Y110675D01*
X60493Y110646D01*
X60441Y110617D01*
X60382Y110581D01*
X60324Y110546D01*
X60254Y110517D01*
X60248Y110511D01*
X60224Y110505D01*
X60183Y110494D01*
X60136Y110482D01*
X60078Y110464D01*
X60014Y110453D01*
X59943Y110447D01*
X59867Y110441D01*
X59815D01*
X59780Y110447D01*
X59733Y110453D01*
X59686Y110459D01*
X59563Y110482D01*
X59435Y110523D01*
X59364Y110552D01*
X59300Y110587D01*
X59230Y110622D01*
X59165Y110669D01*
X59107Y110722D01*
X59048Y110780D01*
X59043Y110786D01*
X59037Y110798D01*
X59025Y110815D01*
X59002Y110845D01*
X58984Y110880D01*
X58961Y110926D01*
X58931Y110979D01*
X58908Y111044D01*
X58879Y111114D01*
X58855Y111190D01*
X58826Y111277D01*
X58809Y111371D01*
X58791Y111471D01*
X58773Y111588D01*
X58768Y111705D01*
X58762Y111833D01*
Y111839D01*
Y111845D01*
Y111863D01*
Y111886D01*
X58768Y111944D01*
X58773Y112021D01*
X58785Y112108D01*
X58797Y112208D01*
X58820Y112307D01*
X58850Y112401D01*
Y112407D01*
X58855Y112412D01*
X58867Y112442D01*
X58885Y112494D01*
X58914Y112553D01*
X58949Y112623D01*
X58990Y112693D01*
X59037Y112769D01*
X59095Y112839D01*
X59101Y112845D01*
X59124Y112869D01*
X59154Y112898D01*
X59201Y112939D01*
X59253Y112980D01*
X59312Y113027D01*
X59382Y113068D01*
X59458Y113109D01*
X59470Y113114D01*
X59493Y113126D01*
X59540Y113138D01*
X59592Y113155D01*
X59663Y113173D01*
X59739Y113190D01*
X59821Y113196D01*
X59903Y113202D01*
X59979D01*
X60031Y113196D01*
D02*
G37*
G36*
X83800D02*
X83852Y113190D01*
X83917Y113179D01*
X84045Y113144D01*
X84051D01*
X84075Y113132D01*
X84104Y113120D01*
X84145Y113103D01*
X84192Y113085D01*
X84244Y113056D01*
X84350Y112997D01*
X84379Y113120D01*
X85204D01*
Y110704D01*
Y110698D01*
Y110687D01*
Y110669D01*
Y110640D01*
X85198Y110611D01*
Y110575D01*
X85192Y110488D01*
X85175Y110388D01*
X85157Y110283D01*
X85128Y110178D01*
X85093Y110072D01*
X85087Y110061D01*
X85075Y110026D01*
X85046Y109979D01*
X85017Y109920D01*
X84970Y109850D01*
X84923Y109786D01*
X84859Y109716D01*
X84794Y109657D01*
X84789Y109651D01*
X84759Y109634D01*
X84718Y109604D01*
X84666Y109575D01*
X84595Y109540D01*
X84519Y109499D01*
X84432Y109470D01*
X84338Y109441D01*
X84326D01*
X84291Y109429D01*
X84238Y109417D01*
X84168Y109406D01*
X84081Y109394D01*
X83975Y109382D01*
X83864Y109376D01*
X83747Y109370D01*
X83648D01*
X83583Y109376D01*
X83501D01*
X83420Y109388D01*
X83232Y109406D01*
X83221D01*
X83191Y109411D01*
X83145Y109417D01*
X83086Y109429D01*
X83022Y109441D01*
X82951Y109452D01*
X82881Y109470D01*
X82811Y109487D01*
Y110166D01*
X82911D01*
X82922Y110160D01*
X82951Y110154D01*
X82998Y110137D01*
X83057Y110119D01*
X83063D01*
X83074Y110113D01*
X83092Y110108D01*
X83109Y110102D01*
X83168Y110084D01*
X83232Y110067D01*
X83238D01*
X83250Y110061D01*
X83273Y110055D01*
X83297Y110049D01*
X83361Y110037D01*
X83437Y110020D01*
X83455D01*
X83472Y110014D01*
X83501D01*
X83566Y110008D01*
X83642Y110002D01*
X83718D01*
X83771Y110008D01*
X83823Y110014D01*
X83887Y110020D01*
X83946Y110031D01*
X84004Y110049D01*
X84010D01*
X84028Y110061D01*
X84057Y110067D01*
X84087Y110084D01*
X84157Y110125D01*
X84192Y110149D01*
X84221Y110178D01*
X84227Y110184D01*
X84233Y110195D01*
X84244Y110213D01*
X84262Y110236D01*
X84297Y110301D01*
X84326Y110382D01*
Y110388D01*
X84332Y110400D01*
X84338Y110429D01*
X84344Y110459D01*
Y110500D01*
X84350Y110546D01*
X84356Y110605D01*
Y110663D01*
Y110716D01*
X84350Y110710D01*
X84332Y110698D01*
X84297Y110675D01*
X84262Y110646D01*
X84209Y110617D01*
X84151Y110581D01*
X84092Y110546D01*
X84022Y110517D01*
X84016Y110511D01*
X83993Y110505D01*
X83952Y110494D01*
X83905Y110482D01*
X83847Y110464D01*
X83782Y110453D01*
X83712Y110447D01*
X83636Y110441D01*
X83583D01*
X83548Y110447D01*
X83501Y110453D01*
X83455Y110459D01*
X83332Y110482D01*
X83203Y110523D01*
X83133Y110552D01*
X83069Y110587D01*
X82998Y110622D01*
X82934Y110669D01*
X82876Y110722D01*
X82817Y110780D01*
X82811Y110786D01*
X82805Y110798D01*
X82794Y110815D01*
X82770Y110845D01*
X82753Y110880D01*
X82729Y110926D01*
X82700Y110979D01*
X82677Y111044D01*
X82647Y111114D01*
X82624Y111190D01*
X82595Y111277D01*
X82577Y111371D01*
X82560Y111471D01*
X82542Y111588D01*
X82536Y111705D01*
X82530Y111833D01*
Y111839D01*
Y111845D01*
Y111863D01*
Y111886D01*
X82536Y111944D01*
X82542Y112021D01*
X82554Y112108D01*
X82565Y112208D01*
X82589Y112307D01*
X82618Y112401D01*
Y112407D01*
X82624Y112412D01*
X82636Y112442D01*
X82653Y112494D01*
X82682Y112553D01*
X82718Y112623D01*
X82758Y112693D01*
X82805Y112769D01*
X82864Y112839D01*
X82870Y112845D01*
X82893Y112869D01*
X82922Y112898D01*
X82969Y112939D01*
X83022Y112980D01*
X83080Y113027D01*
X83151Y113068D01*
X83227Y113109D01*
X83238Y113114D01*
X83262Y113126D01*
X83308Y113138D01*
X83361Y113155D01*
X83431Y113173D01*
X83507Y113190D01*
X83589Y113196D01*
X83671Y113202D01*
X83747D01*
X83800Y113196D01*
D02*
G37*
G36*
X39708D02*
X39761Y113190D01*
X39825Y113185D01*
X39901Y113173D01*
X39977Y113155D01*
X40141Y113109D01*
X40229Y113079D01*
X40317Y113038D01*
X40399Y112997D01*
X40481Y112945D01*
X40562Y112886D01*
X40633Y112816D01*
X40639Y112810D01*
X40650Y112799D01*
X40668Y112775D01*
X40691Y112746D01*
X40720Y112705D01*
X40750Y112658D01*
X40785Y112605D01*
X40820Y112541D01*
X40849Y112465D01*
X40884Y112389D01*
X40914Y112301D01*
X40943Y112208D01*
X40966Y112102D01*
X40984Y111997D01*
X40995Y111880D01*
X41001Y111757D01*
Y111751D01*
Y111728D01*
Y111693D01*
X40995Y111646D01*
X40990Y111588D01*
X40984Y111523D01*
X40972Y111453D01*
X40954Y111371D01*
X40914Y111201D01*
X40884Y111114D01*
X40843Y111026D01*
X40802Y110938D01*
X40756Y110856D01*
X40697Y110774D01*
X40633Y110698D01*
X40627Y110693D01*
X40615Y110681D01*
X40592Y110663D01*
X40562Y110640D01*
X40527Y110611D01*
X40481Y110575D01*
X40428Y110546D01*
X40363Y110511D01*
X40293Y110470D01*
X40217Y110441D01*
X40135Y110406D01*
X40042Y110377D01*
X39942Y110353D01*
X39831Y110336D01*
X39720Y110324D01*
X39597Y110318D01*
X39533D01*
X39486Y110324D01*
X39433Y110330D01*
X39369Y110336D01*
X39293Y110347D01*
X39217Y110365D01*
X39053Y110412D01*
X38965Y110441D01*
X38878Y110476D01*
X38796Y110523D01*
X38714Y110575D01*
X38632Y110634D01*
X38562Y110698D01*
X38556Y110704D01*
X38544Y110716D01*
X38527Y110739D01*
X38503Y110769D01*
X38480Y110810D01*
X38445Y110856D01*
X38416Y110915D01*
X38380Y110973D01*
X38345Y111049D01*
X38316Y111125D01*
X38281Y111213D01*
X38258Y111307D01*
X38234Y111412D01*
X38217Y111517D01*
X38205Y111634D01*
X38199Y111757D01*
Y111763D01*
Y111786D01*
Y111822D01*
X38205Y111868D01*
X38211Y111927D01*
X38217Y111991D01*
X38228Y112067D01*
X38246Y112143D01*
X38287Y112313D01*
X38316Y112401D01*
X38351Y112488D01*
X38392Y112576D01*
X38445Y112664D01*
X38497Y112740D01*
X38562Y112816D01*
X38568Y112822D01*
X38579Y112834D01*
X38603Y112851D01*
X38632Y112874D01*
X38667Y112904D01*
X38714Y112939D01*
X38767Y112974D01*
X38831Y113009D01*
X38901Y113044D01*
X38977Y113079D01*
X39059Y113114D01*
X39153Y113144D01*
X39252Y113167D01*
X39363Y113185D01*
X39474Y113196D01*
X39597Y113202D01*
X39661D01*
X39708Y113196D01*
D02*
G37*
G36*
X60562Y118006D02*
X59667D01*
Y118667D01*
X60562D01*
Y118006D01*
D02*
G37*
G36*
X69220Y116281D02*
X70226Y114900D01*
X69232D01*
X68711Y115678D01*
X68173Y114900D01*
X67202D01*
X68208Y116257D01*
X67219Y117620D01*
X68208D01*
X68723Y116854D01*
X69238Y117620D01*
X70215D01*
X69220Y116281D01*
D02*
G37*
G36*
X85372Y117626D02*
X85436D01*
X85471Y117620D01*
Y116819D01*
X85395D01*
X85390Y116825D01*
X85360Y116831D01*
X85319Y116836D01*
X85255Y116842D01*
X85237D01*
X85220Y116848D01*
X85197D01*
X85132Y116854D01*
X85003D01*
X84968Y116848D01*
X84927Y116842D01*
X84881Y116836D01*
X84769Y116813D01*
X84763D01*
X84746Y116807D01*
X84717Y116795D01*
X84682Y116784D01*
X84635Y116772D01*
X84588Y116754D01*
X84489Y116719D01*
Y114900D01*
X83640D01*
Y117620D01*
X84489D01*
Y117228D01*
X84500Y117240D01*
X84530Y117263D01*
X84576Y117310D01*
X84647Y117363D01*
X84652Y117369D01*
X84664Y117375D01*
X84682Y117392D01*
X84711Y117410D01*
X84769Y117451D01*
X84834Y117492D01*
X84840D01*
X84851Y117503D01*
X84869Y117515D01*
X84898Y117527D01*
X84962Y117556D01*
X85050Y117591D01*
X85056D01*
X85074Y117597D01*
X85097Y117603D01*
X85126Y117614D01*
X85202Y117626D01*
X85284Y117632D01*
X85337D01*
X85372Y117626D01*
D02*
G37*
G36*
X62943Y117696D02*
X62978D01*
X63019Y117691D01*
X63107Y117667D01*
X63212Y117638D01*
X63317Y117591D01*
X63417Y117521D01*
X63470Y117480D01*
X63511Y117433D01*
X63522Y117421D01*
X63534Y117404D01*
X63546Y117386D01*
X63563Y117357D01*
X63581Y117322D01*
X63598Y117287D01*
X63622Y117240D01*
X63663Y117135D01*
X63698Y117000D01*
X63721Y116848D01*
X63733Y116673D01*
Y114900D01*
X62885D01*
Y116251D01*
Y116257D01*
Y116281D01*
Y116310D01*
Y116357D01*
X62879Y116403D01*
Y116456D01*
X62867Y116579D01*
Y116585D01*
Y116608D01*
X62861Y116637D01*
X62855Y116673D01*
X62844Y116749D01*
X62832Y116790D01*
X62820Y116819D01*
Y116825D01*
X62814Y116836D01*
X62785Y116872D01*
X62744Y116912D01*
X62691Y116953D01*
X62686D01*
X62674Y116959D01*
X62656Y116965D01*
X62633Y116977D01*
X62604Y116983D01*
X62563Y116988D01*
X62522Y116994D01*
X62428D01*
X62405Y116988D01*
X62335Y116977D01*
X62253Y116953D01*
X62247D01*
X62235Y116947D01*
X62212Y116936D01*
X62188Y116924D01*
X62112Y116883D01*
X62030Y116831D01*
Y114900D01*
X61182D01*
Y117620D01*
X62030D01*
Y117322D01*
X62042Y117328D01*
X62066Y117351D01*
X62107Y117380D01*
X62159Y117421D01*
X62218Y117468D01*
X62288Y117515D01*
X62358Y117556D01*
X62434Y117597D01*
X62446Y117603D01*
X62469Y117614D01*
X62510Y117632D01*
X62563Y117649D01*
X62627Y117667D01*
X62703Y117685D01*
X62785Y117696D01*
X62873Y117702D01*
X62914D01*
X62943Y117696D01*
D02*
G37*
G36*
X37848Y113378D02*
X37327D01*
Y111032D01*
X37848D01*
Y110400D01*
X35900D01*
Y111032D01*
X36421D01*
Y113378D01*
X35900D01*
Y114009D01*
X37848D01*
Y113378D01*
D02*
G37*
G36*
X44166Y113331D02*
X43101D01*
Y110400D01*
X42195D01*
Y113331D01*
X41130D01*
Y114009D01*
X44166D01*
Y113331D01*
D02*
G37*
G36*
X47337Y114004D02*
X47448Y113998D01*
X47565Y113986D01*
X47688Y113974D01*
X47816Y113957D01*
X47834D01*
X47851Y113951D01*
X47875Y113945D01*
X47939Y113933D01*
X48021Y113910D01*
X48115Y113881D01*
X48220Y113840D01*
X48325Y113787D01*
X48436Y113723D01*
X48442D01*
X48454Y113711D01*
X48472Y113699D01*
X48495Y113682D01*
X48559Y113629D01*
X48641Y113559D01*
X48729Y113471D01*
X48823Y113366D01*
X48916Y113243D01*
X48998Y113109D01*
Y113103D01*
X49010Y113091D01*
X49016Y113068D01*
X49033Y113038D01*
X49045Y113003D01*
X49062Y112956D01*
X49086Y112910D01*
X49103Y112851D01*
X49121Y112787D01*
X49144Y112717D01*
X49174Y112559D01*
X49197Y112389D01*
X49209Y112196D01*
Y112190D01*
Y112173D01*
Y112149D01*
X49203Y112114D01*
Y112067D01*
X49197Y112015D01*
X49191Y111956D01*
X49180Y111898D01*
X49156Y111757D01*
X49115Y111605D01*
X49062Y111447D01*
X48987Y111295D01*
Y111289D01*
X48975Y111277D01*
X48963Y111260D01*
X48946Y111231D01*
X48922Y111196D01*
X48899Y111161D01*
X48834Y111067D01*
X48752Y110973D01*
X48659Y110868D01*
X48548Y110769D01*
X48431Y110681D01*
X48425D01*
X48419Y110675D01*
X48401Y110663D01*
X48384Y110652D01*
X48325Y110622D01*
X48249Y110581D01*
X48156Y110546D01*
X48050Y110505D01*
X47939Y110470D01*
X47816Y110447D01*
X47805D01*
X47781Y110441D01*
X47758D01*
X47729Y110435D01*
X47694D01*
X47606Y110423D01*
X47501Y110418D01*
X47384Y110406D01*
X47255Y110400D01*
X45991D01*
Y114009D01*
X47243D01*
X47337Y114004D01*
D02*
G37*
G36*
X53491Y112839D02*
X53497Y112845D01*
X53520Y112869D01*
X53561Y112898D01*
X53608Y112933D01*
X53661Y112974D01*
X53725Y113021D01*
X53795Y113062D01*
X53865Y113103D01*
X53877Y113109D01*
X53900Y113120D01*
X53941Y113132D01*
X54000Y113155D01*
X54064Y113173D01*
X54140Y113185D01*
X54228Y113196D01*
X54322Y113202D01*
X54368D01*
X54398Y113196D01*
X54439Y113190D01*
X54485Y113185D01*
X54591Y113155D01*
X54708Y113109D01*
X54772Y113079D01*
X54831Y113044D01*
X54889Y113003D01*
X54948Y112951D01*
X55000Y112892D01*
X55053Y112828D01*
X55059Y112822D01*
X55065Y112810D01*
X55076Y112787D01*
X55094Y112758D01*
X55111Y112723D01*
X55135Y112676D01*
X55158Y112623D01*
X55187Y112559D01*
X55211Y112494D01*
X55234Y112412D01*
X55258Y112330D01*
X55275Y112237D01*
X55293Y112137D01*
X55304Y112032D01*
X55316Y111921D01*
Y111798D01*
Y111792D01*
Y111769D01*
Y111734D01*
X55310Y111693D01*
X55304Y111634D01*
X55299Y111570D01*
X55287Y111500D01*
X55275Y111424D01*
X55234Y111254D01*
X55211Y111166D01*
X55176Y111079D01*
X55135Y110991D01*
X55094Y110909D01*
X55041Y110821D01*
X54983Y110745D01*
X54977Y110739D01*
X54965Y110728D01*
X54948Y110710D01*
X54924Y110681D01*
X54889Y110652D01*
X54854Y110622D01*
X54807Y110581D01*
X54760Y110546D01*
X54637Y110476D01*
X54497Y110412D01*
X54421Y110382D01*
X54339Y110365D01*
X54251Y110353D01*
X54164Y110347D01*
X54093D01*
X54041Y110353D01*
X53988Y110359D01*
X53930Y110365D01*
X53807Y110394D01*
X53801D01*
X53784Y110400D01*
X53754Y110412D01*
X53713Y110429D01*
X53666Y110447D01*
X53614Y110470D01*
X53491Y110535D01*
X53450Y110400D01*
X52643D01*
Y114167D01*
X53491D01*
Y112839D01*
D02*
G37*
G36*
X80980Y113196D02*
X81033Y113190D01*
X81097Y113185D01*
X81173Y113173D01*
X81249Y113155D01*
X81413Y113109D01*
X81501Y113079D01*
X81589Y113038D01*
X81670Y112997D01*
X81752Y112945D01*
X81834Y112886D01*
X81904Y112816D01*
X81910Y112810D01*
X81922Y112799D01*
X81940Y112775D01*
X81963Y112746D01*
X81992Y112705D01*
X82021Y112658D01*
X82056Y112605D01*
X82092Y112541D01*
X82121Y112465D01*
X82156Y112389D01*
X82185Y112301D01*
X82214Y112208D01*
X82238Y112102D01*
X82255Y111997D01*
X82267Y111880D01*
X82273Y111757D01*
Y111751D01*
Y111728D01*
Y111693D01*
X82267Y111646D01*
X82261Y111588D01*
X82255Y111523D01*
X82244Y111453D01*
X82226Y111371D01*
X82185Y111201D01*
X82156Y111114D01*
X82115Y111026D01*
X82074Y110938D01*
X82027Y110856D01*
X81969Y110774D01*
X81904Y110698D01*
X81899Y110693D01*
X81887Y110681D01*
X81863Y110663D01*
X81834Y110640D01*
X81799Y110611D01*
X81752Y110575D01*
X81700Y110546D01*
X81635Y110511D01*
X81565Y110470D01*
X81489Y110441D01*
X81407Y110406D01*
X81314Y110377D01*
X81214Y110353D01*
X81103Y110336D01*
X80992Y110324D01*
X80869Y110318D01*
X80805D01*
X80758Y110324D01*
X80705Y110330D01*
X80641Y110336D01*
X80565Y110347D01*
X80489Y110365D01*
X80325Y110412D01*
X80237Y110441D01*
X80149Y110476D01*
X80067Y110523D01*
X79986Y110575D01*
X79904Y110634D01*
X79834Y110698D01*
X79828Y110704D01*
X79816Y110716D01*
X79798Y110739D01*
X79775Y110769D01*
X79752Y110810D01*
X79716Y110856D01*
X79687Y110915D01*
X79652Y110973D01*
X79617Y111049D01*
X79588Y111125D01*
X79553Y111213D01*
X79529Y111307D01*
X79506Y111412D01*
X79488Y111517D01*
X79477Y111634D01*
X79471Y111757D01*
Y111763D01*
Y111786D01*
Y111822D01*
X79477Y111868D01*
X79483Y111927D01*
X79488Y111991D01*
X79500Y112067D01*
X79518Y112143D01*
X79559Y112313D01*
X79588Y112401D01*
X79623Y112488D01*
X79664Y112576D01*
X79716Y112664D01*
X79769Y112740D01*
X79834Y112816D01*
X79839Y112822D01*
X79851Y112834D01*
X79874Y112851D01*
X79904Y112874D01*
X79939Y112904D01*
X79986Y112939D01*
X80038Y112974D01*
X80103Y113009D01*
X80173Y113044D01*
X80249Y113079D01*
X80331Y113114D01*
X80424Y113144D01*
X80524Y113167D01*
X80635Y113185D01*
X80746Y113196D01*
X80869Y113202D01*
X80933D01*
X80980Y113196D01*
D02*
G37*
G36*
X101876D02*
X101929Y113190D01*
X101993Y113185D01*
X102069Y113173D01*
X102145Y113155D01*
X102309Y113109D01*
X102397Y113079D01*
X102485Y113038D01*
X102567Y112997D01*
X102648Y112945D01*
X102730Y112886D01*
X102801Y112816D01*
X102806Y112810D01*
X102818Y112799D01*
X102836Y112775D01*
X102859Y112746D01*
X102888Y112705D01*
X102918Y112658D01*
X102953Y112605D01*
X102988Y112541D01*
X103017Y112465D01*
X103052Y112389D01*
X103081Y112301D01*
X103111Y112208D01*
X103134Y112102D01*
X103152Y111997D01*
X103163Y111880D01*
X103169Y111757D01*
Y111751D01*
Y111728D01*
Y111693D01*
X103163Y111646D01*
X103157Y111588D01*
X103152Y111523D01*
X103140Y111453D01*
X103122Y111371D01*
X103081Y111201D01*
X103052Y111114D01*
X103011Y111026D01*
X102970Y110938D01*
X102924Y110856D01*
X102865Y110774D01*
X102801Y110698D01*
X102795Y110693D01*
X102783Y110681D01*
X102760Y110663D01*
X102730Y110640D01*
X102695Y110611D01*
X102648Y110575D01*
X102596Y110546D01*
X102532Y110511D01*
X102461Y110470D01*
X102385Y110441D01*
X102303Y110406D01*
X102210Y110377D01*
X102110Y110353D01*
X101999Y110336D01*
X101888Y110324D01*
X101765Y110318D01*
X101701D01*
X101654Y110324D01*
X101601Y110330D01*
X101537Y110336D01*
X101461Y110347D01*
X101385Y110365D01*
X101221Y110412D01*
X101133Y110441D01*
X101046Y110476D01*
X100964Y110523D01*
X100882Y110575D01*
X100800Y110634D01*
X100730Y110698D01*
X100724Y110704D01*
X100712Y110716D01*
X100695Y110739D01*
X100671Y110769D01*
X100648Y110810D01*
X100613Y110856D01*
X100584Y110915D01*
X100548Y110973D01*
X100513Y111049D01*
X100484Y111125D01*
X100449Y111213D01*
X100426Y111307D01*
X100402Y111412D01*
X100385Y111517D01*
X100373Y111634D01*
X100367Y111757D01*
Y111763D01*
Y111786D01*
Y111822D01*
X100373Y111868D01*
X100379Y111927D01*
X100385Y111991D01*
X100396Y112067D01*
X100414Y112143D01*
X100455Y112313D01*
X100484Y112401D01*
X100519Y112488D01*
X100560Y112576D01*
X100613Y112664D01*
X100665Y112740D01*
X100730Y112816D01*
X100736Y112822D01*
X100747Y112834D01*
X100771Y112851D01*
X100800Y112874D01*
X100835Y112904D01*
X100882Y112939D01*
X100935Y112974D01*
X100999Y113009D01*
X101069Y113044D01*
X101145Y113079D01*
X101227Y113114D01*
X101321Y113144D01*
X101420Y113167D01*
X101531Y113185D01*
X101642Y113196D01*
X101765Y113202D01*
X101830D01*
X101876Y113196D01*
D02*
G37*
G36*
X51057D02*
X51104Y113190D01*
X51169Y113185D01*
X51233Y113173D01*
X51303Y113161D01*
X51455Y113120D01*
X51537Y113091D01*
X51613Y113062D01*
X51689Y113021D01*
X51765Y112974D01*
X51829Y112921D01*
X51894Y112863D01*
X51900Y112857D01*
X51906Y112845D01*
X51923Y112828D01*
X51941Y112799D01*
X51970Y112769D01*
X51993Y112723D01*
X52023Y112676D01*
X52052Y112617D01*
X52081Y112553D01*
X52110Y112483D01*
X52140Y112401D01*
X52163Y112319D01*
X52181Y112225D01*
X52198Y112126D01*
X52204Y112021D01*
X52210Y111903D01*
Y111599D01*
X50349D01*
Y111593D01*
X50355Y111570D01*
Y111529D01*
X50361Y111488D01*
X50373Y111435D01*
X50385Y111383D01*
X50402Y111330D01*
X50425Y111277D01*
X50431Y111272D01*
X50437Y111254D01*
X50455Y111231D01*
X50472Y111207D01*
X50531Y111137D01*
X50607Y111079D01*
X50613Y111073D01*
X50625Y111067D01*
X50648Y111055D01*
X50683Y111038D01*
X50718Y111020D01*
X50759Y111003D01*
X50858Y110968D01*
X50864D01*
X50882Y110962D01*
X50917Y110956D01*
X50952D01*
X50999Y110950D01*
X51057Y110944D01*
X51180Y110938D01*
X51233D01*
X51274Y110944D01*
X51315D01*
X51362Y110950D01*
X51467Y110968D01*
X51473D01*
X51490Y110973D01*
X51520Y110979D01*
X51555Y110991D01*
X51642Y111020D01*
X51730Y111055D01*
X51736D01*
X51748Y111061D01*
X51771Y111073D01*
X51794Y111084D01*
X51859Y111120D01*
X51923Y111155D01*
X51929D01*
X51941Y111166D01*
X51976Y111190D01*
X52023Y111219D01*
X52069Y111254D01*
X52163D01*
Y110552D01*
X52157D01*
X52145Y110546D01*
X52128Y110540D01*
X52099Y110529D01*
X52040Y110505D01*
X51970Y110476D01*
X51964D01*
X51952Y110470D01*
X51935Y110464D01*
X51906Y110453D01*
X51876Y110441D01*
X51835Y110429D01*
X51789Y110418D01*
X51736Y110406D01*
X51730D01*
X51713Y110400D01*
X51683Y110394D01*
X51648Y110388D01*
X51607Y110382D01*
X51555Y110371D01*
X51449Y110353D01*
X51443D01*
X51426Y110347D01*
X51391D01*
X51350Y110342D01*
X51297Y110336D01*
X51239D01*
X51169Y110330D01*
X51016D01*
X50964Y110336D01*
X50899Y110342D01*
X50829Y110347D01*
X50741Y110359D01*
X50654Y110377D01*
X50467Y110418D01*
X50367Y110447D01*
X50268Y110482D01*
X50174Y110523D01*
X50080Y110575D01*
X49993Y110628D01*
X49911Y110693D01*
X49905Y110698D01*
X49893Y110710D01*
X49876Y110733D01*
X49846Y110763D01*
X49817Y110798D01*
X49782Y110845D01*
X49747Y110897D01*
X49706Y110962D01*
X49671Y111032D01*
X49630Y111108D01*
X49595Y111196D01*
X49566Y111289D01*
X49536Y111389D01*
X49519Y111500D01*
X49507Y111617D01*
X49501Y111740D01*
Y111746D01*
Y111769D01*
Y111804D01*
X49507Y111851D01*
X49513Y111909D01*
X49519Y111974D01*
X49531Y112044D01*
X49548Y112126D01*
X49595Y112295D01*
X49624Y112383D01*
X49659Y112471D01*
X49706Y112559D01*
X49759Y112646D01*
X49817Y112728D01*
X49882Y112804D01*
X49887Y112810D01*
X49899Y112822D01*
X49922Y112839D01*
X49952Y112869D01*
X49993Y112898D01*
X50039Y112933D01*
X50092Y112968D01*
X50156Y113003D01*
X50232Y113038D01*
X50309Y113079D01*
X50396Y113109D01*
X50496Y113138D01*
X50595Y113167D01*
X50706Y113185D01*
X50829Y113196D01*
X50952Y113202D01*
X51011D01*
X51057Y113196D01*
D02*
G37*
G36*
X66892Y114900D02*
X66044D01*
Y115198D01*
X66032Y115192D01*
X66009Y115169D01*
X65962Y115134D01*
X65909Y115093D01*
X65845Y115046D01*
X65775Y114999D01*
X65704Y114959D01*
X65634Y114918D01*
X65628Y114912D01*
X65605Y114906D01*
X65564Y114888D01*
X65511Y114871D01*
X65447Y114853D01*
X65371Y114841D01*
X65289Y114830D01*
X65195Y114824D01*
X65154D01*
X65131Y114830D01*
X65096D01*
X65055Y114836D01*
X64967Y114853D01*
X64862Y114888D01*
X64757Y114929D01*
X64657Y114994D01*
X64610Y115029D01*
X64564Y115076D01*
Y115081D01*
X64552Y115087D01*
X64546Y115105D01*
X64528Y115122D01*
X64511Y115152D01*
X64493Y115187D01*
X64476Y115222D01*
X64452Y115269D01*
X64429Y115321D01*
X64411Y115380D01*
X64394Y115438D01*
X64376Y115508D01*
X64365Y115584D01*
X64353Y115666D01*
X64341Y115754D01*
Y115848D01*
Y117620D01*
X65189D01*
Y116269D01*
Y116257D01*
Y116234D01*
Y116193D01*
Y116146D01*
Y116093D01*
Y116035D01*
X65195Y115976D01*
Y115924D01*
Y115918D01*
Y115900D01*
X65201Y115877D01*
X65207Y115848D01*
X65224Y115778D01*
X65248Y115701D01*
Y115696D01*
X65254Y115690D01*
X65277Y115655D01*
X65318Y115608D01*
X65371Y115573D01*
X65377D01*
X65388Y115567D01*
X65406Y115561D01*
X65429Y115555D01*
X65464Y115543D01*
X65500Y115538D01*
X65546Y115532D01*
X65634D01*
X65657Y115538D01*
X65728Y115549D01*
X65810Y115573D01*
X65815D01*
X65833Y115579D01*
X65856Y115590D01*
X65886Y115602D01*
X65962Y115637D01*
X66044Y115690D01*
Y117620D01*
X66892D01*
Y114900D01*
D02*
G37*
G36*
X84116Y31704D02*
X84227Y31698D01*
X84344Y31686D01*
X84467Y31674D01*
X84596Y31657D01*
X84613D01*
X84631Y31651D01*
X84654Y31645D01*
X84719Y31633D01*
X84801Y31610D01*
X84894Y31581D01*
X85000Y31540D01*
X85105Y31487D01*
X85216Y31423D01*
X85222D01*
X85233Y31411D01*
X85251Y31399D01*
X85274Y31382D01*
X85339Y31329D01*
X85421Y31259D01*
X85509Y31171D01*
X85602Y31066D01*
X85696Y30943D01*
X85777Y30809D01*
Y30803D01*
X85789Y30791D01*
X85795Y30768D01*
X85813Y30738D01*
X85824Y30703D01*
X85842Y30656D01*
X85865Y30610D01*
X85883Y30551D01*
X85900Y30487D01*
X85924Y30417D01*
X85953Y30259D01*
X85976Y30089D01*
X85988Y29896D01*
Y29890D01*
Y29873D01*
Y29849D01*
X85982Y29814D01*
Y29767D01*
X85976Y29715D01*
X85971Y29656D01*
X85959Y29598D01*
X85935Y29457D01*
X85895Y29305D01*
X85842Y29147D01*
X85766Y28995D01*
Y28989D01*
X85754Y28978D01*
X85742Y28960D01*
X85725Y28931D01*
X85702Y28896D01*
X85678Y28861D01*
X85614Y28767D01*
X85532Y28673D01*
X85438Y28568D01*
X85327Y28468D01*
X85210Y28381D01*
X85204D01*
X85198Y28375D01*
X85181Y28363D01*
X85163Y28352D01*
X85105Y28322D01*
X85029Y28281D01*
X84935Y28246D01*
X84830Y28205D01*
X84719Y28170D01*
X84596Y28147D01*
X84584D01*
X84561Y28141D01*
X84537D01*
X84508Y28135D01*
X84473D01*
X84385Y28123D01*
X84280Y28117D01*
X84163Y28106D01*
X84034Y28100D01*
X82771D01*
Y31709D01*
X84023D01*
X84116Y31704D01*
D02*
G37*
G36*
X74224Y28100D02*
X73323D01*
X72843Y29855D01*
X72364Y28100D01*
X71463D01*
X70679Y30820D01*
X71568D01*
X71983Y29019D01*
X72498Y30820D01*
X73247D01*
X73732Y29019D01*
X74148Y30820D01*
X75019D01*
X74224Y28100D01*
D02*
G37*
G36*
X86870Y117696D02*
X86922Y117691D01*
X86987Y117679D01*
X87115Y117644D01*
X87121D01*
X87145Y117632D01*
X87174Y117620D01*
X87215Y117603D01*
X87261Y117585D01*
X87314Y117556D01*
X87419Y117497D01*
X87449Y117620D01*
X88274D01*
Y115204D01*
Y115198D01*
Y115187D01*
Y115169D01*
Y115140D01*
X88268Y115111D01*
Y115076D01*
X88262Y114988D01*
X88244Y114888D01*
X88227Y114783D01*
X88197Y114678D01*
X88162Y114572D01*
X88157Y114561D01*
X88145Y114526D01*
X88116Y114479D01*
X88086Y114420D01*
X88039Y114350D01*
X87993Y114286D01*
X87928Y114216D01*
X87864Y114157D01*
X87858Y114151D01*
X87829Y114134D01*
X87788Y114104D01*
X87735Y114075D01*
X87665Y114040D01*
X87589Y113999D01*
X87501Y113970D01*
X87408Y113941D01*
X87396D01*
X87361Y113929D01*
X87308Y113917D01*
X87238Y113906D01*
X87150Y113894D01*
X87045Y113882D01*
X86934Y113876D01*
X86817Y113870D01*
X86717D01*
X86653Y113876D01*
X86571D01*
X86489Y113888D01*
X86302Y113906D01*
X86290D01*
X86261Y113911D01*
X86214Y113917D01*
X86156Y113929D01*
X86092Y113941D01*
X86021Y113952D01*
X85951Y113970D01*
X85881Y113987D01*
Y114666D01*
X85980D01*
X85992Y114660D01*
X86021Y114654D01*
X86068Y114637D01*
X86127Y114619D01*
X86132D01*
X86144Y114613D01*
X86162Y114608D01*
X86179Y114602D01*
X86238Y114584D01*
X86302Y114567D01*
X86308D01*
X86320Y114561D01*
X86343Y114555D01*
X86366Y114549D01*
X86431Y114537D01*
X86507Y114520D01*
X86524D01*
X86542Y114514D01*
X86571D01*
X86636Y114508D01*
X86712Y114502D01*
X86788D01*
X86840Y114508D01*
X86893Y114514D01*
X86957Y114520D01*
X87016Y114531D01*
X87074Y114549D01*
X87080D01*
X87098Y114561D01*
X87127Y114567D01*
X87156Y114584D01*
X87226Y114625D01*
X87261Y114648D01*
X87291Y114678D01*
X87297Y114683D01*
X87302Y114695D01*
X87314Y114713D01*
X87332Y114736D01*
X87367Y114801D01*
X87396Y114882D01*
Y114888D01*
X87402Y114900D01*
X87408Y114929D01*
X87414Y114959D01*
Y114999D01*
X87419Y115046D01*
X87425Y115105D01*
Y115163D01*
Y115216D01*
X87419Y115210D01*
X87402Y115198D01*
X87367Y115175D01*
X87332Y115146D01*
X87279Y115117D01*
X87221Y115081D01*
X87162Y115046D01*
X87092Y115017D01*
X87086Y115011D01*
X87063Y115005D01*
X87022Y114994D01*
X86975Y114982D01*
X86916Y114964D01*
X86852Y114953D01*
X86782Y114947D01*
X86706Y114941D01*
X86653D01*
X86618Y114947D01*
X86571Y114953D01*
X86524Y114959D01*
X86401Y114982D01*
X86273Y115023D01*
X86203Y115052D01*
X86138Y115087D01*
X86068Y115122D01*
X86004Y115169D01*
X85945Y115222D01*
X85887Y115280D01*
X85881Y115286D01*
X85875Y115298D01*
X85863Y115315D01*
X85840Y115345D01*
X85822Y115380D01*
X85799Y115427D01*
X85770Y115479D01*
X85746Y115543D01*
X85717Y115614D01*
X85694Y115690D01*
X85664Y115778D01*
X85647Y115871D01*
X85629Y115971D01*
X85612Y116088D01*
X85606Y116205D01*
X85600Y116333D01*
Y116339D01*
Y116345D01*
Y116363D01*
Y116386D01*
X85606Y116444D01*
X85612Y116521D01*
X85624Y116608D01*
X85635Y116708D01*
X85659Y116807D01*
X85688Y116901D01*
Y116906D01*
X85694Y116912D01*
X85705Y116942D01*
X85723Y116994D01*
X85752Y117053D01*
X85787Y117123D01*
X85828Y117193D01*
X85875Y117269D01*
X85934Y117340D01*
X85939Y117345D01*
X85963Y117369D01*
X85992Y117398D01*
X86039Y117439D01*
X86092Y117480D01*
X86150Y117527D01*
X86220Y117568D01*
X86296Y117608D01*
X86308Y117614D01*
X86331Y117626D01*
X86378Y117638D01*
X86431Y117655D01*
X86501Y117673D01*
X86577Y117691D01*
X86659Y117696D01*
X86741Y117702D01*
X86817D01*
X86870Y117696D01*
D02*
G37*
G36*
X82156Y31031D02*
X80624D01*
Y30387D01*
X82034D01*
Y29709D01*
X80624D01*
Y28779D01*
X82156D01*
Y28100D01*
X79717D01*
Y31709D01*
X82156D01*
Y31031D01*
D02*
G37*
G36*
X69222Y30896D02*
X69275Y30890D01*
X69339Y30885D01*
X69415Y30873D01*
X69491Y30855D01*
X69655Y30809D01*
X69743Y30779D01*
X69830Y30738D01*
X69912Y30697D01*
X69994Y30645D01*
X70076Y30586D01*
X70146Y30516D01*
X70152Y30510D01*
X70164Y30498D01*
X70181Y30475D01*
X70205Y30446D01*
X70234Y30405D01*
X70263Y30358D01*
X70298Y30305D01*
X70334Y30241D01*
X70363Y30165D01*
X70398Y30089D01*
X70427Y30001D01*
X70456Y29908D01*
X70480Y29802D01*
X70497Y29697D01*
X70509Y29580D01*
X70515Y29457D01*
Y29451D01*
Y29428D01*
Y29393D01*
X70509Y29346D01*
X70503Y29287D01*
X70497Y29223D01*
X70486Y29153D01*
X70468Y29071D01*
X70427Y28901D01*
X70398Y28814D01*
X70357Y28726D01*
X70316Y28638D01*
X70269Y28556D01*
X70211Y28474D01*
X70146Y28398D01*
X70140Y28392D01*
X70129Y28381D01*
X70105Y28363D01*
X70076Y28340D01*
X70041Y28311D01*
X69994Y28275D01*
X69942Y28246D01*
X69877Y28211D01*
X69807Y28170D01*
X69731Y28141D01*
X69649Y28106D01*
X69555Y28077D01*
X69456Y28053D01*
X69345Y28036D01*
X69234Y28024D01*
X69111Y28018D01*
X69047D01*
X69000Y28024D01*
X68947Y28030D01*
X68883Y28036D01*
X68807Y28047D01*
X68731Y28065D01*
X68567Y28112D01*
X68479Y28141D01*
X68391Y28176D01*
X68309Y28223D01*
X68227Y28275D01*
X68146Y28334D01*
X68076Y28398D01*
X68070Y28404D01*
X68058Y28416D01*
X68040Y28439D01*
X68017Y28468D01*
X67994Y28510D01*
X67958Y28556D01*
X67929Y28615D01*
X67894Y28673D01*
X67859Y28749D01*
X67830Y28825D01*
X67795Y28913D01*
X67771Y29007D01*
X67748Y29112D01*
X67730Y29217D01*
X67719Y29334D01*
X67713Y29457D01*
Y29463D01*
Y29487D01*
Y29522D01*
X67719Y29568D01*
X67725Y29627D01*
X67730Y29691D01*
X67742Y29767D01*
X67760Y29843D01*
X67800Y30013D01*
X67830Y30101D01*
X67865Y30189D01*
X67906Y30276D01*
X67958Y30364D01*
X68011Y30440D01*
X68076Y30516D01*
X68081Y30522D01*
X68093Y30534D01*
X68116Y30551D01*
X68146Y30575D01*
X68181Y30604D01*
X68227Y30639D01*
X68280Y30674D01*
X68345Y30709D01*
X68415Y30744D01*
X68491Y30779D01*
X68573Y30814D01*
X68666Y30844D01*
X68766Y30867D01*
X68877Y30885D01*
X68988Y30896D01*
X69111Y30902D01*
X69175D01*
X69222Y30896D01*
D02*
G37*
G36*
X66280Y31704D02*
X66367Y31698D01*
X66455Y31686D01*
X66543Y31668D01*
X66631Y31651D01*
X66642D01*
X66672Y31639D01*
X66712Y31628D01*
X66771Y31604D01*
X66835Y31581D01*
X66900Y31552D01*
X66976Y31511D01*
X67046Y31470D01*
X67058Y31464D01*
X67081Y31446D01*
X67116Y31417D01*
X67157Y31376D01*
X67210Y31323D01*
X67262Y31259D01*
X67309Y31189D01*
X67356Y31107D01*
X67362Y31095D01*
X67374Y31066D01*
X67391Y31019D01*
X67414Y30955D01*
X67438Y30873D01*
X67455Y30785D01*
X67467Y30680D01*
X67473Y30569D01*
Y30557D01*
Y30528D01*
X67467Y30475D01*
X67461Y30417D01*
X67455Y30341D01*
X67438Y30259D01*
X67420Y30177D01*
X67391Y30089D01*
X67385Y30077D01*
X67374Y30054D01*
X67356Y30007D01*
X67333Y29954D01*
X67297Y29896D01*
X67262Y29832D01*
X67216Y29767D01*
X67163Y29709D01*
X67157Y29703D01*
X67145Y29691D01*
X67128Y29674D01*
X67104Y29650D01*
X67040Y29598D01*
X66958Y29533D01*
X66952Y29527D01*
X66940Y29522D01*
X66917Y29504D01*
X66888Y29487D01*
X66853Y29463D01*
X66812Y29440D01*
X66718Y29399D01*
X66712D01*
X66695Y29387D01*
X66666Y29381D01*
X66631Y29364D01*
X66589Y29352D01*
X66537Y29334D01*
X66426Y29311D01*
X66420D01*
X66396Y29305D01*
X66367Y29299D01*
X66326D01*
X66274Y29293D01*
X66215Y29287D01*
X66145Y29282D01*
X65607D01*
Y28100D01*
X64700D01*
Y31709D01*
X66209D01*
X66280Y31704D01*
D02*
G37*
G36*
X77786Y28779D02*
X79284D01*
Y28100D01*
X76880D01*
Y31709D01*
X77786D01*
Y28779D01*
D02*
G37*
G36*
X72391Y117878D02*
X71870D01*
Y115532D01*
X72391D01*
Y114900D01*
X70443D01*
Y115532D01*
X70963D01*
Y117878D01*
X70443D01*
Y118509D01*
X72391D01*
Y117878D01*
D02*
G37*
G36*
X78709Y117831D02*
X77644D01*
Y114900D01*
X76737D01*
Y117831D01*
X75673D01*
Y118509D01*
X78709D01*
Y117831D01*
D02*
G37*
G36*
X79914Y114900D02*
X79054D01*
Y115854D01*
X79914D01*
Y114900D01*
D02*
G37*
G36*
X60539D02*
X59690D01*
Y117620D01*
X60539D01*
Y114900D01*
D02*
G37*
G36*
X74251Y117696D02*
X74304Y117691D01*
X74368Y117685D01*
X74444Y117673D01*
X74520Y117655D01*
X74684Y117608D01*
X74772Y117579D01*
X74859Y117538D01*
X74941Y117497D01*
X75023Y117445D01*
X75105Y117386D01*
X75175Y117316D01*
X75181Y117310D01*
X75193Y117298D01*
X75210Y117275D01*
X75234Y117246D01*
X75263Y117205D01*
X75292Y117158D01*
X75327Y117105D01*
X75363Y117041D01*
X75392Y116965D01*
X75427Y116889D01*
X75456Y116801D01*
X75485Y116708D01*
X75509Y116602D01*
X75526Y116497D01*
X75538Y116380D01*
X75544Y116257D01*
Y116251D01*
Y116228D01*
Y116193D01*
X75538Y116146D01*
X75532Y116088D01*
X75526Y116023D01*
X75515Y115953D01*
X75497Y115871D01*
X75456Y115701D01*
X75427Y115614D01*
X75386Y115526D01*
X75345Y115438D01*
X75298Y115356D01*
X75240Y115274D01*
X75175Y115198D01*
X75170Y115192D01*
X75158Y115181D01*
X75134Y115163D01*
X75105Y115140D01*
X75070Y115111D01*
X75023Y115076D01*
X74971Y115046D01*
X74906Y115011D01*
X74836Y114970D01*
X74760Y114941D01*
X74678Y114906D01*
X74585Y114877D01*
X74485Y114853D01*
X74374Y114836D01*
X74263Y114824D01*
X74140Y114818D01*
X74076D01*
X74029Y114824D01*
X73976Y114830D01*
X73912Y114836D01*
X73836Y114847D01*
X73760Y114865D01*
X73596Y114912D01*
X73508Y114941D01*
X73420Y114976D01*
X73339Y115023D01*
X73257Y115076D01*
X73175Y115134D01*
X73105Y115198D01*
X73099Y115204D01*
X73087Y115216D01*
X73069Y115239D01*
X73046Y115269D01*
X73023Y115310D01*
X72988Y115356D01*
X72958Y115415D01*
X72923Y115473D01*
X72888Y115549D01*
X72859Y115625D01*
X72824Y115713D01*
X72800Y115807D01*
X72777Y115912D01*
X72759Y116017D01*
X72748Y116134D01*
X72742Y116257D01*
Y116263D01*
Y116286D01*
Y116322D01*
X72748Y116368D01*
X72754Y116427D01*
X72759Y116491D01*
X72771Y116567D01*
X72789Y116643D01*
X72830Y116813D01*
X72859Y116901D01*
X72894Y116988D01*
X72935Y117076D01*
X72988Y117164D01*
X73040Y117240D01*
X73105Y117316D01*
X73110Y117322D01*
X73122Y117334D01*
X73146Y117351D01*
X73175Y117375D01*
X73210Y117404D01*
X73257Y117439D01*
X73309Y117474D01*
X73374Y117509D01*
X73444Y117544D01*
X73520Y117579D01*
X73602Y117614D01*
X73695Y117644D01*
X73795Y117667D01*
X73906Y117685D01*
X74017Y117696D01*
X74140Y117702D01*
X74204D01*
X74251Y117696D01*
D02*
G37*
G36*
X81897D02*
X81950Y117691D01*
X82014Y117685D01*
X82090Y117673D01*
X82166Y117655D01*
X82330Y117608D01*
X82418Y117579D01*
X82505Y117538D01*
X82587Y117497D01*
X82669Y117445D01*
X82751Y117386D01*
X82821Y117316D01*
X82827Y117310D01*
X82839Y117298D01*
X82856Y117275D01*
X82880Y117246D01*
X82909Y117205D01*
X82938Y117158D01*
X82973Y117105D01*
X83009Y117041D01*
X83038Y116965D01*
X83073Y116889D01*
X83102Y116801D01*
X83131Y116708D01*
X83155Y116602D01*
X83172Y116497D01*
X83184Y116380D01*
X83190Y116257D01*
Y116251D01*
Y116228D01*
Y116193D01*
X83184Y116146D01*
X83178Y116088D01*
X83172Y116023D01*
X83161Y115953D01*
X83143Y115871D01*
X83102Y115701D01*
X83073Y115614D01*
X83032Y115526D01*
X82991Y115438D01*
X82944Y115356D01*
X82886Y115274D01*
X82821Y115198D01*
X82815Y115192D01*
X82804Y115181D01*
X82780Y115163D01*
X82751Y115140D01*
X82716Y115111D01*
X82669Y115076D01*
X82617Y115046D01*
X82552Y115011D01*
X82482Y114970D01*
X82406Y114941D01*
X82324Y114906D01*
X82231Y114877D01*
X82131Y114853D01*
X82020Y114836D01*
X81909Y114824D01*
X81786Y114818D01*
X81722D01*
X81675Y114824D01*
X81622Y114830D01*
X81558Y114836D01*
X81482Y114847D01*
X81406Y114865D01*
X81242Y114912D01*
X81154Y114941D01*
X81066Y114976D01*
X80984Y115023D01*
X80902Y115076D01*
X80821Y115134D01*
X80751Y115198D01*
X80745Y115204D01*
X80733Y115216D01*
X80715Y115239D01*
X80692Y115269D01*
X80669Y115310D01*
X80633Y115356D01*
X80604Y115415D01*
X80569Y115473D01*
X80534Y115549D01*
X80505Y115625D01*
X80470Y115713D01*
X80446Y115807D01*
X80423Y115912D01*
X80405Y116017D01*
X80394Y116134D01*
X80388Y116257D01*
Y116263D01*
Y116286D01*
Y116322D01*
X80394Y116368D01*
X80400Y116427D01*
X80405Y116491D01*
X80417Y116567D01*
X80435Y116643D01*
X80475Y116813D01*
X80505Y116901D01*
X80540Y116988D01*
X80581Y117076D01*
X80633Y117164D01*
X80686Y117240D01*
X80751Y117316D01*
X80756Y117322D01*
X80768Y117334D01*
X80791Y117351D01*
X80821Y117375D01*
X80856Y117404D01*
X80902Y117439D01*
X80955Y117474D01*
X81020Y117509D01*
X81090Y117544D01*
X81166Y117579D01*
X81248Y117614D01*
X81341Y117644D01*
X81441Y117667D01*
X81552Y117685D01*
X81663Y117696D01*
X81786Y117702D01*
X81850D01*
X81897Y117696D01*
D02*
G37*
G36*
X57807Y115579D02*
X59304D01*
Y114900D01*
X56900D01*
Y118509D01*
X57807D01*
Y115579D01*
D02*
G37*
G36*
X94318Y113196D02*
X94365D01*
X94418Y113185D01*
X94470Y113173D01*
X94529Y113161D01*
X94587Y113138D01*
X94593D01*
X94611Y113126D01*
X94640Y113114D01*
X94675Y113091D01*
X94716Y113068D01*
X94763Y113038D01*
X94804Y112997D01*
X94845Y112956D01*
X94850Y112951D01*
X94862Y112933D01*
X94886Y112904D01*
X94909Y112869D01*
X94932Y112822D01*
X94962Y112769D01*
X94991Y112711D01*
X95014Y112646D01*
Y112641D01*
X95026Y112611D01*
X95032Y112576D01*
X95043Y112518D01*
X95055Y112453D01*
X95061Y112372D01*
X95073Y112278D01*
Y112173D01*
Y110400D01*
X94225D01*
Y111757D01*
Y111769D01*
Y111792D01*
Y111827D01*
Y111874D01*
Y111933D01*
X94219Y111985D01*
Y112044D01*
X94213Y112097D01*
Y112102D01*
Y112120D01*
X94207Y112143D01*
Y112178D01*
X94195Y112254D01*
X94172Y112325D01*
Y112330D01*
X94166Y112336D01*
X94143Y112372D01*
X94108Y112418D01*
X94055Y112453D01*
X94049D01*
X94043Y112459D01*
X94026Y112465D01*
X94002Y112477D01*
X93973Y112483D01*
X93932Y112488D01*
X93891Y112494D01*
X93809D01*
X93786Y112488D01*
X93721Y112477D01*
X93651Y112448D01*
X93645D01*
X93634Y112442D01*
X93616Y112430D01*
X93593Y112418D01*
X93528Y112383D01*
X93446Y112330D01*
Y110400D01*
X92598D01*
Y111757D01*
Y111769D01*
Y111792D01*
Y111827D01*
Y111874D01*
Y111927D01*
X92592Y111985D01*
X92586Y112097D01*
Y112102D01*
Y112120D01*
X92581Y112143D01*
Y112178D01*
X92563Y112254D01*
X92540Y112325D01*
Y112330D01*
X92534Y112336D01*
X92510Y112372D01*
X92475Y112418D01*
X92428Y112453D01*
X92423D01*
X92417Y112459D01*
X92399Y112465D01*
X92376Y112477D01*
X92347Y112483D01*
X92306Y112488D01*
X92265Y112494D01*
X92177D01*
X92154Y112488D01*
X92089Y112471D01*
X92013Y112442D01*
X92007D01*
X91996Y112436D01*
X91978Y112424D01*
X91955Y112412D01*
X91890Y112377D01*
X91820Y112330D01*
Y110400D01*
X90972D01*
Y113120D01*
X91820D01*
Y112822D01*
X91832Y112828D01*
X91855Y112851D01*
X91896Y112880D01*
X91943Y112921D01*
X92007Y112968D01*
X92072Y113015D01*
X92136Y113056D01*
X92206Y113097D01*
X92212Y113103D01*
X92241Y113114D01*
X92276Y113132D01*
X92329Y113149D01*
X92388Y113167D01*
X92458Y113185D01*
X92540Y113196D01*
X92622Y113202D01*
X92663D01*
X92709Y113196D01*
X92774Y113185D01*
X92838Y113173D01*
X92914Y113149D01*
X92990Y113120D01*
X93060Y113079D01*
X93066Y113074D01*
X93090Y113056D01*
X93125Y113032D01*
X93166Y112992D01*
X93212Y112945D01*
X93259Y112880D01*
X93306Y112810D01*
X93347Y112728D01*
X93359Y112740D01*
X93388Y112763D01*
X93435Y112804D01*
X93499Y112857D01*
X93569Y112916D01*
X93645Y112974D01*
X93727Y113027D01*
X93809Y113079D01*
X93821Y113085D01*
X93844Y113097D01*
X93891Y113120D01*
X93944Y113144D01*
X94014Y113161D01*
X94084Y113185D01*
X94166Y113196D01*
X94248Y113202D01*
X94283D01*
X94318Y113196D01*
D02*
G37*
G36*
X108323Y113126D02*
X108387D01*
X108423Y113120D01*
Y112319D01*
X108346D01*
X108341Y112325D01*
X108311Y112330D01*
X108270Y112336D01*
X108206Y112342D01*
X108188D01*
X108171Y112348D01*
X108148D01*
X108083Y112354D01*
X107954D01*
X107919Y112348D01*
X107878Y112342D01*
X107832Y112336D01*
X107720Y112313D01*
X107715D01*
X107697Y112307D01*
X107668Y112295D01*
X107633Y112284D01*
X107586Y112272D01*
X107539Y112254D01*
X107440Y112219D01*
Y110400D01*
X106591D01*
Y113120D01*
X107440D01*
Y112728D01*
X107451Y112740D01*
X107481Y112763D01*
X107527Y112810D01*
X107598Y112863D01*
X107603Y112869D01*
X107615Y112874D01*
X107633Y112892D01*
X107662Y112910D01*
X107720Y112951D01*
X107785Y112992D01*
X107791D01*
X107802Y113003D01*
X107820Y113015D01*
X107849Y113027D01*
X107913Y113056D01*
X108001Y113091D01*
X108007D01*
X108025Y113097D01*
X108048Y113103D01*
X108077Y113114D01*
X108153Y113126D01*
X108235Y113132D01*
X108288D01*
X108323Y113126D01*
D02*
G37*
G36*
X68262Y113196D02*
X68297D01*
X68338Y113190D01*
X68426Y113167D01*
X68531Y113138D01*
X68637Y113091D01*
X68736Y113021D01*
X68789Y112980D01*
X68830Y112933D01*
X68841Y112921D01*
X68853Y112904D01*
X68865Y112886D01*
X68882Y112857D01*
X68900Y112822D01*
X68917Y112787D01*
X68941Y112740D01*
X68982Y112635D01*
X69017Y112500D01*
X69040Y112348D01*
X69052Y112173D01*
Y110400D01*
X68204D01*
Y111751D01*
Y111757D01*
Y111781D01*
Y111810D01*
Y111857D01*
X68198Y111903D01*
Y111956D01*
X68186Y112079D01*
Y112085D01*
Y112108D01*
X68180Y112137D01*
X68174Y112173D01*
X68163Y112249D01*
X68151Y112290D01*
X68139Y112319D01*
Y112325D01*
X68133Y112336D01*
X68104Y112372D01*
X68063Y112412D01*
X68011Y112453D01*
X68005D01*
X67993Y112459D01*
X67975Y112465D01*
X67952Y112477D01*
X67923Y112483D01*
X67882Y112488D01*
X67841Y112494D01*
X67747D01*
X67724Y112488D01*
X67654Y112477D01*
X67572Y112453D01*
X67566D01*
X67554Y112448D01*
X67531Y112436D01*
X67508Y112424D01*
X67431Y112383D01*
X67350Y112330D01*
Y110400D01*
X66501D01*
Y113120D01*
X67350D01*
Y112822D01*
X67361Y112828D01*
X67385Y112851D01*
X67426Y112880D01*
X67478Y112921D01*
X67537Y112968D01*
X67607Y113015D01*
X67677Y113056D01*
X67753Y113097D01*
X67765Y113103D01*
X67788Y113114D01*
X67829Y113132D01*
X67882Y113149D01*
X67946Y113167D01*
X68022Y113185D01*
X68104Y113196D01*
X68192Y113202D01*
X68233D01*
X68262Y113196D01*
D02*
G37*
G36*
X58311Y110400D02*
X57463D01*
Y110698D01*
X57451Y110693D01*
X57428Y110669D01*
X57381Y110634D01*
X57328Y110593D01*
X57264Y110546D01*
X57194Y110500D01*
X57124Y110459D01*
X57054Y110418D01*
X57048Y110412D01*
X57024Y110406D01*
X56983Y110388D01*
X56931Y110371D01*
X56866Y110353D01*
X56790Y110342D01*
X56709Y110330D01*
X56615Y110324D01*
X56574D01*
X56551Y110330D01*
X56515D01*
X56475Y110336D01*
X56387Y110353D01*
X56281Y110388D01*
X56176Y110429D01*
X56077Y110494D01*
X56030Y110529D01*
X55983Y110575D01*
Y110581D01*
X55971Y110587D01*
X55966Y110605D01*
X55948Y110622D01*
X55930Y110652D01*
X55913Y110687D01*
X55895Y110722D01*
X55872Y110769D01*
X55848Y110821D01*
X55831Y110880D01*
X55813Y110938D01*
X55796Y111008D01*
X55784Y111084D01*
X55773Y111166D01*
X55761Y111254D01*
Y111348D01*
Y113120D01*
X56609D01*
Y111769D01*
Y111757D01*
Y111734D01*
Y111693D01*
Y111646D01*
Y111593D01*
Y111535D01*
X56615Y111476D01*
Y111424D01*
Y111418D01*
Y111400D01*
X56621Y111377D01*
X56626Y111348D01*
X56644Y111277D01*
X56668Y111201D01*
Y111196D01*
X56673Y111190D01*
X56697Y111155D01*
X56738Y111108D01*
X56790Y111073D01*
X56796D01*
X56808Y111067D01*
X56826Y111061D01*
X56849Y111055D01*
X56884Y111044D01*
X56919Y111038D01*
X56966Y111032D01*
X57054D01*
X57077Y111038D01*
X57147Y111049D01*
X57229Y111073D01*
X57235D01*
X57253Y111079D01*
X57276Y111090D01*
X57305Y111102D01*
X57381Y111137D01*
X57463Y111190D01*
Y113120D01*
X58311D01*
Y110400D01*
D02*
G37*
G36*
X79243Y113126D02*
X79307D01*
X79342Y113120D01*
Y112319D01*
X79266D01*
X79260Y112325D01*
X79231Y112330D01*
X79190Y112336D01*
X79126Y112342D01*
X79108D01*
X79090Y112348D01*
X79067D01*
X79003Y112354D01*
X78874D01*
X78839Y112348D01*
X78798Y112342D01*
X78751Y112336D01*
X78640Y112313D01*
X78634D01*
X78617Y112307D01*
X78588Y112295D01*
X78552Y112284D01*
X78506Y112272D01*
X78459Y112254D01*
X78359Y112219D01*
Y110400D01*
X77511D01*
Y113120D01*
X78359D01*
Y112728D01*
X78371Y112740D01*
X78400Y112763D01*
X78447Y112810D01*
X78517Y112863D01*
X78523Y112869D01*
X78535Y112874D01*
X78552Y112892D01*
X78582Y112910D01*
X78640Y112951D01*
X78704Y112992D01*
X78710D01*
X78722Y113003D01*
X78740Y113015D01*
X78769Y113027D01*
X78833Y113056D01*
X78921Y113091D01*
X78927D01*
X78944Y113097D01*
X78968Y113103D01*
X78997Y113114D01*
X79073Y113126D01*
X79155Y113132D01*
X79208D01*
X79243Y113126D01*
D02*
G37*
G36*
X87579D02*
X87643D01*
X87678Y113120D01*
Y112319D01*
X87602D01*
X87596Y112325D01*
X87567Y112330D01*
X87526Y112336D01*
X87462Y112342D01*
X87444D01*
X87427Y112348D01*
X87403D01*
X87339Y112354D01*
X87210D01*
X87175Y112348D01*
X87134Y112342D01*
X87088Y112336D01*
X86976Y112313D01*
X86971D01*
X86953Y112307D01*
X86924Y112295D01*
X86889Y112284D01*
X86842Y112272D01*
X86795Y112254D01*
X86696Y112219D01*
Y110400D01*
X85847D01*
Y113120D01*
X86696D01*
Y112728D01*
X86707Y112740D01*
X86737Y112763D01*
X86783Y112810D01*
X86853Y112863D01*
X86859Y112869D01*
X86871Y112874D01*
X86889Y112892D01*
X86918Y112910D01*
X86976Y112951D01*
X87041Y112992D01*
X87047D01*
X87058Y113003D01*
X87076Y113015D01*
X87105Y113027D01*
X87169Y113056D01*
X87257Y113091D01*
X87263D01*
X87281Y113097D01*
X87304Y113103D01*
X87333Y113114D01*
X87409Y113126D01*
X87491Y113132D01*
X87544D01*
X87579Y113126D01*
D02*
G37*
G36*
X72158Y110400D02*
X71310D01*
Y110681D01*
X71304Y110675D01*
X71293Y110669D01*
X71275Y110657D01*
X71251Y110634D01*
X71193Y110587D01*
X71117Y110535D01*
X71111Y110529D01*
X71100Y110523D01*
X71082Y110511D01*
X71053Y110494D01*
X70994Y110453D01*
X70936Y110418D01*
X70930D01*
X70918Y110412D01*
X70895Y110406D01*
X70871Y110394D01*
X70807Y110371D01*
X70731Y110353D01*
X70725D01*
X70713Y110347D01*
X70690Y110342D01*
X70666D01*
X70631Y110336D01*
X70591Y110330D01*
X70491Y110324D01*
X70444D01*
X70415Y110330D01*
X70374Y110336D01*
X70333Y110347D01*
X70228Y110371D01*
X70111Y110418D01*
X70047Y110447D01*
X69988Y110488D01*
X69924Y110529D01*
X69865Y110581D01*
X69807Y110640D01*
X69754Y110710D01*
Y110716D01*
X69742Y110728D01*
X69731Y110751D01*
X69713Y110780D01*
X69690Y110821D01*
X69666Y110868D01*
X69643Y110921D01*
X69619Y110985D01*
X69596Y111055D01*
X69573Y111131D01*
X69549Y111213D01*
X69526Y111307D01*
X69508Y111406D01*
X69497Y111512D01*
X69491Y111623D01*
X69485Y111740D01*
Y111746D01*
Y111757D01*
Y111775D01*
Y111798D01*
X69491Y111868D01*
X69497Y111950D01*
X69508Y112050D01*
X69520Y112149D01*
X69543Y112260D01*
X69573Y112360D01*
Y112366D01*
X69578Y112372D01*
X69590Y112407D01*
X69613Y112453D01*
X69643Y112518D01*
X69678Y112588D01*
X69719Y112664D01*
X69771Y112740D01*
X69830Y112816D01*
X69836Y112822D01*
X69859Y112845D01*
X69889Y112874D01*
X69929Y112916D01*
X69982Y112962D01*
X70041Y113009D01*
X70111Y113056D01*
X70187Y113097D01*
X70199Y113103D01*
X70222Y113114D01*
X70269Y113132D01*
X70327Y113149D01*
X70392Y113167D01*
X70468Y113185D01*
X70549Y113196D01*
X70637Y113202D01*
X70713D01*
X70760Y113196D01*
X70813Y113190D01*
X70871Y113185D01*
X70930Y113173D01*
X70982Y113155D01*
X70988D01*
X71006Y113149D01*
X71035Y113138D01*
X71076Y113120D01*
X71123Y113103D01*
X71181Y113079D01*
X71240Y113050D01*
X71310Y113015D01*
Y114167D01*
X72158D01*
Y110400D01*
D02*
G37*
G36*
X64647Y113196D02*
X64705D01*
X64770Y113190D01*
X64840Y113185D01*
X64922Y113173D01*
X65086Y113144D01*
X65255Y113103D01*
X65419Y113044D01*
X65489Y113003D01*
X65554Y112962D01*
X65560D01*
X65565Y112951D01*
X65606Y112921D01*
X65653Y112863D01*
X65717Y112787D01*
X65776Y112687D01*
X65823Y112565D01*
X65864Y112418D01*
X65870Y112336D01*
X65875Y112249D01*
Y110400D01*
X65027D01*
Y110687D01*
X65021Y110681D01*
X65015Y110675D01*
X64974Y110640D01*
X64922Y110599D01*
X64869Y110552D01*
X64863D01*
X64858Y110540D01*
X64840Y110529D01*
X64822Y110517D01*
X64764Y110482D01*
X64688Y110441D01*
X64682D01*
X64670Y110435D01*
X64647Y110423D01*
X64618Y110412D01*
X64547Y110382D01*
X64465Y110359D01*
X64460D01*
X64448Y110353D01*
X64425Y110347D01*
X64389D01*
X64349Y110342D01*
X64296Y110336D01*
X64237Y110330D01*
X64132D01*
X64109Y110336D01*
X64038Y110342D01*
X63957Y110359D01*
X63863Y110388D01*
X63763Y110429D01*
X63664Y110488D01*
X63570Y110570D01*
X63559Y110581D01*
X63535Y110611D01*
X63494Y110663D01*
X63454Y110733D01*
X63412Y110821D01*
X63372Y110926D01*
X63348Y111044D01*
X63336Y111178D01*
Y111184D01*
Y111190D01*
Y111207D01*
Y111231D01*
X63342Y111283D01*
X63354Y111354D01*
X63366Y111430D01*
X63383Y111512D01*
X63412Y111593D01*
X63454Y111670D01*
X63459Y111675D01*
X63477Y111699D01*
X63506Y111734D01*
X63541Y111775D01*
X63594Y111822D01*
X63652Y111874D01*
X63723Y111921D01*
X63799Y111962D01*
X63810Y111968D01*
X63840Y111979D01*
X63886Y111997D01*
X63951Y112021D01*
X64033Y112050D01*
X64126Y112073D01*
X64232Y112097D01*
X64343Y112114D01*
X64360D01*
X64378Y112120D01*
X64401D01*
X64430Y112126D01*
X64465Y112132D01*
X64547Y112143D01*
X64653Y112155D01*
X64770Y112167D01*
X64893Y112178D01*
X65027Y112190D01*
Y112202D01*
Y112214D01*
Y112237D01*
X65021Y112278D01*
X65010Y112325D01*
X64986Y112377D01*
X64957Y112430D01*
X64916Y112477D01*
X64863Y112518D01*
X64858Y112524D01*
X64834Y112535D01*
X64793Y112547D01*
X64741Y112565D01*
X64670Y112582D01*
X64588Y112600D01*
X64489Y112605D01*
X64372Y112611D01*
X64314D01*
X64272Y112605D01*
X64220Y112600D01*
X64161Y112588D01*
X64091Y112570D01*
X64021Y112553D01*
X64015D01*
X63986Y112541D01*
X63951Y112529D01*
X63898Y112512D01*
X63840Y112494D01*
X63775Y112471D01*
X63635Y112412D01*
X63565D01*
Y113062D01*
X63570D01*
X63588Y113068D01*
X63617Y113079D01*
X63664Y113091D01*
X63717Y113103D01*
X63787Y113114D01*
X63869Y113132D01*
X63968Y113149D01*
X63980D01*
X64015Y113155D01*
X64074Y113167D01*
X64144Y113179D01*
X64232Y113185D01*
X64325Y113196D01*
X64425Y113202D01*
X64594D01*
X64647Y113196D01*
D02*
G37*
G36*
X75885Y114004D02*
X75972Y113998D01*
X76060Y113986D01*
X76148Y113969D01*
X76236Y113951D01*
X76248D01*
X76277Y113939D01*
X76318Y113927D01*
X76376Y113904D01*
X76441Y113881D01*
X76505Y113851D01*
X76581Y113811D01*
X76651Y113770D01*
X76663Y113764D01*
X76686Y113746D01*
X76721Y113717D01*
X76762Y113676D01*
X76815Y113623D01*
X76868Y113559D01*
X76914Y113489D01*
X76961Y113407D01*
X76967Y113395D01*
X76979Y113366D01*
X76996Y113319D01*
X77020Y113255D01*
X77043Y113173D01*
X77061Y113085D01*
X77072Y112980D01*
X77078Y112869D01*
Y112857D01*
Y112828D01*
X77072Y112775D01*
X77066Y112717D01*
X77061Y112641D01*
X77043Y112559D01*
X77026Y112477D01*
X76996Y112389D01*
X76990Y112377D01*
X76979Y112354D01*
X76961Y112307D01*
X76938Y112254D01*
X76903Y112196D01*
X76868Y112132D01*
X76821Y112067D01*
X76768Y112009D01*
X76762Y112003D01*
X76750Y111991D01*
X76733Y111974D01*
X76710Y111950D01*
X76645Y111898D01*
X76563Y111833D01*
X76557Y111827D01*
X76546Y111822D01*
X76522Y111804D01*
X76493Y111786D01*
X76458Y111763D01*
X76417Y111740D01*
X76323Y111699D01*
X76318D01*
X76300Y111687D01*
X76271Y111681D01*
X76236Y111664D01*
X76195Y111652D01*
X76142Y111634D01*
X76031Y111611D01*
X76025D01*
X76002Y111605D01*
X75972Y111599D01*
X75932D01*
X75879Y111593D01*
X75820Y111588D01*
X75750Y111582D01*
X75212D01*
Y110400D01*
X74305D01*
Y114009D01*
X75814D01*
X75885Y114004D01*
D02*
G37*
G36*
X89117Y113196D02*
X89176D01*
X89240Y113190D01*
X89310Y113185D01*
X89392Y113173D01*
X89556Y113144D01*
X89726Y113103D01*
X89890Y113044D01*
X89960Y113003D01*
X90024Y112962D01*
X90030D01*
X90036Y112951D01*
X90077Y112921D01*
X90124Y112863D01*
X90188Y112787D01*
X90246Y112687D01*
X90293Y112565D01*
X90334Y112418D01*
X90340Y112336D01*
X90346Y112249D01*
Y110400D01*
X89498D01*
Y110687D01*
X89492Y110681D01*
X89486Y110675D01*
X89445Y110640D01*
X89392Y110599D01*
X89340Y110552D01*
X89334D01*
X89328Y110540D01*
X89310Y110529D01*
X89293Y110517D01*
X89235Y110482D01*
X89158Y110441D01*
X89152D01*
X89141Y110435D01*
X89117Y110423D01*
X89088Y110412D01*
X89018Y110382D01*
X88936Y110359D01*
X88930D01*
X88919Y110353D01*
X88895Y110347D01*
X88860D01*
X88819Y110342D01*
X88766Y110336D01*
X88708Y110330D01*
X88603D01*
X88579Y110336D01*
X88509Y110342D01*
X88427Y110359D01*
X88334Y110388D01*
X88234Y110429D01*
X88135Y110488D01*
X88041Y110570D01*
X88029Y110581D01*
X88006Y110611D01*
X87965Y110663D01*
X87924Y110733D01*
X87883Y110821D01*
X87842Y110926D01*
X87819Y111044D01*
X87807Y111178D01*
Y111184D01*
Y111190D01*
Y111207D01*
Y111231D01*
X87813Y111283D01*
X87825Y111354D01*
X87836Y111430D01*
X87854Y111512D01*
X87883Y111593D01*
X87924Y111670D01*
X87930Y111675D01*
X87947Y111699D01*
X87977Y111734D01*
X88012Y111775D01*
X88064Y111822D01*
X88123Y111874D01*
X88193Y111921D01*
X88269Y111962D01*
X88281Y111968D01*
X88310Y111979D01*
X88357Y111997D01*
X88421Y112021D01*
X88503Y112050D01*
X88597Y112073D01*
X88702Y112097D01*
X88813Y112114D01*
X88831D01*
X88848Y112120D01*
X88872D01*
X88901Y112126D01*
X88936Y112132D01*
X89018Y112143D01*
X89123Y112155D01*
X89240Y112167D01*
X89363Y112178D01*
X89498Y112190D01*
Y112202D01*
Y112214D01*
Y112237D01*
X89492Y112278D01*
X89480Y112325D01*
X89457Y112377D01*
X89428Y112430D01*
X89386Y112477D01*
X89334Y112518D01*
X89328Y112524D01*
X89305Y112535D01*
X89264Y112547D01*
X89211Y112565D01*
X89141Y112582D01*
X89059Y112600D01*
X88959Y112605D01*
X88842Y112611D01*
X88784D01*
X88743Y112605D01*
X88690Y112600D01*
X88632Y112588D01*
X88562Y112570D01*
X88491Y112553D01*
X88486D01*
X88456Y112541D01*
X88421Y112529D01*
X88369Y112512D01*
X88310Y112494D01*
X88246Y112471D01*
X88105Y112412D01*
X88035D01*
Y113062D01*
X88041D01*
X88059Y113068D01*
X88088Y113079D01*
X88135Y113091D01*
X88187Y113103D01*
X88257Y113114D01*
X88339Y113132D01*
X88439Y113149D01*
X88450D01*
X88486Y113155D01*
X88544Y113167D01*
X88614Y113179D01*
X88702Y113185D01*
X88796Y113196D01*
X88895Y113202D01*
X89065D01*
X89117Y113196D01*
D02*
G37*
G36*
X111225Y110400D02*
X110376D01*
Y110681D01*
X110371Y110675D01*
X110359Y110669D01*
X110341Y110657D01*
X110318Y110634D01*
X110259Y110587D01*
X110183Y110535D01*
X110177Y110529D01*
X110166Y110523D01*
X110148Y110511D01*
X110119Y110494D01*
X110060Y110453D01*
X110002Y110418D01*
X109996D01*
X109984Y110412D01*
X109961Y110406D01*
X109938Y110394D01*
X109873Y110371D01*
X109797Y110353D01*
X109791D01*
X109780Y110347D01*
X109756Y110342D01*
X109733D01*
X109698Y110336D01*
X109657Y110330D01*
X109557Y110324D01*
X109511D01*
X109481Y110330D01*
X109440Y110336D01*
X109399Y110347D01*
X109294Y110371D01*
X109177Y110418D01*
X109113Y110447D01*
X109054Y110488D01*
X108990Y110529D01*
X108931Y110581D01*
X108873Y110640D01*
X108820Y110710D01*
Y110716D01*
X108809Y110728D01*
X108797Y110751D01*
X108779Y110780D01*
X108756Y110821D01*
X108732Y110868D01*
X108709Y110921D01*
X108686Y110985D01*
X108662Y111055D01*
X108639Y111131D01*
X108616Y111213D01*
X108592Y111307D01*
X108574Y111406D01*
X108563Y111512D01*
X108557Y111623D01*
X108551Y111740D01*
Y111746D01*
Y111757D01*
Y111775D01*
Y111798D01*
X108557Y111868D01*
X108563Y111950D01*
X108574Y112050D01*
X108586Y112149D01*
X108610Y112260D01*
X108639Y112360D01*
Y112366D01*
X108645Y112372D01*
X108656Y112407D01*
X108680Y112453D01*
X108709Y112518D01*
X108744Y112588D01*
X108785Y112664D01*
X108838Y112740D01*
X108896Y112816D01*
X108902Y112822D01*
X108925Y112845D01*
X108955Y112874D01*
X108996Y112916D01*
X109048Y112962D01*
X109107Y113009D01*
X109177Y113056D01*
X109253Y113097D01*
X109265Y113103D01*
X109288Y113114D01*
X109335Y113132D01*
X109394Y113149D01*
X109458Y113167D01*
X109534Y113185D01*
X109616Y113196D01*
X109704Y113202D01*
X109780D01*
X109826Y113196D01*
X109879Y113190D01*
X109938Y113185D01*
X109996Y113173D01*
X110049Y113155D01*
X110055D01*
X110072Y113149D01*
X110101Y113138D01*
X110142Y113120D01*
X110189Y113103D01*
X110248Y113079D01*
X110306Y113050D01*
X110376Y113015D01*
Y114167D01*
X111225D01*
Y110400D01*
D02*
G37*
G36*
X104737Y113196D02*
X104796D01*
X104860Y113190D01*
X104930Y113185D01*
X105012Y113173D01*
X105176Y113144D01*
X105345Y113103D01*
X105509Y113044D01*
X105579Y113003D01*
X105644Y112962D01*
X105649D01*
X105655Y112951D01*
X105696Y112921D01*
X105743Y112863D01*
X105807Y112787D01*
X105866Y112687D01*
X105913Y112565D01*
X105954Y112418D01*
X105960Y112336D01*
X105965Y112249D01*
Y110400D01*
X105117D01*
Y110687D01*
X105111Y110681D01*
X105105Y110675D01*
X105065Y110640D01*
X105012Y110599D01*
X104959Y110552D01*
X104953D01*
X104948Y110540D01*
X104930Y110529D01*
X104912Y110517D01*
X104854Y110482D01*
X104778Y110441D01*
X104772D01*
X104760Y110435D01*
X104737Y110423D01*
X104708Y110412D01*
X104638Y110382D01*
X104556Y110359D01*
X104550D01*
X104538Y110353D01*
X104515Y110347D01*
X104480D01*
X104439Y110342D01*
X104386Y110336D01*
X104327Y110330D01*
X104222D01*
X104199Y110336D01*
X104129Y110342D01*
X104047Y110359D01*
X103953Y110388D01*
X103854Y110429D01*
X103754Y110488D01*
X103661Y110570D01*
X103649Y110581D01*
X103626Y110611D01*
X103585Y110663D01*
X103544Y110733D01*
X103503Y110821D01*
X103462Y110926D01*
X103438Y111044D01*
X103427Y111178D01*
Y111184D01*
Y111190D01*
Y111207D01*
Y111231D01*
X103432Y111283D01*
X103444Y111354D01*
X103456Y111430D01*
X103473Y111512D01*
X103503Y111593D01*
X103544Y111670D01*
X103549Y111675D01*
X103567Y111699D01*
X103596Y111734D01*
X103631Y111775D01*
X103684Y111822D01*
X103743Y111874D01*
X103813Y111921D01*
X103889Y111962D01*
X103900Y111968D01*
X103930Y111979D01*
X103976Y111997D01*
X104041Y112021D01*
X104123Y112050D01*
X104216Y112073D01*
X104322Y112097D01*
X104433Y112114D01*
X104450D01*
X104468Y112120D01*
X104491D01*
X104520Y112126D01*
X104556Y112132D01*
X104638Y112143D01*
X104743Y112155D01*
X104860Y112167D01*
X104983Y112178D01*
X105117Y112190D01*
Y112202D01*
Y112214D01*
Y112237D01*
X105111Y112278D01*
X105100Y112325D01*
X105076Y112377D01*
X105047Y112430D01*
X105006Y112477D01*
X104953Y112518D01*
X104948Y112524D01*
X104924Y112535D01*
X104883Y112547D01*
X104831Y112565D01*
X104760Y112582D01*
X104678Y112600D01*
X104579Y112605D01*
X104462Y112611D01*
X104403D01*
X104363Y112605D01*
X104310Y112600D01*
X104251Y112588D01*
X104181Y112570D01*
X104111Y112553D01*
X104105D01*
X104076Y112541D01*
X104041Y112529D01*
X103988Y112512D01*
X103930Y112494D01*
X103865Y112471D01*
X103725Y112412D01*
X103655D01*
Y113062D01*
X103661D01*
X103678Y113068D01*
X103707Y113079D01*
X103754Y113091D01*
X103807Y113103D01*
X103877Y113114D01*
X103959Y113132D01*
X104058Y113149D01*
X104070D01*
X104105Y113155D01*
X104164Y113167D01*
X104234Y113179D01*
X104322Y113185D01*
X104415Y113196D01*
X104515Y113202D01*
X104684D01*
X104737Y113196D01*
D02*
G37*
G36*
X98700Y114004D02*
X98799D01*
X98899Y113998D01*
X98998Y113986D01*
X99080Y113974D01*
X99092D01*
X99115Y113969D01*
X99156Y113963D01*
X99203Y113951D01*
X99267Y113933D01*
X99332Y113910D01*
X99396Y113887D01*
X99466Y113851D01*
X99472Y113846D01*
X99495Y113834D01*
X99530Y113811D01*
X99577Y113776D01*
X99618Y113734D01*
X99671Y113688D01*
X99712Y113635D01*
X99753Y113571D01*
X99759Y113565D01*
X99770Y113541D01*
X99782Y113500D01*
X99805Y113454D01*
X99823Y113395D01*
X99835Y113325D01*
X99846Y113249D01*
X99852Y113167D01*
Y113155D01*
Y113120D01*
X99846Y113074D01*
X99835Y113009D01*
X99817Y112933D01*
X99794Y112857D01*
X99764Y112775D01*
X99718Y112693D01*
X99712Y112681D01*
X99694Y112658D01*
X99665Y112623D01*
X99624Y112576D01*
X99571Y112529D01*
X99513Y112477D01*
X99437Y112430D01*
X99355Y112389D01*
Y112372D01*
X99361D01*
X99373Y112366D01*
X99390D01*
X99408Y112360D01*
X99472Y112336D01*
X99548Y112307D01*
X99630Y112272D01*
X99718Y112219D01*
X99805Y112161D01*
X99887Y112085D01*
X99899Y112073D01*
X99922Y112044D01*
X99952Y111997D01*
X99993Y111933D01*
X100028Y111845D01*
X100063Y111746D01*
X100086Y111628D01*
X100092Y111500D01*
Y111488D01*
Y111453D01*
X100086Y111406D01*
X100080Y111342D01*
X100069Y111266D01*
X100045Y111184D01*
X100022Y111108D01*
X99987Y111026D01*
X99981Y111020D01*
X99969Y110991D01*
X99946Y110956D01*
X99916Y110909D01*
X99876Y110856D01*
X99829Y110804D01*
X99776Y110745D01*
X99712Y110693D01*
X99700Y110687D01*
X99677Y110669D01*
X99636Y110640D01*
X99583Y110605D01*
X99519Y110570D01*
X99443Y110529D01*
X99355Y110494D01*
X99267Y110464D01*
X99256D01*
X99220Y110453D01*
X99168Y110447D01*
X99098Y110435D01*
X99010Y110423D01*
X98905Y110412D01*
X98782Y110406D01*
X98647Y110400D01*
X97208D01*
Y114009D01*
X98612D01*
X98700Y114004D01*
D02*
G37*
%LPC*%
G36*
X75469Y113331D02*
X75212D01*
Y112260D01*
X75575D01*
X75639Y112266D01*
X75709Y112278D01*
X75721D01*
X75756Y112290D01*
X75803Y112301D01*
X75855Y112325D01*
X75861D01*
X75867Y112330D01*
X75902Y112348D01*
X75943Y112372D01*
X75984Y112401D01*
X75990Y112407D01*
X75996Y112418D01*
X76013Y112436D01*
X76031Y112459D01*
X76072Y112512D01*
X76107Y112582D01*
Y112588D01*
X76113Y112600D01*
X76119Y112623D01*
X76125Y112652D01*
X76130Y112687D01*
X76136Y112734D01*
X76142Y112787D01*
Y112845D01*
Y112851D01*
Y112869D01*
X76136Y112898D01*
X76130Y112933D01*
X76113Y113021D01*
X76090Y113062D01*
X76066Y113103D01*
X76060Y113109D01*
X76054Y113120D01*
X76037Y113138D01*
X76019Y113161D01*
X75967Y113214D01*
X75932Y113237D01*
X75897Y113255D01*
X75891D01*
X75873Y113267D01*
X75850Y113272D01*
X75820Y113284D01*
X75739Y113307D01*
X75651Y113319D01*
X75627D01*
X75604Y113325D01*
X75522D01*
X75469Y113331D01*
D02*
G37*
G36*
X84010Y112570D02*
X83999D01*
X83964Y112565D01*
X83905Y112559D01*
X83841Y112547D01*
X83765Y112518D01*
X83689Y112483D01*
X83618Y112436D01*
X83554Y112366D01*
X83548Y112354D01*
X83531Y112330D01*
X83507Y112284D01*
X83478Y112219D01*
X83449Y112143D01*
X83425Y112050D01*
X83408Y111939D01*
X83402Y111810D01*
Y111804D01*
Y111781D01*
Y111746D01*
Y111705D01*
X83408Y111605D01*
X83420Y111506D01*
Y111500D01*
X83425Y111488D01*
X83431Y111465D01*
X83437Y111435D01*
X83466Y111365D01*
X83507Y111289D01*
X83513Y111283D01*
X83519Y111272D01*
X83554Y111237D01*
X83601Y111190D01*
X83665Y111149D01*
X83671D01*
X83683Y111143D01*
X83706Y111137D01*
X83736Y111125D01*
X83771Y111120D01*
X83811Y111108D01*
X83864Y111102D01*
X83958D01*
X83987Y111108D01*
X84063Y111120D01*
X84145Y111137D01*
X84151D01*
X84162Y111143D01*
X84186Y111155D01*
X84215Y111166D01*
X84280Y111201D01*
X84356Y111248D01*
Y112500D01*
X84344Y112506D01*
X84315Y112518D01*
X84262Y112535D01*
X84198Y112547D01*
X84192D01*
X84180Y112553D01*
X84162D01*
X84139Y112559D01*
X84081Y112565D01*
X84010Y112570D01*
D02*
G37*
G36*
X50888Y112664D02*
X50847D01*
X50800Y112658D01*
X50747Y112646D01*
X50683Y112629D01*
X50619Y112600D01*
X50554Y112565D01*
X50496Y112512D01*
X50490Y112506D01*
X50472Y112483D01*
X50455Y112453D01*
X50425Y112407D01*
X50402Y112348D01*
X50373Y112278D01*
X50355Y112196D01*
X50344Y112108D01*
X51373D01*
Y112114D01*
Y112120D01*
X51367Y112155D01*
X51362Y112202D01*
X51356Y112260D01*
X51338Y112325D01*
X51315Y112395D01*
X51285Y112459D01*
X51245Y112518D01*
X51239Y112524D01*
X51221Y112541D01*
X51198Y112565D01*
X51157Y112594D01*
X51104Y112617D01*
X51046Y112641D01*
X50970Y112658D01*
X50888Y112664D01*
D02*
G37*
G36*
X98442Y113348D02*
X98115D01*
Y112582D01*
X98565D01*
X98583Y112588D01*
X98606Y112594D01*
X98671Y112605D01*
X98741Y112635D01*
X98747D01*
X98758Y112646D01*
X98776Y112658D01*
X98799Y112670D01*
X98852Y112717D01*
X98875Y112746D01*
X98893Y112775D01*
Y112781D01*
X98899Y112793D01*
X98905Y112810D01*
X98916Y112839D01*
X98928Y112904D01*
X98934Y112986D01*
Y112992D01*
Y113003D01*
Y113021D01*
X98928Y113044D01*
X98916Y113097D01*
X98887Y113167D01*
Y113173D01*
X98881Y113185D01*
X98852Y113220D01*
X98811Y113261D01*
X98747Y113302D01*
X98741D01*
X98729Y113307D01*
X98712Y113313D01*
X98688Y113319D01*
X98624Y113337D01*
X98536Y113343D01*
X98483D01*
X98442Y113348D01*
D02*
G37*
G36*
X69111Y30294D02*
X69070D01*
X69047Y30288D01*
X68976Y30282D01*
X68906Y30259D01*
X68900D01*
X68889Y30253D01*
X68877Y30241D01*
X68853Y30229D01*
X68801Y30189D01*
X68772Y30159D01*
X68742Y30124D01*
X68736Y30118D01*
X68731Y30106D01*
X68719Y30083D01*
X68701Y30054D01*
X68678Y30019D01*
X68660Y29972D01*
X68643Y29919D01*
X68625Y29861D01*
Y29855D01*
X68620Y29832D01*
X68614Y29796D01*
X68608Y29750D01*
X68596Y29691D01*
X68590Y29621D01*
X68584Y29539D01*
Y29451D01*
Y29440D01*
Y29410D01*
Y29364D01*
X68590Y29305D01*
Y29241D01*
X68602Y29176D01*
X68608Y29106D01*
X68620Y29048D01*
Y29042D01*
X68625Y29024D01*
X68637Y28995D01*
X68649Y28960D01*
X68684Y28878D01*
X68725Y28802D01*
X68731Y28796D01*
X68736Y28784D01*
X68772Y28749D01*
X68824Y28708D01*
X68894Y28668D01*
X68900D01*
X68912Y28662D01*
X68935Y28656D01*
X68959Y28650D01*
X69029Y28632D01*
X69117Y28626D01*
X69152D01*
X69181Y28632D01*
X69245Y28644D01*
X69322Y28668D01*
X69327D01*
X69339Y28673D01*
X69357Y28685D01*
X69380Y28697D01*
X69438Y28738D01*
X69491Y28796D01*
X69497Y28802D01*
X69503Y28814D01*
X69515Y28837D01*
X69532Y28866D01*
X69550Y28901D01*
X69567Y28948D01*
X69602Y29048D01*
Y29054D01*
X69608Y29077D01*
X69614Y29106D01*
X69626Y29153D01*
X69632Y29212D01*
X69637Y29282D01*
X69643Y29358D01*
Y29451D01*
Y29463D01*
Y29492D01*
Y29533D01*
X69637Y29592D01*
X69632Y29656D01*
X69626Y29720D01*
X69614Y29785D01*
X69602Y29849D01*
Y29855D01*
X69596Y29878D01*
X69585Y29908D01*
X69573Y29943D01*
X69538Y30031D01*
X69515Y30071D01*
X69491Y30112D01*
X69485Y30118D01*
X69479Y30130D01*
X69444Y30165D01*
X69386Y30212D01*
X69322Y30253D01*
X69316D01*
X69304Y30259D01*
X69286Y30264D01*
X69263Y30276D01*
X69193Y30288D01*
X69111Y30294D01*
D02*
G37*
G36*
X83882Y31031D02*
X83677D01*
Y28779D01*
X84034D01*
X84116Y28784D01*
X84210D01*
X84233Y28790D01*
X84274Y28796D01*
X84327Y28808D01*
X84385Y28820D01*
X84455Y28843D01*
X84526Y28872D01*
X84596Y28913D01*
X84608Y28919D01*
X84631Y28936D01*
X84672Y28972D01*
X84724Y29013D01*
X84777Y29071D01*
X84836Y29135D01*
X84888Y29212D01*
X84935Y29299D01*
Y29305D01*
X84941Y29311D01*
X84953Y29346D01*
X84970Y29399D01*
X84994Y29469D01*
X85017Y29557D01*
X85035Y29662D01*
X85046Y29773D01*
X85052Y29902D01*
Y29908D01*
Y29919D01*
Y29937D01*
Y29960D01*
X85046Y30031D01*
X85035Y30112D01*
X85023Y30206D01*
X85000Y30311D01*
X84970Y30411D01*
X84929Y30510D01*
Y30516D01*
X84923Y30522D01*
X84906Y30551D01*
X84877Y30598D01*
X84836Y30656D01*
X84783Y30721D01*
X84719Y30785D01*
X84643Y30849D01*
X84555Y30908D01*
X84549Y30914D01*
X84526Y30926D01*
X84485Y30943D01*
X84438Y30961D01*
X84379Y30978D01*
X84315Y30996D01*
X84245Y31013D01*
X84169Y31019D01*
X84134D01*
X84093Y31025D01*
X83964D01*
X83882Y31031D01*
D02*
G37*
G36*
X65864D02*
X65607D01*
Y29960D01*
X65969D01*
X66034Y29966D01*
X66104Y29978D01*
X66116D01*
X66151Y29990D01*
X66198Y30001D01*
X66250Y30025D01*
X66256D01*
X66262Y30031D01*
X66297Y30048D01*
X66338Y30071D01*
X66379Y30101D01*
X66385Y30106D01*
X66391Y30118D01*
X66408Y30136D01*
X66426Y30159D01*
X66467Y30212D01*
X66502Y30282D01*
Y30288D01*
X66508Y30300D01*
X66514Y30323D01*
X66519Y30352D01*
X66525Y30387D01*
X66531Y30434D01*
X66537Y30487D01*
Y30545D01*
Y30551D01*
Y30569D01*
X66531Y30598D01*
X66525Y30633D01*
X66508Y30721D01*
X66484Y30762D01*
X66461Y30803D01*
X66455Y30809D01*
X66449Y30820D01*
X66432Y30838D01*
X66414Y30861D01*
X66361Y30914D01*
X66326Y30937D01*
X66291Y30955D01*
X66285D01*
X66268Y30966D01*
X66244Y30972D01*
X66215Y30984D01*
X66133Y31008D01*
X66045Y31019D01*
X66022D01*
X65999Y31025D01*
X65917D01*
X65864Y31031D01*
D02*
G37*
G36*
X60242Y112570D02*
X60230D01*
X60195Y112565D01*
X60136Y112559D01*
X60072Y112547D01*
X59996Y112518D01*
X59920Y112483D01*
X59850Y112436D01*
X59786Y112366D01*
X59780Y112354D01*
X59762Y112330D01*
X59739Y112284D01*
X59710Y112219D01*
X59680Y112143D01*
X59657Y112050D01*
X59639Y111939D01*
X59633Y111810D01*
Y111804D01*
Y111781D01*
Y111746D01*
Y111705D01*
X59639Y111605D01*
X59651Y111506D01*
Y111500D01*
X59657Y111488D01*
X59663Y111465D01*
X59669Y111435D01*
X59698Y111365D01*
X59739Y111289D01*
X59745Y111283D01*
X59750Y111272D01*
X59786Y111237D01*
X59832Y111190D01*
X59897Y111149D01*
X59903D01*
X59914Y111143D01*
X59938Y111137D01*
X59967Y111125D01*
X60002Y111120D01*
X60043Y111108D01*
X60096Y111102D01*
X60189D01*
X60218Y111108D01*
X60295Y111120D01*
X60376Y111137D01*
X60382D01*
X60394Y111143D01*
X60417Y111155D01*
X60447Y111166D01*
X60511Y111201D01*
X60587Y111248D01*
Y112500D01*
X60575Y112506D01*
X60546Y112518D01*
X60493Y112535D01*
X60429Y112547D01*
X60423D01*
X60412Y112553D01*
X60394D01*
X60371Y112559D01*
X60312Y112565D01*
X60242Y112570D01*
D02*
G37*
G36*
X80869Y112594D02*
X80828D01*
X80805Y112588D01*
X80734Y112582D01*
X80664Y112559D01*
X80658D01*
X80647Y112553D01*
X80635Y112541D01*
X80611Y112529D01*
X80559Y112488D01*
X80530Y112459D01*
X80500Y112424D01*
X80495Y112418D01*
X80489Y112407D01*
X80477Y112383D01*
X80459Y112354D01*
X80436Y112319D01*
X80418Y112272D01*
X80401Y112219D01*
X80383Y112161D01*
Y112155D01*
X80378Y112132D01*
X80372Y112097D01*
X80366Y112050D01*
X80354Y111991D01*
X80348Y111921D01*
X80342Y111839D01*
Y111751D01*
Y111740D01*
Y111710D01*
Y111664D01*
X80348Y111605D01*
Y111541D01*
X80360Y111476D01*
X80366Y111406D01*
X80378Y111348D01*
Y111342D01*
X80383Y111324D01*
X80395Y111295D01*
X80407Y111260D01*
X80442Y111178D01*
X80483Y111102D01*
X80489Y111096D01*
X80495Y111084D01*
X80530Y111049D01*
X80582Y111008D01*
X80652Y110968D01*
X80658D01*
X80670Y110962D01*
X80693Y110956D01*
X80717Y110950D01*
X80787Y110932D01*
X80875Y110926D01*
X80910D01*
X80939Y110932D01*
X81003Y110944D01*
X81080Y110968D01*
X81085D01*
X81097Y110973D01*
X81115Y110985D01*
X81138Y110997D01*
X81197Y111038D01*
X81249Y111096D01*
X81255Y111102D01*
X81261Y111114D01*
X81273Y111137D01*
X81290Y111166D01*
X81308Y111201D01*
X81325Y111248D01*
X81360Y111348D01*
Y111354D01*
X81366Y111377D01*
X81372Y111406D01*
X81384Y111453D01*
X81390Y111512D01*
X81396Y111582D01*
X81401Y111658D01*
Y111751D01*
Y111763D01*
Y111792D01*
Y111833D01*
X81396Y111892D01*
X81390Y111956D01*
X81384Y112021D01*
X81372Y112085D01*
X81360Y112149D01*
Y112155D01*
X81354Y112178D01*
X81343Y112208D01*
X81331Y112243D01*
X81296Y112330D01*
X81273Y112372D01*
X81249Y112412D01*
X81243Y112418D01*
X81238Y112430D01*
X81202Y112465D01*
X81144Y112512D01*
X81080Y112553D01*
X81074D01*
X81062Y112559D01*
X81044Y112565D01*
X81021Y112576D01*
X80951Y112588D01*
X80869Y112594D01*
D02*
G37*
G36*
X101765D02*
X101724D01*
X101701Y112588D01*
X101631Y112582D01*
X101560Y112559D01*
X101555D01*
X101543Y112553D01*
X101531Y112541D01*
X101508Y112529D01*
X101455Y112488D01*
X101426Y112459D01*
X101397Y112424D01*
X101391Y112418D01*
X101385Y112407D01*
X101373Y112383D01*
X101356Y112354D01*
X101332Y112319D01*
X101315Y112272D01*
X101297Y112219D01*
X101280Y112161D01*
Y112155D01*
X101274Y112132D01*
X101268Y112097D01*
X101262Y112050D01*
X101250Y111991D01*
X101244Y111921D01*
X101239Y111839D01*
Y111751D01*
Y111740D01*
Y111710D01*
Y111664D01*
X101244Y111605D01*
Y111541D01*
X101256Y111476D01*
X101262Y111406D01*
X101274Y111348D01*
Y111342D01*
X101280Y111324D01*
X101291Y111295D01*
X101303Y111260D01*
X101338Y111178D01*
X101379Y111102D01*
X101385Y111096D01*
X101391Y111084D01*
X101426Y111049D01*
X101479Y111008D01*
X101549Y110968D01*
X101555D01*
X101566Y110962D01*
X101590Y110956D01*
X101613Y110950D01*
X101683Y110932D01*
X101771Y110926D01*
X101806D01*
X101835Y110932D01*
X101900Y110944D01*
X101976Y110968D01*
X101982D01*
X101993Y110973D01*
X102011Y110985D01*
X102034Y110997D01*
X102093Y111038D01*
X102145Y111096D01*
X102151Y111102D01*
X102157Y111114D01*
X102169Y111137D01*
X102186Y111166D01*
X102204Y111201D01*
X102222Y111248D01*
X102257Y111348D01*
Y111354D01*
X102262Y111377D01*
X102268Y111406D01*
X102280Y111453D01*
X102286Y111512D01*
X102292Y111582D01*
X102297Y111658D01*
Y111751D01*
Y111763D01*
Y111792D01*
Y111833D01*
X102292Y111892D01*
X102286Y111956D01*
X102280Y112021D01*
X102268Y112085D01*
X102257Y112149D01*
Y112155D01*
X102251Y112178D01*
X102239Y112208D01*
X102227Y112243D01*
X102192Y112330D01*
X102169Y112372D01*
X102145Y112412D01*
X102139Y112418D01*
X102134Y112430D01*
X102099Y112465D01*
X102040Y112512D01*
X101976Y112553D01*
X101970D01*
X101958Y112559D01*
X101941Y112565D01*
X101917Y112576D01*
X101847Y112588D01*
X101765Y112594D01*
D02*
G37*
G36*
X53936Y112541D02*
X53895D01*
X53865Y112535D01*
X53795Y112524D01*
X53707Y112500D01*
X53702D01*
X53690Y112494D01*
X53666Y112488D01*
X53637Y112477D01*
X53567Y112442D01*
X53491Y112395D01*
Y111020D01*
X53497D01*
X53503Y111014D01*
X53544Y111003D01*
X53596Y110991D01*
X53655Y110979D01*
X53672D01*
X53690Y110973D01*
X53707D01*
X53766Y110968D01*
X53860D01*
X53883Y110973D01*
X53936Y110979D01*
X54006Y110991D01*
X54082Y111014D01*
X54158Y111049D01*
X54228Y111102D01*
X54292Y111166D01*
X54298Y111178D01*
X54316Y111207D01*
X54339Y111254D01*
X54368Y111319D01*
X54398Y111406D01*
X54421Y111512D01*
X54439Y111634D01*
X54444Y111781D01*
Y111786D01*
Y111798D01*
Y111822D01*
Y111845D01*
X54439Y111921D01*
X54427Y112009D01*
X54415Y112102D01*
X54392Y112202D01*
X54357Y112290D01*
X54316Y112366D01*
X54310Y112372D01*
X54292Y112395D01*
X54263Y112424D01*
X54222Y112453D01*
X54170Y112488D01*
X54105Y112512D01*
X54023Y112535D01*
X53936Y112541D01*
D02*
G37*
G36*
X39597Y112594D02*
X39556D01*
X39533Y112588D01*
X39463Y112582D01*
X39393Y112559D01*
X39387D01*
X39375Y112553D01*
X39363Y112541D01*
X39340Y112529D01*
X39287Y112488D01*
X39258Y112459D01*
X39229Y112424D01*
X39223Y112418D01*
X39217Y112407D01*
X39205Y112383D01*
X39188Y112354D01*
X39164Y112319D01*
X39147Y112272D01*
X39129Y112219D01*
X39112Y112161D01*
Y112155D01*
X39106Y112132D01*
X39100Y112097D01*
X39094Y112050D01*
X39082Y111991D01*
X39077Y111921D01*
X39071Y111839D01*
Y111751D01*
Y111740D01*
Y111710D01*
Y111664D01*
X39077Y111605D01*
Y111541D01*
X39088Y111476D01*
X39094Y111406D01*
X39106Y111348D01*
Y111342D01*
X39112Y111324D01*
X39123Y111295D01*
X39135Y111260D01*
X39170Y111178D01*
X39211Y111102D01*
X39217Y111096D01*
X39223Y111084D01*
X39258Y111049D01*
X39311Y111008D01*
X39381Y110968D01*
X39387D01*
X39398Y110962D01*
X39422Y110956D01*
X39445Y110950D01*
X39515Y110932D01*
X39603Y110926D01*
X39638D01*
X39667Y110932D01*
X39732Y110944D01*
X39808Y110968D01*
X39814D01*
X39825Y110973D01*
X39843Y110985D01*
X39866Y110997D01*
X39925Y111038D01*
X39977Y111096D01*
X39983Y111102D01*
X39989Y111114D01*
X40001Y111137D01*
X40018Y111166D01*
X40036Y111201D01*
X40053Y111248D01*
X40089Y111348D01*
Y111354D01*
X40095Y111377D01*
X40100Y111406D01*
X40112Y111453D01*
X40118Y111512D01*
X40124Y111582D01*
X40130Y111658D01*
Y111751D01*
Y111763D01*
Y111792D01*
Y111833D01*
X40124Y111892D01*
X40118Y111956D01*
X40112Y112021D01*
X40100Y112085D01*
X40089Y112149D01*
Y112155D01*
X40083Y112178D01*
X40071Y112208D01*
X40059Y112243D01*
X40024Y112330D01*
X40001Y112372D01*
X39977Y112412D01*
X39972Y112418D01*
X39966Y112430D01*
X39931Y112465D01*
X39872Y112512D01*
X39808Y112553D01*
X39802D01*
X39790Y112559D01*
X39773Y112565D01*
X39749Y112576D01*
X39679Y112588D01*
X39597Y112594D01*
D02*
G37*
G36*
X65027Y111681D02*
X65015D01*
X64992Y111675D01*
X64951D01*
X64904Y111670D01*
X64846Y111664D01*
X64793Y111652D01*
X64735Y111646D01*
X64682Y111640D01*
X64676D01*
X64659Y111634D01*
X64635D01*
X64600Y111628D01*
X64565Y111617D01*
X64518Y111611D01*
X64425Y111582D01*
X64419D01*
X64407Y111576D01*
X64384Y111564D01*
X64360Y111552D01*
X64308Y111512D01*
X64255Y111459D01*
Y111453D01*
X64243Y111447D01*
X64237Y111430D01*
X64226Y111406D01*
X64214Y111377D01*
X64208Y111342D01*
X64196Y111254D01*
Y111248D01*
Y111225D01*
X64202Y111190D01*
X64208Y111149D01*
X64220Y111108D01*
X64237Y111061D01*
X64261Y111020D01*
X64296Y110991D01*
X64302D01*
X64314Y110979D01*
X64337Y110968D01*
X64372Y110956D01*
X64413Y110944D01*
X64465Y110932D01*
X64524Y110926D01*
X64594Y110921D01*
X64635D01*
X64664Y110926D01*
X64735Y110938D01*
X64816Y110968D01*
X64822D01*
X64834Y110979D01*
X64858Y110991D01*
X64887Y111008D01*
X64957Y111049D01*
X65027Y111114D01*
Y111681D01*
D02*
G37*
G36*
X89498D02*
X89486D01*
X89463Y111675D01*
X89422D01*
X89375Y111670D01*
X89316Y111664D01*
X89264Y111652D01*
X89205Y111646D01*
X89152Y111640D01*
X89147D01*
X89129Y111634D01*
X89106D01*
X89071Y111628D01*
X89036Y111617D01*
X88989Y111611D01*
X88895Y111582D01*
X88889D01*
X88878Y111576D01*
X88854Y111564D01*
X88831Y111552D01*
X88778Y111512D01*
X88726Y111459D01*
Y111453D01*
X88714Y111447D01*
X88708Y111430D01*
X88696Y111406D01*
X88685Y111377D01*
X88679Y111342D01*
X88667Y111254D01*
Y111248D01*
Y111225D01*
X88673Y111190D01*
X88679Y111149D01*
X88690Y111108D01*
X88708Y111061D01*
X88731Y111020D01*
X88766Y110991D01*
X88772D01*
X88784Y110979D01*
X88807Y110968D01*
X88842Y110956D01*
X88884Y110944D01*
X88936Y110932D01*
X88995Y110926D01*
X89065Y110921D01*
X89106D01*
X89135Y110926D01*
X89205Y110938D01*
X89287Y110968D01*
X89293D01*
X89305Y110979D01*
X89328Y110991D01*
X89357Y111008D01*
X89428Y111049D01*
X89498Y111114D01*
Y111681D01*
D02*
G37*
G36*
X105117D02*
X105105D01*
X105082Y111675D01*
X105041D01*
X104994Y111670D01*
X104936Y111664D01*
X104883Y111652D01*
X104825Y111646D01*
X104772Y111640D01*
X104766D01*
X104749Y111634D01*
X104725D01*
X104690Y111628D01*
X104655Y111617D01*
X104608Y111611D01*
X104515Y111582D01*
X104509D01*
X104497Y111576D01*
X104474Y111564D01*
X104450Y111552D01*
X104398Y111512D01*
X104345Y111459D01*
Y111453D01*
X104333Y111447D01*
X104327Y111430D01*
X104316Y111406D01*
X104304Y111377D01*
X104298Y111342D01*
X104287Y111254D01*
Y111248D01*
Y111225D01*
X104292Y111190D01*
X104298Y111149D01*
X104310Y111108D01*
X104327Y111061D01*
X104351Y111020D01*
X104386Y110991D01*
X104392D01*
X104403Y110979D01*
X104427Y110968D01*
X104462Y110956D01*
X104503Y110944D01*
X104556Y110932D01*
X104614Y110926D01*
X104684Y110921D01*
X104725D01*
X104754Y110926D01*
X104825Y110938D01*
X104907Y110968D01*
X104912D01*
X104924Y110979D01*
X104948Y110991D01*
X104977Y111008D01*
X105047Y111049D01*
X105117Y111114D01*
Y111681D01*
D02*
G37*
G36*
X74140Y117094D02*
X74099D01*
X74076Y117088D01*
X74005Y117082D01*
X73935Y117059D01*
X73929D01*
X73918Y117053D01*
X73906Y117041D01*
X73883Y117029D01*
X73830Y116988D01*
X73801Y116959D01*
X73771Y116924D01*
X73765Y116918D01*
X73760Y116906D01*
X73748Y116883D01*
X73730Y116854D01*
X73707Y116819D01*
X73690Y116772D01*
X73672Y116719D01*
X73654Y116661D01*
Y116655D01*
X73649Y116632D01*
X73643Y116596D01*
X73637Y116550D01*
X73625Y116491D01*
X73619Y116421D01*
X73614Y116339D01*
Y116251D01*
Y116240D01*
Y116210D01*
Y116164D01*
X73619Y116105D01*
Y116041D01*
X73631Y115976D01*
X73637Y115906D01*
X73649Y115848D01*
Y115842D01*
X73654Y115824D01*
X73666Y115795D01*
X73678Y115760D01*
X73713Y115678D01*
X73754Y115602D01*
X73760Y115596D01*
X73765Y115584D01*
X73801Y115549D01*
X73853Y115508D01*
X73923Y115468D01*
X73929D01*
X73941Y115462D01*
X73964Y115456D01*
X73988Y115450D01*
X74058Y115432D01*
X74146Y115427D01*
X74181D01*
X74210Y115432D01*
X74274Y115444D01*
X74351Y115468D01*
X74356D01*
X74368Y115473D01*
X74386Y115485D01*
X74409Y115497D01*
X74468Y115538D01*
X74520Y115596D01*
X74526Y115602D01*
X74532Y115614D01*
X74544Y115637D01*
X74561Y115666D01*
X74579Y115701D01*
X74596Y115748D01*
X74631Y115848D01*
Y115854D01*
X74637Y115877D01*
X74643Y115906D01*
X74655Y115953D01*
X74661Y116012D01*
X74666Y116082D01*
X74672Y116158D01*
Y116251D01*
Y116263D01*
Y116292D01*
Y116333D01*
X74666Y116392D01*
X74661Y116456D01*
X74655Y116521D01*
X74643Y116585D01*
X74631Y116649D01*
Y116655D01*
X74625Y116678D01*
X74614Y116708D01*
X74602Y116743D01*
X74567Y116831D01*
X74544Y116872D01*
X74520Y116912D01*
X74514Y116918D01*
X74509Y116930D01*
X74473Y116965D01*
X74415Y117012D01*
X74351Y117053D01*
X74345D01*
X74333Y117059D01*
X74315Y117064D01*
X74292Y117076D01*
X74222Y117088D01*
X74140Y117094D01*
D02*
G37*
G36*
X98559Y111962D02*
X98115D01*
Y111061D01*
X98671D01*
X98700Y111067D01*
X98729Y111073D01*
X98770Y111079D01*
X98817Y111090D01*
X98916Y111125D01*
X98922D01*
X98934Y111137D01*
X98957Y111149D01*
X98986Y111166D01*
X99045Y111219D01*
X99074Y111248D01*
X99098Y111283D01*
Y111289D01*
X99109Y111301D01*
X99115Y111324D01*
X99127Y111354D01*
X99138Y111389D01*
X99144Y111430D01*
X99156Y111517D01*
Y111523D01*
Y111547D01*
X99150Y111576D01*
Y111611D01*
X99127Y111693D01*
X99109Y111740D01*
X99086Y111775D01*
Y111781D01*
X99074Y111792D01*
X99057Y111810D01*
X99039Y111833D01*
X99010Y111857D01*
X98975Y111880D01*
X98934Y111903D01*
X98887Y111921D01*
X98881D01*
X98869Y111927D01*
X98852Y111933D01*
X98828Y111939D01*
X98793Y111944D01*
X98758Y111950D01*
X98712D01*
X98659Y111956D01*
X98600D01*
X98559Y111962D01*
D02*
G37*
G36*
X47103Y113331D02*
X46898D01*
Y111079D01*
X47255D01*
X47337Y111084D01*
X47430D01*
X47454Y111090D01*
X47495Y111096D01*
X47547Y111108D01*
X47606Y111120D01*
X47676Y111143D01*
X47746Y111172D01*
X47816Y111213D01*
X47828Y111219D01*
X47851Y111237D01*
X47892Y111272D01*
X47945Y111313D01*
X47998Y111371D01*
X48056Y111435D01*
X48109Y111512D01*
X48156Y111599D01*
Y111605D01*
X48162Y111611D01*
X48173Y111646D01*
X48191Y111699D01*
X48214Y111769D01*
X48238Y111857D01*
X48255Y111962D01*
X48267Y112073D01*
X48273Y112202D01*
Y112208D01*
Y112219D01*
Y112237D01*
Y112260D01*
X48267Y112330D01*
X48255Y112412D01*
X48243Y112506D01*
X48220Y112611D01*
X48191Y112711D01*
X48150Y112810D01*
Y112816D01*
X48144Y112822D01*
X48127Y112851D01*
X48097Y112898D01*
X48056Y112956D01*
X48004Y113021D01*
X47939Y113085D01*
X47863Y113149D01*
X47776Y113208D01*
X47770Y113214D01*
X47746Y113225D01*
X47705Y113243D01*
X47659Y113261D01*
X47600Y113278D01*
X47536Y113296D01*
X47465Y113313D01*
X47389Y113319D01*
X47354D01*
X47313Y113325D01*
X47185D01*
X47103Y113331D01*
D02*
G37*
G36*
X81786Y117094D02*
X81745D01*
X81722Y117088D01*
X81651Y117082D01*
X81581Y117059D01*
X81575D01*
X81564Y117053D01*
X81552Y117041D01*
X81529Y117029D01*
X81476Y116988D01*
X81447Y116959D01*
X81417Y116924D01*
X81411Y116918D01*
X81406Y116906D01*
X81394Y116883D01*
X81376Y116854D01*
X81353Y116819D01*
X81336Y116772D01*
X81318Y116719D01*
X81300Y116661D01*
Y116655D01*
X81295Y116632D01*
X81289Y116596D01*
X81283Y116550D01*
X81271Y116491D01*
X81265Y116421D01*
X81259Y116339D01*
Y116251D01*
Y116240D01*
Y116210D01*
Y116164D01*
X81265Y116105D01*
Y116041D01*
X81277Y115976D01*
X81283Y115906D01*
X81295Y115848D01*
Y115842D01*
X81300Y115824D01*
X81312Y115795D01*
X81324Y115760D01*
X81359Y115678D01*
X81400Y115602D01*
X81406Y115596D01*
X81411Y115584D01*
X81447Y115549D01*
X81499Y115508D01*
X81569Y115468D01*
X81575D01*
X81587Y115462D01*
X81610Y115456D01*
X81634Y115450D01*
X81704Y115432D01*
X81792Y115427D01*
X81827D01*
X81856Y115432D01*
X81920Y115444D01*
X81997Y115468D01*
X82002D01*
X82014Y115473D01*
X82032Y115485D01*
X82055Y115497D01*
X82113Y115538D01*
X82166Y115596D01*
X82172Y115602D01*
X82178Y115614D01*
X82190Y115637D01*
X82207Y115666D01*
X82225Y115701D01*
X82242Y115748D01*
X82277Y115848D01*
Y115854D01*
X82283Y115877D01*
X82289Y115906D01*
X82301Y115953D01*
X82307Y116012D01*
X82312Y116082D01*
X82318Y116158D01*
Y116251D01*
Y116263D01*
Y116292D01*
Y116333D01*
X82312Y116392D01*
X82307Y116456D01*
X82301Y116521D01*
X82289Y116585D01*
X82277Y116649D01*
Y116655D01*
X82271Y116678D01*
X82260Y116708D01*
X82248Y116743D01*
X82213Y116831D01*
X82190Y116872D01*
X82166Y116912D01*
X82160Y116918D01*
X82154Y116930D01*
X82119Y116965D01*
X82061Y117012D01*
X81997Y117053D01*
X81991D01*
X81979Y117059D01*
X81961Y117064D01*
X81938Y117076D01*
X81868Y117088D01*
X81786Y117094D01*
D02*
G37*
G36*
X70965Y112570D02*
X70953D01*
X70918Y112565D01*
X70860Y112559D01*
X70795Y112541D01*
X70719Y112518D01*
X70643Y112477D01*
X70573Y112424D01*
X70509Y112354D01*
X70503Y112342D01*
X70485Y112313D01*
X70462Y112266D01*
X70433Y112196D01*
X70403Y112114D01*
X70380Y112009D01*
X70362Y111886D01*
X70357Y111751D01*
Y111746D01*
Y111734D01*
Y111710D01*
Y111687D01*
X70362Y111652D01*
Y111611D01*
X70374Y111523D01*
X70386Y111430D01*
X70403Y111330D01*
X70433Y111237D01*
X70473Y111161D01*
X70479Y111155D01*
X70497Y111131D01*
X70526Y111108D01*
X70567Y111073D01*
X70626Y111044D01*
X70696Y111014D01*
X70778Y110991D01*
X70871Y110985D01*
X70912D01*
X70942Y110991D01*
X71012Y111003D01*
X71094Y111026D01*
X71100D01*
X71111Y111032D01*
X71135Y111044D01*
X71164Y111061D01*
X71234Y111096D01*
X71310Y111149D01*
Y112494D01*
X71298Y112500D01*
X71263Y112512D01*
X71211Y112529D01*
X71140Y112547D01*
X71135D01*
X71123Y112553D01*
X71105D01*
X71082Y112559D01*
X71023Y112565D01*
X70965Y112570D01*
D02*
G37*
G36*
X110031D02*
X110020D01*
X109984Y112565D01*
X109926Y112559D01*
X109862Y112541D01*
X109785Y112518D01*
X109709Y112477D01*
X109639Y112424D01*
X109575Y112354D01*
X109569Y112342D01*
X109552Y112313D01*
X109528Y112266D01*
X109499Y112196D01*
X109470Y112114D01*
X109446Y112009D01*
X109429Y111886D01*
X109423Y111751D01*
Y111746D01*
Y111734D01*
Y111710D01*
Y111687D01*
X109429Y111652D01*
Y111611D01*
X109440Y111523D01*
X109452Y111430D01*
X109470Y111330D01*
X109499Y111237D01*
X109540Y111161D01*
X109546Y111155D01*
X109563Y111131D01*
X109592Y111108D01*
X109633Y111073D01*
X109692Y111044D01*
X109762Y111014D01*
X109844Y110991D01*
X109938Y110985D01*
X109978D01*
X110008Y110991D01*
X110078Y111003D01*
X110160Y111026D01*
X110166D01*
X110177Y111032D01*
X110201Y111044D01*
X110230Y111061D01*
X110300Y111096D01*
X110376Y111149D01*
Y112494D01*
X110365Y112500D01*
X110329Y112512D01*
X110277Y112529D01*
X110207Y112547D01*
X110201D01*
X110189Y112553D01*
X110172D01*
X110148Y112559D01*
X110090Y112565D01*
X110031Y112570D01*
D02*
G37*
G36*
X87080Y117070D02*
X87068D01*
X87033Y117064D01*
X86975Y117059D01*
X86910Y117047D01*
X86835Y117018D01*
X86758Y116983D01*
X86688Y116936D01*
X86624Y116866D01*
X86618Y116854D01*
X86601Y116831D01*
X86577Y116784D01*
X86548Y116719D01*
X86519Y116643D01*
X86495Y116550D01*
X86478Y116439D01*
X86472Y116310D01*
Y116304D01*
Y116281D01*
Y116245D01*
Y116205D01*
X86478Y116105D01*
X86489Y116006D01*
Y116000D01*
X86495Y115988D01*
X86501Y115965D01*
X86507Y115935D01*
X86536Y115865D01*
X86577Y115789D01*
X86583Y115783D01*
X86589Y115772D01*
X86624Y115737D01*
X86671Y115690D01*
X86735Y115649D01*
X86741D01*
X86752Y115643D01*
X86776Y115637D01*
X86805Y115625D01*
X86840Y115620D01*
X86881Y115608D01*
X86934Y115602D01*
X87028D01*
X87057Y115608D01*
X87133Y115620D01*
X87215Y115637D01*
X87221D01*
X87232Y115643D01*
X87256Y115655D01*
X87285Y115666D01*
X87349Y115701D01*
X87425Y115748D01*
Y117000D01*
X87414Y117006D01*
X87384Y117018D01*
X87332Y117035D01*
X87267Y117047D01*
X87261D01*
X87250Y117053D01*
X87232D01*
X87209Y117059D01*
X87150Y117064D01*
X87080Y117070D01*
D02*
G37*
%LPD*%
D28*
X143300Y40700D02*
Y84700D01*
X132600Y34700D02*
Y39500D01*
X132500Y39400D02*
X132600Y39500D01*
X129300D02*
X132600D01*
X129300D02*
Y42600D01*
X129200Y82700D02*
Y85800D01*
X132500D01*
X132400Y85900D02*
X132500Y85800D01*
Y90600D01*
X91700Y1100D02*
X93400Y-600D01*
X91700Y1100D02*
Y6100D01*
X58800Y1100D02*
X91700D01*
X57200Y-500D02*
X58900Y1200D01*
X58800Y1100D02*
Y6000D01*
X82100Y22700D02*
X91700D01*
Y15400D02*
Y22700D01*
X58700Y15400D02*
Y22700D01*
X68400D01*
X40673Y73563D02*
X54453D01*
X55339Y74449D01*
Y90295D01*
X54453D02*
X55339D01*
X40673D02*
X54453D01*
X40673Y73563D02*
Y90295D01*
X124100Y31800D02*
Y93700D01*
X126200Y95800D01*
X147200D01*
Y29500D02*
Y95800D01*
X126400Y29500D02*
X147200D01*
X124100Y31800D02*
X126400Y29500D01*
X38705Y92264D02*
X39689D01*
X38705Y71595D02*
Y92264D01*
Y71595D02*
X39689D01*
X57406D01*
Y72579D01*
Y92264D01*
X39689D02*
X57406D01*
D32*
X88106Y94976D02*
X89976D01*
X88106Y67024D02*
X89976D01*
X62024D02*
Y68894D01*
X89976Y67024D02*
Y68894D01*
X62024Y94976D02*
X63894D01*
X62024Y93106D02*
Y94976D01*
Y67024D02*
X63894D01*
X89976Y93106D02*
Y94976D01*
X83292Y58221D02*
X85654D01*
X83292D02*
Y59304D01*
X69316Y58221D02*
Y59304D01*
X66953Y58221D02*
X69316D01*
Y59304D02*
X83292D01*
X69316Y47296D02*
X83292D01*
X66953Y48379D02*
X69316D01*
Y47296D02*
Y48379D01*
X83292Y47296D02*
Y48379D01*
X85654D01*
Y58221D01*
X66953Y48379D02*
Y58221D01*
X100198Y51147D02*
X103446D01*
X100198D02*
Y54297D01*
X109154Y51147D02*
X112402D01*
Y54297D01*
X0Y120100D02*
X147800D01*
X147638Y0D02*
Y120100D01*
X0Y0D02*
X147638D01*
X0D02*
Y120100D01*
D39*
X64500Y92500D02*
G03*
X64500Y92500I-492J0D01*
G01*
X113977Y58332D02*
G03*
X113977Y58332I-492J0D01*
G01*
X163400Y83664D02*
Y77957D01*
X167204D01*
X170058Y81762D02*
X171960D01*
X172911Y80810D01*
Y77957D01*
X170058D01*
X169107Y78908D01*
X170058Y79859D01*
X172911D01*
X174814Y81762D02*
Y78908D01*
X175765Y77957D01*
X178618D01*
Y77006D01*
X177667Y76055D01*
X176716D01*
X178618Y77957D02*
Y81762D01*
X183374Y77957D02*
X181472D01*
X180520Y78908D01*
Y80810D01*
X181472Y81762D01*
X183374D01*
X184325Y80810D01*
Y79859D01*
X180520D01*
X186227Y81762D02*
Y77957D01*
Y79859D01*
X187178Y80810D01*
X188129Y81762D01*
X189081D01*
X201445Y82713D02*
X200494Y83664D01*
X198592D01*
X197641Y82713D01*
Y81762D01*
X198592Y80810D01*
X200494D01*
X201445Y79859D01*
Y78908D01*
X200494Y77957D01*
X198592D01*
X197641Y78908D01*
X204299Y82713D02*
Y81762D01*
X203348D01*
X205250D01*
X204299D01*
Y78908D01*
X205250Y77957D01*
X209054Y81762D02*
X210957D01*
X211908Y80810D01*
Y77957D01*
X209054D01*
X208103Y78908D01*
X209054Y79859D01*
X211908D01*
X217615Y81762D02*
X214761D01*
X213810Y80810D01*
Y78908D01*
X214761Y77957D01*
X217615D01*
X219517D02*
Y83664D01*
Y79859D02*
X222370Y81762D01*
X219517Y79859D02*
X222370Y77957D01*
X230931Y83664D02*
Y78908D01*
X231882Y77957D01*
X233784D01*
X234735Y78908D01*
Y83664D01*
X236637Y76055D02*
Y81762D01*
X239491D01*
X240442Y80810D01*
Y78908D01*
X239491Y77957D01*
X236637D01*
X248051Y83664D02*
Y77957D01*
X250904D01*
X251856Y78908D01*
Y82713D01*
X250904Y83664D01*
X248051D01*
X256611Y77957D02*
X254709D01*
X253758Y78908D01*
Y80810D01*
X254709Y81762D01*
X256611D01*
X257562Y80810D01*
Y79859D01*
X253758D01*
X260416Y82713D02*
Y81762D01*
X259465D01*
X261367D01*
X260416D01*
Y78908D01*
X261367Y77957D01*
X265172Y81762D02*
X267074D01*
X268025Y80810D01*
Y77957D01*
X265172D01*
X264220Y78908D01*
X265172Y79859D01*
X268025D01*
X269927Y77957D02*
X271829D01*
X270878D01*
Y81762D01*
X269927D01*
X274683Y77957D02*
X276585D01*
X275634D01*
Y83664D01*
X274683D01*
X286096Y77957D02*
Y82713D01*
Y80810D01*
X285145D01*
X287048D01*
X286096D01*
Y82713D01*
X287048Y83664D01*
X290852Y77957D02*
X292754D01*
X293706Y78908D01*
Y80810D01*
X292754Y81762D01*
X290852D01*
X289901Y80810D01*
Y78908D01*
X290852Y77957D01*
X295608Y81762D02*
Y77957D01*
Y79859D01*
X296559Y80810D01*
X297510Y81762D01*
X298461D01*
X301315D02*
X302266D01*
Y80810D01*
X301315D01*
Y81762D01*
Y78908D02*
X302266D01*
Y77957D01*
X301315D01*
Y78908D01*
X311777Y83664D02*
X313679D01*
X312728D01*
Y77957D01*
X311777D01*
X313679D01*
X317484D02*
X319386D01*
X320337Y78908D01*
Y80810D01*
X319386Y81762D01*
X317484D01*
X316533Y80810D01*
Y78908D01*
X317484Y77957D01*
X322240Y83664D02*
X326044D01*
X324142D01*
Y77957D01*
X333653Y83664D02*
Y77957D01*
X336507D01*
X337458Y78908D01*
Y82713D01*
X336507Y83664D01*
X333653D01*
X342213Y77957D02*
X340311D01*
X339360Y78908D01*
Y80810D01*
X340311Y81762D01*
X342213D01*
X343165Y80810D01*
Y79859D01*
X339360D01*
X345067Y83664D02*
Y77957D01*
X347920D01*
X348871Y78908D01*
Y79859D01*
Y80810D01*
X347920Y81762D01*
X345067D01*
X350774D02*
Y78908D01*
X351725Y77957D01*
X354578D01*
Y81762D01*
X358383Y76055D02*
X359334D01*
X360285Y77006D01*
Y81762D01*
X357432D01*
X356480Y80810D01*
Y78908D01*
X357432Y77957D01*
X360285D01*
X364089Y76055D02*
X365041D01*
X365992Y77006D01*
Y81762D01*
X363138D01*
X362187Y80810D01*
Y78908D01*
X363138Y77957D01*
X365992D01*
X370747D02*
X368845D01*
X367894Y78908D01*
Y80810D01*
X368845Y81762D01*
X370747D01*
X371699Y80810D01*
Y79859D01*
X367894D01*
X373601Y81762D02*
Y77957D01*
Y79859D01*
X374552Y80810D01*
X375503Y81762D01*
X376454D01*
D40*
X36397Y23700D02*
G03*
X36397Y23700I-197J0D01*
G01*
X387941Y24000D02*
G03*
X390500Y26559I0J2559D01*
G01*
X157400D02*
G03*
X159959Y24000I2559J0D01*
G01*
X390500Y97641D02*
G03*
X387941Y100200I-2559J0D01*
G01*
X159959D02*
G03*
X157400Y97641I0J-2559D01*
G01*
X23600Y20500D02*
X26800D01*
X23600Y14300D02*
Y20500D01*
Y14300D02*
X26800D01*
Y20500D01*
X92300Y73600D02*
X95500D01*
X92300Y67400D02*
Y73600D01*
Y67400D02*
X95500D01*
Y73600D01*
X35800Y66000D02*
Y69200D01*
X29600D02*
X35800D01*
X29600Y66000D02*
Y69200D01*
Y66000D02*
X35800D01*
X51300Y102000D02*
X54500D01*
X51300Y95800D02*
Y102000D01*
Y95800D02*
X54500D01*
Y102000D01*
X55200D02*
X58400D01*
X55200Y95800D02*
Y102000D01*
Y95800D02*
X58400D01*
Y102000D01*
X9300Y70000D02*
X12500D01*
X9300Y63800D02*
Y70000D01*
Y63800D02*
X12500D01*
Y70000D01*
X68400Y100100D02*
Y103300D01*
X62200D02*
X68400D01*
X62200Y100100D02*
Y103300D01*
Y100100D02*
X68400D01*
X68900D02*
Y103300D01*
Y100100D02*
X75100D01*
Y103300D01*
X68900D02*
X75100D01*
X98900Y64900D02*
Y68100D01*
Y64900D02*
X105100D01*
Y68100D01*
X98900D02*
X105100D01*
X83600Y100100D02*
Y103300D01*
X77400D02*
X83600D01*
X77400Y100100D02*
Y103300D01*
Y100100D02*
X83600D01*
X9300Y78700D02*
X12500D01*
X9300Y72500D02*
Y78700D01*
Y72500D02*
X12500D01*
Y78700D01*
X42400Y91300D02*
Y94500D01*
Y91300D02*
X48600D01*
Y94500D01*
X42400D02*
X48600D01*
X53500Y69400D02*
Y72600D01*
X47300D02*
X53500D01*
X47300Y69400D02*
Y72600D01*
Y69400D02*
X53500D01*
X97300Y40800D02*
X100500D01*
X97300Y34600D02*
Y40800D01*
Y34600D02*
X100500D01*
Y40800D01*
X89700D02*
X92900D01*
X89700Y34600D02*
Y40800D01*
Y34600D02*
X92900D01*
Y40800D01*
X93500D02*
X96700D01*
X93500Y34600D02*
Y40800D01*
Y34600D02*
X96700D01*
Y40800D01*
X101000D02*
X104200D01*
X101000Y34600D02*
Y40800D01*
Y34600D02*
X104200D01*
Y40800D01*
X104700Y38200D02*
X107900D01*
Y44400D01*
X104700D02*
X107900D01*
X104700Y38200D02*
Y44400D01*
X68200Y61800D02*
Y65000D01*
X62000D02*
X68200D01*
X62000Y61800D02*
Y65000D01*
Y61800D02*
X68200D01*
X9300Y61600D02*
X12500D01*
X9300Y55400D02*
Y61600D01*
Y55400D02*
X12500D01*
Y61600D01*
X4300Y55000D02*
Y62100D01*
X8300D01*
Y55000D02*
Y62100D01*
X4300Y55000D02*
X8300D01*
X4300Y63400D02*
Y70500D01*
X8300D01*
Y63400D02*
Y70500D01*
X4300Y63400D02*
X8300D01*
X4300Y72100D02*
Y79200D01*
X8300D01*
Y72100D02*
Y79200D01*
X4300Y72100D02*
X8300D01*
X67700Y33700D02*
Y36900D01*
Y33700D02*
X73900D01*
Y36900D01*
X67700D02*
X73900D01*
X74700Y37300D02*
X81800D01*
Y33300D02*
Y37300D01*
X74700Y33300D02*
X81800D01*
X74700D02*
Y37300D01*
X163400Y56797D02*
X384500D01*
X163400Y64454D02*
X384500D01*
X390500Y26559D02*
Y97641D01*
X157400Y26500D02*
Y97641D01*
X159959Y24000D02*
X387941D01*
X159959Y100200D02*
X387941D01*
X234127Y34732D02*
X234554Y35158D01*
X235406D01*
X235833Y34732D01*
Y33026D01*
X235406Y32600D01*
X234554D01*
X234127Y33026D01*
Y34732D01*
X236685Y32600D02*
Y33026D01*
X237112D01*
Y32600D01*
X236685D01*
X238817Y34732D02*
X239244Y35158D01*
X240096D01*
X240523Y34732D01*
Y33026D01*
X240096Y32600D01*
X239244D01*
X238817Y33026D01*
Y34732D01*
X241375D02*
X241802Y35158D01*
X242655D01*
X243081Y34732D01*
Y34306D01*
X242655Y33879D01*
X242228D01*
X242655D01*
X243081Y33453D01*
Y33026D01*
X242655Y32600D01*
X241802D01*
X241375Y33026D01*
X245639Y35158D02*
X243934D01*
Y33879D01*
X244787Y34306D01*
X245213D01*
X245639Y33879D01*
Y33026D01*
X245213Y32600D01*
X244360D01*
X243934Y33026D01*
X248198Y35158D02*
X247345Y34732D01*
X246492Y33879D01*
Y33026D01*
X246918Y32600D01*
X247771D01*
X248198Y33026D01*
Y33453D01*
X247771Y33879D01*
X246492D01*
X249050Y32600D02*
Y34306D01*
X249477D01*
X249903Y33879D01*
Y32600D01*
Y33879D01*
X250329Y34306D01*
X250756Y33879D01*
Y32600D01*
X251608D02*
Y34306D01*
X252035D01*
X252461Y33879D01*
Y32600D01*
Y33879D01*
X252888Y34306D01*
X253314Y33879D01*
Y32600D01*
X212112D02*
X211260Y33453D01*
Y34306D01*
X212112Y35158D01*
X213391Y32600D02*
Y33026D01*
X213818D01*
Y32600D01*
X213391D01*
X217229Y34732D02*
X216802Y35158D01*
X215950D01*
X215523Y34732D01*
Y33026D01*
X215950Y32600D01*
X216802D01*
X217229Y33026D01*
Y33879D01*
X216376D01*
X218081Y35158D02*
Y32600D01*
X219361D01*
X219787Y33026D01*
Y33453D01*
X219361Y33879D01*
X218081D01*
X219361D01*
X219787Y34306D01*
Y34732D01*
X219361Y35158D01*
X218081D01*
X220640D02*
Y32600D01*
X222345D01*
X223198D02*
X224051Y33453D01*
Y34306D01*
X223198Y35158D01*
X163400D02*
Y32600D01*
X164679D01*
X165105Y33026D01*
Y33453D01*
X164679Y33879D01*
X163400D01*
X164679D01*
X165105Y34306D01*
Y34732D01*
X164679Y35158D01*
X163400D01*
X166385Y32600D02*
X167237D01*
X167664Y33026D01*
Y33879D01*
X167237Y34306D01*
X166385D01*
X165958Y33879D01*
Y33026D01*
X166385Y32600D01*
X168943Y34732D02*
Y34306D01*
X168517D01*
X169369D01*
X168943D01*
Y33026D01*
X169369Y32600D01*
X171075Y34732D02*
Y34306D01*
X170648D01*
X171501D01*
X171075D01*
Y33026D01*
X171501Y32600D01*
X173206D02*
X174059D01*
X174486Y33026D01*
Y33879D01*
X174059Y34306D01*
X173206D01*
X172780Y33879D01*
Y33026D01*
X173206Y32600D01*
X175338D02*
Y34306D01*
X175765D01*
X176191Y33879D01*
Y32600D01*
Y33879D01*
X176618Y34306D01*
X177044Y33879D01*
Y32600D01*
X180455Y35158D02*
Y32600D01*
X182160D01*
X183440Y34306D02*
X184292D01*
X184719Y33879D01*
Y32600D01*
X183440D01*
X183013Y33026D01*
X183440Y33453D01*
X184719D01*
X185571Y34306D02*
Y33026D01*
X185998Y32600D01*
X187277D01*
Y32174D01*
X186851Y31747D01*
X186424D01*
X187277Y32600D02*
Y34306D01*
X189409Y32600D02*
X188556D01*
X188130Y33026D01*
Y33879D01*
X188556Y34306D01*
X189409D01*
X189835Y33879D01*
Y33453D01*
X188130D01*
X190688Y34306D02*
Y32600D01*
Y33453D01*
X191114Y33879D01*
X191541Y34306D01*
X191967D01*
X350662Y43132D02*
X350236Y43558D01*
X349383D01*
X348956Y43132D01*
Y41426D01*
X349383Y41000D01*
X350236D01*
X350662Y41426D01*
X351941Y41000D02*
X352794D01*
X353220Y41426D01*
Y42279D01*
X352794Y42706D01*
X351941D01*
X351515Y42279D01*
Y41426D01*
X351941Y41000D01*
X354073Y42706D02*
Y41000D01*
Y41853D01*
X354499Y42279D01*
X354926Y42706D01*
X355352D01*
X357910Y41000D02*
X357057D01*
X356631Y41426D01*
Y42279D01*
X357057Y42706D01*
X357910D01*
X358337Y42279D01*
Y41853D01*
X356631D01*
X323235Y41000D02*
Y43558D01*
X321956Y42279D01*
X323662D01*
X324514Y41000D02*
Y41426D01*
X324941D01*
Y41000D01*
X324514D01*
X328352Y43558D02*
X327499Y43132D01*
X326646Y42279D01*
Y41426D01*
X327073Y41000D01*
X327925D01*
X328352Y41426D01*
Y41853D01*
X327925Y42279D01*
X326646D01*
X329205Y43132D02*
X329631Y43558D01*
X330484D01*
X330910Y43132D01*
Y41426D01*
X330484Y41000D01*
X329631D01*
X329205Y41426D01*
Y43132D01*
X288593Y43558D02*
X286888D01*
Y42279D01*
X287741D01*
X286888D01*
Y41000D01*
X289446D02*
Y43558D01*
X290725D01*
X291151Y43132D01*
Y42279D01*
X290725Y41853D01*
X289446D01*
X290299D02*
X291151Y41000D01*
X292004Y42279D02*
X293710D01*
X295842Y41000D02*
Y43558D01*
X294563Y42279D01*
X296268D01*
X259888Y41000D02*
X260740D01*
X260314D01*
Y43558D01*
X259888Y43132D01*
X262019Y41000D02*
Y41426D01*
X262446D01*
Y41000D01*
X262019D01*
X265857Y43558D02*
X264151D01*
Y42279D01*
X265004Y42706D01*
X265430D01*
X265857Y42279D01*
Y41426D01*
X265430Y41000D01*
X264578D01*
X264151Y41426D01*
X268415Y43558D02*
X266710D01*
Y42279D01*
X267562Y42706D01*
X267989D01*
X268415Y42279D01*
Y41426D01*
X267989Y41000D01*
X267136D01*
X266710Y41426D01*
X269268Y41000D02*
Y42706D01*
X269694D01*
X270121Y42279D01*
Y41000D01*
Y42279D01*
X270547Y42706D01*
X270973Y42279D01*
Y41000D01*
X271826D02*
Y42706D01*
X272252D01*
X272679Y42279D01*
Y41000D01*
Y42279D01*
X273105Y42706D01*
X273532Y42279D01*
Y41000D01*
X234127Y51532D02*
X234554Y51958D01*
X235406D01*
X235833Y51532D01*
Y49826D01*
X235406Y49400D01*
X234554D01*
X234127Y49826D01*
Y51532D01*
X236685Y49400D02*
Y49826D01*
X237112D01*
Y49400D01*
X236685D01*
X238817Y51532D02*
X239244Y51958D01*
X240096D01*
X240523Y51532D01*
Y49826D01*
X240096Y49400D01*
X239244D01*
X238817Y49826D01*
Y51532D01*
X241375D02*
X241802Y51958D01*
X242655D01*
X243081Y51532D01*
Y51105D01*
X242655Y50679D01*
X242228D01*
X242655D01*
X243081Y50253D01*
Y49826D01*
X242655Y49400D01*
X241802D01*
X241375Y49826D01*
X245639Y51958D02*
X243934D01*
Y50679D01*
X244787Y51105D01*
X245213D01*
X245639Y50679D01*
Y49826D01*
X245213Y49400D01*
X244360D01*
X243934Y49826D01*
X248198Y51958D02*
X247345Y51532D01*
X246492Y50679D01*
Y49826D01*
X246918Y49400D01*
X247771D01*
X248198Y49826D01*
Y50253D01*
X247771Y50679D01*
X246492D01*
X249050Y49400D02*
Y51105D01*
X249477D01*
X249903Y50679D01*
Y49400D01*
Y50679D01*
X250329Y51105D01*
X250756Y50679D01*
Y49400D01*
X251608D02*
Y51105D01*
X252035D01*
X252461Y50679D01*
Y49400D01*
Y50679D01*
X252888Y51105D01*
X253314Y50679D01*
Y49400D01*
X212112D02*
X211260Y50253D01*
Y51105D01*
X212112Y51958D01*
X213391Y49400D02*
Y49826D01*
X213818D01*
Y49400D01*
X213391D01*
X217229Y51532D02*
X216802Y51958D01*
X215950D01*
X215523Y51532D01*
Y49826D01*
X215950Y49400D01*
X216802D01*
X217229Y49826D01*
Y50679D01*
X216376D01*
X218081Y51958D02*
X219787D01*
X218934D01*
Y49400D01*
X220640Y51958D02*
Y49400D01*
X222345D01*
X223198D02*
X224051Y50253D01*
Y51105D01*
X223198Y51958D01*
X163400D02*
X165105D01*
X164253D01*
Y49400D01*
X166385D02*
X167237D01*
X167664Y49826D01*
Y50679D01*
X167237Y51105D01*
X166385D01*
X165958Y50679D01*
Y49826D01*
X166385Y49400D01*
X168517Y48547D02*
Y51105D01*
X169796D01*
X170222Y50679D01*
Y49826D01*
X169796Y49400D01*
X168517D01*
X173633Y51958D02*
Y49400D01*
X175338D01*
X176618Y51105D02*
X177470D01*
X177897Y50679D01*
Y49400D01*
X176618D01*
X176191Y49826D01*
X176618Y50253D01*
X177897D01*
X178749Y51105D02*
Y49826D01*
X179176Y49400D01*
X180455D01*
Y48974D01*
X180028Y48547D01*
X179602D01*
X180455Y49400D02*
Y51105D01*
X182587Y49400D02*
X181734D01*
X181308Y49826D01*
Y50679D01*
X181734Y51105D01*
X182587D01*
X183013Y50679D01*
Y50253D01*
X181308D01*
X183866Y51105D02*
Y49400D01*
Y50253D01*
X184292Y50679D01*
X184719Y51105D01*
X185145D01*
X348956Y59828D02*
X350137D01*
X349547D01*
Y58057D01*
X350728Y59237D02*
Y58352D01*
X351023Y58057D01*
X351908D01*
Y57762D01*
X351613Y57466D01*
X351318D01*
X351908Y58057D02*
Y59237D01*
X352499Y57466D02*
Y59237D01*
X353384D01*
X353679Y58942D01*
Y58352D01*
X353384Y58057D01*
X352499D01*
X355155D02*
X354565D01*
X354270Y58352D01*
Y58942D01*
X354565Y59237D01*
X355155D01*
X355450Y58942D01*
Y58647D01*
X354270D01*
X323137Y59533D02*
X322842Y59828D01*
X322251D01*
X321956Y59533D01*
Y58352D01*
X322251Y58057D01*
X322842D01*
X323137Y58352D01*
X324023Y58057D02*
X324613D01*
X324908Y58352D01*
Y58942D01*
X324613Y59237D01*
X324023D01*
X323727Y58942D01*
Y58352D01*
X324023Y58057D01*
X325498D02*
Y59237D01*
X326384D01*
X326679Y58942D01*
Y58057D01*
X327270D02*
X328155D01*
X328450Y58352D01*
X328155Y58647D01*
X327565D01*
X327270Y58942D01*
X327565Y59237D01*
X328450D01*
X329336Y59533D02*
Y59237D01*
X329041D01*
X329631D01*
X329336D01*
Y58352D01*
X329631Y58057D01*
X330812Y59237D02*
X331402D01*
X331697Y58942D01*
Y58057D01*
X330812D01*
X330516Y58352D01*
X330812Y58647D01*
X331697D01*
X332288Y58057D02*
Y59237D01*
X333173D01*
X333468Y58942D01*
Y58057D01*
X334354Y59533D02*
Y59237D01*
X334059D01*
X334649D01*
X334354D01*
Y58352D01*
X334649Y58057D01*
X286888D02*
Y59828D01*
X287478Y59237D01*
X288069Y59828D01*
Y58057D01*
X288954Y59237D02*
X289545D01*
X289840Y58942D01*
Y58057D01*
X288954D01*
X288659Y58352D01*
X288954Y58647D01*
X289840D01*
X290725Y59533D02*
Y59237D01*
X290430D01*
X291020D01*
X290725D01*
Y58352D01*
X291020Y58057D01*
X292791D02*
X292201D01*
X291906Y58352D01*
Y58942D01*
X292201Y59237D01*
X292791D01*
X293087Y58942D01*
Y58647D01*
X291906D01*
X293677Y59237D02*
Y58057D01*
Y58647D01*
X293972Y58942D01*
X294267Y59237D01*
X294563D01*
X295448Y58057D02*
X296038D01*
X295743D01*
Y59237D01*
X295448D01*
X297219D02*
X297810D01*
X298105Y58942D01*
Y58057D01*
X297219D01*
X296924Y58352D01*
X297219Y58647D01*
X298105D01*
X298695Y58057D02*
X299285D01*
X298990D01*
Y59828D01*
X298695D01*
X259888D02*
Y58057D01*
Y58942D01*
X261068D01*
Y59828D01*
Y58057D01*
X262544D02*
X261954D01*
X261659Y58352D01*
Y58942D01*
X261954Y59237D01*
X262544D01*
X262839Y58942D01*
Y58647D01*
X261659D01*
X263430Y58057D02*
X264020D01*
X263725D01*
Y59237D01*
X263430D01*
X265496Y57466D02*
X265791D01*
X266086Y57762D01*
Y59237D01*
X265201D01*
X264906Y58942D01*
Y58352D01*
X265201Y58057D01*
X266086D01*
X266677Y59828D02*
Y58057D01*
Y58942D01*
X266972Y59237D01*
X267562D01*
X267858Y58942D01*
Y58057D01*
X268743Y59533D02*
Y59237D01*
X268448D01*
X269038D01*
X268743D01*
Y58352D01*
X269038Y58057D01*
X234127Y59828D02*
X235308D01*
X234718D01*
Y58057D01*
X235898Y59828D02*
Y58057D01*
Y58942D01*
X236193Y59237D01*
X236784D01*
X237079Y58942D01*
Y58057D01*
X237669D02*
X238260D01*
X237965D01*
Y59237D01*
X237669D01*
X240326D02*
X239440D01*
X239145Y58942D01*
Y58352D01*
X239440Y58057D01*
X240326D01*
X240916D02*
Y59828D01*
Y58647D02*
X241802Y59237D01*
X240916Y58647D02*
X241802Y58057D01*
X242687D02*
Y59237D01*
X243573D01*
X243868Y58942D01*
Y58057D01*
X245344D02*
X244754D01*
X244459Y58352D01*
Y58942D01*
X244754Y59237D01*
X245344D01*
X245639Y58942D01*
Y58647D01*
X244459D01*
X246230Y58057D02*
X247115D01*
X247410Y58352D01*
X247115Y58647D01*
X246525D01*
X246230Y58942D01*
X246525Y59237D01*
X247410D01*
X248001Y58057D02*
X248886D01*
X249181Y58352D01*
X248886Y58647D01*
X248296D01*
X248001Y58942D01*
X248296Y59237D01*
X249181D01*
X211260Y59828D02*
Y58057D01*
X212145D01*
X212440Y58352D01*
Y59533D01*
X212145Y59828D01*
X211260D01*
X213326Y58057D02*
X213916D01*
X214211Y58352D01*
Y58942D01*
X213916Y59237D01*
X213326D01*
X213031Y58942D01*
Y58352D01*
X213326Y58057D01*
X215982Y59237D02*
X215097D01*
X214802Y58942D01*
Y58352D01*
X215097Y58057D01*
X215982D01*
X216573Y59237D02*
Y58352D01*
X216868Y58057D01*
X217754D01*
Y59237D01*
X218344Y58057D02*
Y59237D01*
X218639D01*
X218934Y58942D01*
Y58057D01*
Y58942D01*
X219229Y59237D01*
X219525Y58942D01*
Y58057D01*
X221001D02*
X220410D01*
X220115Y58352D01*
Y58942D01*
X220410Y59237D01*
X221001D01*
X221296Y58942D01*
Y58647D01*
X220115D01*
X221886Y58057D02*
Y59237D01*
X222772D01*
X223067Y58942D01*
Y58057D01*
X223952Y59533D02*
Y59237D01*
X223657D01*
X224248D01*
X223952D01*
Y58352D01*
X224248Y58057D01*
X163400D02*
Y59828D01*
X164581Y58057D01*
Y59828D01*
X165466Y59237D02*
X166057D01*
X166352Y58942D01*
Y58057D01*
X165466D01*
X165171Y58352D01*
X165466Y58647D01*
X166352D01*
X166942Y58057D02*
Y59237D01*
X167237D01*
X167533Y58942D01*
Y58057D01*
Y58942D01*
X167828Y59237D01*
X168123Y58942D01*
Y58057D01*
X169599D02*
X169008D01*
X168713Y58352D01*
Y58942D01*
X169008Y59237D01*
X169599D01*
X169894Y58942D01*
Y58647D01*
X168713D01*
X348956Y63371D02*
Y61600D01*
X349842D01*
X350137Y61895D01*
Y63076D01*
X349842Y63371D01*
X348956D01*
X350728Y61600D02*
X351318D01*
X351023D01*
Y62781D01*
X350728D01*
X353089Y61600D02*
X352499D01*
X352203Y61895D01*
Y62485D01*
X352499Y62781D01*
X353089D01*
X353384Y62485D01*
Y62190D01*
X352203D01*
X353975Y61600D02*
X354565D01*
X354270D01*
Y63371D01*
X353975D01*
X356336Y61600D02*
X355746D01*
X355450Y61895D01*
Y62485D01*
X355746Y62781D01*
X356336D01*
X356631Y62485D01*
Y62190D01*
X355450D01*
X358402Y62781D02*
X357517D01*
X357221Y62485D01*
Y61895D01*
X357517Y61600D01*
X358402D01*
X359288Y63076D02*
Y62781D01*
X358993D01*
X359583D01*
X359288D01*
Y61895D01*
X359583Y61600D01*
X360468Y62781D02*
Y61600D01*
Y62190D01*
X360764Y62485D01*
X361059Y62781D01*
X361354D01*
X362240Y61600D02*
X362830D01*
X362535D01*
Y62781D01*
X362240D01*
X364896D02*
X364011D01*
X363715Y62485D01*
Y61895D01*
X364011Y61600D01*
X364896D01*
X321956Y63371D02*
Y61600D01*
X322842D01*
X323137Y61895D01*
Y63076D01*
X322842Y63371D01*
X321956D01*
X323727Y61600D02*
X324318D01*
X324023D01*
Y62781D01*
X323727D01*
X326089Y61600D02*
X325498D01*
X325203Y61895D01*
Y62485D01*
X325498Y62781D01*
X326089D01*
X326384Y62485D01*
Y62190D01*
X325203D01*
X326974Y61600D02*
X327565D01*
X327270D01*
Y63371D01*
X326974D01*
X329336Y61600D02*
X328745D01*
X328450Y61895D01*
Y62485D01*
X328745Y62781D01*
X329336D01*
X329631Y62485D01*
Y62190D01*
X328450D01*
X331402Y62781D02*
X330516D01*
X330221Y62485D01*
Y61895D01*
X330516Y61600D01*
X331402D01*
X332288Y63076D02*
Y62781D01*
X331992D01*
X332583D01*
X332288D01*
Y61895D01*
X332583Y61600D01*
X333468Y62781D02*
Y61600D01*
Y62190D01*
X333763Y62485D01*
X334059Y62781D01*
X334354D01*
X335239Y61600D02*
X335830D01*
X335535D01*
Y62781D01*
X335239D01*
X337896D02*
X337010D01*
X336715Y62485D01*
Y61895D01*
X337010Y61600D01*
X337896D01*
X286888Y63371D02*
Y61600D01*
X287773D01*
X288069Y61895D01*
Y63076D01*
X287773Y63371D01*
X286888D01*
X288659Y61600D02*
X289249D01*
X288954D01*
Y62781D01*
X288659D01*
X291020Y61600D02*
X290430D01*
X290135Y61895D01*
Y62485D01*
X290430Y62781D01*
X291020D01*
X291316Y62485D01*
Y62190D01*
X290135D01*
X291906Y61600D02*
X292496D01*
X292201D01*
Y63371D01*
X291906D01*
X294267Y61600D02*
X293677D01*
X293382Y61895D01*
Y62485D01*
X293677Y62781D01*
X294267D01*
X294563Y62485D01*
Y62190D01*
X293382D01*
X296334Y62781D02*
X295448D01*
X295153Y62485D01*
Y61895D01*
X295448Y61600D01*
X296334D01*
X297219Y63076D02*
Y62781D01*
X296924D01*
X297514D01*
X297219D01*
Y61895D01*
X297514Y61600D01*
X298400Y62781D02*
Y61600D01*
Y62190D01*
X298695Y62485D01*
X298990Y62781D01*
X299285D01*
X300171Y61600D02*
X300761D01*
X300466D01*
Y62781D01*
X300171D01*
X302828D02*
X301942D01*
X301647Y62485D01*
Y61895D01*
X301942Y61600D01*
X302828D01*
X259888Y63371D02*
Y61600D01*
X260773D01*
X261068Y61895D01*
Y63076D01*
X260773Y63371D01*
X259888D01*
X261659Y61600D02*
X262249D01*
X261954D01*
Y62781D01*
X261659D01*
X264020Y61600D02*
X263430D01*
X263135Y61895D01*
Y62485D01*
X263430Y62781D01*
X264020D01*
X264315Y62485D01*
Y62190D01*
X263135D01*
X264906Y61600D02*
X265496D01*
X265201D01*
Y63371D01*
X264906D01*
X267267Y61600D02*
X266677D01*
X266382Y61895D01*
Y62485D01*
X266677Y62781D01*
X267267D01*
X267562Y62485D01*
Y62190D01*
X266382D01*
X269333Y62781D02*
X268448D01*
X268153Y62485D01*
Y61895D01*
X268448Y61600D01*
X269333D01*
X270219Y63076D02*
Y62781D01*
X269924D01*
X270514D01*
X270219D01*
Y61895D01*
X270514Y61600D01*
X271400Y62781D02*
Y61600D01*
Y62190D01*
X271695Y62485D01*
X271990Y62781D01*
X272285D01*
X273171Y61600D02*
X273761D01*
X273466D01*
Y62781D01*
X273171D01*
X275827D02*
X274942D01*
X274647Y62485D01*
Y61895D01*
X274942Y61600D01*
X275827D01*
X235308Y63076D02*
X235013Y63371D01*
X234422D01*
X234127Y63076D01*
Y61895D01*
X234422Y61600D01*
X235013D01*
X235308Y61895D01*
X236193Y61600D02*
X236784D01*
X237079Y61895D01*
Y62485D01*
X236784Y62781D01*
X236193D01*
X235898Y62485D01*
Y61895D01*
X236193Y61600D01*
X237669Y61010D02*
Y62781D01*
X238555D01*
X238850Y62485D01*
Y61895D01*
X238555Y61600D01*
X237669D01*
X239440Y61010D02*
Y62781D01*
X240326D01*
X240621Y62485D01*
Y61895D01*
X240326Y61600D01*
X239440D01*
X242097D02*
X241507D01*
X241212Y61895D01*
Y62485D01*
X241507Y62781D01*
X242097D01*
X242392Y62485D01*
Y62190D01*
X241212D01*
X242983Y62781D02*
Y61600D01*
Y62190D01*
X243278Y62485D01*
X243573Y62781D01*
X243868D01*
X212440Y63076D02*
X212145Y63371D01*
X211555D01*
X211260Y63076D01*
Y61895D01*
X211555Y61600D01*
X212145D01*
X212440Y61895D01*
Y62485D01*
X211850D01*
X213916Y61600D02*
X213326D01*
X213031Y61895D01*
Y62485D01*
X213326Y62781D01*
X213916D01*
X214211Y62485D01*
Y62190D01*
X213031D01*
X214802Y62781D02*
Y61600D01*
Y62190D01*
X215097Y62485D01*
X215392Y62781D01*
X215687D01*
X216573Y63371D02*
Y61600D01*
X217458D01*
X217754Y61895D01*
Y62190D01*
Y62485D01*
X217458Y62781D01*
X216573D01*
X219229Y61600D02*
X218639D01*
X218344Y61895D01*
Y62485D01*
X218639Y62781D01*
X219229D01*
X219525Y62485D01*
Y62190D01*
X218344D01*
X220115Y62781D02*
Y61600D01*
Y62190D01*
X220410Y62485D01*
X220705Y62781D01*
X221001D01*
X163400Y63371D02*
Y61600D01*
X164581D01*
X165466Y62781D02*
X166057D01*
X166352Y62485D01*
Y61600D01*
X165466D01*
X165171Y61895D01*
X165466Y62190D01*
X166352D01*
X166942Y62781D02*
Y61895D01*
X167237Y61600D01*
X168123D01*
Y61305D01*
X167828Y61010D01*
X167533D01*
X168123Y61600D02*
Y62781D01*
X169599Y61600D02*
X169008D01*
X168713Y61895D01*
Y62485D01*
X169008Y62781D01*
X169599D01*
X169894Y62485D01*
Y62190D01*
X168713D01*
X170484Y62781D02*
Y61600D01*
Y62190D01*
X170780Y62485D01*
X171075Y62781D01*
X171370D01*
D41*
X37200Y23700D02*
X38000D01*
X37200Y23000D02*
Y23700D01*
Y14700D02*
Y15400D01*
Y14700D02*
X38000D01*
X46200D02*
Y15400D01*
X45400Y14700D02*
X46200D01*
Y23000D02*
Y23700D01*
X45400D02*
X46200D01*
X35000Y15200D02*
Y16900D01*
X30400Y15200D02*
X35000D01*
X30400D02*
Y16900D01*
Y23600D02*
Y25300D01*
X35000D01*
Y23600D02*
Y25300D01*
X53000Y15300D02*
Y17000D01*
X48400Y15300D02*
X53000D01*
X48400D02*
Y17000D01*
Y23700D02*
Y25400D01*
X53000D01*
Y23700D02*
Y25400D01*
D42*
X1800Y55800D02*
X3300D01*
X2550Y54900D02*
Y56600D01*
X1800Y64200D02*
X3300D01*
X2550Y63300D02*
Y65000D01*
X1800Y72900D02*
X3300D01*
X2550Y72000D02*
Y73700D01*
X75500Y38300D02*
Y39800D01*
X74600Y39050D02*
X76300D01*
D43*
X125212Y100568D02*
X124556D01*
X124884D01*
Y98928D01*
X124556Y98600D01*
X124228D01*
X123900Y98928D01*
X125868Y100240D02*
X126196Y100568D01*
X126852D01*
X127180Y100240D01*
Y99912D01*
X126852Y99584D01*
X126524D01*
X126852D01*
X127180Y99256D01*
Y98928D01*
X126852Y98600D01*
X126196D01*
X125868Y98928D01*
X56712Y104440D02*
X56384Y104768D01*
X55728D01*
X55400Y104440D01*
Y103128D01*
X55728Y102800D01*
X56384D01*
X56712Y103128D01*
X57368Y102800D02*
X58024D01*
X57696D01*
Y104768D01*
X57368Y104440D01*
X50312Y27740D02*
X49984Y28068D01*
X49328D01*
X49000Y27740D01*
Y26428D01*
X49328Y26100D01*
X49984D01*
X50312Y26428D01*
X52280Y26100D02*
X50968D01*
X52280Y27412D01*
Y27740D01*
X51952Y28068D01*
X51296D01*
X50968Y27740D01*
X32212D02*
X31884Y28068D01*
X31228D01*
X30900Y27740D01*
Y26428D01*
X31228Y26100D01*
X31884D01*
X32212Y26428D01*
X32868Y27740D02*
X33196Y28068D01*
X33852D01*
X34180Y27740D01*
Y27412D01*
X33852Y27084D01*
X33524D01*
X33852D01*
X34180Y26756D01*
Y26428D01*
X33852Y26100D01*
X33196D01*
X32868Y26428D01*
X78812Y107440D02*
X78484Y107768D01*
X77828D01*
X77500Y107440D01*
Y106128D01*
X77828Y105800D01*
X78484D01*
X78812Y106128D01*
X80452Y105800D02*
Y107768D01*
X79468Y106784D01*
X80780D01*
X91312Y33040D02*
X90984Y33368D01*
X90328D01*
X90000Y33040D01*
Y31728D01*
X90328Y31400D01*
X90984D01*
X91312Y31728D01*
X93280Y33368D02*
X91968D01*
Y32384D01*
X92624Y32712D01*
X92952D01*
X93280Y32384D01*
Y31728D01*
X92952Y31400D01*
X92296D01*
X91968Y31728D01*
X102312Y43340D02*
X101984Y43668D01*
X101328D01*
X101000Y43340D01*
Y42028D01*
X101328Y41700D01*
X101984D01*
X102312Y42028D01*
X104280Y43668D02*
X103624Y43340D01*
X102968Y42684D01*
Y42028D01*
X103296Y41700D01*
X103952D01*
X104280Y42028D01*
Y42356D01*
X103952Y42684D01*
X102968D01*
X40012Y93440D02*
X39684Y93768D01*
X39028D01*
X38700Y93440D01*
Y92128D01*
X39028Y91800D01*
X39684D01*
X40012Y92128D01*
X40668Y93768D02*
X41980D01*
Y93440D01*
X40668Y92128D01*
Y91800D01*
X44612Y71840D02*
X44284Y72168D01*
X43628D01*
X43300Y71840D01*
Y70528D01*
X43628Y70200D01*
X44284D01*
X44612Y70528D01*
X45268Y71840D02*
X45596Y72168D01*
X46252D01*
X46580Y71840D01*
Y71512D01*
X46252Y71184D01*
X46580Y70856D01*
Y70528D01*
X46252Y70200D01*
X45596D01*
X45268Y70528D01*
Y70856D01*
X45596Y71184D01*
X45268Y71512D01*
Y71840D01*
X45596Y71184D02*
X46252D01*
X1232Y66800D02*
X3200D01*
Y67784D01*
X2872Y68112D01*
X1560D01*
X1232Y67784D01*
Y66800D01*
X3200Y68768D02*
Y69424D01*
Y69096D01*
X1232D01*
X1560Y68768D01*
X1232Y58300D02*
X3200D01*
Y59284D01*
X2872Y59612D01*
X1560D01*
X1232Y59284D01*
Y58300D01*
X3200Y61580D02*
Y60268D01*
X1888Y61580D01*
X1560D01*
X1232Y61252D01*
Y60596D01*
X1560Y60268D01*
X1232Y75100D02*
X3200D01*
Y76084D01*
X2872Y76412D01*
X1560D01*
X1232Y76084D01*
Y75100D01*
X1560Y77068D02*
X1232Y77396D01*
Y78052D01*
X1560Y78380D01*
X1888D01*
X2216Y78052D01*
Y77724D01*
Y78052D01*
X2544Y78380D01*
X2872D01*
X3200Y78052D01*
Y77396D01*
X2872Y77068D01*
X58012Y26568D02*
X57356D01*
X57684D01*
Y24928D01*
X57356Y24600D01*
X57028D01*
X56700Y24928D01*
X58668Y24600D02*
X59324D01*
X58996D01*
Y26568D01*
X58668Y26240D01*
X98812Y58228D02*
Y59540D01*
X98484Y59868D01*
X97828D01*
X97500Y59540D01*
Y58228D01*
X97828Y57900D01*
X98484D01*
X98156Y58556D02*
X98812Y57900D01*
X98484D02*
X98812Y58228D01*
X99468Y57900D02*
X100124D01*
X99796D01*
Y59868D01*
X99468Y59540D01*
X23900Y21500D02*
Y23468D01*
X24884D01*
X25212Y23140D01*
Y22484D01*
X24884Y22156D01*
X23900D01*
X24556D02*
X25212Y21500D01*
X25868D02*
X26524D01*
X26196D01*
Y23468D01*
X25868Y23140D01*
X13400Y68800D02*
X15368D01*
Y67816D01*
X15040Y67488D01*
X14384D01*
X14056Y67816D01*
Y68800D01*
Y68144D02*
X13400Y67488D01*
Y65520D02*
Y66832D01*
X14712Y65520D01*
X15040D01*
X15368Y65848D01*
Y66504D01*
X15040Y66832D01*
X51400Y102600D02*
Y104568D01*
X52384D01*
X52712Y104240D01*
Y103584D01*
X52384Y103256D01*
X51400D01*
X52056D02*
X52712Y102600D01*
X53368Y104240D02*
X53696Y104568D01*
X54352D01*
X54680Y104240D01*
Y103912D01*
X54352Y103584D01*
X54024D01*
X54352D01*
X54680Y103256D01*
Y102928D01*
X54352Y102600D01*
X53696D01*
X53368Y102928D01*
X13500Y59900D02*
X15468D01*
Y58916D01*
X15140Y58588D01*
X14484D01*
X14156Y58916D01*
Y59900D01*
Y59244D02*
X13500Y58588D01*
Y56948D02*
X15468D01*
X14484Y57932D01*
Y56620D01*
X9400Y81200D02*
Y83168D01*
X10384D01*
X10712Y82840D01*
Y82184D01*
X10384Y81856D01*
X9400D01*
X10056D02*
X10712Y81200D01*
X12680Y83168D02*
X11368D01*
Y82184D01*
X12024Y82512D01*
X12352D01*
X12680Y82184D01*
Y81528D01*
X12352Y81200D01*
X11696D01*
X11368Y81528D01*
X97300Y31300D02*
Y33268D01*
X98284D01*
X98612Y32940D01*
Y32284D01*
X98284Y31956D01*
X97300D01*
X97956D02*
X98612Y31300D01*
X100580Y33268D02*
X99924Y32940D01*
X99268Y32284D01*
Y31628D01*
X99596Y31300D01*
X100252D01*
X100580Y31628D01*
Y31956D01*
X100252Y32284D01*
X99268D01*
X93800Y41800D02*
Y43847D01*
X94823D01*
X95164Y43505D01*
Y42823D01*
X94823Y42482D01*
X93800D01*
X94482D02*
X95164Y41800D01*
X95847Y43847D02*
X97211D01*
Y43505D01*
X95847Y42141D01*
Y41800D01*
X31100Y70000D02*
Y71968D01*
X32084D01*
X32412Y71640D01*
Y70984D01*
X32084Y70656D01*
X31100D01*
X31756D02*
X32412Y70000D01*
X33068Y71640D02*
X33396Y71968D01*
X34052D01*
X34380Y71640D01*
Y71312D01*
X34052Y70984D01*
X34380Y70656D01*
Y70328D01*
X34052Y70000D01*
X33396D01*
X33068Y70328D01*
Y70656D01*
X33396Y70984D01*
X33068Y71312D01*
Y71640D01*
X33396Y70984D02*
X34052D01*
X92400Y74300D02*
Y76268D01*
X93384D01*
X93712Y75940D01*
Y75284D01*
X93384Y74956D01*
X92400D01*
X93056D02*
X93712Y74300D01*
X94368Y74628D02*
X94696Y74300D01*
X95352D01*
X95680Y74628D01*
Y75940D01*
X95352Y76268D01*
X94696D01*
X94368Y75940D01*
Y75612D01*
X94696Y75284D01*
X95680D01*
X99000Y70600D02*
Y72568D01*
X99984D01*
X100312Y72240D01*
Y71584D01*
X99984Y71256D01*
X99000D01*
X99656D02*
X100312Y70600D01*
X100968D02*
X101624D01*
X101296D01*
Y72568D01*
X100968Y72240D01*
X102608D02*
X102936Y72568D01*
X103592D01*
X103920Y72240D01*
Y70928D01*
X103592Y70600D01*
X102936D01*
X102608Y70928D01*
Y72240D01*
X108600Y43300D02*
X110568D01*
Y42316D01*
X110240Y41988D01*
X109584D01*
X109256Y42316D01*
Y43300D01*
Y42644D02*
X108600Y41988D01*
Y41332D02*
Y40676D01*
Y41004D01*
X110568D01*
X110240Y41332D01*
X108600Y39692D02*
Y39036D01*
Y39364D01*
X110568D01*
X110240Y39692D01*
X62300Y105800D02*
Y107768D01*
X63284D01*
X63612Y107440D01*
Y106784D01*
X63284Y106456D01*
X62300D01*
X62956D02*
X63612Y105800D01*
X64268D02*
X64924D01*
X64596D01*
Y107768D01*
X64268Y107440D01*
X65908D02*
X66236Y107768D01*
X66892D01*
X67220Y107440D01*
Y107112D01*
X66892Y106784D01*
X66564D01*
X66892D01*
X67220Y106456D01*
Y106128D01*
X66892Y105800D01*
X66236D01*
X65908Y106128D01*
X69000Y105800D02*
Y107768D01*
X69984D01*
X70312Y107440D01*
Y106784D01*
X69984Y106456D01*
X69000D01*
X69656D02*
X70312Y105800D01*
X70968D02*
X71624D01*
X71296D01*
Y107768D01*
X70968Y107440D01*
X73592Y105800D02*
Y107768D01*
X72608Y106784D01*
X73920D01*
X66512Y60740D02*
X66184Y61068D01*
X65528D01*
X65200Y60740D01*
Y60412D01*
X65528Y60084D01*
X66184D01*
X66512Y59756D01*
Y59428D01*
X66184Y59100D01*
X65528D01*
X65200Y59428D01*
X67168Y59100D02*
X67824D01*
X67496D01*
Y61068D01*
X67168Y60740D01*
X40100Y25868D02*
Y24228D01*
X40428Y23900D01*
X41084D01*
X41412Y24228D01*
Y25868D01*
X42068Y23900D02*
X42724D01*
X42396D01*
Y25868D01*
X42068Y25540D01*
X36600Y90568D02*
X37912Y88600D01*
Y90568D02*
X36600Y88600D01*
X38568D02*
X39224D01*
X38896D01*
Y90568D01*
X38568Y90240D01*
X60500Y98368D02*
Y96728D01*
X60828Y96400D01*
X61484D01*
X61812Y96728D01*
Y98368D01*
X63780Y96400D02*
X62468D01*
X63780Y97712D01*
Y98040D01*
X63452Y98368D01*
X62796D01*
X62468Y98040D01*
X77000Y40268D02*
Y38300D01*
X77984D01*
X78312Y38628D01*
Y39940D01*
X77984Y40268D01*
X77000D01*
X79952Y38300D02*
Y40268D01*
X78968Y39284D01*
X80280D01*
X68300Y37700D02*
Y39668D01*
X69284D01*
X69612Y39340D01*
Y38684D01*
X69284Y38356D01*
X68300D01*
X68956D02*
X69612Y37700D01*
X70268D02*
X70924D01*
X70596D01*
Y39668D01*
X70268Y39340D01*
X73220Y39668D02*
X71908D01*
Y38684D01*
X72564Y39012D01*
X72892D01*
X73220Y38684D01*
Y38028D01*
X72892Y37700D01*
X72236D01*
X71908Y38028D01*
D44*
X56400Y62700D02*
Y64668D01*
X57384D01*
X57712Y64340D01*
Y63684D01*
X57384Y63356D01*
X56400D01*
X57056D02*
X57712Y62700D01*
X58368D02*
X59024D01*
X58696D01*
Y64668D01*
X58368Y64340D01*
X61320Y62700D02*
X60008D01*
X61320Y64012D01*
Y64340D01*
X60992Y64668D01*
X60336D01*
X60008Y64340D01*
M02*
