M48
;Layer_Color=9474304
;FILE_FORMAT=2:5
INCH,LZ
;TYPE=PLATED
T1F00S00C0.01181
T2F00S00C0.05118
%
T01
X00632Y00365
X00681Y00391
X0069Y00535
X00779Y00519
X00825Y00466
X00787Y00336
X0093Y007
X00345Y01717
X00295Y01721
X00269Y01722
X00243Y01721
X00239Y01821
X00264
X0029
T02
X0006Y0007
Y0017
Y0027
Y0037
Y0047
X0016
Y0037
Y0027
Y0017
Y0007
X01454
Y0017
Y0027
Y0037
Y0047
X01554
Y0037
Y0027
Y0017
Y0007
Y0057
X01454
Y0067
Y0077
Y0087
Y0097
Y0107
Y0117
Y0127
Y0137
Y0147
Y0157
Y0167
Y0177
Y0187
Y0197
X01554
Y0187
Y0177
Y0167
Y0157
Y0147
Y0137
Y0127
Y0117
Y0107
Y0097
Y0087
Y0077
Y0067
X0016
X0006
Y0077
Y0087
Y0097
Y0107
Y0117
Y0127
Y0137
Y0147
Y0157
Y0167
Y0177
Y0187
Y0197
X0016
Y0187
Y0177
Y0167
Y0157
Y0147
Y0137
Y0127
Y0117
Y0107
Y0097
Y0087
Y0077
Y0057
X0006
M30
