G04 Layer_Color=65535*
%FSLAX25Y25*%
%MOIN*%
G70*
G01*
G75*
%ADD12C,0.00709*%
%ADD14C,0.00100*%
%ADD15C,0.01500*%
%ADD16C,0.00394*%
%ADD17C,0.01000*%
%ADD18C,0.00276*%
G36*
X95418Y44822D02*
X93654D01*
Y46125D01*
X95418D01*
Y44822D01*
D02*
G37*
G36*
X100110Y44211D02*
X100180D01*
X100260Y44200D01*
X100433Y44154D01*
X100641Y44096D01*
X100848Y44004D01*
X101044Y43865D01*
X101148Y43785D01*
X101229Y43692D01*
X101252Y43669D01*
X101275Y43635D01*
X101298Y43600D01*
X101333Y43543D01*
X101367Y43473D01*
X101402Y43404D01*
X101448Y43312D01*
X101529Y43104D01*
X101598Y42839D01*
X101644Y42540D01*
X101667Y42194D01*
Y38700D01*
X99995D01*
Y41363D01*
Y41375D01*
Y41421D01*
Y41479D01*
Y41571D01*
X99984Y41663D01*
Y41767D01*
X99961Y42009D01*
Y42021D01*
Y42067D01*
X99949Y42124D01*
X99937Y42194D01*
X99914Y42344D01*
X99891Y42424D01*
X99868Y42482D01*
Y42493D01*
X99857Y42516D01*
X99799Y42586D01*
X99718Y42666D01*
X99615Y42747D01*
X99603D01*
X99580Y42759D01*
X99546Y42770D01*
X99499Y42793D01*
X99442Y42805D01*
X99361Y42816D01*
X99280Y42828D01*
X99096D01*
X99050Y42816D01*
X98911Y42793D01*
X98750Y42747D01*
X98738D01*
X98715Y42735D01*
X98669Y42712D01*
X98623Y42689D01*
X98473Y42609D01*
X98312Y42505D01*
Y38700D01*
X96640D01*
Y44061D01*
X98312D01*
Y43473D01*
X98335Y43485D01*
X98381Y43531D01*
X98462Y43589D01*
X98566Y43669D01*
X98681Y43762D01*
X98819Y43854D01*
X98958Y43935D01*
X99107Y44015D01*
X99130Y44027D01*
X99177Y44050D01*
X99257Y44085D01*
X99361Y44119D01*
X99488Y44154D01*
X99638Y44188D01*
X99799Y44211D01*
X99972Y44223D01*
X100053D01*
X100110Y44211D01*
D02*
G37*
G36*
X144316Y44073D02*
X144443D01*
X144512Y44061D01*
Y42482D01*
X144363D01*
X144351Y42493D01*
X144293Y42505D01*
X144213Y42516D01*
X144086Y42528D01*
X144051D01*
X144017Y42540D01*
X143971D01*
X143844Y42551D01*
X143590D01*
X143521Y42540D01*
X143440Y42528D01*
X143348Y42516D01*
X143129Y42470D01*
X143117D01*
X143083Y42459D01*
X143025Y42436D01*
X142956Y42413D01*
X142864Y42390D01*
X142771Y42355D01*
X142576Y42286D01*
Y38700D01*
X140904D01*
Y44061D01*
X142576D01*
Y43289D01*
X142598Y43312D01*
X142656Y43358D01*
X142748Y43450D01*
X142887Y43554D01*
X142898Y43566D01*
X142921Y43577D01*
X142956Y43612D01*
X143014Y43646D01*
X143129Y43727D01*
X143256Y43808D01*
X143267D01*
X143290Y43831D01*
X143325Y43854D01*
X143383Y43877D01*
X143509Y43935D01*
X143682Y44004D01*
X143694D01*
X143728Y44015D01*
X143775Y44027D01*
X143832Y44050D01*
X143982Y44073D01*
X144144Y44085D01*
X144247D01*
X144316Y44073D01*
D02*
G37*
G36*
X112482Y41421D02*
X114465Y38700D01*
X112505D01*
X111479Y40233D01*
X110418Y38700D01*
X108504D01*
X110487Y41375D01*
X108539Y44061D01*
X110487D01*
X111502Y42551D01*
X112517Y44061D01*
X114442D01*
X112482Y41421D01*
D02*
G37*
G36*
X107893Y38700D02*
X106221D01*
Y39288D01*
X106198Y39276D01*
X106152Y39230D01*
X106060Y39161D01*
X105956Y39081D01*
X105829Y38988D01*
X105691Y38896D01*
X105553Y38815D01*
X105414Y38735D01*
X105403Y38723D01*
X105357Y38712D01*
X105276Y38677D01*
X105172Y38642D01*
X105045Y38608D01*
X104895Y38585D01*
X104734Y38562D01*
X104550Y38550D01*
X104469D01*
X104423Y38562D01*
X104353D01*
X104273Y38573D01*
X104100Y38608D01*
X103892Y38677D01*
X103685Y38758D01*
X103489Y38884D01*
X103396Y38954D01*
X103304Y39046D01*
Y39057D01*
X103281Y39069D01*
X103270Y39104D01*
X103235Y39138D01*
X103200Y39196D01*
X103166Y39265D01*
X103131Y39334D01*
X103085Y39426D01*
X103039Y39530D01*
X103005Y39645D01*
X102970Y39761D01*
X102935Y39899D01*
X102912Y40049D01*
X102889Y40210D01*
X102866Y40383D01*
Y40568D01*
Y44061D01*
X104538D01*
Y41398D01*
Y41375D01*
Y41329D01*
Y41248D01*
Y41156D01*
Y41052D01*
Y40937D01*
X104550Y40821D01*
Y40718D01*
Y40706D01*
Y40672D01*
X104561Y40626D01*
X104573Y40568D01*
X104607Y40429D01*
X104653Y40280D01*
Y40268D01*
X104665Y40257D01*
X104711Y40187D01*
X104792Y40095D01*
X104895Y40026D01*
X104907D01*
X104930Y40014D01*
X104965Y40003D01*
X105011Y39991D01*
X105080Y39968D01*
X105149Y39957D01*
X105241Y39945D01*
X105414D01*
X105460Y39957D01*
X105599Y39980D01*
X105760Y40026D01*
X105772D01*
X105806Y40038D01*
X105852Y40060D01*
X105910Y40084D01*
X106060Y40153D01*
X106221Y40257D01*
Y44061D01*
X107893D01*
Y38700D01*
D02*
G37*
G36*
X133559D02*
X131864D01*
Y40579D01*
X133559D01*
Y38700D01*
D02*
G37*
G36*
X131184Y44477D02*
X129085D01*
Y38700D01*
X127298D01*
Y44477D01*
X125200D01*
Y45814D01*
X131184D01*
Y44477D01*
D02*
G37*
G36*
X118731Y44569D02*
X117705D01*
Y39945D01*
X118731D01*
Y38700D01*
X114892D01*
Y39945D01*
X115918D01*
Y44569D01*
X114892D01*
Y45814D01*
X118731D01*
Y44569D01*
D02*
G37*
G36*
X95372Y38700D02*
X93700D01*
Y44061D01*
X95372D01*
Y38700D01*
D02*
G37*
G36*
X89987Y40038D02*
X92939D01*
Y38700D01*
X88200D01*
Y45814D01*
X89987D01*
Y40038D01*
D02*
G37*
G36*
X137468Y44211D02*
X137572Y44200D01*
X137698Y44188D01*
X137848Y44165D01*
X137998Y44131D01*
X138321Y44038D01*
X138494Y43981D01*
X138667Y43900D01*
X138828Y43819D01*
X138990Y43716D01*
X139151Y43600D01*
X139289Y43462D01*
X139301Y43450D01*
X139324Y43427D01*
X139359Y43381D01*
X139405Y43323D01*
X139462Y43243D01*
X139520Y43151D01*
X139589Y43047D01*
X139658Y42920D01*
X139716Y42770D01*
X139785Y42620D01*
X139843Y42447D01*
X139901Y42263D01*
X139947Y42055D01*
X139981Y41848D01*
X140004Y41617D01*
X140016Y41375D01*
Y41363D01*
Y41317D01*
Y41248D01*
X140004Y41156D01*
X139993Y41041D01*
X139981Y40914D01*
X139958Y40775D01*
X139924Y40614D01*
X139843Y40280D01*
X139785Y40107D01*
X139705Y39934D01*
X139624Y39761D01*
X139532Y39599D01*
X139416Y39438D01*
X139289Y39288D01*
X139278Y39276D01*
X139255Y39253D01*
X139209Y39219D01*
X139151Y39173D01*
X139082Y39115D01*
X138990Y39046D01*
X138886Y38988D01*
X138759Y38919D01*
X138621Y38838D01*
X138471Y38781D01*
X138309Y38712D01*
X138125Y38654D01*
X137929Y38608D01*
X137710Y38573D01*
X137491Y38550D01*
X137249Y38539D01*
X137122D01*
X137030Y38550D01*
X136926Y38562D01*
X136799Y38573D01*
X136649Y38596D01*
X136499Y38631D01*
X136176Y38723D01*
X136003Y38781D01*
X135830Y38850D01*
X135669Y38942D01*
X135508Y39046D01*
X135346Y39161D01*
X135208Y39288D01*
X135196Y39300D01*
X135173Y39323D01*
X135139Y39369D01*
X135092Y39426D01*
X135046Y39507D01*
X134977Y39599D01*
X134920Y39715D01*
X134850Y39830D01*
X134781Y39980D01*
X134724Y40130D01*
X134654Y40303D01*
X134608Y40487D01*
X134562Y40695D01*
X134528Y40902D01*
X134504Y41133D01*
X134493Y41375D01*
Y41387D01*
Y41433D01*
Y41502D01*
X134504Y41594D01*
X134516Y41709D01*
X134528Y41836D01*
X134551Y41986D01*
X134585Y42136D01*
X134666Y42470D01*
X134724Y42643D01*
X134793Y42816D01*
X134873Y42989D01*
X134977Y43162D01*
X135081Y43312D01*
X135208Y43462D01*
X135219Y43473D01*
X135242Y43497D01*
X135289Y43531D01*
X135346Y43577D01*
X135415Y43635D01*
X135508Y43704D01*
X135611Y43773D01*
X135738Y43842D01*
X135877Y43912D01*
X136026Y43981D01*
X136188Y44050D01*
X136372Y44108D01*
X136568Y44154D01*
X136787Y44188D01*
X137006Y44211D01*
X137249Y44223D01*
X137375D01*
X137468Y44211D01*
D02*
G37*
G36*
X122398D02*
X122502Y44200D01*
X122629Y44188D01*
X122778Y44165D01*
X122928Y44131D01*
X123251Y44038D01*
X123424Y43981D01*
X123597Y43900D01*
X123758Y43819D01*
X123920Y43716D01*
X124081Y43600D01*
X124220Y43462D01*
X124231Y43450D01*
X124254Y43427D01*
X124289Y43381D01*
X124335Y43323D01*
X124393Y43243D01*
X124450Y43151D01*
X124520Y43047D01*
X124589Y42920D01*
X124646Y42770D01*
X124715Y42620D01*
X124773Y42447D01*
X124831Y42263D01*
X124877Y42055D01*
X124911Y41848D01*
X124935Y41617D01*
X124946Y41375D01*
Y41363D01*
Y41317D01*
Y41248D01*
X124935Y41156D01*
X124923Y41041D01*
X124911Y40914D01*
X124889Y40775D01*
X124854Y40614D01*
X124773Y40280D01*
X124715Y40107D01*
X124635Y39934D01*
X124554Y39761D01*
X124462Y39599D01*
X124347Y39438D01*
X124220Y39288D01*
X124208Y39276D01*
X124185Y39253D01*
X124139Y39219D01*
X124081Y39173D01*
X124012Y39115D01*
X123920Y39046D01*
X123816Y38988D01*
X123689Y38919D01*
X123551Y38838D01*
X123401Y38781D01*
X123240Y38712D01*
X123055Y38654D01*
X122859Y38608D01*
X122640Y38573D01*
X122421Y38550D01*
X122179Y38539D01*
X122052D01*
X121960Y38550D01*
X121856Y38562D01*
X121729Y38573D01*
X121579Y38596D01*
X121430Y38631D01*
X121107Y38723D01*
X120934Y38781D01*
X120761Y38850D01*
X120599Y38942D01*
X120438Y39046D01*
X120276Y39161D01*
X120138Y39288D01*
X120127Y39300D01*
X120104Y39323D01*
X120069Y39369D01*
X120023Y39426D01*
X119977Y39507D01*
X119907Y39599D01*
X119850Y39715D01*
X119781Y39830D01*
X119711Y39980D01*
X119654Y40130D01*
X119585Y40303D01*
X119538Y40487D01*
X119492Y40695D01*
X119458Y40902D01*
X119435Y41133D01*
X119423Y41375D01*
Y41387D01*
Y41433D01*
Y41502D01*
X119435Y41594D01*
X119446Y41709D01*
X119458Y41836D01*
X119481Y41986D01*
X119516Y42136D01*
X119596Y42470D01*
X119654Y42643D01*
X119723Y42816D01*
X119804Y42989D01*
X119907Y43162D01*
X120011Y43312D01*
X120138Y43462D01*
X120150Y43473D01*
X120173Y43497D01*
X120219Y43531D01*
X120276Y43577D01*
X120346Y43635D01*
X120438Y43704D01*
X120542Y43773D01*
X120668Y43842D01*
X120807Y43912D01*
X120957Y43981D01*
X121118Y44050D01*
X121303Y44108D01*
X121499Y44154D01*
X121718Y44188D01*
X121937Y44211D01*
X122179Y44223D01*
X122306D01*
X122398Y44211D01*
D02*
G37*
G36*
X147268D02*
X147372Y44200D01*
X147499Y44177D01*
X147752Y44108D01*
X147764D01*
X147810Y44085D01*
X147868Y44061D01*
X147949Y44027D01*
X148041Y43992D01*
X148144Y43935D01*
X148352Y43819D01*
X148410Y44061D01*
X150035D01*
Y39300D01*
Y39288D01*
Y39265D01*
Y39230D01*
Y39173D01*
X150024Y39115D01*
Y39046D01*
X150012Y38873D01*
X149978Y38677D01*
X149943Y38469D01*
X149885Y38262D01*
X149816Y38054D01*
X149805Y38031D01*
X149782Y37962D01*
X149724Y37870D01*
X149666Y37754D01*
X149574Y37616D01*
X149482Y37489D01*
X149355Y37351D01*
X149228Y37236D01*
X149217Y37224D01*
X149159Y37190D01*
X149078Y37132D01*
X148975Y37074D01*
X148836Y37005D01*
X148686Y36924D01*
X148513Y36867D01*
X148329Y36809D01*
X148306D01*
X148237Y36786D01*
X148133Y36763D01*
X147995Y36740D01*
X147822Y36717D01*
X147614Y36694D01*
X147395Y36682D01*
X147164Y36671D01*
X146968D01*
X146842Y36682D01*
X146680D01*
X146519Y36705D01*
X146150Y36740D01*
X146127D01*
X146069Y36751D01*
X145977Y36763D01*
X145861Y36786D01*
X145735Y36809D01*
X145596Y36832D01*
X145458Y36867D01*
X145320Y36901D01*
Y38239D01*
X145516D01*
X145539Y38227D01*
X145596Y38216D01*
X145689Y38181D01*
X145804Y38147D01*
X145815D01*
X145838Y38135D01*
X145873Y38124D01*
X145908Y38112D01*
X146023Y38077D01*
X146150Y38043D01*
X146161D01*
X146184Y38031D01*
X146230Y38020D01*
X146277Y38008D01*
X146403Y37985D01*
X146553Y37951D01*
X146588D01*
X146623Y37939D01*
X146680D01*
X146807Y37927D01*
X146957Y37916D01*
X147107D01*
X147211Y37927D01*
X147314Y37939D01*
X147441Y37951D01*
X147556Y37974D01*
X147672Y38008D01*
X147683D01*
X147718Y38031D01*
X147775Y38043D01*
X147833Y38077D01*
X147971Y38158D01*
X148041Y38204D01*
X148098Y38262D01*
X148110Y38273D01*
X148121Y38296D01*
X148144Y38331D01*
X148179Y38377D01*
X148248Y38504D01*
X148306Y38665D01*
Y38677D01*
X148317Y38700D01*
X148329Y38758D01*
X148340Y38815D01*
Y38896D01*
X148352Y38988D01*
X148363Y39104D01*
Y39219D01*
Y39323D01*
X148352Y39311D01*
X148317Y39288D01*
X148248Y39242D01*
X148179Y39184D01*
X148075Y39127D01*
X147960Y39057D01*
X147845Y38988D01*
X147706Y38931D01*
X147695Y38919D01*
X147649Y38908D01*
X147568Y38884D01*
X147476Y38861D01*
X147360Y38827D01*
X147234Y38804D01*
X147095Y38792D01*
X146945Y38781D01*
X146842D01*
X146772Y38792D01*
X146680Y38804D01*
X146588Y38815D01*
X146346Y38861D01*
X146092Y38942D01*
X145954Y39000D01*
X145827Y39069D01*
X145689Y39138D01*
X145562Y39230D01*
X145447Y39334D01*
X145331Y39450D01*
X145320Y39461D01*
X145308Y39484D01*
X145285Y39519D01*
X145239Y39576D01*
X145204Y39645D01*
X145158Y39738D01*
X145100Y39841D01*
X145054Y39968D01*
X144997Y40107D01*
X144951Y40257D01*
X144893Y40429D01*
X144858Y40614D01*
X144824Y40810D01*
X144789Y41041D01*
X144778Y41271D01*
X144766Y41525D01*
Y41536D01*
Y41548D01*
Y41583D01*
Y41629D01*
X144778Y41744D01*
X144789Y41894D01*
X144812Y42067D01*
X144835Y42263D01*
X144881Y42459D01*
X144939Y42643D01*
Y42655D01*
X144951Y42666D01*
X144974Y42724D01*
X145008Y42828D01*
X145066Y42943D01*
X145135Y43081D01*
X145216Y43220D01*
X145308Y43370D01*
X145423Y43508D01*
X145435Y43519D01*
X145481Y43566D01*
X145539Y43623D01*
X145631Y43704D01*
X145735Y43785D01*
X145850Y43877D01*
X145988Y43958D01*
X146138Y44038D01*
X146161Y44050D01*
X146207Y44073D01*
X146300Y44096D01*
X146403Y44131D01*
X146542Y44165D01*
X146692Y44200D01*
X146853Y44211D01*
X147014Y44223D01*
X147164D01*
X147268Y44211D01*
D02*
G37*
G36*
X144738Y35902D02*
X144853D01*
X144980Y35891D01*
X145245Y35856D01*
X145257D01*
X145303Y35845D01*
X145372Y35833D01*
X145453Y35822D01*
X145545Y35810D01*
X145660Y35787D01*
X145891Y35729D01*
X145902D01*
X145937Y35718D01*
X145983Y35706D01*
X146052Y35683D01*
X146122Y35649D01*
X146214Y35614D01*
X146421Y35533D01*
X146433D01*
X146467Y35510D01*
X146525Y35487D01*
X146594Y35464D01*
X146744Y35383D01*
X146894Y35314D01*
Y33631D01*
X146710D01*
X146686Y33654D01*
X146617Y33700D01*
X146525Y33792D01*
X146387Y33896D01*
X146375Y33908D01*
X146352Y33919D01*
X146306Y33954D01*
X146260Y34000D01*
X146191Y34046D01*
X146110Y34092D01*
X145937Y34207D01*
X145925Y34219D01*
X145891Y34230D01*
X145845Y34265D01*
X145776Y34300D01*
X145695Y34334D01*
X145603Y34380D01*
X145395Y34461D01*
X145384D01*
X145349Y34484D01*
X145280Y34496D01*
X145211Y34519D01*
X145107Y34542D01*
X145003Y34553D01*
X144773Y34576D01*
X144703D01*
X144634Y34565D01*
X144542D01*
X144427Y34542D01*
X144311Y34519D01*
X144184Y34496D01*
X144058Y34449D01*
X144046D01*
X144000Y34426D01*
X143942Y34392D01*
X143862Y34346D01*
X143769Y34288D01*
X143666Y34219D01*
X143550Y34127D01*
X143447Y34023D01*
X143435Y34011D01*
X143400Y33977D01*
X143354Y33919D01*
X143297Y33838D01*
X143227Y33735D01*
X143147Y33608D01*
X143078Y33458D01*
X143008Y33296D01*
X142997Y33273D01*
X142985Y33216D01*
X142962Y33112D01*
X142928Y32985D01*
X142893Y32824D01*
X142870Y32639D01*
X142859Y32432D01*
X142847Y32201D01*
Y32190D01*
Y32166D01*
Y32132D01*
Y32086D01*
X142859Y31971D01*
X142870Y31809D01*
X142893Y31636D01*
X142916Y31452D01*
X142962Y31256D01*
X143020Y31083D01*
X143031Y31060D01*
X143054Y31014D01*
X143089Y30921D01*
X143147Y30829D01*
X143204Y30714D01*
X143285Y30587D01*
X143377Y30472D01*
X143481Y30356D01*
X143493Y30345D01*
X143527Y30310D01*
X143585Y30264D01*
X143666Y30206D01*
X143758Y30149D01*
X143862Y30080D01*
X143965Y30022D01*
X144092Y29976D01*
X144104D01*
X144150Y29953D01*
X144219Y29941D01*
X144311Y29918D01*
X144415Y29895D01*
X144530Y29884D01*
X144784Y29860D01*
X144842D01*
X144911Y29872D01*
X145003D01*
X145095Y29884D01*
X145211Y29907D01*
X145453Y29976D01*
X145464D01*
X145510Y29999D01*
X145568Y30022D01*
X145637Y30057D01*
X145822Y30137D01*
X145995Y30229D01*
X146006Y30241D01*
X146029Y30253D01*
X146075Y30287D01*
X146133Y30322D01*
X146271Y30414D01*
X146410Y30529D01*
X146421Y30541D01*
X146444Y30552D01*
X146479Y30587D01*
X146513Y30621D01*
X146617Y30714D01*
X146721Y30806D01*
X146894D01*
Y29134D01*
X146882D01*
X146859Y29123D01*
X146813Y29100D01*
X146767Y29076D01*
X146698Y29042D01*
X146617Y29007D01*
X146433Y28915D01*
X146421D01*
X146387Y28892D01*
X146341Y28869D01*
X146271Y28846D01*
X146191Y28811D01*
X146098Y28788D01*
X145902Y28719D01*
X145891D01*
X145845Y28708D01*
X145787Y28696D01*
X145695Y28673D01*
X145603Y28650D01*
X145499Y28627D01*
X145280Y28581D01*
X145268D01*
X145222Y28569D01*
X145165Y28558D01*
X145072D01*
X144957Y28546D01*
X144819Y28535D01*
X144657Y28523D01*
X144404D01*
X144323Y28535D01*
X144208D01*
X144081Y28558D01*
X143919Y28569D01*
X143746Y28604D01*
X143562Y28638D01*
X143366Y28696D01*
X143158Y28754D01*
X142939Y28834D01*
X142732Y28927D01*
X142524Y29042D01*
X142317Y29169D01*
X142121Y29307D01*
X141936Y29480D01*
X141925Y29492D01*
X141902Y29526D01*
X141855Y29584D01*
X141786Y29664D01*
X141717Y29757D01*
X141636Y29884D01*
X141556Y30022D01*
X141475Y30183D01*
X141383Y30368D01*
X141302Y30575D01*
X141221Y30795D01*
X141152Y31037D01*
X141094Y31302D01*
X141048Y31578D01*
X141014Y31878D01*
X141002Y32201D01*
Y32224D01*
Y32282D01*
X141014Y32362D01*
Y32478D01*
X141037Y32628D01*
X141048Y32789D01*
X141083Y32974D01*
X141118Y33170D01*
X141164Y33389D01*
X141233Y33608D01*
X141302Y33827D01*
X141394Y34058D01*
X141498Y34277D01*
X141625Y34496D01*
X141775Y34703D01*
X141936Y34899D01*
X141948Y34911D01*
X141982Y34945D01*
X142040Y34991D01*
X142109Y35061D01*
X142201Y35130D01*
X142317Y35222D01*
X142455Y35314D01*
X142605Y35407D01*
X142778Y35499D01*
X142974Y35591D01*
X143181Y35683D01*
X143412Y35752D01*
X143654Y35822D01*
X143919Y35868D01*
X144196Y35902D01*
X144484Y35914D01*
X144634D01*
X144738Y35902D01*
D02*
G37*
G36*
X113353Y31383D02*
X115336Y28661D01*
X113376D01*
X112350Y30195D01*
X111289Y28661D01*
X109375D01*
X111358Y31336D01*
X109410Y34023D01*
X111358D01*
X112373Y32512D01*
X113388Y34023D01*
X115313D01*
X113353Y31383D01*
D02*
G37*
G36*
X161560Y28661D02*
X159888D01*
Y36087D01*
X161560D01*
Y28661D01*
D02*
G37*
G36*
X150042Y34173D02*
X150157D01*
X150284Y34161D01*
X150422Y34150D01*
X150584Y34127D01*
X150906Y34069D01*
X151241Y33988D01*
X151564Y33873D01*
X151702Y33792D01*
X151829Y33712D01*
X151840D01*
X151852Y33689D01*
X151933Y33631D01*
X152025Y33516D01*
X152152Y33366D01*
X152267Y33170D01*
X152359Y32928D01*
X152440Y32639D01*
X152451Y32478D01*
X152463Y32305D01*
Y28661D01*
X150791D01*
Y29226D01*
X150780Y29215D01*
X150768Y29203D01*
X150687Y29134D01*
X150584Y29053D01*
X150480Y28961D01*
X150468D01*
X150457Y28938D01*
X150422Y28915D01*
X150388Y28892D01*
X150272Y28823D01*
X150122Y28742D01*
X150111D01*
X150088Y28731D01*
X150042Y28708D01*
X149984Y28684D01*
X149846Y28627D01*
X149684Y28581D01*
X149673D01*
X149650Y28569D01*
X149603Y28558D01*
X149534D01*
X149454Y28546D01*
X149350Y28535D01*
X149235Y28523D01*
X149027D01*
X148981Y28535D01*
X148843Y28546D01*
X148681Y28581D01*
X148497Y28638D01*
X148301Y28719D01*
X148105Y28834D01*
X147920Y28996D01*
X147897Y29019D01*
X147851Y29076D01*
X147770Y29180D01*
X147690Y29319D01*
X147609Y29492D01*
X147528Y29699D01*
X147482Y29930D01*
X147459Y30195D01*
Y30206D01*
Y30218D01*
Y30253D01*
Y30299D01*
X147470Y30402D01*
X147494Y30541D01*
X147517Y30691D01*
X147551Y30852D01*
X147609Y31014D01*
X147690Y31163D01*
X147701Y31175D01*
X147736Y31221D01*
X147793Y31290D01*
X147863Y31371D01*
X147966Y31463D01*
X148082Y31567D01*
X148220Y31659D01*
X148370Y31740D01*
X148393Y31751D01*
X148451Y31775D01*
X148543Y31809D01*
X148670Y31855D01*
X148831Y31913D01*
X149015Y31959D01*
X149223Y32005D01*
X149442Y32040D01*
X149477D01*
X149511Y32051D01*
X149557D01*
X149615Y32063D01*
X149684Y32074D01*
X149846Y32097D01*
X150053Y32120D01*
X150284Y32144D01*
X150526Y32166D01*
X150791Y32190D01*
Y32213D01*
Y32236D01*
Y32282D01*
X150780Y32362D01*
X150757Y32455D01*
X150710Y32559D01*
X150653Y32662D01*
X150572Y32755D01*
X150468Y32835D01*
X150457Y32847D01*
X150411Y32870D01*
X150330Y32893D01*
X150226Y32928D01*
X150088Y32962D01*
X149926Y32997D01*
X149730Y33008D01*
X149500Y33020D01*
X149384D01*
X149304Y33008D01*
X149200Y32997D01*
X149085Y32974D01*
X148946Y32939D01*
X148808Y32904D01*
X148796D01*
X148739Y32881D01*
X148670Y32858D01*
X148566Y32824D01*
X148451Y32789D01*
X148324Y32743D01*
X148047Y32628D01*
X147909D01*
Y33908D01*
X147920D01*
X147955Y33919D01*
X148012Y33942D01*
X148105Y33965D01*
X148208Y33988D01*
X148347Y34011D01*
X148508Y34046D01*
X148704Y34080D01*
X148727D01*
X148796Y34092D01*
X148912Y34115D01*
X149050Y34138D01*
X149223Y34150D01*
X149407Y34173D01*
X149603Y34184D01*
X149938D01*
X150042Y34173D01*
D02*
G37*
G36*
X134787Y35764D02*
X134984D01*
X135179Y35752D01*
X135375Y35729D01*
X135537Y35706D01*
X135560D01*
X135606Y35695D01*
X135687Y35683D01*
X135779Y35660D01*
X135906Y35625D01*
X136033Y35579D01*
X136160Y35533D01*
X136298Y35464D01*
X136309Y35453D01*
X136356Y35429D01*
X136425Y35383D01*
X136517Y35314D01*
X136598Y35234D01*
X136702Y35141D01*
X136782Y35037D01*
X136863Y34911D01*
X136874Y34899D01*
X136898Y34853D01*
X136920Y34772D01*
X136967Y34680D01*
X137001Y34565D01*
X137024Y34426D01*
X137047Y34277D01*
X137059Y34115D01*
Y34092D01*
Y34023D01*
X137047Y33931D01*
X137024Y33804D01*
X136990Y33654D01*
X136944Y33504D01*
X136886Y33343D01*
X136794Y33181D01*
X136782Y33158D01*
X136748Y33112D01*
X136690Y33043D01*
X136609Y32951D01*
X136505Y32858D01*
X136390Y32755D01*
X136240Y32662D01*
X136079Y32582D01*
Y32547D01*
X136090D01*
X136113Y32535D01*
X136148D01*
X136183Y32524D01*
X136309Y32478D01*
X136459Y32420D01*
X136621Y32351D01*
X136794Y32247D01*
X136967Y32132D01*
X137128Y31982D01*
X137151Y31959D01*
X137197Y31901D01*
X137255Y31809D01*
X137336Y31682D01*
X137405Y31509D01*
X137474Y31313D01*
X137520Y31083D01*
X137532Y30829D01*
Y30806D01*
Y30737D01*
X137520Y30645D01*
X137509Y30518D01*
X137486Y30368D01*
X137439Y30206D01*
X137393Y30057D01*
X137324Y29895D01*
X137313Y29884D01*
X137290Y29826D01*
X137243Y29757D01*
X137186Y29664D01*
X137105Y29561D01*
X137013Y29457D01*
X136909Y29342D01*
X136782Y29238D01*
X136759Y29226D01*
X136713Y29192D01*
X136632Y29134D01*
X136529Y29065D01*
X136402Y28996D01*
X136252Y28915D01*
X136079Y28846D01*
X135906Y28788D01*
X135883D01*
X135814Y28765D01*
X135710Y28754D01*
X135572Y28731D01*
X135399Y28708D01*
X135191Y28684D01*
X134949Y28673D01*
X134684Y28661D01*
X131847D01*
Y35775D01*
X134615D01*
X134787Y35764D01*
D02*
G37*
G36*
X128158Y35902D02*
X128261D01*
X128388Y35879D01*
X128515Y35868D01*
X128665Y35845D01*
X128976Y35775D01*
X129288Y35672D01*
X129449Y35614D01*
X129599Y35533D01*
X129737Y35453D01*
X129864Y35349D01*
X129876Y35337D01*
X129887Y35326D01*
X129922Y35291D01*
X129968Y35245D01*
X130014Y35187D01*
X130072Y35118D01*
X130129Y35037D01*
X130199Y34934D01*
X130256Y34830D01*
X130314Y34715D01*
X130371Y34576D01*
X130418Y34438D01*
X130464Y34288D01*
X130498Y34127D01*
X130510Y33942D01*
X130521Y33758D01*
Y33746D01*
Y33735D01*
Y33700D01*
Y33654D01*
X130510Y33527D01*
X130487Y33366D01*
X130452Y33170D01*
X130395Y32962D01*
X130325Y32743D01*
X130222Y32512D01*
Y32501D01*
X130210Y32489D01*
X130187Y32455D01*
X130164Y32409D01*
X130095Y32282D01*
X129991Y32132D01*
X129853Y31936D01*
X129680Y31717D01*
X129484Y31475D01*
X129242Y31221D01*
X129218Y31198D01*
X129172Y31152D01*
X129080Y31071D01*
X128976Y30967D01*
X128849Y30852D01*
X128700Y30725D01*
X128400Y30460D01*
X128377Y30449D01*
X128331Y30402D01*
X128261Y30356D01*
X128181Y30287D01*
X127985Y30126D01*
X127892Y30057D01*
X127812Y29999D01*
X130833D01*
Y28661D01*
X125610D01*
Y29814D01*
X125621Y29826D01*
X125644Y29838D01*
X125679Y29860D01*
X125725Y29907D01*
X125840Y29999D01*
X126002Y30137D01*
X126186Y30287D01*
X126394Y30449D01*
X126590Y30621D01*
X126797Y30795D01*
X126809Y30806D01*
X126820Y30817D01*
X126889Y30875D01*
X126982Y30967D01*
X127109Y31083D01*
X127258Y31221D01*
X127420Y31371D01*
X127581Y31532D01*
X127731Y31694D01*
X127743Y31705D01*
X127754Y31717D01*
X127823Y31786D01*
X127916Y31890D01*
X128031Y32017D01*
X128146Y32166D01*
X128273Y32328D01*
X128388Y32489D01*
X128492Y32651D01*
X128504Y32674D01*
X128527Y32720D01*
X128573Y32801D01*
X128619Y32916D01*
X128654Y33043D01*
X128700Y33193D01*
X128723Y33354D01*
X128734Y33516D01*
Y33527D01*
Y33539D01*
Y33596D01*
X128723Y33689D01*
X128700Y33792D01*
X128665Y33919D01*
X128607Y34046D01*
X128538Y34173D01*
X128434Y34277D01*
X128423Y34288D01*
X128377Y34323D01*
X128308Y34357D01*
X128215Y34415D01*
X128100Y34461D01*
X127962Y34496D01*
X127789Y34530D01*
X127604Y34542D01*
X127500D01*
X127431Y34530D01*
X127270Y34519D01*
X127085Y34473D01*
X127074D01*
X127039Y34461D01*
X126993Y34449D01*
X126936Y34426D01*
X126855Y34403D01*
X126774Y34369D01*
X126590Y34300D01*
X126578D01*
X126555Y34277D01*
X126509Y34265D01*
X126451Y34230D01*
X126313Y34161D01*
X126175Y34080D01*
X126163D01*
X126152Y34058D01*
X126082Y34023D01*
X125990Y33965D01*
X125921Y33919D01*
X125783D01*
Y35464D01*
X125794Y35476D01*
X125840Y35487D01*
X125909Y35522D01*
X126013Y35556D01*
X126140Y35591D01*
X126301Y35649D01*
X126497Y35695D01*
X126716Y35752D01*
X126728D01*
X126751Y35764D01*
X126786D01*
X126832Y35775D01*
X126947Y35798D01*
X127109Y35833D01*
X127304Y35868D01*
X127512Y35891D01*
X127731Y35902D01*
X127950Y35914D01*
X128077D01*
X128158Y35902D01*
D02*
G37*
G36*
X121851Y35764D02*
X122047D01*
X122243Y35752D01*
X122439Y35729D01*
X122600Y35706D01*
X122623D01*
X122669Y35695D01*
X122750Y35683D01*
X122842Y35660D01*
X122969Y35625D01*
X123096Y35579D01*
X123223Y35533D01*
X123361Y35464D01*
X123373Y35453D01*
X123419Y35429D01*
X123488Y35383D01*
X123580Y35314D01*
X123661Y35234D01*
X123765Y35141D01*
X123846Y35037D01*
X123926Y34911D01*
X123938Y34899D01*
X123961Y34853D01*
X123984Y34772D01*
X124030Y34680D01*
X124065Y34565D01*
X124088Y34426D01*
X124111Y34277D01*
X124122Y34115D01*
Y34092D01*
Y34023D01*
X124111Y33931D01*
X124088Y33804D01*
X124053Y33654D01*
X124007Y33504D01*
X123949Y33343D01*
X123857Y33181D01*
X123846Y33158D01*
X123811Y33112D01*
X123753Y33043D01*
X123673Y32951D01*
X123569Y32858D01*
X123453Y32755D01*
X123304Y32662D01*
X123142Y32582D01*
Y32547D01*
X123154D01*
X123177Y32535D01*
X123211D01*
X123246Y32524D01*
X123373Y32478D01*
X123523Y32420D01*
X123684Y32351D01*
X123857Y32247D01*
X124030Y32132D01*
X124191Y31982D01*
X124214Y31959D01*
X124261Y31901D01*
X124318Y31809D01*
X124399Y31682D01*
X124468Y31509D01*
X124537Y31313D01*
X124583Y31083D01*
X124595Y30829D01*
Y30806D01*
Y30737D01*
X124583Y30645D01*
X124572Y30518D01*
X124549Y30368D01*
X124503Y30206D01*
X124457Y30057D01*
X124387Y29895D01*
X124376Y29884D01*
X124353Y29826D01*
X124307Y29757D01*
X124249Y29664D01*
X124168Y29561D01*
X124076Y29457D01*
X123972Y29342D01*
X123846Y29238D01*
X123822Y29226D01*
X123776Y29192D01*
X123696Y29134D01*
X123592Y29065D01*
X123465Y28996D01*
X123315Y28915D01*
X123142Y28846D01*
X122969Y28788D01*
X122946D01*
X122877Y28765D01*
X122773Y28754D01*
X122635Y28731D01*
X122462Y28708D01*
X122254Y28684D01*
X122012Y28673D01*
X121747Y28661D01*
X118911D01*
Y35775D01*
X121678D01*
X121851Y35764D01*
D02*
G37*
G36*
X102953Y28661D02*
X101281D01*
Y36087D01*
X102953D01*
Y28661D01*
D02*
G37*
G36*
X100451Y34438D02*
X97476D01*
Y33077D01*
X100209D01*
Y31740D01*
X97476D01*
Y28661D01*
X95689D01*
Y35775D01*
X100451D01*
Y34438D01*
D02*
G37*
G36*
X92092D02*
X89993D01*
Y28661D01*
X88206D01*
Y34438D01*
X86108D01*
Y35775D01*
X92092D01*
Y34438D01*
D02*
G37*
G36*
X79640Y34530D02*
X78613D01*
Y29907D01*
X79640D01*
Y28661D01*
X75800D01*
Y29907D01*
X76826D01*
Y34530D01*
X75800D01*
Y35775D01*
X79640D01*
Y34530D01*
D02*
G37*
G36*
X155368Y33469D02*
X155380Y33481D01*
X155426Y33527D01*
X155507Y33585D01*
X155599Y33654D01*
X155703Y33735D01*
X155830Y33827D01*
X155968Y33908D01*
X156106Y33988D01*
X156130Y34000D01*
X156176Y34023D01*
X156256Y34046D01*
X156372Y34092D01*
X156499Y34127D01*
X156648Y34150D01*
X156821Y34173D01*
X157006Y34184D01*
X157098D01*
X157156Y34173D01*
X157236Y34161D01*
X157329Y34150D01*
X157536Y34092D01*
X157767Y34000D01*
X157894Y33942D01*
X158009Y33873D01*
X158124Y33792D01*
X158239Y33689D01*
X158343Y33573D01*
X158447Y33446D01*
X158459Y33435D01*
X158470Y33412D01*
X158493Y33366D01*
X158528Y33308D01*
X158562Y33239D01*
X158608Y33147D01*
X158655Y33043D01*
X158712Y32916D01*
X158758Y32789D01*
X158805Y32628D01*
X158851Y32466D01*
X158885Y32282D01*
X158920Y32086D01*
X158943Y31878D01*
X158966Y31659D01*
Y31417D01*
Y31406D01*
Y31359D01*
Y31290D01*
X158954Y31210D01*
X158943Y31094D01*
X158931Y30967D01*
X158908Y30829D01*
X158885Y30679D01*
X158805Y30345D01*
X158758Y30172D01*
X158689Y29999D01*
X158608Y29826D01*
X158528Y29664D01*
X158424Y29492D01*
X158309Y29342D01*
X158297Y29330D01*
X158274Y29307D01*
X158239Y29272D01*
X158193Y29215D01*
X158124Y29157D01*
X158055Y29100D01*
X157963Y29019D01*
X157870Y28950D01*
X157628Y28811D01*
X157352Y28684D01*
X157202Y28627D01*
X157040Y28592D01*
X156867Y28569D01*
X156694Y28558D01*
X156556D01*
X156452Y28569D01*
X156349Y28581D01*
X156233Y28592D01*
X155991Y28650D01*
X155980D01*
X155945Y28661D01*
X155887Y28684D01*
X155807Y28719D01*
X155714Y28754D01*
X155611Y28800D01*
X155368Y28927D01*
X155288Y28661D01*
X153697D01*
Y36087D01*
X155368D01*
Y33469D01*
D02*
G37*
G36*
X165515Y34173D02*
X165607Y34161D01*
X165734Y34150D01*
X165861Y34127D01*
X165999Y34104D01*
X166299Y34023D01*
X166460Y33965D01*
X166610Y33908D01*
X166760Y33827D01*
X166910Y33735D01*
X167037Y33631D01*
X167164Y33516D01*
X167175Y33504D01*
X167187Y33481D01*
X167221Y33446D01*
X167256Y33389D01*
X167314Y33331D01*
X167360Y33239D01*
X167417Y33147D01*
X167475Y33031D01*
X167533Y32904D01*
X167590Y32766D01*
X167648Y32605D01*
X167694Y32443D01*
X167729Y32259D01*
X167763Y32063D01*
X167775Y31855D01*
X167786Y31625D01*
Y31025D01*
X164120D01*
Y31014D01*
X164131Y30967D01*
Y30887D01*
X164143Y30806D01*
X164166Y30702D01*
X164189Y30599D01*
X164224Y30495D01*
X164270Y30391D01*
X164281Y30379D01*
X164293Y30345D01*
X164327Y30299D01*
X164362Y30253D01*
X164477Y30114D01*
X164627Y29999D01*
X164639Y29987D01*
X164662Y29976D01*
X164708Y29953D01*
X164777Y29918D01*
X164846Y29884D01*
X164927Y29849D01*
X165123Y29780D01*
X165134D01*
X165169Y29768D01*
X165238Y29757D01*
X165307D01*
X165400Y29745D01*
X165515Y29734D01*
X165757Y29722D01*
X165861D01*
X165942Y29734D01*
X166022D01*
X166114Y29745D01*
X166322Y29780D01*
X166334D01*
X166368Y29791D01*
X166426Y29803D01*
X166495Y29826D01*
X166668Y29884D01*
X166841Y29953D01*
X166852D01*
X166876Y29964D01*
X166922Y29987D01*
X166968Y30010D01*
X167095Y30080D01*
X167221Y30149D01*
X167233D01*
X167256Y30172D01*
X167325Y30218D01*
X167417Y30276D01*
X167510Y30345D01*
X167694D01*
Y28961D01*
X167683D01*
X167659Y28950D01*
X167625Y28938D01*
X167567Y28915D01*
X167452Y28869D01*
X167314Y28811D01*
X167302D01*
X167279Y28800D01*
X167244Y28788D01*
X167187Y28765D01*
X167129Y28742D01*
X167048Y28719D01*
X166956Y28696D01*
X166852Y28673D01*
X166841D01*
X166806Y28661D01*
X166749Y28650D01*
X166680Y28638D01*
X166599Y28627D01*
X166495Y28604D01*
X166287Y28569D01*
X166276D01*
X166241Y28558D01*
X166172D01*
X166091Y28546D01*
X165988Y28535D01*
X165872D01*
X165734Y28523D01*
X165434D01*
X165330Y28535D01*
X165204Y28546D01*
X165065Y28558D01*
X164892Y28581D01*
X164719Y28615D01*
X164350Y28696D01*
X164154Y28754D01*
X163958Y28823D01*
X163774Y28904D01*
X163589Y29007D01*
X163417Y29111D01*
X163255Y29238D01*
X163243Y29250D01*
X163221Y29272D01*
X163186Y29319D01*
X163128Y29376D01*
X163071Y29445D01*
X163001Y29538D01*
X162932Y29642D01*
X162852Y29768D01*
X162782Y29907D01*
X162702Y30057D01*
X162632Y30229D01*
X162575Y30414D01*
X162517Y30610D01*
X162483Y30829D01*
X162460Y31060D01*
X162448Y31302D01*
Y31313D01*
Y31359D01*
Y31429D01*
X162460Y31521D01*
X162471Y31636D01*
X162483Y31763D01*
X162506Y31901D01*
X162540Y32063D01*
X162632Y32397D01*
X162690Y32570D01*
X162759Y32743D01*
X162852Y32916D01*
X162955Y33089D01*
X163071Y33250D01*
X163197Y33400D01*
X163209Y33412D01*
X163232Y33435D01*
X163278Y33469D01*
X163336Y33527D01*
X163417Y33585D01*
X163509Y33654D01*
X163612Y33723D01*
X163739Y33792D01*
X163889Y33862D01*
X164039Y33942D01*
X164212Y34000D01*
X164408Y34058D01*
X164604Y34115D01*
X164823Y34150D01*
X165065Y34173D01*
X165307Y34184D01*
X165423D01*
X165515Y34173D01*
D02*
G37*
G36*
X106908D02*
X107000Y34161D01*
X107127Y34150D01*
X107254Y34127D01*
X107392Y34104D01*
X107692Y34023D01*
X107853Y33965D01*
X108003Y33908D01*
X108153Y33827D01*
X108303Y33735D01*
X108430Y33631D01*
X108557Y33516D01*
X108568Y33504D01*
X108580Y33481D01*
X108614Y33446D01*
X108649Y33389D01*
X108707Y33331D01*
X108753Y33239D01*
X108810Y33147D01*
X108868Y33031D01*
X108926Y32904D01*
X108983Y32766D01*
X109041Y32605D01*
X109087Y32443D01*
X109122Y32259D01*
X109156Y32063D01*
X109168Y31855D01*
X109179Y31625D01*
Y31025D01*
X105513D01*
Y31014D01*
X105524Y30967D01*
Y30887D01*
X105536Y30806D01*
X105559Y30702D01*
X105582Y30599D01*
X105617Y30495D01*
X105663Y30391D01*
X105674Y30379D01*
X105686Y30345D01*
X105720Y30299D01*
X105755Y30253D01*
X105870Y30114D01*
X106020Y29999D01*
X106032Y29987D01*
X106055Y29976D01*
X106101Y29953D01*
X106170Y29918D01*
X106239Y29884D01*
X106320Y29849D01*
X106516Y29780D01*
X106527D01*
X106562Y29768D01*
X106631Y29757D01*
X106700D01*
X106793Y29745D01*
X106908Y29734D01*
X107150Y29722D01*
X107254D01*
X107334Y29734D01*
X107415D01*
X107508Y29745D01*
X107715Y29780D01*
X107727D01*
X107761Y29791D01*
X107819Y29803D01*
X107888Y29826D01*
X108061Y29884D01*
X108234Y29953D01*
X108245D01*
X108268Y29964D01*
X108315Y29987D01*
X108361Y30010D01*
X108488Y30080D01*
X108614Y30149D01*
X108626D01*
X108649Y30172D01*
X108718Y30218D01*
X108810Y30276D01*
X108903Y30345D01*
X109087D01*
Y28961D01*
X109076D01*
X109053Y28950D01*
X109018Y28938D01*
X108960Y28915D01*
X108845Y28869D01*
X108707Y28811D01*
X108695D01*
X108672Y28800D01*
X108637Y28788D01*
X108580Y28765D01*
X108522Y28742D01*
X108441Y28719D01*
X108349Y28696D01*
X108245Y28673D01*
X108234D01*
X108199Y28661D01*
X108142Y28650D01*
X108072Y28638D01*
X107992Y28627D01*
X107888Y28604D01*
X107680Y28569D01*
X107669D01*
X107634Y28558D01*
X107565D01*
X107484Y28546D01*
X107381Y28535D01*
X107265D01*
X107127Y28523D01*
X106827D01*
X106723Y28535D01*
X106597Y28546D01*
X106458Y28558D01*
X106285Y28581D01*
X106112Y28615D01*
X105743Y28696D01*
X105547Y28754D01*
X105351Y28823D01*
X105167Y28904D01*
X104982Y29007D01*
X104809Y29111D01*
X104648Y29238D01*
X104637Y29250D01*
X104613Y29272D01*
X104579Y29319D01*
X104521Y29376D01*
X104464Y29445D01*
X104394Y29538D01*
X104325Y29642D01*
X104244Y29768D01*
X104175Y29907D01*
X104095Y30057D01*
X104025Y30229D01*
X103968Y30414D01*
X103910Y30610D01*
X103876Y30829D01*
X103852Y31060D01*
X103841Y31302D01*
Y31313D01*
Y31359D01*
Y31429D01*
X103852Y31521D01*
X103864Y31636D01*
X103876Y31763D01*
X103899Y31901D01*
X103933Y32063D01*
X104025Y32397D01*
X104083Y32570D01*
X104152Y32743D01*
X104244Y32916D01*
X104348Y33089D01*
X104464Y33250D01*
X104590Y33400D01*
X104602Y33412D01*
X104625Y33435D01*
X104671Y33469D01*
X104729Y33527D01*
X104809Y33585D01*
X104902Y33654D01*
X105006Y33723D01*
X105132Y33792D01*
X105282Y33862D01*
X105432Y33942D01*
X105605Y34000D01*
X105801Y34058D01*
X105997Y34115D01*
X106216Y34150D01*
X106458Y34173D01*
X106700Y34184D01*
X106816D01*
X106908Y34173D01*
D02*
G37*
G36*
X83306D02*
X83410Y34161D01*
X83537Y34150D01*
X83687Y34127D01*
X83836Y34092D01*
X84159Y34000D01*
X84332Y33942D01*
X84505Y33862D01*
X84667Y33781D01*
X84828Y33677D01*
X84989Y33562D01*
X85128Y33423D01*
X85139Y33412D01*
X85162Y33389D01*
X85197Y33343D01*
X85243Y33285D01*
X85301Y33204D01*
X85358Y33112D01*
X85427Y33008D01*
X85497Y32881D01*
X85554Y32732D01*
X85624Y32582D01*
X85681Y32409D01*
X85739Y32224D01*
X85785Y32017D01*
X85820Y31809D01*
X85843Y31578D01*
X85854Y31336D01*
Y31325D01*
Y31279D01*
Y31210D01*
X85843Y31117D01*
X85831Y31002D01*
X85820Y30875D01*
X85796Y30737D01*
X85762Y30575D01*
X85681Y30241D01*
X85624Y30068D01*
X85543Y29895D01*
X85462Y29722D01*
X85370Y29561D01*
X85255Y29399D01*
X85128Y29250D01*
X85116Y29238D01*
X85093Y29215D01*
X85047Y29180D01*
X84989Y29134D01*
X84920Y29076D01*
X84828Y29007D01*
X84724Y28950D01*
X84597Y28881D01*
X84459Y28800D01*
X84309Y28742D01*
X84148Y28673D01*
X83963Y28615D01*
X83767Y28569D01*
X83548Y28535D01*
X83329Y28512D01*
X83087Y28500D01*
X82960D01*
X82868Y28512D01*
X82764Y28523D01*
X82637Y28535D01*
X82487Y28558D01*
X82337Y28592D01*
X82015Y28684D01*
X81842Y28742D01*
X81669Y28811D01*
X81507Y28904D01*
X81346Y29007D01*
X81185Y29123D01*
X81046Y29250D01*
X81035Y29261D01*
X81012Y29284D01*
X80977Y29330D01*
X80931Y29388D01*
X80885Y29469D01*
X80816Y29561D01*
X80758Y29676D01*
X80689Y29791D01*
X80620Y29941D01*
X80562Y30091D01*
X80493Y30264D01*
X80447Y30449D01*
X80401Y30656D01*
X80366Y30864D01*
X80343Y31094D01*
X80331Y31336D01*
Y31348D01*
Y31394D01*
Y31463D01*
X80343Y31556D01*
X80354Y31671D01*
X80366Y31798D01*
X80389Y31947D01*
X80423Y32097D01*
X80504Y32432D01*
X80562Y32605D01*
X80631Y32778D01*
X80712Y32951D01*
X80816Y33123D01*
X80919Y33273D01*
X81046Y33423D01*
X81058Y33435D01*
X81081Y33458D01*
X81127Y33492D01*
X81185Y33539D01*
X81254Y33596D01*
X81346Y33665D01*
X81450Y33735D01*
X81577Y33804D01*
X81715Y33873D01*
X81865Y33942D01*
X82026Y34011D01*
X82211Y34069D01*
X82407Y34115D01*
X82626Y34150D01*
X82845Y34173D01*
X83087Y34184D01*
X83214D01*
X83306Y34173D01*
D02*
G37*
G36*
X114834Y24873D02*
X114961D01*
X115030Y24861D01*
Y23282D01*
X114880D01*
X114869Y23293D01*
X114811Y23305D01*
X114730Y23316D01*
X114603Y23328D01*
X114569D01*
X114534Y23339D01*
X114488D01*
X114361Y23351D01*
X114108D01*
X114038Y23339D01*
X113958Y23328D01*
X113865Y23316D01*
X113646Y23270D01*
X113635D01*
X113600Y23259D01*
X113543Y23236D01*
X113473Y23213D01*
X113381Y23190D01*
X113289Y23155D01*
X113093Y23086D01*
Y19500D01*
X111421D01*
Y24861D01*
X113093D01*
Y24089D01*
X113116Y24112D01*
X113174Y24158D01*
X113266Y24250D01*
X113404Y24354D01*
X113416Y24366D01*
X113439Y24377D01*
X113473Y24412D01*
X113531Y24446D01*
X113646Y24527D01*
X113773Y24608D01*
X113785D01*
X113808Y24631D01*
X113842Y24654D01*
X113900Y24677D01*
X114027Y24735D01*
X114200Y24804D01*
X114211D01*
X114246Y24815D01*
X114292Y24827D01*
X114350Y24850D01*
X114500Y24873D01*
X114661Y24884D01*
X114765D01*
X114834Y24873D01*
D02*
G37*
G36*
X102601Y19500D02*
X100744D01*
X98300Y26614D01*
X100145D01*
X101701Y21783D01*
X103246Y26614D01*
X105057D01*
X102601Y19500D01*
D02*
G37*
G36*
X126491D02*
X124796D01*
Y21379D01*
X126491D01*
Y19500D01*
D02*
G37*
G36*
X122052Y20745D02*
X123516D01*
Y19500D01*
X118823D01*
Y20745D01*
X120322D01*
Y24481D01*
X118823D01*
Y25646D01*
X119031D01*
X119123Y25657D01*
X119227D01*
X119469Y25680D01*
X119481D01*
X119527Y25692D01*
X119584Y25703D01*
X119654Y25715D01*
X119826Y25761D01*
X119907Y25784D01*
X119988Y25818D01*
X120000D01*
X120022Y25842D01*
X120069Y25865D01*
X120115Y25899D01*
X120242Y26003D01*
X120345Y26130D01*
X120357Y26141D01*
X120368Y26164D01*
X120391Y26210D01*
X120414Y26268D01*
X120438Y26337D01*
X120461Y26418D01*
X120495Y26614D01*
X122052D01*
Y20745D01*
D02*
G37*
G36*
X108297Y25011D02*
X108389Y25000D01*
X108516Y24988D01*
X108642Y24965D01*
X108781Y24942D01*
X109081Y24861D01*
X109242Y24804D01*
X109392Y24746D01*
X109542Y24665D01*
X109692Y24573D01*
X109818Y24469D01*
X109945Y24354D01*
X109957Y24343D01*
X109968Y24319D01*
X110003Y24285D01*
X110038Y24227D01*
X110095Y24170D01*
X110141Y24077D01*
X110199Y23985D01*
X110257Y23870D01*
X110314Y23743D01*
X110372Y23605D01*
X110430Y23443D01*
X110476Y23282D01*
X110510Y23097D01*
X110545Y22901D01*
X110556Y22694D01*
X110568Y22463D01*
Y21864D01*
X106901D01*
Y21852D01*
X106913Y21806D01*
Y21725D01*
X106924Y21645D01*
X106948Y21541D01*
X106971Y21437D01*
X107005Y21333D01*
X107051Y21229D01*
X107063Y21218D01*
X107074Y21183D01*
X107109Y21137D01*
X107143Y21091D01*
X107259Y20953D01*
X107409Y20838D01*
X107420Y20826D01*
X107443Y20814D01*
X107489Y20791D01*
X107559Y20757D01*
X107628Y20722D01*
X107709Y20688D01*
X107905Y20618D01*
X107916D01*
X107951Y20607D01*
X108020Y20595D01*
X108089D01*
X108181Y20584D01*
X108297Y20572D01*
X108539Y20561D01*
X108642D01*
X108723Y20572D01*
X108804D01*
X108896Y20584D01*
X109104Y20618D01*
X109115D01*
X109150Y20630D01*
X109207Y20641D01*
X109277Y20664D01*
X109450Y20722D01*
X109623Y20791D01*
X109634D01*
X109657Y20803D01*
X109703Y20826D01*
X109749Y20849D01*
X109876Y20918D01*
X110003Y20987D01*
X110014D01*
X110038Y21010D01*
X110107Y21057D01*
X110199Y21114D01*
X110291Y21183D01*
X110476D01*
Y19800D01*
X110464D01*
X110441Y19788D01*
X110406Y19777D01*
X110349Y19754D01*
X110233Y19707D01*
X110095Y19650D01*
X110084D01*
X110061Y19638D01*
X110026Y19627D01*
X109968Y19604D01*
X109911Y19581D01*
X109830Y19558D01*
X109738Y19535D01*
X109634Y19512D01*
X109623D01*
X109588Y19500D01*
X109530Y19489D01*
X109461Y19477D01*
X109380Y19465D01*
X109277Y19442D01*
X109069Y19408D01*
X109057D01*
X109023Y19396D01*
X108954D01*
X108873Y19385D01*
X108769Y19373D01*
X108654D01*
X108516Y19362D01*
X108216D01*
X108112Y19373D01*
X107985Y19385D01*
X107847Y19396D01*
X107674Y19419D01*
X107501Y19454D01*
X107132Y19535D01*
X106936Y19592D01*
X106740Y19661D01*
X106555Y19742D01*
X106371Y19846D01*
X106198Y19950D01*
X106037Y20076D01*
X106025Y20088D01*
X106002Y20111D01*
X105967Y20157D01*
X105910Y20215D01*
X105852Y20284D01*
X105783Y20376D01*
X105714Y20480D01*
X105633Y20607D01*
X105564Y20745D01*
X105483Y20895D01*
X105414Y21068D01*
X105356Y21253D01*
X105299Y21449D01*
X105264Y21668D01*
X105241Y21898D01*
X105229Y22140D01*
Y22152D01*
Y22198D01*
Y22267D01*
X105241Y22359D01*
X105253Y22475D01*
X105264Y22602D01*
X105287Y22740D01*
X105322Y22901D01*
X105414Y23236D01*
X105472Y23409D01*
X105541Y23582D01*
X105633Y23755D01*
X105737Y23927D01*
X105852Y24089D01*
X105979Y24239D01*
X105991Y24250D01*
X106014Y24273D01*
X106060Y24308D01*
X106117Y24366D01*
X106198Y24423D01*
X106290Y24493D01*
X106394Y24562D01*
X106521Y24631D01*
X106671Y24700D01*
X106821Y24781D01*
X106994Y24838D01*
X107190Y24896D01*
X107386Y24954D01*
X107605Y24988D01*
X107847Y25011D01*
X108089Y25023D01*
X108204D01*
X108297Y25011D01*
D02*
G37*
G36*
X130480Y26752D02*
X130549D01*
X130734Y26729D01*
X130930Y26706D01*
X131137Y26660D01*
X131357Y26603D01*
X131553Y26522D01*
X131564D01*
X131576Y26510D01*
X131645Y26476D01*
X131737Y26418D01*
X131852Y26337D01*
X131991Y26234D01*
X132129Y26118D01*
X132279Y25968D01*
X132406Y25795D01*
X132417Y25772D01*
X132463Y25715D01*
X132521Y25611D01*
X132590Y25473D01*
X132659Y25300D01*
X132740Y25104D01*
X132821Y24884D01*
X132878Y24631D01*
Y24619D01*
X132890Y24596D01*
Y24562D01*
X132902Y24516D01*
X132913Y24446D01*
X132925Y24366D01*
X132936Y24285D01*
X132959Y24181D01*
X132982Y23951D01*
X133005Y23674D01*
X133017Y23374D01*
X133028Y23051D01*
Y23040D01*
Y23005D01*
Y22959D01*
Y22901D01*
Y22821D01*
X133017Y22728D01*
X133005Y22509D01*
X132994Y22256D01*
X132971Y21979D01*
X132925Y21702D01*
X132878Y21437D01*
Y21426D01*
X132867Y21402D01*
Y21368D01*
X132855Y21322D01*
X132809Y21195D01*
X132763Y21034D01*
X132694Y20849D01*
X132613Y20664D01*
X132521Y20469D01*
X132406Y20284D01*
X132394Y20261D01*
X132348Y20203D01*
X132267Y20123D01*
X132175Y20019D01*
X132048Y19915D01*
X131910Y19788D01*
X131737Y19684D01*
X131553Y19581D01*
X131529Y19569D01*
X131460Y19546D01*
X131345Y19512D01*
X131195Y19465D01*
X131011Y19419D01*
X130803Y19385D01*
X130549Y19362D01*
X130284Y19350D01*
X130157D01*
X130088Y19362D01*
X130019D01*
X129834Y19385D01*
X129639Y19408D01*
X129420Y19442D01*
X129212Y19500D01*
X129004Y19581D01*
X128981Y19592D01*
X128924Y19627D01*
X128820Y19684D01*
X128705Y19765D01*
X128566Y19857D01*
X128428Y19984D01*
X128289Y20134D01*
X128151Y20296D01*
X128140Y20319D01*
X128094Y20376D01*
X128036Y20480D01*
X127967Y20607D01*
X127898Y20780D01*
X127817Y20976D01*
X127748Y21195D01*
X127678Y21437D01*
Y21449D01*
Y21472D01*
X127667Y21506D01*
X127655Y21564D01*
X127644Y21621D01*
X127632Y21702D01*
X127621Y21794D01*
X127609Y21898D01*
X127586Y22140D01*
X127563Y22406D01*
X127552Y22717D01*
X127540Y23051D01*
Y23063D01*
Y23097D01*
Y23144D01*
Y23213D01*
Y23293D01*
X127552Y23386D01*
X127563Y23605D01*
X127575Y23858D01*
X127598Y24135D01*
X127632Y24400D01*
X127678Y24665D01*
Y24677D01*
X127690Y24700D01*
Y24735D01*
X127713Y24781D01*
X127748Y24908D01*
X127794Y25058D01*
X127863Y25242D01*
X127944Y25438D01*
X128047Y25634D01*
X128163Y25818D01*
X128174Y25842D01*
X128220Y25899D01*
X128301Y25980D01*
X128393Y26084D01*
X128520Y26199D01*
X128658Y26314D01*
X128831Y26430D01*
X129016Y26522D01*
X129027D01*
X129039Y26533D01*
X129108Y26556D01*
X129224Y26603D01*
X129373Y26649D01*
X129558Y26683D01*
X129777Y26729D01*
X130019Y26752D01*
X130284Y26764D01*
X130411D01*
X130480Y26752D01*
D02*
G37*
%LPC*%
G36*
X137249Y43024D02*
X137168D01*
X137122Y43012D01*
X136983Y43001D01*
X136845Y42955D01*
X136834D01*
X136811Y42943D01*
X136787Y42920D01*
X136741Y42897D01*
X136637Y42816D01*
X136580Y42759D01*
X136522Y42689D01*
X136511Y42678D01*
X136499Y42655D01*
X136476Y42609D01*
X136442Y42551D01*
X136395Y42482D01*
X136361Y42390D01*
X136326Y42286D01*
X136292Y42171D01*
Y42159D01*
X136280Y42113D01*
X136269Y42044D01*
X136257Y41952D01*
X136234Y41836D01*
X136223Y41698D01*
X136211Y41536D01*
Y41363D01*
Y41340D01*
Y41283D01*
Y41190D01*
X136223Y41075D01*
Y40948D01*
X136246Y40821D01*
X136257Y40683D01*
X136280Y40568D01*
Y40556D01*
X136292Y40522D01*
X136315Y40464D01*
X136338Y40395D01*
X136407Y40233D01*
X136488Y40084D01*
X136499Y40072D01*
X136511Y40049D01*
X136580Y39980D01*
X136684Y39899D01*
X136822Y39818D01*
X136834D01*
X136857Y39807D01*
X136903Y39795D01*
X136949Y39784D01*
X137087Y39749D01*
X137260Y39738D01*
X137329D01*
X137387Y39749D01*
X137514Y39772D01*
X137664Y39818D01*
X137675D01*
X137698Y39830D01*
X137733Y39853D01*
X137779Y39876D01*
X137894Y39957D01*
X137998Y40072D01*
X138010Y40084D01*
X138021Y40107D01*
X138044Y40153D01*
X138079Y40210D01*
X138113Y40280D01*
X138148Y40372D01*
X138217Y40568D01*
Y40579D01*
X138229Y40626D01*
X138240Y40683D01*
X138263Y40775D01*
X138275Y40891D01*
X138286Y41029D01*
X138298Y41179D01*
Y41363D01*
Y41387D01*
Y41444D01*
Y41525D01*
X138286Y41640D01*
X138275Y41767D01*
X138263Y41894D01*
X138240Y42021D01*
X138217Y42147D01*
Y42159D01*
X138206Y42205D01*
X138182Y42263D01*
X138160Y42332D01*
X138090Y42505D01*
X138044Y42586D01*
X137998Y42666D01*
X137987Y42678D01*
X137975Y42701D01*
X137906Y42770D01*
X137791Y42862D01*
X137664Y42943D01*
X137652D01*
X137629Y42955D01*
X137594Y42966D01*
X137548Y42989D01*
X137410Y43012D01*
X137249Y43024D01*
D02*
G37*
G36*
X122179D02*
X122098D01*
X122052Y43012D01*
X121914Y43001D01*
X121775Y42955D01*
X121764D01*
X121741Y42943D01*
X121718Y42920D01*
X121672Y42897D01*
X121568Y42816D01*
X121510Y42759D01*
X121452Y42689D01*
X121441Y42678D01*
X121430Y42655D01*
X121406Y42609D01*
X121372Y42551D01*
X121326Y42482D01*
X121291Y42390D01*
X121256Y42286D01*
X121222Y42171D01*
Y42159D01*
X121210Y42113D01*
X121199Y42044D01*
X121187Y41952D01*
X121164Y41836D01*
X121153Y41698D01*
X121141Y41536D01*
Y41363D01*
Y41340D01*
Y41283D01*
Y41190D01*
X121153Y41075D01*
Y40948D01*
X121176Y40821D01*
X121187Y40683D01*
X121210Y40568D01*
Y40556D01*
X121222Y40522D01*
X121245Y40464D01*
X121268Y40395D01*
X121337Y40233D01*
X121418Y40084D01*
X121430Y40072D01*
X121441Y40049D01*
X121510Y39980D01*
X121614Y39899D01*
X121752Y39818D01*
X121764D01*
X121787Y39807D01*
X121833Y39795D01*
X121879Y39784D01*
X122018Y39749D01*
X122190Y39738D01*
X122260D01*
X122317Y39749D01*
X122444Y39772D01*
X122594Y39818D01*
X122606D01*
X122629Y39830D01*
X122663Y39853D01*
X122709Y39876D01*
X122825Y39957D01*
X122928Y40072D01*
X122940Y40084D01*
X122951Y40107D01*
X122975Y40153D01*
X123009Y40210D01*
X123044Y40280D01*
X123078Y40372D01*
X123147Y40568D01*
Y40579D01*
X123159Y40626D01*
X123170Y40683D01*
X123194Y40775D01*
X123205Y40891D01*
X123217Y41029D01*
X123228Y41179D01*
Y41363D01*
Y41387D01*
Y41444D01*
Y41525D01*
X123217Y41640D01*
X123205Y41767D01*
X123194Y41894D01*
X123170Y42021D01*
X123147Y42147D01*
Y42159D01*
X123136Y42205D01*
X123113Y42263D01*
X123090Y42332D01*
X123021Y42505D01*
X122975Y42586D01*
X122928Y42666D01*
X122917Y42678D01*
X122905Y42701D01*
X122836Y42770D01*
X122721Y42862D01*
X122594Y42943D01*
X122582D01*
X122559Y42955D01*
X122525Y42966D01*
X122479Y42989D01*
X122340Y43012D01*
X122179Y43024D01*
D02*
G37*
G36*
X147683Y42978D02*
X147660D01*
X147591Y42966D01*
X147476Y42955D01*
X147349Y42932D01*
X147199Y42874D01*
X147049Y42805D01*
X146911Y42712D01*
X146784Y42574D01*
X146772Y42551D01*
X146738Y42505D01*
X146692Y42413D01*
X146634Y42286D01*
X146576Y42136D01*
X146530Y41952D01*
X146496Y41732D01*
X146484Y41479D01*
Y41467D01*
Y41421D01*
Y41352D01*
Y41271D01*
X146496Y41075D01*
X146519Y40879D01*
Y40868D01*
X146530Y40845D01*
X146542Y40799D01*
X146553Y40741D01*
X146611Y40602D01*
X146692Y40453D01*
X146703Y40441D01*
X146715Y40418D01*
X146784Y40349D01*
X146876Y40257D01*
X147003Y40176D01*
X147014D01*
X147038Y40164D01*
X147084Y40153D01*
X147141Y40130D01*
X147211Y40118D01*
X147291Y40095D01*
X147395Y40084D01*
X147580D01*
X147637Y40095D01*
X147787Y40118D01*
X147949Y40153D01*
X147960D01*
X147983Y40164D01*
X148029Y40187D01*
X148087Y40210D01*
X148214Y40280D01*
X148363Y40372D01*
Y42839D01*
X148340Y42851D01*
X148283Y42874D01*
X148179Y42908D01*
X148052Y42932D01*
X148041D01*
X148018Y42943D01*
X147983D01*
X147937Y42955D01*
X147822Y42966D01*
X147683Y42978D01*
D02*
G37*
G36*
X150791Y31187D02*
X150768D01*
X150722Y31175D01*
X150641D01*
X150549Y31163D01*
X150434Y31152D01*
X150330Y31129D01*
X150215Y31117D01*
X150111Y31106D01*
X150099D01*
X150065Y31094D01*
X150019D01*
X149949Y31083D01*
X149880Y31060D01*
X149788Y31048D01*
X149603Y30990D01*
X149592D01*
X149569Y30979D01*
X149523Y30956D01*
X149477Y30933D01*
X149373Y30852D01*
X149269Y30748D01*
Y30737D01*
X149246Y30725D01*
X149235Y30691D01*
X149212Y30645D01*
X149188Y30587D01*
X149177Y30518D01*
X149154Y30345D01*
Y30333D01*
Y30287D01*
X149165Y30218D01*
X149177Y30137D01*
X149200Y30057D01*
X149235Y29964D01*
X149281Y29884D01*
X149350Y29826D01*
X149361D01*
X149384Y29803D01*
X149431Y29780D01*
X149500Y29757D01*
X149581Y29734D01*
X149684Y29711D01*
X149800Y29699D01*
X149938Y29688D01*
X150019D01*
X150076Y29699D01*
X150215Y29722D01*
X150376Y29780D01*
X150388D01*
X150411Y29803D01*
X150457Y29826D01*
X150514Y29860D01*
X150653Y29941D01*
X150791Y30068D01*
Y31187D01*
D02*
G37*
G36*
X134280Y34473D02*
X133634D01*
Y32962D01*
X134522D01*
X134557Y32974D01*
X134603Y32985D01*
X134730Y33008D01*
X134868Y33066D01*
X134880D01*
X134903Y33089D01*
X134937Y33112D01*
X134984Y33135D01*
X135087Y33227D01*
X135133Y33285D01*
X135168Y33343D01*
Y33354D01*
X135179Y33377D01*
X135191Y33412D01*
X135214Y33469D01*
X135237Y33596D01*
X135249Y33758D01*
Y33769D01*
Y33792D01*
Y33827D01*
X135237Y33873D01*
X135214Y33977D01*
X135156Y34115D01*
Y34127D01*
X135145Y34150D01*
X135087Y34219D01*
X135006Y34300D01*
X134880Y34380D01*
X134868D01*
X134845Y34392D01*
X134810Y34403D01*
X134764Y34415D01*
X134638Y34449D01*
X134465Y34461D01*
X134361D01*
X134280Y34473D01*
D02*
G37*
G36*
X134511Y31740D02*
X133634D01*
Y29964D01*
X134730D01*
X134787Y29976D01*
X134845Y29987D01*
X134926Y29999D01*
X135018Y30022D01*
X135214Y30091D01*
X135226D01*
X135249Y30114D01*
X135295Y30137D01*
X135352Y30172D01*
X135468Y30276D01*
X135525Y30333D01*
X135572Y30402D01*
Y30414D01*
X135595Y30437D01*
X135606Y30483D01*
X135629Y30541D01*
X135652Y30610D01*
X135664Y30691D01*
X135687Y30864D01*
Y30875D01*
Y30921D01*
X135675Y30979D01*
Y31048D01*
X135629Y31210D01*
X135595Y31302D01*
X135548Y31371D01*
Y31383D01*
X135525Y31406D01*
X135491Y31440D01*
X135456Y31486D01*
X135399Y31532D01*
X135329Y31578D01*
X135249Y31625D01*
X135156Y31659D01*
X135145D01*
X135122Y31671D01*
X135087Y31682D01*
X135041Y31694D01*
X134972Y31705D01*
X134903Y31717D01*
X134810D01*
X134707Y31728D01*
X134591D01*
X134511Y31740D01*
D02*
G37*
G36*
X121344Y34473D02*
X120698D01*
Y32962D01*
X121586D01*
X121620Y32974D01*
X121666Y32985D01*
X121793Y33008D01*
X121932Y33066D01*
X121943D01*
X121966Y33089D01*
X122001Y33112D01*
X122047Y33135D01*
X122151Y33227D01*
X122197Y33285D01*
X122231Y33343D01*
Y33354D01*
X122243Y33377D01*
X122254Y33412D01*
X122277Y33469D01*
X122301Y33596D01*
X122312Y33758D01*
Y33769D01*
Y33792D01*
Y33827D01*
X122301Y33873D01*
X122277Y33977D01*
X122220Y34115D01*
Y34127D01*
X122208Y34150D01*
X122151Y34219D01*
X122070Y34300D01*
X121943Y34380D01*
X121932D01*
X121908Y34392D01*
X121874Y34403D01*
X121828Y34415D01*
X121701Y34449D01*
X121528Y34461D01*
X121424D01*
X121344Y34473D01*
D02*
G37*
G36*
X121574Y31740D02*
X120698D01*
Y29964D01*
X121793D01*
X121851Y29976D01*
X121908Y29987D01*
X121989Y29999D01*
X122081Y30022D01*
X122277Y30091D01*
X122289D01*
X122312Y30114D01*
X122358Y30137D01*
X122416Y30172D01*
X122531Y30276D01*
X122589Y30333D01*
X122635Y30402D01*
Y30414D01*
X122658Y30437D01*
X122669Y30483D01*
X122693Y30541D01*
X122716Y30610D01*
X122727Y30691D01*
X122750Y30864D01*
Y30875D01*
Y30921D01*
X122739Y30979D01*
Y31048D01*
X122693Y31210D01*
X122658Y31302D01*
X122612Y31371D01*
Y31383D01*
X122589Y31406D01*
X122554Y31440D01*
X122520Y31486D01*
X122462Y31532D01*
X122393Y31578D01*
X122312Y31625D01*
X122220Y31659D01*
X122208D01*
X122185Y31671D01*
X122151Y31682D01*
X122105Y31694D01*
X122035Y31705D01*
X121966Y31717D01*
X121874D01*
X121770Y31728D01*
X121655D01*
X121574Y31740D01*
D02*
G37*
G36*
X156245Y32881D02*
X156164D01*
X156106Y32870D01*
X155968Y32847D01*
X155795Y32801D01*
X155784D01*
X155761Y32789D01*
X155714Y32778D01*
X155657Y32755D01*
X155518Y32685D01*
X155368Y32593D01*
Y29884D01*
X155380D01*
X155392Y29872D01*
X155472Y29849D01*
X155576Y29826D01*
X155691Y29803D01*
X155726D01*
X155761Y29791D01*
X155795D01*
X155910Y29780D01*
X156095D01*
X156141Y29791D01*
X156245Y29803D01*
X156383Y29826D01*
X156533Y29872D01*
X156683Y29941D01*
X156821Y30045D01*
X156948Y30172D01*
X156960Y30195D01*
X156994Y30253D01*
X157040Y30345D01*
X157098Y30472D01*
X157156Y30645D01*
X157202Y30852D01*
X157236Y31094D01*
X157248Y31383D01*
Y31394D01*
Y31417D01*
Y31463D01*
Y31509D01*
X157236Y31659D01*
X157213Y31832D01*
X157190Y32017D01*
X157144Y32213D01*
X157075Y32386D01*
X156994Y32535D01*
X156983Y32547D01*
X156948Y32593D01*
X156890Y32651D01*
X156810Y32708D01*
X156706Y32778D01*
X156579Y32824D01*
X156418Y32870D01*
X156245Y32881D01*
D02*
G37*
G36*
X165181Y33123D02*
X165100D01*
X165008Y33112D01*
X164904Y33089D01*
X164777Y33054D01*
X164650Y32997D01*
X164523Y32928D01*
X164408Y32824D01*
X164397Y32812D01*
X164362Y32766D01*
X164327Y32708D01*
X164270Y32616D01*
X164224Y32501D01*
X164166Y32362D01*
X164131Y32201D01*
X164108Y32028D01*
X166138D01*
Y32040D01*
Y32051D01*
X166126Y32120D01*
X166114Y32213D01*
X166103Y32328D01*
X166068Y32455D01*
X166022Y32593D01*
X165965Y32720D01*
X165884Y32835D01*
X165872Y32847D01*
X165838Y32881D01*
X165792Y32928D01*
X165711Y32985D01*
X165607Y33031D01*
X165492Y33077D01*
X165342Y33112D01*
X165181Y33123D01*
D02*
G37*
G36*
X106574D02*
X106493D01*
X106401Y33112D01*
X106297Y33089D01*
X106170Y33054D01*
X106043Y32997D01*
X105916Y32928D01*
X105801Y32824D01*
X105789Y32812D01*
X105755Y32766D01*
X105720Y32708D01*
X105663Y32616D01*
X105617Y32501D01*
X105559Y32362D01*
X105524Y32201D01*
X105501Y32028D01*
X107531D01*
Y32040D01*
Y32051D01*
X107519Y32120D01*
X107508Y32213D01*
X107496Y32328D01*
X107461Y32455D01*
X107415Y32593D01*
X107358Y32720D01*
X107277Y32835D01*
X107265Y32847D01*
X107231Y32881D01*
X107185Y32928D01*
X107104Y32985D01*
X107000Y33031D01*
X106885Y33077D01*
X106735Y33112D01*
X106574Y33123D01*
D02*
G37*
G36*
X83087Y32985D02*
X83006D01*
X82960Y32974D01*
X82822Y32962D01*
X82683Y32916D01*
X82672D01*
X82649Y32904D01*
X82626Y32881D01*
X82580Y32858D01*
X82476Y32778D01*
X82418Y32720D01*
X82361Y32651D01*
X82349Y32639D01*
X82337Y32616D01*
X82314Y32570D01*
X82280Y32512D01*
X82234Y32443D01*
X82199Y32351D01*
X82165Y32247D01*
X82130Y32132D01*
Y32120D01*
X82118Y32074D01*
X82107Y32005D01*
X82095Y31913D01*
X82072Y31798D01*
X82061Y31659D01*
X82049Y31498D01*
Y31325D01*
Y31302D01*
Y31244D01*
Y31152D01*
X82061Y31037D01*
Y30910D01*
X82084Y30783D01*
X82095Y30645D01*
X82118Y30529D01*
Y30518D01*
X82130Y30483D01*
X82153Y30426D01*
X82176Y30356D01*
X82245Y30195D01*
X82326Y30045D01*
X82337Y30033D01*
X82349Y30010D01*
X82418Y29941D01*
X82522Y29860D01*
X82660Y29780D01*
X82672D01*
X82695Y29768D01*
X82741Y29757D01*
X82787Y29745D01*
X82925Y29711D01*
X83099Y29699D01*
X83168D01*
X83225Y29711D01*
X83352Y29734D01*
X83502Y29780D01*
X83514D01*
X83537Y29791D01*
X83571Y29814D01*
X83617Y29838D01*
X83733Y29918D01*
X83836Y30033D01*
X83848Y30045D01*
X83859Y30068D01*
X83882Y30114D01*
X83917Y30172D01*
X83952Y30241D01*
X83986Y30333D01*
X84056Y30529D01*
Y30541D01*
X84067Y30587D01*
X84079Y30645D01*
X84102Y30737D01*
X84113Y30852D01*
X84125Y30990D01*
X84136Y31140D01*
Y31325D01*
Y31348D01*
Y31406D01*
Y31486D01*
X84125Y31602D01*
X84113Y31728D01*
X84102Y31855D01*
X84079Y31982D01*
X84056Y32109D01*
Y32120D01*
X84044Y32166D01*
X84021Y32224D01*
X83998Y32293D01*
X83929Y32466D01*
X83882Y32547D01*
X83836Y32628D01*
X83825Y32639D01*
X83813Y32662D01*
X83744Y32732D01*
X83629Y32824D01*
X83502Y32904D01*
X83491D01*
X83467Y32916D01*
X83433Y32928D01*
X83387Y32951D01*
X83248Y32974D01*
X83087Y32985D01*
D02*
G37*
G36*
X107962Y23962D02*
X107881D01*
X107789Y23951D01*
X107685Y23927D01*
X107559Y23893D01*
X107432Y23835D01*
X107305Y23766D01*
X107190Y23662D01*
X107178Y23651D01*
X107143Y23605D01*
X107109Y23547D01*
X107051Y23455D01*
X107005Y23339D01*
X106948Y23201D01*
X106913Y23040D01*
X106890Y22867D01*
X108919D01*
Y22878D01*
Y22890D01*
X108908Y22959D01*
X108896Y23051D01*
X108885Y23167D01*
X108850Y23293D01*
X108804Y23432D01*
X108746Y23559D01*
X108666Y23674D01*
X108654Y23685D01*
X108619Y23720D01*
X108573Y23766D01*
X108493Y23824D01*
X108389Y23870D01*
X108273Y23916D01*
X108124Y23951D01*
X107962Y23962D01*
D02*
G37*
G36*
X130377Y25449D02*
X130261D01*
X130203Y25438D01*
X130111Y25426D01*
X129996Y25380D01*
X129881Y25323D01*
X129754Y25219D01*
X129639Y25092D01*
X129592Y25000D01*
X129546Y24908D01*
Y24896D01*
X129535Y24884D01*
X129523Y24850D01*
X129512Y24804D01*
X129500Y24746D01*
X129477Y24665D01*
X129454Y24585D01*
X129443Y24481D01*
X129420Y24354D01*
X129396Y24227D01*
X129373Y24066D01*
X129362Y23904D01*
X129350Y23720D01*
X129339Y23512D01*
X129327Y23293D01*
Y23051D01*
Y23040D01*
Y22994D01*
Y22924D01*
Y22844D01*
X129339Y22728D01*
Y22613D01*
X129350Y22475D01*
Y22336D01*
X129385Y22025D01*
X129420Y21725D01*
X129443Y21575D01*
X129477Y21437D01*
X129512Y21322D01*
X129546Y21206D01*
X129558Y21183D01*
X129592Y21126D01*
X129639Y21034D01*
X129719Y20941D01*
X129823Y20838D01*
X129950Y20745D01*
X130100Y20688D01*
X130192Y20676D01*
X130284Y20664D01*
X130307D01*
X130365Y20676D01*
X130457Y20699D01*
X130561Y20734D01*
X130688Y20803D01*
X130803Y20895D01*
X130918Y21034D01*
X130965Y21114D01*
X131011Y21206D01*
Y21218D01*
X131022Y21229D01*
X131034Y21264D01*
X131045Y21310D01*
X131068Y21368D01*
X131080Y21449D01*
X131103Y21541D01*
X131126Y21645D01*
X131149Y21760D01*
X131172Y21898D01*
X131184Y22048D01*
X131207Y22209D01*
X131218Y22394D01*
X131230Y22602D01*
X131241Y22821D01*
Y23051D01*
Y23063D01*
Y23109D01*
Y23178D01*
Y23270D01*
X131230Y23374D01*
Y23501D01*
X131218Y23639D01*
Y23778D01*
X131184Y24089D01*
X131149Y24389D01*
X131126Y24539D01*
X131091Y24677D01*
X131057Y24804D01*
X131022Y24908D01*
Y24919D01*
X131011Y24931D01*
X130976Y24988D01*
X130930Y25080D01*
X130849Y25184D01*
X130745Y25276D01*
X130619Y25369D01*
X130469Y25426D01*
X130377Y25449D01*
D02*
G37*
%LPD*%
D12*
X237300Y62500D02*
X242400Y57400D01*
X400Y5600D02*
Y57200D01*
Y5600D02*
X5600Y400D01*
X237100D01*
X-2100Y-113500D02*
X3000Y-108400D01*
X5700Y62500D02*
X237300D01*
X600Y57300D02*
X5700Y62400D01*
X242400Y5700D02*
Y57400D01*
X237200Y500D02*
X242300Y5600D01*
D14*
X264250Y38107D02*
X270868Y44725D01*
X264250Y34170D02*
X274805Y44725D01*
X264250Y30233D02*
X278742Y44725D01*
X264250Y26296D02*
X282679Y44725D01*
X264250Y22359D02*
X286616Y44725D01*
X264250Y18422D02*
X290553Y44725D01*
X264250Y14485D02*
X291159Y41394D01*
X264250Y10548D02*
X291159Y37457D01*
X264250Y6611D02*
X291159Y33520D01*
X264250Y2674D02*
X291159Y29583D01*
X264250Y-1263D02*
X291159Y25646D01*
X266062Y-3388D02*
X291159Y21709D01*
X268031Y-5357D02*
X291159Y17772D01*
X271420Y-5904D02*
X291159Y13835D01*
X275357Y-5904D02*
X291159Y9898D01*
X279294Y-5904D02*
X291159Y5961D01*
X283231Y-5904D02*
X291159Y2024D01*
X287168Y-5904D02*
X291159Y-1913D01*
X433283Y41340D02*
X458530Y41448D01*
X433283Y37403D02*
X459469Y37511D01*
X433283Y33466D02*
X459469Y33574D01*
X433283Y29529D02*
X459469Y29637D01*
X433283Y25592D02*
X459469Y25700D01*
X433283Y21655D02*
X459469Y21763D01*
X433283Y17718D02*
X459469Y17826D01*
X433283Y13781D02*
X459469Y13889D01*
X433283Y9844D02*
X459469Y9952D01*
X433283Y5907D02*
X459469Y6015D01*
X433283Y1970D02*
X459469Y2078D01*
X433283Y-1967D02*
X459027Y-1859D01*
X429561Y44725D02*
X433284Y41002D01*
X425624Y44725D02*
X433284Y37065D01*
X421687Y44725D02*
X433284Y33128D01*
X417750Y44725D02*
X433284Y29191D01*
X413813Y44725D02*
X433284Y25254D01*
X409876Y44725D02*
X433284Y21317D01*
X405939Y44725D02*
X433284Y17380D01*
X402002Y44725D02*
X433284Y13443D01*
X398065Y44725D02*
X433284Y9506D01*
X394128Y44725D02*
X433284Y5569D01*
X390191Y44725D02*
X433284Y1632D01*
X386254Y44725D02*
X433284Y-2305D01*
X382317Y44725D02*
X432946Y-5904D01*
X378380Y44725D02*
X429009Y-5904D01*
X374443Y44725D02*
X425072Y-5904D01*
X370505Y44725D02*
X421135Y-5904D01*
X366568Y44725D02*
X417198Y-5904D01*
X362632Y44725D02*
X413261Y-5904D01*
X358695Y44725D02*
X409324Y-5904D01*
X354757Y44725D02*
X405387Y-5904D01*
X350820Y44725D02*
X401450Y-5904D01*
X346884Y44725D02*
X397513Y-5904D01*
X342947Y44725D02*
X393576Y-5904D01*
X339009Y44725D02*
X389639Y-5904D01*
X335072Y44725D02*
X385702Y-5904D01*
X331135Y44725D02*
X381765Y-5904D01*
X327198Y44725D02*
X377828Y-5904D01*
X323261Y44725D02*
X373891Y-5904D01*
X319324Y44725D02*
X369954Y-5904D01*
X315387Y44725D02*
X366017Y-5904D01*
X311450Y44725D02*
X362080Y-5904D01*
X307513Y44725D02*
X358143Y-5904D01*
X303576Y44725D02*
X354206Y-5904D01*
X299639Y44725D02*
X350269Y-5904D01*
X295702Y44725D02*
X346332Y-5904D01*
X291765Y44725D02*
X342395Y-5904D01*
X291159Y41394D02*
X338458Y-5904D01*
X291159Y37457D02*
X334521Y-5904D01*
X291159Y33520D02*
X330584Y-5904D01*
X291159Y29583D02*
X326646Y-5904D01*
X291159Y25646D02*
X322709Y-5904D01*
X291159Y21709D02*
X318773Y-5904D01*
X291159Y17772D02*
X314836Y-5904D01*
X291159Y13835D02*
X310898Y-5904D01*
X291159Y9898D02*
X306961Y-5904D01*
X291159Y5961D02*
X303025Y-5904D01*
X291159Y2024D02*
X299088Y-5904D01*
X291159Y-1913D02*
X295150Y-5904D01*
X560329Y97821D02*
X595129D01*
X560329Y89947D02*
X595129D01*
X560329Y82073D02*
X595129D01*
X560329Y74199D02*
X595129D01*
X560329Y66325D02*
X595129D01*
X560329Y58451D02*
X595129D01*
X560329Y50577D02*
X595129D01*
X557681Y101758D02*
X560329Y99109D01*
X553744Y101758D02*
X560329Y95172D01*
X549807Y101758D02*
X557681Y93884D01*
X545870Y101758D02*
X553744Y93884D01*
X541933Y101758D02*
X549807Y93884D01*
X537996Y101758D02*
X545870Y93884D01*
X534059Y101758D02*
X541933Y93884D01*
X530122Y101758D02*
X537996Y93884D01*
X526185Y101758D02*
X534059Y93884D01*
X526185Y97821D02*
X530122Y93884D01*
X557681D02*
X560329Y91235D01*
X553744Y93884D02*
X560329Y87298D01*
X549807Y93884D02*
X557681Y86010D01*
X545870Y93884D02*
X553744Y86010D01*
X541933Y93884D02*
X549807Y86010D01*
X537996Y93884D02*
X545870Y86010D01*
X534059Y93884D02*
X541933Y86010D01*
X530122Y93884D02*
X537996Y86010D01*
X526185Y93884D02*
X534059Y86010D01*
X526185Y89947D02*
X530122Y86010D01*
X557681D02*
X560329Y83361D01*
X553744Y86010D02*
X560329Y79424D01*
X549807Y86010D02*
X557681Y78136D01*
X545870Y86010D02*
X553744Y78136D01*
X541933Y86010D02*
X549807Y78136D01*
X537996Y86010D02*
X545870Y78136D01*
X534059Y86010D02*
X541933Y78136D01*
X530122Y86010D02*
X537996Y78136D01*
X526185Y86010D02*
X534059Y78136D01*
X526185Y82073D02*
X530122Y78136D01*
X557681D02*
X560329Y75487D01*
X553744Y78136D02*
X560329Y71550D01*
X549807Y78136D02*
X557681Y70262D01*
X545870Y78136D02*
X553744Y70262D01*
X541933Y78136D02*
X549807Y70262D01*
X537996Y78136D02*
X545870Y70262D01*
X534059Y78136D02*
X541933Y70262D01*
X530122Y78136D02*
X537996Y70262D01*
X526185Y78136D02*
X534059Y70262D01*
X526185Y74199D02*
X530122Y70262D01*
X557681D02*
X560329Y67613D01*
X553744Y70262D02*
X560329Y63676D01*
X549807Y70262D02*
X557681Y62388D01*
X545870Y70262D02*
X553744Y62388D01*
X541933Y70262D02*
X549807Y62388D01*
X537996Y70262D02*
X545870Y62388D01*
X534059Y70262D02*
X541933Y62388D01*
X530122Y70262D02*
X537996Y62388D01*
X526185Y70262D02*
X534059Y62388D01*
X526185Y66325D02*
X530122Y62388D01*
X557681D02*
X560329Y59739D01*
X553744Y62388D02*
X560329Y55802D01*
X549807Y62388D02*
X557681Y54514D01*
X545870Y62388D02*
X553744Y54514D01*
X541933Y62388D02*
X549807Y54514D01*
X537996Y62388D02*
X545870Y54514D01*
X534059Y62388D02*
X541933Y54514D01*
X530122Y62388D02*
X537996Y54514D01*
X526185Y62388D02*
X534059Y54514D01*
X526185Y58451D02*
X530122Y54514D01*
X557681D02*
X560329Y51865D01*
X553744Y54514D02*
X560329Y47928D01*
X549807Y54514D02*
X557681Y46639D01*
X545870Y54514D02*
X553744Y46639D01*
X541933Y54514D02*
X549807Y46639D01*
X537996Y54514D02*
X545870Y46639D01*
X534059Y54514D02*
X541933Y46639D01*
X530122Y54514D02*
X537996Y46639D01*
X526185Y54514D02*
X534059Y46639D01*
X526185Y50577D02*
X530122Y46639D01*
X492040Y99109D02*
X494689Y101758D01*
X492040Y95172D02*
X498626Y101758D01*
X494689Y93884D02*
X502563Y101758D01*
X498626Y93884D02*
X506500Y101758D01*
X502563Y93884D02*
X510437Y101758D01*
X506500Y93884D02*
X514374Y101758D01*
X510437Y93884D02*
X518311Y101758D01*
X514374Y93884D02*
X522248Y101758D01*
X518311Y93884D02*
X526185Y101758D01*
X522248Y93884D02*
X526185Y97821D01*
X492040Y91235D02*
X494689Y93884D01*
X492040Y87298D02*
X498626Y93884D01*
X494689Y86010D02*
X502563Y93884D01*
X498626Y86010D02*
X506500Y93884D01*
X502563Y86010D02*
X510437Y93884D01*
X506500Y86010D02*
X514374Y93884D01*
X510437Y86010D02*
X518311Y93884D01*
X514374Y86010D02*
X522248Y93884D01*
X518311Y86010D02*
X526185Y93884D01*
X522248Y86010D02*
X526185Y89947D01*
X492040Y83361D02*
X494689Y86010D01*
X492040Y79424D02*
X498626Y86010D01*
X494689Y78136D02*
X502563Y86010D01*
X498626Y78136D02*
X506500Y86010D01*
X502563Y78136D02*
X510437Y86010D01*
X506500Y78136D02*
X514374Y86010D01*
X510437Y78136D02*
X518311Y86010D01*
X514374Y78136D02*
X522248Y86010D01*
X518311Y78136D02*
X526185Y86010D01*
X522248Y78136D02*
X526185Y82073D01*
X492040Y75487D02*
X494689Y78136D01*
X492040Y71550D02*
X498626Y78136D01*
X494689Y70262D02*
X502563Y78136D01*
X498626Y70262D02*
X506500Y78136D01*
X502563Y70262D02*
X510437Y78136D01*
X506500Y70262D02*
X514374Y78136D01*
X510437Y70262D02*
X518311Y78136D01*
X514374Y70262D02*
X522248Y78136D01*
X518311Y70262D02*
X526185Y78136D01*
X522248Y70262D02*
X526185Y74199D01*
X492040Y67613D02*
X494689Y70262D01*
X492040Y63676D02*
X498626Y70262D01*
X494689Y62388D02*
X502563Y70262D01*
X498626Y62388D02*
X506500Y70262D01*
X502563Y62388D02*
X510437Y70262D01*
X506500Y62388D02*
X514374Y70262D01*
X510437Y62388D02*
X518311Y70262D01*
X514374Y62388D02*
X522248Y70262D01*
X518311Y62388D02*
X526185Y70262D01*
X522248Y62388D02*
X526185Y66325D01*
X492040Y59739D02*
X494689Y62388D01*
X492040Y55802D02*
X498626Y62388D01*
X494689Y54514D02*
X502563Y62388D01*
X498626Y54514D02*
X506500Y62388D01*
X502563Y54514D02*
X510437Y62388D01*
X506500Y54514D02*
X514374Y62388D01*
X510437Y54514D02*
X518311Y62388D01*
X514374Y54514D02*
X522248Y62388D01*
X518311Y54514D02*
X526185Y62388D01*
X522248Y54514D02*
X526185Y58451D01*
X492040Y51865D02*
X494689Y54514D01*
X492040Y47928D02*
X498626Y54514D01*
X494689Y46639D02*
X502563Y54514D01*
X498626Y46639D02*
X506500Y54514D01*
X502563Y46639D02*
X510437Y54514D01*
X506500Y46639D02*
X514374Y54514D01*
X510437Y46639D02*
X518311Y54514D01*
X514374Y46639D02*
X522248Y54514D01*
X518311Y46639D02*
X526185Y54514D01*
X522248Y46639D02*
X526185Y50577D01*
D15*
X291159Y-5850D02*
Y44671D01*
X268799D02*
X291159D01*
X268748D02*
X268799D01*
X268651Y44635D02*
X268748Y44671D01*
X268573Y44567D02*
X268651Y44635D01*
X268523Y44477D02*
X268573Y44567D01*
X268516Y44426D02*
X268523Y44477D01*
X264495Y40405D02*
X268516Y44426D01*
X264444Y40398D02*
X264495Y40405D01*
X264354Y40348D02*
X264444Y40398D01*
X264286Y40270D02*
X264354Y40348D01*
X264250Y40174D02*
X264286Y40270D01*
X264250Y40122D02*
Y40174D01*
Y-1409D02*
Y40122D01*
Y-1409D02*
X264261Y-1465D01*
X264283Y-1517D01*
X264334Y-1584D01*
X268536Y-5786D01*
X268583Y-5817D01*
X268635Y-5839D01*
X268719Y-5850D01*
X291159D01*
X433283D02*
Y44671D01*
Y-5850D02*
X454955D01*
X455024Y-5833D01*
X455086Y-5799D01*
X455158Y-5722D01*
X455203Y-5686D01*
X459328Y-1557D01*
X459370Y-1520D01*
X459418Y-1467D01*
X459452Y-1405D01*
X459469Y-1301D01*
Y40311D01*
X459458Y40366D02*
X459469Y40311D01*
X459436Y40418D02*
X459458Y40366D01*
X459385Y40485D02*
X459436Y40418D01*
X455263Y44607D02*
X459385Y40485D01*
X455216Y44638D02*
X455263Y44607D01*
X455164Y44660D02*
X455216Y44638D01*
X455081Y44671D02*
X455164Y44660D01*
X433283Y44671D02*
X455081D01*
X433284Y-5850D02*
Y44671D01*
X291159D02*
X433284D01*
X291159Y-5850D02*
Y44671D01*
Y-5850D02*
X433284D01*
X595129Y46639D02*
Y109632D01*
X560329Y93884D02*
X595129D01*
X560329Y86010D02*
X595129D01*
X560329Y78136D02*
X595129D01*
X560329Y70262D02*
X595129D01*
X560329Y62388D02*
X595129D01*
X560329Y54514D02*
X595129D01*
X560329Y46639D02*
X595129D01*
X560329D02*
Y109632D01*
X526185Y93884D02*
X560329D01*
X526185Y86010D02*
X560329D01*
X526185Y78136D02*
X560329D01*
X526185Y70262D02*
X560329D01*
X526185Y62388D02*
X560329D01*
X526185Y54514D02*
X560329D01*
X526185Y46639D02*
X560329D01*
X526185D02*
Y109632D01*
X492040Y93884D02*
X526185D01*
X492040Y86010D02*
X526185D01*
X492040Y78136D02*
X526185D01*
X492040Y70262D02*
X526185D01*
X492040Y62388D02*
X526185D01*
X492040Y54514D02*
X526185D01*
X492040Y46639D02*
X526185D01*
X492040D02*
Y109632D01*
X453960Y93884D02*
X492040D01*
X453960Y86010D02*
X492040D01*
X453960Y78136D02*
X492040D01*
X453960Y70262D02*
X492040D01*
X453960Y62388D02*
X492040D01*
X453960Y54514D02*
X492040D01*
X453960Y46639D02*
X492040D01*
X453960D02*
Y109632D01*
X410632Y93884D02*
X453960D01*
X410632Y86010D02*
X453960D01*
X410632Y78136D02*
X453960D01*
X410632Y70262D02*
X453960D01*
X410632Y62388D02*
X453960D01*
X410632Y54514D02*
X453960D01*
X410632Y46639D02*
X453960D01*
X410632D02*
Y109632D01*
X353530Y93884D02*
X410632D01*
X353530Y86010D02*
X410632D01*
X353530Y78136D02*
X410632D01*
X353530Y70262D02*
X410632D01*
X353530Y62388D02*
X410632D01*
X353530Y54514D02*
X410632D01*
X353530Y46639D02*
X410632D01*
X353530D02*
Y109632D01*
X291835Y93884D02*
X353530D01*
X291835Y86010D02*
X353530D01*
X291835Y78136D02*
X353530D01*
X291835Y70262D02*
X353530D01*
X291835Y62388D02*
X353530D01*
X291835Y54514D02*
X353530D01*
X291835Y46639D02*
X353530D01*
X291835D02*
Y109632D01*
X264250Y93884D02*
X291835D01*
X264250Y86010D02*
X291835D01*
X264250Y78136D02*
X291835D01*
X264250Y70262D02*
X291835D01*
X264250Y62388D02*
X291835D01*
X264250Y54514D02*
X291835D01*
X264250Y46639D02*
X291835D01*
X264250D02*
Y109632D01*
X595129D01*
X264250Y101758D02*
X595129D01*
D16*
X212047Y6372D02*
Y12967D01*
Y6372D02*
X218346D01*
X231020Y6280D02*
X237320D01*
Y12874D01*
X231020Y59724D02*
X237320D01*
Y53130D02*
Y59724D01*
X212113Y59426D02*
X218412D01*
X212113Y52831D02*
Y59426D01*
D17*
X564266Y103726D02*
Y107662D01*
X566234D01*
X566890Y107006D01*
Y105694D01*
X566234Y105038D01*
X564266D01*
X565578D02*
X566890Y103726D01*
X568202D02*
X569514D01*
X568858D01*
Y106350D01*
X568202D01*
X572794Y102414D02*
X573450D01*
X574106Y103070D01*
Y106350D01*
X572138D01*
X571482Y105694D01*
Y104382D01*
X572138Y103726D01*
X574106D01*
X575417D02*
X576729D01*
X576073D01*
Y106350D01*
X575417D01*
X581321Y107662D02*
Y103726D01*
X579353D01*
X578697Y104382D01*
Y105694D01*
X579353Y106350D01*
X581321D01*
X589192Y103726D02*
X586569D01*
X589192Y106350D01*
Y107006D01*
X588537Y107662D01*
X587225D01*
X586569Y107006D01*
X532746Y107662D02*
X530122D01*
Y105694D01*
X531434D01*
X530122D01*
Y103726D01*
X534058D02*
X535369D01*
X534713D01*
Y107662D01*
X534058D01*
X539305Y103726D02*
X537993D01*
X537337Y104382D01*
Y105694D01*
X537993Y106350D01*
X539305D01*
X539961Y105694D01*
Y105038D01*
X537337D01*
X541273Y106350D02*
X543897Y103726D01*
X542585Y105038D01*
X543897Y106350D01*
X541273Y103726D01*
X495977D02*
Y107662D01*
X497945D01*
X498601Y107006D01*
Y105694D01*
X497945Y105038D01*
X495977D01*
X497289D02*
X498601Y103726D01*
X499913D02*
X501225D01*
X500569D01*
Y106350D01*
X499913D01*
X504505Y102414D02*
X505161D01*
X505817Y103070D01*
Y106350D01*
X503849D01*
X503193Y105694D01*
Y104382D01*
X503849Y103726D01*
X505817D01*
X507129D02*
X508440D01*
X507785D01*
Y106350D01*
X507129D01*
X513032Y107662D02*
Y103726D01*
X511064D01*
X510408Y104382D01*
Y105694D01*
X511064Y106350D01*
X513032D01*
X518280Y103726D02*
X519592D01*
X518936D01*
Y107662D01*
X518280Y107006D01*
X457897Y91258D02*
X458553Y91914D01*
X459865D01*
X460521Y91258D01*
Y90602D01*
X459865Y89946D01*
X459209D01*
X459865D01*
X460521Y89290D01*
Y88634D01*
X459865Y87978D01*
X458553D01*
X457897Y88634D01*
X462489Y87322D02*
X463145Y87978D01*
Y88634D01*
X462489D01*
Y87978D01*
X463145D01*
X462489Y87322D01*
X461833Y86666D01*
X468393Y91914D02*
X465769D01*
Y89946D01*
X467081Y90602D01*
X467736D01*
X468393Y89946D01*
Y88634D01*
X467736Y87978D01*
X466425D01*
X465769Y88634D01*
X459865Y72230D02*
Y76166D01*
X457897Y74198D01*
X460521D01*
X462489Y71574D02*
X463145Y72230D01*
Y72886D01*
X462489D01*
Y72230D01*
X463145D01*
X462489Y71574D01*
X461833Y70918D01*
X465769Y75510D02*
X466425Y76166D01*
X467736D01*
X468393Y75510D01*
Y74854D01*
X467736Y74198D01*
X468393Y73542D01*
Y72886D01*
X467736Y72230D01*
X466425D01*
X465769Y72886D01*
Y73542D01*
X466425Y74198D01*
X465769Y74854D01*
Y75510D01*
X466425Y74198D02*
X467736D01*
X457897Y59762D02*
X458553Y60418D01*
X459865D01*
X460521Y59762D01*
Y59106D01*
X459865Y58450D01*
X459209D01*
X459865D01*
X460521Y57794D01*
Y57138D01*
X459865Y56482D01*
X458553D01*
X457897Y57138D01*
X462489Y55826D02*
X463145Y56482D01*
Y57138D01*
X462489D01*
Y56482D01*
X463145D01*
X462489Y55826D01*
X461833Y55170D01*
X468393Y60418D02*
X465769D01*
Y58450D01*
X467081Y59106D01*
X467736D01*
X468393Y58450D01*
Y57138D01*
X467736Y56482D01*
X466425D01*
X465769Y57138D01*
X460521Y107006D02*
X459865Y107662D01*
X458553D01*
X457897Y107006D01*
Y104382D01*
X458553Y103726D01*
X459865D01*
X460521Y104382D01*
X462489Y103726D02*
X463801D01*
X464457Y104382D01*
Y105694D01*
X463801Y106350D01*
X462489D01*
X461833Y105694D01*
Y104382D01*
X462489Y103726D01*
X465769D02*
Y106350D01*
X467736D01*
X468393Y105694D01*
Y103726D01*
X469704D02*
X471672D01*
X472328Y104382D01*
X471672Y105038D01*
X470360D01*
X469704Y105694D01*
X470360Y106350D01*
X472328D01*
X474296Y107006D02*
Y106350D01*
X473640D01*
X474952D01*
X474296D01*
Y104382D01*
X474952Y103726D01*
X477576Y106350D02*
X478888D01*
X479544Y105694D01*
Y103726D01*
X477576D01*
X476920Y104382D01*
X477576Y105038D01*
X479544D01*
X480856Y103726D02*
Y106350D01*
X482824D01*
X483479Y105694D01*
Y103726D01*
X485447Y107006D02*
Y106350D01*
X484791D01*
X486103D01*
X485447D01*
Y104382D01*
X486103Y103726D01*
X414569Y91258D02*
X415225Y91914D01*
X416537D01*
X417193Y91258D01*
Y88634D01*
X416537Y87978D01*
X415225D01*
X414569Y88634D01*
Y91258D01*
X419161Y87322D02*
X419817Y87978D01*
Y88634D01*
X419161D01*
Y87978D01*
X419817D01*
X419161Y87322D01*
X418505Y86666D01*
X422441Y91258D02*
X423097Y91914D01*
X424409D01*
X425065Y91258D01*
Y88634D01*
X424409Y87978D01*
X423097D01*
X422441Y88634D01*
Y91258D01*
X426377Y87978D02*
X427689D01*
X427033D01*
Y91914D01*
X426377Y91258D01*
X429656D02*
X430312Y91914D01*
X431624D01*
X432280Y91258D01*
Y88634D01*
X431624Y87978D01*
X430312D01*
X429656Y88634D01*
Y91258D01*
X433592Y87978D02*
Y90602D01*
X434248D01*
X434904Y89946D01*
Y87978D01*
Y89946D01*
X435560Y90602D01*
X436216Y89946D01*
Y87978D01*
X437528D02*
Y90602D01*
X438184D01*
X438840Y89946D01*
Y87978D01*
Y89946D01*
X439496Y90602D01*
X440152Y89946D01*
Y87978D01*
X414569Y83384D02*
X415225Y84040D01*
X416537D01*
X417193Y83384D01*
Y80760D01*
X416537Y80104D01*
X415225D01*
X414569Y80760D01*
Y83384D01*
X419161Y79448D02*
X419817Y80104D01*
Y80760D01*
X419161D01*
Y80104D01*
X419817D01*
X419161Y79448D01*
X418505Y78792D01*
X422441Y83384D02*
X423097Y84040D01*
X424409D01*
X425065Y83384D01*
Y80760D01*
X424409Y80104D01*
X423097D01*
X422441Y80760D01*
Y83384D01*
X426377D02*
X427033Y84040D01*
X428344D01*
X429000Y83384D01*
Y82728D01*
X428344Y82072D01*
X427689D01*
X428344D01*
X429000Y81416D01*
Y80760D01*
X428344Y80104D01*
X427033D01*
X426377Y80760D01*
X432936Y84040D02*
X431624Y83384D01*
X430312Y82072D01*
Y80760D01*
X430968Y80104D01*
X432280D01*
X432936Y80760D01*
Y81416D01*
X432280Y82072D01*
X430312D01*
X434248Y80104D02*
Y82728D01*
X434904D01*
X435560Y82072D01*
Y80104D01*
Y82072D01*
X436216Y82728D01*
X436872Y82072D01*
Y80104D01*
X438184D02*
Y82728D01*
X438840D01*
X439496Y82072D01*
Y80104D01*
Y82072D01*
X440152Y82728D01*
X440808Y82072D01*
Y80104D01*
X414569Y75510D02*
X415225Y76166D01*
X416537D01*
X417193Y75510D01*
Y72886D01*
X416537Y72230D01*
X415225D01*
X414569Y72886D01*
Y75510D01*
X419161Y71574D02*
X419817Y72230D01*
Y72886D01*
X419161D01*
Y72230D01*
X419817D01*
X419161Y71574D01*
X418505Y70918D01*
X422441Y75510D02*
X423097Y76166D01*
X424409D01*
X425065Y75510D01*
Y74854D01*
X424409Y74198D01*
X423753D01*
X424409D01*
X425065Y73542D01*
Y72886D01*
X424409Y72230D01*
X423097D01*
X422441Y72886D01*
X429000Y72230D02*
X426377D01*
X429000Y74854D01*
Y75510D01*
X428344Y76166D01*
X427033D01*
X426377Y75510D01*
X430312D02*
X430968Y76166D01*
X432280D01*
X432936Y75510D01*
Y72886D01*
X432280Y72230D01*
X430968D01*
X430312Y72886D01*
Y75510D01*
X434248Y72230D02*
Y74854D01*
X434904D01*
X435560Y74198D01*
Y72230D01*
Y74198D01*
X436216Y74854D01*
X436872Y74198D01*
Y72230D01*
X438184D02*
Y74854D01*
X438840D01*
X439496Y74198D01*
Y72230D01*
Y74198D01*
X440152Y74854D01*
X440808Y74198D01*
Y72230D01*
X414569Y67636D02*
X415225Y68292D01*
X416537D01*
X417193Y67636D01*
Y65012D01*
X416537Y64356D01*
X415225D01*
X414569Y65012D01*
Y67636D01*
X419161Y63700D02*
X419817Y64356D01*
Y65012D01*
X419161D01*
Y64356D01*
X419817D01*
X419161Y63700D01*
X418505Y63044D01*
X422441Y67636D02*
X423097Y68292D01*
X424409D01*
X425065Y67636D01*
Y65012D01*
X424409Y64356D01*
X423097D01*
X422441Y65012D01*
Y67636D01*
X426377D02*
X427033Y68292D01*
X428344D01*
X429000Y67636D01*
Y66980D01*
X428344Y66324D01*
X427689D01*
X428344D01*
X429000Y65668D01*
Y65012D01*
X428344Y64356D01*
X427033D01*
X426377Y65012D01*
X432936Y68292D02*
X431624Y67636D01*
X430312Y66324D01*
Y65012D01*
X430968Y64356D01*
X432280D01*
X432936Y65012D01*
Y65668D01*
X432280Y66324D01*
X430312D01*
X434248Y64356D02*
Y66980D01*
X434904D01*
X435560Y66324D01*
Y64356D01*
Y66324D01*
X436216Y66980D01*
X436872Y66324D01*
Y64356D01*
X438184D02*
Y66980D01*
X438840D01*
X439496Y66324D01*
Y64356D01*
Y66324D01*
X440152Y66980D01*
X440808Y66324D01*
Y64356D01*
X414569Y59762D02*
X415225Y60418D01*
X416537D01*
X417193Y59762D01*
Y57138D01*
X416537Y56482D01*
X415225D01*
X414569Y57138D01*
Y59762D01*
X419161Y55826D02*
X419817Y56482D01*
Y57138D01*
X419161D01*
Y56482D01*
X419817D01*
X419161Y55826D01*
X418505Y55170D01*
X422441Y59762D02*
X423097Y60418D01*
X424409D01*
X425065Y59762D01*
Y57138D01*
X424409Y56482D01*
X423097D01*
X422441Y57138D01*
Y59762D01*
X426377Y56482D02*
X427689D01*
X427033D01*
Y60418D01*
X426377Y59762D01*
X429656D02*
X430312Y60418D01*
X431624D01*
X432280Y59762D01*
Y57138D01*
X431624Y56482D01*
X430312D01*
X429656Y57138D01*
Y59762D01*
X433592Y56482D02*
Y59106D01*
X434248D01*
X434904Y58450D01*
Y56482D01*
Y58450D01*
X435560Y59106D01*
X436216Y58450D01*
Y56482D01*
X437528D02*
Y59106D01*
X438184D01*
X438840Y58450D01*
Y56482D01*
Y58450D01*
X439496Y59106D01*
X440152Y58450D01*
Y56482D01*
X414569Y107662D02*
X417193D01*
X415881D01*
Y103726D01*
X418505Y107662D02*
Y103726D01*
Y105694D01*
X419161Y106350D01*
X420473D01*
X421129Y105694D01*
Y103726D01*
X422441D02*
X423753D01*
X423097D01*
Y106350D01*
X422441D01*
X428344D02*
X426377D01*
X425721Y105694D01*
Y104382D01*
X426377Y103726D01*
X428344D01*
X429656D02*
Y107662D01*
Y105038D02*
X431624Y106350D01*
X429656Y105038D02*
X431624Y103726D01*
X433592D02*
Y106350D01*
X435560D01*
X436216Y105694D01*
Y103726D01*
X439496D02*
X438184D01*
X437528Y104382D01*
Y105694D01*
X438184Y106350D01*
X439496D01*
X440152Y105694D01*
Y105038D01*
X437528D01*
X441464Y103726D02*
X443432D01*
X444087Y104382D01*
X443432Y105038D01*
X442120D01*
X441464Y105694D01*
X442120Y106350D01*
X444087D01*
X445399Y103726D02*
X447367D01*
X448023Y104382D01*
X447367Y105038D01*
X446055D01*
X445399Y105694D01*
X446055Y106350D01*
X448023D01*
X360090Y91258D02*
X359434Y91914D01*
X358122D01*
X357467Y91258D01*
Y90602D01*
X358122Y89946D01*
X359434D01*
X360090Y89290D01*
Y88634D01*
X359434Y87978D01*
X358122D01*
X357467Y88634D01*
X362058Y87978D02*
X363370D01*
X364026Y88634D01*
Y89946D01*
X363370Y90602D01*
X362058D01*
X361402Y89946D01*
Y88634D01*
X362058Y87978D01*
X365338D02*
X366650D01*
X365994D01*
Y91914D01*
X365338D01*
X371242D02*
Y87978D01*
X369274D01*
X368618Y88634D01*
Y89946D01*
X369274Y90602D01*
X371242D01*
X374521Y87978D02*
X373209D01*
X372553Y88634D01*
Y89946D01*
X373209Y90602D01*
X374521D01*
X375177Y89946D01*
Y89290D01*
X372553D01*
X376489Y90602D02*
Y87978D01*
Y89290D01*
X377145Y89946D01*
X377801Y90602D01*
X378457D01*
X384361Y87978D02*
Y91914D01*
X386329D01*
X386984Y91258D01*
Y89946D01*
X386329Y89290D01*
X384361D01*
X385673D02*
X386984Y87978D01*
X390264D02*
X388952D01*
X388296Y88634D01*
Y89946D01*
X388952Y90602D01*
X390264D01*
X390920Y89946D01*
Y89290D01*
X388296D01*
X392232Y87978D02*
X394200D01*
X394856Y88634D01*
X394200Y89290D01*
X392888D01*
X392232Y89946D01*
X392888Y90602D01*
X394856D01*
X396168Y87978D02*
X397480D01*
X396824D01*
Y90602D01*
X396168D01*
X399448Y87978D02*
X401416D01*
X402072Y88634D01*
X401416Y89290D01*
X400104D01*
X399448Y89946D01*
X400104Y90602D01*
X402072D01*
X404039Y91258D02*
Y90602D01*
X403383D01*
X404695D01*
X404039D01*
Y88634D01*
X404695Y87978D01*
X360090Y83384D02*
X359434Y84040D01*
X358122D01*
X357467Y83384D01*
Y80760D01*
X358122Y80104D01*
X359434D01*
X360090Y80760D01*
X362058Y80104D02*
X363370D01*
X364026Y80760D01*
Y82072D01*
X363370Y82728D01*
X362058D01*
X361402Y82072D01*
Y80760D01*
X362058Y80104D01*
X365338Y78792D02*
Y82728D01*
X367306D01*
X367962Y82072D01*
Y80760D01*
X367306Y80104D01*
X365338D01*
X369274Y78792D02*
Y82728D01*
X371242D01*
X371898Y82072D01*
Y80760D01*
X371242Y80104D01*
X369274D01*
X375177D02*
X373865D01*
X373209Y80760D01*
Y82072D01*
X373865Y82728D01*
X375177D01*
X375833Y82072D01*
Y81416D01*
X373209D01*
X377145Y82728D02*
Y80104D01*
Y81416D01*
X377801Y82072D01*
X378457Y82728D01*
X379113D01*
X360090Y76166D02*
X357467D01*
Y74198D01*
X358778D01*
X357467D01*
Y72230D01*
X361402D02*
Y76166D01*
X363370D01*
X364026Y75510D01*
Y74198D01*
X363370Y73542D01*
X361402D01*
X362714D02*
X364026Y72230D01*
X365338Y74198D02*
X367962D01*
X371242Y72230D02*
Y76166D01*
X369274Y74198D01*
X371898D01*
X360090Y67636D02*
X359434Y68292D01*
X358122D01*
X357467Y67636D01*
Y65012D01*
X358122Y64356D01*
X359434D01*
X360090Y65012D01*
X362058Y64356D02*
X363370D01*
X364026Y65012D01*
Y66324D01*
X363370Y66980D01*
X362058D01*
X361402Y66324D01*
Y65012D01*
X362058Y64356D01*
X365338Y63044D02*
Y66980D01*
X367306D01*
X367962Y66324D01*
Y65012D01*
X367306Y64356D01*
X365338D01*
X369274Y63044D02*
Y66980D01*
X371242D01*
X371898Y66324D01*
Y65012D01*
X371242Y64356D01*
X369274D01*
X375177D02*
X373865D01*
X373209Y65012D01*
Y66324D01*
X373865Y66980D01*
X375177D01*
X375833Y66324D01*
Y65668D01*
X373209D01*
X377145Y66980D02*
Y64356D01*
Y65668D01*
X377801Y66324D01*
X378457Y66980D01*
X379113D01*
X360090Y59762D02*
X359434Y60418D01*
X358122D01*
X357467Y59762D01*
Y59106D01*
X358122Y58450D01*
X359434D01*
X360090Y57794D01*
Y57138D01*
X359434Y56482D01*
X358122D01*
X357467Y57138D01*
X362058Y56482D02*
X363370D01*
X364026Y57138D01*
Y58450D01*
X363370Y59106D01*
X362058D01*
X361402Y58450D01*
Y57138D01*
X362058Y56482D01*
X365338D02*
X366650D01*
X365994D01*
Y60418D01*
X365338D01*
X371242D02*
Y56482D01*
X369274D01*
X368618Y57138D01*
Y58450D01*
X369274Y59106D01*
X371242D01*
X374521Y56482D02*
X373209D01*
X372553Y57138D01*
Y58450D01*
X373209Y59106D01*
X374521D01*
X375177Y58450D01*
Y57794D01*
X372553D01*
X376489Y59106D02*
Y56482D01*
Y57794D01*
X377145Y58450D01*
X377801Y59106D01*
X378457D01*
X384361Y56482D02*
Y60418D01*
X386329D01*
X386984Y59762D01*
Y58450D01*
X386329Y57794D01*
X384361D01*
X385673D02*
X386984Y56482D01*
X390264D02*
X388952D01*
X388296Y57138D01*
Y58450D01*
X388952Y59106D01*
X390264D01*
X390920Y58450D01*
Y57794D01*
X388296D01*
X392232Y56482D02*
X394200D01*
X394856Y57138D01*
X394200Y57794D01*
X392888D01*
X392232Y58450D01*
X392888Y59106D01*
X394856D01*
X396168Y56482D02*
X397480D01*
X396824D01*
Y59106D01*
X396168D01*
X399448Y56482D02*
X401416D01*
X402072Y57138D01*
X401416Y57794D01*
X400104D01*
X399448Y58450D01*
X400104Y59106D01*
X402072D01*
X404039Y59762D02*
Y59106D01*
X403383D01*
X404695D01*
X404039D01*
Y57138D01*
X404695Y56482D01*
X357467Y103726D02*
Y107662D01*
X358778Y106350D01*
X360090Y107662D01*
Y103726D01*
X362058Y106350D02*
X363370D01*
X364026Y105694D01*
Y103726D01*
X362058D01*
X361402Y104382D01*
X362058Y105038D01*
X364026D01*
X365994Y107006D02*
Y106350D01*
X365338D01*
X366650D01*
X365994D01*
Y104382D01*
X366650Y103726D01*
X370586D02*
X369274D01*
X368618Y104382D01*
Y105694D01*
X369274Y106350D01*
X370586D01*
X371242Y105694D01*
Y105038D01*
X368618D01*
X372553Y106350D02*
Y103726D01*
Y105038D01*
X373209Y105694D01*
X373865Y106350D01*
X374521D01*
X376489Y103726D02*
X377801D01*
X377145D01*
Y106350D01*
X376489D01*
X380425D02*
X381737D01*
X382393Y105694D01*
Y103726D01*
X380425D01*
X379769Y104382D01*
X380425Y105038D01*
X382393D01*
X383705Y103726D02*
X385017D01*
X384361D01*
Y107662D01*
X383705D01*
X295772Y99788D02*
X298396D01*
X297084D01*
Y95852D01*
X300364D02*
X301676D01*
X302331Y96508D01*
Y97820D01*
X301676Y98476D01*
X300364D01*
X299708Y97820D01*
Y96508D01*
X300364Y95852D01*
X303643Y94540D02*
Y98476D01*
X305611D01*
X306267Y97820D01*
Y96508D01*
X305611Y95852D01*
X303643D01*
X313483Y99788D02*
X312171D01*
X311515Y99132D01*
Y96508D01*
X312171Y95852D01*
X313483D01*
X314139Y96508D01*
Y99132D01*
X313483Y99788D01*
X315451Y98476D02*
X316762Y95852D01*
X318074Y98476D01*
X321354Y95852D02*
X320042D01*
X319386Y96508D01*
Y97820D01*
X320042Y98476D01*
X321354D01*
X322010Y97820D01*
Y97164D01*
X319386D01*
X323322Y98476D02*
Y95852D01*
Y97164D01*
X323978Y97820D01*
X324634Y98476D01*
X325290D01*
X327258Y95852D02*
X328570D01*
X327914D01*
Y99788D01*
X327258D01*
X331194Y98476D02*
X332505D01*
X333161Y97820D01*
Y95852D01*
X331194D01*
X330538Y96508D01*
X331194Y97164D01*
X333161D01*
X334473Y98476D02*
Y96508D01*
X335129Y95852D01*
X337097D01*
Y95196D01*
X336441Y94540D01*
X335785D01*
X337097Y95852D02*
Y98476D01*
X295772Y91914D02*
X298396D01*
X297084D01*
Y87978D01*
X300364D02*
X301676D01*
X302331Y88634D01*
Y89946D01*
X301676Y90602D01*
X300364D01*
X299708Y89946D01*
Y88634D01*
X300364Y87978D01*
X303643Y86666D02*
Y90602D01*
X305611D01*
X306267Y89946D01*
Y88634D01*
X305611Y87978D01*
X303643D01*
X314139Y91258D02*
X313483Y91914D01*
X312171D01*
X311515Y91258D01*
Y90602D01*
X312171Y89946D01*
X313483D01*
X314139Y89290D01*
Y88634D01*
X313483Y87978D01*
X312171D01*
X311515Y88634D01*
X316107Y87978D02*
X317419D01*
X318074Y88634D01*
Y89946D01*
X317419Y90602D01*
X316107D01*
X315451Y89946D01*
Y88634D01*
X316107Y87978D01*
X319386D02*
X320698D01*
X320042D01*
Y91914D01*
X319386D01*
X325290D02*
Y87978D01*
X323322D01*
X322666Y88634D01*
Y89946D01*
X323322Y90602D01*
X325290D01*
X328570Y87978D02*
X327258D01*
X326602Y88634D01*
Y89946D01*
X327258Y90602D01*
X328570D01*
X329226Y89946D01*
Y89290D01*
X326602D01*
X330538Y90602D02*
Y87978D01*
Y89290D01*
X331194Y89946D01*
X331850Y90602D01*
X332505D01*
X295772Y84040D02*
X298396D01*
X297084D01*
Y80104D01*
X300364D02*
X301676D01*
X302331Y80760D01*
Y82072D01*
X301676Y82728D01*
X300364D01*
X299708Y82072D01*
Y80760D01*
X300364Y80104D01*
X303643Y78792D02*
Y82728D01*
X305611D01*
X306267Y82072D01*
Y80760D01*
X305611Y80104D01*
X303643D01*
X311515Y84040D02*
Y80104D01*
X314139D01*
X316107Y82728D02*
X317419D01*
X318074Y82072D01*
Y80104D01*
X316107D01*
X315451Y80760D01*
X316107Y81416D01*
X318074D01*
X319386Y82728D02*
Y80760D01*
X320042Y80104D01*
X322010D01*
Y79448D01*
X321354Y78792D01*
X320698D01*
X322010Y80104D02*
Y82728D01*
X325290Y80104D02*
X323978D01*
X323322Y80760D01*
Y82072D01*
X323978Y82728D01*
X325290D01*
X325946Y82072D01*
Y81416D01*
X323322D01*
X327258Y82728D02*
Y80104D01*
Y81416D01*
X327914Y82072D01*
X328570Y82728D01*
X329226D01*
X295772Y76166D02*
Y72230D01*
X297740D01*
X298396Y72886D01*
Y75510D01*
X297740Y76166D01*
X295772D01*
X299708Y72230D02*
X301020D01*
X300364D01*
Y74854D01*
X299708D01*
X304955Y72230D02*
X303643D01*
X302987Y72886D01*
Y74198D01*
X303643Y74854D01*
X304955D01*
X305611Y74198D01*
Y73542D01*
X302987D01*
X306923Y72230D02*
X308235D01*
X307579D01*
Y76166D01*
X306923D01*
X312171Y72230D02*
X310859D01*
X310203Y72886D01*
Y74198D01*
X310859Y74854D01*
X312171D01*
X312827Y74198D01*
Y73542D01*
X310203D01*
X316762Y74854D02*
X314795D01*
X314139Y74198D01*
Y72886D01*
X314795Y72230D01*
X316762D01*
X318730Y75510D02*
Y74854D01*
X318074D01*
X319386D01*
X318730D01*
Y72886D01*
X319386Y72230D01*
X321354Y74854D02*
Y72230D01*
Y73542D01*
X322010Y74198D01*
X322666Y74854D01*
X323322D01*
X325290Y72230D02*
X326602D01*
X325946D01*
Y74854D01*
X325290D01*
X331193D02*
X329226D01*
X328570Y74198D01*
Y72886D01*
X329226Y72230D01*
X331193D01*
X336441D02*
X337753D01*
X337097D01*
Y76166D01*
X336441Y75510D01*
X295772Y68292D02*
Y64356D01*
X297740D01*
X298396Y65012D01*
Y65668D01*
X297740Y66324D01*
X295772D01*
X297740D01*
X298396Y66980D01*
Y67636D01*
X297740Y68292D01*
X295772D01*
X300364Y64356D02*
X301676D01*
X302331Y65012D01*
Y66324D01*
X301676Y66980D01*
X300364D01*
X299708Y66324D01*
Y65012D01*
X300364Y64356D01*
X304299Y67636D02*
Y66980D01*
X303643D01*
X304955D01*
X304299D01*
Y65012D01*
X304955Y64356D01*
X307579Y67636D02*
Y66980D01*
X306923D01*
X308235D01*
X307579D01*
Y65012D01*
X308235Y64356D01*
X310859D02*
X312171D01*
X312827Y65012D01*
Y66324D01*
X312171Y66980D01*
X310859D01*
X310203Y66324D01*
Y65012D01*
X310859Y64356D01*
X314139D02*
Y66980D01*
X314795D01*
X315451Y66324D01*
Y64356D01*
Y66324D01*
X316107Y66980D01*
X316762Y66324D01*
Y64356D01*
X322010Y68292D02*
Y64356D01*
X324634D01*
X326602Y66980D02*
X327914D01*
X328570Y66324D01*
Y64356D01*
X326602D01*
X325946Y65012D01*
X326602Y65668D01*
X328570D01*
X329882Y66980D02*
Y65012D01*
X330538Y64356D01*
X332505D01*
Y63700D01*
X331850Y63044D01*
X331194D01*
X332505Y64356D02*
Y66980D01*
X335785Y64356D02*
X334473D01*
X333817Y65012D01*
Y66324D01*
X334473Y66980D01*
X335785D01*
X336441Y66324D01*
Y65668D01*
X333817D01*
X337753Y66980D02*
Y64356D01*
Y65668D01*
X338409Y66324D01*
X339065Y66980D01*
X339721D01*
X295772Y60418D02*
Y56482D01*
X297740D01*
X298396Y57138D01*
Y57794D01*
X297740Y58450D01*
X295772D01*
X297740D01*
X298396Y59106D01*
Y59762D01*
X297740Y60418D01*
X295772D01*
X300364Y56482D02*
X301676D01*
X302331Y57138D01*
Y58450D01*
X301676Y59106D01*
X300364D01*
X299708Y58450D01*
Y57138D01*
X300364Y56482D01*
X304299Y59762D02*
Y59106D01*
X303643D01*
X304955D01*
X304299D01*
Y57138D01*
X304955Y56482D01*
X307579Y59762D02*
Y59106D01*
X306923D01*
X308235D01*
X307579D01*
Y57138D01*
X308235Y56482D01*
X310859D02*
X312171D01*
X312827Y57138D01*
Y58450D01*
X312171Y59106D01*
X310859D01*
X310203Y58450D01*
Y57138D01*
X310859Y56482D01*
X314139D02*
Y59106D01*
X314795D01*
X315451Y58450D01*
Y56482D01*
Y58450D01*
X316107Y59106D01*
X316762Y58450D01*
Y56482D01*
X324634Y59762D02*
X323978Y60418D01*
X322666D01*
X322010Y59762D01*
Y59106D01*
X322666Y58450D01*
X323978D01*
X324634Y57794D01*
Y57138D01*
X323978Y56482D01*
X322666D01*
X322010Y57138D01*
X326602Y56482D02*
X327914D01*
X328570Y57138D01*
Y58450D01*
X327914Y59106D01*
X326602D01*
X325946Y58450D01*
Y57138D01*
X326602Y56482D01*
X329882D02*
X331194D01*
X330538D01*
Y60418D01*
X329882D01*
X335785D02*
Y56482D01*
X333817D01*
X333161Y57138D01*
Y58450D01*
X333817Y59106D01*
X335785D01*
X339065Y56482D02*
X337753D01*
X337097Y57138D01*
Y58450D01*
X337753Y59106D01*
X339065D01*
X339721Y58450D01*
Y57794D01*
X337097D01*
X341033Y59106D02*
Y56482D01*
Y57794D01*
X341689Y58450D01*
X342345Y59106D01*
X343001D01*
X295772Y52544D02*
Y48608D01*
X297740D01*
X298396Y49264D01*
Y49920D01*
X297740Y50576D01*
X295772D01*
X297740D01*
X298396Y51232D01*
Y51888D01*
X297740Y52544D01*
X295772D01*
X300364Y48608D02*
X301676D01*
X302331Y49264D01*
Y50576D01*
X301676Y51232D01*
X300364D01*
X299708Y50576D01*
Y49264D01*
X300364Y48608D01*
X304299Y51888D02*
Y51232D01*
X303643D01*
X304955D01*
X304299D01*
Y49264D01*
X304955Y48608D01*
X307579Y51888D02*
Y51232D01*
X306923D01*
X308235D01*
X307579D01*
Y49264D01*
X308235Y48608D01*
X310859D02*
X312171D01*
X312827Y49264D01*
Y50576D01*
X312171Y51232D01*
X310859D01*
X310203Y50576D01*
Y49264D01*
X310859Y48608D01*
X314139D02*
Y51232D01*
X314795D01*
X315451Y50576D01*
Y48608D01*
Y50576D01*
X316107Y51232D01*
X316762Y50576D01*
Y48608D01*
X323978Y52544D02*
X322666D01*
X322010Y51888D01*
Y49264D01*
X322666Y48608D01*
X323978D01*
X324634Y49264D01*
Y51888D01*
X323978Y52544D01*
X325946Y51232D02*
X327258Y48608D01*
X328570Y51232D01*
X331850Y48608D02*
X330538D01*
X329882Y49264D01*
Y50576D01*
X330538Y51232D01*
X331850D01*
X332505Y50576D01*
Y49920D01*
X329882D01*
X333817Y51232D02*
Y48608D01*
Y49920D01*
X334473Y50576D01*
X335129Y51232D01*
X335785D01*
X337753Y48608D02*
X339065D01*
X338409D01*
Y52544D01*
X337753D01*
X341689Y51232D02*
X343001D01*
X343657Y50576D01*
Y48608D01*
X341689D01*
X341033Y49264D01*
X341689Y49920D01*
X343657D01*
X344969Y51232D02*
Y49264D01*
X345625Y48608D01*
X347592D01*
Y47952D01*
X346936Y47296D01*
X346281D01*
X347592Y48608D02*
Y51232D01*
X295772Y103726D02*
Y107662D01*
X298396Y103726D01*
Y107662D01*
X300364Y106350D02*
X301676D01*
X302331Y105694D01*
Y103726D01*
X300364D01*
X299708Y104382D01*
X300364Y105038D01*
X302331D01*
X303643Y103726D02*
Y106350D01*
X304299D01*
X304955Y105694D01*
Y103726D01*
Y105694D01*
X305611Y106350D01*
X306267Y105694D01*
Y103726D01*
X309547D02*
X308235D01*
X307579Y104382D01*
Y105694D01*
X308235Y106350D01*
X309547D01*
X310203Y105694D01*
Y105038D01*
X307579D01*
X268187Y95852D02*
X269499D01*
X268843D01*
Y99788D01*
X268187Y99132D01*
X270811Y87978D02*
X268187D01*
X270811Y90602D01*
Y91258D01*
X270155Y91914D01*
X268843D01*
X268187Y91258D01*
Y83384D02*
X268843Y84040D01*
X270155D01*
X270811Y83384D01*
Y82728D01*
X270155Y82072D01*
X269499D01*
X270155D01*
X270811Y81416D01*
Y80760D01*
X270155Y80104D01*
X268843D01*
X268187Y80760D01*
X270155Y72230D02*
Y76166D01*
X268187Y74198D01*
X270811D01*
Y68292D02*
X268187D01*
Y66324D01*
X269499Y66980D01*
X270155D01*
X270811Y66324D01*
Y65012D01*
X270155Y64356D01*
X268843D01*
X268187Y65012D01*
X270811Y60418D02*
X269499Y59762D01*
X268187Y58450D01*
Y57138D01*
X268843Y56482D01*
X270155D01*
X270811Y57138D01*
Y57794D01*
X270155Y58450D01*
X268187D01*
Y52544D02*
X270811D01*
Y51888D01*
X268187Y49264D01*
Y48608D01*
Y107662D02*
Y103726D01*
X270811D01*
X272779Y106350D02*
X274091D01*
X274747Y105694D01*
Y103726D01*
X272779D01*
X272123Y104382D01*
X272779Y105038D01*
X274747D01*
X276059Y106350D02*
Y104382D01*
X276714Y103726D01*
X278682D01*
Y103070D01*
X278026Y102414D01*
X277370D01*
X278682Y103726D02*
Y106350D01*
X281962Y103726D02*
X280650D01*
X279994Y104382D01*
Y105694D01*
X280650Y106350D01*
X281962D01*
X282618Y105694D01*
Y105038D01*
X279994D01*
X283930Y106350D02*
Y103726D01*
Y105038D01*
X284586Y105694D01*
X285242Y106350D01*
X285898D01*
D18*
X209112Y58468D02*
X208456D01*
X208784D01*
Y56828D01*
X208456Y56500D01*
X208128D01*
X207800Y56828D01*
X209768Y56500D02*
X210424D01*
X210096D01*
Y58468D01*
X209768Y58140D01*
M02*
