G04 Layer_Physical_Order=1*
G04 Layer_Color=255*
%FSLAX25Y25*%
%MOIN*%
G70*
G01*
G75*
%ADD10R,0.04724X0.05315*%
%ADD11R,0.03937X0.01378*%
%ADD12C,0.00709*%
%ADD13C,0.01772*%
D10*
X215361Y56080D02*
D03*
X234072Y56280D02*
D03*
Y9724D02*
D03*
X215197Y9719D02*
D03*
D11*
X235942Y51654D02*
D03*
Y49685D02*
D03*
Y47717D02*
D03*
Y45748D02*
D03*
Y43780D02*
D03*
Y41811D02*
D03*
Y39843D02*
D03*
Y37874D02*
D03*
Y35906D02*
D03*
Y33937D02*
D03*
Y31969D02*
D03*
Y30000D02*
D03*
Y28032D02*
D03*
Y26063D02*
D03*
Y24094D02*
D03*
Y22126D02*
D03*
Y20157D02*
D03*
Y18189D02*
D03*
Y16220D02*
D03*
Y14252D02*
D03*
X214288Y51654D02*
D03*
Y31969D02*
D03*
Y30000D02*
D03*
Y28032D02*
D03*
Y26063D02*
D03*
Y24094D02*
D03*
Y22126D02*
D03*
Y20157D02*
D03*
Y18189D02*
D03*
Y16220D02*
D03*
Y14252D02*
D03*
Y33937D02*
D03*
Y35906D02*
D03*
Y37874D02*
D03*
Y39843D02*
D03*
Y41811D02*
D03*
Y43780D02*
D03*
Y45748D02*
D03*
Y47717D02*
D03*
Y49685D02*
D03*
D12*
X235984Y45906D02*
X236090Y45800D01*
X235990Y45700D02*
X236090Y45800D01*
X231094Y45906D02*
X235984D01*
X235942Y45748D02*
X235990Y45700D01*
X229857Y39843D02*
X235942D01*
X225300Y44400D02*
X229857Y39843D01*
X225300Y44400D02*
Y54000D01*
X229900Y38000D02*
X235816D01*
X223300Y44600D02*
X229900Y38000D01*
X223300Y44600D02*
Y56000D01*
X229261Y47717D02*
X235942D01*
X230900Y49700D02*
X235927D01*
X235942Y49685D01*
X229261Y47717D02*
Y55539D01*
X228300Y56500D02*
X229261Y55539D01*
X219000Y61100D02*
X219900Y60200D01*
Y45800D02*
Y60200D01*
Y45800D02*
X231763Y33937D01*
X235942D01*
X223100Y56200D02*
X223300Y56000D01*
X205200Y31900D02*
X214220D01*
X214288Y31969D01*
X201200Y30000D02*
X214288D01*
X206106Y35906D02*
X214288D01*
X201991Y31791D02*
X206106Y35906D01*
X37592Y31791D02*
X201991D01*
X205500Y28000D02*
X213857D01*
X214057Y27800D01*
X214288Y28032D01*
X41863Y26063D02*
X214288D01*
X199200Y28000D02*
X201200Y30000D01*
X21800Y28000D02*
X199200D01*
X205300Y51900D02*
X213842D01*
X213942Y52000D01*
X214288Y51654D01*
X207200Y43600D02*
X213709D01*
X213909Y43400D01*
X207423Y41766D02*
X214243D01*
X207378Y41811D02*
X207423Y41766D01*
X23611Y41811D02*
X207378D01*
X213909Y43400D02*
X214288Y43780D01*
X214243Y41766D02*
X214288Y41811D01*
X20286Y30100D02*
X36100D01*
X20205Y30020D02*
X20286Y30100D01*
X14320Y35906D02*
X20205Y30020D01*
X21900Y5000D02*
X24600Y2300D01*
X12300Y5000D02*
X21900D01*
X24600Y2300D02*
X36600D01*
X17700Y2900D02*
X18000Y3200D01*
X12700Y2900D02*
X17700D01*
X7300Y8300D02*
X12700Y2900D01*
X7300Y8300D02*
Y19500D01*
X14700Y32100D02*
X20757Y26043D01*
X3800Y32100D02*
X14700D01*
X2100Y45800D02*
X10300Y54000D01*
X2100Y41700D02*
Y45800D01*
Y41700D02*
X4000Y39800D01*
X5409Y55709D02*
X17509D01*
X3850Y54150D02*
X5409Y55709D01*
X3850Y50150D02*
Y54150D01*
X236016Y22200D02*
X239100D01*
X235942Y22126D02*
X236016Y22200D01*
X235942Y30000D02*
X239400D01*
X205574Y37874D02*
X214288D01*
X203200Y35500D02*
X205574Y37874D01*
X42800Y35500D02*
X203200D01*
X206448Y45748D02*
X214288D01*
X204600Y43900D02*
X206448Y45748D01*
X203400Y43900D02*
X204600D01*
X207300Y48000D02*
X207583Y47717D01*
X214288D01*
X204143Y39843D02*
X214288D01*
X202213Y37913D02*
X204143Y39843D01*
X44485Y49685D02*
X214288D01*
X39489Y39551D02*
X39800Y39862D01*
X37422Y37843D02*
X39300Y35965D01*
X36300Y35500D02*
X38300Y33500D01*
X22300Y35500D02*
X36300D01*
X36384Y33000D02*
X37592Y31791D01*
X23800Y33000D02*
X36384D01*
X40800Y33500D02*
X42800Y35500D01*
X38300Y33500D02*
X40800D01*
X20757Y26043D02*
X37300D01*
X42300Y47500D02*
X44485Y49685D01*
X207607Y24094D02*
X214288D01*
Y33937D02*
X217643D01*
X235942Y26063D02*
X239296D01*
X232587Y28032D02*
X235942D01*
X229261Y31969D02*
X235942D01*
X232587Y35906D02*
X235942D01*
Y41811D02*
X239296D01*
X232587Y43780D02*
X235942D01*
X232587Y51654D02*
X235942D01*
X16646D02*
X18595Y49705D01*
X39497Y47500D02*
X42300D01*
X214288Y47717D02*
X214288Y47717D01*
X211344Y47717D02*
X214288D01*
X43548Y45748D02*
X43800Y46000D01*
X10513Y49685D02*
X14615D01*
X18552Y45748D01*
X43548D01*
X23300Y41500D02*
X23611Y41811D01*
X3804Y43780D02*
X4524Y44500D01*
X16300D01*
X21249Y39551D01*
X39489D01*
X18595Y49705D02*
X37095D01*
X214269Y37854D02*
X214288Y37874D01*
Y39843D02*
X214548Y39583D01*
X39300Y47697D02*
X39497Y47500D01*
X217686Y37614D02*
X217800Y37500D01*
X214509Y37614D02*
X217686D01*
X221717Y39583D02*
X221800Y39500D01*
X214548Y39583D02*
X221717D01*
X20541Y37843D02*
X37422D01*
X16573Y41811D02*
X20541Y37843D01*
X10513Y41811D02*
X16573D01*
X214269Y37854D02*
X214509Y37614D01*
X41300Y57815D02*
Y58000D01*
X41115D02*
X41300Y57815D01*
X10300Y54000D02*
X44300D01*
X22800Y56000D02*
X36300D01*
X17509Y55709D02*
X19800Y58000D01*
X41115D01*
X235816Y38000D02*
X235942Y37874D01*
X3804Y35906D02*
X14320D01*
X21300Y24000D02*
X39800D01*
X41863Y26063D01*
X13839Y27961D02*
X19749Y22051D01*
X13839Y27961D02*
Y30000D01*
X22300Y20000D02*
X45300D01*
X19749Y22051D02*
X42245D01*
X207607Y16220D02*
X214288D01*
X42245Y22051D02*
X42300Y22106D01*
X214288Y20157D02*
X214548Y19898D01*
X215198D01*
X206800Y22146D02*
X208414D01*
X208655Y22386D01*
X214029D01*
X214288Y22126D01*
X3824Y28012D02*
X11372D01*
X3804Y28032D02*
X3824Y28012D01*
X215198Y19898D02*
X215438Y20138D01*
X52957Y20157D02*
X214288D01*
X45300Y20000D02*
X47800Y22500D01*
X206446D01*
X206800Y22146D01*
X235682Y14512D02*
X235942Y14252D01*
X214288D02*
X217292D01*
X219544Y12000D01*
X221300D01*
X219300Y15000D02*
X220048Y14252D01*
X235942D01*
X11372Y28012D02*
X21175Y18209D01*
X21335D01*
X21493Y18051D01*
X20427Y16201D02*
X20677Y16451D01*
X20677D01*
X20785Y16342D01*
X49143D01*
X21493Y18051D02*
X46666D01*
X48957Y20343D01*
X49143Y16342D02*
X52957Y20157D01*
X13839Y14252D02*
X15591Y12500D01*
X203300D01*
X204800Y14000D01*
X53386Y18169D02*
X54800D01*
X49468Y14252D02*
X53386Y18169D01*
X18048Y14252D02*
X49468D01*
X10513Y21788D02*
X18048Y14252D01*
X10513Y21788D02*
Y26063D01*
X200989Y18189D02*
X214288D01*
X198800Y16000D02*
X200989Y18189D01*
X229261Y24094D02*
X235942D01*
X232587Y20157D02*
X235942D01*
X229261Y16220D02*
X235942D01*
Y18189D02*
X239296D01*
X6643Y20157D02*
X7300Y19500D01*
X3804Y20157D02*
X6643D01*
X10513Y6787D02*
Y18189D01*
Y6787D02*
X12300Y5000D01*
X237300Y62500D02*
X242400Y57400D01*
X400Y5600D02*
Y57200D01*
Y5600D02*
X5600Y400D01*
X237100D01*
X-2100Y-113500D02*
X3000Y-108400D01*
X5700Y62500D02*
X237300D01*
X600Y57300D02*
X5700Y62400D01*
X242400Y5700D02*
Y57400D01*
X237200Y500D02*
X242300Y5600D01*
D13*
X231094Y45906D02*
D03*
X230900Y49700D02*
D03*
X229261Y47717D02*
D03*
X219000Y61100D02*
D03*
X223100Y56200D02*
D03*
X205200Y31900D02*
D03*
X205500Y28000D02*
D03*
X205300Y51900D02*
D03*
X207200Y43600D02*
D03*
X36100Y30100D02*
D03*
X36600Y2300D02*
D03*
X18000Y3200D02*
D03*
X3800Y32100D02*
D03*
X4000Y39800D02*
D03*
X3900Y50100D02*
D03*
X239100Y22200D02*
D03*
X239400Y30000D02*
D03*
X203400Y43900D02*
D03*
X207300Y48000D02*
D03*
X39800Y39862D02*
D03*
X39300Y35965D02*
D03*
X37300Y26043D02*
D03*
X207607Y24094D02*
D03*
X217643Y33937D02*
D03*
X239296Y26063D02*
D03*
X232587Y28032D02*
D03*
X229261Y31969D02*
D03*
X232587Y35906D02*
D03*
X239296Y41811D02*
D03*
X232587Y43780D02*
D03*
Y51654D02*
D03*
X13839Y14252D02*
D03*
X10513Y26063D02*
D03*
X3804Y28032D02*
D03*
X13839Y30000D02*
D03*
X3804Y35906D02*
D03*
X13839Y37874D02*
D03*
X10513Y41811D02*
D03*
X3804Y43780D02*
D03*
X10513Y49685D02*
D03*
X16646Y51654D02*
D03*
X228300Y56500D02*
D03*
X204800Y14000D02*
D03*
X221300Y12000D02*
D03*
X43800Y46000D02*
D03*
X23300Y41500D02*
D03*
X37095Y49705D02*
D03*
X202213Y37913D02*
D03*
X39300Y47697D02*
D03*
X217800Y37500D02*
D03*
X221800Y39500D02*
D03*
X22300Y35500D02*
D03*
X23800Y33000D02*
D03*
X225300Y54000D02*
D03*
X41300Y58000D02*
D03*
X44300Y54000D02*
D03*
X36300Y56000D02*
D03*
X22800D02*
D03*
X21800Y28000D02*
D03*
X21300Y24000D02*
D03*
X22300Y20000D02*
D03*
X207607Y16220D02*
D03*
X42300Y22106D02*
D03*
X48957Y20343D02*
D03*
X20427Y16201D02*
D03*
X219300Y15000D02*
D03*
X54800Y18169D02*
D03*
X198800Y16000D02*
D03*
X229261Y24094D02*
D03*
X232587Y20157D02*
D03*
X3804D02*
D03*
X229261Y16220D02*
D03*
X239296Y18189D02*
D03*
X10513D02*
D03*
X3820Y16480D02*
D03*
M02*
