G04 Layer_Physical_Order=2*
G04 Layer_Color=16711680*
%FSLAX25Y25*%
%MOIN*%
G70*
G01*
G75*
%ADD10R,0.04724X0.05315*%
%ADD11R,0.03937X0.01378*%
%ADD12C,0.00709*%
%ADD13C,0.01772*%
D10*
X27739Y56080D02*
D03*
X9028Y56280D02*
D03*
Y9724D02*
D03*
X27903Y9719D02*
D03*
D11*
X28812Y14252D02*
D03*
Y16220D02*
D03*
Y18189D02*
D03*
Y20157D02*
D03*
Y22126D02*
D03*
Y24094D02*
D03*
Y26063D02*
D03*
Y28032D02*
D03*
Y30000D02*
D03*
Y31969D02*
D03*
Y33937D02*
D03*
Y35906D02*
D03*
Y37874D02*
D03*
Y39843D02*
D03*
Y41811D02*
D03*
Y43780D02*
D03*
Y45748D02*
D03*
Y47717D02*
D03*
Y49685D02*
D03*
Y51654D02*
D03*
X7158D02*
D03*
Y49685D02*
D03*
Y47717D02*
D03*
Y45748D02*
D03*
Y43780D02*
D03*
Y41811D02*
D03*
Y39843D02*
D03*
Y37874D02*
D03*
Y35906D02*
D03*
Y33937D02*
D03*
Y31969D02*
D03*
Y30000D02*
D03*
Y28032D02*
D03*
Y26063D02*
D03*
Y24094D02*
D03*
Y22126D02*
D03*
Y20157D02*
D03*
Y18189D02*
D03*
Y16220D02*
D03*
Y14252D02*
D03*
D12*
X239296Y10296D02*
Y18189D01*
X231500Y2500D02*
X239296Y10296D01*
X37465Y2500D02*
X231500D01*
X7500Y61200D02*
X219000D01*
X2000Y55700D02*
X7500Y61200D01*
X2000Y34900D02*
Y55700D01*
X232928Y59400D02*
X235500Y56828D01*
X42211Y59400D02*
X232928D01*
X235500Y47700D02*
Y56828D01*
X233706Y45906D02*
X235500Y47700D01*
X231094Y45906D02*
X233706D01*
X213690Y43780D02*
X232587D01*
X225715Y49583D02*
X225833Y49700D01*
X230900D01*
X40189Y59200D02*
X40623Y59634D01*
X41977D02*
X42211Y59400D01*
X40623Y59634D02*
X41977D01*
X19300Y58000D02*
X20785Y59485D01*
X30411D01*
X30697Y59200D02*
X40189D01*
X30411Y59485D02*
X30697Y59200D01*
X36500Y56200D02*
X223100D01*
X36300Y56000D02*
X36500Y56200D01*
X28880Y31900D02*
X205200D01*
X28812Y31969D02*
X28880Y31900D01*
X29243Y28000D02*
X205500D01*
X29043Y27800D02*
X29243Y28000D01*
X37340Y26083D02*
X214906D01*
X28812Y28032D02*
X29043Y27800D01*
X214906Y26083D02*
X216835Y28012D01*
X29258Y51900D02*
X205300D01*
X29158Y52000D02*
X29258Y51900D01*
X28812Y51654D02*
X29158Y52000D01*
X207200Y42500D02*
Y43600D01*
X206542Y41842D02*
X207200Y42500D01*
X36100Y30100D02*
X216740D01*
X216820Y30020D01*
X222706Y35906D01*
X9600Y1500D02*
X31200D01*
X3820Y7280D02*
X9600Y1500D01*
X31200D02*
X34074Y4374D01*
X3820Y7280D02*
Y16480D01*
X35082Y8500D02*
X219628D01*
X34224Y6083D02*
X223216D01*
X31341Y3200D02*
X34224Y6083D01*
X30884Y4302D02*
X35082Y8500D01*
X21081Y4302D02*
X30884D01*
X18000Y3200D02*
X31341D01*
X34074Y4374D02*
X223923D01*
X30634Y6000D02*
X34843Y10209D01*
X21800Y6000D02*
X30634D01*
X34843Y10209D02*
X220335D01*
X15800Y9584D02*
X21081Y4302D01*
X3800Y32100D02*
X7027D01*
X7158Y31969D01*
X2000Y34900D02*
X2963Y33937D01*
X7158D01*
X4000Y39800D02*
X7116D01*
X7158Y39843D01*
X3900Y48400D02*
Y50100D01*
Y48400D02*
X4600Y47700D01*
X7142D01*
X7158Y47717D01*
X225509Y17926D02*
X229783Y22200D01*
X239100D01*
X227216Y30000D02*
X239400D01*
X32166Y33937D02*
X217643D01*
X28812D02*
X32166D01*
X34208Y41842D02*
X206542D01*
X44100Y45700D02*
X210098D01*
X34784Y43900D02*
X203400D01*
X34676Y43791D02*
X34784Y43900D01*
X32719Y45748D02*
X34676Y43791D01*
X32271Y43780D02*
X34208Y41842D01*
X39934Y40134D02*
X210044D01*
X213690Y43780D01*
X210098Y45700D02*
X210127Y45728D01*
X43800Y46000D02*
X44100Y45700D01*
X43044Y48000D02*
X207300D01*
X210127Y45728D02*
X216528D01*
X37064Y39843D02*
X38993Y37913D01*
X28812Y39843D02*
X37064D01*
X210127Y49705D02*
X214906D01*
X210123Y49709D02*
X210127Y49705D01*
X37099Y49709D02*
X210123D01*
X39800Y39862D02*
Y40000D01*
X39300Y35965D02*
X39335Y36000D01*
X38993Y37913D02*
X202213D01*
X37300Y26043D02*
X37340Y26083D01*
X28812Y24094D02*
X207607D01*
X37095Y49705D02*
X37099Y49709D01*
X7158Y14252D02*
X13839D01*
X7158Y26063D02*
X10513D01*
X3804Y28032D02*
X7158D01*
Y30000D02*
X13839D01*
X3804Y35906D02*
X7158D01*
Y37874D02*
X13839D01*
X7158Y41811D02*
X10513D01*
X3804Y43780D02*
X7158D01*
Y45748D02*
X17048D01*
X7158Y49685D02*
X10513D01*
X7158Y51654D02*
X16646D01*
X17048Y45748D02*
X19300Y48000D01*
Y58000D01*
X28812Y14252D02*
X35493D01*
X37745Y12000D01*
X221300D01*
X28812Y49685D02*
X33615D01*
X35603Y47697D01*
X28812Y47717D02*
X33167D01*
X28812Y45748D02*
X32719D01*
X28812Y43780D02*
X32271D01*
X23300Y41500D02*
X23351Y41551D01*
X28552D01*
X28812Y41811D01*
X39800Y40000D02*
X39934Y40134D01*
X35603Y47697D02*
X39300D01*
X33167Y47717D02*
X35136Y45748D01*
X40792D01*
X43044Y48000D01*
X217446Y37854D02*
X217800Y37500D01*
X220399Y41811D02*
X239296D01*
X218450Y39862D02*
X220399Y41811D01*
X214138Y39862D02*
X218450D01*
X212701Y38425D02*
X214138Y39862D01*
X24174Y37874D02*
X28812D01*
X22300Y36000D02*
X24174Y37874D01*
X22300Y35500D02*
Y36000D01*
X201406Y35965D02*
X203765D01*
X206225Y38425D01*
X212701D01*
X23800Y33000D02*
X24249Y33449D01*
Y34949D01*
X25206Y35906D01*
X28812D01*
X41300Y58000D02*
X226800D01*
X228300Y56500D01*
X218470Y51654D02*
X232587D01*
X216528Y45728D02*
X220383Y49583D01*
X225715D01*
X44300Y54000D02*
X225300D01*
X216835Y51634D02*
X218450D01*
X214906Y49705D02*
X216835Y51634D01*
X21009Y54209D02*
X22800Y56000D01*
X21009Y47209D02*
Y54209D01*
X13800Y40000D02*
X21009Y47209D01*
X13800Y37913D02*
Y40000D01*
Y37913D02*
X13839Y37874D01*
X218450Y51634D02*
X218470Y51654D01*
X222706Y35906D02*
X232587D01*
X23800Y30000D02*
X28812D01*
X21800Y28000D02*
X23800Y30000D01*
X23363Y26063D02*
X28812D01*
X21300Y24000D02*
X23363Y26063D01*
X216835Y28012D02*
X222812D01*
X226769Y31969D01*
X229261D01*
X221331Y24114D02*
X227216Y30000D01*
X211048Y24114D02*
X221331D01*
X23426Y22126D02*
X28812D01*
X21800Y20500D02*
X22300Y20000D01*
X21800Y20500D02*
X23426Y22126D01*
X28812Y20157D02*
X29072Y19898D01*
X227832Y28032D02*
X232587D01*
X221800Y22000D02*
X227832Y28032D01*
X211350Y22000D02*
X221800D01*
X209508Y20157D02*
X211350Y22000D01*
X42300Y22106D02*
X42579Y22386D01*
X206560D01*
X206800Y22146D01*
X209080D01*
X211048Y24114D01*
X48957Y20157D02*
Y20343D01*
Y20157D02*
X209508D01*
X25457D02*
X28812D01*
X21300Y16000D02*
X25457Y20157D01*
X20628Y16000D02*
X21300D01*
X20427Y16201D02*
X20628Y16000D01*
X204800Y14000D02*
X218300D01*
X219300Y15000D01*
X228473Y26063D02*
X239296D01*
X222702Y20291D02*
X228473Y26063D01*
X212091Y20291D02*
X222702D01*
X209969Y18169D02*
X212091Y20291D01*
X206800Y18169D02*
X209969D01*
X206631Y18000D02*
X206800Y18169D01*
X54800Y18000D02*
Y18169D01*
Y18000D02*
X206631D01*
X28812Y16220D02*
X36288D01*
X38800Y13709D01*
X200717D01*
X203229Y16220D01*
X207607D01*
X28812Y18189D02*
X37111D01*
X39300Y16000D01*
X198800D01*
X223800Y11500D02*
Y18634D01*
X229261Y24094D01*
X225509Y10792D02*
Y17926D01*
X7158Y22126D02*
X13839D01*
X227217Y10085D02*
Y16933D01*
X228454Y18169D02*
X230599D01*
X227217Y16933D02*
X228454Y18169D01*
X230599D02*
X232587Y20157D01*
X3804D02*
X7158D01*
X228926Y9377D02*
Y15886D01*
X229261Y16220D01*
X7158Y18189D02*
X10513D01*
X7158Y24094D02*
X15706D01*
X17800Y10000D02*
Y22000D01*
X15706Y24094D02*
X17800Y22000D01*
X15800Y9584D02*
Y20165D01*
X13839Y22126D02*
X15800Y20165D01*
X223923Y4374D02*
X228926Y9377D01*
X222351Y10051D02*
X223800Y11500D01*
X220493Y10051D02*
X222351D01*
X220335Y10209D02*
X220493Y10051D01*
X223059Y8343D02*
X225509Y10792D01*
X219785Y8343D02*
X223059D01*
X219628Y8500D02*
X219785Y8343D01*
X223216Y6083D02*
X227217Y10085D01*
X6898Y16480D02*
X7158Y16220D01*
X3820Y16480D02*
X6898D01*
X17800Y10000D02*
X21800Y6000D01*
X39335Y36000D02*
X201371D01*
X201406Y35965D01*
X237300Y62500D02*
X242400Y57400D01*
X400Y5600D02*
Y57200D01*
Y5600D02*
X5600Y400D01*
X237100D01*
X-2100Y-113500D02*
X3000Y-108400D01*
X5700Y62500D02*
X237300D01*
X600Y57300D02*
X5700Y62400D01*
X242400Y5700D02*
Y57400D01*
X237200Y500D02*
X242300Y5600D01*
D13*
X231094Y45906D02*
D03*
X230900Y49700D02*
D03*
X229261Y47717D02*
D03*
X219000Y61100D02*
D03*
X223100Y56200D02*
D03*
X205200Y31900D02*
D03*
X205500Y28000D02*
D03*
X205300Y51900D02*
D03*
X207200Y43600D02*
D03*
X36100Y30100D02*
D03*
X36600Y2300D02*
D03*
X18000Y3200D02*
D03*
X3800Y32100D02*
D03*
X4000Y39800D02*
D03*
X3900Y50100D02*
D03*
X239100Y22200D02*
D03*
X239400Y30000D02*
D03*
X203400Y43900D02*
D03*
X207300Y48000D02*
D03*
X39800Y39862D02*
D03*
X39300Y35965D02*
D03*
X37300Y26043D02*
D03*
X207607Y24094D02*
D03*
X217643Y33937D02*
D03*
X239296Y26063D02*
D03*
X232587Y28032D02*
D03*
X229261Y31969D02*
D03*
X232587Y35906D02*
D03*
X239296Y41811D02*
D03*
X232587Y43780D02*
D03*
Y51654D02*
D03*
X13839Y14252D02*
D03*
X10513Y26063D02*
D03*
X3804Y28032D02*
D03*
X13839Y30000D02*
D03*
X3804Y35906D02*
D03*
X13839Y37874D02*
D03*
X10513Y41811D02*
D03*
X3804Y43780D02*
D03*
X10513Y49685D02*
D03*
X16646Y51654D02*
D03*
X228300Y56500D02*
D03*
X204800Y14000D02*
D03*
X221300Y12000D02*
D03*
X43800Y46000D02*
D03*
X23300Y41500D02*
D03*
X37095Y49705D02*
D03*
X202213Y37913D02*
D03*
X39300Y47697D02*
D03*
X217800Y37500D02*
D03*
X221800Y39500D02*
D03*
X22300Y35500D02*
D03*
X23800Y33000D02*
D03*
X225300Y54000D02*
D03*
X41300Y58000D02*
D03*
X44300Y54000D02*
D03*
X36300Y56000D02*
D03*
X22800D02*
D03*
X21800Y28000D02*
D03*
X21300Y24000D02*
D03*
X22300Y20000D02*
D03*
X207607Y16220D02*
D03*
X42300Y22106D02*
D03*
X48957Y20343D02*
D03*
X20427Y16201D02*
D03*
X219300Y15000D02*
D03*
X54800Y18169D02*
D03*
X198800Y16000D02*
D03*
X229261Y24094D02*
D03*
X232587Y20157D02*
D03*
X3804D02*
D03*
X229261Y16220D02*
D03*
X239296Y18189D02*
D03*
X10513D02*
D03*
X3820Y16480D02*
D03*
M02*
