M48
;Layer_Color=9474304
;FILE_FORMAT=2:5
INCH,LZ
;TYPE=PLATED
T1F00S00C0.00787
%
T01
X01988Y0016
X02048Y0014
X0207607Y001622
Y0024094
X02055Y0028
X02052Y00319
X0202213Y0037913
X02034Y00439
X02072Y00436
X02073Y0048
X02053Y00519
X02231Y00562
X02253Y0054
X02283Y00565
X0232587Y0051654
X02309Y00497
X0229261Y0047717
X0231094Y0045906
X0232587Y004378
Y0035906
X0229261Y0031969
X0232587Y0028032
X0229261Y0024094
X0232587Y0020157
X0229261Y001622
X02193Y0015
X02213Y0012
X0239296Y0018189
X02391Y00222
X0239296Y0026063
X02394Y003
X0239296Y0041811
X02218Y00395
X02178Y00375
X0217643Y0033937
X0219Y00611
X00413Y0058
X00443Y0054
X00438Y0046
X00393Y0047697
X0037095Y0049705
X00363Y0056
X00228
X0016646Y0051654
X0010513Y0049685
X00039Y00501
X0003804Y004378
X0004Y00398
X0003804Y0035906
X00038Y00321
X0003804Y0028032
Y0020157
X000382Y001648
X0010513Y0018189
X0013839Y0014252
X0020427Y0016201
X00223Y002
X00213Y0024
X00218Y0028
X00238Y0033
X00223Y00355
X00233Y00415
X0013839Y0037874
X0010513Y0041811
X0013839Y003
X0010513Y0026063
X00373Y0026043
X00361Y00301
X00393Y0035965
X00398Y0039862
X00423Y0022106
X0048957Y0020343
X00548Y0018169
X00366Y00023
X0018Y00032
M30
