%FSLAX25Y25*%
%MOIN*%
G70*
G01*
G75*
G04 Layer_Physical_Order=2*
G04 Layer_Color=16711680*
%ADD10R,0.01969X0.01969*%
%ADD11R,0.02362X0.01969*%
%ADD12R,0.02559X0.02165*%
%ADD13R,0.03740X0.03740*%
%ADD14R,0.02165X0.02559*%
%ADD15R,0.03740X0.03740*%
%ADD16R,0.01969X0.01378*%
%ADD17R,0.02756X0.01181*%
%ADD18R,0.03504X0.06299*%
%ADD19C,0.01181*%
%ADD20C,0.01000*%
%ADD21C,0.02362*%
%ADD22C,0.01378*%
%ADD23C,0.00787*%
%ADD24C,0.01969*%
%ADD25C,0.11811*%
%ADD26C,0.02165*%
%ADD27R,0.03937X0.01378*%
%ADD28R,0.04724X0.05315*%
%ADD29C,0.01260*%
G36*
X138319Y117005D02*
X138150Y116954D01*
X137022Y116351D01*
X136032Y115539D01*
X135221Y114550D01*
X134617Y113422D01*
X134246Y112197D01*
X134121Y110924D01*
X134246Y109650D01*
X134617Y108426D01*
X135221Y107297D01*
X136032Y106308D01*
X137022Y105496D01*
X138150Y104893D01*
X139375Y104522D01*
X140648Y104396D01*
X141921Y104522D01*
X143146Y104893D01*
X144274Y105496D01*
X145264Y106308D01*
X146075Y107297D01*
X146679Y108426D01*
X147005Y109503D01*
X147500Y109430D01*
Y-100D01*
X0D01*
Y108899D01*
X495Y108972D01*
X660Y108426D01*
X1264Y107297D01*
X2075Y106308D01*
X3064Y105496D01*
X4193Y104893D01*
X5418Y104522D01*
X6691Y104396D01*
X7965Y104522D01*
X8949Y104820D01*
X9163Y104368D01*
X8665Y104035D01*
X8317Y103515D01*
X8194Y102900D01*
X8317Y102286D01*
X8665Y101765D01*
X9185Y101417D01*
X9800Y101294D01*
X10414Y101417D01*
X10935Y101765D01*
X11283Y102286D01*
X11382Y102778D01*
X14699Y106096D01*
X20738D01*
X20974Y105655D01*
X20731Y105291D01*
X20594Y104600D01*
Y88948D01*
X20052Y88406D01*
X16500D01*
X15809Y88269D01*
X15223Y87877D01*
X14831Y87291D01*
X14694Y86600D01*
X14831Y85909D01*
X15223Y85323D01*
X15809Y84931D01*
X16500Y84794D01*
X20800D01*
X21491Y84931D01*
X22077Y85323D01*
X23677Y86923D01*
X24069Y87509D01*
X24206Y88200D01*
Y104600D01*
X24069Y105291D01*
X23677Y105877D01*
X23672Y105881D01*
X23635Y105935D01*
X23684Y106096D01*
X32692D01*
X32694Y106094D01*
X33247Y105724D01*
X33900Y105594D01*
X34553Y105724D01*
X35106Y106094D01*
X35476Y106647D01*
X35606Y107300D01*
X35476Y107953D01*
X35106Y108506D01*
X34553Y108876D01*
X33900Y109006D01*
X33247Y108876D01*
X32694Y108506D01*
X32692Y108504D01*
X14200D01*
X14200Y108504D01*
X13739Y108413D01*
X13349Y108151D01*
X12892Y107695D01*
X12490Y107993D01*
X12722Y108426D01*
X13093Y109650D01*
X13218Y110924D01*
X13093Y112197D01*
X12722Y113422D01*
X12118Y114550D01*
X11307Y115539D01*
X10317Y116351D01*
X9189Y116954D01*
X9020Y117005D01*
X9094Y117500D01*
X138245D01*
X138319Y117005D01*
D02*
G37*
%LPC*%
G36*
X15400Y53423D02*
X15285Y53400D01*
X14765Y53052D01*
X14417Y52531D01*
X14394Y52416D01*
X15400D01*
Y53423D01*
D02*
G37*
G36*
X64800Y54200D02*
X63794D01*
X63817Y54085D01*
X64165Y53565D01*
X64685Y53217D01*
X64800Y53194D01*
Y54200D01*
D02*
G37*
G36*
X66806D02*
X65800D01*
Y53194D01*
X65914Y53217D01*
X66435Y53565D01*
X66783Y54085D01*
X66806Y54200D01*
D02*
G37*
G36*
X25000Y52206D02*
Y51200D01*
X26006D01*
X25983Y51315D01*
X25635Y51835D01*
X25115Y52183D01*
X25000Y52206D01*
D02*
G37*
G36*
X10506Y49200D02*
X9500D01*
Y48194D01*
X9614Y48217D01*
X10135Y48565D01*
X10483Y49086D01*
X10506Y49200D01*
D02*
G37*
G36*
X9500Y51206D02*
Y50200D01*
X10506D01*
X10483Y50314D01*
X10135Y50835D01*
X9614Y51183D01*
X9500Y51206D01*
D02*
G37*
G36*
X15400Y51416D02*
X14394D01*
X14417Y51302D01*
X14765Y50781D01*
X15285Y50433D01*
X15400Y50410D01*
Y51416D01*
D02*
G37*
G36*
X81806Y58600D02*
X80800D01*
Y57594D01*
X80914Y57617D01*
X81435Y57965D01*
X81783Y58486D01*
X81806Y58600D01*
D02*
G37*
G36*
X79800Y60606D02*
X79685Y60583D01*
X79165Y60235D01*
X78817Y59715D01*
X78794Y59600D01*
X79800D01*
Y60606D01*
D02*
G37*
G36*
X80800D02*
Y59600D01*
X81806D01*
X81783Y59715D01*
X81435Y60235D01*
X80914Y60583D01*
X80800Y60606D01*
D02*
G37*
G36*
X79800Y58600D02*
X78794D01*
X78817Y58486D01*
X79165Y57965D01*
X79685Y57617D01*
X79800Y57594D01*
Y58600D01*
D02*
G37*
G36*
X91900Y102206D02*
X65000D01*
X64309Y102069D01*
X63723Y101677D01*
X63331Y101091D01*
X63194Y100400D01*
X63331Y99709D01*
X63723Y99123D01*
X64309Y98731D01*
X65000Y98594D01*
X91152D01*
X95494Y94252D01*
Y55900D01*
X95631Y55209D01*
X96023Y54623D01*
X96609Y54231D01*
X97300Y54094D01*
X97991Y54231D01*
X98577Y54623D01*
X98969Y55209D01*
X99106Y55900D01*
Y95000D01*
X98969Y95691D01*
X98577Y96277D01*
X93177Y101677D01*
X92591Y102069D01*
X91900Y102206D01*
D02*
G37*
G36*
X64800Y56206D02*
X64685Y56183D01*
X64165Y55835D01*
X63817Y55314D01*
X63794Y55200D01*
X64800D01*
Y56206D01*
D02*
G37*
G36*
X65800D02*
Y55200D01*
X66806D01*
X66783Y55314D01*
X66435Y55835D01*
X65914Y56183D01*
X65800Y56206D01*
D02*
G37*
G36*
X93800Y47606D02*
Y46600D01*
X94806D01*
X94783Y46714D01*
X94435Y47235D01*
X93915Y47583D01*
X93800Y47606D01*
D02*
G37*
G36*
X18101Y27254D02*
X15845D01*
Y24703D01*
X18101D01*
Y27254D01*
D02*
G37*
G36*
X21357D02*
X19101D01*
Y24703D01*
X21357D01*
Y27254D01*
D02*
G37*
G36*
X15700Y37800D02*
X14694D01*
X14717Y37685D01*
X15065Y37165D01*
X15586Y36817D01*
X15700Y36794D01*
Y37800D01*
D02*
G37*
G36*
X9546Y27254D02*
X7290D01*
Y24703D01*
X9546D01*
Y27254D01*
D02*
G37*
G36*
X140451Y13514D02*
X139178Y13389D01*
X137953Y13017D01*
X136825Y12414D01*
X135836Y11602D01*
X135024Y10613D01*
X134421Y9485D01*
X134049Y8260D01*
X133924Y6987D01*
X134049Y5713D01*
X134421Y4489D01*
X135024Y3360D01*
X135836Y2371D01*
X136825Y1559D01*
X137953Y956D01*
X139178Y585D01*
X140451Y459D01*
X141725Y585D01*
X142949Y956D01*
X144078Y1559D01*
X145067Y2371D01*
X145879Y3360D01*
X146482Y4489D01*
X146853Y5713D01*
X146979Y6987D01*
X146853Y8260D01*
X146482Y9485D01*
X145879Y10613D01*
X145067Y11602D01*
X144078Y12414D01*
X142949Y13017D01*
X141725Y13389D01*
X140451Y13514D01*
D02*
G37*
G36*
X7380Y14301D02*
X6107Y14176D01*
X4882Y13805D01*
X3754Y13201D01*
X2765Y12390D01*
X1953Y11400D01*
X1350Y10272D01*
X978Y9048D01*
X853Y7774D01*
X978Y6501D01*
X1350Y5276D01*
X1953Y4148D01*
X2765Y3158D01*
X3754Y2347D01*
X4882Y1743D01*
X6107Y1372D01*
X7380Y1247D01*
X8654Y1372D01*
X9878Y1743D01*
X11007Y2347D01*
X11996Y3158D01*
X12808Y4148D01*
X13411Y5276D01*
X13782Y6501D01*
X13908Y7774D01*
X13782Y9048D01*
X13411Y10272D01*
X12808Y11400D01*
X11996Y12390D01*
X11007Y13201D01*
X9878Y13805D01*
X8654Y14176D01*
X7380Y14301D01*
D02*
G37*
G36*
X6290Y27254D02*
X4034D01*
Y24703D01*
X6290D01*
Y27254D01*
D02*
G37*
G36*
X94806Y45600D02*
X93800D01*
Y44594D01*
X93915Y44617D01*
X94435Y44965D01*
X94783Y45485D01*
X94806Y45600D01*
D02*
G37*
G36*
X8600Y45806D02*
Y44800D01*
X9606D01*
X9583Y44914D01*
X9235Y45435D01*
X8715Y45783D01*
X8600Y45806D01*
D02*
G37*
G36*
X92800Y47606D02*
X92686Y47583D01*
X92165Y47235D01*
X91817Y46714D01*
X91794Y46600D01*
X92800D01*
Y47606D01*
D02*
G37*
G36*
Y45600D02*
X91794D01*
X91817Y45485D01*
X92165Y44965D01*
X92686Y44617D01*
X92800Y44594D01*
Y45600D01*
D02*
G37*
G36*
X15700Y39806D02*
X15586Y39783D01*
X15065Y39435D01*
X14717Y38914D01*
X14694Y38800D01*
X15700D01*
Y39806D01*
D02*
G37*
G36*
X25906Y43300D02*
X24900D01*
Y42294D01*
X25014Y42317D01*
X25535Y42665D01*
X25883Y43185D01*
X25906Y43300D01*
D02*
G37*
G36*
X9606Y43800D02*
X8600D01*
Y42794D01*
X8715Y42817D01*
X9235Y43165D01*
X9583Y43685D01*
X9606Y43800D01*
D02*
G37*
G36*
X13700Y91600D02*
X12694D01*
X12717Y91486D01*
X13065Y90965D01*
X13586Y90617D01*
X13700Y90594D01*
Y91600D01*
D02*
G37*
G36*
X15706D02*
X14700D01*
Y90594D01*
X14815Y90617D01*
X15335Y90965D01*
X15683Y91486D01*
X15706Y91600D01*
D02*
G37*
G36*
X4600Y92406D02*
X4485Y92383D01*
X3965Y92035D01*
X3617Y91514D01*
X3594Y91400D01*
X4600D01*
Y92406D01*
D02*
G37*
G36*
X6606Y90400D02*
X5600D01*
Y89394D01*
X5714Y89417D01*
X6235Y89765D01*
X6583Y90285D01*
X6606Y90400D01*
D02*
G37*
G36*
X63700Y80406D02*
Y79400D01*
X64706D01*
X64683Y79514D01*
X64335Y80035D01*
X63815Y80383D01*
X63700Y80406D01*
D02*
G37*
G36*
X19200Y83706D02*
X18586Y83583D01*
X18168Y83304D01*
X14500D01*
X14039Y83213D01*
X13883Y83108D01*
X13648Y82951D01*
X13648Y82951D01*
X11148Y80452D01*
X10887Y80061D01*
X10796Y79600D01*
X10796Y79600D01*
Y57199D01*
X7744Y54147D01*
X7282Y54338D01*
Y54821D01*
Y56790D01*
Y58758D01*
Y60356D01*
X7723Y60592D01*
X7986Y60417D01*
X8100Y60394D01*
Y61899D01*
Y63406D01*
X7986Y63383D01*
X7723Y63208D01*
X7282Y63444D01*
Y64664D01*
Y66632D01*
Y68601D01*
Y70766D01*
X7282D01*
Y70905D01*
X7636Y71258D01*
X9546D01*
Y73809D01*
X4034D01*
Y71258D01*
X4034D01*
Y71120D01*
X3680Y70766D01*
X2558D01*
Y68601D01*
Y66632D01*
Y64664D01*
Y62695D01*
Y62309D01*
X4921D01*
Y61309D01*
X2558D01*
Y60727D01*
Y58758D01*
Y56790D01*
Y54821D01*
Y52853D01*
Y50884D01*
Y50498D01*
X4921D01*
Y49498D01*
X2558D01*
Y48916D01*
Y46947D01*
Y44979D01*
Y44593D01*
X4921D01*
Y43593D01*
X2558D01*
Y43010D01*
Y41042D01*
Y39073D01*
Y37105D01*
Y35136D01*
Y33168D01*
Y31199D01*
X4034D01*
Y30806D01*
X4034D01*
Y28254D01*
X9546D01*
Y30806D01*
X8630D01*
X8485Y31284D01*
X8662Y31402D01*
X9401Y32141D01*
X9735Y32365D01*
X10083Y32886D01*
X10206Y33500D01*
X10083Y34115D01*
X9735Y34635D01*
X9215Y34983D01*
X8792Y35067D01*
X8730Y35130D01*
X8326Y35400D01*
X7850Y35495D01*
X7282D01*
Y37105D01*
Y39073D01*
Y41042D01*
Y42463D01*
X7668Y42780D01*
X7600Y42794D01*
Y44299D01*
Y45806D01*
X7668Y45820D01*
X7282Y46137D01*
Y46947D01*
Y48575D01*
X7760Y48721D01*
X7865Y48565D01*
X8386Y48217D01*
X8500Y48194D01*
Y49699D01*
Y51206D01*
X8982Y51302D01*
X8746Y51743D01*
X12852Y55848D01*
X13113Y56239D01*
X13204Y56700D01*
X13204Y56700D01*
X13204Y56700D01*
Y56700D01*
Y59511D01*
X13702Y59560D01*
X13717Y59486D01*
X14065Y58965D01*
X14585Y58617D01*
X14700Y58594D01*
Y60099D01*
Y61606D01*
X14585Y61583D01*
X14065Y61235D01*
X13717Y60715D01*
X13702Y60640D01*
X13204Y60689D01*
Y79101D01*
X14999Y80896D01*
X18168D01*
X18586Y80617D01*
X19200Y80494D01*
X19815Y80617D01*
X20335Y80965D01*
X20683Y81485D01*
X20806Y82100D01*
X20683Y82714D01*
X20335Y83235D01*
X19815Y83583D01*
X19200Y83706D01*
D02*
G37*
G36*
X4600Y90400D02*
X3594D01*
X3617Y90285D01*
X3965Y89765D01*
X4485Y89417D01*
X4600Y89394D01*
Y90400D01*
D02*
G37*
G36*
X14700Y93606D02*
Y92600D01*
X15706D01*
X15683Y92715D01*
X15335Y93235D01*
X14815Y93583D01*
X14700Y93606D01*
D02*
G37*
G36*
X26700Y95606D02*
X26586Y95583D01*
X26065Y95235D01*
X25717Y94714D01*
X25694Y94600D01*
X26700D01*
Y95606D01*
D02*
G37*
G36*
X27700D02*
Y94600D01*
X28706D01*
X28683Y94714D01*
X28335Y95235D01*
X27814Y95583D01*
X27700Y95606D01*
D02*
G37*
G36*
X13700Y93606D02*
X13586Y93583D01*
X13065Y93235D01*
X12717Y92715D01*
X12694Y92600D01*
X13700D01*
Y93606D01*
D02*
G37*
G36*
X5600Y92406D02*
Y91400D01*
X6606D01*
X6583Y91514D01*
X6235Y92035D01*
X5714Y92383D01*
X5600Y92406D01*
D02*
G37*
G36*
X26700Y93600D02*
X25694D01*
X25717Y93485D01*
X26065Y92965D01*
X26586Y92617D01*
X26700Y92594D01*
Y93600D01*
D02*
G37*
G36*
X28706D02*
X27700D01*
Y92594D01*
X27814Y92617D01*
X28335Y92965D01*
X28683Y93485D01*
X28706Y93600D01*
D02*
G37*
G36*
X62700Y80406D02*
X62586Y80383D01*
X62065Y80035D01*
X61717Y79514D01*
X61694Y79400D01*
X62700D01*
Y80406D01*
D02*
G37*
G36*
X87900Y70306D02*
X87786Y70283D01*
X87265Y69935D01*
X86917Y69415D01*
X86894Y69300D01*
X87900D01*
Y70306D01*
D02*
G37*
G36*
X88900D02*
Y69300D01*
X89906D01*
X89883Y69415D01*
X89535Y69935D01*
X89015Y70283D01*
X88900Y70306D01*
D02*
G37*
G36*
X18101Y73809D02*
X15845D01*
Y71258D01*
X18101D01*
Y73809D01*
D02*
G37*
G36*
X89906Y68300D02*
X88900D01*
Y67294D01*
X89015Y67317D01*
X89535Y67665D01*
X89883Y68186D01*
X89906Y68300D01*
D02*
G37*
G36*
X10106Y61400D02*
X9100D01*
Y60394D01*
X9215Y60417D01*
X9735Y60765D01*
X10083Y61286D01*
X10106Y61400D01*
D02*
G37*
G36*
X9100Y63406D02*
Y62400D01*
X10106D01*
X10083Y62515D01*
X9735Y63035D01*
X9215Y63383D01*
X9100Y63406D01*
D02*
G37*
G36*
X87900Y68300D02*
X86894D01*
X86917Y68186D01*
X87265Y67665D01*
X87786Y67317D01*
X87900Y67294D01*
Y68300D01*
D02*
G37*
G36*
X21357Y77361D02*
X19101D01*
Y74809D01*
X21357D01*
Y77361D01*
D02*
G37*
G36*
X62700Y78400D02*
X61694D01*
X61717Y78285D01*
X62065Y77765D01*
X62586Y77417D01*
X62700Y77394D01*
Y78400D01*
D02*
G37*
G36*
X64706D02*
X63700D01*
Y77394D01*
X63815Y77417D01*
X64335Y77765D01*
X64683Y78285D01*
X64706Y78400D01*
D02*
G37*
G36*
X18101Y77361D02*
X15845D01*
Y74809D01*
X18101D01*
Y77361D01*
D02*
G37*
G36*
X74800Y75106D02*
X74186Y74983D01*
X73665Y74635D01*
X73649Y74612D01*
X57200D01*
X57200Y74612D01*
X56774Y74527D01*
X56414Y74286D01*
X56414Y74286D01*
X52923Y70795D01*
X21357D01*
Y71258D01*
X21357D01*
Y73809D01*
X19101D01*
Y71258D01*
X18109D01*
Y70766D01*
X18109D01*
Y68601D01*
Y66632D01*
Y64664D01*
Y62695D01*
Y61104D01*
X16423D01*
X16335Y61235D01*
X15814Y61583D01*
X15700Y61606D01*
Y60099D01*
Y58594D01*
X15814Y58617D01*
X15933Y58696D01*
X18109D01*
Y56790D01*
Y54821D01*
Y53121D01*
X16932D01*
X16514Y53400D01*
X16400Y53423D01*
Y51916D01*
Y50410D01*
X16514Y50433D01*
X16932Y50712D01*
X18109D01*
Y50498D01*
X20472D01*
Y49498D01*
X18109D01*
Y48916D01*
Y48732D01*
X18024Y48605D01*
X17939Y48180D01*
X18024Y47754D01*
X18109Y47627D01*
Y46947D01*
Y46763D01*
X18024Y46637D01*
X17939Y46211D01*
X18024Y45785D01*
X18109Y45659D01*
Y44979D01*
Y44958D01*
X17939Y44703D01*
X17847Y44243D01*
X17939Y43782D01*
X18109Y43527D01*
Y43010D01*
Y41042D01*
Y39392D01*
X17365D01*
X17335Y39435D01*
X16815Y39783D01*
X16700Y39806D01*
Y38299D01*
Y36794D01*
X16815Y36817D01*
X17064Y36983D01*
X18109D01*
Y35136D01*
Y33168D01*
Y31199D01*
X18109D01*
Y31159D01*
X17755Y30806D01*
X15845D01*
Y28254D01*
X21357D01*
Y30806D01*
X21357D01*
Y30846D01*
X21710Y31199D01*
X22833D01*
Y33168D01*
Y35136D01*
Y37105D01*
Y37687D01*
X20470D01*
Y38687D01*
X22833D01*
Y39073D01*
Y41042D01*
Y42376D01*
X23180Y42608D01*
X23274Y42658D01*
X23786Y42317D01*
X23900Y42294D01*
Y43801D01*
X24399D01*
Y44300D01*
X25906D01*
X25883Y44414D01*
X25535Y44935D01*
X25551Y44988D01*
X26300D01*
X26300Y44988D01*
X26726Y45073D01*
X27086Y45314D01*
X30054Y48281D01*
X30314Y48333D01*
X30835Y48681D01*
X31183Y49202D01*
X31306Y49817D01*
X31183Y50431D01*
X30835Y50952D01*
X30314Y51300D01*
X29700Y51422D01*
X29085Y51300D01*
X28565Y50952D01*
X28217Y50431D01*
X28094Y49817D01*
X28152Y49525D01*
X26997Y48370D01*
X26518Y48515D01*
X26463Y48794D01*
X26115Y49315D01*
X25962Y49417D01*
X25864Y49907D01*
X25983Y50086D01*
X26006Y50200D01*
X24499D01*
Y50699D01*
X24000D01*
Y52206D01*
X23886Y52183D01*
X23365Y51835D01*
X23312Y51756D01*
X22833Y51901D01*
Y51467D01*
X20470D01*
Y52467D01*
X22833D01*
Y52853D01*
Y54821D01*
Y56790D01*
Y58758D01*
Y59341D01*
X20470D01*
Y60341D01*
X22833D01*
Y60727D01*
Y62695D01*
Y64664D01*
Y66632D01*
Y68572D01*
X53383D01*
X53383Y68572D01*
X53809Y68656D01*
X54170Y68897D01*
X57661Y72388D01*
X73649D01*
X73665Y72365D01*
X74186Y72017D01*
X74800Y71894D01*
X75415Y72017D01*
X75935Y72365D01*
X76283Y72886D01*
X76406Y73500D01*
X76283Y74115D01*
X75935Y74635D01*
X75415Y74983D01*
X74800Y75106D01*
D02*
G37*
G36*
X6290Y77361D02*
X4034D01*
Y74809D01*
X6290D01*
Y77361D01*
D02*
G37*
G36*
X9546D02*
X7290D01*
Y74809D01*
X9546D01*
Y77361D01*
D02*
G37*
%LPD*%
D19*
X19051Y44243D02*
X22300D01*
X4920Y61959D02*
X8600D01*
X7757Y44243D02*
X7800Y44200D01*
X4920Y44093D02*
X7608D01*
X8702Y49998D02*
X9000Y49700D01*
X4920Y49998D02*
X8702D01*
X16200Y38300D02*
X16313Y38187D01*
X20471D01*
X23798Y49998D02*
X24500Y50700D01*
X20471Y49998D02*
X23798D01*
X19200Y82100D02*
X19600D01*
X14500D02*
X19200D01*
X12000Y79600D02*
X14500Y82100D01*
X12000Y56700D02*
Y79600D01*
X7267Y51967D02*
X12000Y56700D01*
X4920Y51967D02*
X7267D01*
X24107Y44093D02*
X24400Y43800D01*
X20471Y44093D02*
X24107D01*
X9800Y102900D02*
X14200Y107300D01*
X33900D01*
X15200Y60100D02*
X15400Y59900D01*
X18961D01*
X19051Y59991D01*
X15900Y51916D02*
X19051D01*
D20*
X26300Y46100D02*
X29700Y49500D01*
X19162Y46100D02*
X26300D01*
X19051Y46211D02*
X19162Y46100D01*
X53383Y69683D02*
X57200Y73500D01*
X74800D01*
X20471Y69683D02*
X53383D01*
X19051Y48180D02*
X24980D01*
D21*
X97300Y55900D02*
Y95000D01*
X91900Y100400D02*
X97300Y95000D01*
X65000Y100400D02*
X91900D01*
X16500Y86600D02*
X20800D01*
X22400Y88200D01*
Y104600D01*
D23*
X-100Y-100D02*
X147538D01*
X-81Y117660D02*
X147540D01*
X147557Y117643D01*
Y-57D02*
Y117643D01*
X-81Y-57D02*
Y117660D01*
Y-57D02*
X147557D01*
D24*
X63200Y78900D02*
D03*
X19200Y82100D02*
D03*
X88400Y68800D02*
D03*
X93300Y46100D02*
D03*
X65300Y54700D02*
D03*
X74800Y73500D02*
D03*
X97400Y55900D02*
D03*
X80300Y59100D02*
D03*
X5100Y90900D02*
D03*
X14200Y92100D02*
D03*
X8600Y61900D02*
D03*
X9000Y49700D02*
D03*
X8100Y44300D02*
D03*
X16500Y86600D02*
D03*
X22500Y104800D02*
D03*
X27200Y94100D02*
D03*
X9800Y102900D02*
D03*
X15900Y51916D02*
D03*
X15200Y60100D02*
D03*
X16200Y38300D02*
D03*
X8600Y33500D02*
D03*
X24500Y50700D02*
D03*
X24400Y43800D02*
D03*
X29700Y49817D02*
D03*
X24980Y48180D02*
D03*
D25*
X7380Y7774D02*
D03*
X140451Y6987D02*
D03*
X6691Y110924D02*
D03*
X140648D02*
D03*
D26*
X33900Y107300D02*
D03*
X65000Y100400D02*
D03*
D27*
X4920Y34250D02*
D03*
Y32282D02*
D03*
Y34250D02*
D03*
Y36219D02*
D03*
Y38187D02*
D03*
Y40156D02*
D03*
Y42124D02*
D03*
Y44093D02*
D03*
Y46061D02*
D03*
Y48030D02*
D03*
Y49998D02*
D03*
Y51967D02*
D03*
Y53935D02*
D03*
Y55904D02*
D03*
Y57872D02*
D03*
Y59841D02*
D03*
Y61809D02*
D03*
Y63778D02*
D03*
Y65746D02*
D03*
Y67715D02*
D03*
Y69683D02*
D03*
X20471Y69683D02*
D03*
Y67715D02*
D03*
Y65746D02*
D03*
Y63778D02*
D03*
Y61809D02*
D03*
Y59841D02*
D03*
Y57872D02*
D03*
Y55904D02*
D03*
Y53935D02*
D03*
Y51967D02*
D03*
Y49998D02*
D03*
Y48030D02*
D03*
Y46061D02*
D03*
Y44093D02*
D03*
Y42124D02*
D03*
Y40156D02*
D03*
Y38187D02*
D03*
Y36219D02*
D03*
Y34250D02*
D03*
Y32282D02*
D03*
D28*
X18601Y27754D02*
D03*
X6790D02*
D03*
Y74309D02*
D03*
X18601D02*
D03*
D29*
X8600Y33100D02*
Y33500D01*
X7782Y32282D02*
X8600Y33100D01*
X4920Y32282D02*
X7782D01*
X4920Y34250D02*
X7850D01*
X8600Y33500D01*
M02*
