%FSLAX25Y25*%
%MOIN*%
G70*
G01*
G75*
G04 Layer_Color=8388736*
%ADD10R,0.01969X0.01969*%
%ADD11R,0.02362X0.01969*%
%ADD12R,0.02559X0.02165*%
%ADD13R,0.03740X0.03740*%
%ADD14R,0.02165X0.02559*%
%ADD15R,0.03740X0.03740*%
%ADD16R,0.01969X0.01378*%
%ADD17R,0.02756X0.01181*%
%ADD18R,0.03504X0.06299*%
%ADD19C,0.01181*%
%ADD20C,0.01000*%
%ADD21C,0.02362*%
%ADD22C,0.01378*%
%ADD23C,0.00787*%
%ADD24C,0.01969*%
%ADD25C,0.11811*%
%ADD26C,0.02165*%
%ADD27R,0.03937X0.01378*%
%ADD28R,0.04724X0.05315*%
%ADD29C,0.01260*%
%ADD30C,0.00591*%
%ADD31C,0.00394*%
%ADD32C,0.00709*%
%ADD33C,0.00276*%
%ADD34R,0.02769X0.02769*%
%ADD35R,0.03162X0.02769*%
%ADD36R,0.03359X0.02965*%
%ADD37R,0.04540X0.04540*%
%ADD38R,0.02965X0.03359*%
%ADD39R,0.04540X0.04540*%
%ADD40R,0.02769X0.02178*%
%ADD41R,0.03386X0.01811*%
%ADD42R,0.04134X0.06929*%
%ADD43C,0.12611*%
%ADD44C,0.02965*%
D23*
X-100Y-100D02*
X147538D01*
X-81Y117660D02*
X147540D01*
X147557Y117643D01*
Y-57D02*
Y117643D01*
X-81Y-57D02*
Y117660D01*
Y-57D02*
X147557D01*
D34*
X77964Y79700D02*
D03*
X74420D02*
D03*
D35*
X67120Y79800D02*
D03*
X70664D02*
D03*
D36*
X70900Y69800D02*
D03*
X75467D02*
D03*
X88700Y59700D02*
D03*
X84133D02*
D03*
X11900Y89400D02*
D03*
X16467D02*
D03*
D37*
X83600Y64500D02*
D03*
X89100D02*
D03*
D38*
X83900Y47700D02*
D03*
Y52267D02*
D03*
D39*
X88500Y52600D02*
D03*
Y47100D02*
D03*
X5200Y100400D02*
D03*
Y94900D02*
D03*
X22800Y100400D02*
D03*
Y94900D02*
D03*
D40*
X68500Y45800D02*
D03*
Y48950D02*
D03*
Y52099D02*
D03*
Y55249D02*
D03*
Y58398D02*
D03*
Y61548D02*
D03*
Y64698D02*
D03*
X76965D02*
D03*
Y61548D02*
D03*
Y58398D02*
D03*
Y55249D02*
D03*
Y52099D02*
D03*
Y48950D02*
D03*
Y45800D02*
D03*
D41*
X10383Y99159D02*
D03*
Y96600D02*
D03*
Y94041D02*
D03*
X18217Y99159D02*
D03*
Y96600D02*
D03*
Y94041D02*
D03*
D42*
X14300Y96600D02*
D03*
D43*
X7380Y7774D02*
D03*
X140451Y6987D02*
D03*
X6691Y110924D02*
D03*
X140648D02*
D03*
D44*
X33900Y107300D02*
D03*
X65000Y100400D02*
D03*
M02*
