%FSLAX25Y25*%
%MOIN*%
G70*
G01*
G75*
G04 Layer_Color=8421504*
%ADD10R,0.01969X0.01969*%
%ADD11R,0.02362X0.01969*%
%ADD12R,0.02559X0.02165*%
%ADD13R,0.03740X0.03740*%
%ADD14R,0.02165X0.02559*%
%ADD15R,0.03740X0.03740*%
%ADD16R,0.01969X0.01378*%
%ADD17R,0.02756X0.01181*%
%ADD18R,0.03504X0.06299*%
%ADD19C,0.01181*%
%ADD20C,0.01000*%
%ADD21C,0.02362*%
%ADD22C,0.01378*%
%ADD23C,0.00787*%
%ADD24C,0.01969*%
%ADD25C,0.11811*%
%ADD26C,0.02165*%
%ADD27R,0.03937X0.01378*%
%ADD28R,0.04724X0.05315*%
%ADD29C,0.01260*%
%ADD30C,0.00591*%
%ADD31C,0.00394*%
%ADD32C,0.00709*%
%ADD33C,0.00276*%
D10*
X77964Y79700D02*
D03*
X74420D02*
D03*
D11*
X67120Y79800D02*
D03*
X70664D02*
D03*
D12*
X70900Y69800D02*
D03*
X75467D02*
D03*
X88700Y59700D02*
D03*
X84133D02*
D03*
X11900Y89400D02*
D03*
X16467D02*
D03*
D13*
X83600Y64500D02*
D03*
X89100D02*
D03*
D14*
X83900Y47700D02*
D03*
Y52267D02*
D03*
D15*
X88500Y52600D02*
D03*
Y47100D02*
D03*
X5200Y100400D02*
D03*
Y94900D02*
D03*
X22800Y100400D02*
D03*
Y94900D02*
D03*
D16*
X68500Y45800D02*
D03*
Y48950D02*
D03*
Y52099D02*
D03*
Y55249D02*
D03*
Y58398D02*
D03*
Y61548D02*
D03*
Y64698D02*
D03*
X76965D02*
D03*
Y61548D02*
D03*
Y58398D02*
D03*
Y55249D02*
D03*
Y52099D02*
D03*
Y48950D02*
D03*
Y45800D02*
D03*
D17*
X10383Y99159D02*
D03*
Y96600D02*
D03*
Y94041D02*
D03*
X18217Y99159D02*
D03*
Y96600D02*
D03*
Y94041D02*
D03*
D18*
X14300Y96600D02*
D03*
D23*
X-100Y-100D02*
X147538D01*
X-81Y117660D02*
X147540D01*
X147557Y117643D01*
Y-57D02*
Y117643D01*
X-81Y-57D02*
Y117660D01*
Y-57D02*
X147557D01*
M02*
