M48
;Layer_Color=9474304
;FILE_FORMAT=2:5
INCH,LZ
;TYPE=PLATED
T1F00S00C0.00787
T2F00S00C0.01181
T3F00S00C0.07874
%
T01
X00086Y00335
X00081Y00443
X0009Y00497
X00159Y0051916
X00245Y00507
X002498Y004818
X00244Y00438
X00297Y0049817
X00162Y00383
X00933Y00461
X00974Y00559
X00803Y00591
X00884Y00688
X00748Y00735
X00632Y00789
X00653Y00547
X00152Y00601
X00086Y00619
X00192Y00821
X00165Y00866
X00142Y00921
X00051Y00909
X00098Y01029
X00225Y01048
X00272Y00941
T02
X00339Y01073
X0065Y01004
T03
X000738Y0007774
X0140451Y0006987
X0140648Y0110924
X0006691
M30
