%FSLAX25Y25*%
%MOIN*%
G70*
G01*
G75*
G04 Layer_Color=128*
%ADD10C,0.01713*%
%ADD11R,0.01969X0.01969*%
%ADD12R,0.01969X0.01969*%
%ADD13O,0.02756X0.01181*%
%ADD14O,0.01181X0.02756*%
%ADD15R,0.04724X0.06693*%
%ADD16R,0.03543X0.03150*%
%ADD17R,0.03150X0.03543*%
%ADD18R,0.03937X0.07874*%
%ADD19R,0.02362X0.01969*%
%ADD20R,0.06693X0.03150*%
%ADD21C,0.00787*%
%ADD22R,0.18504X0.18504*%
%ADD23R,0.04134X0.04134*%
%ADD24R,0.08858X0.04134*%
%ADD25O,0.06693X0.02165*%
%ADD26R,0.06693X0.05906*%
%ADD27O,0.00787X0.01969*%
%ADD28O,0.01969X0.00787*%
%ADD29R,0.01969X0.01378*%
%ADD30C,0.01969*%
%ADD31C,0.01000*%
%ADD32C,0.00787*%
%ADD33C,0.02362*%
%ADD34C,0.01575*%
%ADD35C,0.05906*%
%ADD36C,0.06693*%
%ADD37C,0.01772*%
%ADD38C,0.02598*%
%ADD39C,0.02362*%
%ADD40C,0.11811*%
%ADD41R,0.04724X0.05315*%
%ADD42R,0.03937X0.01378*%
%ADD43C,0.02756*%
%ADD44R,0.04000X0.09500*%
%ADD45C,0.00394*%
%ADD46C,0.01181*%
%ADD47C,0.00984*%
%ADD48C,0.00472*%
%ADD49C,0.00591*%
%ADD50C,0.00709*%
%ADD51C,0.00276*%
%ADD52R,0.02769X0.02769*%
%ADD53R,0.02769X0.02769*%
%ADD54O,0.03150X0.01575*%
%ADD55O,0.01575X0.03150*%
%ADD56R,0.05118X0.07087*%
%ADD57R,0.04343X0.03950*%
%ADD58R,0.03950X0.04343*%
%ADD59R,0.04737X0.08674*%
%ADD60R,0.03162X0.02769*%
%ADD61R,0.07493X0.03950*%
%ADD62C,0.01339*%
%ADD63R,0.19304X0.19304*%
%ADD64R,0.04934X0.04934*%
%ADD65R,0.09658X0.04934*%
%ADD66O,0.07493X0.02965*%
%ADD67R,0.07087X0.06299*%
%ADD68O,0.01181X0.02362*%
%ADD69O,0.02362X0.01181*%
%ADD70R,0.02598X0.02008*%
%ADD71C,0.00800*%
%ADD72C,0.06706*%
%ADD73C,0.07493*%
%ADD74C,0.12611*%
%ADD75R,0.05039X0.05630*%
%ADD76R,0.04252X0.01693*%
%ADD77C,0.03398*%
D11*
X114220Y59500D02*
D03*
X117764D02*
D03*
D12*
X110500Y62779D02*
D03*
Y59236D02*
D03*
D16*
X115000Y53500D02*
D03*
X122087D02*
D03*
D41*
X18801Y74609D02*
D03*
X6990D02*
D03*
Y28054D02*
D03*
X18801D02*
D03*
D42*
X20671Y32582D02*
D03*
Y34550D02*
D03*
Y36519D02*
D03*
Y38487D02*
D03*
Y40456D02*
D03*
Y42424D02*
D03*
Y44393D02*
D03*
Y46361D02*
D03*
Y48330D02*
D03*
Y50298D02*
D03*
Y52267D02*
D03*
Y54235D02*
D03*
Y56204D02*
D03*
Y58172D02*
D03*
Y60141D02*
D03*
Y62109D02*
D03*
Y64078D02*
D03*
Y66046D02*
D03*
Y68015D02*
D03*
Y69984D02*
D03*
X5120Y69984D02*
D03*
Y68015D02*
D03*
Y66047D02*
D03*
Y64078D02*
D03*
Y62110D02*
D03*
Y60141D02*
D03*
Y58172D02*
D03*
Y56204D02*
D03*
Y54235D02*
D03*
Y52267D02*
D03*
Y50298D02*
D03*
Y48330D02*
D03*
Y46361D02*
D03*
Y44393D02*
D03*
Y42424D02*
D03*
Y40456D02*
D03*
Y38487D02*
D03*
Y36519D02*
D03*
Y34550D02*
D03*
Y32582D02*
D03*
Y34550D02*
D03*
M02*
