M48
;Layer_Color=9474304
;FILE_FORMAT=2:5
INCH,LZ
;TYPE=PLATED
T1F00S00C0.00787
T2F00S00C0.01181
T3F00S00C0.01299
T4F00S00C0.03937
T5F00S00C0.04331
T6F00S00C0.07874
T7F00S00C0.08661
%
T01
X0019Y00055
X0024Y0005
X0025Y00095
X00245Y0014
X0025Y00185
X00275Y00215
X00295Y0023
X00325
X00355Y00225
X00345Y00265
Y00305
X0044
X00475Y003
X00531Y0030136
X0058Y0026
X00545Y0015
Y001
X00625Y00095
Y00125
X00655Y0017
X0046
X00463Y00203
X0042Y0017
X00355Y0016
Y0013
X00335Y00145
X00315Y0013
Y0016
X00335Y00055
X00314Y00029
X00395Y0008
X00425Y0005
X00453Y00059
X00492Y00061
X0051Y00445
X00575Y0044
X0032Y0045
X00263Y00457
X00355Y0057
X0032Y00605
X00635Y0075
X0062Y008
X0066Y0086
X006702Y00922
X007072Y00915
X0072Y00885
X00755Y00865
X0078516Y0081984
X00795Y008
X0078476Y0077524
X0076221Y0073779
X00695Y0072
X0081Y006
X0107Y0058
X01155Y0064
X01135Y0071
X01155Y0081
X0115Y0092
X0113Y0108
X01075Y0109
X0126Y01075
Y0112
X0079Y0093
X00455Y0107
X0026Y01075
X0023Y01155
X00979Y0035036
Y0023636
X01107Y0024036
X0111Y0034736
X00085Y00295
X0006
Y0027
X00085
X00024Y002612
Y00237
Y00216
X0002Y0015
X00045Y00155
X00016Y00323
X00105Y0044
Y00525
X00135Y0055
X00145Y00595
X00161Y00646
X00111Y00671
X00112Y00702
X00085Y00905
T02
X0068Y0054
X008
X0075Y00485
X0107Y00535
X00155Y00455
X00105Y00485
T03
X00715Y00799
T04
X0122Y00645
X0132
X0142
Y0076
X0132
X0122
Y00875
X0132
X0142
Y0099
X0132
X0122
T05
X0132Y00533
X0142
T06
X0140651Y0007287
X0140848Y0111224
X0006891
X000758Y0008074
T07
X00292Y0068984
M30
