%FSLAX25Y25*%
%MOIN*%
G70*
G01*
G75*
G04 Layer_Color=32896*
%ADD10C,0.01713*%
%ADD11R,0.01969X0.01969*%
%ADD12R,0.01969X0.01969*%
%ADD13O,0.02756X0.01181*%
%ADD14O,0.01181X0.02756*%
%ADD15R,0.04724X0.06693*%
%ADD16R,0.03543X0.03150*%
%ADD17R,0.03150X0.03543*%
%ADD18R,0.03937X0.07874*%
%ADD19R,0.02362X0.01969*%
%ADD20R,0.06693X0.03150*%
%ADD21C,0.00787*%
%ADD22R,0.18504X0.18504*%
%ADD23R,0.04134X0.04134*%
%ADD24R,0.08858X0.04134*%
%ADD25O,0.06693X0.02165*%
%ADD26R,0.06693X0.05906*%
%ADD27O,0.00787X0.01969*%
%ADD28O,0.01969X0.00787*%
%ADD29R,0.01969X0.01378*%
%ADD30C,0.01969*%
%ADD31C,0.01000*%
%ADD32C,0.00787*%
%ADD33C,0.02362*%
%ADD34C,0.01575*%
%ADD35C,0.05906*%
%ADD36C,0.06693*%
%ADD37C,0.01772*%
%ADD38C,0.02598*%
%ADD39C,0.02362*%
%ADD40C,0.11811*%
%ADD41R,0.04724X0.05315*%
%ADD42R,0.03937X0.01378*%
%ADD43C,0.02756*%
%ADD44R,0.04000X0.09500*%
%ADD45C,0.00394*%
%ADD46C,0.01181*%
%ADD47C,0.00984*%
%ADD48C,0.00472*%
%ADD49C,0.00591*%
%ADD50C,0.00709*%
%ADD51C,0.00276*%
%ADD52R,0.02769X0.02769*%
%ADD53R,0.02769X0.02769*%
%ADD54O,0.03150X0.01575*%
%ADD55O,0.01575X0.03150*%
%ADD56R,0.05118X0.07087*%
%ADD57R,0.04343X0.03950*%
%ADD58R,0.03950X0.04343*%
%ADD59R,0.04737X0.08674*%
%ADD60R,0.03162X0.02769*%
%ADD61R,0.07493X0.03950*%
%ADD62C,0.01339*%
%ADD63R,0.19304X0.19304*%
%ADD64R,0.04934X0.04934*%
%ADD65R,0.09658X0.04934*%
%ADD66O,0.07493X0.02965*%
%ADD67R,0.07087X0.06299*%
%ADD68O,0.01181X0.02362*%
%ADD69O,0.02362X0.01181*%
%ADD70R,0.02598X0.02008*%
%ADD71C,0.00800*%
%ADD72C,0.06706*%
%ADD73C,0.07493*%
%ADD74C,0.12611*%
%ADD75R,0.05039X0.05630*%
%ADD76R,0.04252X0.01693*%
%ADD77C,0.03398*%
D45*
X21950Y24708D02*
Y31302D01*
X15651Y24708D02*
X21950D01*
X3742Y24609D02*
X10041D01*
X3742D02*
Y31204D01*
Y78054D02*
X10041D01*
X3742Y71460D02*
Y78054D01*
X15750Y77956D02*
X22049D01*
Y71361D02*
Y77956D01*
X119100Y57900D02*
Y61100D01*
X112900Y57900D02*
X119100D01*
X112900D02*
Y61100D01*
X119100D01*
X108900Y57900D02*
X112100D01*
X108900D02*
Y64100D01*
X112100D01*
Y57900D02*
Y64100D01*
D49*
X112000Y51000D02*
X117000D01*
X112000D02*
Y56000D01*
X117000D01*
X120000Y51000D02*
X125000D01*
Y56000D01*
X120000D02*
X125000D01*
D51*
X111140Y55548D02*
X111468Y55220D01*
Y54564D01*
X111140Y54236D01*
X109828D01*
X109500Y54564D01*
Y55220D01*
X109828Y55548D01*
X111140Y56204D02*
X111468Y56532D01*
Y57188D01*
X111140Y57516D01*
X110812D01*
X110484Y57188D01*
Y56860D01*
Y57188D01*
X110156Y57516D01*
X109828D01*
X109500Y57188D01*
Y56532D01*
X109828Y56204D01*
X121688Y60140D02*
X122016Y60468D01*
X122672D01*
X123000Y60140D01*
Y58828D01*
X122672Y58500D01*
X122016D01*
X121688Y58828D01*
X120048Y58500D02*
Y60468D01*
X121032Y59484D01*
X119720D01*
X21188Y82468D02*
X21844D01*
X21516D01*
Y80828D01*
X21844Y80500D01*
X22172D01*
X22500Y80828D01*
X19220Y82468D02*
X19876Y82140D01*
X20532Y81484D01*
Y80828D01*
X20204Y80500D01*
X19548D01*
X19220Y80828D01*
Y81156D01*
X19548Y81484D01*
X20532D01*
X115900Y63768D02*
Y61800D01*
X114588D01*
X113932Y63440D02*
X113604Y63768D01*
X112948D01*
X112620Y63440D01*
Y63112D01*
X112948Y62784D01*
X113276D01*
X112948D01*
X112620Y62456D01*
Y62128D01*
X112948Y61800D01*
X113604D01*
X113932Y62128D01*
M02*
