%FSLAX25Y25*%
%MOIN*%
G70*
G01*
G75*
G04 Layer_Color=8388736*
%ADD10C,0.01713*%
%ADD11R,0.01969X0.01969*%
%ADD12R,0.01969X0.01969*%
%ADD13O,0.02756X0.01181*%
%ADD14O,0.01181X0.02756*%
%ADD15R,0.04724X0.06693*%
%ADD16R,0.03543X0.03150*%
%ADD17R,0.03150X0.03543*%
%ADD18R,0.03937X0.07874*%
%ADD19R,0.02362X0.01969*%
%ADD20R,0.06693X0.03150*%
%ADD21C,0.00787*%
%ADD22R,0.18504X0.18504*%
%ADD23R,0.04134X0.04134*%
%ADD24R,0.08858X0.04134*%
%ADD25O,0.06693X0.02165*%
%ADD26R,0.06693X0.05906*%
%ADD27O,0.00787X0.01969*%
%ADD28O,0.01969X0.00787*%
%ADD29R,0.01969X0.01378*%
%ADD30C,0.01969*%
%ADD31C,0.01000*%
%ADD32C,0.00787*%
%ADD33C,0.02362*%
%ADD34C,0.01575*%
%ADD35C,0.05906*%
%ADD36C,0.06693*%
%ADD37C,0.01772*%
%ADD38C,0.02598*%
%ADD39C,0.02362*%
%ADD40C,0.11811*%
%ADD41R,0.04724X0.05315*%
%ADD42R,0.03937X0.01378*%
%ADD43C,0.02756*%
%ADD44R,0.04000X0.09500*%
%ADD45C,0.00394*%
%ADD46C,0.01181*%
%ADD47C,0.00984*%
%ADD48C,0.00472*%
%ADD49C,0.00591*%
%ADD50C,0.00709*%
%ADD51C,0.00276*%
%ADD52R,0.02769X0.02769*%
%ADD53R,0.02769X0.02769*%
%ADD54O,0.03150X0.01575*%
%ADD55O,0.01575X0.03150*%
%ADD56R,0.05118X0.07087*%
%ADD57R,0.04343X0.03950*%
%ADD58R,0.03950X0.04343*%
%ADD59R,0.04737X0.08674*%
%ADD60R,0.03162X0.02769*%
%ADD61R,0.07493X0.03950*%
%ADD62C,0.01339*%
%ADD63R,0.19304X0.19304*%
%ADD64R,0.04934X0.04934*%
%ADD65R,0.09658X0.04934*%
%ADD66O,0.07493X0.02965*%
%ADD67R,0.07087X0.06299*%
%ADD68O,0.01181X0.02362*%
%ADD69O,0.02362X0.01181*%
%ADD70R,0.02598X0.02008*%
%ADD71C,0.00800*%
%ADD72C,0.06706*%
%ADD73C,0.07493*%
%ADD74C,0.12611*%
D52*
X71664Y44900D02*
D03*
X68120D02*
D03*
X68221Y49000D02*
D03*
X71764D02*
D03*
X119220Y107500D02*
D03*
X122764D02*
D03*
X19721Y108000D02*
D03*
X23264D02*
D03*
X31264Y30500D02*
D03*
X27720D02*
D03*
X31280Y26500D02*
D03*
X27736D02*
D03*
X54779Y22000D02*
D03*
X51236D02*
D03*
X36220Y5000D02*
D03*
X39764D02*
D03*
X30279Y5500D02*
D03*
X26736D02*
D03*
X51236Y26000D02*
D03*
X54779D02*
D03*
X108736Y104000D02*
D03*
X112279D02*
D03*
X100736D02*
D03*
X104279D02*
D03*
X100736Y108000D02*
D03*
X104279D02*
D03*
X99736Y57000D02*
D03*
X103279D02*
D03*
X86236Y104000D02*
D03*
X89780D02*
D03*
X74264Y91500D02*
D03*
X70720D02*
D03*
D53*
X67000Y88621D02*
D03*
Y92164D02*
D03*
X2400Y26120D02*
D03*
Y29664D02*
D03*
X16000Y6221D02*
D03*
Y9764D02*
D03*
X46500Y14279D02*
D03*
Y10736D02*
D03*
X42500Y14279D02*
D03*
Y10736D02*
D03*
X72500Y67236D02*
D03*
Y70780D02*
D03*
X77500Y65264D02*
D03*
Y61721D02*
D03*
X50500Y113264D02*
D03*
Y109721D02*
D03*
X54500Y113264D02*
D03*
Y109721D02*
D03*
D54*
X66779Y83953D02*
D03*
Y81984D02*
D03*
Y80016D02*
D03*
Y78047D02*
D03*
X76221D02*
D03*
Y80016D02*
D03*
Y81984D02*
D03*
Y83953D02*
D03*
Y76079D02*
D03*
X66779D02*
D03*
D55*
X70516Y74295D02*
D03*
X72484D02*
D03*
Y85706D02*
D03*
X70516D02*
D03*
D56*
X71500Y79900D02*
D03*
D57*
X75500Y54000D02*
D03*
X68413D02*
D03*
D58*
X10000Y27000D02*
D03*
Y19913D02*
D03*
D59*
X5378Y37000D02*
D03*
X11283D02*
D03*
X17189D02*
D03*
X23095D02*
D03*
X29000D02*
D03*
X34905D02*
D03*
X40811D02*
D03*
X46716D02*
D03*
X52622D02*
D03*
X58527D02*
D03*
X58528Y99992D02*
D03*
X52622D02*
D03*
X46716D02*
D03*
X40811D02*
D03*
X34905D02*
D03*
X29000D02*
D03*
X23095D02*
D03*
X17189D02*
D03*
X11283D02*
D03*
X5378D02*
D03*
D60*
X119236Y112000D02*
D03*
X122780D02*
D03*
X19736Y112500D02*
D03*
X23280D02*
D03*
X47280Y26000D02*
D03*
X43736D02*
D03*
D61*
X19500Y28386D02*
D03*
Y15000D02*
D03*
D62*
X2614Y18984D02*
D03*
X4583D02*
D03*
X2614Y17016D02*
D03*
X4583D02*
D03*
D63*
X104100Y29500D02*
D03*
X134512D02*
D03*
X74000D02*
D03*
D64*
X65799Y107095D02*
D03*
D65*
X72000Y101189D02*
D03*
Y113000D02*
D03*
D66*
X84000Y98000D02*
D03*
Y93000D02*
D03*
Y88000D02*
D03*
Y83000D02*
D03*
Y78000D02*
D03*
Y73000D02*
D03*
Y68000D02*
D03*
Y63000D02*
D03*
X109197Y98000D02*
D03*
Y93000D02*
D03*
Y88000D02*
D03*
Y83000D02*
D03*
Y78000D02*
D03*
Y73000D02*
D03*
Y68000D02*
D03*
Y63000D02*
D03*
D67*
X33500Y14500D02*
D03*
D68*
X29563Y20209D02*
D03*
X31138D02*
D03*
X32713D02*
D03*
X34287D02*
D03*
X35862D02*
D03*
X37437D02*
D03*
Y8791D02*
D03*
X35862D02*
D03*
X34287D02*
D03*
X32713D02*
D03*
X31138D02*
D03*
X29563D02*
D03*
D69*
X39209Y18437D02*
D03*
Y16862D02*
D03*
Y15287D02*
D03*
Y13713D02*
D03*
Y12138D02*
D03*
Y10563D02*
D03*
X27791D02*
D03*
Y12138D02*
D03*
Y13713D02*
D03*
Y15287D02*
D03*
Y16862D02*
D03*
Y18437D02*
D03*
D70*
X59571Y18000D02*
D03*
Y15441D02*
D03*
Y12882D02*
D03*
Y10323D02*
D03*
X51500D02*
D03*
Y12882D02*
D03*
Y15441D02*
D03*
Y18000D02*
D03*
D71*
X29200Y68984D02*
D03*
D72*
X122000Y99000D02*
D03*
X132000D02*
D03*
X142000D02*
D03*
X122000Y87500D02*
D03*
X132000D02*
D03*
X142000D02*
D03*
X122000Y76000D02*
D03*
X132000D02*
D03*
X142000D02*
D03*
X122000Y64500D02*
D03*
X132000D02*
D03*
X142000D02*
D03*
D73*
Y53300D02*
D03*
X132000D02*
D03*
D74*
X7580Y8074D02*
D03*
X140651Y7287D02*
D03*
X6891Y111224D02*
D03*
X140848D02*
D03*
M02*
