%FSLAX25Y25*%
%MOIN*%
G70*
G01*
G75*
G04 Layer_Physical_Order=2*
G04 Layer_Color=36540*
%ADD10C,0.01713*%
%ADD11R,0.01969X0.01969*%
%ADD12R,0.01969X0.01969*%
%ADD13O,0.02756X0.01181*%
%ADD14O,0.01181X0.02756*%
%ADD15R,0.04724X0.06693*%
%ADD16R,0.03543X0.03150*%
%ADD17R,0.03150X0.03543*%
%ADD18R,0.03937X0.07874*%
%ADD19R,0.02362X0.01969*%
%ADD20R,0.06693X0.03150*%
%ADD21C,0.00787*%
%ADD22R,0.18504X0.18504*%
%ADD23R,0.04134X0.04134*%
%ADD24R,0.08858X0.04134*%
%ADD25O,0.06693X0.02165*%
%ADD26R,0.06693X0.05906*%
%ADD27O,0.00787X0.01969*%
%ADD28O,0.01969X0.00787*%
%ADD29R,0.01969X0.01378*%
%ADD30C,0.01969*%
%ADD31C,0.01000*%
%ADD32C,0.00787*%
%ADD33C,0.02362*%
%ADD34C,0.01575*%
%ADD35C,0.05906*%
%ADD36C,0.06693*%
%ADD37C,0.01772*%
%ADD38C,0.02598*%
%ADD39C,0.02362*%
%ADD40C,0.11811*%
G36*
X91500Y39600D02*
X147900D01*
Y9507D01*
X147405Y9433D01*
X147230Y10012D01*
X146572Y11243D01*
X145686Y12322D01*
X144607Y13207D01*
X143376Y13866D01*
X142040Y14271D01*
X140651Y14408D01*
X139262Y14271D01*
X137926Y13866D01*
X136695Y13207D01*
X135616Y12322D01*
X134730Y11243D01*
X134072Y10012D01*
X133667Y8676D01*
X133530Y7287D01*
X133667Y5897D01*
X134072Y4562D01*
X134730Y3330D01*
X135616Y2251D01*
X136695Y1366D01*
X137782Y785D01*
X137660Y300D01*
X31474D01*
X31425Y795D01*
D01*
X31425Y798D01*
X32206Y953D01*
X32890Y1410D01*
X33347Y2094D01*
X33507Y2900D01*
X33424Y3317D01*
X33500Y3393D01*
X34306Y3553D01*
X34990Y4010D01*
X35447Y4693D01*
X35607Y5500D01*
X35447Y6306D01*
X34990Y6990D01*
X34306Y7447D01*
X33500Y7607D01*
X32693Y7447D01*
X32010Y6990D01*
X31553Y6306D01*
X31393Y5500D01*
X31418Y5372D01*
X31140Y4956D01*
X30593Y4847D01*
X29910Y4390D01*
X29453Y3706D01*
X29293Y2900D01*
X29453Y2094D01*
X29910Y1410D01*
X30593Y953D01*
X31375Y798D01*
X31356Y610D01*
X31046Y300D01*
X300D01*
Y5958D01*
X795Y6031D01*
X1001Y5349D01*
X1660Y4118D01*
X2545Y3039D01*
X3624Y2153D01*
X4855Y1495D01*
X6191Y1090D01*
X7580Y953D01*
X8969Y1090D01*
X10305Y1495D01*
X11536Y2153D01*
X12616Y3039D01*
X13501Y4118D01*
X14159Y5349D01*
X14564Y6685D01*
X14701Y8074D01*
X14564Y9463D01*
X14159Y10799D01*
X13501Y12030D01*
X12616Y13109D01*
X11536Y13995D01*
X10305Y14653D01*
X8969Y15058D01*
X7580Y15195D01*
X6941Y15132D01*
X6607Y15500D01*
X6447Y16307D01*
X5990Y16990D01*
X5932Y17029D01*
Y24837D01*
X6000Y24893D01*
X6807Y25053D01*
X7250Y25349D01*
X7694Y25053D01*
X8500Y24893D01*
X9307Y25053D01*
X9828Y25401D01*
X10865Y24365D01*
X10865Y24365D01*
X10865D01*
X10865Y24365D01*
X10865D01*
X10865Y24365D01*
Y24365D01*
Y24365D01*
D01*
D01*
X10865D01*
Y24365D01*
X11385Y24017D01*
X11488Y23996D01*
X12000Y23894D01*
X12000Y23894D01*
X26057D01*
X26423Y23822D01*
X26520Y23331D01*
X26010Y22990D01*
X25553Y22307D01*
X25393Y21500D01*
X25506Y20931D01*
X25152Y20577D01*
X25000Y20607D01*
X24193Y20447D01*
X23510Y19990D01*
X23053Y19307D01*
X22893Y18500D01*
X23053Y17694D01*
X23510Y17010D01*
X24193Y16553D01*
X25000Y16393D01*
X25806Y16553D01*
X26490Y17010D01*
X26947Y17694D01*
X27107Y18500D01*
X26994Y19069D01*
X27348Y19423D01*
X27500Y19393D01*
X28306Y19553D01*
X28990Y20010D01*
X29447Y20694D01*
X29485Y20882D01*
X29500Y20893D01*
X29500Y20893D01*
Y20893D01*
X30307Y21053D01*
X30990Y21510D01*
X31010D01*
X31694Y21053D01*
X32500Y20893D01*
X33307Y21053D01*
X33773Y21365D01*
X34010Y21010D01*
X34694Y20553D01*
X35500Y20393D01*
X36307Y20553D01*
X36817Y20894D01*
X43917D01*
X44234Y20508D01*
X44193Y20300D01*
X44353Y19493D01*
X44810Y18810D01*
X45494Y18353D01*
X46300Y18193D01*
X47107Y18353D01*
X47790Y18810D01*
X48247Y19493D01*
X48407Y20300D01*
X48366Y20508D01*
X48683Y20894D01*
X59335D01*
X60894Y19335D01*
Y13817D01*
X60553Y13307D01*
X60393Y12500D01*
X60553Y11693D01*
X61010Y11010D01*
Y10990D01*
X60553Y10306D01*
X60433Y9704D01*
X59835Y9106D01*
X51165D01*
X48635Y11635D01*
X48114Y11983D01*
X48013Y12004D01*
X47500Y12106D01*
X47500Y12106D01*
X26000D01*
X25385Y11983D01*
X24865Y11635D01*
X24865Y11635D01*
X24796Y11567D01*
X24193Y11447D01*
X23510Y10990D01*
X23053Y10306D01*
X22893Y9500D01*
X23053Y8693D01*
X23510Y8010D01*
X24193Y7553D01*
X25000Y7393D01*
X25806Y7553D01*
X26490Y8010D01*
X26947Y8693D01*
X26987Y8894D01*
X37176D01*
X37494Y8508D01*
X37393Y8000D01*
X37553Y7193D01*
X38010Y6510D01*
X38693Y6053D01*
X39500Y5893D01*
X40306Y6053D01*
X40990Y6510D01*
X41447Y7193D01*
X41607Y8000D01*
X41447Y8806D01*
X41494Y8894D01*
X46835D01*
X47748Y7981D01*
X47710Y7590D01*
X47433Y7176D01*
X46933D01*
X46790Y7390D01*
X46106Y7847D01*
X45300Y8007D01*
X44493Y7847D01*
X43810Y7390D01*
X43353Y6707D01*
X43193Y5900D01*
X43353Y5094D01*
X43810Y4410D01*
X44493Y3953D01*
X45300Y3793D01*
X46106Y3953D01*
X46790Y4410D01*
X47067Y4824D01*
X47567D01*
X47710Y4610D01*
X48393Y4153D01*
X49200Y3993D01*
X50007Y4153D01*
X50690Y4610D01*
X51147Y5294D01*
X51266Y5894D01*
X60500D01*
X60500Y5894D01*
X61013Y5996D01*
X61115Y6017D01*
X61635Y6365D01*
X61635Y6365D01*
X61635Y6365D01*
X62704Y7433D01*
X63306Y7553D01*
X63990Y8010D01*
X64447Y8693D01*
X64607Y9500D01*
X64447Y10306D01*
X63990Y10990D01*
Y11010D01*
X64447Y11693D01*
X64607Y12500D01*
X64447Y13307D01*
X64106Y13817D01*
Y20000D01*
X63983Y20615D01*
X63635Y21135D01*
X63635Y21135D01*
X61135Y23635D01*
X60615Y23983D01*
X60513Y24004D01*
X60000Y24106D01*
X60000Y24106D01*
X36817D01*
X36307Y24447D01*
X35500Y24607D01*
X34694Y24447D01*
X34558Y24356D01*
X34096Y24548D01*
X33983Y25115D01*
X33635Y25635D01*
X33635Y25635D01*
X32635Y26635D01*
X32114Y26983D01*
X32013Y27004D01*
X31500Y27106D01*
X31500Y27106D01*
X12665D01*
X12106Y27665D01*
Y42683D01*
X12447Y43194D01*
X12607Y44000D01*
X12447Y44807D01*
X11990Y45490D01*
X11306Y45947D01*
Y46252D01*
X11422Y46275D01*
X12203Y46797D01*
X12725Y47578D01*
X12909Y48500D01*
X12725Y49422D01*
X12203Y50203D01*
X11867Y50428D01*
Y50928D01*
X11990Y51010D01*
X12447Y51693D01*
X12607Y52500D01*
X12577Y52652D01*
X12931Y53006D01*
X13500Y52893D01*
X14307Y53053D01*
X14990Y53510D01*
X15447Y54194D01*
X15607Y55000D01*
X15447Y55806D01*
X14990Y56490D01*
X14399Y56885D01*
X14500Y57393D01*
X15306Y57553D01*
X15990Y58010D01*
X16447Y58693D01*
X16607Y59500D01*
X16447Y60307D01*
X15990Y60990D01*
X15306Y61447D01*
X14500Y61607D01*
X13693Y61447D01*
X13010Y60990D01*
X12553Y60307D01*
X12393Y59500D01*
X12553Y58693D01*
X13010Y58010D01*
X13601Y57615D01*
X13500Y57107D01*
X12694Y56947D01*
X12010Y56490D01*
X11553Y55806D01*
X11393Y55000D01*
X11423Y54848D01*
X11069Y54494D01*
X10500Y54607D01*
X9693Y54447D01*
X9010Y53990D01*
X8553Y53307D01*
X8393Y52500D01*
X8553Y51693D01*
X9010Y51010D01*
X9133Y50928D01*
Y50428D01*
X8797Y50203D01*
X8275Y49422D01*
X8091Y48500D01*
X8275Y47578D01*
X8797Y46797D01*
X9507Y46322D01*
Y45917D01*
X9485Y45808D01*
X9010Y45490D01*
X8553Y44807D01*
X8393Y44000D01*
X8553Y43194D01*
X8894Y42683D01*
Y31923D01*
X8508Y31606D01*
X8500Y31607D01*
X7694Y31447D01*
X7250Y31151D01*
X6807Y31447D01*
X6000Y31607D01*
X5932Y31663D01*
Y38773D01*
X5932Y38773D01*
X5830Y39286D01*
X5810Y39388D01*
X5806Y39395D01*
Y63835D01*
X8630Y66660D01*
X9109Y66515D01*
X9153Y66294D01*
X9610Y65610D01*
X10294Y65153D01*
X11100Y64993D01*
X11907Y65153D01*
X12105Y65286D01*
X13735D01*
X14052Y64899D01*
X13993Y64600D01*
X14153Y63793D01*
X14610Y63110D01*
X15293Y62653D01*
X16100Y62493D01*
X16906Y62653D01*
X17106Y62786D01*
X19790D01*
X30286Y52290D01*
Y46155D01*
X30053Y45807D01*
X29893Y45000D01*
X30053Y44194D01*
X30510Y43510D01*
X31194Y43053D01*
X32000Y42893D01*
X32807Y43053D01*
X33155Y43286D01*
X40290D01*
X42286Y41290D01*
Y31655D01*
X42053Y31306D01*
X41893Y30500D01*
X42053Y29693D01*
X42510Y29010D01*
X43194Y28553D01*
X44000Y28393D01*
X44807Y28553D01*
X45325Y28899D01*
X45815Y28802D01*
X46010Y28510D01*
X46694Y28053D01*
X47500Y27893D01*
X48307Y28053D01*
X48990Y28510D01*
X49447Y29193D01*
X49607Y30000D01*
X49447Y30806D01*
X49214Y31155D01*
Y42677D01*
X49655Y42913D01*
X50194Y42553D01*
X51000Y42393D01*
X51806Y42553D01*
X52490Y43010D01*
X52947Y43694D01*
X53107Y44500D01*
X52947Y45307D01*
X52490Y45990D01*
X51806Y46447D01*
X51000Y46607D01*
X50194Y46447D01*
X49510Y45990D01*
X49435Y45878D01*
X48935D01*
X48712Y46212D01*
X43712Y51212D01*
X43156Y51584D01*
X42500Y51714D01*
X39210D01*
X36205Y54719D01*
X36307Y55053D01*
X36990Y55510D01*
X37447Y56194D01*
X37607Y57000D01*
X37447Y57806D01*
X36990Y58490D01*
X36307Y58947D01*
X35500Y59107D01*
X34694Y58947D01*
X34010Y58490D01*
X33597Y57873D01*
X33100Y57824D01*
X32705Y58219D01*
X32807Y58553D01*
X33490Y59010D01*
X33947Y59693D01*
X34107Y60500D01*
X33947Y61307D01*
X33490Y61990D01*
X32807Y62447D01*
X32000Y62607D01*
X31194Y62447D01*
X30510Y61990D01*
X30097Y61373D01*
X29600Y61324D01*
X27792Y63132D01*
X28013Y63580D01*
X29200Y63424D01*
X30639Y63613D01*
X31980Y64169D01*
X33131Y65052D01*
X34015Y66204D01*
X34570Y67545D01*
X34759Y68984D01*
X34570Y70422D01*
X34015Y71763D01*
X33131Y72914D01*
X31980Y73798D01*
X30639Y74353D01*
X29200Y74543D01*
X27761Y74353D01*
X26420Y73798D01*
X25269Y72914D01*
X24385Y71763D01*
X23830Y70422D01*
X23641Y68984D01*
X23797Y67797D01*
X23348Y67576D01*
X22712Y68212D01*
X22156Y68584D01*
X21500Y68714D01*
X13223D01*
X12988Y69155D01*
X13147Y69393D01*
X13307Y70200D01*
X13147Y71007D01*
X12690Y71690D01*
X12007Y72147D01*
X11200Y72307D01*
X10394Y72147D01*
X9710Y71690D01*
X9708Y71687D01*
X9186Y71583D01*
X9013Y71468D01*
X8665Y71235D01*
X8665Y71235D01*
X3065Y65635D01*
X2717Y65114D01*
X2696Y65013D01*
X2594Y64500D01*
X2594Y64500D01*
Y38900D01*
X2594Y38900D01*
X2696Y38388D01*
X2717Y38285D01*
X2721Y38279D01*
Y28491D01*
X2400Y28228D01*
X1594Y28067D01*
X910Y27611D01*
X778Y27414D01*
X300Y27559D01*
Y107492D01*
X785Y107614D01*
X970Y107267D01*
X1856Y106188D01*
X2935Y105303D01*
X4166Y104645D01*
X5502Y104240D01*
X6891Y104103D01*
X8280Y104240D01*
X9616Y104645D01*
X10847Y105303D01*
X11926Y106188D01*
X12812Y107267D01*
X13470Y108499D01*
X13875Y109834D01*
X14012Y111224D01*
X13875Y112613D01*
X13470Y113949D01*
X12812Y115180D01*
X11926Y116259D01*
X10847Y117144D01*
X10528Y117315D01*
X10650Y117800D01*
X91500D01*
Y39600D01*
D02*
G37*
%LPC*%
G36*
X68000Y56409D02*
X67078Y56225D01*
X66297Y55703D01*
X65775Y54922D01*
X65592Y54000D01*
X65775Y53078D01*
X66297Y52297D01*
X67078Y51775D01*
X68000Y51591D01*
X68922Y51775D01*
X69703Y52297D01*
X70225Y53078D01*
X70408Y54000D01*
X70225Y54922D01*
X69703Y55703D01*
X68922Y56225D01*
X68000Y56409D01*
D02*
G37*
G36*
X80000D02*
X79078Y56225D01*
X78297Y55703D01*
X77775Y54922D01*
X77592Y54000D01*
X77775Y53078D01*
X78297Y52297D01*
X79078Y51775D01*
X80000Y51591D01*
X80922Y51775D01*
X81703Y52297D01*
X82225Y53078D01*
X82408Y54000D01*
X82225Y54922D01*
X81703Y55703D01*
X80922Y56225D01*
X80000Y56409D01*
D02*
G37*
G36*
X57500Y46107D02*
X56694Y45947D01*
X56010Y45490D01*
X55553Y44807D01*
X55393Y44000D01*
X55553Y43194D01*
X56010Y42510D01*
X56694Y42053D01*
X57500Y41893D01*
X58306Y42053D01*
X58990Y42510D01*
X59447Y43194D01*
X59607Y44000D01*
X59447Y44807D01*
X58990Y45490D01*
X58306Y45947D01*
X57500Y46107D01*
D02*
G37*
G36*
X34500Y32607D02*
X33694Y32447D01*
X33010Y31990D01*
X32553Y31306D01*
X32393Y30500D01*
X32553Y29693D01*
X33010Y29010D01*
X33694Y28553D01*
X34500Y28393D01*
X35307Y28553D01*
X35990Y29010D01*
X36447Y29693D01*
X36607Y30500D01*
X36447Y31306D01*
X35990Y31990D01*
X35307Y32447D01*
X34500Y32607D01*
D02*
G37*
G36*
X78516Y84092D02*
X77709Y83931D01*
X77026Y83474D01*
X76569Y82791D01*
X76408Y81984D01*
X76569Y81178D01*
X77026Y80494D01*
X77436Y80220D01*
X77393Y80000D01*
X77518Y79369D01*
X76986Y79014D01*
X76529Y78330D01*
X76369Y77524D01*
X76529Y76717D01*
X76854Y76231D01*
X76576Y75815D01*
X76221Y75886D01*
X75415Y75726D01*
X74731Y75269D01*
X74274Y74585D01*
X74114Y73779D01*
X74274Y72972D01*
X74731Y72289D01*
X75415Y71832D01*
X76221Y71671D01*
X77028Y71832D01*
X77711Y72289D01*
X78168Y72972D01*
X78329Y73779D01*
X78168Y74585D01*
X77844Y75071D01*
X78121Y75487D01*
X78476Y75416D01*
X79008Y75522D01*
X79394Y75205D01*
Y61317D01*
X79053Y60807D01*
X78893Y60000D01*
X79053Y59193D01*
X79510Y58510D01*
X80194Y58053D01*
X81000Y57893D01*
X81806Y58053D01*
X82490Y58510D01*
X82947Y59193D01*
X83107Y60000D01*
X82947Y60807D01*
X82606Y61317D01*
Y78500D01*
X82606Y78500D01*
X82504Y79013D01*
X82483Y79115D01*
X82135Y79635D01*
X81567Y80204D01*
X81447Y80806D01*
X80990Y81490D01*
X80580Y81765D01*
X80623Y81984D01*
X80463Y82791D01*
X80006Y83474D01*
X79322Y83931D01*
X78516Y84092D01*
D02*
G37*
G36*
X45500Y109107D02*
X44693Y108947D01*
X44010Y108490D01*
X43553Y107807D01*
X43393Y107000D01*
X43553Y106193D01*
X44010Y105510D01*
X44693Y105053D01*
X45500Y104893D01*
X46306Y105053D01*
X46990Y105510D01*
X47447Y106193D01*
X47607Y107000D01*
X47447Y107807D01*
X46990Y108490D01*
X46306Y108947D01*
X45500Y109107D01*
D02*
G37*
G36*
X26000Y109607D02*
X25194Y109447D01*
X24510Y108990D01*
X24053Y108307D01*
X23893Y107500D01*
X24053Y106693D01*
X24510Y106010D01*
X25194Y105553D01*
X26000Y105393D01*
X26807Y105553D01*
X27490Y106010D01*
X27947Y106693D01*
X28107Y107500D01*
X27947Y108307D01*
X27490Y108990D01*
X26807Y109447D01*
X26000Y109607D01*
D02*
G37*
G36*
X62000Y82107D02*
X61194Y81947D01*
X60510Y81490D01*
X60053Y80806D01*
X59893Y80000D01*
X60053Y79194D01*
X60510Y78510D01*
X61194Y78053D01*
X62000Y77893D01*
X62806Y78053D01*
X63490Y78510D01*
X63947Y79194D01*
X64107Y80000D01*
X63947Y80806D01*
X63490Y81490D01*
X62806Y81947D01*
X62000Y82107D01*
D02*
G37*
G36*
X70720Y93607D02*
X69914Y93447D01*
X69508Y93176D01*
X69044Y93084D01*
X68488Y92712D01*
X67288Y91512D01*
X66916Y90956D01*
X66786Y90300D01*
Y88345D01*
X66400Y88028D01*
X66000Y88107D01*
X65193Y87947D01*
X64510Y87490D01*
X64053Y86806D01*
X63893Y86000D01*
X64053Y85194D01*
X64510Y84510D01*
X65193Y84053D01*
X66000Y83893D01*
X66400Y83972D01*
X66786Y83655D01*
Y77710D01*
X65790Y76714D01*
X64655D01*
X64306Y76947D01*
X63500Y77107D01*
X62694Y76947D01*
X62010Y76490D01*
X61553Y75806D01*
X61393Y75000D01*
X61553Y74194D01*
X62010Y73510D01*
X62694Y73053D01*
X63500Y72893D01*
X64306Y73053D01*
X64655Y73286D01*
X66500D01*
X67156Y73416D01*
X67712Y73788D01*
X69712Y75788D01*
X70084Y76344D01*
X70214Y77000D01*
Y86677D01*
X70655Y86913D01*
X71193Y86553D01*
X72000Y86393D01*
X72807Y86553D01*
X72880Y86602D01*
X73184Y86541D01*
X73402Y86451D01*
X73553Y85694D01*
X74010Y85010D01*
X74694Y84553D01*
X75500Y84393D01*
X76306Y84553D01*
X76990Y85010D01*
X77447Y85694D01*
X77607Y86500D01*
X77447Y87306D01*
X76990Y87990D01*
X76306Y88447D01*
X75500Y88607D01*
X74694Y88447D01*
X74620Y88398D01*
X74316Y88459D01*
X74098Y88549D01*
X73947Y89306D01*
X73490Y89990D01*
X72807Y90447D01*
X72766Y90455D01*
X72667Y90693D01*
X72828Y91500D01*
X72667Y92307D01*
X72211Y92990D01*
X71527Y93447D01*
X70720Y93607D01*
D02*
G37*
%LPD*%
D31*
X11000Y67107D02*
X11107Y67000D01*
X21500D01*
X38500Y50000D01*
X16100Y65000D02*
X16600Y64500D01*
X20500D01*
X69700Y91500D02*
X70720D01*
X68500Y90300D02*
X69700Y91500D01*
X68500Y77000D02*
Y90300D01*
X47500Y30000D02*
Y45000D01*
X42500Y50000D02*
X47500Y45000D01*
X38500Y50000D02*
X42500D01*
X20500Y64500D02*
X32000Y53000D01*
Y45000D02*
Y53000D01*
X44000Y30500D02*
Y42000D01*
X41000Y45000D02*
X44000Y42000D01*
X32000Y45000D02*
X41000D01*
X63500Y75000D02*
X66500D01*
X68500Y77000D01*
D32*
X9800Y70100D02*
X11200D01*
X10500Y27000D02*
Y44000D01*
Y27000D02*
X12000Y25500D01*
X31500D01*
X32500Y24500D01*
Y23000D02*
Y24500D01*
X35500Y22500D02*
X60000D01*
X25000Y9500D02*
X26000Y10500D01*
X47500D01*
X50500Y7500D01*
X60500D01*
X62500Y9500D01*
Y12500D02*
Y20000D01*
X60000Y22500D02*
X62500Y20000D01*
X81000Y60000D02*
Y78500D01*
X79500Y80000D02*
X81000Y78500D01*
X4327Y15673D02*
X4500Y15500D01*
X4327Y15673D02*
Y38773D01*
X4200Y38900D02*
X4327Y38773D01*
X4200Y38900D02*
Y64500D01*
X9800Y70100D01*
D37*
X11100Y67100D02*
D03*
X110700Y24036D02*
D03*
X97900Y23636D02*
D03*
X111000Y34736D02*
D03*
X97900Y35036D02*
D03*
X67020Y92200D02*
D03*
X1600Y32300D02*
D03*
X4500Y15500D02*
D03*
X47500Y30000D02*
D03*
X16100Y64600D02*
D03*
X19000Y5500D02*
D03*
X23000Y115500D02*
D03*
X58000Y26000D02*
D03*
X44000Y30500D02*
D03*
X32000Y45000D02*
D03*
X34500Y26500D02*
D03*
X24500Y14000D02*
D03*
X10500Y44000D02*
D03*
X32500Y23000D02*
D03*
X33500Y14500D02*
D03*
X35500Y13000D02*
D03*
X31500D02*
D03*
X35500Y16000D02*
D03*
X31500D02*
D03*
X65500Y17000D02*
D03*
X25000Y9500D02*
D03*
X35500Y22500D02*
D03*
X54500Y15000D02*
D03*
Y10000D02*
D03*
X62500Y9500D02*
D03*
Y12500D02*
D03*
X46000Y17000D02*
D03*
X42000D02*
D03*
X42500Y5000D02*
D03*
X24000D02*
D03*
X69500Y72000D02*
D03*
X79000Y93000D02*
D03*
X63500Y75000D02*
D03*
X70720Y91500D02*
D03*
X79500Y80000D02*
D03*
X81000Y60000D02*
D03*
X8500Y90500D02*
D03*
X11200Y70200D02*
D03*
X26300Y45700D02*
D03*
X53100Y30136D02*
D03*
D38*
X71500Y79900D02*
D03*
D39*
X75000Y48500D02*
D03*
X15500Y45500D02*
D03*
M02*
