%FSLAX25Y25*%
%MOIN*%
G70*
G01*
G75*
G04 Layer_Physical_Order=3*
G04 Layer_Color=16440176*
%ADD10C,0.01713*%
%ADD11R,0.01969X0.01969*%
%ADD12R,0.01969X0.01969*%
%ADD13O,0.02756X0.01181*%
%ADD14O,0.01181X0.02756*%
%ADD15R,0.04724X0.06693*%
%ADD16R,0.03543X0.03150*%
%ADD17R,0.03150X0.03543*%
%ADD18R,0.03937X0.07874*%
%ADD19R,0.02362X0.01969*%
%ADD20R,0.06693X0.03150*%
%ADD21C,0.00787*%
%ADD22R,0.18504X0.18504*%
%ADD23R,0.04134X0.04134*%
%ADD24R,0.08858X0.04134*%
%ADD25O,0.06693X0.02165*%
%ADD26R,0.06693X0.05906*%
%ADD27O,0.00787X0.01969*%
%ADD28O,0.01969X0.00787*%
%ADD29R,0.01969X0.01378*%
%ADD30C,0.01969*%
%ADD31C,0.01000*%
%ADD32C,0.00787*%
%ADD33C,0.02362*%
%ADD34C,0.01575*%
%ADD35C,0.05906*%
%ADD36C,0.06693*%
%ADD37C,0.01772*%
%ADD38C,0.02598*%
%ADD39C,0.02362*%
%ADD40C,0.11811*%
G36*
X137024Y117215D02*
X136892Y117144D01*
X135813Y116259D01*
X134927Y115180D01*
X134269Y113949D01*
X133864Y112613D01*
X133727Y111224D01*
X133864Y109834D01*
X134269Y108499D01*
X134927Y107267D01*
X135813Y106188D01*
X136892Y105303D01*
X138123Y104645D01*
X139459Y104240D01*
X140848Y104103D01*
X142237Y104240D01*
X143573Y104645D01*
X144804Y105303D01*
X145883Y106188D01*
X146769Y107267D01*
X147015Y107728D01*
X147500Y107606D01*
Y46200D01*
X100200D01*
Y117605D01*
Y117700D01*
X136902D01*
X137024Y117215D01*
D02*
G37*
G36*
X91500Y39600D02*
X147800D01*
Y9837D01*
X147305Y9763D01*
X147230Y10012D01*
X146572Y11243D01*
X145686Y12322D01*
X144607Y13207D01*
X143376Y13866D01*
X142040Y14271D01*
X140651Y14408D01*
X139262Y14271D01*
X137926Y13866D01*
X136695Y13207D01*
X135616Y12322D01*
X134730Y11243D01*
X134072Y10012D01*
X133667Y8676D01*
X133530Y7287D01*
X133667Y5897D01*
X134072Y4562D01*
X134730Y3330D01*
X135616Y2251D01*
X136695Y1366D01*
X137782Y785D01*
X137660Y300D01*
X454D01*
X100Y654D01*
X105Y6599D01*
X600Y6673D01*
X1001Y5349D01*
X1660Y4118D01*
X2545Y3039D01*
X3624Y2153D01*
X4855Y1495D01*
X6191Y1090D01*
X7580Y953D01*
X8969Y1090D01*
X10305Y1495D01*
X11536Y2153D01*
X12616Y3039D01*
X13501Y4118D01*
X14159Y5349D01*
X14564Y6685D01*
X14701Y8074D01*
X14564Y9463D01*
X14159Y10799D01*
X13501Y12030D01*
X12616Y13109D01*
X11536Y13995D01*
X10305Y14653D01*
X8969Y15058D01*
X7580Y15195D01*
X6941Y15132D01*
X6607Y15500D01*
X6447Y16307D01*
X5990Y16990D01*
X5306Y17447D01*
X4500Y17607D01*
X3694Y17447D01*
X3010Y16990D01*
X2927Y16866D01*
X2806Y16947D01*
X2000Y17107D01*
X1194Y16947D01*
X555Y16520D01*
X114Y16756D01*
X126Y30269D01*
X567Y30505D01*
X793Y30353D01*
X1600Y30193D01*
X2406Y30353D01*
X3090Y30810D01*
X3547Y31493D01*
X3707Y32300D01*
X3547Y33106D01*
X3090Y33790D01*
X2406Y34247D01*
X1600Y34407D01*
X793Y34247D01*
X570Y34097D01*
X129Y34333D01*
X191Y107696D01*
X677Y107817D01*
X970Y107267D01*
X1856Y106188D01*
X2935Y105303D01*
X4166Y104645D01*
X5502Y104240D01*
X6891Y104103D01*
X8280Y104240D01*
X9616Y104645D01*
X10847Y105303D01*
X11926Y106188D01*
X12812Y107267D01*
X13470Y108499D01*
X13875Y109834D01*
X14012Y111224D01*
X13875Y112613D01*
X13470Y113949D01*
X12812Y115180D01*
X11926Y116259D01*
X10847Y117144D01*
X10528Y117315D01*
X10650Y117800D01*
X21861D01*
X22006Y117322D01*
X21510Y116990D01*
X21053Y116306D01*
X20893Y115500D01*
X21053Y114693D01*
X21510Y114010D01*
X22194Y113553D01*
X23000Y113393D01*
X23807Y113553D01*
X24490Y114010D01*
X24947Y114693D01*
X25107Y115500D01*
X24947Y116306D01*
X24490Y116990D01*
X23994Y117322D01*
X24139Y117800D01*
X91500D01*
Y39600D01*
D02*
G37*
%LPC*%
G36*
X111000Y36844D02*
X110194Y36683D01*
X109510Y36226D01*
X109053Y35543D01*
X108893Y34736D01*
X109053Y33930D01*
X109510Y33246D01*
X110194Y32789D01*
X111000Y32629D01*
X111806Y32789D01*
X112490Y33246D01*
X112947Y33930D01*
X113107Y34736D01*
X112947Y35543D01*
X112490Y36226D01*
X111806Y36683D01*
X111000Y36844D01*
D02*
G37*
G36*
X97900Y37144D02*
X97093Y36983D01*
X96410Y36526D01*
X95953Y35843D01*
X95793Y35036D01*
X95953Y34230D01*
X96410Y33546D01*
X97093Y33089D01*
X97900Y32929D01*
X98707Y33089D01*
X99390Y33546D01*
X99847Y34230D01*
X100007Y35036D01*
X99847Y35843D01*
X99390Y36526D01*
X98707Y36983D01*
X97900Y37144D01*
D02*
G37*
G36*
X8500Y31607D02*
X7694Y31447D01*
X7250Y31151D01*
X6807Y31447D01*
X6000Y31607D01*
X5193Y31447D01*
X4510Y30990D01*
X4053Y30307D01*
X3893Y29500D01*
X4053Y28694D01*
X4349Y28250D01*
X4053Y27806D01*
X3893Y27000D01*
X4053Y26193D01*
X4510Y25510D01*
X5193Y25053D01*
X6000Y24893D01*
X6807Y25053D01*
X7250Y25349D01*
X7694Y25053D01*
X8500Y24893D01*
X9307Y25053D01*
X9990Y25510D01*
X10447Y26193D01*
X10607Y27000D01*
X10447Y27806D01*
X10151Y28250D01*
X10447Y28694D01*
X10607Y29500D01*
X10447Y30307D01*
X9990Y30990D01*
X9307Y31447D01*
X8500Y31607D01*
D02*
G37*
G36*
X34500Y28607D02*
X33694Y28447D01*
X33010Y27990D01*
X32553Y27307D01*
X32393Y26500D01*
X32553Y25694D01*
X32602Y25620D01*
X32541Y25316D01*
X32451Y25098D01*
X31694Y24947D01*
X31010Y24490D01*
X30990D01*
X30307Y24947D01*
X29500Y25107D01*
X28694Y24947D01*
X28010Y24490D01*
X27553Y23807D01*
X27513Y23605D01*
X27500Y23607D01*
X26693Y23447D01*
X26010Y22990D01*
X25553Y22307D01*
X25393Y21500D01*
X25553Y20694D01*
X26010Y20010D01*
X26693Y19553D01*
X27500Y19393D01*
X28306Y19553D01*
X28990Y20010D01*
X29447Y20694D01*
X29487Y20895D01*
X29500Y20893D01*
X30307Y21053D01*
X30990Y21510D01*
X31010D01*
X31694Y21053D01*
X32500Y20893D01*
X33307Y21053D01*
X33773Y21365D01*
X34010Y21010D01*
X34694Y20553D01*
X35500Y20393D01*
X36307Y20553D01*
X36990Y21010D01*
X37447Y21693D01*
X37607Y22500D01*
X37447Y23306D01*
X36990Y23990D01*
X36307Y24447D01*
X35500Y24607D01*
X35990Y25010D01*
X35990Y25010D01*
X36447Y25694D01*
X36607Y26500D01*
X36447Y27307D01*
X35990Y27990D01*
X35307Y28447D01*
X34500Y28607D01*
D02*
G37*
G36*
X44000Y32607D02*
X43194Y32447D01*
X42510Y31990D01*
X42053Y31306D01*
X41893Y30500D01*
X42053Y29693D01*
X42510Y29010D01*
X43194Y28553D01*
X44000Y28393D01*
X44807Y28553D01*
X45325Y28899D01*
X45815Y28802D01*
X46010Y28510D01*
X46694Y28053D01*
X47500Y27893D01*
X48307Y28053D01*
X48990Y28510D01*
X49447Y29193D01*
X49607Y30000D01*
X49447Y30806D01*
X48990Y31490D01*
X48307Y31947D01*
X47500Y32107D01*
X46694Y31947D01*
X46176Y31601D01*
X45685Y31698D01*
X45490Y31990D01*
X44807Y32447D01*
X44000Y32607D01*
D02*
G37*
G36*
X53100Y32244D02*
X52293Y32083D01*
X51610Y31626D01*
X51153Y30943D01*
X50993Y30136D01*
X51153Y29330D01*
X51610Y28646D01*
X52293Y28189D01*
X53100Y28029D01*
X53907Y28189D01*
X54590Y28646D01*
X55047Y29330D01*
X55207Y30136D01*
X55047Y30943D01*
X54590Y31626D01*
X53907Y32083D01*
X53100Y32244D01*
D02*
G37*
G36*
X14500Y61607D02*
X13693Y61447D01*
X13010Y60990D01*
X12553Y60307D01*
X12393Y59500D01*
X12553Y58693D01*
X13010Y58010D01*
X13601Y57615D01*
X13500Y57107D01*
X12694Y56947D01*
X12010Y56490D01*
X11553Y55806D01*
X11393Y55000D01*
X11423Y54848D01*
X11069Y54494D01*
X10500Y54607D01*
X9693Y54447D01*
X9010Y53990D01*
X8553Y53307D01*
X8393Y52500D01*
X8553Y51693D01*
X9010Y51010D01*
X9133Y50928D01*
Y50428D01*
X8797Y50203D01*
X8275Y49422D01*
X8091Y48500D01*
X8275Y47578D01*
X8797Y46797D01*
X9507Y46322D01*
Y45917D01*
X9485Y45808D01*
X9010Y45490D01*
X8553Y44807D01*
X8393Y44000D01*
X8553Y43194D01*
X9010Y42510D01*
X9693Y42053D01*
X10500Y41893D01*
X11306Y42053D01*
X11990Y42510D01*
X12447Y43194D01*
X12607Y44000D01*
X12447Y44807D01*
X11990Y45490D01*
X11306Y45947D01*
Y46252D01*
X11422Y46275D01*
X11448Y46292D01*
X12855D01*
X13172Y45906D01*
X13092Y45500D01*
X13275Y44578D01*
X13797Y43797D01*
X14578Y43275D01*
X15500Y43091D01*
X16422Y43275D01*
X17203Y43797D01*
X17725Y44578D01*
X17909Y45500D01*
X17828Y45906D01*
X18145Y46292D01*
X23916D01*
X24234Y45906D01*
X24193Y45700D01*
X24353Y44894D01*
X24810Y44210D01*
X25493Y43753D01*
X26300Y43593D01*
X27106Y43753D01*
X27790Y44210D01*
X28247Y44894D01*
X28407Y45700D01*
X28367Y45906D01*
X28684Y46292D01*
X29847D01*
X30083Y45851D01*
X30053Y45807D01*
X29893Y45000D01*
X30053Y44194D01*
X30510Y43510D01*
X31194Y43053D01*
X32000Y42893D01*
X32807Y43053D01*
X33490Y43510D01*
X33947Y44194D01*
X34107Y45000D01*
X33947Y45807D01*
X33917Y45851D01*
X34153Y46292D01*
X49181D01*
X49417Y45851D01*
X49053Y45307D01*
X48893Y44500D01*
X49053Y43694D01*
X49510Y43010D01*
X50194Y42553D01*
X51000Y42393D01*
X51806Y42553D01*
X52490Y43010D01*
X52947Y43694D01*
X53107Y44500D01*
X52947Y45307D01*
X52490Y45990D01*
X52582Y46292D01*
X56349D01*
X56494Y45814D01*
X56010Y45490D01*
X55553Y44807D01*
X55393Y44000D01*
X55553Y43194D01*
X56010Y42510D01*
X56694Y42053D01*
X57500Y41893D01*
X58306Y42053D01*
X58990Y42510D01*
X59447Y43194D01*
X59607Y44000D01*
X59447Y44807D01*
X58990Y45490D01*
X58506Y45814D01*
X58651Y46292D01*
X62500D01*
X63345Y46460D01*
X64061Y46939D01*
X64061Y46939D01*
X64061Y46939D01*
X68891Y51769D01*
X68922Y51775D01*
X69703Y52297D01*
X70225Y53078D01*
X70408Y54000D01*
X70225Y54922D01*
X69703Y55703D01*
X68922Y56225D01*
X68000Y56409D01*
X67078Y56225D01*
X66297Y55703D01*
X65775Y54922D01*
X65769Y54891D01*
X61585Y50708D01*
X12319D01*
X12083Y51149D01*
X12447Y51693D01*
X12607Y52500D01*
X12577Y52652D01*
X12931Y53006D01*
X13500Y52893D01*
X14307Y53053D01*
X14990Y53510D01*
X15447Y54194D01*
X15607Y55000D01*
X15447Y55806D01*
X14990Y56490D01*
X14399Y56885D01*
X14500Y57393D01*
X15306Y57553D01*
X15990Y58010D01*
X16447Y58693D01*
X16607Y59500D01*
X16447Y60307D01*
X15990Y60990D01*
X15306Y61447D01*
X14500Y61607D01*
D02*
G37*
G36*
X35500Y59107D02*
X34694Y58947D01*
X34010Y58490D01*
X33553Y57806D01*
X33393Y57000D01*
X33553Y56194D01*
X34010Y55510D01*
X34694Y55053D01*
X35500Y54893D01*
X36307Y55053D01*
X36990Y55510D01*
X37447Y56194D01*
X37607Y57000D01*
X37447Y57806D01*
X36990Y58490D01*
X36307Y58947D01*
X35500Y59107D01*
D02*
G37*
G36*
X81000Y62107D02*
X80194Y61947D01*
X79510Y61490D01*
X79053Y60807D01*
X78893Y60000D01*
X79053Y59193D01*
X79510Y58510D01*
X80194Y58053D01*
X81000Y57893D01*
X81806Y58053D01*
X82490Y58510D01*
X82947Y59193D01*
X83107Y60000D01*
X82947Y60807D01*
X82490Y61490D01*
X81806Y61947D01*
X81000Y62107D01*
D02*
G37*
G36*
X75000Y50908D02*
X74078Y50725D01*
X73297Y50203D01*
X72775Y49422D01*
X72592Y48500D01*
X72775Y47578D01*
X73297Y46797D01*
X74078Y46275D01*
X75000Y46091D01*
X75922Y46275D01*
X76703Y46797D01*
X77225Y47578D01*
X77408Y48500D01*
X77225Y49422D01*
X76703Y50203D01*
X75922Y50725D01*
X75000Y50908D01*
D02*
G37*
G36*
X132000Y57867D02*
X130818Y57711D01*
X129717Y57255D01*
X128771Y56529D01*
X128045Y55583D01*
X127589Y54482D01*
X127433Y53300D01*
X127589Y52118D01*
X128045Y51017D01*
X128771Y50071D01*
X129717Y49345D01*
X130818Y48889D01*
X132000Y48733D01*
X133182Y48889D01*
X134283Y49345D01*
X135229Y50071D01*
X135955Y51017D01*
X136411Y52118D01*
X136567Y53300D01*
X136411Y54482D01*
X135955Y55583D01*
X135229Y56529D01*
X134283Y57255D01*
X133182Y57711D01*
X132000Y57867D01*
D02*
G37*
G36*
X142000D02*
X140818Y57711D01*
X139717Y57255D01*
X138771Y56529D01*
X138045Y55583D01*
X137589Y54482D01*
X137433Y53300D01*
X137589Y52118D01*
X138045Y51017D01*
X138771Y50071D01*
X139717Y49345D01*
X140818Y48889D01*
X142000Y48733D01*
X143182Y48889D01*
X144283Y49345D01*
X145229Y50071D01*
X145955Y51017D01*
X146411Y52118D01*
X146567Y53300D01*
X146411Y54482D01*
X145955Y55583D01*
X145229Y56529D01*
X144283Y57255D01*
X143182Y57711D01*
X142000Y57867D01*
D02*
G37*
G36*
X33500Y7607D02*
X32693Y7447D01*
X32010Y6990D01*
X31553Y6306D01*
X31393Y5500D01*
X31553Y4693D01*
X32010Y4010D01*
X32693Y3553D01*
X33500Y3393D01*
X34306Y3553D01*
X34990Y4010D01*
X35447Y4693D01*
X35607Y5500D01*
X35447Y6306D01*
X34990Y6990D01*
X34306Y7447D01*
X33500Y7607D01*
D02*
G37*
G36*
X62500Y14607D02*
X61694Y14447D01*
X61010Y13990D01*
X60553Y13307D01*
X60393Y12500D01*
X60553Y11693D01*
X61010Y11010D01*
Y10990D01*
X60553Y10306D01*
X60393Y9500D01*
X60553Y8693D01*
X61010Y8010D01*
X61694Y7553D01*
X62500Y7393D01*
X63306Y7553D01*
X63990Y8010D01*
X64447Y8693D01*
X64607Y9500D01*
X64447Y10306D01*
X63990Y10990D01*
Y11010D01*
X64447Y11693D01*
X64607Y12500D01*
X64447Y13307D01*
X63990Y13990D01*
X63306Y14447D01*
X62500Y14607D01*
D02*
G37*
G36*
X54500Y12107D02*
X53693Y11947D01*
X53010Y11490D01*
X52553Y10807D01*
X52393Y10000D01*
X52553Y9194D01*
X53010Y8510D01*
X53693Y8053D01*
X54500Y7893D01*
X55307Y8053D01*
X55990Y8510D01*
X56447Y9194D01*
X56607Y10000D01*
X56447Y10807D01*
X55990Y11490D01*
X55307Y11947D01*
X54500Y12107D01*
D02*
G37*
G36*
X24500Y16107D02*
X23694Y15947D01*
X23010Y15490D01*
X22553Y14807D01*
X22393Y14000D01*
X22553Y13194D01*
X23010Y12510D01*
X23694Y12053D01*
X24210Y11950D01*
Y11450D01*
X24193Y11447D01*
X23510Y10990D01*
X23053Y10306D01*
X22893Y9500D01*
X23053Y8693D01*
X23510Y8010D01*
X24101Y7615D01*
X24000Y7107D01*
X23193Y6947D01*
X22510Y6490D01*
X22053Y5807D01*
X21893Y5000D01*
X22053Y4194D01*
X22510Y3510D01*
X23193Y3053D01*
X24000Y2893D01*
X24806Y3053D01*
X25490Y3510D01*
X25947Y4194D01*
X26107Y5000D01*
X25947Y5807D01*
X25490Y6490D01*
X24899Y6885D01*
X25000Y7393D01*
X25806Y7553D01*
X26490Y8010D01*
X26947Y8693D01*
X27107Y9500D01*
X26947Y10306D01*
X26490Y10990D01*
X25806Y11447D01*
X25290Y11550D01*
Y12050D01*
X25306Y12053D01*
X25990Y12510D01*
X26447Y13194D01*
X26607Y14000D01*
X26447Y14807D01*
X25990Y15490D01*
X25306Y15947D01*
X24500Y16107D01*
D02*
G37*
G36*
X39500Y10107D02*
X38693Y9947D01*
X38010Y9490D01*
X37553Y8806D01*
X37393Y8000D01*
X37553Y7193D01*
X38010Y6510D01*
X38693Y6053D01*
X39500Y5893D01*
X40173Y6026D01*
X40526Y5673D01*
X40393Y5000D01*
X40553Y4194D01*
X41010Y3510D01*
X41693Y3053D01*
X42500Y2893D01*
X43306Y3053D01*
X43990Y3510D01*
X44447Y4194D01*
X44607Y5000D01*
X44447Y5807D01*
X43990Y6490D01*
X43306Y6947D01*
X42500Y7107D01*
X41827Y6974D01*
X41474Y7327D01*
X41607Y8000D01*
X41447Y8806D01*
X40990Y9490D01*
X40306Y9947D01*
X39500Y10107D01*
D02*
G37*
G36*
X19000Y7607D02*
X18193Y7447D01*
X17510Y6990D01*
X17053Y6306D01*
X16893Y5500D01*
X17053Y4693D01*
X17510Y4010D01*
X18193Y3553D01*
X19000Y3393D01*
X19806Y3553D01*
X20490Y4010D01*
X20947Y4693D01*
X21107Y5500D01*
X20947Y6306D01*
X20490Y6990D01*
X19806Y7447D01*
X19000Y7607D01*
D02*
G37*
G36*
X54500Y17107D02*
X53693Y16947D01*
X53010Y16490D01*
X52553Y15807D01*
X52393Y15000D01*
X52553Y14194D01*
X53010Y13510D01*
X53693Y13053D01*
X54500Y12893D01*
X55307Y13053D01*
X55990Y13510D01*
X56447Y14194D01*
X56607Y15000D01*
X56447Y15807D01*
X55990Y16490D01*
X55307Y16947D01*
X54500Y17107D01*
D02*
G37*
G36*
X97900Y25744D02*
X97093Y25583D01*
X96410Y25126D01*
X95953Y24443D01*
X95793Y23636D01*
X95953Y22830D01*
X96410Y22146D01*
X97093Y21689D01*
X97900Y21529D01*
X98707Y21689D01*
X99390Y22146D01*
X99847Y22830D01*
X100007Y23636D01*
X99847Y24443D01*
X99390Y25126D01*
X98707Y25583D01*
X97900Y25744D01*
D02*
G37*
G36*
X110700Y26144D02*
X109894Y25983D01*
X109210Y25526D01*
X108753Y24843D01*
X108593Y24036D01*
X108753Y23230D01*
X109210Y22546D01*
X109894Y22089D01*
X110700Y21929D01*
X111506Y22089D01*
X112190Y22546D01*
X112647Y23230D01*
X112807Y24036D01*
X112647Y24843D01*
X112190Y25526D01*
X111506Y25983D01*
X110700Y26144D01*
D02*
G37*
G36*
X58000Y28107D02*
X57193Y27947D01*
X56510Y27490D01*
X56053Y26807D01*
X55893Y26000D01*
X56053Y25194D01*
X56510Y24510D01*
X57193Y24053D01*
X58000Y23893D01*
X58807Y24053D01*
X59490Y24510D01*
X59947Y25194D01*
X60107Y26000D01*
X59947Y26807D01*
X59490Y27490D01*
X58807Y27947D01*
X58000Y28107D01*
D02*
G37*
G36*
X65500Y19107D02*
X64693Y18947D01*
X64010Y18490D01*
X63553Y17807D01*
X63393Y17000D01*
X63553Y16194D01*
X64010Y15510D01*
X64693Y15053D01*
X65500Y14893D01*
X66307Y15053D01*
X66990Y15510D01*
X67447Y16194D01*
X67607Y17000D01*
X67447Y17807D01*
X66990Y18490D01*
X66307Y18947D01*
X65500Y19107D01*
D02*
G37*
G36*
X35500Y18107D02*
X34694Y17947D01*
X34010Y17490D01*
X33750Y17101D01*
X33250D01*
X32990Y17490D01*
X32307Y17947D01*
X31500Y18107D01*
X30694Y17947D01*
X30010Y17490D01*
X29553Y16806D01*
X29393Y16000D01*
X29553Y15193D01*
X30010Y14510D01*
Y14490D01*
X29553Y13806D01*
X29393Y13000D01*
X29553Y12194D01*
X30010Y11510D01*
X30694Y11053D01*
X31500Y10893D01*
X32307Y11053D01*
X32990Y11510D01*
X33250Y11899D01*
X33750D01*
X34010Y11510D01*
X34694Y11053D01*
X35500Y10893D01*
X36307Y11053D01*
X36990Y11510D01*
X37447Y12194D01*
X37607Y13000D01*
X37447Y13806D01*
X36990Y14490D01*
Y14510D01*
X37447Y15193D01*
X37607Y16000D01*
X37447Y16806D01*
X36990Y17490D01*
X36307Y17947D01*
X35500Y18107D01*
D02*
G37*
G36*
X46000Y19107D02*
X45193Y18947D01*
X44510Y18490D01*
X44250Y18101D01*
X43750D01*
X43490Y18490D01*
X42807Y18947D01*
X42000Y19107D01*
X41194Y18947D01*
X40510Y18490D01*
X40053Y17807D01*
X39893Y17000D01*
X40053Y16194D01*
X40510Y15510D01*
X41194Y15053D01*
X42000Y14893D01*
X42807Y15053D01*
X43490Y15510D01*
X43750Y15899D01*
X44250D01*
X44510Y15510D01*
X45193Y15053D01*
X46000Y14893D01*
X46806Y15053D01*
X47490Y15510D01*
X47947Y16194D01*
X48107Y17000D01*
X47947Y17807D01*
X47490Y18490D01*
X46806Y18947D01*
X46000Y19107D01*
D02*
G37*
G36*
X132000Y91669D02*
X130921Y91527D01*
X129915Y91111D01*
X129052Y90448D01*
X128389Y89585D01*
X127973Y88579D01*
X127831Y87500D01*
X127973Y86421D01*
X128389Y85415D01*
X129052Y84552D01*
X129915Y83889D01*
X130921Y83473D01*
X132000Y83331D01*
X133079Y83473D01*
X134085Y83889D01*
X134948Y84552D01*
X135611Y85415D01*
X136027Y86421D01*
X136170Y87500D01*
X136027Y88579D01*
X135611Y89585D01*
X134948Y90448D01*
X134085Y91111D01*
X133079Y91527D01*
X132000Y91669D01*
D02*
G37*
G36*
X66000Y88107D02*
X65193Y87947D01*
X64510Y87490D01*
X64053Y86806D01*
X63893Y86000D01*
X64053Y85194D01*
X64510Y84510D01*
X65193Y84053D01*
X66000Y83893D01*
X66807Y84053D01*
X67490Y84510D01*
X67947Y85194D01*
X68107Y86000D01*
X67947Y86806D01*
X67490Y87490D01*
X66807Y87947D01*
X66000Y88107D01*
D02*
G37*
G36*
X8500Y92607D02*
X7694Y92447D01*
X7010Y91990D01*
X6553Y91307D01*
X6393Y90500D01*
X6553Y89693D01*
X7010Y89010D01*
X7694Y88553D01*
X8500Y88393D01*
X9307Y88553D01*
X9990Y89010D01*
X10447Y89693D01*
X10607Y90500D01*
X10447Y91307D01*
X9990Y91990D01*
X9307Y92447D01*
X8500Y92607D01*
D02*
G37*
G36*
X78516Y84092D02*
X77709Y83931D01*
X77026Y83474D01*
X76569Y82791D01*
X76408Y81984D01*
X76569Y81178D01*
X77026Y80494D01*
X77436Y80220D01*
X77393Y80000D01*
X77553Y79194D01*
X78010Y78510D01*
X78693Y78053D01*
X79500Y77893D01*
X80307Y78053D01*
X80990Y78510D01*
X81447Y79194D01*
X81607Y80000D01*
X81447Y80806D01*
X80990Y81490D01*
X80580Y81765D01*
X80623Y81984D01*
X80463Y82791D01*
X80006Y83474D01*
X79322Y83931D01*
X78516Y84092D01*
D02*
G37*
G36*
X115500Y83107D02*
X114693Y82947D01*
X114010Y82490D01*
X113553Y81806D01*
X113393Y81000D01*
X113553Y80194D01*
X114010Y79510D01*
X114693Y79053D01*
X115500Y78893D01*
X116306Y79053D01*
X116990Y79510D01*
X117447Y80194D01*
X117607Y81000D01*
X117447Y81806D01*
X116990Y82490D01*
X116306Y82947D01*
X115500Y83107D01*
D02*
G37*
G36*
X122000Y91669D02*
X120921Y91527D01*
X119915Y91111D01*
X119052Y90448D01*
X118389Y89585D01*
X117973Y88579D01*
X117831Y87500D01*
X117973Y86421D01*
X118389Y85415D01*
X119052Y84552D01*
X119915Y83889D01*
X120921Y83473D01*
X122000Y83331D01*
X123079Y83473D01*
X124085Y83889D01*
X124948Y84552D01*
X125611Y85415D01*
X126027Y86421D01*
X126170Y87500D01*
X126027Y88579D01*
X125611Y89585D01*
X124948Y90448D01*
X124085Y91111D01*
X123079Y91527D01*
X122000Y91669D01*
D02*
G37*
G36*
X67020Y94307D02*
X66214Y94147D01*
X65530Y93690D01*
X65074Y93006D01*
X64913Y92200D01*
X65074Y91394D01*
X65530Y90710D01*
X66214Y90253D01*
X67020Y90093D01*
X67827Y90253D01*
X68511Y90710D01*
X68532Y90742D01*
X68774Y90693D01*
X69230Y90010D01*
X69914Y89553D01*
X70720Y89393D01*
X71527Y89553D01*
X72211Y90010D01*
X72667Y90693D01*
X72828Y91500D01*
X72667Y92307D01*
X72211Y92990D01*
X71527Y93447D01*
X70720Y93607D01*
X69914Y93447D01*
X69230Y92990D01*
X69209Y92958D01*
X68967Y93006D01*
X68511Y93690D01*
X67827Y94147D01*
X67020Y94307D01*
D02*
G37*
G36*
X132000Y103170D02*
X130921Y103027D01*
X129915Y102611D01*
X129052Y101948D01*
X128389Y101085D01*
X127973Y100079D01*
X127831Y99000D01*
X127973Y97921D01*
X128389Y96915D01*
X129052Y96052D01*
X129915Y95389D01*
X130921Y94973D01*
X132000Y94831D01*
X133079Y94973D01*
X134085Y95389D01*
X134948Y96052D01*
X135611Y96915D01*
X136027Y97921D01*
X136170Y99000D01*
X136027Y100079D01*
X135611Y101085D01*
X134948Y101948D01*
X134085Y102611D01*
X133079Y103027D01*
X132000Y103170D01*
D02*
G37*
G36*
X45500Y109107D02*
X44693Y108947D01*
X44010Y108490D01*
X43553Y107807D01*
X43393Y107000D01*
X43553Y106193D01*
X44010Y105510D01*
X44693Y105053D01*
X45500Y104893D01*
X46306Y105053D01*
X46990Y105510D01*
X47447Y106193D01*
X47607Y107000D01*
X47447Y107807D01*
X46990Y108490D01*
X46306Y108947D01*
X45500Y109107D01*
D02*
G37*
G36*
X126000Y114107D02*
X125194Y113947D01*
X124510Y113490D01*
X124053Y112806D01*
X123893Y112000D01*
X124053Y111194D01*
X124510Y110510D01*
X125194Y110053D01*
X126000Y109893D01*
X126806Y110053D01*
X127490Y110510D01*
X127947Y111194D01*
X128107Y112000D01*
X127947Y112806D01*
X127490Y113490D01*
X126806Y113947D01*
X126000Y114107D01*
D02*
G37*
G36*
X115000Y94107D02*
X114193Y93947D01*
X113510Y93490D01*
X113053Y92807D01*
X112893Y92000D01*
X113053Y91193D01*
X113510Y90510D01*
X114193Y90053D01*
X115000Y89893D01*
X115806Y90053D01*
X116490Y90510D01*
X116947Y91193D01*
X117107Y92000D01*
X116947Y92807D01*
X116490Y93490D01*
X115806Y93947D01*
X115000Y94107D01*
D02*
G37*
G36*
X79000Y95107D02*
X78193Y94947D01*
X77510Y94490D01*
X77053Y93806D01*
X76893Y93000D01*
X77053Y92194D01*
X77510Y91510D01*
X78193Y91053D01*
X79000Y90893D01*
X79807Y91053D01*
X80490Y91510D01*
X80947Y92194D01*
X81107Y93000D01*
X80947Y93806D01*
X80490Y94490D01*
X79807Y94947D01*
X79000Y95107D01*
D02*
G37*
G36*
X122000Y103170D02*
X120921Y103027D01*
X119915Y102611D01*
X119052Y101948D01*
X118389Y101085D01*
X117973Y100079D01*
X117831Y99000D01*
X117973Y97921D01*
X118389Y96915D01*
X119052Y96052D01*
X119915Y95389D01*
X120921Y94973D01*
X122000Y94831D01*
X123079Y94973D01*
X124085Y95389D01*
X124948Y96052D01*
X125611Y96915D01*
X126027Y97921D01*
X126170Y99000D01*
X126027Y100079D01*
X125611Y101085D01*
X124948Y101948D01*
X124085Y102611D01*
X123079Y103027D01*
X122000Y103170D01*
D02*
G37*
G36*
X29200Y74543D02*
X27761Y74353D01*
X26420Y73798D01*
X25269Y72914D01*
X24385Y71763D01*
X23830Y70422D01*
X23641Y68984D01*
X23830Y67545D01*
X24385Y66204D01*
X25269Y65052D01*
X26420Y64169D01*
X27761Y63613D01*
X29200Y63424D01*
X30639Y63613D01*
X31980Y64169D01*
X33131Y65052D01*
X34015Y66204D01*
X34570Y67545D01*
X34759Y68984D01*
X34570Y70422D01*
X34015Y71763D01*
X33131Y72914D01*
X31980Y73798D01*
X30639Y74353D01*
X29200Y74543D01*
D02*
G37*
G36*
X122000Y68669D02*
X120921Y68527D01*
X119915Y68111D01*
X119052Y67448D01*
X118389Y66585D01*
X117973Y65579D01*
X117894Y64980D01*
X117407Y64867D01*
X116990Y65490D01*
X116306Y65947D01*
X115500Y66107D01*
X114693Y65947D01*
X114010Y65490D01*
X113553Y64806D01*
X113393Y64000D01*
X113553Y63194D01*
X114010Y62510D01*
X114693Y62053D01*
X115500Y61893D01*
X116306Y62053D01*
X116990Y62510D01*
X117447Y63194D01*
X117479Y63356D01*
X117588Y63370D01*
X117978Y63409D01*
X118389Y62415D01*
X119052Y61552D01*
X119915Y60889D01*
X120921Y60473D01*
X122000Y60330D01*
X123079Y60473D01*
X124085Y60889D01*
X124948Y61552D01*
X125611Y62415D01*
X126027Y63421D01*
X126170Y64500D01*
X126027Y65579D01*
X125611Y66585D01*
X124948Y67448D01*
X124085Y68111D01*
X123079Y68527D01*
X122000Y68669D01*
D02*
G37*
G36*
X11200Y72307D02*
X10394Y72147D01*
X9710Y71690D01*
X9253Y71007D01*
X9093Y70200D01*
X9253Y69393D01*
X9710Y68710D01*
X9710Y68710D01*
X9610Y68590D01*
X9610Y68590D01*
X9610D01*
X9153Y67906D01*
X8993Y67100D01*
X9153Y66294D01*
X9610Y65610D01*
X10294Y65153D01*
X11100Y64993D01*
X11907Y65153D01*
X12590Y65610D01*
X13047Y66294D01*
X13207Y67100D01*
X13047Y67906D01*
X12590Y68590D01*
Y68643D01*
X12690Y68710D01*
X13147Y69393D01*
X13307Y70200D01*
X13147Y71007D01*
X12690Y71690D01*
X12007Y72147D01*
X11200Y72307D01*
D02*
G37*
G36*
X32000Y62607D02*
X31194Y62447D01*
X30510Y61990D01*
X30053Y61307D01*
X29893Y60500D01*
X30053Y59693D01*
X30510Y59010D01*
X31194Y58553D01*
X32000Y58393D01*
X32807Y58553D01*
X33490Y59010D01*
X33947Y59693D01*
X34107Y60500D01*
X33947Y61307D01*
X33490Y61990D01*
X32807Y62447D01*
X32000Y62607D01*
D02*
G37*
G36*
X132000Y68669D02*
X130921Y68527D01*
X129915Y68111D01*
X129052Y67448D01*
X128389Y66585D01*
X127973Y65579D01*
X127831Y64500D01*
X127973Y63421D01*
X128389Y62415D01*
X129052Y61552D01*
X129915Y60889D01*
X130921Y60473D01*
X132000Y60330D01*
X133079Y60473D01*
X134085Y60889D01*
X134948Y61552D01*
X135611Y62415D01*
X136027Y63421D01*
X136170Y64500D01*
X136027Y65579D01*
X135611Y66585D01*
X134948Y67448D01*
X134085Y68111D01*
X133079Y68527D01*
X132000Y68669D01*
D02*
G37*
G36*
X16100Y66707D02*
X15293Y66547D01*
X14610Y66090D01*
X14153Y65407D01*
X13993Y64600D01*
X14153Y63793D01*
X14610Y63110D01*
X15293Y62653D01*
X16100Y62493D01*
X16906Y62653D01*
X17590Y63110D01*
X18047Y63793D01*
X18207Y64600D01*
X18047Y65407D01*
X17590Y66090D01*
X16906Y66547D01*
X16100Y66707D01*
D02*
G37*
G36*
X113500Y73107D02*
X112694Y72947D01*
X112010Y72490D01*
X111553Y71807D01*
X111393Y71000D01*
X111553Y70193D01*
X112010Y69510D01*
X112694Y69053D01*
X113500Y68893D01*
X114306Y69053D01*
X114990Y69510D01*
X115447Y70193D01*
X115607Y71000D01*
X115447Y71807D01*
X114990Y72490D01*
X114306Y72947D01*
X113500Y73107D01*
D02*
G37*
G36*
X132000Y80169D02*
X130921Y80027D01*
X129915Y79611D01*
X129052Y78948D01*
X128389Y78085D01*
X127973Y77079D01*
X127831Y76000D01*
X127973Y74921D01*
X128389Y73915D01*
X129052Y73052D01*
X129915Y72389D01*
X130921Y71973D01*
X132000Y71830D01*
X133079Y71973D01*
X134085Y72389D01*
X134948Y73052D01*
X135611Y73915D01*
X136027Y74921D01*
X136170Y76000D01*
X136027Y77079D01*
X135611Y78085D01*
X134948Y78948D01*
X134085Y79611D01*
X133079Y80027D01*
X132000Y80169D01*
D02*
G37*
G36*
X63500Y77107D02*
X62694Y76947D01*
X62010Y76490D01*
X61553Y75806D01*
X61393Y75000D01*
X61553Y74194D01*
X62010Y73510D01*
X62694Y73053D01*
X63500Y72893D01*
X64306Y73053D01*
X64990Y73510D01*
X65447Y74194D01*
X65607Y75000D01*
X65447Y75806D01*
X64990Y76490D01*
X64306Y76947D01*
X63500Y77107D01*
D02*
G37*
G36*
X71500Y82429D02*
X70532Y82236D01*
X69712Y81688D01*
X69164Y80868D01*
X68971Y79900D01*
X69164Y78932D01*
X69712Y78112D01*
X70532Y77564D01*
X71500Y77371D01*
X72468Y77564D01*
X73288Y78112D01*
X73836Y78932D01*
X74029Y79900D01*
X73836Y80868D01*
X73288Y81688D01*
X72468Y82236D01*
X71500Y82429D01*
D02*
G37*
G36*
X69500Y74107D02*
X68694Y73947D01*
X68010Y73490D01*
X67553Y72807D01*
X67393Y72000D01*
X67553Y71193D01*
X68010Y70510D01*
X68694Y70053D01*
X69500Y69893D01*
X70306Y70053D01*
X70990Y70510D01*
X71447Y71193D01*
X71607Y72000D01*
X71447Y72807D01*
X70990Y73490D01*
X70306Y73947D01*
X69500Y74107D01*
D02*
G37*
G36*
X76221Y75886D02*
X75415Y75726D01*
X74731Y75269D01*
X74274Y74585D01*
X74114Y73779D01*
X74274Y72972D01*
X74731Y72289D01*
X75415Y71832D01*
X76221Y71671D01*
X77028Y71832D01*
X77711Y72289D01*
X78168Y72972D01*
X78329Y73779D01*
X78168Y74585D01*
X77711Y75269D01*
X77028Y75726D01*
X76221Y75886D01*
D02*
G37*
G36*
X122000Y80169D02*
X120921Y80027D01*
X119915Y79611D01*
X119052Y78948D01*
X118389Y78085D01*
X117973Y77079D01*
X117831Y76000D01*
X117973Y74921D01*
X118389Y73915D01*
X119052Y73052D01*
X119915Y72389D01*
X120921Y71973D01*
X122000Y71830D01*
X123079Y71973D01*
X124085Y72389D01*
X124948Y73052D01*
X125611Y73915D01*
X126027Y74921D01*
X126170Y76000D01*
X126027Y77079D01*
X125611Y78085D01*
X124948Y78948D01*
X124085Y79611D01*
X123079Y80027D01*
X122000Y80169D01*
D02*
G37*
%LPD*%
D30*
X62500Y48500D02*
X68000Y54000D01*
X10500Y48500D02*
X62500D01*
D35*
X142000Y99000D02*
D03*
Y87500D02*
D03*
Y76000D02*
D03*
Y64500D02*
D03*
D37*
X2400Y21600D02*
D03*
Y23700D02*
D03*
Y26120D02*
D03*
X126000Y107500D02*
D03*
X26000D02*
D03*
X34500Y30500D02*
D03*
X25000Y18500D02*
D03*
X107000Y58000D02*
D03*
X107500Y109000D02*
D03*
X113000Y108000D02*
D03*
X72000Y88500D02*
D03*
X75500Y86500D02*
D03*
X78476Y77524D02*
D03*
X62000Y80000D02*
D03*
X46300Y20300D02*
D03*
X49200Y6100D02*
D03*
X45300Y5900D02*
D03*
X31400Y2900D02*
D03*
D39*
X80000Y54000D02*
D03*
X68000D02*
D03*
X10500Y48500D02*
D03*
X107000Y53500D02*
D03*
M02*
