%FSLAX25Y25*%
%MOIN*%
G70*
G01*
G75*
G04 Layer_Physical_Order=4*
G04 Layer_Color=16711680*
%ADD10C,0.01713*%
%ADD11R,0.01969X0.01969*%
%ADD12R,0.01969X0.01969*%
%ADD13O,0.02756X0.01181*%
%ADD14O,0.01181X0.02756*%
%ADD15R,0.04724X0.06693*%
%ADD16R,0.03543X0.03150*%
%ADD17R,0.03150X0.03543*%
%ADD18R,0.03937X0.07874*%
%ADD19R,0.02362X0.01969*%
%ADD20R,0.06693X0.03150*%
%ADD21C,0.00787*%
%ADD22R,0.18504X0.18504*%
%ADD23R,0.04134X0.04134*%
%ADD24R,0.08858X0.04134*%
%ADD25O,0.06693X0.02165*%
%ADD26R,0.06693X0.05906*%
%ADD27O,0.00787X0.01969*%
%ADD28O,0.01969X0.00787*%
%ADD29R,0.01969X0.01378*%
%ADD30C,0.01969*%
%ADD31C,0.01000*%
%ADD32C,0.00787*%
%ADD33C,0.02362*%
%ADD34C,0.01575*%
%ADD35C,0.05906*%
%ADD36C,0.06693*%
%ADD37C,0.01772*%
%ADD38C,0.02598*%
%ADD39C,0.02362*%
%ADD40C,0.11811*%
%ADD41R,0.04724X0.05315*%
%ADD42R,0.03937X0.01378*%
%ADD43C,0.02756*%
%ADD44R,0.04000X0.09500*%
G36*
X9894Y23749D02*
X9894Y23749D01*
X9996Y23236D01*
X10017Y23134D01*
X10365Y22613D01*
X10365Y22613D01*
X10365Y22613D01*
X22113Y10865D01*
X22113Y10865D01*
X22113D01*
X22113Y10865D01*
X22113D01*
X22113Y10865D01*
Y10865D01*
Y10865D01*
D01*
D01*
X22113D01*
Y10865D01*
X22634Y10517D01*
X22730Y10497D01*
X23008Y10082D01*
X22893Y9500D01*
X23053Y8693D01*
X23510Y8010D01*
X24101Y7615D01*
X24000Y7108D01*
X24500Y7008D01*
Y5500D01*
X26008D01*
X25947Y5807D01*
X25490Y6490D01*
X24899Y6885D01*
X25000Y7393D01*
X25806Y7553D01*
X26490Y8010D01*
X26947Y8693D01*
X27024Y9082D01*
X27503Y9227D01*
X31293Y5436D01*
X31293Y5436D01*
X31293Y5436D01*
X31192Y5101D01*
X31148Y4957D01*
X30593Y4847D01*
X29910Y4390D01*
X29453Y3706D01*
X29293Y2900D01*
X29453Y2094D01*
X29910Y1410D01*
X30593Y953D01*
X31375Y798D01*
X31356Y610D01*
X31046Y300D01*
X354D01*
X1Y654D01*
X18Y7458D01*
X518Y7482D01*
X596Y6685D01*
X1001Y5349D01*
X1660Y4118D01*
X2545Y3039D01*
X3624Y2153D01*
X4855Y1495D01*
X6191Y1090D01*
X7580Y953D01*
X8969Y1090D01*
X10305Y1495D01*
X11536Y2153D01*
X12616Y3039D01*
X13501Y4118D01*
X14159Y5349D01*
X14564Y6685D01*
X14701Y8074D01*
X14564Y9463D01*
X14159Y10799D01*
X13501Y12030D01*
X12616Y13109D01*
X11536Y13995D01*
X10305Y14653D01*
X8969Y15058D01*
X7580Y15195D01*
X6941Y15132D01*
X6607Y15500D01*
X6447Y16307D01*
X5990Y16990D01*
X5306Y17447D01*
X4500Y17607D01*
X3694Y17447D01*
X3010Y16990D01*
X2927Y16866D01*
X2806Y16947D01*
X2500Y17008D01*
Y16041D01*
X2392Y15500D01*
X2492Y14999D01*
X1500D01*
Y17008D01*
X1194Y16947D01*
X510Y16490D01*
X42Y16803D01*
X52Y20533D01*
X530Y20678D01*
X910Y20110D01*
X1594Y19653D01*
X2400Y19493D01*
X3207Y19653D01*
X3890Y20110D01*
X4347Y20794D01*
X4507Y21600D01*
X4347Y22407D01*
X4184Y22650D01*
X4347Y22894D01*
X4507Y23700D01*
X4482Y23829D01*
X4799Y24216D01*
X9894D01*
Y23749D01*
D02*
G37*
G36*
X77393Y80000D02*
X77518Y79369D01*
X76986Y79014D01*
X76529Y78330D01*
X76369Y77524D01*
X76529Y76717D01*
X76854Y76231D01*
X76576Y75815D01*
X76221Y75886D01*
X75415Y75726D01*
X74976Y75433D01*
X74894Y75416D01*
X74623Y75362D01*
X74067Y74991D01*
X71900Y72824D01*
X71403Y72873D01*
X70990Y73490D01*
X70306Y73947D01*
X70000Y74008D01*
Y71999D01*
X69501D01*
Y71500D01*
X67492D01*
X67553Y71193D01*
X68010Y70510D01*
X68627Y70098D01*
X68676Y69600D01*
X57790Y58714D01*
X39714D01*
X39569Y59193D01*
X39712Y59288D01*
X39712Y59288D01*
X39712Y59288D01*
X44212Y63788D01*
X44584Y64344D01*
X44714Y65000D01*
Y78790D01*
X46303Y80379D01*
X59582D01*
X59893Y80000D01*
X60053Y79194D01*
X60510Y78510D01*
X61194Y78053D01*
X62000Y77893D01*
X62806Y78053D01*
X63490Y78510D01*
X63947Y79194D01*
X64107Y80000D01*
X64418Y80379D01*
X68672D01*
X68989Y79993D01*
X69066Y80379D01*
X73934D01*
X74011Y79993D01*
X74328Y80379D01*
X75488D01*
X77393Y80000D01*
D02*
G37*
G36*
X137024Y117215D02*
X136892Y117144D01*
X135813Y116259D01*
X134927Y115180D01*
X134269Y113949D01*
X133864Y112613D01*
X133727Y111224D01*
X133864Y109834D01*
X134269Y108499D01*
X134927Y107267D01*
X135813Y106188D01*
X136892Y105303D01*
X138123Y104645D01*
X139459Y104240D01*
X140848Y104103D01*
X142237Y104240D01*
X143573Y104645D01*
X144804Y105303D01*
X145883Y106188D01*
X146769Y107267D01*
X147015Y107728D01*
X147500Y107606D01*
Y46200D01*
X100800D01*
Y117605D01*
Y117700D01*
X136902D01*
X137024Y117215D01*
D02*
G37*
G36*
X91500Y39600D02*
X147900D01*
Y9507D01*
X147405Y9433D01*
X147230Y10012D01*
X146572Y11243D01*
X145686Y12322D01*
X144607Y13207D01*
X143376Y13866D01*
X142040Y14271D01*
X140651Y14408D01*
X139262Y14271D01*
X137926Y13866D01*
X136695Y13207D01*
X135616Y12322D01*
X134730Y11243D01*
X134072Y10012D01*
X133667Y8676D01*
X133530Y7287D01*
X133667Y5897D01*
X134072Y4562D01*
X134730Y3330D01*
X135616Y2251D01*
X136695Y1366D01*
X137782Y785D01*
X137660Y300D01*
X31474D01*
X31425Y798D01*
X32206Y953D01*
X32890Y1410D01*
X33347Y2094D01*
X33507Y2900D01*
X33424Y3317D01*
X33500Y3393D01*
X34306Y3553D01*
X34990Y4010D01*
X35447Y4693D01*
X35607Y5500D01*
X35447Y6306D01*
X34990Y6990D01*
X34306Y7447D01*
X33704Y7567D01*
X30709Y10562D01*
X30944Y11003D01*
X31000Y10992D01*
Y12500D01*
X29492D01*
X29503Y12444D01*
X29062Y12209D01*
X28135Y13135D01*
X27615Y13483D01*
X27512Y13504D01*
X27000Y13606D01*
X27000Y13606D01*
X26923D01*
X26606Y13992D01*
X26529Y13606D01*
X24499D01*
Y13999D01*
X24000D01*
Y16008D01*
X24500Y16108D01*
X24926Y16023D01*
X25000Y16393D01*
X25806Y16553D01*
X26490Y17010D01*
X26947Y17694D01*
X27107Y18500D01*
X26994Y19069D01*
X27348Y19423D01*
X27500Y19393D01*
X28306Y19553D01*
X28990Y20010D01*
X29447Y20694D01*
X29485Y20882D01*
X29500Y20893D01*
X29500Y20893D01*
Y20893D01*
X30307Y21053D01*
X30990Y21510D01*
X31010D01*
X31694Y21053D01*
X32500Y20893D01*
X33307Y21053D01*
X33773Y21365D01*
X34010Y21010D01*
X34694Y20553D01*
X35500Y20393D01*
X36307Y20553D01*
X36990Y21010D01*
X37447Y21693D01*
X37607Y22500D01*
X37447Y23306D01*
X36990Y23990D01*
X36307Y24447D01*
X35500Y24607D01*
X35990Y25010D01*
X35990Y25010D01*
X36447Y25694D01*
X36508Y26000D01*
X32492D01*
X32553Y25694D01*
X32602Y25620D01*
X32541Y25316D01*
X32451Y25098D01*
X31694Y24947D01*
X31010Y24490D01*
X30990D01*
X30307Y24947D01*
X29500Y25107D01*
X28694Y24947D01*
X28442Y24779D01*
X22344D01*
Y27554D01*
X18800D01*
Y28554D01*
X22344D01*
Y30712D01*
X23821D01*
Y32680D01*
Y34649D01*
Y36617D01*
Y38389D01*
X17521D01*
Y36617D01*
Y34649D01*
Y32680D01*
Y31893D01*
X16106D01*
Y39000D01*
X16106Y39000D01*
X16004Y39513D01*
X15983Y39614D01*
X15635Y40135D01*
X15635Y40135D01*
X14179Y41591D01*
X13658Y41939D01*
X13557Y41960D01*
X13044Y42062D01*
X13044Y42062D01*
X12126D01*
X11990Y42510D01*
X12447Y43194D01*
X12607Y44000D01*
X12447Y44807D01*
X11990Y45490D01*
X11306Y45947D01*
Y46252D01*
X11422Y46275D01*
X12203Y46797D01*
X12725Y47578D01*
X12909Y48500D01*
X12725Y49422D01*
X12203Y50203D01*
X11867Y50428D01*
Y50928D01*
X11990Y51010D01*
X12447Y51693D01*
X12607Y52500D01*
X12577Y52652D01*
X12931Y53006D01*
X13500Y52893D01*
X14307Y53053D01*
X14990Y53510D01*
X15447Y54194D01*
X15607Y55000D01*
X15447Y55806D01*
X14990Y56490D01*
X14384Y56895D01*
Y56960D01*
X14895Y57471D01*
X15306Y57553D01*
X15990Y58010D01*
X16447Y58693D01*
X16607Y59500D01*
X16560Y59739D01*
X16648Y60182D01*
X16823Y60395D01*
X17521D01*
Y60239D01*
Y60239D01*
X23821D01*
Y60239D01*
Y62208D01*
Y64176D01*
Y66145D01*
Y66286D01*
X24311Y66384D01*
X24385Y66204D01*
X25269Y65052D01*
X26420Y64169D01*
X27761Y63613D01*
X29200Y63424D01*
X30639Y63613D01*
X31980Y64169D01*
X33131Y65052D01*
X34015Y66204D01*
X34570Y67545D01*
X34759Y68984D01*
X34570Y70422D01*
X34015Y71763D01*
X33131Y72914D01*
X31980Y73798D01*
X30639Y74353D01*
X29200Y74543D01*
X27761Y74353D01*
X26420Y73798D01*
X26138Y73581D01*
X25690Y73803D01*
Y77266D01*
X32710Y84286D01*
X45450D01*
X45500Y83788D01*
X45046Y83698D01*
X44937Y83676D01*
X44381Y83305D01*
X41788Y80712D01*
X41416Y80156D01*
X41286Y79500D01*
Y65710D01*
X37790Y62214D01*
X33155D01*
X32807Y62447D01*
X32000Y62607D01*
X31194Y62447D01*
X30510Y61990D01*
X30053Y61307D01*
X29893Y60500D01*
X30053Y59693D01*
X30510Y59010D01*
X31194Y58553D01*
X32000Y58393D01*
X32807Y58553D01*
X33155Y58786D01*
X33677D01*
X33913Y58345D01*
X33553Y57806D01*
X33393Y57000D01*
X33553Y56194D01*
X34010Y55510D01*
X34694Y55053D01*
X35500Y54893D01*
X36307Y55053D01*
X36655Y55286D01*
X58500D01*
X59156Y55416D01*
X59712Y55788D01*
X75699Y71775D01*
X76221Y71671D01*
X77028Y71832D01*
X77711Y72289D01*
X78168Y72972D01*
X78329Y73779D01*
X78168Y74585D01*
X77844Y75071D01*
X78121Y75487D01*
X78476Y75416D01*
X79283Y75577D01*
X79966Y76034D01*
X80423Y76717D01*
X80584Y77524D01*
X80458Y78154D01*
X80990Y78510D01*
X81447Y79194D01*
X81607Y80000D01*
X81447Y80806D01*
X80990Y81490D01*
X80580Y81765D01*
X80623Y81984D01*
X80463Y82791D01*
X80006Y83474D01*
X79322Y83931D01*
X78516Y84092D01*
X77709Y83931D01*
X77523Y83807D01*
X67299D01*
X67154Y84285D01*
X67490Y84510D01*
X67947Y85194D01*
X68107Y86000D01*
X67947Y86806D01*
X67490Y87490D01*
X66807Y87947D01*
X66000Y88107D01*
X65193Y87947D01*
X64845Y87714D01*
X32000D01*
X31344Y87584D01*
X30788Y87212D01*
X22764Y79188D01*
X22392Y78632D01*
X22355Y78447D01*
X22344Y78448D01*
X22344Y78448D01*
X22344Y78448D01*
X19301D01*
Y74608D01*
X18301D01*
Y78448D01*
X15258D01*
D01*
X15258D01*
X15214Y78491D01*
Y94290D01*
X18710Y97786D01*
X38000D01*
X38656Y97916D01*
X39212Y98288D01*
X45895Y104971D01*
X46306Y105053D01*
X46990Y105510D01*
X47447Y106193D01*
X47607Y107000D01*
X47447Y107807D01*
X46990Y108490D01*
X46306Y108947D01*
X45500Y109107D01*
X44693Y108947D01*
X44010Y108490D01*
X43553Y107807D01*
X43471Y107395D01*
X37290Y101214D01*
X18000D01*
X17344Y101084D01*
X16788Y100712D01*
X12288Y96212D01*
X11916Y95656D01*
X11786Y95000D01*
Y72585D01*
X11400Y72268D01*
X11200Y72307D01*
X10920Y72252D01*
X10533Y72569D01*
Y74109D01*
X3447D01*
Y71854D01*
X1970D01*
Y68113D01*
Y66145D01*
Y64176D01*
Y62208D01*
Y62208D01*
X5121D01*
Y62011D01*
X1970D01*
Y60239D01*
Y58271D01*
Y56302D01*
Y54334D01*
Y52365D01*
Y50397D01*
Y50397D01*
X5121D01*
Y50200D01*
X1970D01*
Y48428D01*
Y46460D01*
Y44491D01*
Y44491D01*
X5121D01*
Y44295D01*
X1970D01*
Y42523D01*
Y40554D01*
Y38586D01*
Y36617D01*
Y36421D01*
Y36268D01*
X1600Y34408D01*
X1970Y34334D01*
Y32680D01*
Y32299D01*
X1100D01*
Y34308D01*
X793Y34247D01*
X527Y34069D01*
X87Y34305D01*
X274Y107542D01*
X759Y107663D01*
X970Y107267D01*
X1856Y106188D01*
X2935Y105303D01*
X4166Y104645D01*
X5502Y104240D01*
X6891Y104103D01*
X8280Y104240D01*
X9616Y104645D01*
X10847Y105303D01*
X11926Y106188D01*
X12812Y107267D01*
X13470Y108499D01*
X13875Y109834D01*
X14012Y111224D01*
X13875Y112613D01*
X13470Y113949D01*
X12812Y115180D01*
X11926Y116259D01*
X10847Y117144D01*
X9616Y117803D01*
X9630Y117900D01*
X22010D01*
X22155Y117421D01*
X21510Y116990D01*
X21053Y116306D01*
X20992Y116000D01*
X25008D01*
X24947Y116306D01*
X24490Y116990D01*
X23845Y117421D01*
X23990Y117900D01*
X91500D01*
Y39600D01*
D02*
G37*
%LPC*%
G36*
X44000Y32607D02*
X43194Y32447D01*
X42510Y31990D01*
X42053Y31306D01*
X41893Y30500D01*
X42053Y29693D01*
X42510Y29010D01*
X43194Y28553D01*
X44000Y28393D01*
X44807Y28553D01*
X45325Y28899D01*
X45815Y28802D01*
X46010Y28510D01*
X46694Y28053D01*
X46786Y28035D01*
Y22705D01*
X46400Y22388D01*
X46300Y22407D01*
X45494Y22247D01*
X44810Y21790D01*
X44353Y21106D01*
X44193Y20300D01*
X44353Y19493D01*
X44668Y19021D01*
X44571Y18531D01*
X44510Y18490D01*
X44250Y18101D01*
X43750D01*
X43490Y18490D01*
X42807Y18947D01*
X42500Y19008D01*
Y16999D01*
Y14992D01*
X42807Y15053D01*
X43490Y15510D01*
X43750Y15899D01*
X44250D01*
X44510Y15510D01*
X45193Y15053D01*
X45500Y14992D01*
Y17001D01*
X46500D01*
Y14992D01*
X46400Y14972D01*
X46786Y14655D01*
Y10710D01*
X45790Y9714D01*
X40655D01*
X40306Y9947D01*
X39500Y10107D01*
X38693Y9947D01*
X38010Y9490D01*
X37553Y8806D01*
X37393Y8000D01*
X37553Y7193D01*
X38010Y6510D01*
X38693Y6053D01*
X39500Y5893D01*
X40173Y6026D01*
X40526Y5673D01*
X40492Y5500D01*
X42501D01*
Y5001D01*
X43000D01*
Y2992D01*
X43306Y3053D01*
X43990Y3510D01*
X44254Y3906D01*
X44493Y3953D01*
Y3953D01*
X44493Y3953D01*
X45300Y3793D01*
X46106Y3953D01*
X46790Y4410D01*
X47067Y4824D01*
X47567D01*
X47710Y4610D01*
X48393Y4153D01*
X49200Y3993D01*
X50007Y4153D01*
X50690Y4610D01*
X51147Y5294D01*
X51307Y6100D01*
X51147Y6906D01*
X50690Y7590D01*
X50007Y8047D01*
X49200Y8207D01*
X49176Y8252D01*
X49712Y8788D01*
X50084Y9344D01*
X50214Y10000D01*
Y29000D01*
X50105Y29547D01*
X50084Y29656D01*
X49712Y30212D01*
X49529Y30395D01*
X49447Y30806D01*
X48990Y31490D01*
X48307Y31947D01*
X47500Y32107D01*
X46694Y31947D01*
X46176Y31601D01*
X45685Y31698D01*
X45490Y31990D01*
X44807Y32447D01*
X44000Y32607D01*
D02*
G37*
G36*
X97400Y25644D02*
X97093Y25583D01*
X96410Y25126D01*
X95953Y24443D01*
X95892Y24136D01*
X97400D01*
Y25644D01*
D02*
G37*
G36*
X60008Y25500D02*
X58500D01*
Y23992D01*
X58807Y24053D01*
X59490Y24510D01*
X59947Y25194D01*
X60008Y25500D01*
D02*
G37*
G36*
X57500D02*
X55992D01*
X56053Y25194D01*
X56510Y24510D01*
X57193Y24053D01*
X57500Y23992D01*
Y25500D01*
D02*
G37*
G36*
X112708Y23536D02*
X111200D01*
Y22028D01*
X111506Y22089D01*
X112190Y22546D01*
X112647Y23230D01*
X112708Y23536D01*
D02*
G37*
G36*
X66000Y19008D02*
Y17500D01*
X67508D01*
X67447Y17807D01*
X66990Y18490D01*
X66307Y18947D01*
X66000Y19008D01*
D02*
G37*
G36*
X65000D02*
X64693Y18947D01*
X64010Y18490D01*
X63553Y17807D01*
X63492Y17500D01*
X65000D01*
Y19008D01*
D02*
G37*
G36*
X97400Y23136D02*
X95892D01*
X95953Y22830D01*
X96410Y22146D01*
X97093Y21689D01*
X97400Y21628D01*
Y23136D01*
D02*
G37*
G36*
X110200Y23536D02*
X108692D01*
X108753Y23230D01*
X109210Y22546D01*
X109894Y22089D01*
X110200Y22028D01*
Y23536D01*
D02*
G37*
G36*
X99908Y23136D02*
X98400D01*
Y21628D01*
X98707Y21689D01*
X99390Y22146D01*
X99847Y22830D01*
X99908Y23136D01*
D02*
G37*
G36*
X98400Y25644D02*
Y24136D01*
X99908D01*
X99847Y24443D01*
X99390Y25126D01*
X98707Y25583D01*
X98400Y25644D01*
D02*
G37*
G36*
X53600Y32144D02*
Y30636D01*
X55108D01*
X55047Y30943D01*
X54590Y31626D01*
X53907Y32083D01*
X53600Y32144D01*
D02*
G37*
G36*
X52600D02*
X52293Y32083D01*
X51610Y31626D01*
X51153Y30943D01*
X51092Y30636D01*
X52600D01*
Y32144D01*
D02*
G37*
G36*
X34500Y32607D02*
X33694Y32447D01*
X33010Y31990D01*
X32553Y31306D01*
X32393Y30500D01*
X32553Y29693D01*
X33010Y29010D01*
X33399Y28750D01*
Y28250D01*
X33010Y27990D01*
X32553Y27307D01*
X32492Y27000D01*
X36508D01*
X36447Y27307D01*
X35990Y27990D01*
X35307Y28447D01*
X35990Y29010D01*
Y29010D01*
Y29010D01*
X35990Y29010D01*
X35990Y29010D01*
X35990Y29010D01*
X35990Y29010D01*
D01*
X36447Y29693D01*
X36607Y30500D01*
X36447Y31306D01*
X35990Y31990D01*
X35307Y32447D01*
X34500Y32607D01*
D02*
G37*
G36*
X97400Y34536D02*
X95892D01*
X95953Y34230D01*
X96410Y33546D01*
X97093Y33089D01*
X97400Y33028D01*
Y34536D01*
D02*
G37*
G36*
X113008Y34236D02*
X111500D01*
Y32728D01*
X111806Y32789D01*
X112490Y33246D01*
X112947Y33930D01*
X113008Y34236D01*
D02*
G37*
G36*
X110500D02*
X108992D01*
X109053Y33930D01*
X109510Y33246D01*
X110194Y32789D01*
X110500Y32728D01*
Y34236D01*
D02*
G37*
G36*
X57500Y28008D02*
X57193Y27947D01*
X56510Y27490D01*
X56053Y26807D01*
X55992Y26500D01*
X57500D01*
Y28008D01*
D02*
G37*
G36*
X111200Y26044D02*
Y24536D01*
X112708D01*
X112647Y24843D01*
X112190Y25526D01*
X111506Y25983D01*
X111200Y26044D01*
D02*
G37*
G36*
X110200D02*
X109894Y25983D01*
X109210Y25526D01*
X108753Y24843D01*
X108692Y24536D01*
X110200D01*
Y26044D01*
D02*
G37*
G36*
X55108Y29636D02*
X53600D01*
Y28128D01*
X53907Y28189D01*
X54590Y28646D01*
X55047Y29330D01*
X55108Y29636D01*
D02*
G37*
G36*
X52600D02*
X51092D01*
X51153Y29330D01*
X51610Y28646D01*
X52293Y28189D01*
X52600Y28128D01*
Y29636D01*
D02*
G37*
G36*
X58500Y28008D02*
Y26500D01*
X60008D01*
X59947Y26807D01*
X59490Y27490D01*
X58807Y27947D01*
X58500Y28008D01*
D02*
G37*
G36*
X41500Y19008D02*
X41194Y18947D01*
X40510Y18490D01*
X40053Y17807D01*
X39992Y17500D01*
X41500D01*
Y19008D01*
D02*
G37*
G36*
X62500Y14607D02*
X61694Y14447D01*
X61010Y13990D01*
X60553Y13307D01*
X60393Y12500D01*
X60553Y11693D01*
X61010Y11010D01*
Y10990D01*
X60553Y10306D01*
X60393Y9500D01*
X60553Y8693D01*
X61010Y8010D01*
X61694Y7553D01*
X62500Y7393D01*
X63306Y7553D01*
X63990Y8010D01*
X64447Y8693D01*
X64607Y9500D01*
X64447Y10306D01*
X63990Y10990D01*
Y11010D01*
X64447Y11693D01*
X64607Y12500D01*
X64447Y13307D01*
X63990Y13990D01*
X63306Y14447D01*
X62500Y14607D01*
D02*
G37*
G36*
X19500Y7508D02*
Y6000D01*
X21008D01*
X20947Y6306D01*
X20490Y6990D01*
X19806Y7447D01*
X19500Y7508D01*
D02*
G37*
G36*
X18500D02*
X18193Y7447D01*
X17510Y6990D01*
X17053Y6306D01*
X16992Y6000D01*
X18500D01*
Y7508D01*
D02*
G37*
G36*
X54000Y12008D02*
X53693Y11947D01*
X53010Y11490D01*
X52553Y10807D01*
X52492Y10500D01*
X54000D01*
Y12008D01*
D02*
G37*
G36*
X56508Y9500D02*
X55000D01*
Y7992D01*
X55307Y8053D01*
X55990Y8510D01*
X56447Y9194D01*
X56508Y9500D01*
D02*
G37*
G36*
X54000D02*
X52492D01*
X52553Y9194D01*
X53010Y8510D01*
X53693Y8053D01*
X54000Y7992D01*
Y9500D01*
D02*
G37*
G36*
X42000Y4500D02*
X40492D01*
X40553Y4194D01*
X41010Y3510D01*
X41693Y3053D01*
X42000Y2992D01*
Y4500D01*
D02*
G37*
G36*
X26008D02*
X24500D01*
Y2992D01*
X24806Y3053D01*
X25490Y3510D01*
X25947Y4194D01*
X26008Y4500D01*
D02*
G37*
G36*
X23500D02*
X21992D01*
X22053Y4194D01*
X22510Y3510D01*
X23193Y3053D01*
X23500Y2992D01*
Y4500D01*
D02*
G37*
G36*
Y7008D02*
X23193Y6947D01*
X22510Y6490D01*
X22053Y5807D01*
X21992Y5500D01*
X23500D01*
Y7008D01*
D02*
G37*
G36*
X21008Y5000D02*
X19500D01*
Y3492D01*
X19806Y3553D01*
X20490Y4010D01*
X20947Y4693D01*
X21008Y5000D01*
D02*
G37*
G36*
X18500D02*
X16992D01*
X17053Y4693D01*
X17510Y4010D01*
X18193Y3553D01*
X18500Y3492D01*
Y5000D01*
D02*
G37*
G36*
X55000Y12008D02*
Y10500D01*
X56508D01*
X56447Y10807D01*
X55990Y11490D01*
X55307Y11947D01*
X55000Y12008D01*
D02*
G37*
G36*
Y17008D02*
Y15500D01*
X56508D01*
X56447Y15807D01*
X55990Y16490D01*
X55307Y16947D01*
X55000Y17008D01*
D02*
G37*
G36*
X54000D02*
X53693Y16947D01*
X53010Y16490D01*
X52553Y15807D01*
X52492Y15500D01*
X54000D01*
Y17008D01*
D02*
G37*
G36*
X67508Y16500D02*
X66000D01*
Y14992D01*
X66307Y15053D01*
X66990Y15510D01*
X67447Y16194D01*
X67508Y16500D01*
D02*
G37*
G36*
X35000Y18008D02*
X34694Y17947D01*
X34010Y17490D01*
X33750Y17101D01*
X33250D01*
X32990Y17490D01*
X32307Y17947D01*
X32000Y18008D01*
Y15999D01*
X31501D01*
Y15500D01*
X29492D01*
X29553Y15193D01*
X30010Y14510D01*
Y14490D01*
X29553Y13806D01*
X29492Y13500D01*
X31501D01*
Y13001D01*
X32000D01*
Y10992D01*
X32307Y11053D01*
X32990Y11510D01*
X33250Y11899D01*
X33750D01*
X34010Y11510D01*
X34694Y11053D01*
X35000Y10992D01*
Y13001D01*
X35499D01*
Y13500D01*
X37508D01*
X37447Y13806D01*
X36990Y14490D01*
Y14510D01*
X37447Y15193D01*
X37508Y15500D01*
X35499D01*
Y15999D01*
X35000D01*
Y18008D01*
D02*
G37*
G36*
X36000D02*
Y16500D01*
X37508D01*
X37447Y16806D01*
X36990Y17490D01*
X36307Y17947D01*
X36000Y18008D01*
D02*
G37*
G36*
X31000D02*
X30694Y17947D01*
X30010Y17490D01*
X29553Y16806D01*
X29492Y16500D01*
X31000D01*
Y18008D01*
D02*
G37*
G36*
X56508Y14500D02*
X55000D01*
Y12992D01*
X55307Y13053D01*
X55990Y13510D01*
X56447Y14194D01*
X56508Y14500D01*
D02*
G37*
G36*
X54000D02*
X52492D01*
X52553Y14194D01*
X53010Y13510D01*
X53693Y13053D01*
X54000Y12992D01*
Y14500D01*
D02*
G37*
G36*
X37508Y12500D02*
X36000D01*
Y10992D01*
X36307Y11053D01*
X36990Y11510D01*
X37447Y12194D01*
X37508Y12500D01*
D02*
G37*
G36*
X65000Y16500D02*
X63492D01*
X63553Y16194D01*
X64010Y15510D01*
X64693Y15053D01*
X65000Y14992D01*
Y16500D01*
D02*
G37*
G36*
X41500D02*
X39992D01*
X40053Y16194D01*
X40510Y15510D01*
X41194Y15053D01*
X41500Y14992D01*
Y16500D01*
D02*
G37*
G36*
X25000Y16008D02*
Y14500D01*
X26508D01*
X26447Y14807D01*
X25990Y15490D01*
X25306Y15947D01*
X25000Y16008D01*
D02*
G37*
G36*
X10508Y90000D02*
X9000D01*
Y88492D01*
X9307Y88553D01*
X9990Y89010D01*
X10447Y89693D01*
X10508Y90000D01*
D02*
G37*
G36*
X8000D02*
X6492D01*
X6553Y89693D01*
X7010Y89010D01*
X7694Y88553D01*
X8000Y88492D01*
Y90000D01*
D02*
G37*
G36*
X67520Y94208D02*
Y92199D01*
Y90192D01*
X67827Y90253D01*
X68511Y90710D01*
X68532Y90742D01*
X68774Y90693D01*
X69230Y90010D01*
X69914Y89553D01*
X69954Y89545D01*
X70053Y89306D01*
X69893Y88500D01*
X70053Y87694D01*
X70510Y87010D01*
X71193Y86553D01*
X72000Y86393D01*
X72807Y86553D01*
X72880Y86602D01*
X73184Y86541D01*
X73402Y86451D01*
X73553Y85694D01*
X74010Y85010D01*
X74694Y84553D01*
X75500Y84393D01*
X76306Y84553D01*
X76990Y85010D01*
X77447Y85694D01*
X77607Y86500D01*
X77447Y87306D01*
X76990Y87990D01*
X76306Y88447D01*
X75500Y88607D01*
X74694Y88447D01*
X74620Y88398D01*
X74316Y88459D01*
X74098Y88549D01*
X73947Y89306D01*
X73490Y89990D01*
X72807Y90447D01*
X72766Y90455D01*
X72667Y90693D01*
X72828Y91500D01*
X72667Y92307D01*
X72211Y92990D01*
X71527Y93447D01*
X70720Y93607D01*
X69914Y93447D01*
X69230Y92990D01*
X69209Y92958D01*
X68967Y93006D01*
X68511Y93690D01*
X67827Y94147D01*
X67520Y94208D01*
D02*
G37*
G36*
X81008Y92500D02*
X79500D01*
Y90992D01*
X79807Y91053D01*
X80490Y91510D01*
X80947Y92194D01*
X81008Y92500D01*
D02*
G37*
G36*
X78500D02*
X76992D01*
X77053Y92194D01*
X77510Y91510D01*
X78193Y91053D01*
X78500Y90992D01*
Y92500D01*
D02*
G37*
G36*
X66521Y91700D02*
X65013D01*
X65074Y91394D01*
X65530Y90710D01*
X66214Y90253D01*
X66521Y90192D01*
Y91700D01*
D02*
G37*
G36*
X71000Y79400D02*
X69071D01*
X69164Y78932D01*
X69712Y78112D01*
X70532Y77564D01*
X71000Y77471D01*
Y79400D01*
D02*
G37*
G36*
X10533Y78448D02*
X7490D01*
Y75109D01*
X10533D01*
Y78448D01*
D02*
G37*
G36*
X6490D02*
X3447D01*
Y75109D01*
X6490D01*
Y78448D01*
D02*
G37*
G36*
X142000Y91669D02*
X140921Y91527D01*
X139915Y91111D01*
X139052Y90448D01*
X138389Y89585D01*
X137973Y88579D01*
X137830Y87500D01*
X137973Y86421D01*
X138389Y85415D01*
X139052Y84552D01*
X139915Y83889D01*
X140921Y83473D01*
X142000Y83331D01*
X143079Y83473D01*
X144085Y83889D01*
X144948Y84552D01*
X145611Y85415D01*
X146027Y86421D01*
X146169Y87500D01*
X146027Y88579D01*
X145611Y89585D01*
X144948Y90448D01*
X144085Y91111D01*
X143079Y91527D01*
X142000Y91669D01*
D02*
G37*
G36*
X132000D02*
X130921Y91527D01*
X129915Y91111D01*
X129052Y90448D01*
X128389Y89585D01*
X127973Y88579D01*
X127831Y87500D01*
X127973Y86421D01*
X128389Y85415D01*
X129052Y84552D01*
X129915Y83889D01*
X130921Y83473D01*
X132000Y83331D01*
X133079Y83473D01*
X134085Y83889D01*
X134948Y84552D01*
X135611Y85415D01*
X136027Y86421D01*
X136170Y87500D01*
X136027Y88579D01*
X135611Y89585D01*
X134948Y90448D01*
X134085Y91111D01*
X133079Y91527D01*
X132000Y91669D01*
D02*
G37*
G36*
X73929Y79400D02*
X72000D01*
Y77471D01*
X72468Y77564D01*
X73288Y78112D01*
X73836Y78932D01*
X73929Y79400D01*
D02*
G37*
G36*
X8000Y92508D02*
X7694Y92447D01*
X7010Y91990D01*
X6553Y91307D01*
X6492Y91000D01*
X8000D01*
Y92508D01*
D02*
G37*
G36*
X113000Y110107D02*
X112194Y109947D01*
X111510Y109490D01*
X111053Y108807D01*
X110893Y108000D01*
X111053Y107194D01*
X111510Y106510D01*
X112194Y106053D01*
X113000Y105893D01*
X113806Y106053D01*
X114490Y106510D01*
X114947Y107194D01*
X115107Y108000D01*
X114947Y108807D01*
X114490Y109490D01*
X113806Y109947D01*
X113000Y110107D01*
D02*
G37*
G36*
X126000Y109607D02*
X125194Y109447D01*
X124510Y108990D01*
X124053Y108307D01*
X123893Y107500D01*
X124053Y106693D01*
X124510Y106010D01*
X125194Y105553D01*
X126000Y105393D01*
X126806Y105553D01*
X127490Y106010D01*
X127947Y106693D01*
X128107Y107500D01*
X127947Y108307D01*
X127490Y108990D01*
X126806Y109447D01*
X126000Y109607D01*
D02*
G37*
G36*
X26000D02*
X25194Y109447D01*
X24510Y108990D01*
X24053Y108307D01*
X23893Y107500D01*
X24053Y106693D01*
X24510Y106010D01*
X25194Y105553D01*
X26000Y105393D01*
X26807Y105553D01*
X27490Y106010D01*
X27947Y106693D01*
X28107Y107500D01*
X27947Y108307D01*
X27490Y108990D01*
X26807Y109447D01*
X26000Y109607D01*
D02*
G37*
G36*
X25008Y115000D02*
X23500D01*
Y113492D01*
X23807Y113553D01*
X24490Y114010D01*
X24947Y114693D01*
X25008Y115000D01*
D02*
G37*
G36*
X22500D02*
X20992D01*
X21053Y114693D01*
X21510Y114010D01*
X22194Y113553D01*
X22500Y113492D01*
Y115000D01*
D02*
G37*
G36*
X107500Y111107D02*
X106693Y110947D01*
X106010Y110490D01*
X105553Y109807D01*
X105393Y109000D01*
X105553Y108194D01*
X106010Y107510D01*
X106693Y107053D01*
X107500Y106893D01*
X108307Y107053D01*
X108990Y107510D01*
X109447Y108194D01*
X109607Y109000D01*
X109447Y109807D01*
X108990Y110490D01*
X108307Y110947D01*
X107500Y111107D01*
D02*
G37*
G36*
X78500Y95008D02*
X78193Y94947D01*
X77510Y94490D01*
X77053Y93806D01*
X76992Y93500D01*
X78500D01*
Y95008D01*
D02*
G37*
G36*
X66521Y94208D02*
X66214Y94147D01*
X65530Y93690D01*
X65074Y93006D01*
X65013Y92700D01*
X66521D01*
Y94208D01*
D02*
G37*
G36*
X9000Y92508D02*
Y91000D01*
X10508D01*
X10447Y91307D01*
X9990Y91990D01*
X9307Y92447D01*
X9000Y92508D01*
D02*
G37*
G36*
X142000Y103170D02*
X140921Y103027D01*
X139915Y102611D01*
X139052Y101948D01*
X138389Y101085D01*
X137973Y100079D01*
X137830Y99000D01*
X137973Y97921D01*
X138389Y96915D01*
X139052Y96052D01*
X139915Y95389D01*
X140921Y94973D01*
X142000Y94831D01*
X143079Y94973D01*
X144085Y95389D01*
X144948Y96052D01*
X145611Y96915D01*
X146027Y97921D01*
X146169Y99000D01*
X146027Y100079D01*
X145611Y101085D01*
X144948Y101948D01*
X144085Y102611D01*
X143079Y103027D01*
X142000Y103170D01*
D02*
G37*
G36*
X132000D02*
X130921Y103027D01*
X129915Y102611D01*
X129052Y101948D01*
X128389Y101085D01*
X127973Y100079D01*
X127831Y99000D01*
X127973Y97921D01*
X128389Y96915D01*
X129052Y96052D01*
X129915Y95389D01*
X130921Y94973D01*
X132000Y94831D01*
X133079Y94973D01*
X134085Y95389D01*
X134948Y96052D01*
X135611Y96915D01*
X136027Y97921D01*
X136170Y99000D01*
X136027Y100079D01*
X135611Y101085D01*
X134948Y101948D01*
X134085Y102611D01*
X133079Y103027D01*
X132000Y103170D01*
D02*
G37*
G36*
X79500Y95008D02*
Y93500D01*
X81008D01*
X80947Y93806D01*
X80490Y94490D01*
X79807Y94947D01*
X79500Y95008D01*
D02*
G37*
G36*
X77309Y48000D02*
X75500D01*
Y46191D01*
X75922Y46275D01*
X76703Y46797D01*
X77225Y47578D01*
X77309Y48000D01*
D02*
G37*
G36*
X74500D02*
X72691D01*
X72775Y47578D01*
X73297Y46797D01*
X74078Y46275D01*
X74500Y46191D01*
Y48000D01*
D02*
G37*
G36*
X15000Y47809D02*
X14578Y47725D01*
X13797Y47203D01*
X13275Y46422D01*
X13191Y46000D01*
X15000D01*
Y47809D01*
D02*
G37*
G36*
X75500Y50809D02*
Y49000D01*
X77309D01*
X77225Y49422D01*
X76703Y50203D01*
X75922Y50725D01*
X75500Y50809D01*
D02*
G37*
G36*
X74500D02*
X74078Y50725D01*
X73297Y50203D01*
X72775Y49422D01*
X72691Y49000D01*
X74500D01*
Y50809D01*
D02*
G37*
G36*
X56000Y50714D02*
X33100D01*
X32444Y50584D01*
X31888Y50212D01*
X28500Y46824D01*
X28002Y46873D01*
X27790Y47190D01*
X27106Y47647D01*
X26800Y47708D01*
Y45699D01*
X25800D01*
Y47708D01*
X25493Y47647D01*
X24810Y47190D01*
X24353Y46507D01*
X24318Y46331D01*
X23821Y46380D01*
Y46460D01*
Y48428D01*
Y50200D01*
X17521D01*
Y48428D01*
Y47521D01*
X17080Y47285D01*
X16422Y47725D01*
X16000Y47809D01*
Y45499D01*
Y43191D01*
X16422Y43275D01*
X17080Y43715D01*
X17521Y43479D01*
Y42523D01*
Y40554D01*
Y38586D01*
Y38586D01*
X23821D01*
Y38586D01*
Y38742D01*
X25456D01*
X25678Y38786D01*
X47000D01*
X47656Y38916D01*
X48212Y39288D01*
X48212Y39288D01*
X48212Y39288D01*
X51395Y42471D01*
X51806Y42553D01*
X52490Y43010D01*
X52947Y43694D01*
X53107Y44500D01*
X52947Y45307D01*
X52490Y45990D01*
X51806Y46447D01*
X51000Y46607D01*
X50194Y46447D01*
X49510Y45990D01*
X49053Y45307D01*
X48971Y44895D01*
X46290Y42214D01*
X29391D01*
X29200Y42676D01*
X30077Y43553D01*
X30510Y43510D01*
X31194Y43053D01*
X32000Y42893D01*
X32807Y43053D01*
X33490Y43510D01*
X33947Y44194D01*
X34107Y45000D01*
X33947Y45807D01*
X33490Y46490D01*
X33448Y46924D01*
X33810Y47286D01*
X55290D01*
X55786Y46790D01*
Y45155D01*
X55553Y44807D01*
X55393Y44000D01*
X55553Y43194D01*
X56010Y42510D01*
X56694Y42053D01*
X57500Y41893D01*
X58306Y42053D01*
X58990Y42510D01*
X59447Y43194D01*
X59607Y44000D01*
X59447Y44807D01*
X59214Y45155D01*
Y47500D01*
X59084Y48156D01*
X58712Y48712D01*
X57212Y50212D01*
X56656Y50584D01*
X56000Y50714D01*
D02*
G37*
G36*
X111500Y36744D02*
Y35236D01*
X113008D01*
X112947Y35543D01*
X112490Y36226D01*
X111806Y36683D01*
X111500Y36744D01*
D02*
G37*
G36*
X110500D02*
X110194Y36683D01*
X109510Y36226D01*
X109053Y35543D01*
X108992Y35236D01*
X110500D01*
Y36744D01*
D02*
G37*
G36*
X99908Y34536D02*
X98400D01*
Y33028D01*
X98707Y33089D01*
X99390Y33546D01*
X99847Y34230D01*
X99908Y34536D01*
D02*
G37*
G36*
X15000Y45000D02*
X13191D01*
X13275Y44578D01*
X13797Y43797D01*
X14578Y43275D01*
X15000Y43191D01*
Y45000D01*
D02*
G37*
G36*
X98400Y37044D02*
Y35536D01*
X99908D01*
X99847Y35843D01*
X99390Y36526D01*
X98707Y36983D01*
X98400Y37044D01*
D02*
G37*
G36*
X97400D02*
X97093Y36983D01*
X96410Y36526D01*
X95953Y35843D01*
X95892Y35536D01*
X97400D01*
Y37044D01*
D02*
G37*
G36*
X23821Y51767D02*
X17521D01*
Y50798D01*
X23821D01*
Y51767D01*
D02*
G37*
G36*
X132000Y80169D02*
X130921Y80027D01*
X129915Y79611D01*
X129052Y78948D01*
X128389Y78085D01*
X127973Y77079D01*
X127831Y76000D01*
X127973Y74921D01*
X128389Y73915D01*
X129052Y73052D01*
X129915Y72389D01*
X130921Y71973D01*
X132000Y71830D01*
X133079Y71973D01*
X134085Y72389D01*
X134948Y73052D01*
X135611Y73915D01*
X136027Y74921D01*
X136170Y76000D01*
X136027Y77079D01*
X135611Y78085D01*
X134948Y78948D01*
X134085Y79611D01*
X133079Y80027D01*
X132000Y80169D01*
D02*
G37*
G36*
X142000Y68669D02*
X140921Y68527D01*
X139915Y68111D01*
X139052Y67448D01*
X138389Y66585D01*
X137973Y65579D01*
X137830Y64500D01*
X137973Y63421D01*
X138389Y62415D01*
X139052Y61552D01*
X139915Y60889D01*
X140921Y60473D01*
X142000Y60330D01*
X143079Y60473D01*
X144085Y60889D01*
X144948Y61552D01*
X145611Y62415D01*
X146027Y63421D01*
X146169Y64500D01*
X146027Y65579D01*
X145611Y66585D01*
X144948Y67448D01*
X144085Y68111D01*
X143079Y68527D01*
X142000Y68669D01*
D02*
G37*
G36*
X132000D02*
X130921Y68527D01*
X129915Y68111D01*
X129052Y67448D01*
X128389Y66585D01*
X127973Y65579D01*
X127831Y64500D01*
X127973Y63421D01*
X128389Y62415D01*
X129052Y61552D01*
X129915Y60889D01*
X130921Y60473D01*
X132000Y60330D01*
X133079Y60473D01*
X134085Y60889D01*
X134948Y61552D01*
X135611Y62415D01*
X136027Y63421D01*
X136170Y64500D01*
X136027Y65579D01*
X135611Y66585D01*
X134948Y67448D01*
X134085Y68111D01*
X133079Y68527D01*
X132000Y68669D01*
D02*
G37*
G36*
X63500Y77107D02*
X62694Y76947D01*
X62010Y76490D01*
X61553Y75806D01*
X61393Y75000D01*
X61553Y74194D01*
X62010Y73510D01*
X62694Y73053D01*
X63500Y72893D01*
X64306Y73053D01*
X64990Y73510D01*
X65447Y74194D01*
X65607Y75000D01*
X65447Y75806D01*
X64990Y76490D01*
X64306Y76947D01*
X63500Y77107D01*
D02*
G37*
G36*
X69000Y74008D02*
X68694Y73947D01*
X68010Y73490D01*
X67553Y72807D01*
X67492Y72500D01*
X69000D01*
Y74008D01*
D02*
G37*
G36*
X142000Y80169D02*
X140921Y80027D01*
X139915Y79611D01*
X139052Y78948D01*
X138389Y78085D01*
X137973Y77079D01*
X137830Y76000D01*
X137973Y74921D01*
X138389Y73915D01*
X139052Y73052D01*
X139915Y72389D01*
X140921Y71973D01*
X142000Y71830D01*
X143079Y71973D01*
X144085Y72389D01*
X144948Y73052D01*
X145611Y73915D01*
X146027Y74921D01*
X146169Y76000D01*
X146027Y77079D01*
X145611Y78085D01*
X144948Y78948D01*
X144085Y79611D01*
X143079Y80027D01*
X142000Y80169D01*
D02*
G37*
G36*
X23821Y60043D02*
X17521D01*
Y58271D01*
Y56302D01*
Y54334D01*
Y52365D01*
Y52365D01*
X23821D01*
Y52365D01*
Y54334D01*
Y56302D01*
Y58271D01*
Y60043D01*
D02*
G37*
G36*
X80000Y56409D02*
X79078Y56225D01*
X78297Y55703D01*
X77775Y54922D01*
X77592Y54000D01*
X77775Y53078D01*
X78297Y52297D01*
X79078Y51775D01*
X80000Y51591D01*
X80922Y51775D01*
X81703Y52297D01*
X82225Y53078D01*
X82408Y54000D01*
X82225Y54922D01*
X81703Y55703D01*
X80922Y56225D01*
X80000Y56409D01*
D02*
G37*
G36*
X68000D02*
X67078Y56225D01*
X66297Y55703D01*
X65775Y54922D01*
X65592Y54000D01*
X65775Y53078D01*
X66297Y52297D01*
X67078Y51775D01*
X68000Y51591D01*
X68922Y51775D01*
X69703Y52297D01*
X70225Y53078D01*
X70408Y54000D01*
X70225Y54922D01*
X69703Y55703D01*
X68922Y56225D01*
X68000Y56409D01*
D02*
G37*
G36*
X114220Y61708D02*
X114007Y61665D01*
X112055D01*
Y61444D01*
X110500D01*
X110287Y61402D01*
X108335D01*
Y60124D01*
X107894Y59889D01*
X107807Y59947D01*
X107000Y60107D01*
X106193Y59947D01*
X105510Y59490D01*
X105053Y58807D01*
X104893Y58000D01*
X105053Y57193D01*
X105510Y56510D01*
X105985Y56192D01*
X106007Y56083D01*
Y55678D01*
X105297Y55203D01*
X104775Y54422D01*
X104592Y53500D01*
X104775Y52578D01*
X105297Y51797D01*
X106078Y51275D01*
X107000Y51091D01*
X107922Y51275D01*
X107948Y51292D01*
X112047D01*
Y50744D01*
X117953D01*
Y56256D01*
X116428D01*
Y59500D01*
X116386Y59713D01*
Y61665D01*
X114434D01*
X114220Y61708D01*
D02*
G37*
G36*
X81000Y62107D02*
X80194Y61947D01*
X79510Y61490D01*
X79053Y60807D01*
X78893Y60000D01*
X79053Y59193D01*
X79510Y58510D01*
X80194Y58053D01*
X81000Y57893D01*
X81806Y58053D01*
X82490Y58510D01*
X82947Y59193D01*
X83107Y60000D01*
X82947Y60807D01*
X82490Y61490D01*
X81806Y61947D01*
X81000Y62107D01*
D02*
G37*
G36*
X132000Y57867D02*
X130818Y57711D01*
X129717Y57255D01*
X128771Y56529D01*
X128427Y56081D01*
X125039D01*
Y56256D01*
X119134D01*
Y50744D01*
X125039D01*
Y50919D01*
X128120D01*
X128771Y50071D01*
X129717Y49345D01*
X130818Y48889D01*
X132000Y48733D01*
X133182Y48889D01*
X134283Y49345D01*
X135229Y50071D01*
X135955Y51017D01*
X136411Y52118D01*
X136567Y53300D01*
X136411Y54482D01*
X135955Y55583D01*
X135229Y56529D01*
X134283Y57255D01*
X133182Y57711D01*
X132000Y57867D01*
D02*
G37*
%LPD*%
D11*
X114220Y59500D02*
D03*
X117764D02*
D03*
D12*
X110500Y62779D02*
D03*
Y59236D02*
D03*
D16*
X115000Y53500D02*
D03*
X122087D02*
D03*
D30*
X114220Y54280D02*
Y59500D01*
X110500Y59236D02*
X113957D01*
X114220Y59500D01*
X107000Y53500D02*
X115000D01*
D31*
X12500Y64500D02*
X13500Y65500D01*
X9800Y64500D02*
X12500D01*
X8253Y66047D02*
X9800Y64500D01*
X5120Y66047D02*
X8253D01*
X9800Y67100D02*
X11100D01*
X8885Y68015D02*
X9800Y67100D01*
X5120Y68015D02*
X8885D01*
X16100Y62700D02*
Y64600D01*
Y62700D02*
X16691Y62109D01*
X20671D01*
X75279Y73779D02*
X76221D01*
X58500Y57000D02*
X75279Y73779D01*
X35500Y57000D02*
X58500D01*
X47500Y30000D02*
X48500Y29000D01*
Y10000D02*
Y29000D01*
X46500Y8000D02*
X48500Y10000D01*
X39500Y8000D02*
X46500D01*
X13500Y65500D02*
Y95000D01*
X57500Y44000D02*
Y47500D01*
X56000Y49000D02*
X57500Y47500D01*
X47000Y40500D02*
X51000Y44500D01*
X25500Y40500D02*
X47000D01*
X25456Y40456D02*
X25500Y40500D01*
X20671Y40456D02*
X25456D01*
X32000Y86000D02*
X66000D01*
X23976Y77976D02*
X32000Y86000D01*
X23976Y70976D02*
Y77976D01*
X22983Y69984D02*
X23976Y70976D01*
X20671Y69984D02*
X22983D01*
X5120Y52267D02*
X10267D01*
X10500Y52500D01*
X5120Y54235D02*
X8235D01*
X9000Y55000D01*
X13500D01*
X45593Y82093D02*
X78407D01*
X43000Y79500D02*
X45593Y82093D01*
X43000Y65000D02*
Y79500D01*
X38500Y60500D02*
X43000Y65000D01*
X32000Y60500D02*
X38500D01*
X5120Y58172D02*
X13172D01*
X14500Y59500D01*
X13500Y95000D02*
X18000Y99500D01*
X38000D01*
X45500Y107000D01*
X20671Y44393D02*
X24993D01*
X26100Y45500D01*
X20671Y42424D02*
X26524D01*
X33100Y49000D01*
X56000D01*
D32*
X10983Y69984D02*
X11200Y70200D01*
X5120Y69984D02*
X10983D01*
X10281Y36519D02*
X11500Y35300D01*
Y23749D02*
Y35300D01*
Y23749D02*
X23249Y12000D01*
X13000Y24500D02*
Y37300D01*
Y24500D02*
X16000Y21500D01*
X11813Y38487D02*
X13000Y37300D01*
X27000Y12000D02*
X33500Y5500D01*
X23249Y12000D02*
X27000D01*
X5120Y36519D02*
X10281D01*
X5120Y38487D02*
X11813D01*
X16000Y21500D02*
X27500D01*
X14500Y25000D02*
Y39000D01*
Y25000D02*
X16327Y23173D01*
X29327D01*
X13044Y40456D02*
X14500Y39000D01*
X5120Y40456D02*
X13044D01*
X8924Y42424D02*
X10500Y44000D01*
X5120Y42424D02*
X8924D01*
X29327Y23173D02*
X29500Y23000D01*
D35*
X122000Y99000D02*
D03*
X132000D02*
D03*
X142000D02*
D03*
X122000Y87500D02*
D03*
X132000D02*
D03*
X142000D02*
D03*
X122000Y76000D02*
D03*
X132000D02*
D03*
X142000D02*
D03*
X122000Y64500D02*
D03*
X132000D02*
D03*
X142000D02*
D03*
D36*
Y53300D02*
D03*
X132000D02*
D03*
D37*
X11100Y67100D02*
D03*
X110700Y24036D02*
D03*
X97900Y23636D02*
D03*
X111000Y34736D02*
D03*
X97900Y35036D02*
D03*
X67020Y92200D02*
D03*
X2400Y21600D02*
D03*
Y23700D02*
D03*
X1600Y32300D02*
D03*
X2400Y26120D02*
D03*
X4500Y15500D02*
D03*
X2000Y15000D02*
D03*
X47500Y30000D02*
D03*
X16100Y64600D02*
D03*
X19000Y5500D02*
D03*
X126000Y107500D02*
D03*
Y112000D02*
D03*
X26000Y107500D02*
D03*
X23000Y115500D02*
D03*
X58000Y26000D02*
D03*
X44000Y30500D02*
D03*
X32000Y45000D02*
D03*
X34500Y26500D02*
D03*
Y30500D02*
D03*
X24500Y14000D02*
D03*
X6000Y29500D02*
D03*
Y27000D02*
D03*
X8500D02*
D03*
Y29500D02*
D03*
X10500Y44000D02*
D03*
X29500Y23000D02*
D03*
X27500Y21500D02*
D03*
X32500Y23000D02*
D03*
X33500Y14500D02*
D03*
X35500Y13000D02*
D03*
X31500D02*
D03*
X35500Y16000D02*
D03*
X31500D02*
D03*
X65500Y17000D02*
D03*
X25000Y9500D02*
D03*
X35500Y22500D02*
D03*
X54500Y15000D02*
D03*
Y10000D02*
D03*
X62500Y9500D02*
D03*
Y12500D02*
D03*
X46000Y17000D02*
D03*
X42000D02*
D03*
X39500Y8000D02*
D03*
X42500Y5000D02*
D03*
X33500Y5500D02*
D03*
X24000Y5000D02*
D03*
X25000Y18500D02*
D03*
X51000Y44500D02*
D03*
X57500Y44000D02*
D03*
X107000Y58000D02*
D03*
X115000Y92000D02*
D03*
X115500Y81000D02*
D03*
X113500Y71000D02*
D03*
X115500Y64000D02*
D03*
X107500Y109000D02*
D03*
X113000Y108000D02*
D03*
X66000Y86000D02*
D03*
X76221Y73779D02*
D03*
X78516Y81984D02*
D03*
X10500Y52500D02*
D03*
X35500Y57000D02*
D03*
X13500Y55000D02*
D03*
X32000Y60500D02*
D03*
X14500Y59500D02*
D03*
X69500Y72000D02*
D03*
X72000Y88500D02*
D03*
X75500Y86500D02*
D03*
X78476Y77524D02*
D03*
X62000Y80000D02*
D03*
X79000Y93000D02*
D03*
X63500Y75000D02*
D03*
X70720Y91500D02*
D03*
X79500Y80000D02*
D03*
X81000Y60000D02*
D03*
X45500Y107000D02*
D03*
X8500Y90500D02*
D03*
X46300Y20300D02*
D03*
X49200Y6100D02*
D03*
X45300Y5900D02*
D03*
X31400Y2900D02*
D03*
X11200Y70200D02*
D03*
X26300Y45700D02*
D03*
X53100Y30136D02*
D03*
D38*
X71500Y79900D02*
D03*
D39*
X75000Y48500D02*
D03*
X80000Y54000D02*
D03*
X68000D02*
D03*
X10500Y48500D02*
D03*
X15500Y45500D02*
D03*
X107000Y53500D02*
D03*
D40*
X7580Y8074D02*
D03*
X140651Y7287D02*
D03*
X6891Y111224D02*
D03*
X140848D02*
D03*
D41*
X18801Y74609D02*
D03*
X6990D02*
D03*
Y28054D02*
D03*
X18801D02*
D03*
D42*
X20671Y32582D02*
D03*
Y34550D02*
D03*
Y36519D02*
D03*
Y38487D02*
D03*
Y40456D02*
D03*
Y42424D02*
D03*
Y44393D02*
D03*
Y46361D02*
D03*
Y48330D02*
D03*
Y50298D02*
D03*
Y52267D02*
D03*
Y54235D02*
D03*
Y56204D02*
D03*
Y58172D02*
D03*
Y60141D02*
D03*
Y62109D02*
D03*
Y64078D02*
D03*
Y66046D02*
D03*
Y68015D02*
D03*
Y69984D02*
D03*
X5120Y69984D02*
D03*
Y68015D02*
D03*
Y66047D02*
D03*
Y64078D02*
D03*
Y62110D02*
D03*
Y60141D02*
D03*
Y58172D02*
D03*
Y56204D02*
D03*
Y54235D02*
D03*
Y52267D02*
D03*
Y50298D02*
D03*
Y48330D02*
D03*
Y46361D02*
D03*
Y44393D02*
D03*
Y42424D02*
D03*
Y40456D02*
D03*
Y38487D02*
D03*
Y36519D02*
D03*
Y34550D02*
D03*
Y32582D02*
D03*
Y34550D02*
D03*
D43*
X122087Y53500D02*
X131800D01*
X132000Y53300D01*
D44*
X7000Y30250D02*
D03*
M02*
